<svg fill="none" height="24" viewBox="0 0 36 24" width="36" xmlns="http://www.w3.org/2000/svg"><path d="m0 3c0-1.65685 1.34315-3 3-3h30c1.6569 0 3 1.34315 3 3v18c0 1.6569-1.3431 3-3 3h-30c-1.65685 0-3-1.3431-3-3z" fill="#d4def7"/><path d="m26.5671 7.40307-.6966 1.53554h1.3969zm-8.0379.95155c.1313-.06232.2086-.19787.2086-.3662 0-.16495-.0812-.28441-.2125-.34055-.1196-.06223-.3035-.06942-.48-.06942h-1.2461v.85557h1.2294c.1969.00005.3615-.00258.5006-.0794zm-15.96821-.95155-.68867 1.53554h1.3815zm32.06381 9.83713h-1.9544v-.8261h1.9465c.1929 0 .3281-.0231.4095-.0955.0769-.0645.1204-.1558.1196-.2512 0-.1123-.049-.2014-.1237-.2547-.0733-.0589-.1803-.0856-.3566-.0856-.9502-.0294-2.1357.0267-2.1357-1.1925 0-.5588.39-1.147 1.4521-1.147h2.0159v-.7665h-1.873c-.5652 0-.9759.1231-1.2666.3147v-.3147h-2.7703c-.443 0-.963.0998-1.2089.3147v-.3147h-4.9473v.3147c-.3937-.2585-1.0581-.3147-1.3646-.3147h-3.2632v.3147c-.3114-.2745-1.0043-.3147-1.4263-.3147h-3.6521l-.8356.8227-.7827-.8227h-5.45552v5.3763h5.35262l.861-.836.8111.836 3.2994.0026v-1.2647h.3244c.4378.0064.9541-.0098 1.4097-.1889v1.4508h2.7214v-1.4013h.1313c.1674 0 .184.0064.184.1587v1.2423h8.2673c.5249 0 1.0735-.1221 1.3773-.3442v.3442h2.6224c.5456 0 1.0786-.0696 1.484-.2477v-1.0016c-.2457.3271-.7249.4928-1.3731.4928zm-16.781-1.2694h-1.2628v1.2923h-1.967l-1.2462-1.2754-1.295 1.2754h-4.00876v-3.8528h4.07036l1.2451 1.2629 1.2873-1.2629h3.2338c.8031 0 1.7055.2024 1.7055 1.2693 0 1.0703-.8777 1.2912-1.7623 1.2912zm6.0721-.1747c.143.188.1636.3636.1677.7032v.7638h-1.0161v-.482c0-.2318.0246-.575-.1636-.7541-.1477-.138-.3732-.171-.7425-.171h-1.0815v1.4071h-1.0168v-3.8527h2.3363c.5126 0 .8856.0207 1.2178.1817.3194.1756.5204.4161.5204.8556-.0001.6149-.4509.9286-.7173 1.025.2251.0756.4092.2112.4956.3234zm4.1805-1.589h-2.3699v.7004h2.312v.7861h-2.312v.7666l2.3699.0034v.7995h-3.3777v-3.8528h3.3777zm2.6005 3.0559h-1.971v-.8262h1.9632c.192 0 .3281-.0231.4134-.0954.0696-.0596.1196-.1462.1196-.2511 0-.1124-.0542-.2015-.1235-.255-.0775-.0587-.1843-.0853-.3604-.0853-.9465-.0295-2.1317.0265-2.1317-1.1926 0-.5588.3859-1.147 1.4469-1.147h2.029v.8199h-1.8566c-.184 0-.3037.0064-.4054.0697-.111.0624-.1521.155-.1521.2771 0 .1453.0942.2443.2214.287.1068.0338.2214.0436.3939.0436l.5448.0136c.5492.0119.9265.0986 1.1558.3097.1969.1855.3027.4198.3027.8162-.0001.8289-.5693 1.2158-1.59 1.2158zm-7.849-2.9937c-.1223-.0661-.3028-.0696-.4829-.0696h-1.2462v.8652h1.2296c.1968 0 .3642-.0063.4995-.0794.1311-.0721.2096-.205.2096-.3698 0-.1647-.0785-.284-.2096-.3464zm11.3074-.0697c-.184 0-.3065.0063-.4095.0696-.1068.0625-.1478.155-.1478.2772 0 .1452.0901.2442.2213.287.1068.0338.2213.0437.3899.0437l.5486.0132c.5534.0125.923.0992 1.1483.3103.0411.0293.0657.0622.0939.0953v-1.0962h-1.8446zm-16.2765 0h-1.3195v.9813h1.3078c.3888 0 .6306-.1756.6308-.5089-.0002-.3369-.2537-.4724-.6191-.4724zm-8.80679 0v.7005h2.22169v.7861h-2.22169v.7665h2.48819l1.156-1.1303-1.1069-1.1228zm6.49719 2.6942v-3.0888l-1.5537 1.5196zm-6.41226-6.1857v.6638h8.45506l-.0039-1.40434h.1636c.1146.00363.148.01323.148.18534v1.2191h4.373v-.327c.3528.172.9013.327 1.6232.327h1.8398l.3937-.8555h.8729l.385.8555h3.5453v-.8127l.5367.8126h2.841v-5.3719h-2.8115v.63444l-.3937-.63444h-2.885v.63444l-.3615-.63444h-3.897c-.6524 0-1.2257.08283-1.6889.31369v-.31369h-2.6894v.31369c-.2947-.23796-.6964-.31369-1.1428-.31369h-9.82502l-.65918 1.38755-.677-1.38755h-3.09455v.63444l-.34002-.63444h-2.63913l-1.22555385 2.55423v2.04307l1.81222385-3.85181h1.50368l1.72111 3.64691v-3.64691h1.65184l1.32441 2.613 1.21674-2.613h1.68495v3.85181h-1.03731l-.00378-3.01666-1.46754 3.01666h-.88858l-1.47127-3.01933v3.01933h-2.05851l-.38885-.85912h-2.10716l-.39287.85912h-1.09913v.7749h1.72924l.38987-.8555h.87297l.38885.8555h3.40222v-.6541l.30365.6569h1.76616l.3037-.6668zm13.32356-3.51363c.327-.30743.8394-.4492 1.5368-.4492h.9798v.82534h-.9592c-.3692 0-.5779.04996-.7787.22823-.1726.16215-.291.46874-.291.87245 0 .41269.0903.71021.2782.90457.1559.15242.4391.19865.7054.19865h.4547l1.4263-3.02911h1.5163l1.7135 3.6433v-3.64325h1.5409l1.7789 2.68259v-2.68259h1.0367v3.85175h-1.4342l-1.9182-2.891v2.891h-2.0611l-.3938-.85919h-2.1024l-.3821.85919h-1.1843c-.4919 0-1.1147-.099-1.4674-.4261-.3557-.327-.5406-.77001-.5406-1.47041-.0002-.57133.1103-1.09353.5455-1.50622zm-2.0817-.44916h1.0326v3.85189h-1.0326zm-4.6556 0h2.3277c.517 0 .8983.01249 1.2255.1845.3202.17206.5121.42325.5121.85282 0 .61419-.4506.93143-.713 1.02675.2214.07669.4106.21215.5007.32434.1429.1916.1675.36273.1675.7067v.75668h-1.0207l-.0038-.4857c0-.23184.0244-.56517-.1597-.75037-.1479-.13541-.3733-.16491-.7377-.16491h-1.0864v1.40108h-1.0121zm-4.0798 0h3.3808v.80211h-2.3686v.69431h2.3118v.78957h-2.3118v.76924h2.3686v.79656h-3.3808z" fill="#2557d6"/></svg>