<svg fill="none" height="24" viewBox="0 0 36 24" width="36" xmlns="http://www.w3.org/2000/svg"><path d="m0 3c0-1.65685 1.34315-3 3-3h30c1.6569 0 3 1.34315 3 3v18c0 1.6569-1.3431 3-3 3h-30c-1.65685 0-3-1.3431-3-3z" fill="#e6e6e6"/><path d="m27.9078 18.8445c1.3827 0 2.0335-.5276 2.6019-2.1268l2.4903-6.98476h-1.4418l-1.67 5.40386h-.0293l-1.6699-5.39654h-1.4827l2.4024 6.64804-.1287.4044c-.0908.5788-.6105.9917-1.1954.949-.1116 0-.3281-.0115-.416-.0231v1.0978c.1788.0244.3593.036.5392.0354zm-4.8049-3.4979c-.7563 0-1.2363-.3659-1.2363-.9197 0-.574.4629-.9082 1.3479-.9613l1.576-.0994v.516c-.0347.8502-.7526 1.512-1.6028 1.4772-.0287-.0012-.0567-.0036-.0848-.0061zm-.3806 1.0838c.8582.0232 1.6608-.4239 2.092-1.1661h.0293v1.0978h1.3125v-4.5469c0-1.3186-1.0545-2.16826-2.6781-2.16826-1.5059 0-2.6196.86116-2.6605 2.04506h1.2778c.1525-.602.7246-.9991 1.3418-.932.8673 0 1.3534.4044 1.3534 1.1485v.5038l-1.7687.1055c-1.6468.0994-2.5373.7734-2.5373 1.9456-.0012 1.1888.9186 1.9737 2.2372 1.9737zm-7.6062-8.01h1.6345c1.2308 0 1.9341.65627 1.9341 1.8108 0 1.1546-.7033 1.8164-1.9396 1.8164h-1.629zm-1.4181-1.19543v9.13533h1.4181v-3.1142h1.9633c1.5992.086 2.9648-1.1406 3.0508-2.7398.0049-.0909.0055-.1811.0018-.272.0756-1.58152-1.1448-2.92455-2.7263-3.00079-.0933-.00427-.186-.00366-.2794.00061zm-4.70672 1.70471c-.81484-.04696-1.51198.46293-1.89866.46293-.38669 0-.98441-.43914-1.62909-.42694-.85388.02196-1.63213.49464-2.04505 1.24243-.87888 1.5119-.22871 3.7503.6209 4.9805.41596.61.91487 1.2778 1.57053 1.254.6209-.0232.8673-.4044 1.6175-.4044.75019 0 .97281.4044 1.62908.3922.67945-.0116 1.10761-.6099 1.52481-1.2198.294-.4318.5227-.9045.6794-1.4028-.8008-.3501-1.31983-1.1387-1.3241-2.0127.0122-.771.416-1.4821 1.0722-1.8865-.4184-.59406-1.08989-.95879-1.8163-.98441zm-.50867-.80691c-.3568.4495-.90267.7075-1.4766.69713-.0366-.5599.1537-1.11066.52758-1.52906.37204-.43182.89657-.70262 1.46379-.75568.04026.57576-.14455 1.1442-.51599 1.58578" fill="#000"/></svg>