<svg fill="none" height="24" viewBox="0 0 36 24" width="36" xmlns="http://www.w3.org/2000/svg"><path d="m0 3c0-1.65685 1.34315-3 3-3h30c1.6569 0 3 1.34315 3 3v18c0 1.6569-1.3431 3-3 3h-30c-1.65685 0-3-1.3431-3-3z" fill="#d8e3f3"/><path d="m30.9829 7.52734h-1.886c-.5701 0-1.0087.17544-1.2719.74562l-3.5965 8.20174h2.5439s.4386-1.0965.5263-1.3596h3.114c.0877.307.307 1.3158.307 1.3158h2.2807zm-2.9825 5.74566c.2193-.5264.965-2.5.965-2.5 0 .0438.2193-.5264.307-.83338l.1754.78948s.4825 2.1491.5702 2.5877h-2.0176z" fill="#3362ab"/><path d="m24.4034 13.5349c0 1.8421-1.6667 3.0702-4.2544 3.0702-1.0965 0-2.1491-.2193-2.7193-.4825l.3509-2.0175.307.1315c.7895.3509 1.3158.4825 2.2807.4825.7017 0 1.4473-.2632 1.4473-.8772 0-.3947-.307-.6579-1.2719-1.0965-.921-.4386-2.1491-1.1403-2.1491-2.4123 0-1.75436 1.7105-2.93857 4.1228-2.93857.9211 0 1.7105.17544 2.193.39474l-.3509 1.92982-.1754-.17544c-.4386-.17543-1.0088-.35087-1.8421-.35087-.9211.04386-1.3597.43859-1.3597.78947 0 .39475.5263.70175 1.3597 1.09645 1.4035.6579 2.0614 1.4036 2.0614 2.4562z" fill="#3362ab"/><path d="m3 7.61294.04386-.17544h3.77193c.52631 0 .92105.17544 1.05263.74561l.83333 3.94739c-.83333-2.1053-2.76315-3.81581-5.70175-4.51756z" fill="#f9b50b"/><g fill="#3362ab"><path d="m14.0086 7.52433-3.8158 8.90347h-2.58771l-2.19298-7.4561c1.57895 1.00877 2.89474 2.5877 3.37719 3.6842l.26316.9211 2.36844-6.09653h2.5877z"/><path d="m15.0175 7.48047h2.4123l-1.5351 8.94733h-2.4123z"/></g></svg>