<svg fill="none" height="78" viewBox="0 0 134 78" width="134" xmlns="http://www.w3.org/2000/svg"><g fill="#212121"><path clip-rule="evenodd" d="m26.6296 16.5456c-.4955-.2555-1.0578-.39-1.63-.3899-.5723-.0001-1.1345.1344-1.6302.3899l-19.326 9.9664c-.49558.2556-.90709.6231-1.19322 1.0658-.28611.4427-.43673.9448-.43672 1.456v19.9326c-.00001.5111.15061 1.0132.43672 1.4559.28611.4425.69764.8102 1.19322 1.0657l19.326 9.9664c.4956.2555 1.0578.3901 1.6301.3901s1.1344-.1346 1.6301-.3901l19.326-9.9664c.4957-.2555.9071-.6232 1.1931-1.0657.2861-.4427.4368-.9448.4368-1.4559v-19.9326c0-.5112-.1507-1.0133-.4368-1.456-.286-.4427-.6974-.8102-1.1931-1.0658zm-4.4666-1.8667c.8626-.4444 1.8408-.6786 2.8366-.6789h.001c.9959.0004 1.9742.2345 2.8367.6789l19.326 9.9664c.8613.4458 1.5766 1.0858 2.0746 1.8559.4977.7701.7606 1.6433.7621 2.5326v19.9326c-.0018.8893-.2647 1.7627-.7626 2.5329-.498.7699-1.2136 1.41-2.0751 1.8556l-19.326 9.9664c-.8625.4447-1.8408.6787-2.8367.6787-.9958 0-1.9741-.234-2.8366-.6787l-19.32608-9.9664c-.86141-.4458-1.57677-1.0857-2.0746-1.8559-.497823-.7699-.76068747-1.6433-.76232-2.5326v-19.9326c.00158164-.8893.264393-1.7625.762174-2.5327.497786-.7701 1.213106-1.41 2.074496-1.8558zm-10.2906 22.8136c.294-.0007.5851.0506.8567.1513.2715.1004.518.2481.7252.4342l2.9942 2.6744 6.1476-5.4911c.6377-.5686 1.5019-.888 2.4029-.888s1.7653.3194 2.4029.888l8.548 7.6351 2.6419-2.3598c.4199-.3742.9886-.5843 1.5819-.5843.593 0 1.1619.2101 1.5816.5843l3.4607 3.0936v-13.5501c0-.4575-.1349-.907-.3913-1.3032-.2561-.3962-.6245-.7253-1.0681-.9541l-17.2985-8.9208c-.4436-.2288-.9471-.3493-1.4594-.3493s-1.0156.1205-1.4593.3493l-17.2988 8.9208c-.44362.2288-.81203.5579-1.06819.9541-.25617.3962-.39106.8457-.39116 1.3032v12.9177l5.50835-4.9201c.2073-.1863.454-.3339.7257-.4342.2717-.1004.5631-.1519.8571-.151zm-7.09115 8.4544v1.9759c.00018.4196.11383.8329.3313 1.2048.21746.3722.53228.6916.91767.9316l8.76788-7.8318-2.4308-2.1712c-.065-.058-.1422-.104-.2272-.1355-.0849-.0315-.176-.0477-.268-.0477-.0919 0-.183.0162-.2679.0477-.085.0315-.1622.0775-.2272.1355zm39.18605 4.1108-6.3657-5.6871 2.076-1.8554c.1314-.1173.3095-.1832.4954-.1832.1857 0 .3639.0659.4952.1832l4.5479 4.0622v1.3439c-.0003.4196-.1137.8329-.3311 1.2049-.2174.3719-.5322.6915-.9177.9315zm-8.0161-4.2122-1.6503-1.4738-8.548-7.6349c-.1995-.178-.4698-.2778-.7517-.2778s-.5522.0998-.7517.2778l-6.1476 5.4911-1.6506 1.4743-8.33411 7.4432 15.42381 7.9544c.4437.2288.947.3493 1.4593.3493s1.0158-.1205 1.4594-.3493l15.4238-7.9544z" fill-rule="evenodd"/><path d="m79.792 26.3374c.56.588.84 1.288.84 2.1v11.256c0 .812-.28 1.512-.84 2.1l-1.344 1.344c-.56.56-1.246.84-2.058.84h-6.888c-1.12 0-1.68.56-1.68 1.68v6.972c0 1.12-.56 1.68-1.68 1.68h-.462c-1.12 0-1.68-.56-1.68-1.68v-26.796c0-1.12.56-1.68 1.68-1.68h10.71c.812 0 1.498.28 2.058.84zm-2.94 3.318c0-1.12-.56-1.68-1.68-1.68h-5.628c-1.12 0-1.68.56-1.68 1.68v8.82c0 1.12.56 1.68 1.68 1.68h5.586c1.12 0 1.68-.56 1.68-1.68z"/><path d="m98.0758 44.7754c0 1.12-.56 1.68-1.68 1.68h-6.468c-1.12 0-1.68.56-1.68 1.68v.588c0 1.12.56 1.68 1.68 1.68h6.468c1.12 0 1.68.56 1.68 1.68v.462c0 1.12-.56 1.68-1.68 1.68h-7.728c-.812 0-1.498-.294-2.058-.882l-1.344-1.344c-.56-.56-.84-1.246-.84-2.058v-12.18c0-.812.28-1.498.84-2.058l1.344-1.344c.56-.56 1.246-.84 2.058-.84h5.166c.812 0 1.498.28 2.058.84l1.344 1.344c.56.56.84 1.246.84 2.058zm-9.828-3.36c0 1.12.56 1.68 1.68 1.68h2.646c1.12 0 1.68-.56 1.68-1.68v-2.436c0-1.12-.56-1.68-1.68-1.68h-2.646c-1.12 0-1.68.56-1.68 1.68z"/><path d="m106.552 54.2254c-.812 0-1.498-.28-2.058-.84l-1.386-1.386c-.56-.56-.84-1.246-.84-2.058v-4.872c0-.42.07-.784.21-1.092.14-.336.364-.658.672-.966l1.344-1.344c.56-.56 1.246-.84 2.058-.84h3.99c1.12 0 1.68-.56 1.68-1.68v-.126c0-1.12-.56-1.68-1.68-1.68h-6.468c-1.12 0-1.68-.56-1.68-1.68v-.462c0-1.12.56-1.68 1.68-1.68h7.686c.812 0 1.498.28 2.058.84l1.386 1.386c.56.56.84 1.246.84 2.058v14.742c0 1.12-.56 1.68-1.68 1.68zm5.67-8.274c0-1.12-.56-1.68-1.68-1.68h-2.772c-1.12 0-1.68.56-1.68 1.68v3.15c0 1.12.56 1.68 1.68 1.68h2.772c1.12 0 1.68-.56 1.68-1.68z"/><path d="m126.522 48.4714c-.336-.616-.714-.924-1.134-.924-.252 0-.462.126-.63.378s-.252.616-.252 1.092v3.57c0 1.12-.56 1.68-1.68 1.68h-.462c-1.12 0-1.68-.56-1.68-1.68v-27.216c0-1.12.56-1.68 1.68-1.68h.462c1.12 0 1.68.56 1.68 1.68v11.844c0 .448.07.798.21 1.05.168.252.378.378.63.378.392 0 .798-.266 1.218-.798l2.52-3.234c.56-.728 1.232-1.092 2.016-1.092h.63c.448 0 .798.098 1.05.294s.378.448.378.756c0 .28-.112.602-.336.966l-4.074 6.048c-.252.364-.378.756-.378 1.176 0 .392.098.77.294 1.134l4.494 8.358c.168.336.252.644.252.924 0 .336-.126.602-.378.798s-.588.294-1.008.294h-.882c-.924 0-1.596-.392-2.016-1.176z"/></g></svg>