<svg fill="none" height="24" viewBox="0 0 36 24" width="36" xmlns="http://www.w3.org/2000/svg"><path d="m0 3c0-1.65685 1.34315-3 3-3h30c1.6569 0 3 1.34315 3 3v18c0 1.6569-1.3431 3-3 3h-30c-1.65685 0-3-1.3431-3-3z" fill="#fdeace"/><path d="m21.7565 4.89524-7.7467.02664.2347 14.18232 7.7468-.0266z" fill="#ff5f00"/><path d="m14.5202 12.0431c-.0479-2.88458 1.2442-5.44765 3.2682-7.11017-1.5277-1.19883-3.443-1.91973-5.5192-1.91262-4.91868.01684-8.831 4.06888-8.74805 9.06049.08295 4.9915 4.12949 9.0163 9.04815 8.9995 2.0762-.0071 3.9673-.7411 5.4551-1.9502-2.0786-1.6234-3.4563-4.2024-3.5042-7.087z" fill="#eb001b"/><path d="m32.4806 11.9221c.083 4.9916-3.8293 9.0437-8.748 9.0605-2.0762.0071-3.9915-.7138-5.5193-1.9126 2.0487-1.6626 3.3162-4.2256 3.2683-7.1102-.0479-2.88458-1.4252-5.4385-3.5042-7.08698 1.4877-1.20916 3.3789-1.9431 5.4551-1.95021 4.9186-.01684 8.9656 4.03303 9.0481 8.99949z" fill="#f79e1b"/></svg>