<svg fill="none" height="24" viewBox="0 0 36 24" width="36" xmlns="http://www.w3.org/2000/svg"><path d="m0 3c0-1.65685 1.34315-3 3-3h30c1.6569 0 3 1.34315 3 3v18c0 1.6569-1.3431 3-3 3h-30c-1.65685 0-3-1.3431-3-3z" fill="#ccdeff"/><path d="m8.07812 8.63807c-.37603-.25851-.86671-.38807-1.47204-.38807h-2.34353c-.18557 0-.2881.09281-.30757.27824l-.95199 5.97586c-.0099.0587.00479.1124.04392.1612.0389.0489.08784.0732.14644.0732h1.11316c.19524 0 .30256-.0926.32226-.2782l.2636-1.6111c.00963-.0781.04397-.1416.10257-.1905.05856-.0488.1318-.0807.21969-.0953.08788-.0145.17075-.0218.24901-.0218.07803 0 .17075.0049.27833.0146.10732.0098.17572.0145.20505.0145.83971 0 1.49881-.2366 1.97736-.7103.47832-.4735.71775-1.1301.71775-1.97008 0-.5761-.18817-.99349-.56401-1.25239zm-1.2083 1.79433c-.04898.3419-.17577.5663-.38082.6738-.20509.1076-.49802.1611-.87879.1611l-.48338.0146.24906-1.56725c.01943-.10732.08287-.16104.19036-.16104h.27838c.39039 0 .67374.05628.84951.16838.17568.11237.23428.34921.17568.71041z" fill="#003087"/><path d="m32.8093 8.25h-1.0837c-.1077 0-.1711.05372-.1905.16122l-.9521 6.09318-.0146.0293c0 .049.0195.0952.0587.1392.0388.0438.0878.0658.1464.0658h.9668c.1852 0 .2878-.0926.3076-.2782l.952-5.99068v-.01455c0-.13677-.0637-.20509-.1906-.20509z" fill="#009cde"/><path d="m19.7142 10.6074c0-.0487-.0196-.0952-.0584-.139-.0392-.0439-.0831-.0661-.1318-.0661h-1.1278c-.1077 0-.1956.0491-.2638.1465l-1.5525 2.285-.6445-2.197c-.0491-.1562-.1563-.2345-.3222-.2345h-1.0987c-.0489 0-.0929.0221-.1317.0661-.0392.0438-.0586.0904-.0586.139 0 .0196.0952.3076.2856.8642.1904.5567.3954 1.1573.6152 1.8018.2197.6444.3343.9863.3441 1.025-.8007 1.0939-1.2009 1.6797-1.2009 1.7577 0 .1271.0633.1905.1904.1905h1.1278c.1074 0 .1952-.0488.2637-.1464l3.735-5.3903c.0194-.0194.0291-.0534.0291-.1026z" fill="#003087"/><path d="m30.2172 10.4033h-1.1132c-.1369 0-.2196.1612-.2489.4835-.2542-.3905-.7177-.586-1.3916-.586-.703 0-1.3012.2637-1.7942.791-.4932.5273-.7396 1.1475-.7396 1.8603 0 .5762.1684 1.0351.5052 1.3767.3369.342.7884.5127 1.355.5127.2831 0 .5712-.0587.8641-.1758s.5222-.2733.6885-.4687c0 .0098-.01.0536-.0293.1317-.0197.0783-.0293.137-.0293.1758 0 .1564.0633.2343.1904.2343h1.0107c.1853 0 .2929-.0926.3221-.2783l.6006-3.8229c.0096-.0586-.005-.1122-.044-.1611-.0392-.0487-.088-.0732-.1465-.0732zm-1.9114 2.8856c-.249.2441-.5493.3661-.9008.3661-.2833 0-.5126-.0779-.6884-.2343-.1759-.1559-.2638-.3707-.2638-.6444 0-.3611.1221-.6665.3663-.9155.2438-.249.5468-.3734.9081-.3734.2732 0 .5002.0805.6811.2415.1804.1612.2711.3834.2711.6666-.0001.3515-.1246.6494-.3736.8934z" fill="#009cde"/><path d="m13.5787 10.4033h-1.1132c-.1369 0-.2198.1612-.2491.4835-.2636-.3905-.7275-.586-1.3915-.586-.703 0-1.30119.2637-1.79424.791-.49319.5273-.73964 1.1475-.73964 1.8603 0 .5762.16846 1.0351.50536 1.3767.33689.342.78839.5127 1.35482.5127.2733 0 .5566-.0587.8495-.1758s.5273-.2733.7031-.4687c-.0392.1171-.0586.2197-.0586.3075 0 .1564.0634.2343.1904.2343h1.0106c.1854 0 .2929-.0926.3223-.2783l.6004-3.8229c.0097-.0586-.0049-.1122-.0439-.1611-.0391-.0487-.0878-.0732-.1463-.0732zm-1.9115 2.8929c-.249.2395-.5543.3588-.9154.3588-.2833 0-.5103-.0779-.6811-.2343-.17097-.1559-.25635-.3707-.25635-.6444 0-.3611.122-.6665.36625-.9155.2439-.249.5466-.3735.9081-.3735.2732 0 .5003.0806.6811.2416.1805.1612.2709.3834.2709.6666 0 .3613-.1245.6617-.3735.9007z" fill="#003087"/><path d="m24.7169 8.63807c-.376-.25851-.8666-.38807-1.472-.38807h-2.329c-.1953 0-.3028.09281-.3222.27824l-.952 5.97586c-.0099.0587.0047.1124.0439.1612.0387.0489.0878.0732.1464.0732h1.201c.1172 0 .1953-.0634.2344-.1904l.2637-1.6989c.0097-.0781.0439-.1416.1025-.1905.0587-.0488.1318-.0807.2198-.0953.0878-.0145.1706-.0218.2489-.0218.0781 0 .1708.0049.2783.0146.1073.0098.1759.0145.205.0145.8399 0 1.4989-.2366 1.9774-.7103.4785-.4735.7177-1.1301.7177-1.97008.0001-.5761-.188-.99353-.5638-1.25239zm-1.5013 2.40943c-.2149.1465-.5372.2197-.9667.2197l-.4688.0147.249-1.56734c.0194-.10727.0829-.16109.1904-.16109h.2636c.2148 0 .3857.00981.5128.02928.1267.01961.249.08055.3661.18302.1173.10257.1758.25153.1758.44673 0 .4103-.1075.6885-.3222.835z" fill="#009cde"/></svg>