<svg width="151" height="50" viewBox="0 0 151 50" fill="none" xmlns="http://www.w3.org/2000/svg">
<path d="M42.7528 42.6401C47.4676 37.9563 50.1107 31.6121 50.1015 25.001C50.0965 24.593 49.9293 24.2033 49.6359 23.9165C49.3425 23.6296 48.9469 23.4689 48.5346 23.4689C48.1221 23.4689 47.7264 23.6296 47.4331 23.9165C47.1397 24.2033 46.9725 24.593 46.9675 25.001C46.9741 30.7946 44.6566 36.3542 40.5243 40.4582C38.5183 42.4964 36.1202 44.1163 33.4711 45.2225C30.8223 46.3285 27.9763 46.8984 25.1013 46.8984C22.2263 46.8984 19.3804 46.3285 16.7315 45.2225C14.0826 44.1163 11.6844 42.4964 9.67833 40.4582C5.55158 36.3502 3.23526 30.7928 3.23526 25.0001C3.23526 19.2073 5.55158 13.6499 9.67833 9.54181C11.6727 7.51932 14.0529 5.90874 16.681 4.80345C19.309 3.69818 22.1327 3.12018 24.9881 3.10298C25.5978 3.12187 26.1759 3.37577 26.5992 3.8105C27.0225 4.2452 27.2573 4.82637 27.2537 5.43004C27.2503 6.03371 27.0085 6.61212 26.5802 7.04195C26.1519 7.47177 25.5708 7.71897 24.9609 7.73085C24.9044 7.73096 24.848 7.73406 24.7919 7.74013C20.4476 7.87859 16.3255 9.67375 13.2876 12.7502C10.0794 15.9464 8.27878 20.2687 8.27878 24.7738C8.27878 29.279 10.0794 33.6011 13.2876 36.7974C14.855 38.3863 16.7276 39.6489 18.7953 40.5109C20.863 41.3729 23.0841 41.817 25.3277 41.817C27.5713 41.817 29.7925 41.3729 31.8603 40.5109C33.9278 39.6489 35.8005 38.3863 37.3678 36.7974C40.581 33.6045 42.3824 29.2801 42.376 24.7738C42.3826 24.0641 42.247 23.3598 41.9772 22.7021C41.7071 22.0446 41.3083 21.4463 40.8033 20.9421C40.2984 20.4379 39.6977 20.0376 39.0356 19.7645C38.3736 19.4913 37.6635 19.3507 36.9461 19.3507C36.2288 19.3507 35.5187 19.4913 34.8567 19.7645C34.1946 20.0376 33.5939 20.4379 33.089 20.9421C32.584 21.4463 32.1852 22.0446 31.9151 22.7021C31.6453 23.3598 31.5097 24.0641 31.5163 24.7738C31.5163 24.8191 31.5193 24.8616 31.523 24.9051C31.5193 24.9485 31.5163 24.992 31.5163 25.0363C31.5266 26.2738 31.1651 27.4864 30.4776 28.5204C29.7905 29.5542 28.8083 30.3626 27.6559 30.8433C26.5036 31.3238 25.2328 31.4548 24.0053 31.2196C22.7775 30.9843 21.6481 30.3936 20.7602 29.5221C19.8724 28.6505 19.2661 27.5378 19.0184 26.3247C18.7706 25.1117 18.8926 23.8532 19.3688 22.7089C19.8449 21.5645 20.6538 20.5859 21.6929 19.8973C22.7319 19.2087 23.9543 18.8411 25.2047 18.841C25.4121 18.8435 25.6179 18.8052 25.8102 18.7284C26.0026 18.6516 26.1775 18.5377 26.325 18.3935C26.4725 18.2492 26.5898 18.0774 26.6696 17.888C26.7497 17.6986 26.7908 17.4954 26.7908 17.2902C26.7908 17.085 26.7497 16.8817 26.6696 16.6924C26.5898 16.503 26.4725 16.3312 26.325 16.1869C26.1775 16.0427 26.0026 15.9288 25.8102 15.852C25.6179 15.7752 25.4121 15.7369 25.2047 15.7394C23.3489 15.7496 21.5377 16.3035 19.9997 17.3313C18.4616 18.359 17.2656 19.8146 16.5626 21.5144C15.8595 23.2141 15.6809 25.0818 16.0493 26.8819C16.4177 28.682 17.3165 30.3336 18.6324 31.6288C19.9483 32.9238 21.6224 33.8041 23.4434 34.1588C25.2642 34.5132 27.1506 34.326 28.8641 33.6208C30.5776 32.9156 32.0418 31.7241 33.0718 30.1963C34.1018 28.6684 34.6513 26.8729 34.6513 25.0363C34.6513 24.9911 34.6484 24.9485 34.6447 24.9051C34.6484 24.8616 34.6513 24.8182 34.6513 24.7738C34.6452 24.4717 34.7 24.1714 34.8128 23.8903C34.9253 23.6094 35.0936 23.3535 35.3072 23.1378C35.521 22.9219 35.7762 22.7503 36.0577 22.6333C36.3392 22.5163 36.6418 22.456 36.9471 22.456C37.2524 22.456 37.5549 22.5163 37.8364 22.6333C38.1179 22.7503 38.3731 22.9219 38.5869 23.1378C38.8005 23.3535 38.9688 23.6094 39.0814 23.8903C39.1941 24.1714 39.249 24.4717 39.2428 24.7738C39.2469 28.4632 37.7712 32.0031 35.1398 34.6164C33.864 35.9136 32.3384 36.9445 30.6533 37.6485C28.9681 38.3526 27.1574 38.7151 25.3282 38.7151C23.4992 38.7151 21.6886 38.3526 20.0034 37.6485C18.3182 36.9445 16.7927 35.9136 15.5168 34.6164C12.8889 32.0009 11.4138 28.4622 11.4138 24.7738C11.4138 21.0854 12.8889 17.5468 15.5168 14.9312C16.7937 13.6357 18.3193 12.6057 20.004 11.9019C21.6887 11.198 23.4985 10.8344 25.3273 10.8325C25.4679 10.8321 25.6079 10.8129 25.7435 10.7754C27.0776 10.573 28.2889 9.89015 29.1456 8.85802C30.0022 7.82588 30.4436 6.51709 30.385 5.18272C30.3265 3.84834 29.7719 2.58234 28.8282 1.62759C27.8844 0.672837 26.6177 0.0965474 25.271 0.00927891C25.2148 0.00321487 25.158 0.000117479 25.1013 0C25.0698 0 25.0384 0 25.0069 0C24.9913 0 24.9762 0 24.9612 0C24.9461 0 24.9305 0.00180926 24.9154 0.00226189C21.6576 0.027617 18.4371 0.69091 15.4396 1.9539C12.442 3.21688 9.72675 5.05459 7.45028 7.36105C2.74332 12.0498 0.101562 18.3907 0.101562 25.0001C0.101562 31.6094 2.74332 37.9502 7.45028 42.6389C9.74778 44.9688 12.493 46.8205 15.5245 48.0845C18.5559 49.3487 21.8122 50 25.1018 50C28.3914 50 31.6476 49.3487 34.6792 48.0845C37.7106 46.8205 40.4557 44.9688 42.7533 42.6389L42.7528 42.6401Z" fill="#E0E0E0"/>
<path d="M83.0853 41.3777C82.1053 41.3777 81.5033 40.8737 81.2793 39.8657L80.2293 34.8257C80.0053 33.8177 79.4033 33.3137 78.4233 33.3137H72.0813C71.1013 33.3137 70.4993 33.8177 70.2753 34.8257L69.2253 39.8657C69.0013 40.8737 68.3993 41.3777 67.4193 41.3777H66.9153C66.4113 41.3777 66.0193 41.2517 65.7393 40.9997C65.4873 40.7477 65.3613 40.4117 65.3613 39.9917C65.3613 39.7957 65.3753 39.6417 65.4033 39.5297L70.7373 12.7337C70.9613 11.7257 71.5633 11.2217 72.5433 11.2217H77.8353C78.8153 11.2217 79.4173 11.7257 79.6413 12.7337L85.1013 39.5297C85.1293 39.6417 85.1433 39.8097 85.1433 40.0337C85.1433 40.9297 84.6253 41.3777 83.5893 41.3777H83.0853ZM75.1893 15.0437C74.5733 15.0437 74.1533 15.5477 73.9293 16.5557L71.7033 27.6857C71.6753 27.7977 71.6613 27.9517 71.6613 28.1477C71.6613 28.5677 71.7873 28.9037 72.0393 29.1557C72.3193 29.4077 72.7113 29.5337 73.2153 29.5337H77.2473C78.2833 29.5337 78.8013 29.0857 78.8013 28.1897C78.8013 27.9657 78.7873 27.7977 78.7593 27.6857L76.4493 16.5557C76.2253 15.5477 75.8053 15.0437 75.1893 15.0437Z" fill="#E0E0E0"/>
<path d="M88.5138 12.8597C88.5138 11.7397 89.0738 11.1797 90.1938 11.1797H90.6138C91.7338 11.1797 92.2938 11.7397 92.2938 12.8597V39.6977C92.2938 40.8177 91.7338 41.3777 90.6138 41.3777H90.1938C89.0738 41.3777 88.5138 40.8177 88.5138 39.6977V12.8597Z" fill="#E0E0E0"/>
<path d="M95.6719 22.3097C95.6719 21.7777 95.7979 21.3717 96.0499 21.0917C96.3299 20.7837 96.7079 20.6297 97.1839 20.6297C97.6599 20.6297 98.0239 20.4897 98.2759 20.2097C98.5559 19.9017 98.6959 19.4817 98.6959 18.9497V15.4637C98.6959 14.6517 98.9759 13.9517 99.5359 13.3637L100.88 12.0197C101.44 11.4597 102.126 11.1797 102.938 11.1797H104.618C105.738 11.1797 106.298 11.7397 106.298 12.8597V13.3217C106.298 14.4417 105.738 15.0017 104.618 15.0017H104.156C103.036 15.0017 102.476 15.5617 102.476 16.6817V18.9497C102.476 20.0697 103.036 20.6297 104.156 20.6297H104.618C105.738 20.6297 106.298 21.1897 106.298 22.3097V22.7717C106.298 23.8917 105.738 24.4517 104.618 24.4517H104.156C103.036 24.4517 102.476 25.0117 102.476 26.1317V39.6557C102.476 40.7757 101.916 41.3357 100.796 41.3357H100.376C99.2559 41.3357 98.6959 40.7757 98.6959 39.6557V26.1317C98.6959 25.5997 98.5559 25.1937 98.2759 24.9137C98.0239 24.6057 97.6599 24.4517 97.1839 24.4517C96.7079 24.4517 96.3299 24.3117 96.0499 24.0317C95.7979 23.7237 95.6719 23.3037 95.6719 22.7717V22.3097Z" fill="#E0E0E0"/>
<path d="M113.469 39.6557C113.469 40.7757 112.909 41.3357 111.789 41.3357H111.327C110.207 41.3357 109.647 40.7757 109.647 39.6557V24.9137C109.647 24.1017 109.927 23.4157 110.487 22.8557L111.873 21.4697C112.433 20.9097 113.119 20.6297 113.931 20.6297H114.687C115.807 20.6297 116.367 21.1897 116.367 22.3097V22.7717C116.367 23.8917 115.891 24.4517 114.939 24.4517C114.463 24.4517 114.099 24.6057 113.847 24.9137C113.595 25.1937 113.469 25.5997 113.469 26.1317V39.6557Z" fill="#E0E0E0"/>
<path d="M132.556 31.8857C132.556 33.0057 131.996 33.5657 130.876 33.5657H124.408C123.288 33.5657 122.728 34.1257 122.728 35.2457V35.8337C122.728 36.9537 123.288 37.5137 124.408 37.5137H130.876C131.996 37.5137 132.556 38.0737 132.556 39.1937V39.6557C132.556 40.7757 131.996 41.3357 130.876 41.3357H123.148C122.336 41.3357 121.65 41.0417 121.09 40.4537L119.746 39.1097C119.186 38.5497 118.906 37.8637 118.906 37.0517V24.8717C118.906 24.0597 119.186 23.3737 119.746 22.8137L121.09 21.4697C121.65 20.9097 122.336 20.6297 123.148 20.6297H128.314C129.126 20.6297 129.812 20.9097 130.372 21.4697L131.716 22.8137C132.276 23.3737 132.556 24.0597 132.556 24.8717V31.8857ZM122.728 28.5257C122.728 29.6457 123.288 30.2057 124.408 30.2057H127.054C128.174 30.2057 128.734 29.6457 128.734 28.5257V26.0897C128.734 24.9697 128.174 24.4097 127.054 24.4097H124.408C123.288 24.4097 122.728 24.9697 122.728 26.0897V28.5257Z" fill="#E0E0E0"/>
<path d="M138.932 21.4697C139.492 20.9097 140.192 20.6297 141.032 20.6297H144.896C146.016 20.6297 146.576 20.0697 146.576 18.9497V12.9017C146.576 11.7817 147.136 11.2217 148.256 11.2217H148.718C149.838 11.2217 150.398 11.7817 150.398 12.9017V39.6977C150.398 40.8177 149.838 41.3777 148.718 41.3777H141.032C140.22 41.3777 139.534 41.0977 138.974 40.5377L137.588 39.1517C137.028 38.5917 136.748 37.9057 136.748 37.0937V24.8717C136.748 24.0597 137.028 23.3737 137.588 22.8137L138.932 21.4697ZM140.57 35.8757C140.57 36.9957 141.13 37.5557 142.25 37.5557H144.896C146.016 37.5557 146.576 36.9957 146.576 35.8757V26.1317C146.576 25.0117 146.016 24.4517 144.896 24.4517H142.25C141.13 24.4517 140.57 25.0117 140.57 26.1317V35.8757Z" fill="#E0E0E0"/>
</svg>
