<svg width="150" height="50" viewBox="0 0 150 50" fill="none" xmlns="http://www.w3.org/2000/svg">
<path d="M42.8837 42.6401C47.5984 37.9563 50.2415 31.6121 50.2324 25.001C50.2274 24.593 50.0602 24.2033 49.7668 23.9165C49.4734 23.6296 49.0778 23.4689 48.6655 23.4689C48.2529 23.4689 47.8573 23.6296 47.5639 23.9165C47.2705 24.2033 47.1033 24.593 47.0983 25.001C47.1049 30.7946 44.7875 36.3542 40.6552 40.4582C38.6492 42.4964 36.251 44.1163 33.602 45.2225C30.9531 46.3285 28.1072 46.8984 25.2322 46.8984C22.3572 46.8984 19.5112 46.3285 16.8623 45.2225C14.2134 44.1163 11.8152 42.4964 9.80919 40.4582C5.68244 36.3502 3.36612 30.7928 3.36612 25.0001C3.36612 19.2073 5.68244 13.6499 9.80919 9.54181C11.8036 7.51932 14.1838 5.90874 16.8118 4.80345C19.4399 3.69818 22.2635 3.12018 25.119 3.10298C25.7287 3.12187 26.3068 3.37577 26.7301 3.8105C27.1534 4.2452 27.3882 4.82637 27.3845 5.43004C27.3811 6.03371 27.1394 6.61212 26.7111 7.04195C26.2828 7.47177 25.7017 7.71897 25.0918 7.73085C25.0353 7.73096 24.9788 7.73406 24.9228 7.74013C20.5784 7.87859 16.4564 9.67375 13.4185 12.7502C10.2102 15.9464 8.40964 20.2687 8.40964 24.7738C8.40964 29.279 10.2102 33.6011 13.4185 36.7974C14.9858 38.3863 16.8584 39.6489 18.9261 40.5109C20.9938 41.3729 23.215 41.817 25.4586 41.817C27.7022 41.817 29.9234 41.3729 31.9911 40.5109C34.0586 39.6489 35.9313 38.3863 37.4987 36.7974C40.7119 33.6045 42.5132 29.2801 42.5068 24.7738C42.5135 24.0641 42.3779 23.3598 42.108 22.7021C41.8379 22.0446 41.4391 21.4463 40.9342 20.9421C40.4293 20.4379 39.8285 20.0376 39.1665 19.7645C38.5044 19.4913 37.7944 19.3507 37.077 19.3507C36.3596 19.3507 35.6496 19.4913 34.9875 19.7645C34.3255 20.0376 33.7248 20.4379 33.2198 20.9421C32.7149 21.4463 32.3161 22.0446 32.046 22.7021C31.7762 23.3598 31.6406 24.0641 31.6472 24.7738C31.6472 24.8191 31.6502 24.8616 31.6538 24.9051C31.6502 24.9485 31.6472 24.992 31.6472 25.0363C31.6575 26.2738 31.2959 27.4864 30.6085 28.5204C29.9213 29.5542 28.9391 30.3626 27.7868 30.8433C26.6345 31.3238 25.3637 31.4548 24.1361 31.2196C22.9084 30.9843 21.7789 30.3936 20.8911 29.5221C20.0032 28.6505 19.397 27.5378 19.1492 26.3247C18.9015 25.1117 19.0235 23.8532 19.4996 22.7089C19.9758 21.5645 20.7847 20.5859 21.8237 19.8973C22.8628 19.2087 24.0851 18.8411 25.3356 18.841C25.543 18.8435 25.7488 18.8052 25.9411 18.7284C26.1334 18.6516 26.3084 18.5377 26.4559 18.3935C26.6034 18.2492 26.7207 18.0774 26.8005 17.888C26.8805 17.6986 26.9217 17.4954 26.9217 17.2902C26.9217 17.085 26.8805 16.8817 26.8005 16.6924C26.7207 16.503 26.6034 16.3312 26.4559 16.1869C26.3084 16.0427 26.1334 15.9288 25.9411 15.852C25.7488 15.7752 25.543 15.7369 25.3356 15.7394C23.4798 15.7496 21.6686 16.3035 20.1305 17.3313C18.5925 18.359 17.3965 19.8146 16.6934 21.5144C15.9904 23.2141 15.8118 25.0818 16.1801 26.8819C16.5485 28.682 17.4474 30.3336 18.7633 31.6288C20.0792 32.9238 21.7532 33.8041 23.5742 34.1588C25.395 34.5132 27.2814 34.326 28.9949 33.6208C30.7084 32.9156 32.1727 31.7241 33.2027 30.1963C34.2327 28.6684 34.7822 26.8729 34.7822 25.0363C34.7822 24.9911 34.7792 24.9485 34.7756 24.9051C34.7792 24.8616 34.7822 24.8182 34.7822 24.7738C34.776 24.4717 34.8309 24.1714 34.9436 23.8903C35.0561 23.6094 35.2245 23.3535 35.438 23.1378C35.6519 22.9219 35.9071 22.7503 36.1886 22.6333C36.4701 22.5163 36.7726 22.456 37.0779 22.456C37.3832 22.456 37.6858 22.5163 37.9673 22.6333C38.2488 22.7503 38.504 22.9219 38.7178 23.1378C38.9314 23.3535 39.0997 23.6094 39.2122 23.8903C39.325 24.1714 39.3798 24.4717 39.3737 24.7738C39.3778 28.4632 37.9021 32.0031 35.2706 34.6164C33.9948 35.9136 32.4693 36.9445 30.7841 37.6485C29.099 38.3526 27.2883 38.7151 25.459 38.7151C23.63 38.7151 21.8194 38.3526 20.1342 37.6485C18.4491 36.9445 16.9235 35.9136 15.6477 34.6164C13.0198 32.0009 11.5447 28.4622 11.5447 24.7738C11.5447 21.0854 13.0198 17.5468 15.6477 14.9312C16.9245 13.6357 18.4501 12.6057 20.1348 11.9019C21.8196 11.198 23.6294 10.8344 25.4581 10.8325C25.5988 10.8321 25.7387 10.8129 25.8743 10.7754C27.2085 10.573 28.4198 9.89015 29.2764 8.85802C30.1331 7.82588 30.5744 6.51709 30.5159 5.18272C30.4573 3.84834 29.9028 2.58234 28.959 1.62759C28.0153 0.672837 26.7486 0.0965474 25.4019 0.00927891C25.3456 0.00321487 25.2889 0.000117479 25.2322 0C25.2006 0 25.1693 0 25.1377 0C25.1222 0 25.1071 0 25.092 0C25.0769 0 25.0614 0.00180926 25.0463 0.00226189C21.7885 0.027617 18.568 0.69091 15.5704 1.9539C12.5729 3.21688 9.8576 5.05459 7.58114 7.36105C2.87418 12.0498 0.232422 18.3907 0.232422 25.0001C0.232422 31.6094 2.87418 37.9502 7.58114 42.6389C9.87864 44.9688 12.6239 46.8205 15.6553 48.0845C18.6867 49.3487 21.9431 50 25.2327 50C28.5222 50 31.7784 49.3487 34.8101 48.0845C37.8415 46.8205 40.5866 44.9688 42.8842 42.6389L42.8837 42.6401Z" fill="#9E9E9E"/>
<path d="M81.9564 40.099C80.9764 40.099 80.3744 39.595 80.1504 38.587L79.1004 33.547C78.8764 32.539 78.2744 32.035 77.2944 32.035H70.9524C69.9724 32.035 69.3704 32.539 69.1464 33.547L68.0964 38.587C67.8724 39.595 67.2704 40.099 66.2904 40.099H65.7864C65.2824 40.099 64.8904 39.973 64.6104 39.721C64.3584 39.469 64.2324 39.133 64.2324 38.713C64.2324 38.517 64.2464 38.363 64.2744 38.251L69.6084 11.455C69.8324 10.447 70.4344 9.943 71.4144 9.943H76.7064C77.6864 9.943 78.2884 10.447 78.5124 11.455L83.9724 38.251C84.0004 38.363 84.0144 38.531 84.0144 38.755C84.0144 39.651 83.4964 40.099 82.4604 40.099H81.9564ZM74.0604 13.765C73.4444 13.765 73.0244 14.269 72.8004 15.277L70.5744 26.407C70.5464 26.519 70.5324 26.673 70.5324 26.869C70.5324 27.289 70.6584 27.625 70.9104 27.877C71.1904 28.129 71.5824 28.255 72.0864 28.255H76.1184C77.1544 28.255 77.6724 27.807 77.6724 26.911C77.6724 26.687 77.6584 26.519 77.6304 26.407L75.3204 15.277C75.0964 14.269 74.6764 13.765 74.0604 13.765Z" fill="#9E9E9E"/>
<path d="M87.3849 11.581C87.3849 10.461 87.9449 9.901 89.0649 9.901H89.4849C90.6049 9.901 91.1649 10.461 91.1649 11.581V38.419C91.1649 39.539 90.6049 40.099 89.4849 40.099H89.0649C87.9449 40.099 87.3849 39.539 87.3849 38.419V11.581Z" fill="#9E9E9E"/>
<path d="M94.543 21.031C94.543 20.499 94.669 20.093 94.921 19.813C95.201 19.505 95.579 19.351 96.055 19.351C96.531 19.351 96.895 19.211 97.147 18.931C97.427 18.623 97.567 18.203 97.567 17.671V14.185C97.567 13.373 97.847 12.673 98.407 12.085L99.751 10.741C100.311 10.181 100.997 9.901 101.809 9.901H103.489C104.609 9.901 105.169 10.461 105.169 11.581V12.043C105.169 13.163 104.609 13.723 103.489 13.723H103.027C101.907 13.723 101.347 14.283 101.347 15.403V17.671C101.347 18.791 101.907 19.351 103.027 19.351H103.489C104.609 19.351 105.169 19.911 105.169 21.031V21.493C105.169 22.613 104.609 23.173 103.489 23.173H103.027C101.907 23.173 101.347 23.733 101.347 24.853V38.377C101.347 39.497 100.787 40.057 99.667 40.057H99.247C98.127 40.057 97.567 39.497 97.567 38.377V24.853C97.567 24.321 97.427 23.915 97.147 23.635C96.895 23.327 96.531 23.173 96.055 23.173C95.579 23.173 95.201 23.033 94.921 22.753C94.669 22.445 94.543 22.025 94.543 21.493V21.031Z" fill="#9E9E9E"/>
<path d="M112.34 38.377C112.34 39.497 111.78 40.057 110.66 40.057H110.198C109.078 40.057 108.518 39.497 108.518 38.377V23.635C108.518 22.823 108.798 22.137 109.358 21.577L110.744 20.191C111.304 19.631 111.99 19.351 112.802 19.351H113.558C114.678 19.351 115.238 19.911 115.238 21.031V21.493C115.238 22.613 114.762 23.173 113.81 23.173C113.334 23.173 112.97 23.327 112.718 23.635C112.466 23.915 112.34 24.321 112.34 24.853V38.377Z" fill="#9E9E9E"/>
<path d="M131.427 30.607C131.427 31.727 130.867 32.287 129.747 32.287H123.28C122.16 32.287 121.6 32.847 121.6 33.967V34.555C121.6 35.675 122.16 36.235 123.28 36.235H129.747C130.867 36.235 131.427 36.795 131.427 37.915V38.377C131.427 39.497 130.867 40.057 129.747 40.057H122.02C121.208 40.057 120.522 39.763 119.962 39.175L118.618 37.831C118.058 37.271 117.778 36.585 117.778 35.773V23.593C117.778 22.781 118.058 22.095 118.618 21.535L119.962 20.191C120.522 19.631 121.208 19.351 122.02 19.351H127.186C127.998 19.351 128.683 19.631 129.243 20.191L130.588 21.535C131.148 22.095 131.427 22.781 131.427 23.593V30.607ZM121.6 27.247C121.6 28.367 122.16 28.927 123.28 28.927H125.926C127.046 28.927 127.606 28.367 127.606 27.247V24.811C127.606 23.691 127.046 23.131 125.926 23.131H123.28C122.16 23.131 121.6 23.691 121.6 24.811V27.247Z" fill="#9E9E9E"/>
<path d="M137.803 20.191C138.363 19.631 139.063 19.351 139.903 19.351H143.767C144.887 19.351 145.447 18.791 145.447 17.671V11.623C145.447 10.503 146.007 9.943 147.127 9.943H147.589C148.709 9.943 149.269 10.503 149.269 11.623V38.419C149.269 39.539 148.709 40.099 147.589 40.099H139.903C139.091 40.099 138.405 39.819 137.845 39.259L136.459 37.873C135.899 37.313 135.619 36.627 135.619 35.815V23.593C135.619 22.781 135.899 22.095 136.459 21.535L137.803 20.191ZM139.441 34.597C139.441 35.717 140.001 36.277 141.121 36.277H143.767C144.887 36.277 145.447 35.717 145.447 34.597V24.853C145.447 23.733 144.887 23.173 143.767 23.173H141.121C140.001 23.173 139.441 23.733 139.441 24.853V34.597Z" fill="#9E9E9E"/>
</svg>
