<svg width="177" height="50" viewBox="0 0 177 50" fill="none" xmlns="http://www.w3.org/2000/svg">
<path d="M43.2573 7.32384C39.7612 3.82714 35.3066 1.44571 30.457 0.480712C25.6073 -0.484288 20.5804 0.0105324 16.0121 1.90259C11.4437 3.79464 7.53893 6.99901 4.7917 11.1103C2.04446 15.2216 0.578125 20.0553 0.578125 25C0.578125 29.9447 2.04446 34.7784 4.7917 38.8897C7.53893 43.001 11.4437 46.2054 16.0121 48.0974C20.5804 49.9895 25.6073 50.4843 30.457 49.5193C35.3066 48.5543 39.7612 46.1729 43.2573 42.6762C47.9448 37.9879 50.5781 31.6296 50.5781 25C50.5781 18.3704 47.9448 12.0121 43.2573 7.32384ZM7.09822 16.5397C8.35795 13.7456 10.2246 11.2673 12.5624 9.28518C14.9002 7.30303 17.6504 5.86678 20.6129 5.08098C23.5754 4.29517 26.6759 4.17955 29.6887 4.7425C32.7016 5.30544 35.5511 6.53277 38.0301 8.33527C31.8937 7.75571 24.2119 10.8921 17.9846 17.1079C15.6344 19.4544 13.6432 22.1348 12.0755 25.0625C9.9433 22.5257 8.26 19.6433 7.09822 16.5397ZM20.8823 45.5397C16.1373 44.2684 12.0011 41.347 9.21643 37.3001C6.43179 33.2533 5.18116 28.3462 5.6892 23.4602C8.26866 29.0625 14.7801 34.1534 23.3255 36.4262C26.5157 37.2915 29.8174 37.6745 33.121 37.5625C31.9982 40.6682 30.3576 43.5614 28.2687 46.1193C25.7904 46.37 23.2872 46.1659 20.8823 45.517V45.5397ZM36.4392 21.7784C35.5968 18.5738 34.2873 15.5107 32.5528 12.6875C35.8019 12.1091 39.1255 12.0861 42.3823 12.6193C43.8401 14.6374 44.9147 16.9062 45.5528 19.3125C46.8262 24.0582 46.3656 29.1025 44.2536 33.539C42.1415 37.9755 38.5166 41.5134 34.0301 43.5171C37.5755 38.5057 38.7119 30.2897 36.4392 21.7784Z" fill="#9E9E9E"/>
<path d="M81.1681 21.997C81.1681 22.809 80.8881 23.509 80.3281 24.097C79.9921 24.433 79.8241 24.783 79.8241 25.147C79.8241 25.483 79.9641 25.791 80.2441 26.071L80.3281 26.155C80.8881 26.715 81.1681 27.415 81.1681 28.255V35.773C81.1681 36.585 80.8881 37.285 80.3281 37.873L78.9841 39.217C78.4241 39.777 77.7381 40.057 76.9261 40.057H66.2581C65.1381 40.057 64.5781 39.497 64.5781 38.377V11.581C64.5781 10.461 65.1381 9.901 66.2581 9.901H76.9261C77.7381 9.901 78.4241 10.195 78.9841 10.783L80.3281 12.127C80.8881 12.687 81.1681 13.373 81.1681 14.185V21.997ZM70.0801 13.723C68.9601 13.723 68.4001 14.283 68.4001 15.403V21.535C68.4001 22.655 68.9601 23.215 70.0801 23.215H75.6661C76.7861 23.215 77.3461 22.655 77.3461 21.535L77.3881 15.403C77.3881 14.283 76.8281 13.723 75.7081 13.723H70.0801ZM77.3881 28.717C77.3881 27.597 76.8281 27.037 75.7081 27.037H70.0801C68.9601 27.037 68.4001 27.597 68.4001 28.717V34.555C68.4001 35.675 68.9601 36.235 70.0801 36.235H75.7081C76.8281 36.235 77.3881 35.675 77.3881 34.555V28.717Z" fill="#9E9E9E"/>
<path d="M89.657 40.015C88.845 40.015 88.159 39.735 87.599 39.175L86.213 37.789C85.653 37.229 85.373 36.543 85.373 35.731V30.859C85.373 30.439 85.443 30.075 85.583 29.767C85.723 29.431 85.947 29.109 86.255 28.801L87.599 27.457C88.159 26.897 88.845 26.617 89.657 26.617H93.647C94.767 26.617 95.327 26.057 95.327 24.937V24.811C95.327 23.691 94.767 23.131 93.647 23.131H87.179C86.059 23.131 85.499 22.571 85.499 21.451V20.989C85.499 19.869 86.059 19.309 87.179 19.309H94.865C95.677 19.309 96.363 19.589 96.923 20.149L98.309 21.535C98.869 22.095 99.149 22.781 99.149 23.593V38.335C99.149 39.455 98.5891 40.015 97.4691 40.015H89.657ZM95.327 31.741C95.327 30.621 94.767 30.061 93.647 30.061H90.875C89.755 30.061 89.195 30.621 89.195 31.741V34.891C89.195 36.011 89.755 36.571 90.875 36.571H93.647C94.767 36.571 95.327 36.011 95.327 34.891V31.741Z" fill="#9E9E9E"/>
<path d="M115.339 25.315C114.807 25.315 114.387 25.217 114.079 25.021C113.799 24.825 113.659 24.545 113.659 24.181C113.659 23.845 113.505 23.579 113.197 23.383C112.917 23.187 112.511 23.089 111.979 23.089H109.291C108.171 23.089 107.611 23.649 107.611 24.769V26.491C107.611 27.611 108.171 28.171 109.291 28.171H113.197C114.009 28.171 114.695 28.451 115.255 29.011L116.641 30.397C117.201 30.957 117.481 31.643 117.481 32.455V35.773C117.481 36.585 117.201 37.271 116.641 37.831L115.255 39.217C114.695 39.777 114.009 40.057 113.197 40.057H108.073C107.261 40.057 106.575 39.777 106.015 39.217L104.629 37.831C104.069 37.271 103.789 36.585 103.789 35.773V35.731C103.789 34.611 104.349 34.051 105.469 34.051H105.931C106.463 34.051 106.869 34.149 107.149 34.345C107.457 34.541 107.611 34.807 107.611 35.143C107.611 35.479 107.751 35.745 108.031 35.941C108.339 36.137 108.759 36.235 109.291 36.235H111.979C113.099 36.235 113.659 35.675 113.659 34.555V33.295C113.659 32.175 113.099 31.615 111.979 31.615H108.031C107.611 31.615 107.247 31.559 106.939 31.447C106.631 31.307 106.309 31.097 105.973 30.817L104.713 29.725C104.377 29.445 104.139 29.151 103.999 28.843C103.859 28.507 103.789 28.115 103.789 27.667V23.551C103.789 23.131 103.859 22.767 103.999 22.459C104.139 22.123 104.363 21.801 104.671 21.493L106.015 20.149C106.575 19.589 107.261 19.309 108.073 19.309H113.197C114.037 19.309 114.737 19.589 115.297 20.149L116.641 21.493C117.201 22.053 117.481 22.739 117.481 23.551V23.635C117.481 24.755 116.921 25.315 115.801 25.315H115.339Z" fill="#9E9E9E"/>
<path d="M131.332 36.235C132.452 36.235 133.012 36.795 133.012 37.915V38.377C133.012 39.497 132.452 40.057 131.332 40.057H128.434C127.622 40.057 126.936 39.777 126.376 39.217L124.99 37.831C124.43 37.271 124.15 36.585 124.15 35.773V24.769C124.15 24.237 124.01 23.831 123.73 23.551C123.45 23.243 123.044 23.089 122.512 23.089C121.392 23.089 120.832 22.529 120.832 21.409V20.989C120.832 20.457 120.972 20.051 121.252 19.771C121.56 19.463 121.98 19.309 122.512 19.309C123.044 19.309 123.45 19.169 123.73 18.889C124.01 18.581 124.15 18.161 124.15 17.629V16.117C124.15 14.997 124.71 14.437 125.83 14.437H126.292C127.412 14.437 127.972 14.997 127.972 16.117V17.629C127.972 18.749 128.532 19.309 129.652 19.309H131.332C132.452 19.309 133.012 19.869 133.012 20.989V21.409C133.012 22.529 132.452 23.089 131.332 23.089H129.652C128.532 23.089 127.972 23.649 127.972 24.769V34.555C127.972 35.675 128.532 36.235 129.652 36.235H131.332Z" fill="#9E9E9E"/>
<path d="M136.995 13.765C137.415 13.345 137.849 13.135 138.297 13.135C138.745 13.135 139.179 13.345 139.599 13.765C140.019 14.185 140.229 14.619 140.229 15.067C140.229 15.515 140.019 15.949 139.599 16.369C139.179 16.789 138.745 16.999 138.297 16.999C137.849 16.999 137.415 16.789 136.995 16.369C136.575 15.949 136.365 15.515 136.365 15.067C136.365 14.619 136.575 14.185 136.995 13.765ZM136.407 20.989C136.407 19.869 136.967 19.309 138.087 19.309H138.507C139.627 19.309 140.187 19.869 140.187 20.989V38.377C140.187 39.497 139.627 40.057 138.507 40.057H138.087C136.967 40.057 136.407 39.497 136.407 38.377V20.989Z" fill="#9E9E9E"/>
<path d="M157.74 21.493C158.3 22.081 158.58 22.781 158.58 23.593V35.773C158.58 36.585 158.3 37.285 157.74 37.873L156.396 39.217C155.836 39.777 155.15 40.057 154.338 40.057H149.13C148.318 40.057 147.632 39.777 147.072 39.217L145.686 37.831C145.126 37.271 144.846 36.585 144.846 35.773V23.593C144.846 22.781 145.126 22.095 145.686 21.535L147.072 20.149C147.632 19.589 148.318 19.309 149.13 19.309H154.338C155.15 19.309 155.836 19.589 156.396 20.149L157.74 21.493ZM154.758 24.811C154.758 23.691 154.198 23.131 153.078 23.131H150.348C149.228 23.131 148.668 23.691 148.668 24.811V34.555C148.668 35.675 149.228 36.235 150.348 36.235H153.078C154.198 36.235 154.758 35.675 154.758 34.555V24.811Z" fill="#9E9E9E"/>
<path d="M167.012 38.419C167.012 39.539 166.452 40.099 165.332 40.099H164.87C163.75 40.099 163.19 39.539 163.19 38.419V23.593C163.19 22.781 163.47 22.095 164.03 21.535L165.416 20.149C165.976 19.589 166.662 19.309 167.474 19.309H172.682C173.494 19.309 174.18 19.603 174.74 20.191L176.084 21.535C176.644 22.095 176.924 22.781 176.924 23.593V38.419C176.924 39.539 176.364 40.099 175.244 40.099H174.824C173.704 40.099 173.144 39.539 173.144 38.419V24.811C173.144 23.691 172.584 23.131 171.464 23.131H168.692C167.572 23.131 167.012 23.691 167.012 24.811V38.419Z" fill="#9E9E9E"/>
</svg>
