<svg width="179" height="50" viewBox="0 0 179 50" fill="none" xmlns="http://www.w3.org/2000/svg">
<path d="M42.7065 7.32384C39.2104 3.82714 34.7558 1.44571 29.9062 0.480712C25.0565 -0.484288 20.0297 0.0105324 15.4613 1.90259C10.8929 3.79464 6.98815 6.99901 4.24091 11.1103C1.49368 15.2216 0.0273438 20.0553 0.0273438 25C0.0273438 29.9447 1.49368 34.7784 4.24091 38.8897C6.98815 43.001 10.8929 46.2054 15.4613 48.0974C20.0297 49.9895 25.0565 50.4843 29.9062 49.5193C34.7558 48.5543 39.2104 46.1729 42.7065 42.6762C47.394 37.9879 50.0273 31.6296 50.0273 25C50.0273 18.3704 47.394 12.0121 42.7065 7.32384ZM6.54743 16.5397C7.80717 13.7456 9.67377 11.2673 12.0116 9.28518C14.3494 7.30303 17.0996 5.86678 20.0621 5.08098C23.0247 4.29517 26.1251 4.17955 29.138 4.7425C32.1508 5.30544 35.0003 6.53277 37.4793 8.33527C31.3429 7.75571 23.6611 10.8921 17.4339 17.1079C15.0836 19.4544 13.0924 22.1348 11.5248 25.0625C9.39252 22.5257 7.70922 19.6433 6.54743 16.5397ZM20.3315 45.5397C15.5865 44.2684 11.4503 41.347 8.66565 37.3001C5.881 33.2533 4.63038 28.3462 5.13842 23.4602C7.71788 29.0625 14.2293 34.1534 22.7748 36.4262C25.9649 37.2915 29.2666 37.6745 32.5702 37.5625C31.4474 40.6682 29.8068 43.5614 27.7179 46.1193C25.2397 46.37 22.7365 46.1659 20.3315 45.517V45.5397ZM35.8884 21.7784C35.046 18.5738 33.7365 15.5107 32.002 12.6875C35.2511 12.1091 38.5748 12.0861 41.8315 12.6193C43.2893 14.6374 44.3639 16.9062 45.002 19.3125C46.2755 24.0582 45.8148 29.1025 43.7028 33.539C41.5907 37.9755 37.9658 41.5134 33.4793 43.5171C37.0248 38.5057 38.1611 30.2897 35.8884 21.7784Z" fill="#616161"/>
<path d="M82.717 23.3177C82.717 24.1297 82.437 24.8297 81.877 25.4177C81.541 25.7537 81.373 26.1037 81.373 26.4677C81.373 26.8037 81.513 27.1117 81.793 27.3917L81.877 27.4757C82.437 28.0357 82.717 28.7357 82.717 29.5757V37.0937C82.717 37.9057 82.437 38.6057 81.877 39.1937L80.533 40.5377C79.973 41.0977 79.287 41.3777 78.475 41.3777H67.807C66.687 41.3777 66.127 40.8177 66.127 39.6977V12.9017C66.127 11.7817 66.687 11.2217 67.807 11.2217H78.475C79.287 11.2217 79.973 11.5157 80.533 12.1037L81.877 13.4477C82.437 14.0077 82.717 14.6937 82.717 15.5057V23.3177ZM71.629 15.0437C70.509 15.0437 69.949 15.6037 69.949 16.7237V22.8557C69.949 23.9757 70.509 24.5357 71.629 24.5357H77.215C78.335 24.5357 78.895 23.9757 78.895 22.8557L78.937 16.7237C78.937 15.6037 78.377 15.0437 77.257 15.0437H71.629ZM78.937 30.0377C78.937 28.9177 78.377 28.3577 77.257 28.3577H71.629C70.509 28.3577 69.949 28.9177 69.949 30.0377V35.8757C69.949 36.9957 70.509 37.5557 71.629 37.5557H77.257C78.377 37.5557 78.937 36.9957 78.937 35.8757V30.0377Z" fill="#616161"/>
<path d="M91.2059 41.3357C90.3939 41.3357 89.7079 41.0557 89.1479 40.4957L87.7619 39.1097C87.2019 38.5497 86.9219 37.8637 86.9219 37.0517V32.1797C86.9219 31.7597 86.9919 31.3957 87.1319 31.0877C87.2719 30.7517 87.4959 30.4297 87.8039 30.1217L89.1479 28.7777C89.7079 28.2177 90.3939 27.9377 91.2059 27.9377H95.1959C96.3159 27.9377 96.8759 27.3777 96.8759 26.2577V26.1317C96.8759 25.0117 96.3159 24.4517 95.1959 24.4517H88.7279C87.6079 24.4517 87.0479 23.8917 87.0479 22.7717V22.3097C87.0479 21.1897 87.6079 20.6297 88.7279 20.6297H96.4139C97.2259 20.6297 97.9119 20.9097 98.4719 21.4697L99.8579 22.8557C100.418 23.4157 100.698 24.1017 100.698 24.9137V39.6557C100.698 40.7757 100.138 41.3357 99.0179 41.3357H91.2059ZM96.8759 33.0617C96.8759 31.9417 96.3159 31.3817 95.1959 31.3817H92.4239C91.3039 31.3817 90.7439 31.9417 90.7439 33.0617V36.2117C90.7439 37.3317 91.3039 37.8917 92.4239 37.8917H95.1959C96.3159 37.8917 96.8759 37.3317 96.8759 36.2117V33.0617Z" fill="#616161"/>
<path d="M116.888 26.6357C116.356 26.6357 115.936 26.5377 115.628 26.3417C115.348 26.1457 115.208 25.8657 115.208 25.5017C115.208 25.1657 115.054 24.8997 114.746 24.7037C114.466 24.5077 114.06 24.4097 113.528 24.4097H110.84C109.72 24.4097 109.16 24.9697 109.16 26.0897V27.8117C109.16 28.9317 109.72 29.4917 110.84 29.4917H114.746C115.558 29.4917 116.244 29.7717 116.804 30.3317L118.19 31.7177C118.75 32.2777 119.03 32.9637 119.03 33.7757V37.0937C119.03 37.9057 118.75 38.5917 118.19 39.1517L116.804 40.5377C116.244 41.0977 115.558 41.3777 114.746 41.3777H109.622C108.81 41.3777 108.124 41.0977 107.564 40.5377L106.178 39.1517C105.618 38.5917 105.338 37.9057 105.338 37.0937V37.0517C105.338 35.9317 105.898 35.3717 107.018 35.3717H107.48C108.012 35.3717 108.418 35.4697 108.698 35.6657C109.006 35.8617 109.16 36.1277 109.16 36.4637C109.16 36.7997 109.3 37.0657 109.58 37.2617C109.888 37.4577 110.308 37.5557 110.84 37.5557H113.528C114.648 37.5557 115.208 36.9957 115.208 35.8757V34.6157C115.208 33.4957 114.648 32.9357 113.528 32.9357H109.58C109.16 32.9357 108.796 32.8797 108.488 32.7677C108.18 32.6277 107.858 32.4177 107.522 32.1377L106.262 31.0457C105.926 30.7657 105.688 30.4717 105.548 30.1637C105.408 29.8277 105.338 29.4357 105.338 28.9877V24.8717C105.338 24.4517 105.408 24.0877 105.548 23.7797C105.688 23.4437 105.912 23.1217 106.22 22.8137L107.564 21.4697C108.124 20.9097 108.81 20.6297 109.622 20.6297H114.746C115.586 20.6297 116.286 20.9097 116.846 21.4697L118.19 22.8137C118.75 23.3737 119.03 24.0597 119.03 24.8717V24.9557C119.03 26.0757 118.47 26.6357 117.35 26.6357H116.888Z" fill="#616161"/>
<path d="M132.881 37.5557C134.001 37.5557 134.561 38.1157 134.561 39.2357V39.6977C134.561 40.8177 134.001 41.3777 132.881 41.3777H129.983C129.171 41.3777 128.485 41.0977 127.925 40.5377L126.539 39.1517C125.979 38.5917 125.699 37.9057 125.699 37.0937V26.0897C125.699 25.5577 125.559 25.1517 125.279 24.8717C124.999 24.5637 124.593 24.4097 124.061 24.4097C122.941 24.4097 122.381 23.8497 122.381 22.7297V22.3097C122.381 21.7777 122.521 21.3717 122.801 21.0917C123.109 20.7837 123.529 20.6297 124.061 20.6297C124.593 20.6297 124.999 20.4897 125.279 20.2097C125.559 19.9017 125.699 19.4817 125.699 18.9497V17.4377C125.699 16.3177 126.259 15.7577 127.379 15.7577H127.841C128.961 15.7577 129.521 16.3177 129.521 17.4377V18.9497C129.521 20.0697 130.081 20.6297 131.201 20.6297H132.881C134.001 20.6297 134.561 21.1897 134.561 22.3097V22.7297C134.561 23.8497 134.001 24.4097 132.881 24.4097H131.201C130.081 24.4097 129.521 24.9697 129.521 26.0897V35.8757C129.521 36.9957 130.081 37.5557 131.201 37.5557H132.881Z" fill="#616161"/>
<path d="M138.544 15.0857C138.964 14.6657 139.398 14.4557 139.846 14.4557C140.294 14.4557 140.728 14.6657 141.148 15.0857C141.568 15.5057 141.778 15.9397 141.778 16.3877C141.778 16.8357 141.568 17.2697 141.148 17.6897C140.728 18.1097 140.294 18.3197 139.846 18.3197C139.398 18.3197 138.964 18.1097 138.544 17.6897C138.124 17.2697 137.914 16.8357 137.914 16.3877C137.914 15.9397 138.124 15.5057 138.544 15.0857ZM137.956 22.3097C137.956 21.1897 138.516 20.6297 139.636 20.6297H140.056C141.176 20.6297 141.736 21.1897 141.736 22.3097V39.6977C141.736 40.8177 141.176 41.3777 140.056 41.3777H139.636C138.516 41.3777 137.956 40.8177 137.956 39.6977V22.3097Z" fill="#616161"/>
<path d="M159.289 22.8137C159.849 23.4017 160.129 24.1017 160.129 24.9137V37.0937C160.129 37.9057 159.849 38.6057 159.289 39.1937L157.945 40.5377C157.385 41.0977 156.699 41.3777 155.887 41.3777H150.679C149.867 41.3777 149.181 41.0977 148.621 40.5377L147.235 39.1517C146.675 38.5917 146.395 37.9057 146.395 37.0937V24.9137C146.395 24.1017 146.675 23.4157 147.235 22.8557L148.621 21.4697C149.181 20.9097 149.867 20.6297 150.679 20.6297H155.887C156.699 20.6297 157.385 20.9097 157.945 21.4697L159.289 22.8137ZM156.307 26.1317C156.307 25.0117 155.747 24.4517 154.627 24.4517H151.897C150.777 24.4517 150.217 25.0117 150.217 26.1317V35.8757C150.217 36.9957 150.777 37.5557 151.897 37.5557H154.627C155.747 37.5557 156.307 36.9957 156.307 35.8757V26.1317Z" fill="#616161"/>
<path d="M168.56 39.7397C168.56 40.8597 168 41.4197 166.88 41.4197H166.418C165.298 41.4197 164.738 40.8597 164.738 39.7397V24.9137C164.738 24.1017 165.018 23.4157 165.578 22.8557L166.964 21.4697C167.524 20.9097 168.21 20.6297 169.022 20.6297H174.23C175.042 20.6297 175.728 20.9237 176.288 21.5117L177.632 22.8557C178.192 23.4157 178.472 24.1017 178.472 24.9137V39.7397C178.472 40.8597 177.912 41.4197 176.792 41.4197H176.372C175.252 41.4197 174.692 40.8597 174.692 39.7397V26.1317C174.692 25.0117 174.132 24.4517 173.012 24.4517H170.24C169.12 24.4517 168.56 25.0117 168.56 26.1317V39.7397Z" fill="#616161"/>
</svg>
