<svg width="161" height="50" viewBox="0 0 161 50" fill="none" xmlns="http://www.w3.org/2000/svg">
<path fill-rule="evenodd" clip-rule="evenodd" d="M24.9004 4.68357V14.126L17.1137 18.8312L9.27539 14.0938V4.68357L17.1137 0L24.9004 4.68357ZM17.1137 2.03494L10.9256 5.76026V13.114L17.1137 16.7962L23.209 13.1463V5.76026L17.1137 2.03494ZM16.1504 20.3003L8.34308 15.5844L0.525391 20.3003V29.7104L8.34308 34.4156L16.1504 29.7104V20.3003ZM14.4693 28.6984L8.34308 32.3806L2.21683 28.6984V21.3123L8.34308 17.6193L14.4693 21.3123V28.6984ZM33.0254 20.2895L25.5205 15.5844L18.0254 20.2895V29.6997L25.5205 34.4156L33.0254 29.6997V20.2895ZM34.9004 20.3003L42.7078 15.5844L50.5254 20.3003V29.7104L42.7078 34.4156L34.9004 29.7104V20.3003ZM42.7078 32.3806L48.8341 28.6984V21.3123L42.7078 17.6193L36.5815 21.3123V28.6984L42.7078 32.3806ZM9.27539 35.8847V45.2949L17.1033 50L24.9004 45.2949V35.8847L17.1033 31.1688L9.27539 35.8847ZM23.1906 44.3151L17.1033 47.9651L10.9234 44.3151V36.8967L17.1033 33.2038L23.2112 36.8967L23.1906 44.3151Z" fill="#9E9E9E"/>
<path d="M79.0154 21.598C77.8954 21.598 77.3354 21.038 77.3354 19.918V15.382C77.3354 14.262 76.7754 13.702 75.6554 13.702H70.0274C68.9074 13.702 68.3474 14.262 68.3474 15.382V34.576C68.3474 35.696 68.9074 36.256 70.0274 36.256H75.6554C76.7754 36.256 77.3354 35.696 77.3354 34.576V30.46C77.3354 29.34 77.8954 28.78 79.0154 28.78H79.4774C80.5974 28.78 81.1574 29.34 81.1574 30.46V35.794C81.1574 36.606 80.8774 37.292 80.3174 37.852L78.9314 39.238C78.3714 39.798 77.6854 40.078 76.8734 40.078H68.8094C67.9974 40.078 67.3114 39.798 66.7514 39.238L65.3654 37.852C64.8054 37.292 64.5254 36.606 64.5254 35.794V14.164C64.5254 13.352 64.8054 12.666 65.3654 12.106L66.7514 10.72C67.3114 10.16 67.9974 9.88 68.8094 9.88H76.8734C77.6854 9.88 78.3714 10.16 78.9314 10.72L80.3174 12.106C80.8774 12.666 81.1574 13.352 81.1574 14.164V19.918C81.1574 21.038 80.5974 21.598 79.4774 21.598H79.0154Z" fill="#9E9E9E"/>
<path d="M87.0413 40.12C85.9213 40.12 85.3613 39.56 85.3613 38.44V11.686C85.3613 10.566 85.9213 10.006 87.0413 10.006H87.5033C88.6233 10.006 89.1833 10.566 89.1833 11.686V17.65C89.1833 18.77 89.7433 19.33 90.8633 19.33H94.7273C95.5393 19.33 96.2253 19.61 96.7853 20.17L98.1713 21.556C98.7313 22.116 99.0113 22.802 99.0113 23.614V38.44C99.0113 39.56 98.4513 40.12 97.3313 40.12H96.8693C95.7493 40.12 95.1893 39.56 95.1893 38.44V24.832C95.1893 23.712 94.6293 23.152 93.5093 23.152H90.8633C89.7433 23.152 89.1833 23.712 89.1833 24.832V38.44C89.1833 39.56 88.6233 40.12 87.5033 40.12H87.0413Z" fill="#9E9E9E"/>
<path d="M107.897 40.036C107.085 40.036 106.399 39.756 105.839 39.196L104.453 37.81C103.893 37.25 103.613 36.564 103.613 35.752V30.88C103.613 30.46 103.683 30.096 103.823 29.788C103.963 29.452 104.187 29.13 104.495 28.822L105.839 27.478C106.399 26.918 107.085 26.638 107.897 26.638H111.887C113.007 26.638 113.567 26.078 113.567 24.958V24.832C113.567 23.712 113.007 23.152 111.887 23.152H105.419C104.299 23.152 103.739 22.592 103.739 21.472V21.01C103.739 19.89 104.299 19.33 105.419 19.33H113.105C113.917 19.33 114.603 19.61 115.163 20.17L116.549 21.556C117.109 22.116 117.389 22.802 117.389 23.614V38.356C117.389 39.476 116.829 40.036 115.709 40.036H107.897ZM113.567 31.762C113.567 30.642 113.007 30.082 111.887 30.082H109.115C107.995 30.082 107.435 30.642 107.435 31.762V34.912C107.435 36.032 107.995 36.592 109.115 36.592H111.887C113.007 36.592 113.567 36.032 113.567 34.912V31.762Z" fill="#9E9E9E"/>
<path d="M126.271 38.356C126.271 39.476 125.711 40.036 124.591 40.036H124.129C123.009 40.036 122.449 39.476 122.449 38.356V23.614C122.449 22.802 122.729 22.116 123.289 21.556L124.675 20.17C125.235 19.61 125.921 19.33 126.733 19.33H127.489C128.609 19.33 129.169 19.89 129.169 21.01V21.472C129.169 22.592 128.693 23.152 127.741 23.152C127.265 23.152 126.901 23.306 126.649 23.614C126.397 23.894 126.271 24.3 126.271 24.832V38.356Z" fill="#9E9E9E"/>
<path d="M144.603 21.514C145.163 22.102 145.443 22.802 145.443 23.614V35.794C145.443 36.606 145.163 37.306 144.603 37.894L143.259 39.238C142.699 39.798 142.013 40.078 141.201 40.078H135.993C135.181 40.078 134.495 39.798 133.935 39.238L132.549 37.852C131.989 37.292 131.709 36.606 131.709 35.794V23.614C131.709 22.802 131.989 22.116 132.549 21.556L133.935 20.17C134.495 19.61 135.181 19.33 135.993 19.33H141.201C142.013 19.33 142.699 19.61 143.259 20.17L144.603 21.514ZM141.621 24.832C141.621 23.712 141.061 23.152 139.941 23.152H137.211C136.091 23.152 135.531 23.712 135.531 24.832V34.576C135.531 35.696 136.091 36.256 137.211 36.256H139.941C141.061 36.256 141.621 35.696 141.621 34.576V24.832Z" fill="#9E9E9E"/>
<path d="M159.293 36.256C160.413 36.256 160.973 36.816 160.973 37.936V38.398C160.973 39.518 160.413 40.078 159.293 40.078H156.395C155.583 40.078 154.897 39.798 154.337 39.238L152.951 37.852C152.391 37.292 152.111 36.606 152.111 35.794V24.79C152.111 24.258 151.971 23.852 151.691 23.572C151.411 23.264 151.005 23.11 150.473 23.11C149.353 23.11 148.793 22.55 148.793 21.43V21.01C148.793 20.478 148.933 20.072 149.213 19.792C149.521 19.484 149.941 19.33 150.473 19.33C151.005 19.33 151.411 19.19 151.691 18.91C151.971 18.602 152.111 18.182 152.111 17.65V16.138C152.111 15.018 152.671 14.458 153.791 14.458H154.253C155.373 14.458 155.933 15.018 155.933 16.138V17.65C155.933 18.77 156.493 19.33 157.613 19.33H159.293C160.413 19.33 160.973 19.89 160.973 21.01V21.43C160.973 22.55 160.413 23.11 159.293 23.11H157.613C156.493 23.11 155.933 23.67 155.933 24.79V34.576C155.933 35.696 156.493 36.256 157.613 36.256H159.293Z" fill="#9E9E9E"/>
</svg>
