<svg width="164" height="50" viewBox="0 0 164 50" fill="none" xmlns="http://www.w3.org/2000/svg">
<path fill-rule="evenodd" clip-rule="evenodd" d="M25.3516 4.68357V14.126L17.5649 18.8312L9.72656 14.0938V4.68357L17.5649 0L25.3516 4.68357ZM17.5649 2.03494L11.3768 5.76026V13.114L17.5649 16.7962L23.6602 13.1463V5.76026L17.5649 2.03494ZM16.6016 20.3003L8.79425 15.5844L0.976562 20.3003V29.7104L8.79425 34.4156L16.6016 29.7104V20.3003ZM14.9204 28.6984L8.79425 32.3806L2.668 28.6984V21.3123L8.79425 17.6193L14.9204 21.3123V28.6984ZM33.4766 20.2895L25.9716 15.5844L18.4766 20.2895V29.6997L25.9716 34.4156L33.4766 29.6997V20.2895ZM35.3516 20.3003L43.1589 15.5844L50.9766 20.3003V29.7104L43.1589 34.4156L35.3516 29.7104V20.3003ZM43.1589 32.3806L49.2853 28.6984V21.3123L43.1589 17.6193L37.0327 21.3123V28.6984L43.1589 32.3806ZM9.72656 35.8847V45.2949L17.5545 50L25.3516 45.2949V35.8847L17.5545 31.1688L9.72656 35.8847ZM23.6418 44.3151L17.5545 47.9651L11.3746 44.3151V36.8967L17.5545 33.2038L23.6624 36.8967L23.6418 44.3151Z" fill="#E0E0E0"/>
<path d="M81.5662 22.8977C80.4462 22.8977 79.8862 22.3377 79.8862 21.2177V16.6817C79.8862 15.5617 79.3262 15.0017 78.2062 15.0017H72.5782C71.4582 15.0017 70.8982 15.5617 70.8982 16.6817V35.8757C70.8982 36.9957 71.4582 37.5557 72.5782 37.5557H78.2062C79.3262 37.5557 79.8862 36.9957 79.8862 35.8757V31.7597C79.8862 30.6397 80.4462 30.0797 81.5662 30.0797H82.0282C83.1482 30.0797 83.7082 30.6397 83.7082 31.7597V37.0937C83.7082 37.9057 83.4282 38.5917 82.8682 39.1517L81.4822 40.5377C80.9222 41.0977 80.2362 41.3777 79.4242 41.3777H71.3602C70.5482 41.3777 69.8622 41.0977 69.3022 40.5377L67.9162 39.1517C67.3562 38.5917 67.0762 37.9057 67.0762 37.0937V15.4637C67.0762 14.6517 67.3562 13.9657 67.9162 13.4057L69.3022 12.0197C69.8622 11.4597 70.5482 11.1797 71.3602 11.1797H79.4242C80.2362 11.1797 80.9222 11.4597 81.4822 12.0197L82.8682 13.4057C83.4282 13.9657 83.7082 14.6517 83.7082 15.4637V21.2177C83.7082 22.3377 83.1482 22.8977 82.0282 22.8977H81.5662Z" fill="#E0E0E0"/>
<path d="M89.5921 41.4197C88.4721 41.4197 87.9121 40.8597 87.9121 39.7397V12.9857C87.9121 11.8657 88.4721 11.3057 89.5921 11.3057H90.0541C91.1741 11.3057 91.7341 11.8657 91.7341 12.9857V18.9497C91.7341 20.0697 92.2941 20.6297 93.4141 20.6297H97.2781C98.0901 20.6297 98.7761 20.9097 99.3361 21.4697L100.722 22.8557C101.282 23.4157 101.562 24.1017 101.562 24.9137V39.7397C101.562 40.8597 101.002 41.4197 99.8821 41.4197H99.4201C98.3001 41.4197 97.7401 40.8597 97.7401 39.7397V26.1317C97.7401 25.0117 97.1801 24.4517 96.0601 24.4517H93.4141C92.2941 24.4517 91.7341 25.0117 91.7341 26.1317V39.7397C91.7341 40.8597 91.1741 41.4197 90.0541 41.4197H89.5921Z" fill="#E0E0E0"/>
<path d="M110.448 41.3357C109.636 41.3357 108.95 41.0557 108.39 40.4957L107.004 39.1097C106.444 38.5497 106.164 37.8637 106.164 37.0517V32.1797C106.164 31.7597 106.234 31.3957 106.374 31.0877C106.514 30.7517 106.738 30.4297 107.046 30.1217L108.39 28.7777C108.95 28.2177 109.636 27.9377 110.448 27.9377H114.438C115.558 27.9377 116.118 27.3777 116.118 26.2577V26.1317C116.118 25.0117 115.558 24.4517 114.438 24.4517H107.97C106.85 24.4517 106.29 23.8917 106.29 22.7717V22.3097C106.29 21.1897 106.85 20.6297 107.97 20.6297H115.656C116.468 20.6297 117.154 20.9097 117.714 21.4697L119.1 22.8557C119.66 23.4157 119.94 24.1017 119.94 24.9137V39.6557C119.94 40.7757 119.38 41.3357 118.26 41.3357H110.448ZM116.118 33.0617C116.118 31.9417 115.558 31.3817 114.438 31.3817H111.666C110.546 31.3817 109.986 31.9417 109.986 33.0617V36.2117C109.986 37.3317 110.546 37.8917 111.666 37.8917H114.438C115.558 37.8917 116.118 37.3317 116.118 36.2117V33.0617Z" fill="#E0E0E0"/>
<path d="M128.822 39.6557C128.822 40.7757 128.262 41.3357 127.142 41.3357H126.68C125.56 41.3357 125 40.7757 125 39.6557V24.9137C125 24.1017 125.28 23.4157 125.84 22.8557L127.226 21.4697C127.786 20.9097 128.472 20.6297 129.284 20.6297H130.04C131.16 20.6297 131.72 21.1897 131.72 22.3097V22.7717C131.72 23.8917 131.244 24.4517 130.292 24.4517C129.816 24.4517 129.452 24.6057 129.2 24.9137C128.948 25.1937 128.822 25.5997 128.822 26.1317V39.6557Z" fill="#E0E0E0"/>
<path d="M147.154 22.8137C147.714 23.4017 147.994 24.1017 147.994 24.9137V37.0937C147.994 37.9057 147.714 38.6057 147.154 39.1937L145.81 40.5377C145.25 41.0977 144.564 41.3777 143.752 41.3777H138.544C137.732 41.3777 137.046 41.0977 136.486 40.5377L135.1 39.1517C134.54 38.5917 134.26 37.9057 134.26 37.0937V24.9137C134.26 24.1017 134.54 23.4157 135.1 22.8557L136.486 21.4697C137.046 20.9097 137.732 20.6297 138.544 20.6297H143.752C144.564 20.6297 145.25 20.9097 145.81 21.4697L147.154 22.8137ZM144.172 26.1317C144.172 25.0117 143.612 24.4517 142.492 24.4517H139.762C138.642 24.4517 138.082 25.0117 138.082 26.1317V35.8757C138.082 36.9957 138.642 37.5557 139.762 37.5557H142.492C143.612 37.5557 144.172 36.9957 144.172 35.8757V26.1317Z" fill="#E0E0E0"/>
<path d="M161.844 37.5557C162.964 37.5557 163.524 38.1157 163.524 39.2357V39.6977C163.524 40.8177 162.964 41.3777 161.844 41.3777H158.946C158.134 41.3777 157.448 41.0977 156.888 40.5377L155.502 39.1517C154.942 38.5917 154.662 37.9057 154.662 37.0937V26.0897C154.662 25.5577 154.522 25.1517 154.242 24.8717C153.962 24.5637 153.556 24.4097 153.024 24.4097C151.904 24.4097 151.344 23.8497 151.344 22.7297V22.3097C151.344 21.7777 151.484 21.3717 151.764 21.0917C152.072 20.7837 152.492 20.6297 153.024 20.6297C153.556 20.6297 153.962 20.4897 154.242 20.2097C154.522 19.9017 154.662 19.4817 154.662 18.9497V17.4377C154.662 16.3177 155.222 15.7577 156.342 15.7577H156.804C157.924 15.7577 158.484 16.3177 158.484 17.4377V18.9497C158.484 20.0697 159.044 20.6297 160.164 20.6297H161.844C162.964 20.6297 163.524 21.1897 163.524 22.3097V22.7297C163.524 23.8497 162.964 24.4097 161.844 24.4097H160.164C159.044 24.4097 158.484 24.9697 158.484 26.0897V35.8757C158.484 36.9957 159.044 37.5557 160.164 37.5557H161.844Z" fill="#E0E0E0"/>
</svg>
