<svg width="32" height="32" viewBox="0 0 32 32" fill="none" xmlns="http://www.w3.org/2000/svg">
<path d="M16.0005 2.00346C16.0005 2.00346 24.2527 1.63446 28.6278 9.89953H15.2983C15.2983 9.89953 12.7828 9.81874 10.634 12.8596C10.0167 14.1359 9.3532 15.4506 10.0978 18.0417C9.02517 16.231 4.40332 8.21197 4.40332 8.21197C4.40332 8.21197 7.66332 2.3302 16.0004 2.00346H16.0005Z" fill="#EF3F36"/>
<path d="M28.1994 22.9855C28.1994 22.9855 24.3915 30.2933 15.0244 29.932C16.1818 27.9368 21.691 18.43 21.691 18.43C21.691 18.43 23.022 16.3004 21.4518 12.9251C20.6531 11.7527 19.8391 10.5263 17.2157 9.87275C19.3261 9.85364 28.6045 9.87275 28.6045 9.87275C28.6045 9.87275 32.0805 15.6276 28.1994 22.9855Z" fill="#FCD900"/>
<path d="M3.85931 23.0428C3.85931 23.0428 -0.588992 16.1039 4.41095 8.2002C5.56452 10.1954 11.0737 19.7022 11.0737 19.7022C11.0737 19.7022 12.262 21.9165 15.9772 22.247C17.3932 22.1433 18.8669 22.0548 20.7497 20.1212C19.7117 21.9511 15.0551 29.9471 15.0551 29.9471C15.0551 29.9471 8.31134 30.0701 3.8592 23.0428H3.85931Z" fill="#61BC5B"/>
<path d="M15.0205 30.0013L16.8955 22.2053C16.8955 22.2053 18.9557 22.0437 20.6842 20.1562C19.6115 22.0362 15.0205 30.0013 15.0205 30.0013Z" fill="#5AB055"/>
<path d="M9.71973 16.089C9.71973 12.6523 12.5168 9.86523 15.9658 9.86523C19.4148 9.86523 22.2119 12.6523 22.2119 16.089C22.2119 19.5257 19.4148 22.3127 15.9658 22.3127C12.5168 22.3089 9.71973 19.5257 9.71973 16.089Z" fill="white"/>
<path d="M10.7656 16.0883C10.7656 13.2282 13.0921 10.9062 15.9663 10.9062C18.8366 10.9062 21.1669 13.2244 21.1669 16.0883C21.1669 18.9484 18.8406 21.2704 15.9663 21.2704C13.0959 21.2704 10.7656 18.9484 10.7656 16.0883Z" fill="url(#paint0_linear)"/>
<path d="M28.6007 9.87624L20.8808 12.1328C20.8808 12.1328 19.7157 10.4297 17.2119 9.87624C19.384 9.86466 28.6007 9.87624 28.6007 9.87624Z" fill="#EACA05"/>
<path d="M9.94735 17.7572C8.86313 15.8851 4.40332 8.21191 4.40332 8.21191L10.1209 13.8476C10.1209 13.8476 9.53441 15.0509 9.75441 16.7731L9.94724 17.7572H9.94735Z" fill="#DF3A32"/>
<defs>
<linearGradient id="paint0_linear" x1="15.9661" y1="10.9794" x2="15.9661" y2="20.9584" gradientUnits="userSpaceOnUse">
<stop stop-color="#86BBE5"/>
<stop offset="1" stop-color="#1072BA"/>
</linearGradient>
</defs>
</svg>
