<svg width="149" height="50" viewBox="0 0 149 50" fill="none" xmlns="http://www.w3.org/2000/svg">
<path d="M36.4856 0C34.0173 0.00280537 31.6506 0.99238 29.9052 2.7516C28.1598 4.51085 27.1778 6.89607 27.1752 9.38403V15.6398H19.4166V9.38403C19.404 6.90359 18.4176 4.52909 16.6729 2.77963C14.9282 1.03018 12.5673 0.0480982 10.1063 0.0480982C7.64524 0.0480982 5.28431 1.03018 3.53965 2.77963C1.79499 4.52909 0.808512 6.90359 0.795898 9.38403V40.6641C0.808512 43.1445 1.79499 45.5189 3.53965 47.2684C5.28431 49.0178 7.64524 50 10.1063 50C12.5673 50 14.9282 49.0178 16.6729 47.2684C18.4176 45.5189 19.404 43.1445 19.4166 40.6641V37.5361L16.3131 35.972V40.6641C16.3131 41.9015 15.9491 43.111 15.2671 44.1398C14.585 45.1686 13.6156 45.9703 12.4814 46.4439C11.3472 46.9173 10.0992 47.0413 8.89513 46.7999C7.6911 46.5583 6.58511 45.9627 5.71706 45.0877C4.84901 44.2128 4.25785 43.0979 4.01838 41.8845C3.77893 40.6708 3.90187 39.4129 4.3717 38.2698C4.84153 37.1268 5.63714 36.1495 6.65792 35.4622C7.67867 34.7748 8.87876 34.408 10.1064 34.408H36.4856C37.7134 34.408 38.9134 34.7748 39.934 35.4624C40.9548 36.1498 41.7503 37.1268 42.2201 38.27C42.69 39.4132 42.813 40.671 42.5733 41.8845C42.3339 43.0982 41.7428 44.2128 40.8746 45.0877C40.0066 45.9627 38.9007 46.5586 37.6965 46.7999C36.4925 47.0413 35.2445 46.9173 34.1102 46.4439C32.9762 45.9703 32.0067 45.1686 31.3246 44.1398C30.6428 43.111 30.2786 41.9015 30.2786 40.6641V37.5361L27.1752 35.972V40.6641C27.1879 43.1445 28.1742 45.5189 29.9189 47.2684C31.6636 49.0178 34.0246 50 36.4854 50C38.9464 50 41.3074 49.0178 43.0522 47.2684C44.7969 45.5189 45.7832 43.1445 45.7959 40.6641V9.38403C45.7932 6.89612 44.8113 4.51092 43.0658 2.7517C41.3207 0.992473 38.954 0.00287061 36.4856 0ZM30.2786 9.38403C30.2786 8.14668 30.6426 6.93712 31.3246 5.90829C32.0067 4.87947 32.9759 4.07758 34.1102 3.60403C35.2442 3.13051 36.4923 3.00657 37.6965 3.24793C38.9005 3.48929 40.0064 4.0851 40.8746 4.96001C41.7428 5.83492 42.3339 6.94964 42.5733 8.1632C42.813 9.37675 42.69 10.6346 42.2201 11.7778C41.7503 12.9209 40.9548 13.898 39.9342 14.5854C38.9134 15.2729 37.7134 15.6398 36.4856 15.6398H30.2786V9.38403ZM10.1064 3.12802C11.752 3.12996 13.3296 3.78972 14.4932 4.96253C15.6568 6.13533 16.3113 7.72545 16.3131 9.38403V15.6398H10.1064C9.28802 15.645 8.4767 15.487 7.71915 15.1749C6.96159 14.8628 6.27273 14.4028 5.69224 13.8214C5.11172 13.24 4.65101 12.5486 4.33665 11.787C4.02229 11.0255 3.86044 10.2087 3.86044 9.3839C3.86044 8.55904 4.02229 7.74233 4.33665 6.98076C4.65101 6.21918 5.11172 5.52779 5.69224 4.94635C6.27273 4.36494 6.96159 3.90495 7.71915 3.59289C8.4767 3.28082 9.28802 3.12284 10.1064 3.12802ZM36.4856 31.2794H10.1064C7.81482 31.2775 5.60368 32.1307 3.8994 33.6748V16.3724C5.6037 17.9163 7.81484 18.7696 10.1064 18.7675H36.4856C38.7772 18.7695 40.9883 17.9163 42.6924 16.3724V33.6748C40.9883 32.1307 38.7772 31.2775 36.4856 31.2794Z" fill="#616161"/>
<path d="M61.8955 12.9018C61.8955 11.7818 62.4555 11.2218 63.5755 11.2218H76.8055C77.9255 11.2218 78.4855 11.7818 78.4855 12.9018V13.3638C78.4855 14.4838 77.9255 15.0438 76.8055 15.0438H67.3975C66.2775 15.0438 65.7175 15.6038 65.7175 16.7238V23.8638C65.7175 24.9838 66.2775 25.5438 67.3975 25.5438H76.8055C77.9255 25.5438 78.4855 26.1038 78.4855 27.2238V27.6858C78.4855 28.8058 77.9255 29.3658 76.8055 29.3658H67.3975C66.2775 29.3658 65.7175 29.9258 65.7175 31.0458V39.6978C65.7175 40.8178 65.1575 41.3778 64.0375 41.3778H63.5755C62.4555 41.3778 61.8955 40.8178 61.8955 39.6978V12.9018Z" fill="#616161"/>
<path d="M86.5223 39.6558C86.5223 40.7758 85.9623 41.3358 84.8423 41.3358H84.3803C83.2603 41.3358 82.7003 40.7758 82.7003 39.6558V24.9138C82.7003 24.1018 82.9803 23.4158 83.5403 22.8558L84.9263 21.4698C85.4863 20.9098 86.1723 20.6298 86.9843 20.6298H87.7403C88.8603 20.6298 89.4203 21.1898 89.4203 22.3098V22.7718C89.4203 23.8918 88.9443 24.4518 87.9923 24.4518C87.5163 24.4518 87.1523 24.6058 86.9003 24.9138C86.6483 25.1938 86.5223 25.5998 86.5223 26.1318V39.6558Z" fill="#616161"/>
<path d="M96.244 41.3358C95.432 41.3358 94.746 41.0558 94.186 40.4958L92.8 39.1098C92.24 38.5498 91.96 37.8638 91.96 37.0518V32.1798C91.96 31.7598 92.03 31.3958 92.17 31.0878C92.31 30.7518 92.534 30.4298 92.842 30.1218L94.186 28.7778C94.746 28.2178 95.432 27.9378 96.244 27.9378H100.234C101.354 27.9378 101.914 27.3778 101.914 26.2578V26.1318C101.914 25.0118 101.354 24.4518 100.234 24.4518H93.766C92.646 24.4518 92.086 23.8918 92.086 22.7718V22.3098C92.086 21.1898 92.646 20.6298 93.766 20.6298H101.452C102.264 20.6298 102.95 20.9098 103.51 21.4698L104.896 22.8558C105.456 23.4158 105.736 24.1018 105.736 24.9138V39.6558C105.736 40.7758 105.176 41.3358 104.056 41.3358H96.244ZM101.914 33.0618C101.914 31.9418 101.354 31.3818 100.234 31.3818H97.462C96.342 31.3818 95.782 31.9418 95.782 33.0618V36.2118C95.782 37.3318 96.342 37.8918 97.462 37.8918H100.234C101.354 37.8918 101.914 37.3318 101.914 36.2118V33.0618Z" fill="#616161"/>
<path d="M114.618 39.7398C114.618 40.8598 114.058 41.4198 112.938 41.4198H112.476C111.356 41.4198 110.796 40.8598 110.796 39.7398V24.9138C110.796 24.1018 111.076 23.4158 111.636 22.8558L113.022 21.4698C113.582 20.9098 114.268 20.6298 115.08 20.6298H120.288C121.1 20.6298 121.786 20.9238 122.346 21.5118L123.69 22.8558C124.25 23.4158 124.53 24.1018 124.53 24.9138V39.7398C124.53 40.8598 123.97 41.4198 122.85 41.4198H122.43C121.31 41.4198 120.75 40.8598 120.75 39.7398V26.1318C120.75 25.0118 120.19 24.4518 119.07 24.4518H116.298C115.178 24.4518 114.618 25.0118 114.618 26.1318V39.7398Z" fill="#616161"/>
<path d="M134.999 35.5818C134.663 34.9658 134.285 34.6578 133.865 34.6578C133.613 34.6578 133.403 34.7838 133.235 35.0358C133.067 35.2878 132.983 35.6518 132.983 36.1278V39.6978C132.983 40.8178 132.423 41.3778 131.303 41.3778H130.841C129.721 41.3778 129.161 40.8178 129.161 39.6978V12.4818C129.161 11.3618 129.721 10.8018 130.841 10.8018H131.303C132.423 10.8018 132.983 11.3618 132.983 12.4818V24.3258C132.983 24.7738 133.053 25.1238 133.193 25.3758C133.361 25.6278 133.571 25.7538 133.823 25.7538C134.215 25.7538 134.621 25.4878 135.041 24.9558L137.561 21.7218C138.121 20.9938 138.793 20.6298 139.577 20.6298H140.207C140.655 20.6298 141.005 20.7278 141.257 20.9238C141.509 21.1198 141.635 21.3718 141.635 21.6798C141.635 21.9598 141.523 22.2818 141.299 22.6458L137.225 28.6938C136.973 29.0578 136.847 29.4498 136.847 29.8698C136.847 30.2618 136.945 30.6398 137.141 31.0038L141.635 39.3618C141.803 39.6978 141.887 40.0058 141.887 40.2858C141.887 40.6218 141.761 40.8878 141.509 41.0838C141.257 41.2798 140.921 41.3778 140.501 41.3778H139.619C138.695 41.3778 138.023 40.9858 137.603 40.2018L134.999 35.5818Z" fill="#616161"/>
<path d="M145.469 15.0858C145.889 14.6658 146.323 14.4558 146.771 14.4558C147.219 14.4558 147.653 14.6658 148.073 15.0858C148.493 15.5058 148.703 15.9398 148.703 16.3878C148.703 16.8358 148.493 17.2698 148.073 17.6898C147.653 18.1098 147.219 18.3198 146.771 18.3198C146.323 18.3198 145.889 18.1098 145.469 17.6898C145.049 17.2698 144.839 16.8358 144.839 16.3878C144.839 15.9398 145.049 15.5058 145.469 15.0858ZM144.881 22.3098C144.881 21.1898 145.441 20.6298 146.561 20.6298H146.981C148.101 20.6298 148.661 21.1898 148.661 22.3098V39.6978C148.661 40.8178 148.101 41.3778 146.981 41.3778H146.561C145.441 41.3778 144.881 40.8178 144.881 39.6978V22.3098Z" fill="#616161"/>
</svg>
