<svg width="147" height="50" viewBox="0 0 147 50" fill="none" xmlns="http://www.w3.org/2000/svg">
<path d="M36.0355 0C33.5671 0.00280537 31.2005 0.99238 29.455 2.7516C27.7096 4.51085 26.7276 6.89607 26.725 9.38403V15.6398H18.9665V9.38403C18.9538 6.90359 17.9674 4.52909 16.2227 2.77963C14.478 1.03018 12.1171 0.0480982 9.65608 0.0480982C7.19504 0.0480982 4.83411 1.03018 3.08945 2.77963C1.34479 4.52909 0.358316 6.90359 0.345703 9.38403V40.6641C0.358316 43.1445 1.34479 45.5189 3.08945 47.2684C4.83411 49.0178 7.19504 50 9.65608 50C12.1171 50 14.478 49.0178 16.2227 47.2684C17.9674 45.5189 18.9538 43.1445 18.9665 40.6641V37.5361L15.863 35.972V40.6641C15.863 41.9015 15.4989 43.111 14.8169 44.1398C14.1348 45.1686 13.1654 45.9703 12.0312 46.4439C10.897 46.9173 9.64899 47.0413 8.44493 46.7999C7.2409 46.5583 6.13491 45.9627 5.26686 45.0877C4.39881 44.2128 3.80766 43.0979 3.56818 41.8845C3.32873 40.6708 3.45167 39.4129 3.9215 38.2698C4.39133 37.1268 5.18694 36.1495 6.20772 35.4622C7.22848 34.7748 8.42857 34.408 9.6562 34.408H36.0355C37.2632 34.408 38.4632 34.7748 39.4838 35.4624C40.5046 36.1498 41.3001 37.1268 41.77 38.27C42.2398 39.4132 42.3628 40.671 42.1231 41.8845C41.8837 43.0982 41.2926 44.2128 40.4244 45.0877C39.5564 45.9627 38.4505 46.5586 37.2463 46.7999C36.0423 47.0413 34.7943 46.9173 33.66 46.4439C32.526 45.9703 31.5565 45.1686 30.8744 44.1398C30.1926 43.111 29.8285 41.9015 29.8285 40.6641V37.5361L26.725 35.972V40.6641C26.7377 43.1445 27.724 45.5189 29.4687 47.2684C31.2134 49.0178 33.5744 50 36.0352 50C38.4962 50 40.8572 49.0178 42.602 47.2684C44.3467 45.5189 45.333 43.1445 45.3457 40.6641V9.38403C45.343 6.89612 44.3611 4.51092 42.6157 2.7517C40.8705 0.992473 38.5038 0.00287061 36.0355 0ZM29.8285 9.38403C29.8285 8.14668 30.1924 6.93712 30.8744 5.90829C31.5565 4.87947 32.5257 4.07758 33.66 3.60403C34.7941 3.13051 36.0421 3.00657 37.2463 3.24793C38.4503 3.48929 39.5562 4.0851 40.4244 4.96001C41.2926 5.83492 41.8837 6.94964 42.1231 8.1632C42.3628 9.37675 42.2398 10.6346 41.77 11.7778C41.3001 12.9209 40.5046 13.898 39.484 14.5854C38.4632 15.2729 37.2632 15.6398 36.0355 15.6398H29.8285V9.38403ZM9.6562 3.12802C11.3018 3.12996 12.8794 3.78972 14.043 4.96253C15.2066 6.13533 15.8611 7.72545 15.863 9.38403V15.6398H9.6562C8.83782 15.645 8.02651 15.487 7.26895 15.1749C6.51139 14.8628 5.82253 14.4028 5.24204 13.8214C4.66152 13.24 4.20082 12.5486 3.88646 11.787C3.57209 11.0255 3.41024 10.2087 3.41024 9.3839C3.41024 8.55904 3.57209 7.74233 3.88646 6.98076C4.20082 6.21918 4.66152 5.52779 5.24204 4.94635C5.82253 4.36494 6.51139 3.90495 7.26895 3.59289C8.02651 3.28082 8.83782 3.12284 9.6562 3.12802ZM36.0355 31.2794H9.6562C7.36462 31.2775 5.15349 32.1307 3.4492 33.6748V16.3724C5.15351 17.9163 7.36465 18.7696 9.6562 18.7675H36.0355C38.327 18.7695 40.5381 17.9163 42.2422 16.3724V33.6748C40.5381 32.1307 38.327 31.2775 36.0355 31.2794Z" fill="#9E9E9E"/>
<path d="M59.3457 11.791C59.3457 10.671 59.9057 10.111 61.0257 10.111H74.2557C75.3757 10.111 75.9357 10.671 75.9357 11.791V12.253C75.9357 13.373 75.3757 13.933 74.2557 13.933H64.8477C63.7277 13.933 63.1677 14.493 63.1677 15.613V22.753C63.1677 23.873 63.7277 24.433 64.8477 24.433H74.2557C75.3757 24.433 75.9357 24.993 75.9357 26.113V26.575C75.9357 27.695 75.3757 28.255 74.2557 28.255H64.8477C63.7277 28.255 63.1677 28.815 63.1677 29.935V38.587C63.1677 39.707 62.6077 40.267 61.4877 40.267H61.0257C59.9057 40.267 59.3457 39.707 59.3457 38.587V11.791Z" fill="#9E9E9E"/>
<path d="M83.9725 38.545C83.9725 39.665 83.4125 40.225 82.2925 40.225H81.8305C80.7105 40.225 80.1505 39.665 80.1505 38.545V23.803C80.1505 22.991 80.4305 22.305 80.9905 21.745L82.3765 20.359C82.9365 19.799 83.6225 19.519 84.4345 19.519H85.1905C86.3105 19.519 86.8705 20.079 86.8705 21.199V21.661C86.8705 22.781 86.3945 23.341 85.4425 23.341C84.9665 23.341 84.6025 23.495 84.3505 23.803C84.0985 24.083 83.9725 24.489 83.9725 25.021V38.545Z" fill="#9E9E9E"/>
<path d="M93.6942 40.225C92.8822 40.225 92.1962 39.945 91.6362 39.385L90.2502 37.999C89.6902 37.439 89.4102 36.753 89.4102 35.941V31.069C89.4102 30.649 89.4802 30.285 89.6202 29.977C89.7602 29.641 89.9842 29.319 90.2922 29.011L91.6362 27.667C92.1962 27.107 92.8822 26.827 93.6942 26.827H97.6842C98.8042 26.827 99.3642 26.267 99.3642 25.147V25.021C99.3642 23.901 98.8042 23.341 97.6842 23.341H91.2162C90.0962 23.341 89.5362 22.781 89.5362 21.661V21.199C89.5362 20.079 90.0962 19.519 91.2162 19.519H98.9022C99.7142 19.519 100.4 19.799 100.96 20.359L102.346 21.745C102.906 22.305 103.186 22.991 103.186 23.803V38.545C103.186 39.665 102.626 40.225 101.506 40.225H93.6942ZM99.3642 31.951C99.3642 30.831 98.8042 30.271 97.6842 30.271H94.9122C93.7922 30.271 93.2322 30.831 93.2322 31.951V35.101C93.2322 36.221 93.7922 36.781 94.9122 36.781H97.6842C98.8042 36.781 99.3642 36.221 99.3642 35.101V31.951Z" fill="#9E9E9E"/>
<path d="M112.068 38.629C112.068 39.749 111.508 40.309 110.388 40.309H109.926C108.806 40.309 108.246 39.749 108.246 38.629V23.803C108.246 22.991 108.526 22.305 109.086 21.745L110.472 20.359C111.032 19.799 111.718 19.519 112.53 19.519H117.738C118.55 19.519 119.236 19.813 119.796 20.401L121.14 21.745C121.7 22.305 121.98 22.991 121.98 23.803V38.629C121.98 39.749 121.42 40.309 120.3 40.309H119.88C118.76 40.309 118.2 39.749 118.2 38.629V25.021C118.2 23.901 117.64 23.341 116.52 23.341H113.748C112.628 23.341 112.068 23.901 112.068 25.021V38.629Z" fill="#9E9E9E"/>
<path d="M132.449 34.471C132.113 33.855 131.735 33.547 131.315 33.547C131.063 33.547 130.853 33.673 130.685 33.925C130.517 34.177 130.433 34.541 130.433 35.017V38.587C130.433 39.707 129.873 40.267 128.753 40.267H128.291C127.171 40.267 126.611 39.707 126.611 38.587V11.371C126.611 10.251 127.171 9.69098 128.291 9.69098H128.753C129.873 9.69098 130.433 10.251 130.433 11.371V23.215C130.433 23.663 130.503 24.013 130.643 24.265C130.811 24.517 131.021 24.643 131.273 24.643C131.665 24.643 132.071 24.377 132.491 23.845L135.011 20.611C135.571 19.883 136.243 19.519 137.027 19.519H137.657C138.105 19.519 138.455 19.617 138.707 19.813C138.959 20.009 139.085 20.261 139.085 20.569C139.085 20.849 138.973 21.171 138.749 21.535L134.675 27.583C134.423 27.947 134.297 28.339 134.297 28.759C134.297 29.151 134.395 29.529 134.591 29.893L139.085 38.251C139.253 38.587 139.337 38.895 139.337 39.175C139.337 39.511 139.211 39.777 138.959 39.973C138.707 40.169 138.371 40.267 137.951 40.267H137.069C136.145 40.267 135.473 39.875 135.053 39.091L132.449 34.471Z" fill="#9E9E9E"/>
<path d="M142.919 13.975C143.339 13.555 143.773 13.345 144.221 13.345C144.669 13.345 145.103 13.555 145.523 13.975C145.943 14.395 146.153 14.829 146.153 15.277C146.153 15.725 145.943 16.159 145.523 16.579C145.103 16.999 144.669 17.209 144.221 17.209C143.773 17.209 143.339 16.999 142.919 16.579C142.499 16.159 142.289 15.725 142.289 15.277C142.289 14.829 142.499 14.395 142.919 13.975ZM142.331 21.199C142.331 20.079 142.891 19.519 144.011 19.519H144.431C145.551 19.519 146.111 20.079 146.111 21.199V38.587C146.111 39.707 145.551 40.267 144.431 40.267H144.011C142.891 40.267 142.331 39.707 142.331 38.587V21.199Z" fill="#9E9E9E"/>
</svg>
