<svg width="145" height="42" viewBox="0 0 145 42" fill="none" xmlns="http://www.w3.org/2000/svg">
<path fill-rule="evenodd" clip-rule="evenodd" d="M38.2405 3.67154L47.7163 19.0598H28.7646L38.2405 3.67154ZM38.2405 0.920898L26.2158 20.4062H50.2651L38.2405 0.920898ZM21.7652 22.8109L12.2893 38.1991L2.81345 22.8109H21.7652ZM24.3037 21.4355H0.264648L12.2893 40.9209L24.3037 21.4355ZM22.8641 19.5696L12.2885 2.43096L1.69238 19.5696H22.8641ZM25.5885 23.3109L36.1743 40.9209H14.499L25.2595 23.3109H25.5885ZM38.2396 39.5839L27.8799 22.2433H48.7432L38.2396 39.5839Z" fill="#E0E0E0"/>
<path d="M79.1743 8.73859C79.1743 7.61859 79.7343 7.05859 80.8543 7.05859H81.3163C82.4363 7.05859 82.9963 7.61859 82.9963 8.73859V35.6186C82.9963 36.7386 82.4363 37.2986 81.3163 37.2986H80.8543C79.7343 37.2986 79.1743 36.7386 79.1743 35.6186V24.6566C79.1743 23.5366 78.6143 22.9766 77.4943 22.9766H71.8663C70.7463 22.9766 70.1863 23.5366 70.1863 24.6566V35.6186C70.1863 36.7386 69.6263 37.2986 68.5063 37.2986H68.0443C66.9243 37.2986 66.3643 36.7386 66.3643 35.6186V8.73859C66.3643 7.61859 66.9243 7.05859 68.0443 7.05859H68.5063C69.6263 7.05859 70.1863 7.61859 70.1863 8.73859V17.4746C70.1863 18.5946 70.7463 19.1546 71.8663 19.1546H77.4943C78.6143 19.1546 79.1743 18.5946 79.1743 17.4746V8.73859Z" fill="#E0E0E0"/>
<path d="M100.094 18.7346C100.654 19.3226 100.934 20.0226 100.934 20.8346V33.0146C100.934 33.8266 100.654 34.5266 100.094 35.1146L98.7502 36.4586C98.1902 37.0186 97.5042 37.2986 96.6922 37.2986H91.4842C90.6722 37.2986 89.9862 37.0186 89.4262 36.4586L88.0402 35.0726C87.4802 34.5126 87.2002 33.8266 87.2002 33.0146V20.8346C87.2002 20.0226 87.4802 19.3366 88.0402 18.7766L89.4262 17.3906C89.9862 16.8306 90.6722 16.5506 91.4842 16.5506H96.6922C97.5042 16.5506 98.1902 16.8306 98.7502 17.3906L100.094 18.7346ZM97.1122 22.0526C97.1122 20.9326 96.5522 20.3726 95.4322 20.3726H92.7022C91.5822 20.3726 91.0222 20.9326 91.0222 22.0526V31.7966C91.0222 32.9166 91.5822 33.4766 92.7022 33.4766H95.4322C96.5522 33.4766 97.1122 32.9166 97.1122 31.7966V22.0526Z" fill="#E0E0E0"/>
<path d="M107.308 17.3906C107.868 16.8306 108.568 16.5506 109.408 16.5506H113.272C114.392 16.5506 114.952 15.9906 114.952 14.8706V8.82259C114.952 7.70259 115.512 7.14259 116.632 7.14259H117.094C118.214 7.14259 118.774 7.70259 118.774 8.82259V35.6186C118.774 36.7386 118.214 37.2986 117.094 37.2986H109.408C108.596 37.2986 107.91 37.0186 107.35 36.4586L105.964 35.0726C105.404 34.5126 105.124 33.8266 105.124 33.0146V20.7926C105.124 19.9806 105.404 19.2946 105.964 18.7346L107.308 17.3906ZM108.946 31.7966C108.946 32.9166 109.506 33.4766 110.626 33.4766H113.272C114.392 33.4766 114.952 32.9166 114.952 31.7966V22.0526C114.952 20.9326 114.392 20.3726 113.272 20.3726H110.626C109.506 20.3726 108.946 20.9326 108.946 22.0526V31.7966Z" fill="#E0E0E0"/>
<path d="M122.966 8.78059C122.966 7.66059 123.526 7.10059 124.646 7.10059H125.066C126.186 7.10059 126.746 7.66059 126.746 8.78059V35.6186C126.746 36.7386 126.186 37.2986 125.066 37.2986H124.646C123.526 37.2986 122.966 36.7386 122.966 35.6186V8.78059Z" fill="#E0E0E0"/>
<path d="M138.734 26.7566C139.854 26.7566 140.414 26.1966 140.414 25.0766V18.2306C140.414 17.1106 140.974 16.5506 142.094 16.5506H142.556C143.676 16.5506 144.236 17.1106 144.236 18.2306V36.7946C144.236 37.6066 143.956 38.2926 143.396 38.8526L142.01 40.2386C141.45 40.7986 140.764 41.0786 139.952 41.0786H132.602C131.482 41.0786 130.922 40.5186 130.922 39.3986V38.9366C130.922 37.8166 131.482 37.2566 132.602 37.2566H138.734C139.854 37.2566 140.414 36.6966 140.414 35.5766V32.2586C140.414 31.1386 139.854 30.5786 138.734 30.5786H134.828C134.016 30.5786 133.33 30.2986 132.77 29.7386L131.384 28.3526C130.824 27.7926 130.544 27.1066 130.544 26.2946V18.2306C130.544 17.1106 131.104 16.5506 132.224 16.5506H132.686C133.806 16.5506 134.366 17.1106 134.366 18.2306V25.0766C134.366 26.1966 134.926 26.7566 136.046 26.7566H138.734Z" fill="#E0E0E0"/>
</svg>
