<svg width="143" height="40" viewBox="0 0 143 40" fill="none" xmlns="http://www.w3.org/2000/svg">
<path fill-rule="evenodd" clip-rule="evenodd" d="M38.7903 2.75064L48.2661 18.1389H29.3144L38.7903 2.75064ZM38.7903 0L26.7656 19.4853H50.8149L38.7903 0ZM22.315 21.89L12.8391 37.2782L3.36325 21.89H22.315ZM24.8535 20.5146H0.814453L12.8391 40L24.8535 20.5146ZM23.4139 18.6487L12.8383 1.51006L2.24219 18.6487H23.4139ZM26.1383 22.39L36.7241 40H15.0488L25.8093 22.39H26.1383ZM38.7894 38.663L28.4297 21.3224H49.293L38.7894 38.663Z" fill="#9E9E9E"/>
<path d="M77.6245 4.66999C77.6245 3.54999 78.1845 2.98999 79.3045 2.98999H79.7665C80.8865 2.98999 81.4465 3.54999 81.4465 4.66999V31.55C81.4465 32.67 80.8865 33.23 79.7665 33.23H79.3045C78.1845 33.23 77.6245 32.67 77.6245 31.55V20.588C77.6245 19.468 77.0645 18.908 75.9445 18.908H70.3165C69.1965 18.908 68.6365 19.468 68.6365 20.588V31.55C68.6365 32.67 68.0765 33.23 66.9565 33.23H66.4945C65.3745 33.23 64.8145 32.67 64.8145 31.55V4.66999C64.8145 3.54999 65.3745 2.98999 66.4945 2.98999H66.9565C68.0765 2.98999 68.6365 3.54999 68.6365 4.66999V13.406C68.6365 14.526 69.1965 15.086 70.3165 15.086H75.9445C77.0645 15.086 77.6245 14.526 77.6245 13.406V4.66999Z" fill="#9E9E9E"/>
<path d="M98.5444 14.666C99.1044 15.254 99.3844 15.954 99.3844 16.766V28.946C99.3844 29.758 99.1044 30.458 98.5444 31.046L97.2004 32.39C96.6404 32.95 95.9544 33.23 95.1424 33.23H89.9344C89.1224 33.23 88.4364 32.95 87.8764 32.39L86.4904 31.004C85.9304 30.444 85.6504 29.758 85.6504 28.946V16.766C85.6504 15.954 85.9304 15.268 86.4904 14.708L87.8764 13.322C88.4364 12.762 89.1224 12.482 89.9344 12.482H95.1424C95.9544 12.482 96.6404 12.762 97.2004 13.322L98.5444 14.666ZM95.5624 17.984C95.5624 16.864 95.0024 16.304 93.8824 16.304H91.1524C90.0324 16.304 89.4724 16.864 89.4724 17.984V27.728C89.4724 28.848 90.0324 29.408 91.1524 29.408H93.8824C95.0024 29.408 95.5624 28.848 95.5624 27.728V17.984Z" fill="#9E9E9E"/>
<path d="M105.758 13.322C106.318 12.762 107.018 12.482 107.858 12.482H111.722C112.842 12.482 113.402 11.922 113.402 10.802V4.75399C113.402 3.63399 113.962 3.07399 115.082 3.07399H115.544C116.664 3.07399 117.224 3.63399 117.224 4.75399V31.55C117.224 32.67 116.664 33.23 115.544 33.23H107.858C107.046 33.23 106.36 32.95 105.8 32.39L104.414 31.004C103.854 30.444 103.574 29.758 103.574 28.946V16.724C103.574 15.912 103.854 15.226 104.414 14.666L105.758 13.322ZM107.396 27.728C107.396 28.848 107.956 29.408 109.076 29.408H111.722C112.842 29.408 113.402 28.848 113.402 27.728V17.984C113.402 16.864 112.842 16.304 111.722 16.304H109.076C107.956 16.304 107.396 16.864 107.396 17.984V27.728Z" fill="#9E9E9E"/>
<path d="M121.416 4.71199C121.416 3.59199 121.976 3.03199 123.096 3.03199H123.516C124.636 3.03199 125.196 3.59199 125.196 4.71199V31.55C125.196 32.67 124.636 33.23 123.516 33.23H123.096C121.976 33.23 121.416 32.67 121.416 31.55V4.71199Z" fill="#9E9E9E"/>
<path d="M137.184 22.688C138.304 22.688 138.864 22.128 138.864 21.008V14.162C138.864 13.042 139.424 12.482 140.544 12.482H141.006C142.126 12.482 142.686 13.042 142.686 14.162V32.726C142.686 33.538 142.406 34.224 141.846 34.784L140.46 36.17C139.9 36.73 139.214 37.01 138.402 37.01H131.052C129.932 37.01 129.372 36.45 129.372 35.33V34.868C129.372 33.748 129.932 33.188 131.052 33.188H137.184C138.304 33.188 138.864 32.628 138.864 31.508V28.19C138.864 27.07 138.304 26.51 137.184 26.51H133.278C132.466 26.51 131.78 26.23 131.22 25.67L129.834 24.284C129.274 23.724 128.994 23.038 128.994 22.226V14.162C128.994 13.042 129.554 12.482 130.674 12.482H131.136C132.256 12.482 132.816 13.042 132.816 14.162V21.008C132.816 22.128 133.376 22.688 134.496 22.688H137.184Z" fill="#9E9E9E"/>
</svg>
