<svg width="144" height="50" viewBox="0 0 98 28" fill="none" xmlns="http://www.w3.org/2000/svg">
<path fill-rule="evenodd" clip-rule="evenodd" d="M26.8761 1.92545L33.5091 12.6972H20.2429L26.8761 1.92545ZM26.8761 0L18.4588 13.6397H35.2933L26.8761 0ZM15.3433 15.323L8.71019 26.0947L2.07713 15.323H15.3433ZM17.1203 14.3602H0.292969L8.71019 28L17.1203 14.3602ZM16.1126 13.0541L8.70965 1.05701L1.29238 13.0541H16.1126ZM18.0196 15.6729L25.4297 27.9999H10.257L17.7894 15.6729H18.0196ZM26.8754 27.0642L19.6236 14.9257H34.2279L26.8754 27.0642Z" fill="#6366F1"/>
<path d="M54.333 3.78016C54.333 3.03349 54.7063 2.66016 55.453 2.66016H55.761C56.5076 2.66016 56.881 3.03349 56.881 3.78016V21.7002C56.881 22.4468 56.5076 22.8202 55.761 22.8202H55.453C54.7063 22.8202 54.333 22.4468 54.333 21.7002V14.3922C54.333 13.6455 53.9596 13.2722 53.213 13.2722H49.461C48.7143 13.2722 48.341 13.6455 48.341 14.3922V21.7002C48.341 22.4468 47.9676 22.8202 47.221 22.8202H46.913C46.1663 22.8202 45.793 22.4468 45.793 21.7002V3.78016C45.793 3.03349 46.1663 2.66016 46.913 2.66016H47.221C47.9676 2.66016 48.341 3.03349 48.341 3.78016V9.60416C48.341 10.3508 48.7143 10.7242 49.461 10.7242H53.213C53.9596 10.7242 54.333 10.3508 54.333 9.60416V3.78016Z" fill="#6366F1"/>
<path d="M68.2796 10.4442C68.6529 10.8362 68.8396 11.3028 68.8396 11.8442V19.9642C68.8396 20.5055 68.6529 20.9722 68.2796 21.3642L67.3836 22.2602C67.0103 22.6335 66.5529 22.8202 66.0116 22.8202H62.5396C61.9983 22.8202 61.5409 22.6335 61.1676 22.2602L60.2436 21.3362C59.8703 20.9628 59.6836 20.5055 59.6836 19.9642V11.8442C59.6836 11.3028 59.8703 10.8455 60.2436 10.4722L61.1676 9.54816C61.5409 9.17482 61.9983 8.98816 62.5396 8.98816H66.0116C66.5529 8.98816 67.0103 9.17482 67.3836 9.54816L68.2796 10.4442ZM66.2916 12.6562C66.2916 11.9095 65.9183 11.5362 65.1716 11.5362H63.3516C62.6049 11.5362 62.2316 11.9095 62.2316 12.6562V19.1522C62.2316 19.8988 62.6049 20.2722 63.3516 20.2722H65.1716C65.9183 20.2722 66.2916 19.8988 66.2916 19.1522V12.6562Z" fill="#6366F1"/>
<path d="M73.0888 9.54816C73.4621 9.17482 73.9288 8.98816 74.4888 8.98816H77.0648C77.8115 8.98816 78.1848 8.61482 78.1848 7.86816V3.83616C78.1848 3.08949 78.5581 2.71616 79.3048 2.71616H79.6128C80.3595 2.71616 80.7328 3.08949 80.7328 3.83616V21.7002C80.7328 22.4468 80.3595 22.8202 79.6128 22.8202H74.4888C73.9475 22.8202 73.4901 22.6335 73.1168 22.2602L72.1928 21.3362C71.8195 20.9628 71.6328 20.5055 71.6328 19.9642V11.8162C71.6328 11.2748 71.8195 10.8175 72.1928 10.4442L73.0888 9.54816ZM74.1808 19.1522C74.1808 19.8988 74.5541 20.2722 75.3008 20.2722H77.0648C77.8115 20.2722 78.1848 19.8988 78.1848 19.1522V12.6562C78.1848 11.9095 77.8115 11.5362 77.0648 11.5362H75.3008C74.5541 11.5362 74.1808 11.9095 74.1808 12.6562V19.1522Z" fill="#6366F1"/>
<path d="M83.5273 3.80816C83.5273 3.06149 83.9007 2.68816 84.6473 2.68816H84.9273C85.674 2.68816 86.0473 3.06149 86.0473 3.80816V21.7002C86.0473 22.4468 85.674 22.8202 84.9273 22.8202H84.6473C83.9007 22.8202 83.5273 22.4468 83.5273 21.7002V3.80816Z" fill="#6366F1"/>
<path d="M94.0394 15.7922C94.786 15.7922 95.1594 15.4188 95.1594 14.6722V10.1082C95.1594 9.36149 95.5327 8.98816 96.2794 8.98816H96.5874C97.334 8.98816 97.7074 9.36149 97.7074 10.1082V22.4842C97.7074 23.0255 97.5207 23.4828 97.1474 23.8562L96.2234 24.7802C95.85 25.1535 95.3927 25.3402 94.8514 25.3402H89.9514C89.2047 25.3402 88.8314 24.9668 88.8314 24.2202V23.9122C88.8314 23.1655 89.2047 22.7922 89.9514 22.7922H94.0394C94.786 22.7922 95.1594 22.4188 95.1594 21.6722V19.4602C95.1594 18.7135 94.786 18.3402 94.0394 18.3402H91.4354C90.894 18.3402 90.4367 18.1535 90.0634 17.7802L89.1394 16.8562C88.766 16.4828 88.5794 16.0255 88.5794 15.4842V10.1082C88.5794 9.36149 88.9527 8.98816 89.6994 8.98816H90.0074C90.754 8.98816 91.1274 9.36149 91.1274 10.1082V14.6722C91.1274 15.4188 91.5007 15.7922 92.2474 15.7922H94.0394Z" fill="#6366F1"/>
</svg>
