<svg width="145" height="50" viewBox="0 0 145 50" fill="none" xmlns="http://www.w3.org/2000/svg">
<path fill-rule="evenodd" clip-rule="evenodd" d="M33.6333 9.65956L24.4699 4.86169L6.02574 14.5106L1.40298 12.0851L24.4699 0L38.2795 7.23403L33.6333 9.65956ZM24.4716 19.3085L42.904 9.65955L47.5502 12.0851L24.4716 24.1595L10.6737 16.9361L15.3082 14.5106L24.4716 19.3085ZM5.11301 25.8937L0.478516 23.4681V37.9149L23.5454 50V45.1489L5.11301 35.4894V25.8937ZM18.9109 28.2658L0.478516 18.6169V13.7658L23.5454 25.8403V40.2977L18.9109 37.8615V28.2658ZM39.2086 23.468V18.6169L25.399 25.8403V49.9999L30.0335 47.5743V28.2659L39.2086 23.468ZM43.8331 35.4892V16.1914L48.4793 13.7659V37.9148L34.6697 45.1488V40.2977L43.8331 35.4892Z" fill="#9E9E9E"/>
<path d="M75.2885 9.607C75.2885 8.487 75.8485 7.927 76.9685 7.927H77.4305C78.5505 7.927 79.1105 8.487 79.1105 9.607V36.487C79.1105 37.607 78.5505 38.167 77.4305 38.167H76.9685C75.8485 38.167 75.2885 37.607 75.2885 36.487V25.525C75.2885 24.405 74.7285 23.845 73.6085 23.845H67.9805C66.8605 23.845 66.3005 24.405 66.3005 25.525V36.487C66.3005 37.607 65.7405 38.167 64.6205 38.167H64.1585C63.0385 38.167 62.4785 37.607 62.4785 36.487V9.607C62.4785 8.487 63.0385 7.927 64.1585 7.927H64.6205C65.7405 7.927 66.3005 8.487 66.3005 9.607V18.343C66.3005 19.463 66.8605 20.023 67.9805 20.023H73.6085C74.7285 20.023 75.2885 19.463 75.2885 18.343V9.607Z" fill="#9E9E9E"/>
<path d="M91.0845 27.625C92.2045 27.625 92.7645 27.065 92.7645 25.945V19.099C92.7645 17.979 93.3245 17.419 94.4445 17.419H94.9065C96.0265 17.419 96.5865 17.979 96.5865 19.099V37.663C96.5865 38.475 96.3065 39.161 95.7465 39.721L94.3605 41.107C93.8005 41.667 93.1145 41.947 92.3025 41.947H84.9525C83.8325 41.947 83.2725 41.387 83.2725 40.267V39.805C83.2725 38.685 83.8325 38.125 84.9525 38.125H91.0845C92.2045 38.125 92.7645 37.565 92.7645 36.445V33.127C92.7645 32.007 92.2045 31.447 91.0845 31.447H87.1785C86.3665 31.447 85.6805 31.167 85.1205 30.607L83.7345 29.221C83.1745 28.661 82.8945 27.975 82.8945 27.163V19.099C82.8945 17.979 83.4545 17.419 84.5745 17.419H85.0365C86.1565 17.419 86.7165 17.979 86.7165 19.099V25.945C86.7165 27.065 87.2765 27.625 88.3965 27.625H91.0845Z" fill="#9E9E9E"/>
<path d="M102.887 42.073C101.767 42.073 101.207 41.513 101.207 40.393V19.099C101.207 17.979 101.767 17.419 102.887 17.419H110.615C111.427 17.419 112.113 17.699 112.673 18.259L114.017 19.603C114.577 20.163 114.857 20.849 114.857 21.661V29.515C114.857 30.327 114.577 31.027 114.017 31.615L112.673 32.959C112.113 33.519 111.427 33.799 110.615 33.799H106.709C105.589 33.799 105.029 34.359 105.029 35.479V40.393C105.029 41.513 104.469 42.073 103.349 42.073H102.887ZM106.709 21.199C105.589 21.199 105.029 21.759 105.029 22.879V28.297C105.029 29.417 105.589 29.977 106.709 29.977H109.397C110.517 29.977 111.077 29.417 111.077 28.297V22.879C111.077 21.759 110.517 21.199 109.397 21.199H106.709Z" fill="#9E9E9E"/>
<path d="M132.689 28.675C132.689 29.795 132.129 30.355 131.009 30.355H124.541C123.421 30.355 122.861 30.915 122.861 32.035V32.623C122.861 33.743 123.421 34.303 124.541 34.303H131.009C132.129 34.303 132.689 34.863 132.689 35.983V36.445C132.689 37.565 132.129 38.125 131.009 38.125H123.281C122.469 38.125 121.783 37.831 121.223 37.243L119.879 35.899C119.319 35.339 119.039 34.653 119.039 33.841V21.661C119.039 20.849 119.319 20.163 119.879 19.603L121.223 18.259C121.783 17.699 122.469 17.419 123.281 17.419H128.447C129.259 17.419 129.945 17.699 130.505 18.259L131.849 19.603C132.409 20.163 132.689 20.849 132.689 21.661V28.675ZM122.861 25.315C122.861 26.435 123.421 26.995 124.541 26.995H127.187C128.307 26.995 128.867 26.435 128.867 25.315V22.879C128.867 21.759 128.307 21.199 127.187 21.199H124.541C123.421 21.199 122.861 21.759 122.861 22.879V25.315Z" fill="#9E9E9E"/>
<path d="M141.123 36.445C141.123 37.565 140.563 38.125 139.443 38.125H138.981C137.861 38.125 137.301 37.565 137.301 36.445V21.703C137.301 20.891 137.581 20.205 138.141 19.645L139.527 18.259C140.087 17.699 140.773 17.419 141.585 17.419H142.341C143.461 17.419 144.021 17.979 144.021 19.099V19.561C144.021 20.681 143.545 21.241 142.593 21.241C142.117 21.241 141.753 21.395 141.501 21.703C141.249 21.983 141.123 22.389 141.123 22.921V36.445Z" fill="#9E9E9E"/>
</svg>
