<svg width="147" height="50" viewBox="0 0 147 50" fill="none" xmlns="http://www.w3.org/2000/svg">
<path fill-rule="evenodd" clip-rule="evenodd" d="M34.0835 9.65956L24.9201 4.86169L6.47594 14.5106L1.85318 12.0851L24.9201 0L38.7297 7.23403L34.0835 9.65956ZM24.9218 19.3085L43.3542 9.65955L48.0004 12.0851L24.9218 24.1595L11.1239 16.9361L15.7584 14.5106L24.9218 19.3085ZM5.56321 25.8937L0.928711 23.4681V37.9149L23.9956 50V45.1489L5.56321 35.4894V25.8937ZM19.3611 28.2658L0.928711 18.6169V13.7658L23.9956 25.8403V40.2977L19.3611 37.8615V28.2658ZM39.6588 23.468V18.6169L25.8492 25.8403V49.9999L30.4837 47.5743V28.2659L39.6588 23.468ZM44.2833 35.4892V16.1914L48.9295 13.7659V37.9148L35.1199 45.1488V40.2977L44.2833 35.4892Z" fill="#E0E0E0"/>
<path d="M77.8383 12.8177C77.8383 11.6977 78.3983 11.1377 79.5183 11.1377H79.9803C81.1003 11.1377 81.6603 11.6977 81.6603 12.8177V39.6977C81.6603 40.8177 81.1003 41.3777 79.9803 41.3777H79.5183C78.3983 41.3777 77.8383 40.8177 77.8383 39.6977V28.7357C77.8383 27.6157 77.2783 27.0557 76.1583 27.0557H70.5303C69.4103 27.0557 68.8503 27.6157 68.8503 28.7357V39.6977C68.8503 40.8177 68.2903 41.3777 67.1703 41.3777H66.7083C65.5883 41.3777 65.0283 40.8177 65.0283 39.6977V12.8177C65.0283 11.6977 65.5883 11.1377 66.7083 11.1377H67.1703C68.2903 11.1377 68.8503 11.6977 68.8503 12.8177V21.5537C68.8503 22.6737 69.4103 23.2337 70.5303 23.2337H76.1583C77.2783 23.2337 77.8383 22.6737 77.8383 21.5537V12.8177Z" fill="#E0E0E0"/>
<path d="M93.6343 30.8357C94.7543 30.8357 95.3143 30.2757 95.3143 29.1557V22.3097C95.3143 21.1897 95.8743 20.6297 96.9943 20.6297H97.4563C98.5763 20.6297 99.1363 21.1897 99.1363 22.3097V40.8737C99.1363 41.6857 98.8563 42.3717 98.2963 42.9317L96.9103 44.3177C96.3503 44.8777 95.6643 45.1577 94.8523 45.1577H87.5023C86.3823 45.1577 85.8223 44.5977 85.8223 43.4777V43.0157C85.8223 41.8957 86.3823 41.3357 87.5023 41.3357H93.6343C94.7543 41.3357 95.3143 40.7757 95.3143 39.6557V36.3377C95.3143 35.2177 94.7543 34.6577 93.6343 34.6577H89.7283C88.9163 34.6577 88.2303 34.3777 87.6703 33.8177L86.2843 32.4317C85.7243 31.8717 85.4443 31.1857 85.4443 30.3737V22.3097C85.4443 21.1897 86.0043 20.6297 87.1243 20.6297H87.5863C88.7063 20.6297 89.2663 21.1897 89.2663 22.3097V29.1557C89.2663 30.2757 89.8263 30.8357 90.9463 30.8357H93.6343Z" fill="#E0E0E0"/>
<path d="M105.437 45.2837C104.317 45.2837 103.757 44.7237 103.757 43.6037V22.3097C103.757 21.1897 104.317 20.6297 105.437 20.6297H113.165C113.977 20.6297 114.663 20.9097 115.223 21.4697L116.567 22.8137C117.127 23.3737 117.407 24.0597 117.407 24.8717V32.7257C117.407 33.5377 117.127 34.2377 116.567 34.8257L115.223 36.1697C114.663 36.7297 113.977 37.0097 113.165 37.0097H109.259C108.139 37.0097 107.579 37.5697 107.579 38.6897V43.6037C107.579 44.7237 107.019 45.2837 105.899 45.2837H105.437ZM109.259 24.4097C108.139 24.4097 107.579 24.9697 107.579 26.0897V31.5077C107.579 32.6277 108.139 33.1877 109.259 33.1877H111.947C113.067 33.1877 113.627 32.6277 113.627 31.5077V26.0897C113.627 24.9697 113.067 24.4097 111.947 24.4097H109.259Z" fill="#E0E0E0"/>
<path d="M135.239 31.8857C135.239 33.0057 134.679 33.5657 133.559 33.5657H127.091C125.971 33.5657 125.411 34.1257 125.411 35.2457V35.8337C125.411 36.9537 125.971 37.5137 127.091 37.5137H133.559C134.679 37.5137 135.239 38.0737 135.239 39.1937V39.6557C135.239 40.7757 134.679 41.3357 133.559 41.3357H125.831C125.019 41.3357 124.333 41.0417 123.773 40.4537L122.429 39.1097C121.869 38.5497 121.589 37.8637 121.589 37.0517V24.8717C121.589 24.0597 121.869 23.3737 122.429 22.8137L123.773 21.4697C124.333 20.9097 125.019 20.6297 125.831 20.6297H130.997C131.809 20.6297 132.495 20.9097 133.055 21.4697L134.399 22.8137C134.959 23.3737 135.239 24.0597 135.239 24.8717V31.8857ZM125.411 28.5257C125.411 29.6457 125.971 30.2057 127.091 30.2057H129.737C130.857 30.2057 131.417 29.6457 131.417 28.5257V26.0897C131.417 24.9697 130.857 24.4097 129.737 24.4097H127.091C125.971 24.4097 125.411 24.9697 125.411 26.0897V28.5257Z" fill="#E0E0E0"/>
<path d="M143.673 39.6557C143.673 40.7757 143.113 41.3357 141.993 41.3357H141.531C140.411 41.3357 139.851 40.7757 139.851 39.6557V24.9137C139.851 24.1017 140.131 23.4157 140.691 22.8557L142.077 21.4697C142.637 20.9097 143.323 20.6297 144.135 20.6297H144.891C146.011 20.6297 146.571 21.1897 146.571 22.3097V22.7717C146.571 23.8917 146.095 24.4517 145.143 24.4517C144.667 24.4517 144.303 24.6057 144.051 24.9137C143.799 25.1937 143.673 25.5997 143.673 26.1317V39.6557Z" fill="#E0E0E0"/>
</svg>
