<svg width="109" height="32" viewBox="0 0 109 32" fill="none" xmlns="http://www.w3.org/2000/svg">
<path fill-rule="evenodd" clip-rule="evenodd" d="M21.2206 6.18211L15.4943 3.11148L3.96843 9.28678L1.07963 7.73444L15.4943 0L24.124 4.62977L21.2206 6.18211ZM15.4995 12.3569L27.018 6.18164L29.9215 7.73397L15.4995 15.4616L6.87708 10.8386L9.7732 9.28631L15.4995 12.3569ZM3.39601 16.572L0.499878 15.0196V24.2656L14.9145 32V28.8953L3.39601 22.7132V16.572ZM12.0184 18.0905L0.499878 11.9152V8.81055L14.9145 16.5382V25.7909L12.0184 24.2318V18.0905ZM24.7085 15.0187V11.9141L16.0787 16.537V31.9991L18.9749 30.4468V18.0894L24.7085 15.0187ZM27.5968 22.7135V10.3629L30.5002 8.81055V24.2658L21.8705 28.8956V25.7909L27.5968 22.7135Z" fill="#212121"/>
<path d="M55.8602 6.528C55.8602 5.67467 56.2869 5.248 57.1402 5.248H57.4922C58.3456 5.248 58.7722 5.67467 58.7722 6.528V27.008C58.7722 27.8613 58.3456 28.288 57.4922 28.288H57.1402C56.2869 28.288 55.8602 27.8613 55.8602 27.008V18.656C55.8602 17.8027 55.4336 17.376 54.5802 17.376H50.2922C49.4389 17.376 49.0122 17.8027 49.0122 18.656V27.008C49.0122 27.8613 48.5856 28.288 47.7322 28.288H47.3802C46.5269 28.288 46.1002 27.8613 46.1002 27.008V6.528C46.1002 5.67467 46.5269 5.248 47.3802 5.248H47.7322C48.5856 5.248 49.0122 5.67467 49.0122 6.528V13.184C49.0122 14.0373 49.4389 14.464 50.2922 14.464H54.5802C55.4336 14.464 55.8602 14.0373 55.8602 13.184V6.528Z" fill="#212121"/>
<path d="M67.8952 20.256C68.7486 20.256 69.1752 19.8293 69.1752 18.976V13.76C69.1752 12.9067 69.6019 12.48 70.4552 12.48H70.8072C71.6606 12.48 72.0872 12.9067 72.0872 13.76V27.904C72.0872 28.5227 71.8739 29.0453 71.4472 29.472L70.3912 30.528C69.9646 30.9547 69.4419 31.168 68.8232 31.168H63.2232C62.3699 31.168 61.9432 30.7413 61.9432 29.888V29.536C61.9432 28.6827 62.3699 28.256 63.2232 28.256H67.8952C68.7486 28.256 69.1752 27.8293 69.1752 26.976V24.448C69.1752 23.5947 68.7486 23.168 67.8952 23.168H64.9192C64.3006 23.168 63.7779 22.9547 63.3512 22.528L62.2952 21.472C61.8686 21.0453 61.6552 20.5227 61.6552 19.904V13.76C61.6552 12.9067 62.0819 12.48 62.9352 12.48H63.2872C64.1406 12.48 64.5672 12.9067 64.5672 13.76V18.976C64.5672 19.8293 64.9939 20.256 65.8472 20.256H67.8952Z" fill="#212121"/>
<path d="M76.8877 31.264C76.0344 31.264 75.6077 30.8373 75.6077 29.984V13.76C75.6077 12.9067 76.0344 12.48 76.8877 12.48H82.7757C83.3944 12.48 83.9171 12.6933 84.3437 13.12L85.3677 14.144C85.7944 14.5707 86.0077 15.0933 86.0077 15.712V21.696C86.0077 22.3147 85.7944 22.848 85.3677 23.296L84.3437 24.32C83.9171 24.7467 83.3944 24.96 82.7757 24.96H79.7997C78.9464 24.96 78.5197 25.3867 78.5197 26.24V29.984C78.5197 30.8373 78.0931 31.264 77.2397 31.264H76.8877ZM79.7997 15.36C78.9464 15.36 78.5197 15.7867 78.5197 16.64V20.768C78.5197 21.6213 78.9464 22.048 79.7997 22.048H81.8477C82.7011 22.048 83.1277 21.6213 83.1277 20.768V16.64C83.1277 15.7867 82.7011 15.36 81.8477 15.36H79.7997Z" fill="#212121"/>
<path d="M99.594 21.056C99.594 21.9093 99.1673 22.336 98.314 22.336H93.386C92.5327 22.336 92.106 22.7627 92.106 23.616V24.064C92.106 24.9173 92.5327 25.344 93.386 25.344H98.314C99.1673 25.344 99.594 25.7707 99.594 26.624V26.976C99.594 27.8293 99.1673 28.256 98.314 28.256H92.426C91.8073 28.256 91.2847 28.032 90.858 27.584L89.834 26.56C89.4073 26.1333 89.194 25.6107 89.194 24.992V15.712C89.194 15.0933 89.4073 14.5707 89.834 14.144L90.858 13.12C91.2847 12.6933 91.8073 12.48 92.426 12.48H96.362C96.9807 12.48 97.5033 12.6933 97.93 13.12L98.954 14.144C99.3807 14.5707 99.594 15.0933 99.594 15.712V21.056ZM92.106 18.496C92.106 19.3493 92.5327 19.776 93.386 19.776H95.402C96.2553 19.776 96.682 19.3493 96.682 18.496V16.64C96.682 15.7867 96.2553 15.36 95.402 15.36H93.386C92.5327 15.36 92.106 15.7867 92.106 16.64V18.496Z" fill="#212121"/>
<path d="M106.02 26.976C106.02 27.8293 105.593 28.256 104.74 28.256H104.388C103.534 28.256 103.108 27.8293 103.108 26.976V15.744C103.108 15.1253 103.321 14.6027 103.748 14.176L104.804 13.12C105.23 12.6933 105.753 12.48 106.372 12.48H106.948C107.801 12.48 108.228 12.9067 108.228 13.76V14.112C108.228 14.9653 107.865 15.392 107.14 15.392C106.777 15.392 106.5 15.5093 106.308 15.744C106.116 15.9573 106.02 16.2667 106.02 16.672V26.976Z" fill="#212121"/>
</svg>