<svg width="26" height="31" viewBox="0 0 26 31" fill="none" xmlns="http://www.w3.org/2000/svg">
<g clip-path="url(#clip0)">
<path d="M7.49507 29.4826L8.01651 26.1801L6.85499 26.1532H1.30859L5.16305 1.78401C5.17502 1.71044 5.2139 1.64184 5.27073 1.59313C5.32756 1.54442 5.40034 1.51758 5.47612 1.51758H14.8281C17.9328 1.51758 20.0754 2.16178 21.1941 3.43328C21.7185 4.02976 22.0525 4.65308 22.214 5.33903C22.3835 6.05878 22.3865 6.91871 22.221 7.96752L22.209 8.04407V8.71611L22.7334 9.01236C23.1751 9.24598 23.5261 9.5134 23.7953 9.8196C24.2439 10.3296 24.5341 10.9778 24.6567 11.7462C24.7833 12.5366 24.7414 13.477 24.5341 14.5417C24.2948 15.7665 23.9079 16.8332 23.3855 17.7061C22.9049 18.5103 22.2928 19.1774 21.5659 19.6943C20.872 20.1854 20.0475 20.5582 19.1153 20.7968C18.212 21.0314 17.1821 21.1497 16.0525 21.1497H15.3246C14.8042 21.1497 14.2987 21.3366 13.9019 21.6717C13.5041 22.0137 13.2409 22.4809 13.1601 22.9919L13.1053 23.2891L12.184 29.1098L12.1422 29.3235C12.1312 29.3911 12.1122 29.4249 12.0843 29.4478C12.0594 29.4687 12.0235 29.4826 11.9886 29.4826H7.49507Z" fill="#253B80"/>
<path d="M23.2293 8.12207C23.2013 8.30002 23.1694 8.48195 23.1335 8.66884C21.9002 14.9826 17.6809 17.1637 12.292 17.1637H9.54822C8.88919 17.1637 8.33386 17.6409 8.23117 18.2891L6.82637 27.1727L6.42856 29.6908C6.36176 30.1163 6.69078 30.5 7.12149 30.5H11.9879C12.5642 30.5 13.0537 30.0825 13.1445 29.5158L13.1923 29.2693L14.1086 23.4715L14.1674 23.1534C14.2571 22.5847 14.7477 22.1672 15.3239 22.1672H16.0517C20.7666 22.1672 24.4576 20.2585 25.5363 14.7351C25.987 12.4277 25.7537 10.501 24.5613 9.14603C24.2003 8.73744 23.7527 8.39844 23.2293 8.12207Z" fill="#179BD7"/>
<path d="M21.9384 7.60936C21.75 7.55469 21.5556 7.50498 21.3562 7.46024C21.1558 7.4165 20.9504 7.37773 20.739 7.34393C19.9992 7.22463 19.1887 7.16797 18.3203 7.16797H10.9902C10.8097 7.16797 10.6383 7.20873 10.4847 7.28229C10.1467 7.44434 9.89548 7.76346 9.83467 8.15415L8.27533 18.002L8.23047 18.2894C8.33316 17.6412 8.8885 17.164 9.54753 17.164H12.2913C17.6802 17.164 21.8995 14.9819 23.1328 8.66911C23.1697 8.48222 23.2006 8.30029 23.2286 8.12234C22.9165 7.95731 22.5785 7.81614 22.2146 7.69585C22.1249 7.66603 22.0321 7.6372 21.9384 7.60936Z" fill="#222D65"/>
<path d="M9.83529 8.15384C9.89611 7.76315 10.1474 7.44403 10.4853 7.28298C10.6399 7.20941 10.8104 7.16866 10.9908 7.16866H18.3209C19.1893 7.16866 19.9999 7.22532 20.7396 7.34462C20.951 7.37842 21.1564 7.41719 21.3568 7.46093C21.5562 7.50567 21.7506 7.55537 21.939 7.61005C22.0328 7.63789 22.1255 7.66672 22.2162 7.69555C22.5801 7.81584 22.9181 7.958 23.2302 8.12203C23.5971 5.7888 23.2272 4.20017 21.962 2.76166C20.5672 1.178 18.0497 0.5 14.8283 0.5H5.47634C4.81831 0.5 4.25699 0.977185 4.1553 1.62635L0.259959 26.2461C0.183189 26.7332 0.56006 27.1726 1.05259 27.1726H6.8263L8.27596 18.0017L9.83529 8.15384Z" fill="#253B80"/>
</g>
<defs>
<clipPath id="clip0">
<rect width="25.5" height="30" fill="white" transform="translate(0.25 0.5)"/>
</clipPath>
</defs>
</svg>
