<svg width="137" height="50" viewBox="0 0 137 50" fill="none" xmlns="http://www.w3.org/2000/svg">
<path fill-rule="evenodd" clip-rule="evenodd" d="M27.6247 2.54563C27.1293 2.29006 26.5669 2.15557 25.9947 2.15571C25.4225 2.15559 24.8602 2.29008 24.3645 2.54563L5.03852 12.512C4.54294 12.7676 4.13143 13.1351 3.8453 13.5778C3.55919 14.0205 3.40857 14.5226 3.40858 15.0338V34.9664C3.40856 35.4775 3.55919 35.9796 3.8453 36.4223C4.13141 36.8648 4.54294 37.2325 5.03852 37.488L24.3645 47.4544C24.8601 47.7099 25.4223 47.8445 25.9946 47.8445C26.5669 47.8445 27.129 47.7099 27.6247 47.4544L46.9507 37.488C47.4464 37.2325 47.8578 36.8648 48.1439 36.4223C48.4299 35.9796 48.5807 35.4775 48.5807 34.9664V15.0338C48.5807 14.5226 48.4299 14.0205 48.1439 13.5778C47.8578 13.1351 47.4464 12.7676 46.9507 12.512L27.6247 2.54563ZM23.1581 0.67894C24.0207 0.234483 24.9989 0.00034737 25.9947 0H25.9957C26.9916 0.000378982 27.9699 0.234512 28.8324 0.67894L48.1585 10.6453C49.0197 11.0911 49.7351 11.7311 50.233 12.5012C50.7307 13.2713 50.9936 14.1445 50.9951 15.0338V34.9664C50.9934 35.8557 50.7304 36.7291 50.2325 37.4993C49.7345 38.2692 49.019 38.9093 48.1574 39.3549L28.8314 49.3213C27.9689 49.766 26.9906 50 25.9947 50C24.9989 50 24.0206 49.766 23.1581 49.3213L3.83204 39.3549C2.97062 38.9091 2.25526 38.2692 1.75744 37.499C1.25961 36.7291 0.99675 35.8557 0.995117 34.9664V15.0338C0.996699 14.1445 1.25951 13.2713 1.75729 12.5011C2.25507 11.731 2.9704 11.0911 3.83179 10.6453L23.1581 0.67894ZM12.8674 23.4917C13.1613 23.491 13.4525 23.5422 13.724 23.6429C13.9956 23.7434 14.2421 23.891 14.4493 24.0771L17.4435 26.7515L23.5911 21.2604C24.2287 20.6918 25.0929 20.3725 25.994 20.3725C26.895 20.3725 27.7593 20.6918 28.3968 21.2604L36.9448 28.8955L39.5868 26.5358C40.0067 26.1616 40.5753 25.9514 41.1686 25.9514C41.7617 25.9514 42.3306 26.1616 42.7503 26.5358L46.2109 29.6293V16.0793C46.2109 15.6217 46.0761 15.1723 45.8197 14.776C45.5635 14.3798 45.1952 14.0508 44.7516 13.822L27.453 4.90115C27.0095 4.67234 26.506 4.55188 25.9937 4.55188C25.4814 4.55188 24.9781 4.67234 24.5344 4.90115L7.23555 13.822C6.79194 14.0508 6.42353 14.3798 6.16736 14.776C5.91119 15.1723 5.77631 15.6217 5.7762 16.0793V28.9969L11.2845 24.0769C11.4919 23.8906 11.7386 23.7429 12.0103 23.6427C12.282 23.5422 12.5733 23.4908 12.8674 23.4917ZM5.7762 31.946V33.9219C5.77638 34.3415 5.89003 34.7548 6.1075 35.1267C6.32497 35.4989 6.63979 35.8182 7.02518 36.0583L15.7931 28.2265L13.3623 26.0553C13.2973 25.9973 13.2201 25.9512 13.1351 25.9198C13.0501 25.8883 12.9591 25.8721 12.8671 25.8721C12.7751 25.8721 12.6841 25.8883 12.5991 25.9198C12.5142 25.9512 12.437 25.9973 12.3719 26.0553L5.7762 31.946ZM44.9626 36.058L38.5968 30.371L40.6729 28.5155C40.8042 28.3982 40.9824 28.3323 41.1683 28.3323C41.354 28.3323 41.5321 28.3982 41.6635 28.5155L46.2114 32.5777V33.9216C46.2111 34.3412 46.0976 34.7545 45.8802 35.1265C45.6629 35.4984 45.3481 35.818 44.9626 36.058ZM36.9468 31.8448L35.2965 30.371L26.7485 22.7361C26.549 22.5581 26.2787 22.4583 25.9968 22.4583C25.7149 22.4583 25.4446 22.5581 25.2451 22.7361L19.0975 28.2272L17.4469 29.7015L9.11279 37.1446L24.5366 45.0991C24.9803 45.3279 25.4836 45.4483 25.9959 45.4483C26.5082 45.4483 27.0117 45.3279 27.4553 45.0991L42.8791 37.1446L36.9468 31.8448Z" fill="#E0E0E0"/>
<path d="M82.8867 13.4478C83.4467 14.0358 83.7267 14.7358 83.7267 15.5478V26.8038C83.7267 27.6158 83.4467 28.3158 82.8867 28.9038L81.5427 30.2478C80.9827 30.8078 80.2967 31.0878 79.4847 31.0878H72.5967C71.4767 31.0878 70.9167 31.6478 70.9167 32.7678V39.7398C70.9167 40.8598 70.3567 41.4198 69.2367 41.4198H68.7747C67.6547 41.4198 67.0947 40.8598 67.0947 39.7398V12.9438C67.0947 11.8238 67.6547 11.2638 68.7747 11.2638H79.4847C80.2967 11.2638 80.9827 11.5438 81.5427 12.1038L82.8867 13.4478ZM79.9467 16.7658C79.9467 15.6458 79.3867 15.0858 78.2667 15.0858H72.6387C71.5187 15.0858 70.9587 15.6458 70.9587 16.7658V25.5858C70.9587 26.7058 71.5187 27.2658 72.6387 27.2658H78.2247C79.3447 27.2658 79.9047 26.7058 79.9047 25.5858L79.9467 16.7658Z" fill="#E0E0E0"/>
<path d="M101.171 31.8858C101.171 33.0058 100.611 33.5658 99.4905 33.5658H93.0225C91.9025 33.5658 91.3425 34.1258 91.3425 35.2458V35.8338C91.3425 36.9538 91.9025 37.5138 93.0225 37.5138H99.4905C100.611 37.5138 101.171 38.0738 101.171 39.1938V39.6558C101.171 40.7758 100.611 41.3358 99.4905 41.3358H91.7625C90.9505 41.3358 90.2645 41.0418 89.7045 40.4538L88.3605 39.1098C87.8005 38.5498 87.5205 37.8638 87.5205 37.0518V24.8718C87.5205 24.0598 87.8005 23.3738 88.3605 22.8138L89.7045 21.4698C90.2645 20.9098 90.9505 20.6298 91.7625 20.6298H96.9285C97.7405 20.6298 98.4265 20.9098 98.9865 21.4698L100.331 22.8138C100.891 23.3738 101.171 24.0598 101.171 24.8718V31.8858ZM91.3425 28.5258C91.3425 29.6458 91.9025 30.2058 93.0225 30.2058H95.6685C96.7885 30.2058 97.3485 29.6458 97.3485 28.5258V26.0898C97.3485 24.9698 96.7885 24.4098 95.6685 24.4098H93.0225C91.9025 24.4098 91.3425 24.9698 91.3425 26.0898V28.5258Z" fill="#E0E0E0"/>
<path d="M109.646 41.3358C108.834 41.3358 108.148 41.0558 107.588 40.4958L106.202 39.1098C105.642 38.5498 105.362 37.8638 105.362 37.0518V32.1798C105.362 31.7598 105.432 31.3958 105.572 31.0878C105.712 30.7518 105.936 30.4298 106.244 30.1218L107.588 28.7778C108.148 28.2178 108.834 27.9378 109.646 27.9378H113.636C114.756 27.9378 115.316 27.3778 115.316 26.2578V26.1318C115.316 25.0118 114.756 24.4518 113.636 24.4518H107.168C106.048 24.4518 105.488 23.8918 105.488 22.7718V22.3098C105.488 21.1898 106.048 20.6298 107.168 20.6298H114.854C115.666 20.6298 116.352 20.9098 116.912 21.4698L118.298 22.8558C118.858 23.4158 119.138 24.1018 119.138 24.9138V39.6558C119.138 40.7758 118.578 41.3358 117.458 41.3358H109.646ZM115.316 33.0618C115.316 31.9418 114.756 31.3818 113.636 31.3818H110.864C109.744 31.3818 109.184 31.9418 109.184 33.0618V36.2118C109.184 37.3318 109.744 37.8918 110.864 37.8918H113.636C114.756 37.8918 115.316 37.3318 115.316 36.2118V33.0618Z" fill="#E0E0E0"/>
<path d="M129.616 35.5818C129.28 34.9658 128.902 34.6578 128.482 34.6578C128.23 34.6578 128.02 34.7838 127.852 35.0358C127.684 35.2878 127.6 35.6518 127.6 36.1278V39.6978C127.6 40.8178 127.04 41.3778 125.92 41.3778H125.458C124.338 41.3778 123.778 40.8178 123.778 39.6978V12.4818C123.778 11.3618 124.338 10.8018 125.458 10.8018H125.92C127.04 10.8018 127.6 11.3618 127.6 12.4818V24.3258C127.6 24.7738 127.67 25.1238 127.81 25.3758C127.978 25.6278 128.188 25.7538 128.44 25.7538C128.832 25.7538 129.238 25.4878 129.658 24.9558L132.178 21.7218C132.738 20.9938 133.41 20.6298 134.194 20.6298H134.824C135.272 20.6298 135.622 20.7278 135.874 20.9238C136.126 21.1198 136.252 21.3718 136.252 21.6798C136.252 21.9598 136.14 22.2818 135.916 22.6458L131.842 28.6938C131.59 29.0578 131.464 29.4498 131.464 29.8698C131.464 30.2618 131.562 30.6398 131.758 31.0038L136.252 39.3618C136.42 39.6978 136.504 40.0058 136.504 40.2858C136.504 40.6218 136.378 40.8878 136.126 41.0838C135.874 41.2798 135.538 41.3778 135.118 41.3778H134.236C133.312 41.3778 132.64 40.9858 132.22 40.2018L129.616 35.5818Z" fill="#E0E0E0"/>
</svg>
