<svg width="134" height="50" viewBox="0 0 134 50" fill="none" xmlns="http://www.w3.org/2000/svg">
<path fill-rule="evenodd" clip-rule="evenodd" d="M27.1745 2.54563C26.6791 2.29006 26.1167 2.15557 25.5445 2.15571C24.9723 2.15559 24.41 2.29008 23.9144 2.54563L4.58832 12.512C4.09275 12.7676 3.68124 13.1351 3.3951 13.5778C3.10899 14.0205 2.95838 14.5226 2.95838 15.0338V34.9664C2.95837 35.4775 3.10899 35.9796 3.3951 36.4223C3.68121 36.8648 4.09275 37.2325 4.58832 37.488L23.9144 47.4544C24.41 47.7099 24.9722 47.8445 25.5444 47.8445C26.1167 47.8445 26.6788 47.7099 27.1745 47.4544L46.5005 37.488C46.9962 37.2325 47.4076 36.8648 47.6937 36.4223C47.9797 35.9796 48.1305 35.4775 48.1305 34.9664V15.0338C48.1305 14.5226 47.9797 14.0205 47.6937 13.5778C47.4076 13.1351 46.9962 12.7676 46.5005 12.512L27.1745 2.54563ZM22.7079 0.67894C23.5705 0.234483 24.5487 0.00034737 25.5445 0H25.5456C26.5414 0.000378982 27.5197 0.234512 28.3822 0.67894L47.7083 10.6453C48.5695 11.0911 49.2849 11.7311 49.7828 12.5012C50.2805 13.2713 50.5434 14.1445 50.5449 15.0338V34.9664C50.5432 35.8557 50.2802 36.7291 49.7823 37.4993C49.2844 38.2692 48.5688 38.9093 47.7072 39.3549L28.3812 49.3213C27.5187 49.766 26.5404 50 25.5445 50C24.5487 50 23.5704 49.766 22.7079 49.3213L3.38184 39.3549C2.52043 38.9091 1.80507 38.2692 1.30724 37.499C0.809419 36.7291 0.546554 35.8557 0.544922 34.9664V15.0338C0.546504 14.1445 0.809315 13.2713 1.3071 12.5011C1.80488 11.731 2.52021 11.0911 3.38159 10.6453L22.7079 0.67894ZM12.4172 23.4917C12.7111 23.491 13.0023 23.5422 13.2738 23.6429C13.5454 23.7434 13.7919 23.891 13.9991 24.0771L16.9933 26.7515L23.1409 21.2604C23.7785 20.6918 24.6427 20.3725 25.5438 20.3725C26.4448 20.3725 27.3091 20.6918 27.9466 21.2604L36.4946 28.8955L39.1366 26.5358C39.5565 26.1616 40.1252 25.9514 40.7185 25.9514C41.3115 25.9514 41.8804 26.1616 42.3001 26.5358L45.7607 29.6293V16.0793C45.7607 15.6217 45.6259 15.1723 45.3695 14.776C45.1133 14.3798 44.745 14.0508 44.3014 13.822L27.0029 4.90115C26.5593 4.67234 26.0558 4.55188 25.5435 4.55188C25.0312 4.55188 24.5279 4.67234 24.0842 4.90115L6.78536 13.822C6.34174 14.0508 5.97333 14.3798 5.71716 14.776C5.461 15.1723 5.32611 15.6217 5.32601 16.0793V28.9969L10.8343 24.0769C11.0417 23.8906 11.2884 23.7429 11.5601 23.6427C11.8318 23.5422 12.1231 23.4908 12.4172 23.4917ZM5.32601 31.946V33.9219C5.32619 34.3415 5.43984 34.7548 5.65731 35.1267C5.87477 35.4989 6.18959 35.8182 6.57498 36.0583L15.3429 28.2265L12.9121 26.0553C12.8471 25.9973 12.7699 25.9512 12.6849 25.9198C12.5999 25.8883 12.5089 25.8721 12.4169 25.8721C12.3249 25.8721 12.2339 25.8883 12.1489 25.9198C12.064 25.9512 11.9868 25.9973 11.9217 26.0553L5.32601 31.946ZM44.5124 36.058L38.1466 30.371L40.2227 28.5155C40.354 28.3982 40.5322 28.3323 40.7181 28.3323C40.9038 28.3323 41.082 28.3982 41.2133 28.5155L45.7612 32.5777V33.9216C45.7609 34.3412 45.6474 34.7545 45.43 35.1265C45.2127 35.4984 44.8979 35.818 44.5124 36.058ZM36.4966 31.8448L34.8463 30.371L26.2983 22.7361C26.0988 22.5581 25.8285 22.4583 25.5466 22.4583C25.2647 22.4583 24.9944 22.5581 24.7949 22.7361L18.6473 28.2272L16.9967 29.7015L8.6626 37.1446L24.0864 45.0991C24.5301 45.3279 25.0334 45.4483 25.5457 45.4483C26.058 45.4483 26.5615 45.3279 27.0051 45.0991L42.4289 37.1446L36.4966 31.8448Z" fill="#9E9E9E"/>
<path d="M80.3369 12.337C80.8969 12.925 81.1769 13.625 81.1769 14.437V25.693C81.1769 26.505 80.8969 27.205 80.3369 27.793L78.9929 29.137C78.4329 29.697 77.7469 29.977 76.9349 29.977H70.0469C68.9269 29.977 68.3669 30.537 68.3669 31.657V38.629C68.3669 39.749 67.8069 40.309 66.6869 40.309H66.2249C65.1049 40.309 64.5449 39.749 64.5449 38.629V11.833C64.5449 10.713 65.1049 10.153 66.2249 10.153H76.9349C77.7469 10.153 78.4329 10.433 78.9929 10.993L80.3369 12.337ZM77.3969 15.655C77.3969 14.535 76.8369 13.975 75.7169 13.975H70.0889C68.9689 13.975 68.4089 14.535 68.4089 15.655V24.475C68.4089 25.595 68.9689 26.155 70.0889 26.155H75.6749C76.7949 26.155 77.3549 25.595 77.3549 24.475L77.3969 15.655Z" fill="#9E9E9E"/>
<path d="M98.6207 30.775C98.6207 31.895 98.0607 32.455 96.9407 32.455H90.4727C89.3527 32.455 88.7927 33.015 88.7927 34.135V34.723C88.7927 35.843 89.3527 36.403 90.4727 36.403H96.9407C98.0607 36.403 98.6207 36.963 98.6207 38.083V38.545C98.6207 39.665 98.0607 40.225 96.9407 40.225H89.2127C88.4007 40.225 87.7147 39.931 87.1547 39.343L85.8107 37.999C85.2507 37.439 84.9707 36.753 84.9707 35.941V23.761C84.9707 22.949 85.2507 22.263 85.8107 21.703L87.1547 20.359C87.7147 19.799 88.4007 19.519 89.2127 19.519H94.3787C95.1907 19.519 95.8767 19.799 96.4367 20.359L97.7807 21.703C98.3407 22.263 98.6207 22.949 98.6207 23.761V30.775ZM88.7927 27.415C88.7927 28.535 89.3527 29.095 90.4727 29.095H93.1187C94.2387 29.095 94.7987 28.535 94.7987 27.415V24.979C94.7987 23.859 94.2387 23.299 93.1187 23.299H90.4727C89.3527 23.299 88.7927 23.859 88.7927 24.979V27.415Z" fill="#9E9E9E"/>
<path d="M107.097 40.225C106.285 40.225 105.599 39.945 105.039 39.385L103.653 37.999C103.093 37.439 102.812 36.753 102.812 35.941V31.069C102.812 30.649 102.883 30.285 103.023 29.977C103.163 29.641 103.386 29.319 103.694 29.011L105.039 27.667C105.599 27.107 106.285 26.827 107.097 26.827H111.087C112.207 26.827 112.767 26.267 112.767 25.147V25.021C112.767 23.901 112.207 23.341 111.087 23.341H104.618C103.498 23.341 102.939 22.781 102.939 21.661V21.199C102.939 20.079 103.498 19.519 104.618 19.519H112.305C113.117 19.519 113.803 19.799 114.363 20.359L115.749 21.745C116.309 22.305 116.589 22.991 116.589 23.803V38.545C116.589 39.665 116.029 40.225 114.909 40.225H107.097ZM112.767 31.951C112.767 30.831 112.207 30.271 111.087 30.271H108.315C107.195 30.271 106.635 30.831 106.635 31.951V35.101C106.635 36.221 107.195 36.781 108.315 36.781H111.087C112.207 36.781 112.767 36.221 112.767 35.101V31.951Z" fill="#9E9E9E"/>
<path d="M127.067 34.471C126.731 33.855 126.353 33.547 125.933 33.547C125.681 33.547 125.471 33.673 125.303 33.925C125.135 34.177 125.051 34.541 125.051 35.017V38.587C125.051 39.707 124.491 40.267 123.371 40.267H122.909C121.789 40.267 121.229 39.707 121.229 38.587V11.371C121.229 10.251 121.789 9.69098 122.909 9.69098H123.371C124.491 9.69098 125.051 10.251 125.051 11.371V23.215C125.051 23.663 125.121 24.013 125.261 24.265C125.429 24.517 125.639 24.643 125.891 24.643C126.283 24.643 126.689 24.377 127.109 23.845L129.629 20.611C130.189 19.883 130.861 19.519 131.645 19.519H132.275C132.723 19.519 133.073 19.617 133.325 19.813C133.577 20.009 133.703 20.261 133.703 20.569C133.703 20.849 133.591 21.171 133.367 21.535L129.293 27.583C129.041 27.947 128.915 28.339 128.915 28.759C128.915 29.151 129.013 29.529 129.209 29.893L133.703 38.251C133.871 38.587 133.955 38.895 133.955 39.175C133.955 39.511 133.829 39.777 133.577 39.973C133.325 40.169 132.989 40.267 132.569 40.267H131.687C130.763 40.267 130.091 39.875 129.671 39.091L127.067 34.471Z" fill="#9E9E9E"/>
</svg>
