<svg width="32" height="32" viewBox="0 0 32 32" fill="none" xmlns="http://www.w3.org/2000/svg">
<path d="M16 30C23.732 30 30 23.732 30 16C30 8.26801 23.732 2 16 2C8.26801 2 2 8.26801 2 16C2 23.732 8.26801 30 16 30Z" fill="url(#paint0_linear)"/>
<path d="M15.9998 28.9498C23.1519 28.9498 28.9498 23.1519 28.9498 15.9998C28.9498 8.84772 23.1519 3.0498 15.9998 3.0498C8.84772 3.0498 3.0498 8.84772 3.0498 15.9998C3.0498 23.1519 8.84772 28.9498 15.9998 28.9498Z" fill="url(#paint1_radial)"/>
<path d="M16.0215 6.19958C15.934 6.19958 15.8574 6.13399 15.8574 6.04649V3.76052C15.8574 3.67302 15.934 3.60742 16.0215 3.60742C16.109 3.60742 16.1855 3.67302 16.1855 3.76052V6.04649C16.1746 6.13399 16.109 6.19958 16.0215 6.19958Z" fill="#F3F3F3"/>
<path d="M16.0217 6.21071C15.9232 6.21071 15.8467 6.13416 15.8467 6.04667V3.76073C15.8467 3.67323 15.9232 3.59668 16.0217 3.59668C16.1201 3.59668 16.1967 3.67323 16.1967 3.76073V6.04667C16.1967 6.13416 16.1092 6.21071 16.0217 6.21071ZM16.0217 3.61847C15.9451 3.61847 15.8686 3.68418 15.8686 3.76073V6.04667C15.8686 6.12321 15.9342 6.18892 16.0217 6.18892C16.0982 6.18892 16.1748 6.12321 16.1748 6.04667V3.76073C16.1639 3.68418 16.0982 3.61847 16.0217 3.61847Z" fill="white"/>
<path d="M17.116 4.97506C17.0285 4.96411 16.9629 4.89851 16.9629 4.81101L17.0394 3.79373C17.0503 3.70634 17.1269 3.64063 17.2144 3.65158C17.3019 3.66254 17.3675 3.72825 17.3675 3.81575L17.291 4.83291C17.28 4.92041 17.2035 4.98601 17.116 4.97517V4.97506Z" fill="#F3F3F3"/>
<path d="M17.1152 4.98604C17.0168 4.97509 16.9512 4.89854 16.9512 4.81104L17.0277 3.79377C17.0387 3.70639 17.1152 3.62984 17.2137 3.64068C17.312 3.65163 17.3777 3.72829 17.3777 3.81568L17.3012 4.83294C17.2902 4.93139 17.2137 4.99699 17.1152 4.98604ZM17.2137 3.66258C17.1371 3.66258 17.0605 3.71734 17.0605 3.79389L16.9839 4.81115C16.9839 4.88759 17.0387 4.9533 17.1262 4.96414C17.2027 4.96414 17.2793 4.90949 17.2793 4.83294L17.3558 3.81568C17.3558 3.73913 17.2902 3.67353 17.2136 3.66258H17.2137Z" fill="white"/>
<path d="M17.9354 6.39705C17.8478 6.37514 17.7932 6.2986 17.8041 6.21109L18.2525 3.96882C18.2745 3.88144 18.351 3.82668 18.4385 3.84858C18.526 3.87048 18.5806 3.94703 18.5697 4.03453L18.1213 6.2768C18.1103 6.35324 18.0228 6.408 17.9353 6.39705H17.9354Z" fill="#F3F3F3"/>
<path d="M17.9356 6.40759C17.8371 6.38569 17.7824 6.29819 17.7934 6.21069L18.2418 3.96845C18.2637 3.88106 18.3512 3.81535 18.4495 3.83725C18.548 3.85916 18.6027 3.94666 18.5918 4.03416L18.1433 6.2764C18.1214 6.36379 18.034 6.41854 17.9356 6.40759ZM18.4495 3.85916C18.373 3.8482 18.2964 3.8919 18.2745 3.96856L17.8262 6.2108C17.8153 6.28724 17.859 6.36379 17.9465 6.3858C18.023 6.39664 18.0995 6.35283 18.1214 6.27629L18.5699 4.03416C18.5808 3.94666 18.5262 3.88106 18.4495 3.85916Z" fill="white"/>
<path d="M19.2489 5.41239C19.228 5.40737 19.2084 5.39829 19.1911 5.38567C19.1737 5.37306 19.1591 5.35715 19.1479 5.33886C19.1367 5.32058 19.1293 5.30027 19.126 5.2791C19.1227 5.25793 19.1236 5.23631 19.1286 5.21549L19.4021 4.2312C19.4239 4.1437 19.5114 4.09989 19.5989 4.12179C19.6864 4.1437 19.7411 4.2312 19.7192 4.3187L19.4458 5.3031C19.4239 5.39049 19.3364 5.43429 19.2489 5.41239Z" fill="#F3F3F3"/>
<path d="M19.249 5.42376C19.1615 5.40186 19.0959 5.30341 19.1287 5.21602L19.4022 4.23152C19.4239 4.14413 19.5224 4.08937 19.6099 4.11128C19.6974 4.13318 19.7629 4.23163 19.7302 4.31902L19.4568 5.30352C19.4349 5.39091 19.3474 5.44566 19.2491 5.42376H19.249ZM19.6099 4.14413C19.5333 4.12223 19.4458 4.16603 19.4239 4.24258L19.1506 5.22686C19.1287 5.30341 19.1724 5.38007 19.2599 5.40186C19.3364 5.42376 19.4239 5.38007 19.4458 5.30352L19.7193 4.31902C19.7302 4.24258 19.6865 4.16603 19.6099 4.14402V4.14413Z" fill="white"/>
<path d="M19.7845 6.95474C19.697 6.92188 19.6643 6.82343 19.697 6.74688L20.572 4.63594C20.6047 4.5594 20.7033 4.51559 20.7797 4.5594C20.8673 4.59214 20.9002 4.6907 20.8673 4.76714L19.9924 6.87808C19.9596 6.95474 19.8611 6.99843 19.7846 6.95474H19.7845Z" fill="#F3F3F3"/>
<path d="M19.7842 6.96591C19.7422 6.94989 19.7082 6.91786 19.6898 6.87685C19.6713 6.83583 19.6699 6.78917 19.6858 6.7471L20.5608 4.63613C20.5936 4.54863 20.6921 4.51578 20.7905 4.54863C20.8326 4.56465 20.8665 4.59667 20.885 4.63769C20.9034 4.67871 20.9049 4.72536 20.889 4.76744L20.014 6.87841C19.9702 6.96591 19.8717 7.0096 19.7842 6.96591ZM20.7796 4.57054C20.703 4.53779 20.6155 4.57054 20.5827 4.64708L19.7077 6.75805C19.6749 6.8346 19.7186 6.91115 19.7952 6.944C19.8717 6.97674 19.9592 6.944 19.9921 6.86745L20.8671 4.75649C20.889 4.69078 20.8561 4.60328 20.7796 4.57054Z" fill="white"/>
<path d="M21.2612 6.25462C21.1846 6.21081 21.1517 6.12331 21.1846 6.04676L21.6439 5.13904C21.6876 5.06238 21.7751 5.02953 21.8627 5.07333C21.9392 5.11714 21.972 5.20464 21.9392 5.28107L21.4798 6.18891C21.4361 6.26545 21.3486 6.29842 21.2611 6.25462H21.2612Z" fill="#F3F3F3"/>
<path d="M21.261 6.26565C21.1734 6.22184 21.1406 6.12339 21.1843 6.03589L21.6437 5.12816C21.6874 5.04054 21.786 5.0078 21.8734 5.0515C21.9609 5.0953 21.9937 5.19375 21.9499 5.28125L21.4906 6.18899C21.4468 6.27649 21.3484 6.30934 21.2609 6.26554L21.261 6.26565ZM21.8625 5.0734C21.7859 5.04066 21.6984 5.06245 21.6656 5.139L21.2062 6.04684C21.1735 6.11244 21.2062 6.19994 21.2718 6.24375C21.3484 6.27649 21.4359 6.2547 21.4687 6.17815L21.9281 5.2703C21.9609 5.2047 21.9281 5.11721 21.8625 5.0734Z" fill="white"/>
<path d="M21.4794 7.87365C21.4029 7.819 21.381 7.72055 21.4356 7.65495L22.7044 5.76268C22.7481 5.68613 22.8467 5.67518 22.9231 5.71899C22.9998 5.77363 23.0216 5.87209 22.9669 5.93768L21.6981 7.82995C21.6544 7.9065 21.556 7.92841 21.4794 7.87365Z" fill="#F3F3F3"/>
<path d="M21.4793 7.88466C21.4028 7.83002 21.3809 7.72062 21.4247 7.64407L22.6934 5.75185C22.748 5.6753 22.8465 5.6534 22.934 5.70816C23.0105 5.7628 23.0324 5.8722 22.9887 5.94875L21.7199 7.84097C21.6653 7.91751 21.5559 7.9393 21.4793 7.88466ZM22.923 5.73006C22.8575 5.68625 22.759 5.69721 22.7153 5.7628L21.4465 7.65502C21.4028 7.7205 21.4246 7.80811 21.4903 7.85181C21.5559 7.89561 21.6543 7.88466 21.698 7.81907L22.9668 5.9378C23.0105 5.8722 22.9887 5.77375 22.923 5.73006Z" fill="white"/>
<path d="M23.0764 7.46861C23.0109 7.41386 22.989 7.3154 23.0437 7.24981L23.678 6.45136C23.7326 6.38587 23.8311 6.37481 23.8967 6.42956C23.9624 6.48421 23.9842 6.58266 23.9294 6.64826L23.2952 7.44671C23.2405 7.51231 23.1421 7.52326 23.0765 7.46861H23.0764Z" fill="#F3F3F3"/>
<path d="M23.066 7.48011C22.9894 7.42535 22.9785 7.31594 23.0333 7.23939L23.6675 6.44103C23.7222 6.36436 23.8316 6.35341 23.9081 6.41912C23.9846 6.47377 23.9956 6.58318 23.9408 6.65973L23.3066 7.4582C23.2519 7.53475 23.1425 7.5457 23.066 7.48011ZM23.8862 6.44091C23.8207 6.38627 23.7331 6.39722 23.6785 6.46282L23.0441 7.26129C23.0004 7.32689 23.0114 7.41439 23.0768 7.46904C23.1425 7.5238 23.23 7.51285 23.2847 7.44725L23.919 6.64878C23.9629 6.58318 23.9518 6.48472 23.8863 6.44103L23.8862 6.44091Z" fill="white"/>
<path d="M22.9672 9.10905C22.9016 9.04345 22.9016 8.945 22.9672 8.89024L24.5858 7.28253C24.6515 7.21693 24.7498 7.22777 24.8046 7.28253C24.8592 7.33717 24.8702 7.44657 24.8046 7.50122L23.1969 9.10905C23.1312 9.17464 23.0328 9.17464 22.9672 9.10905Z" fill="#F3F3F3"/>
<path d="M22.9565 9.12037C22.9249 9.08828 22.9072 9.04508 22.9072 9.00007C22.9072 8.95507 22.9249 8.91187 22.9565 8.87978L24.5752 7.27193C24.6073 7.24035 24.6505 7.22266 24.6955 7.22266C24.7406 7.22266 24.7838 7.24035 24.8159 7.27193C24.8474 7.30403 24.8651 7.34723 24.8651 7.39223C24.8651 7.43723 24.8474 7.48044 24.8159 7.51253L23.1971 9.12026C23.165 9.1518 23.1218 9.16948 23.0768 9.16948C23.0317 9.16948 22.9885 9.1518 22.9565 9.12026V9.12037ZM24.8049 7.28289C24.7503 7.22813 24.6518 7.22813 24.5972 7.28289L22.9784 8.89062C22.9236 8.94537 22.9236 9.04382 22.9784 9.09847C23.033 9.15323 23.1315 9.15323 23.1861 9.09847L24.8049 7.49074C24.8596 7.43598 24.8596 7.34848 24.8049 7.28289Z" fill="white"/>
<path d="M24.6081 9.02229C24.5534 8.95669 24.5534 8.85825 24.619 8.80349L25.3955 8.14732C25.4611 8.09267 25.5596 8.10351 25.6143 8.16922C25.6689 8.23481 25.6689 8.33326 25.6034 8.38791L24.8269 9.04419C24.7612 9.09883 24.6627 9.08788 24.6081 9.02229Z" fill="#F3F3F3"/>
<path d="M24.5968 9.03273C24.5312 8.95618 24.5422 8.84678 24.6077 8.79214L25.3842 8.13584C25.4498 8.07024 25.5592 8.08119 25.6248 8.15774C25.6905 8.23429 25.6796 8.34369 25.614 8.39833L24.8374 9.05463C24.7719 9.12012 24.6624 9.10928 24.5969 9.03273H24.5968ZM25.603 8.16869C25.5483 8.10309 25.4608 8.10309 25.3953 8.14679L24.6187 8.80309C24.5641 8.85773 24.5531 8.94523 24.6077 9.01083C24.6624 9.07642 24.75 9.07642 24.8155 9.03273L25.5921 8.37643C25.6577 8.32179 25.6577 8.23429 25.603 8.16869Z" fill="white"/>
<path d="M24.17 10.5972C24.1153 10.5207 24.1372 10.4222 24.2138 10.3784L26.1168 9.1097C26.1933 9.0659 26.2918 9.0878 26.3355 9.15351C26.3902 9.23006 26.3683 9.32851 26.2918 9.37221L24.3888 10.6409C24.3231 10.6847 24.2246 10.6628 24.17 10.5972Z" fill="#F3F3F3"/>
<path d="M24.1592 10.5968C24.1046 10.5202 24.1265 10.4108 24.2031 10.3562L26.1061 9.08739C26.1827 9.03275 26.2921 9.05465 26.3467 9.14215C26.4015 9.2187 26.3795 9.3281 26.303 9.38263L24.4 10.6515C24.3233 10.7063 24.214 10.6844 24.1592 10.5969V10.5968ZM26.3248 9.16405C26.2811 9.09834 26.1936 9.07644 26.128 9.12025L24.2248 10.3889C24.1594 10.4327 24.1373 10.5202 24.1921 10.5968C24.2358 10.6624 24.3233 10.6843 24.389 10.6406L26.2921 9.37179C26.3577 9.31715 26.3686 9.22954 26.3248 9.16405Z" fill="white"/>
<path d="M25.8007 10.8265C25.7568 10.7498 25.7787 10.6515 25.8553 10.6077L26.7413 10.1046C26.8178 10.0608 26.9163 10.0936 26.96 10.1701C27.0038 10.2467 26.9819 10.3451 26.9053 10.3889L26.0193 10.8921C25.9428 10.9358 25.8443 10.903 25.8005 10.8264L25.8007 10.8265Z" fill="#F3F3F3"/>
<path d="M25.7889 10.8374C25.7451 10.7499 25.767 10.6514 25.8436 10.6077L26.7295 10.1046C26.8061 10.0608 26.9155 10.0936 26.9592 10.1701C27.003 10.2577 26.9811 10.3561 26.9046 10.3998L26.0186 10.9031C25.942 10.9468 25.8326 10.9139 25.7889 10.8374ZM26.9482 10.1811C26.9045 10.1046 26.817 10.0827 26.7515 10.1264L25.8655 10.6296C25.7999 10.6733 25.778 10.7608 25.8107 10.8264C25.8545 10.903 25.942 10.9249 26.0076 10.8812L26.8936 10.3779C26.9592 10.3452 26.9811 10.2577 26.9482 10.1811Z" fill="white"/>
<path d="M25.0671 12.2813C25.0344 12.1938 25.0671 12.1063 25.1546 12.0735L27.2656 11.1986C27.3421 11.1657 27.4406 11.2094 27.4733 11.2859C27.5062 11.3734 27.4733 11.4609 27.3858 11.4937L25.275 12.3687C25.1983 12.4015 25.1 12.3687 25.0671 12.2813Z" fill="#F3F3F3"/>
<path d="M25.0564 12.2923C25.0237 12.2049 25.0564 12.1064 25.1439 12.0626L27.2548 11.1877C27.2969 11.1718 27.3435 11.1733 27.3845 11.1917C27.4255 11.2102 27.4575 11.2441 27.4735 11.2861C27.5064 11.3736 27.4735 11.4721 27.386 11.5158L25.2752 12.3907C25.2331 12.4066 25.1865 12.4052 25.1455 12.3868C25.1045 12.3683 25.0724 12.3344 25.0564 12.2924V12.2923ZM27.4517 11.2971C27.4189 11.2205 27.3314 11.1877 27.2658 11.2096L25.1548 12.0845C25.0783 12.1173 25.0454 12.2049 25.0783 12.2814C25.111 12.358 25.1985 12.3908 25.2642 12.3689L27.3751 11.494C27.4517 11.4612 27.4846 11.3736 27.4517 11.2971Z" fill="white"/>
<path d="M26.6095 12.8278C26.5768 12.7402 26.6204 12.6528 26.7079 12.6199L27.6703 12.3027C27.7469 12.2699 27.8453 12.3246 27.8672 12.4011C27.9 12.4886 27.8563 12.5761 27.7688 12.609L26.8064 12.9262C26.7298 12.959 26.6423 12.9153 26.6095 12.8277V12.8278Z" fill="#F3F3F3"/>
<path d="M26.5986 12.8395C26.5659 12.752 26.6096 12.6535 26.7081 12.6208L27.6704 12.3035C27.7579 12.2708 27.8564 12.3254 27.8892 12.4131C27.9219 12.5004 27.8783 12.5989 27.7797 12.6318L26.8174 12.949C26.7299 12.9708 26.6315 12.927 26.5986 12.8395ZM27.8673 12.424C27.8454 12.3473 27.7579 12.3035 27.6814 12.3254L26.719 12.6427C26.6424 12.6645 26.6096 12.752 26.6315 12.8287C26.6534 12.9052 26.7409 12.9489 26.8174 12.927L27.7798 12.6099C27.8564 12.5771 27.8892 12.5004 27.8673 12.4239V12.424Z" fill="white"/>
<path d="M25.625 14.1296C25.6031 14.0421 25.6577 13.9546 25.7452 13.9437L27.9873 13.5062C28.0747 13.4843 28.1513 13.5499 28.1731 13.6374C28.195 13.7249 28.1404 13.8124 28.0529 13.8233L25.8108 14.2608C25.7233 14.2717 25.6358 14.2171 25.6248 14.1296H25.625Z" fill="#F3F3F3"/>
<path d="M25.6029 14.1301C25.581 14.0316 25.6466 13.9441 25.7341 13.9222L27.9763 13.4847C28.0638 13.4628 28.1513 13.5285 28.1731 13.627C28.195 13.7253 28.1294 13.8128 28.0419 13.8347L25.7997 14.2723C25.7123 14.2942 25.6247 14.2286 25.6029 14.13V14.1301ZM28.1513 13.6378C28.1404 13.5612 28.0638 13.5066 27.9873 13.5175L25.745 13.9551C25.6685 13.966 25.6138 14.0534 25.6356 14.1301C25.6466 14.2067 25.7231 14.2613 25.7998 14.2503L28.0419 13.8128C28.1185 13.7909 28.1731 13.7144 28.1513 13.6378Z" fill="white"/>
<path d="M27.0248 14.9724C27.0139 14.8848 27.0685 14.8083 27.156 14.7973L28.1622 14.677C28.2497 14.6661 28.3264 14.7317 28.3372 14.8192C28.3482 14.9067 28.2935 14.9833 28.206 14.9943L27.1997 15.1145C27.1232 15.1255 27.0357 15.0599 27.0247 14.9724H27.0248Z" fill="#F3F3F3"/>
<path d="M27.0139 14.9716C27.0029 14.8732 27.0685 14.7857 27.156 14.7747L28.1622 14.6545C28.2497 14.6436 28.3372 14.7092 28.3481 14.8076C28.3591 14.906 28.2935 14.9935 28.206 15.0045L27.1997 15.1247C27.1123 15.1357 27.0247 15.0701 27.0139 14.9716ZM28.3372 14.8185C28.3263 14.742 28.2498 14.6763 28.1731 14.6873L27.167 14.8076C27.0904 14.8185 27.0357 14.8951 27.0466 14.9716C27.0576 15.0482 27.1341 15.1139 27.2107 15.1029L28.2169 14.9826C28.2935 14.9716 28.3481 14.8951 28.3373 14.8185H28.3372Z" fill="white"/>
<path d="M25.7998 16.0332C25.7998 15.9457 25.8653 15.8691 25.9529 15.8691H28.2389C28.3264 15.8691 28.392 15.9457 28.392 16.0332C28.392 16.1207 28.3264 16.1972 28.2389 16.1972H25.9529C25.8654 16.1972 25.7998 16.1207 25.7998 16.0332Z" fill="#F3F3F3"/>
<path d="M25.7891 16.0324C25.7891 15.934 25.8656 15.8574 25.9531 15.8574H28.2391C28.3266 15.8574 28.4031 15.934 28.4031 16.0324C28.4031 16.1309 28.3266 16.2074 28.2391 16.2074H25.9531C25.8656 16.2074 25.7891 16.1309 25.7891 16.0324ZM28.3812 16.0434C28.3812 15.9668 28.3156 15.8903 28.2389 15.8903H25.9532C25.8767 15.8903 25.811 15.9558 25.811 16.0434C25.811 16.1199 25.8767 16.1965 25.9532 16.1965H28.2392C28.3157 16.1855 28.3813 16.1199 28.3813 16.0434H28.3812Z" fill="white"/>
<path d="M27.0138 17.1375C27.0246 17.05 27.0903 16.9844 27.1778 16.9844L28.195 17.0609C28.2824 17.0719 28.348 17.1484 28.3371 17.2359C28.3262 17.3234 28.2605 17.389 28.173 17.389L27.1559 17.3125C27.0794 17.3015 27.0137 17.225 27.0137 17.1375H27.0138Z" fill="#F3F3F3"/>
<path d="M27.0029 17.1377C27.0139 17.0392 27.0904 16.9736 27.1779 16.9736L28.1953 17.0502C28.2827 17.0611 28.3593 17.1377 28.3483 17.2361C28.3375 17.3346 28.2608 17.4002 28.1733 17.4002L27.156 17.3236C27.0685 17.3127 27.0029 17.2252 27.0029 17.1377ZM28.3375 17.2361C28.3483 17.1596 28.2827 17.083 28.2061 17.083L27.1888 17.0065C27.1123 17.0065 27.0466 17.0611 27.0357 17.1487C27.0248 17.2252 27.0904 17.3017 27.167 17.3017L28.1843 17.3783C28.2608 17.3783 28.3265 17.3128 28.3375 17.2361Z" fill="white"/>
<path d="M25.603 17.9363C25.6249 17.8488 25.7014 17.7941 25.7889 17.8051L28.0311 18.2536C28.1186 18.2754 28.1733 18.3519 28.1514 18.4394C28.1295 18.5269 28.053 18.5817 27.9655 18.5707L25.7232 18.1223C25.6467 18.1113 25.592 18.0238 25.603 17.9363Z" fill="#F3F3F3"/>
<path d="M25.5922 17.9356C25.6141 17.8372 25.7016 17.7825 25.7891 17.7934L28.0314 18.2419C28.1189 18.2637 28.1845 18.3512 28.1626 18.4496C28.1408 18.548 28.0533 18.6028 27.9658 18.5918L25.7234 18.1434C25.6359 18.1215 25.5813 18.034 25.5922 17.9357V17.9356ZM28.1408 18.4496C28.1518 18.3731 28.1081 18.2965 28.0314 18.2746L25.789 17.8262C25.7126 17.8154 25.6359 17.8591 25.614 17.9465C25.6032 18.0231 25.6469 18.0996 25.7235 18.1215L27.9658 18.5699C28.0533 18.5809 28.1189 18.5261 28.1408 18.4496Z" fill="white"/>
<path d="M26.5877 19.2488C26.5927 19.228 26.6018 19.2084 26.6144 19.1911C26.627 19.1738 26.6429 19.1591 26.6612 19.1479C26.6794 19.1368 26.6997 19.1293 26.7209 19.126C26.7421 19.1227 26.7637 19.1236 26.7845 19.1286L27.7689 19.4019C27.8564 19.4239 27.9001 19.5115 27.8783 19.5989C27.8733 19.6197 27.8642 19.6394 27.8516 19.6567C27.839 19.674 27.8231 19.6887 27.8048 19.6999C27.7865 19.7111 27.7662 19.7185 27.745 19.7219C27.7238 19.7252 27.7022 19.7243 27.6814 19.7192L26.697 19.4458C26.6095 19.4239 26.5658 19.3363 26.5876 19.2488H26.5877Z" fill="#F3F3F3"/>
<path d="M26.577 19.248C26.5989 19.1605 26.6974 19.0949 26.7849 19.1278L27.7693 19.4011C27.8568 19.423 27.9115 19.5214 27.8896 19.6089C27.8677 19.6964 27.7693 19.762 27.6818 19.7292L26.6974 19.4558C26.6099 19.4339 26.5551 19.3464 26.5771 19.2481L26.577 19.248ZM27.8568 19.6089C27.8787 19.5323 27.8349 19.4449 27.7583 19.423L26.7739 19.1495C26.6974 19.1276 26.6208 19.1714 26.5989 19.2589C26.5771 19.3355 26.6208 19.423 26.6974 19.4449L27.6818 19.7183C27.7583 19.7292 27.8349 19.6855 27.8568 19.6089Z" fill="white"/>
<path d="M25.0457 19.7738C25.0784 19.6863 25.177 19.6535 25.2534 19.6863L27.3644 20.5613C27.441 20.594 27.4847 20.6926 27.4519 20.769C27.4191 20.8566 27.3206 20.8894 27.2441 20.8566L25.1332 19.9817C25.0457 19.9489 25.0128 19.8504 25.0457 19.7739V19.7738Z" fill="#F3F3F3"/>
<path d="M25.0339 19.7627C25.05 19.7207 25.082 19.6867 25.123 19.6683C25.164 19.6498 25.2107 19.6484 25.2527 19.6643L27.3636 20.5393C27.4511 20.5722 27.4839 20.6706 27.4511 20.7691C27.4351 20.8111 27.4031 20.8451 27.3621 20.8635C27.321 20.882 27.2744 20.8834 27.2323 20.8675L25.1214 19.9925C25.0339 19.9487 25.0012 19.8502 25.0339 19.7627ZM27.4292 20.7581C27.462 20.6816 27.4292 20.5941 27.3527 20.5612L25.2418 19.6862C25.1652 19.6534 25.0887 19.6971 25.0558 19.7737C25.0231 19.8502 25.0558 19.9377 25.1324 19.9706L27.2433 20.8456C27.3198 20.8675 27.4073 20.8347 27.4292 20.7581Z" fill="white"/>
<path d="M25.7559 21.2504C25.7997 21.1738 25.8871 21.141 25.9637 21.1738L26.8714 21.6333C26.9479 21.666 26.9808 21.7645 26.9371 21.852C26.8933 21.9285 26.8058 21.9615 26.7293 21.9285L25.8216 21.4692C25.745 21.4254 25.7121 21.3269 25.7559 21.2504Z" fill="#F3F3F3"/>
<path d="M25.7449 21.2394C25.7887 21.1519 25.8871 21.1191 25.9746 21.1628L26.8824 21.6222C26.9699 21.666 27.0027 21.7645 26.9589 21.8519C26.9152 21.9394 26.8167 21.9722 26.7293 21.9284L25.8215 21.4691C25.7339 21.4364 25.7012 21.3269 25.7449 21.2394ZM26.9262 21.8409C26.9589 21.7644 26.937 21.6769 26.8605 21.6441L25.9527 21.1847C25.887 21.152 25.7996 21.1847 25.7558 21.2503C25.7231 21.3269 25.7449 21.4144 25.8214 21.4472L26.7292 21.9066C26.8058 21.9394 26.8933 21.9176 26.9262 21.8409Z" fill="white"/>
<path d="M24.1485 21.4579C24.2033 21.3814 24.2908 21.3595 24.3673 21.4141L26.2705 22.6829C26.347 22.7266 26.358 22.8252 26.3143 22.9016C26.2595 22.9783 26.172 23.0001 26.0954 22.9454L24.1923 21.6766C24.1158 21.622 24.0939 21.5235 24.1485 21.4579Z" fill="#F3F3F3"/>
<path d="M24.1379 21.4471C24.1926 21.3705 24.3021 21.3486 24.3786 21.3924L26.2818 22.6611C26.3583 22.7158 26.3802 22.8142 26.3255 22.9017C26.2708 22.9784 26.1614 23.0002 26.085 22.9565L24.1817 21.6877C24.0942 21.633 24.0832 21.5236 24.1379 21.4471ZM26.2927 22.8908C26.3364 22.8253 26.3255 22.7267 26.26 22.683L24.3567 21.4142C24.2911 21.3705 24.2036 21.3924 24.1598 21.458C24.1161 21.5236 24.127 21.6221 24.1925 21.6658L26.0958 22.9346C26.1614 22.9784 26.2489 22.9565 26.2927 22.8909V22.8908Z" fill="white"/>
<path d="M24.5536 23.0443C24.6082 22.9786 24.7067 22.9568 24.7723 23.0115L25.5708 23.6349C25.6364 23.6895 25.6473 23.788 25.5927 23.8537C25.538 23.9192 25.4396 23.9412 25.3738 23.8865L24.5754 23.263C24.5099 23.2083 24.4988 23.1099 24.5536 23.0443Z" fill="#F3F3F3"/>
<path d="M24.542 23.0328C24.5966 22.9562 24.706 22.9453 24.7826 23.0001L25.581 23.6234C25.6575 23.6781 25.6685 23.7875 25.6137 23.864C25.5591 23.9407 25.4497 23.9515 25.3733 23.8969L24.5747 23.2734C24.4982 23.2188 24.4874 23.1093 24.542 23.0328ZM25.592 23.8532C25.6466 23.7875 25.6356 23.7 25.57 23.6453L24.7716 23.0218C24.706 22.9781 24.6185 22.9891 24.5639 23.0546C24.5091 23.1203 24.5201 23.2078 24.5857 23.2624L25.3841 23.8859C25.4497 23.9297 25.5372 23.9187 25.5918 23.8532H25.592Z" fill="white"/>
<path d="M22.9238 22.934C22.9895 22.8684 23.088 22.8684 23.1426 22.934L24.7613 24.5417C24.8271 24.6074 24.8161 24.7058 24.7613 24.7605C24.6959 24.8261 24.5973 24.8261 24.5426 24.7605L22.9238 23.1528C22.8692 23.098 22.8692 22.9886 22.9238 22.934Z" fill="#F3F3F3"/>
<path d="M22.9236 22.9233C22.9557 22.8917 22.999 22.874 23.044 22.874C23.089 22.874 23.1322 22.8917 23.1643 22.9233L24.7831 24.531C24.8147 24.5631 24.8324 24.6063 24.8324 24.6514C24.8324 24.6964 24.8147 24.7396 24.7831 24.7717C24.751 24.8033 24.7078 24.8209 24.6628 24.8209C24.6178 24.8209 24.5746 24.8033 24.5425 24.7717L22.9236 23.164C22.8471 23.0983 22.8471 22.989 22.9236 22.9233ZM24.7612 24.7498C24.816 24.6952 24.816 24.5967 24.7612 24.5421L23.1424 22.9343C23.0878 22.8796 22.9893 22.8796 22.9347 22.9343C22.8799 22.9889 22.8799 23.0873 22.9347 23.142L24.5534 24.7498C24.6081 24.8155 24.6957 24.8155 24.7612 24.7498Z" fill="white"/>
<path d="M23.0217 24.5641C23.0874 24.5095 23.1858 24.5095 23.2405 24.5751L23.9078 25.3407C23.9624 25.4064 23.9515 25.5049 23.8858 25.5595C23.8203 25.6141 23.7217 25.6141 23.6671 25.5485L22.9998 24.7829C22.9452 24.7283 22.9561 24.6298 23.0217 24.5641Z" fill="#F3F3F3"/>
<path d="M23.0108 24.5645C23.0874 24.499 23.1858 24.5099 23.2513 24.5755L23.9185 25.3411C23.9841 25.4068 23.9732 25.5161 23.8966 25.5818C23.8201 25.6474 23.7216 25.6364 23.656 25.5708L22.9888 24.8052C22.9341 24.7287 22.9341 24.6193 23.0107 24.5645H23.0108ZM23.8858 25.5599C23.9513 25.5052 23.9513 25.4176 23.9076 25.3521L23.2403 24.5864C23.1857 24.5318 23.0982 24.5208 23.0326 24.5755C22.967 24.6302 22.967 24.7177 23.0107 24.7832L23.6779 25.5489C23.7326 25.6145 23.8202 25.6145 23.8857 25.5599H23.8858Z" fill="white"/>
<path d="M21.4465 24.1485C21.523 24.0939 21.6215 24.1158 21.6653 24.1923L22.934 26.0844C22.9778 26.161 22.9559 26.2594 22.8903 26.3032C22.8137 26.3579 22.7153 26.336 22.6715 26.2594L21.4027 24.3672C21.3589 24.2908 21.3808 24.1922 21.4464 24.1485H21.4465Z" fill="#F3F3F3"/>
<path d="M21.4467 24.1378C21.5233 24.0831 21.6327 24.105 21.6873 24.1816L22.956 26.0737C23.0107 26.1501 22.9887 26.2595 22.9014 26.3142C22.8247 26.3689 22.7154 26.347 22.6607 26.2705L21.3921 24.3783C21.3374 24.291 21.3593 24.1925 21.4467 24.1379V24.1378ZM22.8904 26.2924C22.956 26.2486 22.9779 26.1611 22.9341 26.0955L21.6655 24.2033C21.6217 24.1379 21.5342 24.1268 21.4578 24.1706C21.3921 24.2143 21.3702 24.3018 21.414 24.3675L22.6826 26.2595C22.7264 26.3142 22.8248 26.3361 22.8903 26.2923L22.8904 26.2924Z" fill="white"/>
<path d="M21.2171 25.7674C21.2936 25.7237 21.3921 25.7456 21.4358 25.8221L21.939 26.7081C21.9827 26.7846 21.9498 26.8831 21.8733 26.9268C21.7967 26.9706 21.6983 26.9487 21.6546 26.8721L21.1515 25.9862C21.1187 25.9096 21.1406 25.8112 21.217 25.7675L21.2171 25.7674Z" fill="#F3F3F3"/>
<path d="M21.2174 25.7567C21.3049 25.7129 21.4033 25.7348 21.447 25.8114L21.9501 26.6974C21.9939 26.774 21.972 26.8834 21.8847 26.9271C21.797 26.9709 21.6986 26.949 21.6549 26.8724L21.1518 25.9864C21.108 25.9098 21.1299 25.8114 21.2173 25.7567H21.2174ZM21.8736 26.9162C21.9393 26.8724 21.972 26.7849 21.9283 26.7193L21.4252 25.8333C21.3814 25.7677 21.2939 25.7458 21.2283 25.7785C21.1626 25.8223 21.1299 25.9098 21.1736 25.9754L21.6768 26.8615C21.7095 26.9271 21.808 26.9599 21.8736 26.9161V26.9162Z" fill="white"/>
<path d="M19.7625 25.0458C19.85 25.0131 19.9375 25.0458 19.9704 25.1224L20.8563 27.2333C20.8891 27.3098 20.8454 27.4083 20.7688 27.441C20.6923 27.4739 20.5938 27.441 20.5611 27.3645L19.6751 25.2537C19.6423 25.177 19.686 25.0787 19.7625 25.0458Z" fill="#F3F3F3"/>
<path d="M19.7626 25.0339C19.8501 25.0012 19.9485 25.0339 19.9923 25.1214L20.8782 27.2324C20.8941 27.2744 20.8926 27.3211 20.8742 27.3621C20.8557 27.4031 20.8218 27.4351 20.7798 27.4511C20.6923 27.4839 20.5938 27.4511 20.5501 27.3636L19.6642 25.2527C19.6314 25.1761 19.6752 25.0777 19.7626 25.0339ZM20.7579 27.4293C20.8344 27.3964 20.8673 27.3089 20.8344 27.2433L19.9485 25.1324C19.9158 25.0558 19.8283 25.023 19.7517 25.0558C19.6752 25.0886 19.6422 25.1761 19.6752 25.2418L20.561 27.3527C20.6048 27.4293 20.6813 27.462 20.7579 27.4293Z" fill="white"/>
<path d="M19.2264 26.5988C19.314 26.566 19.4014 26.6097 19.4342 26.6972L19.7515 27.6597C19.7842 27.7363 19.7296 27.8347 19.6531 27.8566C19.5656 27.8894 19.4781 27.8457 19.4453 27.7582L19.1281 26.7957C19.0953 26.7191 19.139 26.6316 19.2265 26.5988H19.2264Z" fill="#F3F3F3"/>
<path d="M19.2156 26.5881C19.2577 26.5722 19.3043 26.5737 19.3453 26.5921C19.3863 26.6106 19.4183 26.6445 19.4343 26.6865L19.7516 27.649C19.7844 27.7365 19.7297 27.8349 19.6421 27.8678C19.6 27.8836 19.5534 27.8822 19.5124 27.8637C19.4714 27.8453 19.4394 27.8113 19.4234 27.7693L19.1062 26.8069C19.0843 26.7194 19.1281 26.6209 19.2156 26.5881ZM19.6422 27.8457C19.7188 27.824 19.7625 27.7365 19.7407 27.6599L19.4234 26.6975C19.4016 26.6209 19.3141 26.5881 19.2375 26.61C19.1608 26.6319 19.1171 26.7194 19.139 26.7959L19.4562 27.7584C19.4618 27.7769 19.4712 27.7941 19.4839 27.8088C19.4965 27.8235 19.5121 27.8353 19.5297 27.8436C19.5472 27.8518 19.5663 27.8563 19.5857 27.8567C19.6051 27.8571 19.6243 27.8534 19.6422 27.8459V27.8457Z" fill="white"/>
<path d="M17.9355 25.6035C18.0229 25.5816 18.1106 25.6362 18.1214 25.7237L18.5809 27.966C18.6028 28.0534 18.5371 28.1301 18.4495 28.1519C18.3621 28.1738 18.2745 28.1191 18.2637 28.0316L17.8041 25.7893C17.7933 25.7128 17.8479 25.6253 17.9354 25.6034L17.9355 25.6035Z" fill="#F3F3F3"/>
<path d="M17.936 25.5921C18.0343 25.5703 18.1218 25.6359 18.1437 25.7234L18.603 27.9659C18.6249 28.0533 18.5592 28.1517 18.4717 28.1627C18.3733 28.1846 18.2858 28.119 18.264 28.0315L17.8046 25.789C17.7828 25.7015 17.8375 25.614 17.9358 25.5922L17.936 25.5921ZM18.4498 28.1408C18.5265 28.1299 18.5811 28.0533 18.5702 27.9658L18.1108 25.7234C18.1 25.6469 18.0125 25.5922 17.9358 25.614C17.8593 25.625 17.8047 25.7015 17.8156 25.789L18.275 28.0315C18.2967 28.108 18.3733 28.1517 18.4499 28.1409L18.4498 28.1408Z" fill="white"/>
<path d="M17.1052 27.0248C17.1927 27.0139 17.2693 27.0686 17.2912 27.1561L17.4224 28.1623C17.4333 28.2498 17.3677 28.3263 17.2801 28.3373C17.1927 28.3482 17.1162 28.2936 17.0943 28.2061L16.9631 27.1998C16.9522 27.1123 17.0178 27.0358 17.1052 27.0248Z" fill="#F3F3F3"/>
<path d="M17.1046 27.0139C17.2031 27.003 17.2906 27.0686 17.3015 27.1561L17.4328 28.1624C17.4438 28.2499 17.3781 28.3374 17.2796 28.3483C17.1811 28.3593 17.0936 28.2937 17.0826 28.2061L16.9514 27.1998C16.9404 27.1123 17.0061 27.0248 17.1046 27.0139ZM17.2687 28.3264C17.3453 28.3156 17.411 28.2389 17.4 28.1624L17.2687 27.1561C17.2577 27.0796 17.1811 27.0248 17.1046 27.0358C17.028 27.0467 16.9622 27.1233 16.9732 27.1998L17.1046 28.2062C17.1155 28.2827 17.1921 28.3374 17.2687 28.3264Z" fill="white"/>
<path d="M15.9785 25.7998C16.066 25.7998 16.1425 25.8655 16.1425 25.953V28.2389C16.1425 28.3264 16.066 28.3921 15.9785 28.3921C15.891 28.3921 15.8145 28.3264 15.8145 28.2389V25.953C15.8254 25.8655 15.891 25.7998 15.9785 25.7998Z" fill="#F3F3F3"/>
<path d="M15.9777 25.7891C16.0762 25.7891 16.1527 25.8656 16.1527 25.9531V28.2391C16.1527 28.3266 16.0762 28.4031 15.9777 28.4031C15.8793 28.4031 15.8027 28.3266 15.8027 28.2391V25.9532C15.8027 25.8657 15.8902 25.7891 15.9777 25.7891ZM15.9777 28.3813C16.0543 28.3813 16.1308 28.3157 16.1308 28.2391V25.9532C16.1308 25.8766 16.0652 25.811 15.9777 25.811C15.9012 25.811 15.8246 25.8766 15.8246 25.9532V28.2391C15.8355 28.3157 15.9012 28.3813 15.9777 28.3813Z" fill="white"/>
<path d="M14.8844 27.0246C14.9719 27.0356 15.0375 27.1012 15.0375 27.1887L14.9609 28.2059C14.9501 28.2934 14.8734 28.359 14.7859 28.3482C14.6984 28.3371 14.6328 28.2715 14.6328 28.184L14.7094 27.1668C14.7203 27.0794 14.7969 27.0137 14.8844 27.0246Z" fill="#F3F3F3"/>
<path d="M14.8846 27.0139C14.983 27.0248 15.0486 27.1014 15.0486 27.1889L14.9721 28.2062C14.9611 28.2937 14.8846 28.3702 14.7861 28.3593C14.6878 28.3483 14.6221 28.2718 14.6221 28.1843L14.6986 27.167C14.7096 27.0686 14.7861 27.003 14.8846 27.0139ZM14.7861 28.3374C14.8627 28.3374 14.9393 28.2827 14.9393 28.2062L15.0159 27.1889C15.0159 27.1123 14.9611 27.0467 14.8736 27.0358C14.7971 27.0358 14.7205 27.0904 14.7205 27.1671L14.644 28.1843C14.644 28.2608 14.7096 28.3265 14.7862 28.3374H14.7861Z" fill="white"/>
<path d="M14.0645 25.603C14.152 25.6248 14.2066 25.7013 14.1957 25.7888L13.7472 28.0313C13.7253 28.1188 13.6488 28.1735 13.5613 28.1515C13.4738 28.1297 13.4192 28.0532 13.4301 27.9656L13.8785 25.7232C13.8895 25.6467 13.977 25.592 14.0645 25.603Z" fill="#F3F3F3"/>
<path d="M14.0639 25.5921C14.1623 25.614 14.217 25.7016 14.2061 25.789L13.7576 28.0314C13.7357 28.1189 13.6482 28.1845 13.5499 28.1626C13.4514 28.1407 13.3967 28.0532 13.4076 27.9657L13.8561 25.7234C13.878 25.6359 13.9655 25.5812 14.0638 25.5922L14.0639 25.5921ZM13.5499 28.1407C13.6264 28.1516 13.703 28.1079 13.7249 28.0314L14.1732 25.789C14.1842 25.7125 14.1405 25.6359 14.053 25.614C13.9764 25.6032 13.8999 25.6469 13.878 25.7235L13.4295 27.9657C13.4186 28.0532 13.4732 28.1189 13.5499 28.1407Z" fill="white"/>
<path d="M12.7522 26.5876C12.8398 26.6095 12.8944 26.697 12.8725 26.7845L12.5991 27.7688C12.5773 27.8562 12.4898 27.8999 12.4023 27.8781C12.3814 27.8731 12.3618 27.8641 12.3445 27.8515C12.3271 27.8388 12.3125 27.8229 12.3013 27.8047C12.2901 27.7864 12.2826 27.7661 12.2793 27.7449C12.276 27.7237 12.2769 27.7021 12.2819 27.6813L12.5554 26.697C12.5773 26.6095 12.6648 26.5658 12.7523 26.5876H12.7522Z" fill="#F3F3F3"/>
<path d="M12.7515 26.5772C12.8391 26.599 12.9047 26.6974 12.8718 26.7849L12.5984 27.7693C12.5766 27.8568 12.4781 27.9116 12.3906 27.8896C12.3031 27.8678 12.2375 27.7693 12.2703 27.6818L12.5437 26.6974C12.5656 26.6099 12.6531 26.5552 12.7515 26.5771V26.5772ZM12.3906 27.8568C12.4672 27.8787 12.5547 27.8349 12.5766 27.7584L12.8499 26.774C12.8718 26.6974 12.8281 26.6209 12.7406 26.599C12.6641 26.5771 12.5766 26.6209 12.5547 26.6974L12.2812 27.6818C12.2703 27.7584 12.314 27.8349 12.3906 27.8568Z" fill="white"/>
<path d="M12.2159 25.0457C12.3034 25.0785 12.3362 25.1769 12.3034 25.2535L11.4285 27.3644C11.3957 27.4411 11.2972 27.4848 11.2207 27.4411C11.1441 27.3973 11.1003 27.3098 11.1331 27.2332L12.0081 25.1223C12.0408 25.0457 12.1394 25.0019 12.2158 25.0457H12.2159Z" fill="#F3F3F3"/>
<path d="M12.2153 25.0347C12.2573 25.0507 12.2913 25.0828 12.3098 25.1238C12.3282 25.1648 12.3296 25.2114 12.3138 25.2535L11.4387 27.3643C11.4059 27.4518 11.3074 27.4847 11.209 27.4518C11.167 27.4358 11.133 27.4038 11.1146 27.3628C11.0961 27.3218 11.0947 27.2752 11.1105 27.2331L11.9855 25.1222C12.0294 25.0347 12.1278 24.991 12.2153 25.0347ZM11.2199 27.43C11.2965 27.4628 11.384 27.43 11.4168 27.3535L12.2919 25.2426C12.3246 25.166 12.2809 25.0894 12.2044 25.0566C12.1278 25.0239 12.0403 25.0566 12.0074 25.1332L11.1324 27.2441C11.1105 27.3097 11.1434 27.3972 11.2199 27.43Z" fill="white"/>
<path d="M10.7387 25.7452C10.8152 25.7889 10.848 25.8764 10.8152 25.9529L10.3558 26.8606C10.312 26.9371 10.2245 26.97 10.137 26.9262C10.0605 26.8825 10.0277 26.795 10.0605 26.7185L10.52 25.8109C10.5637 25.7343 10.6512 25.7014 10.7387 25.7452Z" fill="#F3F3F3"/>
<path d="M10.7396 25.7341C10.8271 25.7778 10.8599 25.8764 10.8162 25.9637L10.3568 26.8715C10.313 26.959 10.2145 26.9919 10.1271 26.9481C10.0396 26.9044 10.0068 26.8058 10.0506 26.7184L10.5099 25.8108C10.5537 25.7232 10.6521 25.6904 10.7396 25.7341ZM10.1381 26.9263C10.2146 26.959 10.3021 26.9371 10.3349 26.8606L10.7943 25.9529C10.827 25.8872 10.7943 25.7997 10.7287 25.756C10.6521 25.7233 10.5646 25.7451 10.5318 25.8216L10.0724 26.7293C10.0396 26.795 10.0724 26.8825 10.1381 26.9262V26.9263Z" fill="white"/>
<path d="M10.5198 24.1271C10.5963 24.1818 10.6182 24.2802 10.5636 24.3459L9.29479 26.2383C9.2511 26.3147 9.15253 26.3256 9.0761 26.282C8.99955 26.2272 8.97765 26.1288 9.03229 26.0631L10.3011 24.1707C10.3448 24.0943 10.4432 24.0724 10.5198 24.127V24.1271Z" fill="#F3F3F3"/>
<path d="M10.52 24.1153C10.5965 24.1701 10.6184 24.2795 10.5746 24.356L9.3059 26.2483C9.25125 26.3247 9.15279 26.3466 9.06529 26.292C8.98874 26.2372 8.96684 26.1279 9.01053 26.0513L10.2794 24.1591C10.334 24.0826 10.4434 24.0607 10.52 24.1153ZM9.07624 26.2701C9.14173 26.3138 9.2403 26.3028 9.28399 26.2373L10.5528 24.3451C10.5965 24.2795 10.5747 24.192 10.509 24.1482C10.4434 24.1045 10.345 24.1154 10.3013 24.1809L9.03244 26.0622C8.98874 26.1279 9.01053 26.2263 9.07624 26.27V26.2701Z" fill="white"/>
<path d="M8.92307 24.5311C8.98878 24.5858 9.01057 24.6842 8.95593 24.7498L8.32154 25.5482C8.26689 25.6138 8.16844 25.6248 8.10285 25.5701C8.03725 25.5155 8.01535 25.417 8.0701 25.3513L8.70438 24.5529C8.75903 24.4874 8.85748 24.4764 8.92307 24.5311Z" fill="#F3F3F3"/>
<path d="M8.93452 24.5206C9.01107 24.5753 9.02203 24.6847 8.96727 24.7612L8.33297 25.5597C8.27832 25.6363 8.16892 25.6472 8.09237 25.5816C8.01582 25.5269 8.00486 25.4176 8.05962 25.3409L8.69392 24.5425C8.74857 24.4659 8.85797 24.455 8.93452 24.5206ZM8.11427 25.5597C8.17975 25.6144 8.26737 25.6035 8.32201 25.5378L8.95643 24.7393C9.00023 24.6739 8.98917 24.5862 8.92368 24.5316C8.85797 24.4768 8.77047 24.4878 8.71583 24.5535L8.08141 25.3519C8.03772 25.4176 8.04867 25.5159 8.11416 25.5597H8.11427Z" fill="white"/>
<path d="M9.03301 22.8911C9.09861 22.9566 9.09861 23.0551 9.03301 23.1098L7.41437 24.7175C7.34866 24.7832 7.25033 24.7723 7.19557 24.7175C7.14093 24.6629 7.12998 24.5535 7.19557 24.4988L8.80326 22.8911C8.86897 22.8254 8.96742 22.8254 9.03301 22.8911Z" fill="#F3F3F3"/>
<path d="M9.04327 22.8793C9.07478 22.9114 9.09244 22.9546 9.09244 22.9995C9.09244 23.0445 9.07478 23.0877 9.04327 23.1198L7.42452 24.7278C7.39243 24.7593 7.34925 24.777 7.30428 24.777C7.25931 24.777 7.21613 24.7593 7.18404 24.7278C7.15246 24.6957 7.13477 24.6525 7.13477 24.6074C7.13477 24.5624 7.15246 24.5192 7.18404 24.4871L8.80268 22.8793C8.83478 22.8478 8.87798 22.8301 8.92298 22.8301C8.96798 22.8301 9.01118 22.8478 9.04327 22.8793ZM7.19488 24.7167C7.24952 24.7714 7.34797 24.7714 7.40262 24.7167L9.02137 23.1088C9.07613 23.0542 9.07613 22.9557 9.02137 22.9011C8.96673 22.8463 8.86828 22.8463 8.81364 22.9011L7.19488 24.5089C7.14024 24.5635 7.14024 24.6511 7.19488 24.7166V24.7167Z" fill="white"/>
<path d="M7.39172 22.9779C7.44636 23.0434 7.44636 23.1419 7.38077 23.1966L6.60422 23.8529C6.53862 23.9076 6.44017 23.8966 6.38541 23.831C6.33077 23.7653 6.33077 23.667 6.39636 23.6122L7.17291 22.956C7.23862 22.9012 7.33696 22.9122 7.39172 22.9779Z" fill="#F3F3F3"/>
<path d="M7.40332 22.9672C7.46891 23.0438 7.45796 23.1531 7.39236 23.2079L6.61581 23.864C6.55021 23.9297 6.44081 23.9188 6.37521 23.8422C6.3095 23.7656 6.32045 23.6563 6.38605 23.6015L7.16272 22.9454C7.2282 22.8798 7.33772 22.8908 7.4032 22.9673L7.40332 22.9672ZM6.397 23.8313C6.45176 23.8969 6.53926 23.8969 6.60475 23.8532L7.38141 23.1969C7.43606 23.1423 7.44701 23.0547 7.39236 22.9892C7.33761 22.9235 7.25011 22.9235 7.18462 22.9673L6.40796 23.6235C6.34236 23.6781 6.34236 23.7657 6.397 23.8312V23.8313Z" fill="white"/>
<path d="M7.82979 21.4033C7.88444 21.48 7.86254 21.5783 7.78599 21.6221L5.8829 22.8909C5.80636 22.9346 5.70791 22.9127 5.66421 22.8471C5.60945 22.7705 5.63136 22.6721 5.70791 22.6283L7.6111 21.3597C7.67681 21.316 7.77515 21.3378 7.82991 21.4033H7.82979Z" fill="#F3F3F3"/>
<path d="M7.84089 21.4028C7.89554 21.4794 7.87364 21.5887 7.79709 21.6435L5.89403 22.9122C5.81748 22.9669 5.70808 22.9449 5.65344 22.8575C5.59868 22.781 5.6207 22.6716 5.69713 22.6169L7.6003 21.3481C7.67685 21.2935 7.78614 21.3154 7.84078 21.4028H7.84089ZM5.67534 22.8356C5.71904 22.9012 5.80653 22.9231 5.87213 22.8794L7.77519 21.6106C7.84089 21.5669 7.86268 21.4794 7.80804 21.4029C7.76435 21.3372 7.67685 21.3154 7.61114 21.3591L5.70808 22.6279C5.64249 22.6825 5.63154 22.77 5.67534 22.8356Z" fill="white"/>
<path d="M6.20019 21.1731C6.244 21.2496 6.2221 21.3481 6.14555 21.3919L5.25958 21.8949C5.18303 21.9386 5.08458 21.9059 5.04089 21.8293C4.99708 21.7528 5.01898 21.6544 5.09553 21.6106L5.9815 21.1075C6.05804 21.0637 6.1565 21.0966 6.2003 21.1731H6.20019Z" fill="#F3F3F3"/>
<path d="M6.21123 21.1624C6.25492 21.2499 6.23302 21.3483 6.15647 21.3921L5.27053 21.8951C5.19398 21.9388 5.08458 21.9061 5.04089 21.8296C4.99708 21.7421 5.01898 21.6436 5.09553 21.5998L5.98147 21.0968C6.05802 21.053 6.16742 21.0858 6.21111 21.1624H6.21123ZM5.05172 21.8186C5.09553 21.8951 5.18303 21.917 5.24862 21.8732L6.13457 21.3702C6.20016 21.3264 6.22206 21.2389 6.18932 21.1733C6.14552 21.0968 6.05802 21.0749 5.99242 21.1187L5.10648 21.6217C5.04089 21.6545 5.01898 21.7421 5.05184 21.8186H5.05172Z" fill="white"/>
<path d="M6.93236 19.7191C6.96511 19.8066 6.93236 19.8941 6.84486 19.9268L4.73391 20.8018C4.65736 20.8347 4.55891 20.791 4.52617 20.7143C4.49332 20.6268 4.52617 20.5393 4.61367 20.5066L6.72462 19.6316C6.80117 19.5988 6.89962 19.6316 6.93236 19.7191Z" fill="#F3F3F3"/>
<path d="M6.94332 19.708C6.97606 19.7955 6.94332 19.894 6.85582 19.9376L4.74486 20.8126C4.7028 20.8285 4.65617 20.827 4.61518 20.8086C4.5742 20.7901 4.54219 20.7562 4.52617 20.7142C4.49332 20.6267 4.52617 20.5282 4.61367 20.4845L6.72462 19.6096C6.76668 19.5937 6.81331 19.5952 6.8543 19.6136C6.89529 19.6321 6.9273 19.666 6.94332 19.708ZM4.54796 20.7032C4.58082 20.7799 4.66832 20.8128 4.73391 20.7907L6.84486 19.9157C6.92141 19.883 6.95427 19.7955 6.92141 19.719C6.88867 19.6424 6.80117 19.6096 6.73546 19.6315L4.62451 20.5065C4.54796 20.5392 4.51522 20.6267 4.54796 20.7034V20.7032Z" fill="white"/>
<path d="M5.3908 19.1718C5.42354 19.2593 5.37985 19.3468 5.29234 19.3796L4.32984 19.6968C4.25329 19.7295 4.15484 19.6749 4.13293 19.5984C4.10019 19.5109 4.14389 19.4234 4.23139 19.3906L5.19389 19.0734C5.27044 19.0406 5.35794 19.0843 5.3908 19.1718Z" fill="#F3F3F3"/>
<path d="M5.40093 19.1609C5.43379 19.2484 5.39009 19.3468 5.29164 19.3797L4.32915 19.6969C4.24166 19.7296 4.1432 19.675 4.11035 19.5875C4.07761 19.4999 4.1213 19.4015 4.21987 19.3687L5.18224 19.0514C5.26974 19.0296 5.36819 19.0733 5.40104 19.161L5.40093 19.1609ZM4.13237 19.5766C4.15427 19.6532 4.24177 19.697 4.31832 19.6751L5.2808 19.3578C5.35735 19.336 5.39021 19.2485 5.3683 19.1719C5.3464 19.0954 5.2589 19.0516 5.18235 19.0735L4.21987 19.3908C4.14332 19.4235 4.11046 19.5001 4.13237 19.5766Z" fill="white"/>
<path d="M6.37554 17.87C6.39733 17.9575 6.34268 18.045 6.25518 18.0559L4.01294 18.4934C3.92544 18.5153 3.84889 18.4496 3.8271 18.3621C3.8052 18.2746 3.85984 18.1871 3.94734 18.1762L6.18959 17.7387C6.27709 17.7278 6.36459 17.7825 6.37543 17.87H6.37554Z" fill="#F3F3F3"/>
<path d="M6.39676 17.87C6.41866 17.9685 6.35307 18.056 6.26557 18.0777L4.02331 18.5152C3.93581 18.5371 3.84831 18.4715 3.82652 18.3731C3.80461 18.2746 3.87021 18.1871 3.95771 18.1654L6.19997 17.7279C6.28736 17.706 6.37497 17.7716 6.39676 17.87ZM3.84831 18.3623C3.85926 18.4387 3.93581 18.4934 4.01236 18.4825L6.25461 18.045C6.33116 18.0341 6.38581 17.9466 6.36402 17.87C6.35307 17.7935 6.27652 17.7387 6.19986 17.7496L3.95771 18.1871C3.88116 18.209 3.82652 18.2856 3.84831 18.3621V18.3623Z" fill="white"/>
<path d="M4.97502 17.0283C4.98586 17.1157 4.93122 17.1923 4.84372 17.2033L3.83752 17.3236C3.74991 17.3345 3.67336 17.2689 3.66252 17.1813C3.65157 17.0939 3.70622 17.0173 3.79372 17.0062L4.80002 16.886C4.87657 16.875 4.96407 16.9406 4.97502 17.0283Z" fill="#F3F3F3"/>
<path d="M4.98599 17.0284C4.99683 17.1267 4.93123 17.2142 4.84373 17.2252L3.83754 17.3455C3.74993 17.3565 3.66254 17.2909 3.65159 17.1924C3.64063 17.094 3.70623 17.0065 3.79373 16.9956L4.80004 16.8752C4.88743 16.8643 4.97504 16.93 4.98588 17.0283L4.98599 17.0284ZM3.66243 17.1815C3.67338 17.258 3.75004 17.3237 3.82659 17.3127L4.83278 17.1924C4.90933 17.1815 4.96409 17.1049 4.95314 17.0284C4.94218 16.9518 4.86564 16.8862 4.78909 16.8971L3.78278 17.0175C3.70623 17.0284 3.65159 17.1049 3.66243 17.1815Z" fill="white"/>
<path d="M6.19944 15.9668C6.19944 16.0544 6.13396 16.1309 6.04634 16.1309H3.76052C3.67302 16.1309 3.60742 16.0544 3.60742 15.9669C3.60742 15.8794 3.67302 15.8027 3.76052 15.8027H6.04646C6.13396 15.8027 6.19966 15.8794 6.19966 15.9669L6.19944 15.9668Z" fill="#F3F3F3"/>
<path d="M6.21073 15.967C6.21073 16.0655 6.13407 16.142 6.04657 16.142H3.76073C3.67323 16.142 3.59668 16.0654 3.59668 15.967C3.59668 15.8686 3.67323 15.792 3.76073 15.792H6.04668C6.13418 15.792 6.21073 15.8686 6.21073 15.967ZM3.61847 15.9561C3.61847 16.0327 3.68407 16.1092 3.76073 16.1092H6.04657C6.12312 16.1092 6.18882 16.0436 6.18882 15.9561C6.18882 15.8796 6.12312 15.8029 6.04657 15.8029H3.76073C3.68418 15.8139 3.61858 15.8796 3.61858 15.9561H3.61847Z" fill="white"/>
<path d="M4.98589 14.8629C4.97482 14.9504 4.90922 15.016 4.82172 15.016L3.80445 14.9394C3.71706 14.9285 3.65147 14.8519 3.66231 14.7644C3.67326 14.6769 3.73897 14.6113 3.82647 14.6113L4.84363 14.6879C4.92018 14.6988 4.98589 14.7754 4.98589 14.8629Z" fill="#E2E2E2"/>
<path d="M4.99667 14.8621C4.98572 14.9606 4.90917 15.0262 4.82167 15.0262L3.80442 14.9496C3.71703 14.9387 3.64049 14.8621 3.65144 14.7637C3.66228 14.6653 3.73894 14.5996 3.82644 14.5996L4.84358 14.6762C4.93108 14.6871 4.99667 14.7746 4.99667 14.8621ZM3.66228 14.7637C3.65144 14.8402 3.71703 14.9169 3.79358 14.9169L4.81083 14.9934C4.88727 14.9934 4.95298 14.9387 4.96393 14.8512C4.97488 14.7746 4.90917 14.6981 4.83263 14.6981L3.81537 14.6215C3.73894 14.6215 3.67323 14.6871 3.66228 14.7638V14.7637Z" fill="white"/>
<path d="M6.39703 14.0636C6.37513 14.1511 6.29858 14.2059 6.21108 14.1949L3.96893 13.7355C3.88144 13.7136 3.82668 13.6371 3.84858 13.5496C3.87048 13.4621 3.94703 13.4073 4.03453 13.4184L6.27679 13.8668C6.35334 13.8886 6.40798 13.9761 6.39703 14.0636Z" fill="#F3F3F3"/>
<path d="M6.40749 14.0638C6.38558 14.1623 6.29808 14.217 6.21058 14.2061L3.96845 13.7576C3.88095 13.7357 3.81536 13.6482 3.83726 13.5499C3.85905 13.4513 3.94655 13.3967 4.03405 13.4076L6.27629 13.8561C6.36379 13.878 6.41844 13.9655 6.40749 14.0638ZM3.85905 13.5498C3.8481 13.6263 3.89179 13.7029 3.96845 13.7248L6.2107 14.1732C6.28724 14.1842 6.36379 14.1405 6.38569 14.0529C6.39653 13.9763 6.35284 13.8998 6.27618 13.8779L4.03416 13.4295C3.94666 13.4186 3.88106 13.4732 3.85916 13.5498H3.85905Z" fill="white"/>
<path d="M5.41248 12.7513C5.40746 12.7721 5.39838 12.7917 5.38576 12.8091C5.37315 12.8264 5.35724 12.841 5.33895 12.8522C5.32066 12.8634 5.30035 12.8708 5.27918 12.8741C5.25801 12.8775 5.2364 12.8766 5.21557 12.8715L4.23116 12.5981C4.14366 12.5762 4.09996 12.4887 4.12175 12.4012C4.12677 12.3804 4.13585 12.3607 4.14847 12.3434C4.16109 12.3261 4.17699 12.3114 4.19528 12.3003C4.21357 12.2891 4.23388 12.2816 4.25505 12.2783C4.27622 12.275 4.29783 12.2759 4.31866 12.281L5.30307 12.5544C5.39057 12.5762 5.43427 12.6637 5.41248 12.7512V12.7513Z" fill="#F3F3F3"/>
<path d="M5.4238 12.7516C5.40201 12.839 5.30356 12.9047 5.21605 12.8718L4.23163 12.5984C4.14413 12.5765 4.08937 12.4781 4.11128 12.3907C4.13318 12.3031 4.23163 12.2375 4.31913 12.2703L5.30356 12.5438C5.39106 12.5657 5.44582 12.6532 5.4238 12.7515V12.7516ZM4.14413 12.3905C4.12223 12.4671 4.16603 12.5546 4.24258 12.5764L5.22701 12.8498C5.30356 12.8717 5.3801 12.8279 5.40201 12.7404C5.4238 12.6639 5.3801 12.5764 5.30356 12.5546L4.31913 12.2812C4.24258 12.2702 4.16603 12.3139 4.14413 12.3906V12.3905Z" fill="white"/>
<path d="M6.95441 12.2262C6.92167 12.3136 6.8231 12.3464 6.74667 12.3136L4.6356 11.4386C4.55905 11.4059 4.51536 11.3074 4.5481 11.2309C4.58096 11.1434 4.67941 11.1105 4.75596 11.1434L6.86691 12.0183C6.95441 12.0511 6.98726 12.1495 6.95441 12.2261V12.2262Z" fill="#F3F3F3"/>
<path d="M6.96586 12.2377C6.94984 12.2797 6.91782 12.3136 6.8768 12.3321C6.83578 12.3505 6.78913 12.352 6.74705 12.3361L4.63608 11.4611C4.54858 11.4284 4.51584 11.3299 4.54858 11.2315C4.5646 11.1894 4.59663 11.1555 4.63764 11.137C4.67866 11.1186 4.72532 11.1171 4.76739 11.133L6.87836 12.008C6.96586 12.0517 6.9986 12.1503 6.96586 12.2377ZM4.57049 11.2424C4.53775 11.319 4.57049 11.4065 4.64704 11.4392L6.758 12.3142C6.83455 12.3471 6.9111 12.3032 6.94395 12.2267C6.9767 12.1502 6.94395 12.0627 6.86741 12.0299L4.75644 11.1549C4.67989 11.133 4.59239 11.1659 4.57049 11.2424Z" fill="white"/>
<path d="M6.24379 10.7504C6.20009 10.8269 6.11259 10.8598 6.03604 10.8269L5.12819 10.3676C5.05164 10.3348 5.01879 10.2363 5.06259 10.1488C5.10629 10.0723 5.19379 10.0394 5.27033 10.0723L6.17808 10.5317C6.25474 10.5754 6.28759 10.674 6.24379 10.7504Z" fill="#F3F3F3"/>
<path d="M6.25485 10.7611C6.21104 10.8486 6.11259 10.8815 6.02509 10.8377L5.11735 10.3783C5.02985 10.3346 4.997 10.2361 5.04081 10.1486C5.0845 10.0611 5.18306 10.0282 5.27045 10.0721L6.17819 10.5315C6.2658 10.5642 6.29854 10.6737 6.25485 10.7611ZM5.07355 10.1596C5.04081 10.2361 5.06271 10.3236 5.13926 10.3565L6.04699 10.8159C6.1127 10.8486 6.2002 10.8159 6.2439 10.7502C6.27664 10.6736 6.25485 10.5861 6.1783 10.5533L5.25939 10.0941C5.19379 10.0613 5.10629 10.0831 5.07344 10.1597L5.07355 10.1596Z" fill="white"/>
<path d="M7.85114 10.542C7.79649 10.6187 7.70899 10.6406 7.63244 10.5858L5.74014 9.32811C5.6637 9.2843 5.65275 9.18585 5.69645 9.1093C5.74025 9.03275 5.83871 9.01085 5.91526 9.06549L7.8184 10.3343C7.88399 10.3781 7.9059 10.4766 7.85114 10.542Z" fill="#F3F3F3"/>
<path d="M7.86214 10.5531C7.8075 10.6298 7.6981 10.6516 7.62166 10.6079L5.72942 9.33905C5.65287 9.28441 5.63097 9.18596 5.68561 9.09857C5.74037 9.02191 5.84977 9 5.92632 9.04381L7.81845 10.3125C7.90595 10.3673 7.9169 10.4766 7.86214 10.5531ZM5.70751 9.10941C5.66382 9.175 5.67477 9.27346 5.74026 9.31715L7.64345 10.5861C7.70905 10.6299 7.79655 10.608 7.84035 10.5424C7.88405 10.4767 7.8731 10.3782 7.80761 10.3345L5.9043 9.06571C5.83871 9.02191 5.75121 9.04381 5.7074 9.10941H5.70751Z" fill="white"/>
<path d="M7.44709 8.95617C7.39244 9.02177 7.29399 9.04367 7.22839 8.98891L6.42993 8.36559C6.36433 8.31083 6.35338 8.21239 6.40802 8.14679C6.46267 8.08119 6.56112 8.05929 6.62683 8.11405L7.42518 8.73737C7.49089 8.79213 7.50185 8.89046 7.44709 8.95617Z" fill="#F3F3F3"/>
<path d="M7.45756 8.96737C7.40292 9.04403 7.29352 9.05498 7.21697 9.00022L6.41854 8.37689C6.34199 8.32225 6.33104 8.21285 6.38579 8.13641C6.44044 8.05975 6.54984 8.0488 6.62627 8.10356L7.42471 8.72689C7.50137 8.78164 7.51232 8.89093 7.45756 8.96759V8.96737ZM6.40758 8.14714C6.35294 8.21273 6.36389 8.30023 6.42949 8.35488L7.22792 8.97843C7.29352 9.02212 7.38101 9.01117 7.43566 8.94558C7.49042 8.87998 7.47946 8.79248 7.41387 8.73784L6.61543 8.11428C6.54984 8.07059 6.46223 8.08154 6.4077 8.14714H6.40758Z" fill="white"/>
<path d="M9.07611 9.06611C9.01063 9.13182 8.91206 9.13182 8.85741 9.06611L7.22784 7.45835C7.16224 7.39275 7.17308 7.2943 7.22784 7.23954C7.29344 7.17406 7.39189 7.17406 7.44654 7.23954L9.06539 8.84741C9.13099 8.90206 9.13099 9.01146 9.07634 9.06622L9.07611 9.06611Z" fill="#F3F3F3"/>
<path d="M9.07664 9.0766C9.04455 9.10811 9.00137 9.12576 8.95639 9.12576C8.91142 9.12576 8.86824 9.10811 8.83615 9.0766L7.21725 7.46864C7.18567 7.43654 7.16797 7.39332 7.16797 7.34829C7.16797 7.30326 7.18567 7.26003 7.21725 7.22793C7.24934 7.19639 7.29254 7.17871 7.33754 7.17871C7.38255 7.17871 7.42575 7.19639 7.45784 7.22793L9.07664 8.83578C9.15318 8.90137 9.15318 9.01077 9.07664 9.07637V9.0766ZM7.23938 7.24984C7.18462 7.30459 7.18462 7.40304 7.23938 7.45758L8.85806 9.06542C8.91281 9.12018 9.01115 9.12018 9.0658 9.06542C9.12055 9.01077 9.12055 8.91232 9.0658 8.85768L7.44712 7.239C7.39247 7.18435 7.30486 7.18435 7.23938 7.24995V7.24984Z" fill="white"/>
<path d="M8.97859 7.43641C8.91299 7.49117 8.81454 7.49117 8.75978 7.42546L8.09254 6.65987C8.03801 6.59427 8.04884 6.49582 8.11455 6.44117C8.18004 6.38641 8.2786 6.38641 8.33324 6.45201L9.00049 7.21772C9.05513 7.27237 9.04418 7.37082 8.97859 7.43641Z" fill="#F3F3F3"/>
<path d="M8.989 7.4363C8.91245 7.5019 8.814 7.49106 8.74829 7.42535L8.08115 6.65975C8.01555 6.59415 8.0265 6.48474 8.10305 6.41915C8.1796 6.35344 8.27805 6.36439 8.34365 6.4301L9.01091 7.19559C9.06555 7.27225 9.06555 7.38165 8.989 7.4363ZM8.114 6.44105C8.04829 6.4957 8.04829 6.5832 8.0921 6.64879L8.75936 7.4144C8.814 7.46915 8.9015 7.48011 8.9671 7.42535C9.0327 7.3707 9.0327 7.28309 8.989 7.2176L8.32175 6.45189C8.2671 6.38641 8.17949 6.38641 8.114 6.44105Z" fill="white"/>
<path d="M10.5535 7.85207C10.4769 7.90672 10.3785 7.88481 10.3347 7.80827L9.05502 5.91602C9.01122 5.83947 9.03312 5.74102 9.09871 5.69733C9.17526 5.64269 9.27371 5.66459 9.31752 5.74114L10.5862 7.63327C10.641 7.70982 10.6191 7.80827 10.5535 7.85196V7.85207Z" fill="#F3F3F3"/>
<path d="M10.5528 7.86215C10.4762 7.91691 10.3668 7.89489 10.3121 7.81845L9.04345 5.92618C8.98881 5.84963 9.01071 5.74034 9.09809 5.6857C9.17464 5.63094 9.28404 5.65284 9.33879 5.72939L10.6074 7.62155C10.6621 7.70905 10.6402 7.8075 10.5528 7.86215ZM9.10893 5.70749C9.04334 5.75118 9.02144 5.83868 9.06524 5.90439L10.3339 7.79655C10.3777 7.86215 10.4652 7.8731 10.5416 7.82929C10.6073 7.7856 10.6292 7.6981 10.5854 7.6325L9.31689 5.75118C9.27309 5.6857 9.17464 5.66368 9.10916 5.70749H9.10893Z" fill="white"/>
<path d="M10.7824 6.23246C10.7059 6.27615 10.6075 6.25436 10.5638 6.17782L10.0606 5.29186C10.0169 5.21532 10.0496 5.11686 10.1263 5.07306C10.2028 5.02936 10.3013 5.05115 10.345 5.12782L10.848 6.01365C10.8809 6.0902 10.859 6.18865 10.7826 6.23246H10.7824Z" fill="#F3F3F3"/>
<path d="M10.783 6.24342C10.6955 6.28711 10.597 6.26532 10.5534 6.18866L10.0501 5.30282C10.0065 5.22616 10.0284 5.11686 10.1159 5.07306C10.2034 5.02936 10.3018 5.05115 10.3455 5.12782L10.8486 6.01366C10.8924 6.09021 10.8705 6.18866 10.7831 6.24342H10.783ZM10.1268 5.08401C10.0611 5.1277 10.0284 5.2152 10.0721 5.28091L10.5753 6.16687C10.6189 6.23236 10.7064 6.25437 10.772 6.22152C10.8378 6.17782 10.8705 6.09021 10.8268 6.02461L10.3236 5.13866C10.2909 5.07317 10.1924 5.0402 10.1268 5.08401Z" fill="white"/>
<path d="M12.2374 6.95498C12.1501 6.98772 12.0625 6.95498 12.0297 6.87843L11.1438 4.76737C11.1111 4.69082 11.1548 4.59237 11.2313 4.55951C11.3188 4.52677 11.4063 4.55951 11.439 4.63606L12.3249 6.74702C12.3578 6.82356 12.3141 6.92202 12.2374 6.95476V6.95498Z" fill="#F3F3F3"/>
<path d="M12.2379 6.96583C12.1505 6.99857 12.0521 6.96583 12.0082 6.87821L11.1223 4.76739C11.1064 4.72531 11.1078 4.67866 11.1263 4.63764C11.1447 4.59663 11.1787 4.5646 11.2207 4.54858C11.3082 4.51584 11.4067 4.54858 11.4505 4.63608L12.3363 6.74702C12.3692 6.82357 12.3255 6.92202 12.238 6.96583H12.2379ZM11.2426 4.57049C11.1661 4.60323 11.1332 4.69084 11.1661 4.75644L12.0519 6.86726C12.0847 6.94381 12.1722 6.97655 12.2487 6.94381C12.3253 6.91107 12.3583 6.82346 12.3253 6.75786L11.4394 4.64692C11.3956 4.57037 11.3191 4.53752 11.2425 4.57037L11.2426 4.57049Z" fill="white"/>
<path d="M12.7729 5.40211C12.6854 5.43485 12.5979 5.39104 12.5652 5.30366L12.248 4.34106C12.2152 4.26451 12.2699 4.16606 12.3464 4.14427C12.4229 4.12236 12.5214 4.15522 12.5541 4.24272L12.8714 5.20521C12.9041 5.28175 12.8604 5.36925 12.7729 5.40199V5.40211Z" fill="#F3F3F3"/>
<path d="M12.7848 5.41263C12.7428 5.42849 12.6961 5.42703 12.6551 5.40858C12.6142 5.39012 12.5821 5.35618 12.5661 5.31418L12.2489 4.35168C12.2161 4.26418 12.2708 4.16584 12.3584 4.13299C12.4004 4.11714 12.4471 4.11859 12.4881 4.13705C12.5291 4.1555 12.5611 4.18944 12.5771 4.23144L12.8942 5.19394C12.9161 5.28144 12.8723 5.37989 12.7848 5.41263ZM12.3583 4.15489C12.2817 4.17668 12.2379 4.26418 12.2598 4.34073L12.5771 5.30334C12.5989 5.37989 12.6864 5.41263 12.763 5.39073C12.8396 5.36894 12.8833 5.28144 12.8614 5.20489L12.5442 4.24228C12.5386 4.22371 12.5292 4.20653 12.5166 4.19184C12.5039 4.17716 12.4883 4.1653 12.4708 4.15705C12.4532 4.14879 12.4341 4.14433 12.4148 4.14394C12.3954 4.14354 12.3761 4.14724 12.3583 4.15478V4.15489Z" fill="white"/>
<path d="M14.0636 6.39702C13.9761 6.41893 13.8886 6.36428 13.8777 6.27667L13.4183 4.03454C13.3964 3.94704 13.4621 3.87049 13.5495 3.84859C13.6371 3.82668 13.7245 3.88133 13.7354 3.96894L14.1949 6.21118C14.2058 6.28762 14.1511 6.37512 14.0636 6.39702Z" fill="#F3F3F3"/>
<path d="M14.0641 6.40761C13.9656 6.42951 13.8781 6.3638 13.8562 6.2763L13.3968 4.03416C13.3749 3.94666 13.4406 3.8482 13.5281 3.83725C13.6266 3.81535 13.7141 3.88106 13.7359 3.96856L14.1954 6.21082C14.2172 6.2982 14.1625 6.38582 14.0641 6.40761ZM13.55 3.85916C13.4734 3.87011 13.4187 3.94666 13.4297 4.03416L13.8891 6.27641C13.9 6.35285 13.9874 6.40761 14.0641 6.3857C14.1406 6.37475 14.1953 6.2982 14.1843 6.2107L13.7249 3.96845C13.7031 3.89201 13.6266 3.8482 13.5499 3.85916H13.55Z" fill="white"/>
<path d="M14.8955 4.97504C14.808 4.98599 14.7314 4.93134 14.7095 4.84384L14.5783 3.83752C14.5674 3.75002 14.633 3.67347 14.7206 3.66252C14.808 3.65157 14.8845 3.70633 14.9064 3.79383L15.0376 4.80003C15.0486 4.88754 14.983 4.96409 14.8955 4.97504Z" fill="#F3F3F3"/>
<path d="M14.8957 4.98597C14.7972 4.99693 14.7097 4.93133 14.6988 4.84372L14.5676 3.83752C14.5566 3.75002 14.6222 3.66252 14.7207 3.65156C14.8191 3.64072 14.9066 3.70632 14.9176 3.79382L15.0488 4.80002C15.0597 4.88752 14.9941 4.97502 14.8957 4.98597ZM14.7316 3.67347C14.6551 3.68442 14.5894 3.76097 14.6003 3.83752L14.7316 4.84383C14.7426 4.92038 14.8191 4.97502 14.8957 4.96407C14.9722 4.95323 15.0379 4.87657 15.027 4.80002L14.8957 3.79382C14.8847 3.71727 14.8082 3.66252 14.7316 3.67347Z" fill="white"/>
<path d="M16.077 28.9391C23.229 28.9391 29.027 23.1411 29.027 15.9891C29.027 8.83697 23.229 3.03906 16.077 3.03906C8.92487 3.03906 3.12695 8.83697 3.12695 15.9891C3.12695 23.1411 8.92487 28.9391 16.077 28.9391Z" fill="url(#paint2_linear)" fill-opacity="0.2"/>
<path d="M25.0454 7.77539L14.6001 14.4692H14.5891V14.48L14.5782 14.491L8.05957 25.2426L17.6408 17.5317L17.6517 17.5209V17.5099L25.0455 7.7755L25.0454 7.77539Z" fill="black" fill-opacity="0.05"/>
<path d="M24.8484 7.15137L14.5234 14.4904L17.5859 17.531L24.8484 7.15137Z" fill="#CD151E"/>
<path d="M14.5342 14.4686L16.0764 15.9888L24.8482 7.15137L14.5342 14.4686Z" fill="#FA5153"/>
<path d="M14.534 14.4689L17.5965 17.5093L7.27148 24.8485L14.534 14.4688V14.4689Z" fill="#ACACAC"/>
<path d="M7.27148 24.8485L16.0761 15.9891L14.5339 14.4688L7.27148 24.8485Z" fill="#EEEEEE"/>
<defs>
<linearGradient id="paint0_linear" x1="16" y1="30" x2="16" y2="2" gradientUnits="userSpaceOnUse">
<stop offset="0.25" stop-color="#DBDBDA"/>
<stop offset="1" stop-color="white"/>
</linearGradient>
<radialGradient id="paint1_radial" cx="0" cy="0" r="1" gradientUnits="userSpaceOnUse" gradientTransform="translate(17.8193 13.1552) scale(15.8073)">
<stop stop-color="#2ABCE1"/>
<stop offset="0.11363" stop-color="#2ABBE1"/>
<stop offset="1" stop-color="#3375F8"/>
</radialGradient>
<linearGradient id="paint2_linear" x1="15.8309" y1="12.2861" x2="9.78662" y2="23.1302" gradientUnits="userSpaceOnUse">
<stop stop-opacity="0"/>
<stop offset="1"/>
</linearGradient>
</defs>
</svg>
