<svg width="168" height="46" viewBox="0 0 168 46" fill="none" xmlns="http://www.w3.org/2000/svg">
<path fill-rule="evenodd" clip-rule="evenodd" d="M43.2384 33.5496H38.2248C36.1378 33.4168 34.1604 32.5683 32.6262 31.1472L32.0622 30.5832C30.6715 29.0372 29.853 27.0611 29.7434 24.9845V19.9709C29.7379 19.1028 29.3906 18.2718 28.7768 17.6578C28.1628 17.0439 27.3318 16.6966 26.4636 16.6912H21.45C19.3802 16.6041 17.4034 15.8074 15.8515 14.4351L15.2875 13.871C13.8967 12.3251 13.0783 10.349 12.9686 8.27245V3.2798C12.9686 2.40994 12.6231 1.57569 12.0081 0.960574C11.393 0.345554 10.5588 0 9.68893 0H3.81877C2.94899 0 2.1147 0.345554 1.49971 0.960574C0.884626 1.57569 0.539062 2.40994 0.539062 3.2798V9.14986C0.539062 10.0197 0.884626 10.854 1.49971 11.469C2.1147 12.0841 2.94899 12.4297 3.81877 12.4297H8.81155C10.9198 12.5261 12.9287 13.3532 14.4937 14.7693L15.0577 15.3334C16.4441 16.882 17.2618 18.8565 17.3765 20.9318V25.9456C17.3819 26.8137 17.7293 27.6447 18.3431 28.2585C18.957 28.8724 19.7881 29.2198 20.6562 29.2253H25.6698C27.7234 29.3538 29.6736 30.1707 31.2058 31.544L31.7698 32.1081C33.1562 33.6567 33.9739 35.6313 34.0886 37.7067V42.7203C34.094 43.5885 34.4413 44.4194 35.0552 45.0334C35.6691 45.6473 36.5002 45.9945 37.3683 46H43.2593C44.1274 45.9945 44.9585 45.6473 45.5724 45.0334C46.1863 44.4194 46.5336 43.5885 46.5391 42.7203V36.8293C46.5335 35.9576 46.1834 35.1233 45.565 34.5088C44.9466 33.8944 44.1102 33.5495 43.2384 33.5496ZM19.8077 13.2166H24.8689C26.9632 13.3332 28.9555 14.1418 30.5206 15.5106L30.7105 15.7173C32.1144 17.2466 32.9406 19.2016 33.0512 21.256V26.1953C33.0512 27.0558 33.4001 27.8811 34.021 28.4896C34.6419 29.0981 35.4841 29.4399 36.3622 29.4399H42.288C43.1661 29.4399 44.0082 29.0981 44.6291 28.4896C45.25 27.8811 45.5989 27.0558 45.5989 26.1953V20.388C45.5989 19.5274 45.25 18.7022 44.6291 18.0937C44.0082 17.4852 43.1661 17.1433 42.288 17.1433H37.2478C35.1516 17.0348 33.1567 16.2252 31.5961 14.8493L31.3853 14.6633C29.9857 13.1312 29.1602 11.1778 29.0444 9.12459V4.1646C29.0444 3.30412 28.6957 2.47879 28.0748 1.8703C27.4538 1.26182 26.6117 0.919943 25.7335 0.919943H19.8077C18.9296 0.919943 18.0875 1.26182 17.4666 1.8703C16.8457 2.47879 16.4968 3.30412 16.4968 4.1646V9.972C16.4968 10.8325 16.8457 11.6577 17.4666 12.2662C18.0875 12.8747 18.9296 13.2166 19.8077 13.2166ZM21.29 32.7833H26.3302C27.2083 32.7833 28.0504 33.1252 28.6714 33.7337C29.2923 34.3422 29.6411 35.1675 29.6411 36.028V41.8353C29.6411 42.6959 29.2923 43.5212 28.6714 44.1297C28.0504 44.7382 27.2083 45.08 26.3302 45.08H20.4254C19.9889 45.0827 19.5561 45.0007 19.152 44.8389C18.7478 44.6771 18.3803 44.4385 18.0707 44.137C17.761 43.8354 17.5152 43.4768 17.3475 43.0817C17.1798 42.6868 17.0934 42.2632 17.0934 41.8353V36.896C16.9828 34.8417 16.1566 32.8867 14.7527 31.3573L14.5629 31.1507C12.9977 29.7819 11.0055 28.9733 8.91116 28.8567H3.84994C2.9718 28.8567 2.12972 28.5149 1.50882 27.9064C0.887909 27.2978 0.539062 26.4726 0.539062 25.612V19.8047C0.539062 18.9441 0.887909 18.1189 1.50882 17.5104C2.12972 16.9019 2.9718 16.56 3.84994 16.56H9.88119C10.7337 16.5866 11.5428 16.9346 12.14 17.5313C12.7371 18.1281 13.0762 18.9277 13.0866 19.7634V24.7234C13.1929 26.791 14.019 28.7604 15.4275 30.3034L15.6383 30.4894C17.199 31.8653 19.1938 32.6749 21.29 32.7833Z" fill="#9E9E9E"/>
<path d="M75.0291 18.044C73.9091 18.044 73.3491 17.484 73.3491 16.364V13.046C73.3491 11.926 72.7891 11.366 71.6691 11.366H66.0411C64.9211 11.366 64.3611 11.926 64.3611 13.046V19.724C64.3611 20.844 64.9211 21.404 66.0411 21.404H72.9291C73.7411 21.404 74.4271 21.684 74.9871 22.244L76.3311 23.588C76.8911 24.148 77.1711 24.834 77.1711 25.646V34.13C77.1711 34.942 76.8911 35.642 76.3311 36.23L74.9871 37.574C74.4271 38.134 73.7411 38.414 72.9291 38.414H64.8231C64.0111 38.414 63.3251 38.134 62.7651 37.574L61.3791 36.188C60.8191 35.628 60.5391 34.942 60.5391 34.13V30.014C60.5391 28.894 61.0991 28.334 62.2191 28.334H62.6811C63.8011 28.334 64.3611 28.894 64.3611 30.014V32.912C64.3611 34.032 64.9211 34.592 66.0411 34.592H71.6691C72.7891 34.592 73.3491 34.032 73.3491 32.912V26.864C73.3491 25.744 72.7891 25.184 71.6691 25.184H64.8231C63.9831 25.184 63.2831 24.904 62.7231 24.344L61.3791 23C60.8191 22.44 60.5391 21.754 60.5391 20.942V11.828C60.5391 11.016 60.8191 10.316 61.3791 9.72801L62.7231 8.38401C63.2831 7.82401 63.9691 7.54401 64.7811 7.54401H72.9291C73.7411 7.54401 74.4271 7.83801 74.9871 8.42601L76.3311 9.77001C76.8911 10.33 77.1711 11.016 77.1711 11.828V16.364C77.1711 17.484 76.6111 18.044 75.4911 18.044H75.0291Z" fill="#9E9E9E"/>
<path d="M83.055 38.456C81.935 38.456 81.375 37.896 81.375 36.776V10.022C81.375 8.90201 81.935 8.34201 83.055 8.34201H83.517C84.637 8.34201 85.197 8.90201 85.197 10.022V15.986C85.197 17.106 85.757 17.666 86.877 17.666H90.741C91.553 17.666 92.239 17.946 92.799 18.506L94.185 19.892C94.745 20.452 95.025 21.138 95.025 21.95V36.776C95.025 37.896 94.465 38.456 93.345 38.456H92.883C91.763 38.456 91.203 37.896 91.203 36.776V23.168C91.203 22.048 90.643 21.488 89.523 21.488H86.877C85.757 21.488 85.197 22.048 85.197 23.168V36.776C85.197 37.896 84.637 38.456 83.517 38.456H83.055Z" fill="#9E9E9E"/>
<path d="M112.521 19.85C113.081 20.438 113.361 21.138 113.361 21.95V34.13C113.361 34.942 113.081 35.642 112.521 36.23L111.177 37.574C110.617 38.134 109.931 38.414 109.119 38.414H103.911C103.099 38.414 102.413 38.134 101.853 37.574L100.467 36.188C99.907 35.628 99.627 34.942 99.627 34.13V21.95C99.627 21.138 99.907 20.452 100.467 19.892L101.853 18.506C102.413 17.946 103.099 17.666 103.911 17.666H109.119C109.931 17.666 110.617 17.946 111.177 18.506L112.521 19.85ZM109.539 23.168C109.539 22.048 108.979 21.488 107.859 21.488H105.129C104.009 21.488 103.449 22.048 103.449 23.168V32.912C103.449 34.032 104.009 34.592 105.129 34.592H107.859C108.979 34.592 109.539 34.032 109.539 32.912V23.168Z" fill="#9E9E9E"/>
<path d="M119.735 18.506C120.295 17.946 120.995 17.666 121.835 17.666H125.699C126.819 17.666 127.379 17.106 127.379 15.986V9.93801C127.379 8.818 127.939 8.258 129.059 8.258H129.521C130.641 8.258 131.201 8.818 131.201 9.93801V36.734C131.201 37.854 130.641 38.414 129.521 38.414H121.835C121.023 38.414 120.337 38.134 119.777 37.574L118.391 36.188C117.831 35.628 117.551 34.942 117.551 34.13V21.908C117.551 21.096 117.831 20.41 118.391 19.85L119.735 18.506ZM121.373 32.912C121.373 34.032 121.933 34.592 123.053 34.592H125.699C126.819 34.592 127.379 34.032 127.379 32.912V23.168C127.379 22.048 126.819 21.488 125.699 21.488H123.053C121.933 21.488 121.373 22.048 121.373 23.168V32.912Z" fill="#9E9E9E"/>
<path d="M139.677 38.372C138.865 38.372 138.179 38.092 137.619 37.532L136.233 36.146C135.673 35.586 135.393 34.9 135.393 34.088V29.216C135.393 28.796 135.463 28.432 135.603 28.124C135.743 27.788 135.967 27.466 136.275 27.158L137.619 25.814C138.179 25.254 138.865 24.974 139.677 24.974H143.667C144.787 24.974 145.347 24.414 145.347 23.294V23.168C145.347 22.048 144.787 21.488 143.667 21.488H137.199C136.079 21.488 135.519 20.928 135.519 19.808V19.346C135.519 18.226 136.079 17.666 137.199 17.666H144.885C145.697 17.666 146.383 17.946 146.943 18.506L148.329 19.892C148.889 20.452 149.169 21.138 149.169 21.95V36.692C149.169 37.812 148.609 38.372 147.489 38.372H139.677ZM145.347 30.098C145.347 28.978 144.787 28.418 143.667 28.418H140.895C139.775 28.418 139.215 28.978 139.215 30.098V33.248C139.215 34.368 139.775 34.928 140.895 34.928H143.667C144.787 34.928 145.347 34.368 145.347 33.248V30.098Z" fill="#9E9E9E"/>
<path d="M158.051 36.776C158.051 37.896 157.491 38.456 156.371 38.456H155.909C154.789 38.456 154.229 37.896 154.229 36.776V21.95C154.229 21.138 154.509 20.452 155.069 19.892L156.455 18.506C157.015 17.946 157.701 17.666 158.513 17.666H163.721C164.533 17.666 165.219 17.96 165.779 18.548L167.123 19.892C167.683 20.452 167.963 21.138 167.963 21.95V36.776C167.963 37.896 167.403 38.456 166.283 38.456H165.863C164.743 38.456 164.183 37.896 164.183 36.776V23.168C164.183 22.048 163.623 21.488 162.503 21.488H159.731C158.611 21.488 158.051 22.048 158.051 23.168V36.776Z" fill="#9E9E9E"/>
</svg>
