<svg width="171" height="46" viewBox="0 0 171 46" fill="none" xmlns="http://www.w3.org/2000/svg">
<path fill-rule="evenodd" clip-rule="evenodd" d="M43.6876 33.5496H38.674C36.587 33.4168 34.6096 32.5683 33.0754 31.1472L32.5114 30.5832C31.1207 29.0372 30.3022 27.0611 30.1926 24.9845V19.9709C30.1871 19.1028 29.8399 18.2718 29.226 17.6578C28.612 17.0439 27.781 16.6966 26.9129 16.6912H21.8992C19.8294 16.6041 17.8526 15.8074 16.3007 14.4351L15.7367 13.871C14.3459 12.3251 13.5275 10.349 13.4179 8.27245V3.2798C13.4179 2.40994 13.0723 1.57569 12.4573 0.960574C11.8422 0.345554 11.008 0 10.1381 0H4.26799C3.39821 0 2.56392 0.345554 1.94893 0.960574C1.33384 1.57569 0.988281 2.40994 0.988281 3.2798V9.14986C0.988281 10.0197 1.33384 10.854 1.94893 11.469C2.56392 12.0841 3.39821 12.4297 4.26799 12.4297H9.26077C11.369 12.5261 13.378 13.3532 14.9429 14.7693L15.5069 15.3334C16.8933 16.882 17.7111 18.8565 17.8257 20.9318V25.9456C17.8311 26.8137 18.1785 27.6447 18.7923 28.2585C19.4062 28.8724 20.2373 29.2198 21.1054 29.2253H26.119C28.1726 29.3538 30.1228 30.1707 31.655 31.544L32.219 32.1081C33.6054 33.6567 34.4231 35.6313 34.5378 37.7067V42.7203C34.5432 43.5885 34.8906 44.4194 35.5044 45.0334C36.1183 45.6473 36.9494 45.9945 37.8175 46H43.7085C44.5767 45.9945 45.4078 45.6473 46.0216 45.0334C46.6355 44.4194 46.9828 43.5885 46.9883 42.7203V36.8293C46.9827 35.9576 46.6326 35.1233 46.0142 34.5088C45.3958 33.8944 44.5594 33.5495 43.6876 33.5496ZM20.2569 13.2166H25.3182C27.4125 13.3332 29.4047 14.1418 30.9699 15.5106L31.1597 15.7173C32.5636 17.2466 33.3898 19.2016 33.5004 21.256V26.1953C33.5004 27.0558 33.8493 27.8811 34.4702 28.4896C35.0911 29.0981 35.9333 29.4399 36.8114 29.4399H42.7372C43.6153 29.4399 44.4574 29.0981 45.0784 28.4896C45.6993 27.8811 46.0481 27.0558 46.0481 26.1953V20.388C46.0481 19.5274 45.6993 18.7022 45.0784 18.0937C44.4574 17.4852 43.6153 17.1433 42.7372 17.1433H37.697C35.6008 17.0348 33.6059 16.2252 32.0453 14.8493L31.8345 14.6633C30.435 13.1312 29.6094 11.1778 29.4936 9.12459V4.1646C29.4936 3.30412 29.1449 2.47879 28.524 1.8703C27.903 1.26182 27.0609 0.919943 26.1828 0.919943H20.2569C19.3788 0.919943 18.5367 1.26182 17.9158 1.8703C17.2949 2.47879 16.9461 3.30412 16.9461 4.1646V9.972C16.9461 10.8325 17.2949 11.6577 17.9158 12.2662C18.5367 12.8747 19.3788 13.2166 20.2569 13.2166ZM21.7393 32.7833H26.7795C27.6575 32.7833 28.4997 33.1252 29.1206 33.7337C29.7415 34.3422 30.0903 35.1675 30.0903 36.028V41.8353C30.0903 42.6959 29.7415 43.5212 29.1206 44.1297C28.4997 44.7382 27.6575 45.08 26.7795 45.08H20.8746C20.4381 45.0827 20.0053 45.0007 19.6012 44.8389C19.1971 44.6771 18.8295 44.4385 18.5199 44.137C18.2102 43.8354 17.9644 43.4768 17.7967 43.0817C17.629 42.6868 17.5427 42.2632 17.5427 41.8353V36.896C17.4321 34.8417 16.6058 32.8867 15.2019 31.3573L15.0121 31.1507C13.447 29.7819 11.4547 28.9733 9.36038 28.8567H4.29915C3.42102 28.8567 2.57894 28.5149 1.95803 27.9064C1.33713 27.2978 0.988281 26.4726 0.988281 25.612V19.8047C0.988281 18.9441 1.33713 18.1189 1.95803 17.5104C2.57894 16.9019 3.42102 16.56 4.29915 16.56H10.3304C11.1829 16.5866 11.992 16.9346 12.5892 17.5313C13.1864 18.1281 13.5254 18.9277 13.5359 19.7634V24.7234C13.6421 26.791 14.4683 28.7604 15.8767 30.3034L16.0875 30.4894C17.6482 31.8653 19.6431 32.6749 21.7393 32.7833Z" fill="#616161"/>
<path d="M77.5779 19.0078C76.4579 19.0078 75.8979 18.4478 75.8979 17.3278V14.0098C75.8979 12.8898 75.3379 12.3298 74.2179 12.3298H68.5899C67.4699 12.3298 66.9099 12.8898 66.9099 14.0098V20.6878C66.9099 21.8078 67.4699 22.3678 68.5899 22.3678H75.4779C76.2899 22.3678 76.9759 22.6478 77.5359 23.2078L78.8799 24.5518C79.4399 25.1118 79.7199 25.7978 79.7199 26.6098V35.0938C79.7199 35.9058 79.4399 36.6058 78.8799 37.1938L77.5359 38.5378C76.9759 39.0978 76.2899 39.3778 75.4779 39.3778H67.3719C66.5599 39.3778 65.8739 39.0978 65.3139 38.5378L63.9279 37.1518C63.3679 36.5918 63.0879 35.9058 63.0879 35.0938V30.9778C63.0879 29.8578 63.6479 29.2978 64.7679 29.2978H65.2299C66.3499 29.2978 66.9099 29.8578 66.9099 30.9778V33.8758C66.9099 34.9958 67.4699 35.5558 68.5899 35.5558H74.2179C75.3379 35.5558 75.8979 34.9958 75.8979 33.8758V27.8278C75.8979 26.7078 75.3379 26.1478 74.2179 26.1478H67.3719C66.5319 26.1478 65.8319 25.8678 65.2719 25.3078L63.9279 23.9638C63.3679 23.4038 63.0879 22.7178 63.0879 21.9058V12.7918C63.0879 11.9798 63.3679 11.2798 63.9279 10.6918L65.2719 9.34781C65.8319 8.78781 66.5179 8.50781 67.3299 8.50781H75.4779C76.2899 8.50781 76.9759 8.80181 77.5359 9.38981L78.8799 10.7338C79.4399 11.2938 79.7199 11.9798 79.7199 12.7918V17.3278C79.7199 18.4478 79.1599 19.0078 78.0399 19.0078H77.5779Z" fill="#616161"/>
<path d="M85.6038 39.4198C84.4838 39.4198 83.9238 38.8598 83.9238 37.7398V10.9858C83.9238 9.86581 84.4838 9.30581 85.6038 9.30581H86.0658C87.1858 9.30581 87.7458 9.86581 87.7458 10.9858V16.9498C87.7458 18.0698 88.3058 18.6298 89.4258 18.6298H93.2898C94.1018 18.6298 94.7878 18.9098 95.3478 19.4698L96.7338 20.8558C97.2938 21.4158 97.5738 22.1018 97.5738 22.9138V37.7398C97.5738 38.8598 97.0138 39.4198 95.8938 39.4198H95.4318C94.3118 39.4198 93.7518 38.8598 93.7518 37.7398V24.1318C93.7518 23.0118 93.1918 22.4518 92.0718 22.4518H89.4258C88.3058 22.4518 87.7458 23.0118 87.7458 24.1318V37.7398C87.7458 38.8598 87.1858 39.4198 86.0658 39.4198H85.6038Z" fill="#616161"/>
<path d="M115.07 20.8138C115.63 21.4018 115.91 22.1018 115.91 22.9138V35.0938C115.91 35.9058 115.63 36.6058 115.07 37.1938L113.726 38.5378C113.166 39.0978 112.48 39.3778 111.668 39.3778H106.46C105.648 39.3778 104.962 39.0978 104.402 38.5378L103.016 37.1518C102.456 36.5918 102.176 35.9058 102.176 35.0938V22.9138C102.176 22.1018 102.456 21.4158 103.016 20.8558L104.402 19.4698C104.962 18.9098 105.648 18.6298 106.46 18.6298H111.668C112.48 18.6298 113.166 18.9098 113.726 19.4698L115.07 20.8138ZM112.088 24.1318C112.088 23.0118 111.528 22.4518 110.408 22.4518H107.678C106.558 22.4518 105.998 23.0118 105.998 24.1318V33.8758C105.998 34.9958 106.558 35.5558 107.678 35.5558H110.408C111.528 35.5558 112.088 34.9958 112.088 33.8758V24.1318Z" fill="#616161"/>
<path d="M122.284 19.4698C122.844 18.9098 123.544 18.6298 124.384 18.6298H128.248C129.368 18.6298 129.928 18.0698 129.928 16.9498V10.9018C129.928 9.78181 130.488 9.22181 131.608 9.22181H132.07C133.19 9.22181 133.75 9.78181 133.75 10.9018V37.6978C133.75 38.8178 133.19 39.3778 132.07 39.3778H124.384C123.572 39.3778 122.886 39.0978 122.326 38.5378L120.94 37.1518C120.38 36.5918 120.1 35.9058 120.1 35.0938V22.8718C120.1 22.0598 120.38 21.3738 120.94 20.8138L122.284 19.4698ZM123.922 33.8758C123.922 34.9958 124.482 35.5558 125.602 35.5558H128.248C129.368 35.5558 129.928 34.9958 129.928 33.8758V24.1318C129.928 23.0118 129.368 22.4518 128.248 22.4518H125.602C124.482 22.4518 123.922 23.0118 123.922 24.1318V33.8758Z" fill="#616161"/>
<path d="M142.225 39.3358C141.413 39.3358 140.727 39.0558 140.167 38.4958L138.781 37.1098C138.221 36.5498 137.941 35.8638 137.941 35.0518V30.1798C137.941 29.7598 138.011 29.3958 138.151 29.0878C138.291 28.7518 138.515 28.4298 138.823 28.1218L140.167 26.7778C140.727 26.2178 141.413 25.9378 142.225 25.9378H146.215C147.335 25.9378 147.895 25.3778 147.895 24.2578V24.1318C147.895 23.0118 147.335 22.4518 146.215 22.4518H139.747C138.627 22.4518 138.067 21.8918 138.067 20.7718V20.3098C138.067 19.1898 138.627 18.6298 139.747 18.6298H147.433C148.245 18.6298 148.931 18.9098 149.491 19.4698L150.877 20.8558C151.437 21.4158 151.717 22.1018 151.717 22.9138V37.6558C151.717 38.7758 151.157 39.3358 150.037 39.3358H142.225ZM147.895 31.0618C147.895 29.9418 147.335 29.3818 146.215 29.3818H143.443C142.323 29.3818 141.763 29.9418 141.763 31.0618V34.2118C141.763 35.3318 142.323 35.8918 143.443 35.8918H146.215C147.335 35.8918 147.895 35.3318 147.895 34.2118V31.0618Z" fill="#616161"/>
<path d="M160.599 37.7398C160.599 38.8598 160.039 39.4198 158.919 39.4198H158.457C157.337 39.4198 156.777 38.8598 156.777 37.7398V22.9138C156.777 22.1018 157.057 21.4158 157.617 20.8558L159.003 19.4698C159.563 18.9098 160.249 18.6298 161.061 18.6298H166.269C167.081 18.6298 167.767 18.9238 168.327 19.5118L169.671 20.8558C170.231 21.4158 170.511 22.1018 170.511 22.9138V37.7398C170.511 38.8598 169.951 39.4198 168.831 39.4198H168.411C167.291 39.4198 166.731 38.8598 166.731 37.7398V24.1318C166.731 23.0118 166.171 22.4518 165.051 22.4518H162.279C161.159 22.4518 160.599 23.0118 160.599 24.1318V37.7398Z" fill="#616161"/>
</svg>
