<svg width="49" height="48" viewBox="0 0 49 48" fill="none" xmlns="http://www.w3.org/2000/svg">
<path d="M3.7998 18.2C3.7998 12.8795 3.7998 10.2193 4.83524 8.18709C5.74604 6.39955 7.19935 4.94624 8.98689 4.03544C11.0191 3 13.6793 3 18.9998 3H30.5998C35.9203 3 38.5806 3 40.6127 4.03544C42.4003 4.94624 43.8536 6.39955 44.7644 8.18709C45.7998 10.2193 45.7998 12.8795 45.7998 18.2V29.8C45.7998 35.1205 45.7998 37.7807 44.7644 39.8129C43.8536 41.6004 42.4003 43.0538 40.6127 43.9646C38.5806 45 35.9203 45 30.5998 45H18.9998C13.6793 45 11.0191 45 8.98689 43.9646C7.19935 43.0538 5.74604 41.6004 4.83524 39.8129C3.7998 37.7807 3.7998 35.1205 3.7998 29.8V18.2Z" fill="#330000"/>
<path d="M24.1528 29.3944H17.6444L16.3201 33.6134C16.2834 33.7702 16.139 33.8812 15.982 33.8735H12.6856C12.4976 33.8735 12.4318 33.7676 12.4883 33.5556L18.1233 16.9107C18.1797 16.7374 18.2361 16.5399 18.2924 16.3183C18.3661 15.9328 18.4038 15.5409 18.4051 15.148C18.389 15.0319 18.491 14.9294 18.6023 14.9457H23.0821C23.2133 14.9457 23.2885 14.9939 23.3075 15.0902L29.7033 33.5845C29.7596 33.7773 29.7032 33.8737 29.5342 33.8735H25.8714C25.7429 33.8881 25.6203 33.8 25.5897 33.6712L24.1528 29.3944ZM18.6586 25.7533H23.1103C22.3789 23.2541 21.5535 20.7876 20.8845 18.2689C20.1627 20.7919 19.3752 23.3047 18.6586 25.7533Z" fill="#FF9A00"/>
<path d="M33.5065 18.0087C33.2192 18.0206 32.9326 17.9701 32.6656 17.8605C32.3985 17.751 32.1571 17.5848 31.9569 17.373C31.7573 17.152 31.6023 16.8927 31.5008 16.61C31.3992 16.3273 31.3531 16.0268 31.3652 15.7258C31.3549 15.4278 31.4061 15.1309 31.5154 14.8546C31.6246 14.5782 31.7894 14.3286 31.9991 14.122C32.2068 13.9176 32.4519 13.7574 32.7203 13.6508C32.9887 13.5441 33.2751 13.4931 33.5629 13.5007C34.2391 13.5007 34.7697 13.7078 35.1548 14.122C35.3491 14.3373 35.5002 14.5897 35.5993 14.8649C35.6984 15.1401 35.7436 15.4327 35.7323 15.7258C35.7441 16.028 35.6966 16.3295 35.5925 16.6125C35.4884 16.8954 35.33 17.1541 35.1266 17.373C34.914 17.5879 34.6603 17.7554 34.3814 17.8648C34.1026 17.9742 33.8047 18.0232 33.5065 18.0087ZM31.5624 33.5844V19.7714C31.5624 19.5981 31.6373 19.5114 31.7878 19.5114H35.2534C35.4035 19.5114 35.4787 19.5981 35.4788 19.7714V33.5844C35.4788 33.7772 35.4037 33.8736 35.2534 33.8734H31.816C31.647 33.8734 31.5625 33.7771 31.5624 33.5844Z" fill="#FF9A00"/>
</svg>
