<svg width="49" height="48" viewBox="0 0 49 48" fill="none" xmlns="http://www.w3.org/2000/svg">
<g clip-path="url(#clip0)">
<circle cx="24.2002" cy="24" r="24" fill="url(#paint0_linear)"/>
<path fill-rule="evenodd" clip-rule="evenodd" d="M16.472 23.5698C15.8727 22.1083 15.3884 20.6818 15.0248 19.3279C14.3215 19.4809 13.661 19.6557 13.0499 19.8502C11.5893 20.3151 10.4497 20.8797 9.68055 21.4932C8.91066 22.1071 8.57925 22.7113 8.55172 23.269C8.52825 23.7444 8.71935 24.2701 9.21209 24.8407C9.70831 25.4154 10.4789 25.9955 11.5123 26.5435C11.8754 26.736 12.0119 27.1832 11.8172 27.5422C11.6225 27.9012 11.1702 28.0362 10.8071 27.8436C9.67533 27.2435 8.73404 26.5593 8.07728 25.7987C7.41705 25.0341 7.01414 24.1535 7.06136 23.1971C7.11704 22.0691 7.78239 21.1115 8.74377 20.3448C9.70585 19.5776 11.0321 18.9426 12.5927 18.4459C13.2427 18.239 13.9403 18.054 14.6787 17.8926C14.53 17.1929 14.417 16.5184 14.3406 15.8748C14.1497 14.2648 14.1833 12.8082 14.4898 11.6243C14.7961 10.4412 15.401 9.44517 16.4157 8.92675C17.3112 8.46929 18.3321 8.48457 19.3496 8.79524C20.3628 9.10464 21.4282 9.72118 22.4947 10.5578C22.8174 10.811 22.8715 11.275 22.6154 11.5942C22.3593 11.9133 21.89 11.9668 21.5672 11.7136C20.5868 10.9445 19.6857 10.442 18.9093 10.2049C18.137 9.96907 17.5451 10.0104 17.1007 10.2375C16.5989 10.4938 16.1806 11.0427 15.9354 11.9901C15.6903 12.9367 15.6439 14.1961 15.8226 15.703C15.8944 16.3081 16.0017 16.9467 16.144 17.6126C17.5596 17.3786 19.0937 17.2248 20.7081 17.1621C22.5806 14.817 24.5463 12.8895 26.4001 11.54C27.7204 10.579 29.017 9.88673 30.2091 9.5639C31.4003 9.24131 32.5751 9.26779 33.533 9.88288C34.3855 10.4303 34.8786 11.3253 35.1069 12.3644C35.3343 13.3996 35.3142 14.6345 35.0985 15.9808C35.034 16.3832 34.6518 16.6577 34.2448 16.5939C33.8379 16.5302 33.5602 16.1523 33.6247 15.7499C33.8233 14.5106 33.8235 13.4731 33.6487 12.6775C33.4748 11.8859 33.1433 11.3918 32.7203 11.1202C32.2466 10.816 31.5572 10.7285 30.6032 10.9868C29.6501 11.2449 28.5204 11.8286 27.2848 12.7281C25.8032 13.8066 24.2169 15.3043 22.6591 17.131C23.2772 17.135 23.9042 17.1521 24.5382 17.1827C29.1313 17.4043 33.2886 18.2986 36.3025 19.5901C37.8068 20.2347 39.0642 20.9944 39.9461 21.8507C40.8274 22.7063 41.3953 23.7234 41.3396 24.8514C41.293 25.7956 40.8169 26.6243 40.0998 27.3163C39.3869 28.0044 38.4041 28.591 37.2437 29.0778C36.8644 29.237 36.4264 29.0619 36.2655 28.6869C36.1045 28.3119 36.2816 27.8788 36.6609 27.7197C37.7179 27.2762 38.5213 26.7781 39.0576 26.2605C39.5898 25.7469 39.826 25.249 39.8492 24.7795C39.8768 24.2217 39.6064 23.5885 38.9007 22.9033C38.1956 22.2188 37.117 21.5471 35.7091 20.9438C32.8987 19.7394 28.9265 18.8715 24.4655 18.6562C23.4372 18.6066 22.4313 18.594 21.4565 18.6153C20.8338 19.4235 20.2216 20.282 19.6286 21.1849C19.0856 22.0116 18.5835 22.8377 18.1239 23.6553C18.5224 24.5804 18.9693 25.521 19.4636 26.4669C21.5138 30.3902 23.9616 33.6027 26.2366 35.6307C27.3762 36.6466 28.442 37.3379 29.3646 37.6879C30.2881 38.0382 30.9829 38.0185 31.4847 37.7621C31.9681 37.5152 32.3732 36.9978 32.6221 36.1126C32.8713 35.2264 32.9392 34.0463 32.7988 32.6276C32.5184 29.795 31.4241 26.1703 29.5657 22.4064C29.3849 22.0403 29.5386 21.5986 29.9088 21.4199C30.2791 21.2412 30.7258 21.3931 30.9066 21.7592C32.8204 25.6354 33.9817 29.432 34.2838 32.4839C34.4346 34.0073 34.3754 35.3852 34.0597 36.5078C33.7438 37.6315 33.1463 38.5739 32.1696 39.0728C31.1549 39.5913 29.9833 39.5028 28.8301 39.0653C27.6761 38.6275 26.4551 37.8119 25.2374 36.7265C22.7978 34.5517 20.2489 31.1835 18.138 27.1441C17.8198 26.5352 17.5199 25.9271 17.2388 25.3223C16.1188 27.5636 15.338 29.6948 14.929 31.5401C14.6005 33.022 14.5207 34.2798 14.6699 35.2457C14.8192 36.2125 15.1805 36.7996 15.6542 37.1037C16.0997 37.3898 16.7341 37.4841 17.6028 37.2798C18.4736 37.0749 19.5078 36.5835 20.6485 35.8067C20.9879 35.5756 21.4524 35.6603 21.6862 35.9958C21.9199 36.3313 21.8343 36.7907 21.4949 37.0217C20.2657 37.8588 19.0605 38.4534 17.9482 38.715C16.8337 38.9772 15.7411 38.9187 14.8415 38.3411C13.8836 37.726 13.3813 36.6757 13.1948 35.4684C13.0082 34.2603 13.1204 32.8076 13.4715 31.2242C13.9784 28.9375 15.002 26.2951 16.472 23.5698ZM17.4199 21.9055C17.053 20.9231 16.7441 19.9671 16.4944 19.0507C17.451 18.896 18.469 18.7787 19.5354 18.7035C19.1423 19.2455 18.7555 19.8053 18.3772 20.3813C18.0436 20.8892 17.7244 21.3978 17.4199 21.9055Z" fill="white"/>
<path d="M24.2692 26.0873C25.4464 26.0873 26.4008 25.1437 26.4008 23.9797C26.4008 22.8156 25.4464 21.872 24.2692 21.872C23.0919 21.872 22.1375 22.8156 22.1375 23.9797C22.1375 25.1437 23.0919 26.0873 24.2692 26.0873Z" fill="white"/>
</g>
<defs>
<linearGradient id="paint0_linear" x1="24.2002" y1="0" x2="24.2002" y2="48" gradientUnits="userSpaceOnUse">
<stop stop-color="#B2E299"/>
<stop offset="1" stop-color="#03A171"/>
</linearGradient>
<clipPath id="clip0">
<rect width="48" height="48" fill="white" transform="translate(0.200195)"/>
</clipPath>
</defs>
</svg>
