<svg width="49" height="48" viewBox="0 0 49 48" fill="none" xmlns="http://www.w3.org/2000/svg">
<g clip-path="url(#clip0)">
<rect x="12" y="2" width="36" height="42" rx="2" fill="#2FB776"/>
<path d="M12 33.5H48V42C48 43.1046 47.1046 44 46 44H14C12.8954 44 12 43.1046 12 42V33.5Z" fill="url(#paint0_linear)"/>
<rect x="30" y="23" width="18" height="10.5" fill="#229C5B"/>
<rect x="30" y="12.5" width="18" height="10.5" fill="#27AE68"/>
<path d="M12 4C12 2.89543 12.8954 2 14 2H30V12.5H12V4Z" fill="#1D854F"/>
<rect x="12" y="12.5" width="18" height="10.5" fill="#197B43"/>
<rect x="12" y="23" width="18" height="10.5" fill="#1B5B38"/>
<path d="M12 15.5C12 13.8431 13.3431 12.5 15 12.5H27C28.6569 12.5 30 13.8431 30 15.5V36.5C30 38.1569 28.6569 39.5 27 39.5H12V15.5Z" fill="black" fill-opacity="0.3"/>
<rect y="9.5" width="27" height="27" rx="2" fill="url(#paint1_linear)"/>
<path d="M19.5 30.5L15.2732 22.85L19.3144 15.5H16.0155L13.5206 20.1929L11.067 15.5H7.66495L11.7268 22.85L7.5 30.5H10.799L13.4588 25.5286L16.0979 30.5H19.5Z" fill="white"/>
</g>
<defs>
<linearGradient id="paint0_linear" x1="12" y1="38.75" x2="48" y2="38.75" gradientUnits="userSpaceOnUse">
<stop stop-color="#163C27"/>
<stop offset="1" stop-color="#2A6043"/>
</linearGradient>
<linearGradient id="paint1_linear" x1="0" y1="23" x2="27" y2="23" gradientUnits="userSpaceOnUse">
<stop stop-color="#185A30"/>
<stop offset="1" stop-color="#176F3D"/>
</linearGradient>
<clipPath id="clip0">
<rect width="48" height="48" fill="white" transform="translate(0.399414)"/>
</clipPath>
</defs>
</svg>
