<svg width="49" height="48" viewBox="0 0 49 48" fill="none" xmlns="http://www.w3.org/2000/svg">
<path d="M3.59961 18.2C3.59961 12.8795 3.59961 10.2193 4.63505 8.18709C5.54584 6.39955 6.99916 4.94624 8.7867 4.03544C10.8189 3 13.4791 3 18.7996 3H30.3996C35.7201 3 38.3804 3 40.4125 4.03544C42.2001 4.94624 43.6534 6.39955 44.5642 8.18709C45.5996 10.2193 45.5996 12.8795 45.5996 18.2V29.8C45.5996 35.1205 45.5996 37.7807 44.5642 39.8129C43.6534 41.6004 42.2001 43.0538 40.4125 43.9646C38.3804 45 35.7201 45 30.3996 45H18.7996C13.4791 45 10.8189 45 8.7867 43.9646C6.99916 43.0538 5.54584 41.6004 4.63505 39.8129C3.59961 37.7807 3.59961 35.1205 3.59961 29.8V18.2Z" fill="#001E36"/>
<path d="M12.5996 33.7744V15.3051C12.5996 15.1795 12.6521 15.1077 12.7746 15.1077C14.5831 15.1077 16.3907 15 18.1996 15C21.1348 15 24.3131 16.0036 25.4271 19.0744C25.6896 19.8282 25.8296 20.6 25.8296 21.4077C25.8296 22.9513 25.4796 24.2256 24.7796 25.2308C22.8242 28.0385 19.4351 27.9949 16.3971 27.9949V33.7564C16.4209 33.927 16.2755 34.0077 16.1346 34.0077H12.8096C12.6696 34.0077 12.5996 33.9359 12.5996 33.7744ZM16.4146 18.5718V24.6026C17.6192 24.6908 18.8797 24.7004 20.0371 24.3154C21.3149 23.9468 22.0146 22.8407 22.0146 21.5154C22.0501 20.386 21.4347 19.3024 20.3871 18.8949C19.2437 18.4194 17.6489 18.3909 16.4146 18.5718Z" fill="#31A8FF"/>
<path d="M36.7446 23.4111C36.2151 23.132 35.6511 22.9279 35.0682 22.8042C34.319 22.6279 31.3643 22.0106 31.3632 23.5555C31.3894 24.4181 32.7586 24.8407 33.3635 25.0871C35.4873 25.8162 37.8906 27.1196 37.8434 29.7396C37.9083 33.0012 34.7482 34.3051 32.0393 34.3054C30.6291 34.32 29.16 34.1016 27.8694 33.4963C27.7462 33.431 27.6669 33.2916 27.6722 33.1495V30.0286C27.6583 29.9034 27.7926 29.7941 27.8976 29.8841C29.1621 30.6488 30.661 31.0201 32.1239 31.04C32.7696 31.04 34.0495 30.9774 34.0398 30.0286C34.0398 29.118 32.5087 28.6994 31.8984 28.4681C31.0138 28.1523 30.175 27.7148 29.405 27.1677C28.3289 26.4002 27.6538 25.1695 27.6722 23.8156C27.6659 20.7445 30.5748 19.3661 33.1945 19.3654C34.4192 19.3553 35.7343 19.446 36.8744 19.9434C37.0383 19.9916 37.0723 20.1643 37.0716 20.319V23.2377C37.082 23.4188 36.8808 23.4805 36.7446 23.4111Z" fill="#31A8FF"/>
</svg>
