<svg width="49" height="42" viewBox="0 0 49 42" fill="none" xmlns="http://www.w3.org/2000/svg">
<rect x="12.7998" width="36" height="42" rx="2" fill="url(#paint0_linear)"/>
<path d="M12.7998 31.5H48.7998V40C48.7998 41.1046 47.9044 42 46.7998 42H14.7998C13.6952 42 12.7998 41.1046 12.7998 40V31.5Z" fill="url(#paint1_linear)"/>
<rect x="12.7998" y="21" width="36" height="10.5" fill="url(#paint2_linear)"/>
<rect x="12.7998" y="10.5" width="36" height="10.5" fill="url(#paint3_linear)"/>
<path d="M12.7998 13.5C12.7998 11.8431 14.143 10.5 15.7998 10.5H27.7998C29.4567 10.5 30.7998 11.8431 30.7998 13.5V34.5C30.7998 36.1569 29.4567 37.5 27.7998 37.5H12.7998V13.5Z" fill="black" fill-opacity="0.3"/>
<rect x="0.799805" y="7.5" width="27" height="27" rx="2" fill="url(#paint4_linear)"/>
<path d="M23.2998 13.5213H20.3782L18.0841 23.3085L15.5743 13.5H13.1037L10.5743 23.3085L8.2998 13.5213H5.2998L9.20177 28.5H11.79L14.2998 19.0319L16.8096 28.5H19.3978L23.2998 13.5213Z" fill="white"/>
<defs>
<linearGradient id="paint0_linear" x1="12.7998" y1="7" x2="48.7998" y2="7" gradientUnits="userSpaceOnUse">
<stop stop-color="#2B78B1"/>
<stop offset="1" stop-color="#338ACD"/>
</linearGradient>
<linearGradient id="paint1_linear" x1="12.7998" y1="38.0625" x2="48.7998" y2="38.0625" gradientUnits="userSpaceOnUse">
<stop stop-color="#1B366F"/>
<stop offset="1" stop-color="#2657B0"/>
</linearGradient>
<linearGradient id="paint2_linear" x1="28.5498" y1="27" x2="48.7998" y2="27" gradientUnits="userSpaceOnUse">
<stop stop-color="#20478B"/>
<stop offset="1" stop-color="#2D6FD1"/>
</linearGradient>
<linearGradient id="paint3_linear" x1="28.5498" y1="16.5" x2="48.7998" y2="16.5" gradientUnits="userSpaceOnUse">
<stop stop-color="#215295"/>
<stop offset="1" stop-color="#2E84D3"/>
</linearGradient>
<linearGradient id="paint4_linear" x1="0.799805" y1="22.5" x2="29.2998" y2="22.5" gradientUnits="userSpaceOnUse">
<stop stop-color="#223E74"/>
<stop offset="1" stop-color="#215091"/>
</linearGradient>
</defs>
</svg>
