<?xml version="1.0" standalone="no"?>
<!DOCTYPE svg PUBLIC "-//W3C//DTD SVG 20010904//EN"
 "http://www.w3.org/TR/2001/REC-SVG-20010904/DTD/svg10.dtd">
<svg version="1.0" xmlns="http://www.w3.org/2000/svg"
 width="1475.000000pt" height="504.000000pt" viewBox="0 0 1475.000000 504.000000"
 preserveAspectRatio="xMidYMid meet">

<g transform="translate(0.000000,504.000000) scale(0.100000,-0.100000)"
fill="#000000" stroke="none">
<path d="M9800 5011 c-78 -24 -149 -91 -203 -191 -51 -94 -882 -1868 -897
-1914 -18 -55 -8 -171 18 -222 25 -49 88 -108 139 -129 48 -20 160 -21 207 -1
49 21 121 90 155 150 32 55 857 1802 899 1901 19 46 25 78 25 135 0 89 -17
133 -74 195 -64 69 -181 102 -269 76z m162 -107 c15 -8 40 -31 55 -51 25 -32
28 -45 28 -112 0 -73 -3 -82 -66 -216 -37 -77 -239 -504 -449 -950 -211 -445
-396 -829 -411 -852 -41 -59 -83 -86 -144 -91 -118 -10 -208 91 -191 214 5 38
839 1832 906 1949 69 120 170 161 272 109z"/>
<path d="M10570 5011 c-87 -28 -156 -98 -217 -222 -96 -194 -857 -1818 -874
-1866 -70 -193 59 -386 257 -385 124 1 201 60 282 220 131 255 884 1868 893
1914 29 135 -28 260 -145 320 -44 23 -153 33 -196 19z m122 -91 c95 -27 147
-117 128 -221 -5 -26 -84 -206 -176 -400 -91 -195 -281 -599 -421 -898 -261
-558 -315 -665 -361 -715 -137 -147 -364 11 -294 204 19 53 778 1672 862 1841
66 130 105 173 175 190 43 10 46 10 87 -1z"/>
<path d="M161 4713 l-134 -4 7 -162 c14 -331 23 -1101 17 -1380 -3 -159 -3
-293 0 -299 6 -9 505 -5 515 4 3 3 0 106 -5 229 -6 123 -11 303 -11 400 l0
176 174 8 c96 4 245 4 330 0 l155 -8 7 -56 c4 -31 4 -215 0 -409 l-7 -353 257
4 c198 3 259 7 262 17 3 7 -1 164 -7 349 -7 185 -12 594 -12 909 -1 494 -3
574 -15 579 -9 3 -124 2 -257 -3 l-242 -9 1 -55 c1 -30 5 -184 9 -341 l8 -286
-99 -6 c-54 -4 -204 -7 -331 -7 l-233 0 0 355 0 355 -127 -2 c-71 -1 -188 -4
-262 -5z"/>
<path d="M11189 4691 c-16 -16 -29 -39 -29 -51 0 -28 267 -710 287 -732 36
-40 111 -30 136 19 42 82 270 683 271 712 0 41 -41 81 -84 81 -55 0 -75 -32
-159 -260 -44 -118 -84 -228 -91 -245 -11 -28 -16 -17 -105 220 -62 166 -101
255 -115 267 -34 27 -77 23 -111 -11z"/>
<path d="M12063 4700 c-18 -10 -39 -33 -48 -49 -26 -52 -255 -679 -255 -701 0
-35 44 -70 88 -70 49 0 74 26 98 103 l18 57 162 0 162 0 21 -62 c28 -81 44
-98 96 -98 44 0 67 16 79 57 5 14 -33 133 -118 370 -112 310 -129 352 -161
381 -41 38 -92 43 -142 12z m118 -327 c27 -81 49 -151 49 -155 0 -5 -47 -8
-105 -8 -58 0 -105 2 -105 4 0 17 103 317 107 312 3 -3 27 -72 54 -153z"/>
<path d="M12589 4694 l-24 -26 0 -365 0 -365 28 -24 c27 -23 32 -24 206 -24
164 0 179 1 199 20 12 11 24 31 28 44 7 28 -18 81 -41 90 -9 3 -68 6 -131 6
l-114 0 0 300 c0 361 -2 370 -94 370 -22 0 -40 -8 -57 -26z"/>
<path d="M13363 4699 c-17 -11 -38 -34 -46 -52 -42 -90 -247 -665 -247 -693 0
-44 32 -74 80 -74 51 0 67 16 94 90 l24 65 162 0 162 0 24 -65 c27 -74 43 -90
94 -90 42 0 80 33 80 69 0 28 -236 685 -258 719 -34 52 -113 67 -169 31z m123
-329 l51 -160 -107 0 -107 0 51 160 c28 88 53 160 56 160 3 0 28 -72 56 -160z"/>
<path d="M13895 4695 l-25 -24 0 -371 c0 -355 1 -371 20 -390 11 -11 31 -22
45 -26 31 -8 82 12 95 37 6 10 10 169 10 384 l0 366 -25 24 c-33 34 -87 34
-120 0z"/>
<path d="M14334 4702 c-115 -41 -174 -124 -174 -243 0 -117 52 -168 228 -223
99 -31 137 -50 146 -71 13 -35 5 -67 -23 -96 -25 -25 -37 -29 -84 -29 -29 0
-80 9 -112 20 -32 11 -70 20 -84 20 -59 0 -96 -62 -69 -117 40 -84 281 -122
410 -65 104 46 165 150 155 263 -11 119 -72 178 -241 231 -111 34 -152 64
-141 101 17 56 95 74 185 42 60 -21 87 -19 115 10 49 48 22 118 -57 150 -65
26 -191 30 -254 7z"/>
<path d="M2571 4270 c-295 -62 -485 -256 -536 -545 -52 -301 39 -590 231 -734
226 -169 619 -208 953 -95 42 14 82 32 89 38 13 13 39 302 28 314 -4 3 -19 1
-34 -5 -15 -6 -55 -23 -88 -37 -112 -47 -180 -60 -314 -60 -184 -1 -286 38
-357 136 -29 41 -68 146 -58 156 2 3 201 9 442 13 241 5 444 11 451 14 8 3 12
31 12 92 -1 293 -94 514 -263 627 -30 19 -90 47 -133 62 -70 24 -97 28 -229
30 -82 2 -170 -1 -194 -6z m242 -284 c73 -31 127 -122 127 -212 l0 -44 -117 0
c-65 0 -169 -3 -232 -7 l-114 -6 7 39 c29 162 109 244 239 244 32 0 72 -6 90
-14z"/>
<path d="M4138 4270 c-187 -33 -327 -129 -390 -266 -20 -41 -23 -66 -23 -159
0 -98 3 -116 27 -167 52 -112 153 -182 374 -259 157 -55 210 -83 234 -122 39
-63 15 -123 -64 -162 -116 -58 -365 -13 -503 91 -43 32 -63 31 -63 -3 0 -16
-5 -82 -10 -147 -6 -66 -8 -128 -5 -137 6 -19 119 -58 245 -86 93 -20 333 -22
440 -4 96 17 216 61 273 100 67 45 133 125 158 189 19 47 23 77 24 167 0 105
-2 114 -32 176 -60 122 -142 175 -412 270 -209 73 -250 113 -206 198 47 92
270 92 453 0 48 -24 86 -38 91 -33 15 16 35 284 23 296 -6 6 -58 22 -114 36
-86 20 -134 25 -288 28 -102 1 -206 -1 -232 -6z"/>
<path d="M6240 4259 c-181 -30 -325 -124 -376 -245 -60 -143 -22 -317 88 -407
64 -52 130 -82 315 -142 252 -82 306 -121 306 -222 0 -65 -38 -114 -120 -155
-65 -32 -72 -33 -183 -33 -134 0 -218 22 -314 80 -92 55 -92 54 -101 -79 -4
-63 -4 -119 -1 -125 8 -12 111 -46 206 -67 114 -25 351 -23 453 5 156 41 276
130 333 246 26 55 29 69 29 165 0 91 -3 112 -25 155 -58 118 -166 187 -401
256 -234 68 -298 104 -314 179 -16 73 54 158 148 181 65 16 200 15 269 -1 29
-7 90 -29 134 -50 45 -21 86 -35 92 -31 11 7 36 206 28 220 -8 13 -133 49
-230 66 -96 16 -248 18 -336 4z"/>
<path d="M7655 4256 c-284 -55 -463 -227 -520 -497 -20 -94 -20 -308 1 -406
48 -235 186 -394 404 -467 75 -26 103 -30 235 -33 182 -6 264 9 382 67 206
102 317 297 330 581 18 400 -131 651 -437 739 -97 28 -294 36 -395 16z m315
-218 c63 -29 123 -85 152 -141 80 -157 87 -492 14 -653 -67 -147 -231 -227
-398 -195 -206 41 -317 213 -317 496 -1 283 88 452 268 510 73 24 213 15 281
-17z"/>
<path d="M5290 3709 c-62 -25 -100 -85 -100 -157 0 -121 123 -196 234 -143
119 58 123 224 8 289 -42 23 -99 28 -142 11z"/>
<path d="M14371 3680 c-85 -18 -165 -81 -196 -157 -19 -45 -19 -143 -1 -187
23 -55 79 -92 202 -131 131 -42 164 -63 164 -106 0 -43 -17 -69 -55 -85 -47
-19 -85 -18 -158 7 -89 30 -124 29 -153 -5 -66 -76 13 -154 180 -177 118 -16
214 7 285 67 63 55 85 104 86 194 0 138 -52 194 -236 255 -147 49 -172 74
-129 128 30 38 78 44 161 19 77 -23 106 -19 133 20 53 75 -29 148 -184 162
-30 2 -75 1 -99 -4z"/>
<path d="M12375 3662 c-16 -11 -36 -26 -42 -34 -20 -24 -263 -688 -263 -718 0
-60 93 -98 139 -56 11 10 30 47 41 82 l22 64 162 0 162 0 23 -70 c18 -57 28
-73 53 -86 55 -29 118 4 118 62 0 30 -220 658 -250 713 -16 30 -69 61 -105 61
-16 0 -43 -8 -60 -18z m165 -494 c0 -5 -47 -8 -105 -8 -77 0 -105 3 -105 12 0
7 23 83 52 168 l52 155 52 -160 c29 -88 53 -163 54 -167z"/>
<path d="M11092 3647 c-14 -15 -22 -36 -22 -58 1 -61 154 -696 174 -718 10
-11 34 -25 53 -32 45 -15 112 9 135 49 9 15 44 122 78 237 35 116 66 216 69
223 4 7 38 -90 75 -215 37 -125 74 -239 83 -251 44 -70 172 -59 202 16 15 38
161 672 161 700 0 57 -86 93 -137 57 -28 -20 -34 -40 -89 -318 -26 -130 -48
-236 -49 -235 -2 2 -33 104 -69 228 -99 335 -101 340 -174 340 -65 0 -80 -28
-162 -308 -40 -139 -77 -249 -80 -245 -4 5 -28 116 -55 248 -48 243 -61 288
-90 299 -36 13 -82 6 -103 -17z"/>
<path d="M12933 3663 c-13 -2 -32 -16 -43 -30 -20 -26 -21 -36 -18 -390 4
-450 -19 -407 210 -411 88 -2 172 -1 185 3 60 15 85 93 43 135 -18 18 -33 20
-140 20 l-120 0 0 288 c0 327 -4 357 -55 378 -19 8 -36 13 -37 13 -2 -1 -13
-4 -25 -6z"/>
<path d="M13450 3663 c-8 -3 -25 -15 -37 -26 l-23 -20 0 -363 0 -363 24 -28
24 -28 180 0 c177 0 181 0 206 24 32 30 34 69 6 104 -20 26 -25 26 -143 29
l-122 3 -5 312 c-5 296 -6 313 -25 332 -22 21 -62 32 -85 24z"/>
<path d="M13938 3656 c-34 -26 -38 -63 -38 -404 0 -301 2 -341 18 -372 21 -43
66 -59 108 -39 52 25 54 35 54 412 0 365 -3 395 -45 411 -27 10 -79 6 -97 -8z"/>
</g>
</svg>
