<?xml version="1.0" encoding="utf-8"?>
<!-- Generator: Adobe Illustrator 23.0.0, SVG Export Plug-In . SVG Version: 6.00 Build 0)  -->
<svg version="1.1" id="Layer_1" xmlns="http://www.w3.org/2000/svg" xmlns:xlink="http://www.w3.org/1999/xlink" x="0px" y="0px"
	 width="394px" height="394px" viewBox="0 0 394 394" style="enable-background:new 0 0 394 394;" xml:space="preserve">
<style type="text/css">
	.st0{fill:#8078BE;}
	.st1{fill:#8982C3;}
	.st2{fill:#8A83C4;}
	.st3{fill:#9B95CC;}
	.st4{fill:#A19CCF;}
	.st5{fill:#C6C2E1;}
	.st6{fill:#C4C0E0;}
	.st7{fill:#D0462A;}
	.st8{fill:#453D82;}
	.st9{fill:#E9552D;}
	.st10{fill:#BB3F2A;}
	.st11{fill:#FECC71;}
	.st12{fill:#6A61B3;}
	.st13{fill:#FEE6BF;}
	.st14{fill:#453D83;}
	.st15{fill:#FED298;}
	.st16{fill:#FEC04F;}
	.st17{fill:#463E83;}
	.st18{fill:#0690CD;}
	.st19{fill:#FE9000;}
	.st20{fill:#AAA5D4;}
	.st21{fill:#948EC9;}
	.st22{fill:#FEA80B;}
	.st23{fill:#7F77BE;}
	.st24{fill:#F5A412;}
	.st25{fill:#40C0F9;}
	.st26{fill:#72D0FA;}
	.st27{fill:#FED299;}
	.st28{fill:#F67026;}
	.st29{fill:#07A8EF;}
	.st30{fill:#C0BCDF;}
	.st31{fill:#FDE4BE;}
</style>
<g>
	<path class="st0" d="M29.2,291.1c-0.2-1.3-0.3-2.7-1-3.9c-13.2-24.4-20.9-50.3-22.6-78C2.5,156.4,17.9,110,52.4,70
		c3.4,3,3.5,6.9,2.7,10.9c-0.6,2.8-1.6,5.5-2.4,8.3c-0.5,2,0.1,2.9,2.2,2.4c0.5-0.1-0.1,0.1,0.4-0.1c7.5-3.2,15-3.1,22.5,0
		c1.9,0.8,2.9-0.1,2.4-2.3c-0.1-0.5,0.1,0.1-0.1-0.4c-3.3-7.4-3-14.7,0-22.1c0.9-2.3,0-3.3-2.5-2.6c-2.6,0.8-5.2,1.7-7.9,2.3
		c-4.2,1-8.1,0.4-11.4-2.7c14-15.4,30.5-27.6,48.7-37.4c22.8-12.3,47.2-19.4,72.9-21.8c0.6-0.1,1.3,0,1.5-0.8c1.5,0,3,0,4.5,0
		c1.4,0.8,3,0.2,4.5,0.4c1.5-0.2,3.1,0.4,4.5-0.4c1.5,0,3,0,4.5,0c1.8,0.6,3.5,0.6,5.3,0c1.3,0,2.5,0,3.8,0c0.8,0.6,1.5,0.6,2.3,0
		c0.8,0,1.5,0,2.3,0c4.6,0.9,9.4,0.5,14,1.3c24.3,3.9,47,12,68.1,24.6c1.3,0.8,3,1.4,3.5,3.1c-0.6,1.8-2.2,1.8-3.7,2.1
		c-16.6,3.5-28.3,13-34.8,28.8c-1.9,4.7-2.1,4.8-7.1,4.9c-2.5,0-5,0-7.5,0c-6,0-5.9,0-8.2-5.5c-5.6-13.4-15.3-22.4-29-26.8
		c-21.1-6.8-44.3,2.8-54.7,22.3c-0.8,1.4-1.4,3-2.6,4.1c-4.3,2.4-9.3,2.6-14,4c-20.7,6-39.2,16-55.3,30.3
		c-25.9,22.8-41.6,51.2-47.4,85.2c-0.3,1.5-0.4,3-0.3,4.5c-3,2.2-3,4.9-1.2,7.9c-1.6,23.7,2,46.5,11.5,68.4
		c1.6,3.8,3.3,7.5,5.2,11.2c1.4,2.8,0.9,3.5-2.2,3.8c-1.6,0.2-3.3-0.1-4.8,0.4c-6,1.7-10.8,4.7-11.8,11.5
		C30.5,290.3,30.2,291.1,29.2,291.1z"/>
	<path class="st0" d="M389.1,212.3c-2,5.3-1.9,10.9-2.8,16.3c-6.7,37.8-23.2,70.6-49.3,98.6c-1.4,1.5-2.8,2.9-4.2,4.3
		c-1.9,1.7-4.3,1.2-6.4,1.2c-23.9,0-47.7,0-71.6,0c-68.4,0-136.7,0-205.1-0.1c-2.4,0-5.3,1.1-7.1-1.8c1.3-1.5,3.1-1.3,4.8-1.3
		c6.4,0,12.9-0.1,19.3,0c2-0.2,4-0.1,6-0.1c83.1,0,166.2,0,249.3,0c7.5,0,7.5,0,7.5-7.7c0-10.1,0-20.2,0-30.4c0-5-0.3-5.3-5.3-5.3
		c-26.6,0-53.2,0-79.8,0c-2.1,0-4.3,0.3-6.2-0.8c-0.5-0.3-0.6-0.7-0.5-1.2c1.9-1.6,4.3-1.1,6.5-1.1c27.2,0,54.3,0,81.5,0
		c1.5,0,3,0.1,4.5-0.1c2.6-0.4,3.6-1.6,1.8-4.1c-1.2-1.3-2.7-1.1-4.2-1.1c-6.6,0-13.2,0-19.8,0c-4.5-0.1-5-0.8-3-4.7
		c5.8-11.4,10.4-23.2,13.1-35.8c0.3-1.5,0.6-3,2.1-3.8c1.8-0.8,3.7-0.6,5.5-0.6c9.5,0,19,0.1,28.5-0.1c2.2,0,5.6,0.4,5.5-2.8
		c-0.1-3.1-3.4-2.2-5.5-2.2c-36.2-0.1-72.4,0-108.6-0.1c-2.2,0-4.5,0.4-6.6-0.8c-0.4-0.4-0.5-0.8-0.1-1.2c2-1.5,4.3-1,6.5-1
		c34.2,0,68.3,0,102.5,0c1,0,2,0,3,0c4.3-0.1,4.5-0.4,3.9-4.5c-1.6-11.6-1.6-23.1,0.1-34.7c0.3-1.8,0.4-3.7,1.6-5.3
		c1.2-1.6,4.4-2,3.4-4.7c-1-2.6-3.9-1.7-6-1.7c-6.1-0.1-12.2,0-18.3-0.1c-1.6,0-3.3,0.2-4.7-0.9c3.3-11.2,1.2-22.7,1.9-34.1
		c0.4-6.4-1-11.9-6.6-15.6c-0.6-1.6,0.6-2.3,1.6-3c12.8-8.4,20.3-20.1,22.1-35.4c0.1-1.1,0.3-2.2,1.2-3.1c2.3,0,3.1,2,4.1,3.5
		c13.1,18.7,22.8,39,28.7,61.1c2.9,11,5.2,22.1,5.2,33.6c0,0.4,0.1,0.7,0.4,1c0,1.8,0,3.5,0,5.3c-0.6,1.5-0.6,3,0,4.5
		c0,2.5,0,5,0,7.5c-0.6,1.8-0.6,3.5,0,5.3c0,1.2,0,2.5,0,3.8c-0.6,0.8-0.6,1.5,0,2.3C389.1,210.3,389.1,211.3,389.1,212.3z"/>
	<path class="st1" d="M-248.9,207.9c-1.2-1.8-1.2-3.5,0-5.3C-248.9,204.4-248.9,206.2-248.9,207.9z"/>
	<path class="st2" d="M204.6,3.8c-1.8,1.2-3.5,1.2-5.3,0C201.1,3.8,202.9,3.8,204.6,3.8z"/>
	<path class="st3" d="M-248.9,195.2c-1.1-1.5-1.2-3,0-4.5C-248.9,192.2-248.9,193.7-248.9,195.2z"/>
	<path class="st4" d="M190.3,4.5c-1.5-0.3-3.2,0.7-4.5-0.7c1.5,0,3,0,4.5,0c0.2,0.2,0.3,0.3,0.2,0.5C190.5,4.5,190.4,4.5,190.3,4.5z
		"/>
	<path class="st2" d="M190.3,4.5c0-0.2,0-0.5,0-0.7c1.5,0,3,0,4.5,0C193.5,5.2,191.9,4.3,190.3,4.5z"/>
	<path class="st5" d="M-248.9,213.9c-1.1-0.8-1-1.5,0-2.3C-248.9,212.4-248.9,213.2-248.9,213.9z"/>
	<path class="st6" d="M210.6,3.8c-0.8,1.1-1.5,1-2.3,0C209.1,3.8,209.9,3.8,210.6,3.8z"/>
	<path class="st7" d="M264,375.9c-12.7,5.3-26,8.4-39.6,10.3c-19.8,2.7-39.6,2.5-59.3-0.7c-0.8-0.1-1.7-0.5-2.5-0.7
		c-1.1-1.2-1.2-2.7-1.2-4.2c0-12.6-0.1-25.2,0-37.8c0-1.4,0.1-2.8,1-3.9c1.6-1.2,3.5-1.1,5.4-1.1c30.1,0,60.1,0,90.2,0
		c1.7,0,3.5-0.1,5.1,0.9c0.8,0.7,1.1,1.7,1.1,2.7C264.3,352.9,264.6,364.4,264,375.9z"/>
	<path class="st8" d="M263.1,339c-33.5,0-67,0-100.5,0c-1.2,1.1-2.7,1.2-4.2,1.2c-6.1,0-12.2,0.1-18.3-0.1
		c-17.4,0.2-34.9,0.1-52.3,0c-4.2,0-8.5,0-12.7,0c-1.9,0-3.7-0.1-5.4-1.2c-7.2-0.1-14.5-0.2-21.7-0.2c-13.2,0-18.7-5.4-18.7-18.5
		c0-9.7,0.1-19.5,0.1-29.2c1.1-7.5,5.2-12.1,12.6-13.6c4.8-0.2,9.6-1,14.4-1c26.2,0,52.3,0,78.5,0c16.7-0.3,33.4,0.2,50.1,0.1
		c1.1,0,2.3,0.1,3.2,0.8c1.6,2.6,1.6,5.3,0.1,8c-1.2,0.9-2.5,1-3.9,1c-39,0-78.1,0.2-117.1-0.1c-7.2,0-14.5-0.1-21.7,0
		c-5.3,0.1-7.6,2.3-7.7,7.5c-0.2,9.5,0,19-0.1,28.5c-0.1,4.1,2.9,6.1,4.9,8.8c1.2,0.9,2.7,0.5,4,0.5c93.8,0,187.5,0,281.3,0
		c1.6,0,3.2,0,4.9-0.1c1.1,1.5,2.3,3,1.2,5.1c-1,1.9-2.9,2.2-4.8,2.2c-1.5,0-3,0.1-4.5,0.2c-1.4,0.8-3,1.2-4.6,1.2
		c-11.2,0-22.4,0.1-33.6-0.1c-6.4,0.2-12.7,0.1-19.1,0.1C265.8,340.2,264.3,340.1,263.1,339z"/>
	<path class="st9" d="M87.6,339c17.5,0,35,0,52.5,0c1.3,1.4,1.2,3.2,1.2,5c0,10.1,0,20.1,0,30.2c0,1.7,0.2,3.5-1.3,4.9
		c-19.5-5.9-37.5-14.8-54-26.8C84.7,347.6,83.7,343,87.6,339z"/>
	<path class="st10" d="M140,379c0-13.3,0.1-26.7,0.1-40c7.5,0,15,0,22.5,0c0,15.3,0,30.5,0,45.8C154.9,383.7,147.3,382.2,140,379z"
		/>
	<path class="st10" d="M263.1,339c7.7,0,15.5,0,23.2,0c1,1.1,1.2,2.4,1.2,3.8c0.1,6.3,0.1,12.6,0,18.9c0,1.4-0.3,2.7-1.1,3.9
		c-6.9,4.8-14.6,7.6-22.4,10.3c-1.5-1.1-0.9-2.7-0.9-4.1C263.1,360.8,263.1,349.9,263.1,339z"/>
	<path class="st11" d="M58.2,63.7c6.5,3.7,12.7,1.6,19-0.6c1.2-0.4,2.7-1.5,3.9-0.5c1.4,1.2,0.3,2.8,0,4.2c-0.1,0.2-0.1,0.5-0.2,0.7
		c-3.4,7.1-2.8,14.2,0.2,21.2c0.5,1.2,1.3,2.7,0.2,3.8c-1.1,1.1-2.6,0.3-3.9-0.2c-7.3-3.3-14.6-3.1-22,0c-1.2,0.5-2.7,1.3-3.9,0.3
		c-1.5-1.3,0-2.8,0.2-4.2c0.3-1.6,0.7-3.2,1.4-4.6c2.2-4.8,1.4-9.4-0.8-14c0-0.1,0-0.3,0-0.4C50.5,61.9,50.5,61.9,58.2,63.7z"/>
	<path class="st9" d="M286.5,365.6c0-8.9-0.1-17.7-0.1-26.6c12.8,0,25.6,0,38.4,0.1C313.2,349.6,300.5,358.5,286.5,365.6z"/>
	<path class="st0" d="M87.6,339c-2.3,4.2-1.2,8.8-1.6,13.2c-5.8-4-11.4-8.3-16.4-13.2C75.6,339.1,81.6,339,87.6,339z"/>
	<path class="st8" d="M298.4,33.1c11.5-0.6,22.3,1.6,31.9,8.4c12.9,9.2,19.7,21.8,20.6,37.6c0,0.9,0.1,1.7,0.2,2.6
		c-0.9,11.7-4.8,22.2-12.8,31c-3.5,3.9-8,6.6-12.2,9.7c-5.1,4.6-11.6,5.4-18,6.2c-1.5,0.2-3,0.1-4.5,0c-5.1,0.2-10.1-0.2-14.8-2.1
		c-3-0.9-5.9-2.2-8.7-3.6c-5.8-3.1-10.4-7.6-14.6-12.5c-1.7-2-3.5-2.9-6.1-2.8c-7,0.1-13.9,0.1-20.9,0c-2.6,0-4.4,0.9-6.1,2.9
		c-4.3,5-9,9.6-15,12.7c-14.5,7.3-29.1,7.8-43.9,0.9c-1.2-0.6-2.5-1.1-3.6-1.8c-5.1-3.4-10-6.9-13.6-12c-0.8-1.2-2-1.8-3.4-1.9
		c-8.3-0.7-20,6.4-23.1,14.2c-0.5,1.2-0.6,2.5-0.9,3.8c-0.9,2-2.4,3.2-4.6,3.3c-4-1.6-4.7-2.9-3.9-7.6c1.8-10.2,8.8-15.8,17.6-19.7
		c2.5-1.1,5.1-1.9,7.8-2.6c1.4-0.4,3.6-0.3,3.1-2.3c-0.5-2.2,0-6-3.2-6.1c-8.4-0.2-17-1.7-25.1,1.9c-12.3,5.5-19.3,14.9-20.6,28.5
		c-0.5,5.4-2.4,7-6.7,5.7c-1-1.8-1.9-3.7-2.6-5.6c0.5-13.5,6.4-24.2,17.1-32.2c7.1-5.4,15.1-8.2,24.1-8c3.5,0.1,7-0.1,10.5,0
		c2.5,0.1,3.6-0.8,3.7-3.4c0.2-4,0.9-7.9,2.1-11.8c0.5-1.6,1-3.1,2.5-4.1C157.5,47,169,37.1,185.5,34c23.3-4.5,44.8,7.9,53.4,30.3
		c0.9,2.4,1.9,3.4,4.5,3.2c4.2-0.2,8.7,0.8,12.7-0.3c4.4-1.2,3.8-6.7,5.9-10.1c8.2-13.2,19.5-21.4,35-23.6
		C297.4,33.5,297.9,33.3,298.4,33.1z"/>
	<path class="st12" d="M150.6,62.3c-2.2,5.6-3.7,11.4-3.6,17.4c0,2.5-1.1,2.8-3.2,2.9c-7.4,0.3-14.9-1-22.3,1.3
		c-15.9,5-25.6,15.7-29.3,31.8c-0.5,2.1-0.6,4.2-0.9,6.3c-3.8,0.7-4.8-2.7-6.7-4.7c-1.4-1.5-0.8-4.8-3.3-4.9
		c-2.2-0.1-2.9,2.8-4.3,4.3c-1.6,1.6-3.3,3-5.5,3.7c-2.4,0.8-3.8,1.8-2.4,4.5c0.2,0.4-0.1,1-0.3,1.4c-1.9,2.8-2.6,5.9-2.6,9.2
		c0.1,9,0,18,0,26.9c0,8,3.7,12,11.7,12.6c3.7,0.3,7.5,0,11.2,0.1c2.5,0.1,5.1-0.3,7.6,0.5c1.8,2.4-0.8,3-1.9,3.8
		c-4.2,3.3-7.4,7.4-9.3,12.4c-4.7,12.3-1.7,24.4,7.9,33.5c1,0.9,4.2,1.6,1.5,4.1c-2.4,0.7-5,0.4-7.4,0.4c-8.5,0-17-0.1-25.4,0
		c-6.7,0.1-10.5,3.7-10.7,10.3c-0.3,10-0.2,20,0,29.9c0.1,4.5,1,5.3,5.7,5.4c16.2,0.1,32.4,0,48.6,0c8.2-0.1,16.5,0,24.7,0
		c1.4,0,2.8,0,4,0.6c0.5,0.3,0.7,0.7,0.5,1.2c-27.5,0-55.1,0.1-82.6,0.1c-3.5,0-7,0-10.5-0.1c2.4-1.6,5.1,0,7.8-1
		C43,264,37.9,251,34.8,237.2c-3-13.3-3.8-26.7-3.4-40.3c0-1.2,0.5-2.4,0.7-3.6c1.6-0.6,2.5,0.6,3.5,1.5c1.9,1.7,3.1,3.9,4,6.2
		c0.7,2,2,2.8,3.4,0.8c2.6-3.5,5.6-6.3,9.8-7.7c1.5-0.5,2-1.8,0.6-2.8c-3.7-2.9-6.8-6.1-8.5-10.6c-0.7-1.8-2-0.8-2.9,0.2
		c-1.4,1.6-2.5,3.4-4.2,4.7c-1.2,1-2.4,2.3-4.3,1.3c-2.1-2.8-0.3-5.6,0.2-8.2c4.7-24.8,15.1-47.1,31.4-66.4
		c20.3-24.1,45.9-40.1,76.6-47.8C144.8,63.7,147.7,63,150.6,62.3z"/>
	<path class="st13" d="M33.7,186.8c3.8-0.7,5.6-3.9,7.7-6.6c2.4-3.1,3.4-3.1,4.7,0.4c1.5,4,4,7,7.5,9.4c3.3,2.3,3.2,3.3-0.3,4.7
		c-4.1,1.6-7.2,4.2-9.7,7.8c-2.1,3.1-3.1,2.9-4.5-0.5c-1.5-3.6-3.1-7.1-7-8.8c-0.4-0.4-0.8-0.9-1.3-1.3c-2.1-1.7-2-2.9,0.6-4
		C32.2,187.7,32.9,187.2,33.7,186.8z"/>
	<path class="st13" d="M238,285c29.6,0,59.2,0,88.8-0.1c3.1,0,4,0.8,3.9,3.9c-0.2,12.9-0.1,25.7,0,38.6c0,2.4-0.4,3.5-3.2,3.5
		c-86.5-0.1-173.1-0.1-259.6-0.1c-0.4,0-0.7-0.1-1.1-0.1c-3-2.4-4.2-6.2-3.2-9.6c0.5-1.7,1.6-2.4,3.2-2.7c1.6-0.2,3.2-0.2,4.9-0.2
		c24.6,0,49.2,0,73.8,0c1.6,0,3.2,0.1,4.9-0.2c1.2-0.2,2.3-0.5,2.3-1.9c0.1-1.4-1-2-2-2.4c-1.9-0.7-3.9-0.6-5.9-0.6
		c-23.7,0-47.5,0-71.2,0c-1.4,0-2.7,0-4.1,0c-5.2-0.1-6.4-1.4-6-6.6c0.2-3.6,1.1-4.5,4.9-4.7c1-0.1,2,0,3,0c36.8,0,73.7,0,110.5,0
		c1.7,0,3.5-0.1,5.2,0.2c2.3,1.2,4.5,0.8,6.8,0c4.6-0.2,9.1,0,13.7-0.1c1.7-0.1,3.9,0.1,4-2.3c0.1-2.2-1.9-2.5-3.6-2.9
		c-1.2-0.3-2.5-0.2-3.6-0.8c-0.6-0.5-0.4-1.1-0.1-1.6c0.5-0.8,1.2-1.2,1.9-1.8c6.8-5.2,6.8-5.2,13.8-0.3c4.2,3,8.5,5.7,12.6,8.8
		c1.1,0.8,2.2,2.2,3.6,1.5c1.3-0.7,0.7-2.5,0.7-3.8c0.1-3.4-0.1-6.7,0.1-10.1C236.7,287.3,236.2,285.7,238,285z"/>
	<path class="st13" d="M356.8,180.1c-3.1,13.3-3,26.7-1.2,40.2c0.1,0.5,0.2,1,0.3,1.5c0.9,3.2,0.1,4.3-3.6,4.3
		c-36.4-0.2-72.7-0.1-109.1-0.1c-1.6,0-3.2,0.1-4.9,0.1c-0.4-0.3-0.6-0.7-0.8-1.2c-0.6-5-0.2-10-0.2-14.9c0-2.6,1.4-3.8,3.9-4
		c1.6-0.1,3.2-0.1,4.9-0.1c24.6,0,49.2,0,73.7,0c1.7,0,3.5,0.1,5.2-0.3c1.2-0.3,2.1-0.9,2.1-2.2c0-1.3-1-1.9-2.1-2.2
		c-1.7-0.4-3.5-0.3-5.2-0.3c-26,0-51.9,0-77.9,0c-1.5,0-3,0-4.5-0.1c-16.3,0.1-32.7,0.2-49,0c-6.1,0.1-12.2,0-18.4,0
		c-1.2,0-2.5,0-3.7,0.2c-1.4,0.3-2.4,0.9-2.3,2.4c0,1.5,1,2.2,2.4,2.4c1.7,0.3,3.5,0.2,5.2,0.2c4,0,8,0,12,0c1.6,0,3.3-0.1,4.6,1
		c1,1.9,1.1,3.7-0.1,5.5c-1.5,1.1-3.3,1-5.1,1c-21.1,0-42.2,0-63.3,0c-5.5,0-6.7-1.1-7.6-6.6c-0.5-3.2-0.4-6.5,0.4-9.7
		c0.6-2.5,2.1-3.9,4.7-4c1.6-0.1,3.2-0.1,4.9-0.1c23.7,0,47.5,0,71.2,0c1.5,0,3,0.1,4.5-0.1c1.6-0.2,3.5-0.4,3.5-2.6
		c0-2-1.8-2.1-3.3-2.3c-1.6-0.2-3.2-0.1-4.9-0.1c-22.2,0-44.5,0-66.7,0c-1.5,0-3,0.1-4.5-0.1c-1.2-0.2-2.6-0.2-3.1-1.6
		c-0.4-1.4,0.6-2.4,1.4-3.3c1.4-1.4,3.1-2.5,4.8-3.5c1.8-0.6,3.7-0.4,5.6-0.4c73.3,0,146.7,0,220,0c1.9,0,3.8-0.3,5.5,0.6
		C356.5,179.7,356.7,179.9,356.8,180.1z"/>
	<path class="st14" d="M95.9,228.6c-8.2-6.2-13.2-14.2-13.5-24.6c-0.3-12,5.2-21,15-27.6c1.7-2.8,5-2.7,7.5-4.1
		c6.8-1.7,13.7-0.5,20.5-0.9c1,0,2,0.1,3,0c10-0.2,19.9-0.2,29.9,0c34.9-0.2,69.8-0.2,104.8,0c8.5-0.2,17-0.2,25.5,0
		c5.1-0.1,10.1-0.1,15.2,0c7.7-0.2,15.3-0.1,23-0.1c1.4,0,2.7,0,3.9,0.9c8.5,0.1,16.9,0.2,25.4,0.2c2.3,0,4.8-0.3,5.3,2.7
		c0.6,3.3-1.8,4.2-4.4,4.9c0,0,0,0,0,0c-1.1-0.8-2.4-0.4-3.6-0.4c-75,0-149.9-0.1-224.9,0.1c-5.5,0-11.2,0.2-16.7,1
		c-10.5,1.7-17.7,7.3-20.1,17.9c-2.7,11.8,5.6,23.8,17.5,25.9c6,1.1,12,0.9,17.9,0.9c18.6,0,37.2,0,55.9,0c1.9,0,4.1-0.5,5.7,1.2
		c0.9,2.6,1.3,5.1-0.3,7.6c-1.2,0.8-2.6,0.9-3.9,0.9c-9.9,0-19.8,0.2-29.7-0.1c-6.5,0.1-13,0.2-19.4,0c-9.3-0.1-18.5,0.6-27.7-0.9
		C103.2,232.9,98.6,232.7,95.9,228.6z"/>
	<path class="st15" d="M188,303.1c-39.9,0-79.7,0.1-119.6-0.1c-3.9,0-4.1,1.6-4.1,4.6c0,3.2,0.5,4.6,4.2,4.6
		c26.4-0.2,52.7-0.1,79.1-0.1c1.8,0,3.5,0,5,1c1.4,0.9,2,2.2,1.7,3.8c-0.4,1.7-1.5,2.6-3.2,2.6c-1,0-2,0-3,0c-26.1,0-52.2,0-78.3,0
		c-5.5,0-6.9,1.9-5.1,7.2c0.5,1.4,1.3,2.7,2,4c-8,0.1-16,0.1-24,0.2c-4.5-1.7-6-3.7-6-8.3c0-9.8-0.1-19.7,0-29.5
		c0-5.5,2.9-8.3,8.3-8.3c7.2,0,14.4,0.1,21.7,0.2c0.9,1.5,0,2.9-0.4,4.3c-1.1,4-0.5,4.9,3.8,5c1.2,0,2.5,0,3.7,0
		c36,0,71.9,0,107.9,0c2.2,0,4.5-0.4,6.6,1C189.6,298,189.9,300.6,188,303.1z"/>
	<path class="st9" d="M188,303.1c0-2.5,0-5,0-7.6c-1.7-3.6-1.5-7.1,0-10.7c0-2.4,0-4.9,0-7.3c-0.3-0.4-0.6-0.8-0.7-1.3
		c-0.7-9.5-0.2-19.1-0.3-28.7c-0.1-3,0-6,0-8.9c0-1.6,0-3.2,1.1-4.6c0-2.5,0-5,0-7.5c0.2,0,0.4,0,0.6,0c1.2,0.8,1.1,2.1,1.5,3.3
		c3.3,9.9,12.8,17,22.9,16.9c10.5-0.1,19.7-7,22.9-17.2c0.4-1.2,0.6-2.4,1.4-3.4c0.3-0.3,0.7-0.3,1-0.1c0,0,0.1,0.3,0.1,0.3
		c0,0.2,0,0.4,0,0.6c1.7,2.4,1,5.1,0.6,7.7c-0.5,1.7-0.4,3.5-0.4,5.2c0.1,13.5-0.2,27,0.1,40.4c0,1.5,0,3-0.7,4.4
		c-0.1,0.2-0.2,0.5-0.1,0.7c-0.1,5.5-0.1,11-0.2,16.4c0,1,0.3,2.1-0.7,2.8c-1.2,0.8-2.1-0.2-3-0.8c-6.4-4.4-12.7-8.7-19-13.2
		c-1.5-1.1-2.7-1.3-4.2-0.1c-2.3,1.9-4.8,3.6-7.2,5.3c-2.8,3.5-6.6,5.6-10.5,7.4C191.4,302.9,189.8,306.5,188,303.1z"/>
	<path class="st16" d="M330.6,172.3c-9,0-18,0.4-26.9-0.2c-1.4-1.4-1.2-3.2-1.2-4.9c0-11.4,0-22.7,0-34.1c0-1.7-0.2-3.5,1.2-4.9
		c7.8-0.5,15.3-2.3,22.4-5.7c5.7,2.8,7.8,7.4,7.6,13.7c-0.3,9.2-0.1,18.5-0.1,27.7C333.6,167,332.9,169.9,330.6,172.3z"/>
	<path class="st12" d="M319.4,234.1c-2.5,15-8.2,28.8-15.4,42.7c7.1,0,13.8-0.1,20.6,0c2.5,0,5.2-0.8,7.6,0.7
		c-1.4,1.4-3.2,1.2-4.9,1.2c-22.3,0-44.6,0-66.9,0c-1.5,0-3,0-4.4-0.8c-0.5-0.3-0.6-0.7-0.5-1.2c1.6-1.4,3.5-1.1,5.4-1.1
		c7.6,0,15.2,0,22.8,0c4.4,0,5.2-0.7,5.2-4.9c-0.2-11.6,0.8-23.2-0.5-34.8c-0.1-0.7-0.1-1.5,0.4-2.1c10-1.6,20-1.3,30.1-0.2
		C319,233.6,319.2,233.9,319.4,234.1z"/>
	<path class="st14" d="M319.4,234.1c-10.2,0-20.5,0-30.7,0c-1.2,1.2-2.7,1.2-4.2,1.2c-9.5,0-19,0.2-28.5-0.1
		c-5.6-0.1-11.2,0.5-16.7-0.4c-0.5-0.2-0.8-0.5-1.1-0.9c0.1-2.4,0.2-4.8,0.2-7.3c39.6,0,79.2-0.1,118.8-0.1c2.2,0,3.7,0.7,4,3
		c0.3,2.3-1,3.5-3,4.1c-1.2,0.3-2.5,0.4-3.7,0.4C342.9,234,331.1,234,319.4,234.1z"/>
	<path class="st17" d="M255.5,277.5c25.5,0,51.1,0,76.6,0c1.9,1,2.8,2.6,2,4.7c-0.8,2.2-2.7,2.1-4.7,2.1c-30.5,0-60.9,0-91.4,0
		c-0.7-5.2-0.4-10.4-0.4-15.7c0-10.5,0.1-21,0.1-31.4c0-1.1-0.2-2.3,0.4-3.3c0,0,0.2,0.2,0.2,0.2c1.4,1.6,1.1,3.5,1.1,5.4
		c0,10.3,0,20.7,0,31c0,5.8,0.1,5.8,5.8,5.9C248.7,276.5,252.3,275.5,255.5,277.5z"/>
	<path class="st14" d="M355.9,260.1c-0.1,1.3-1.1,1.7-2,2c-4.4,1.3-7.5,4.1-10.1,7.8c-2.2,3.2-3.6,3-4.7-0.5
		c-1.4-4.3-4.3-7.1-7.9-9.6c-2.2-1.6-3-3.1,0.5-4.2c4.2-1.4,7.2-4.2,9.7-7.8c2.3-3.2,3.5-3,4.7,0.5c1.3,3.8,3.6,6.8,7,8.9
		C354.3,257.9,355.4,258.7,355.9,260.1z"/>
	<path class="st13" d="M188,284.8c0,3.6,0,7.1,0,10.7c-40,0-80.1,0-120.1,0c-3.5,0-4.5-1.5-3.4-5.4c0.5-1.8,1.4-3.5,2.1-5.2
		c1.6-0.1,3.2-0.2,4.9-0.2C110.3,284.8,149.2,284.8,188,284.8z"/>
	<path class="st18" d="M188,276.8c0.1,0.2,0.1,0.5,0,0.7c-17.7,0-35.4,0-53,0c-0.1-0.2-0.1-0.4-0.2-0.6c-1.2-1.5-1.1-3.3-1.1-5
		c0-11,0-21.9,0-32.9c0-1.7-0.1-3.5,1.2-5c6.5,0,13,0,19.5,0c1.4,1.6,1.2,3.5,1.2,5.3c0,9.9,0,19.7,0,29.6c0,6.7,0,6.7,6.5,6.7
		c7,0,14,0,21,0C184.7,275.6,186.6,275.4,188,276.8z"/>
	<path class="st19" d="M263.1,172.1c-1,0.1-2,0.2-3,0.2c-33,0-65.9,0-98.9,0c-1,0-2-0.2-3-0.2c0.2-0.4,0.5-0.8,1-1
		c2.7-0.8,5.4-0.4,8.2-0.5c4.1-0.1,4.5-0.4,4.5-4.5c0.1-12.4,0-24.9,0-37.3c0-1.9-0.4-4,1.2-5.7c12.6,5.6,25.5,6.5,38.5,1.5
		c2-0.8,3.9-1.7,5.8-2.6c9.6-1.8,19.3-0.7,28.9-0.7c0.6,0,1.2,0.3,1.7,0.6c1.5,1.7,1.2,3.7,1.2,5.7c0,11.8,0,23.7,0,35.5
		c0,7.4,0,7.4,7.3,7.5c1.9,0,3.7-0.2,5.6,0.5C262.6,171.3,262.9,171.6,263.1,172.1z"/>
	<path class="st20" d="M173.9,46.6c13.5-8.3,27.3-8.1,40.7-0.4c17.1,9.8,24.1,31.1,16.8,49.4c-1,2.6-2.4,3.9-5.5,3.8
		c-9.1-0.3-18.2-0.2-27.3-0.2c-15-5.6-23-17-26.3-32.1C170.8,60.1,170.7,53.2,173.9,46.6z"/>
	<path class="st20" d="M283.3,46.3c12.6-7.6,25.5-7.7,38.5-1.2c18.5,9.3,26.6,32.4,18.4,50.9c-1.1,2.4-2.3,3.3-5,3.3
		c-9.2-0.2-18.5-0.2-27.7-0.2c-15.6-6.3-23.6-18.3-26.4-34.4c-0.8-4.2-0.6-8.4,0-12.6C281.3,50,281.7,47.9,283.3,46.3z"/>
	<path class="st16" d="M158.3,171.8c0,0-0.1,0.3-0.1,0.3c-10,0.4-20,0.4-30.1,0c-6.8-3.3-10.7-9-12.3-16c-1.9-8.1-1.1-16.1,4.1-23.2
		c1.2-1.6,2.4-3.2,4.5-3.8c1.7-0.5,3.2-1.2,3.9-3c1.1-2.4,3.6-2.8,5.7-3.5c1.3-0.4,2.6-0.7,3.8-1.2c7-1.4,14-1.6,20.7,1.2
		c0.8,1.4,0.8,2.9,0.8,4.4c0,13.4,0,26.9,0,40.3C159.3,168.8,159.4,170.4,158.3,171.8z"/>
	<path class="st16" d="M263.1,172.1l-0.1-0.3c-1.1-1.4-1.1-3-1.1-4.6c0-13.4,0-26.8,0-40.2c0-1.6-0.1-3.2,0.9-4.7
		c5.8-2.1,11.6-1.4,17.5-0.2c2.8,1.2,5.6,2.4,8.4,3.6c1.2,1.5,1.1,3.2,1.1,5c0,12.2,0,24.3,0,36.5c0,1.7,0.2,3.5-1.2,4.9
		C280.1,172.6,271.6,172.5,263.1,172.1z"/>
	<path class="st21" d="M173.9,46.6c-0.5,3.7-1.4,7.3-1.4,11c0.1,18.1,8.1,31.5,24.1,40.1c0.7,0.4,1.4,1,2.1,1.5
		c-12.3,0-24.7,0.1-37,0.1c-1.4,0-2.6-0.1-3.4-1.7C149.1,78.5,157.2,55.6,173.9,46.6z"/>
	<path class="st21" d="M283.3,46.3c-6.2,20.8,4,41.9,22,51.3c0.8,0.4,1.4,1,2.1,1.5c-12.2,0-24.5,0-36.7,0.1c-1.7,0-2.8-0.4-3.6-2
		C258.5,79.2,265.8,55.4,283.3,46.3z"/>
	<path class="st12" d="M99,121.8c0-16.1,15.3-31.6,31.2-31.8c4.9,0,9.7,0.1,14.6-0.1c2.1-0.1,3.3,0.4,3.9,2.8
		c1.6,6.5,1.8,6.5-4.6,8.3c-7.5,2.1-14.1,5.5-19,11.8c-2.2,2.8-3.7,5.9-4,9.5c-5.4,2-11,0.9-16.5,0.8
		C102.8,122.6,100.7,122.9,99,121.8z"/>
	<path class="st22" d="M104.2,122.2c5.7,0,11.4-0.4,17,0.3c-0.9,3.2,0,5.5,3.2,6.6c-4.9,5.3-8.2,11.2-8.4,18.9
		c-0.3,9.6,3.6,16.8,10.6,22.7c0.6,0.5,1.1,1,1.6,1.5c-4.7,0.1-9.4,0.2-14.1,0.2c-3.4,0-6.7,0.5-9.9,1c-1.4-1.4-1.2-3.2-1.2-4.9
		c0-13.8,0-27.6,0-41.3C102.9,125.4,102.7,123.5,104.2,122.2z"/>
	<path class="st19" d="M104.2,122.2c0,17.1,0,34.1,0,51.2c-2.2,1-4.5,2-6.7,3c-2.7-0.1-5.5-0.3-8.2-0.4c-1-0.9-1.1-2.2-1.2-3.4
		c-0.1-14-0.2-28,0.1-42c0-0.5,0.1-1,0.3-1.5c0.9-1.9,2.2-3,4.5-2.5c4.4,1.2,5.7,0.2,6.2-4.7C100.7,121.9,102.5,121.3,104.2,122.2z"
		/>
	<path class="st22" d="M158.3,171.8c-0.1-16.5-0.1-33-0.2-49.5c3.9-2,8-0.9,12.1-0.6c1,0.5,2,1,2.9,1.5c0,15-0.1,29.9,0.1,44.8
		c0,3.2-0.9,4.2-4,3.9C165.6,171.6,162,171.8,158.3,171.8z"/>
	<path class="st12" d="M280.3,122.1c-5.7,0.1-11.4,0.1-17.1,0.2c-5,2.3-10.1,1.2-15.1,0c-10.2-0.1-20.4-0.1-30.6-0.2
		c6-3.7,11.2-8.3,15.3-13.9c0.9-1.2,2.1-1.5,3.6-1.5c8.3,0,16.7,0,25,0c1.5,0,2.7,0.3,3.6,1.6C269.2,113.8,274.3,118.4,280.3,122.1z
		"/>
	<path class="st19" d="M288.6,172.1c0-15.5,0-30.9,0.1-46.4c4.9,1.5,9.9,1.9,15,2.4c0,14.7,0,29.3,0,44
		C298.6,172.5,293.6,172.5,288.6,172.1z"/>
	<path class="st21" d="M165.1,107.3c1.2-1,2.3-0.6,3.4-0.6c17.1,0,34.2,0,51.3,0c1.1,0,2.6-0.6,3.1,0.5c0.6,1.4-1.1,2-1.9,2.8
		c-13.4,12.9-37,13.7-51.2,1.8C168.2,110.5,166.1,109.5,165.1,107.3z"/>
	<path class="st21" d="M332.4,107.3c-1.6,3-4.5,4.7-7.2,6.6c-15,10-36.4,8.2-48.8-4.1c-0.7-0.7-2.2-1.3-1.6-2.6
		c0.5-1,1.8-0.5,2.8-0.5c17.5,0,35,0,52.5,0C330.8,106.7,331.6,106.4,332.4,107.3z"/>
	<path class="st12" d="M170.2,121.6c-4,1.1-8.1,0-12.1,0.6c-7-0.3-14-1.2-20.9,0c-2.8,0.3-5.6,2.1-8.3-0.1c2-6.6,7.3-9.8,13.1-12.3
		c1.6-0.7,3.3-1.1,5-1.6c4.9-1.5,8.9-1.5,12,3.8C161.5,116.2,166.3,118.5,170.2,121.6z"/>
	<path class="st13" d="M92.8,126.5c-1.2,0.6-2.5,1.2-3.7,1.8c-2.7,2.2-5.1,4.6-7.3,7.3c-2.6,3.1-4.7,2.9-5.9-0.8
		c-1.3-4.1-4.8-6.5-7.1-9.7c-2.5-2-2.8-3.7,0.7-4.8c4.2-1.3,7.1-4.2,9.6-7.8c2.1-3,3-2.8,4.5,0.5c1.6,3.8,3.3,7.6,7.7,9
		C91.5,123.6,94.8,124.1,92.8,126.5z"/>
	<path class="st12" d="M248.7,99.1c-2.6,0-5.2,0-7.9,0c-0.7,0-2-0.2-2-0.5c-0.4-2.4,1.3-4.4,1.6-6.7c0.2-1.3,1-1.9,2.3-1.9
		c4,0,8,0.1,12,0c2.4-0.1,2.5,1.6,3,3.1c1.7,6,1.7,6-4.5,6C251.7,99.1,250.2,99.1,248.7,99.1z"/>
	<path class="st23" d="M242.1,75c3.6,0,7.2,0.1,10.8-0.1c3.2-0.2,4,1.1,3.1,3.9c-0.3,0.9-0.3,2-0.4,2.9c-1.3,0.7-2.7,0.5-3.9-0.2
		C248.4,79.6,244.2,78.9,242.1,75z"/>
	<path class="st12" d="M242.1,75c4.4,2.4,8.2,6.1,13.5,6.8c-4,1.5-8.2,1.2-12,0.4C240.9,81.5,240.8,77.9,242.1,75z"/>
	<path class="st24" d="M128.9,122.1c2.8,0,5.5,0.1,8.3,0.1c-2.9,1.5-6.2,1.9-8.9,3.8C128.5,124.7,128.7,123.4,128.9,122.1z"/>
	<path class="st25" d="M95.9,228.6c3.3,2,6.9,3.3,10.5,4.6c-2,11.4-0.7,22.9-1.2,34.4c-0.1,3.1,0.8,6.1,0.4,9.2
		c-16.6,0-33.2,0.1-49.7,0.1c-4.8,0-5.7-0.8-5.8-5.6c-0.1-6,0-12,0-18c0-4.5-0.1-9,0-13.5c0.1-6.7,4.7-11.2,11.4-11.2
		C73,228.6,84.5,228.6,95.9,228.6z"/>
	<path class="st26" d="M105.7,276.8c-1.3-2-1.6-4.1-1.6-6.4c0.1-9.2,0.1-18.4,0-27.6c-0.1-3.5,0.5-6.7,2.3-9.6
		c9.5,1.1,19,0.4,28.5,0.8c0,14.3-0.1,28.5-0.1,42.8C125.1,276.8,115.4,276.8,105.7,276.8z"/>
	<path class="st22" d="M68.8,125.1c4.1,2,6.3,5.4,7.9,9.4c1.3,3.4,2.2,3.4,4.5,0.6c2.2-2.7,3.9-6.2,8-6.8c0,15.9,0,31.8,0,47.7
		c-3.9,0-7.7,0.2-11.6,0.1c-8-0.2-12.4-4.8-12.4-12.8c0-9.7,0-19.5,0-29.2C65.1,130.6,66,127.5,68.8,125.1z"/>
	<path class="st27" d="M255.8,319.6c-14.5,0-29,0-43.5,0c-2.6,0-5.5,0.2-5.4-3.4c0.1-3.4,2.8-4,5.6-4.1c8,0,16,0,24,0
		c20.1,0,40.2,0,60.3,0c1,0,2-0.1,3,0c2.3,0.4,4.5,1.2,4.5,4.1c0,3.1-2.3,3.4-4.7,3.4C285,319.6,270.4,319.6,255.8,319.6z"/>
	<path class="st27" d="M193.2,302.9c3.2-2.9,6.8-5.2,10.5-7.4c2.2,0.2,4.4-0.1,6.6,0.8c1.9,0.7,2.9,1.9,2.6,3.9
		c-0.3,2.1-1.7,2.9-3.7,2.9C203.8,303,198.5,303,193.2,302.9z"/>
	<path class="st15" d="M188.1,226.4c-24.1,0-48.2-0.1-72.4-0.1c-8,0-15.1-2.1-20.4-8.5c-5.8-7.1-7.2-15.1-3.8-23.5
		c3.5-8.6,10.1-13.4,19.4-14.5c4.8-0.1,9.5-0.7,14.3,0.3c-1.7,1.5-3.3,3-5,4.5c-0.4,0.4-1,0.9-0.7,1.6c0.3,0.7,1,0.6,1.6,0.6
		c0.9,0,1.7,0,2.6,0c24.6,0,49.2,0,73.9,0c2.4,0,4.9-0.1,5.5,3.2c0.4,2.3-0.7,3.6-2.8,4.1c-1.2,0.3-2.5,0.2-3.7,0.2c-26,0-52,0-78,0
		c-2.9,0-4.4,0.3-5,3.8c-0.6,4.1-0.3,7.9,0.4,11.8c0.4,2.3,2,2.4,3.9,2.4c23.4-0.1,46.7-0.1,70.1-0.1c1.8,2.5,1.5,5,0.3,7.6
		c-1.9,1.4-4,1-6.1,1c-18.2,0-36.4,0-54.6,0c-1.5,0-3-0.2-4.7,0.5c1.7,2.9,4.4,3.1,7.1,3.1c10.8,0.1,21.7,0,32.5,0
		c6.6,0,13.2,0,19.8,0c1.7,0,3.5-0.2,5.2,0.6C188.1,225.5,188.2,225.9,188.1,226.4L188.1,226.4z"/>
	<path class="st28" d="M188.1,226.4c0-0.2-0.1-0.4-0.2-0.6c-1.2-2-1.2-4,0-5.9c0-2.5,0-5,0.1-7.6c0-1.7,0-3.5,0-5.2
		c-1.4-2.5-1.5-5,0.2-7.5c16.5,0,32.9,0,49.4,0c1.2,1.3,1.5,3,1.1,4.6c-1.4,6.5-0.5,13.2-0.7,19.7c0,0.6,0,1.2-0.3,1.8
		c-1.6,10.3-7.3,17.3-17.1,20.6c-9.8,3.3-18.3,0.4-25.6-6.5C191.2,236.1,189.5,231.3,188.1,226.4z"/>
	<path class="st15" d="M237.7,225.7c0-8.7,0-17.4-0.1-26.1c28.6,0,57.2,0,85.7,0c1,0,2,0,3,0.2c1.8,0.4,2.8,1.7,2.8,3.5
		c0,1.8-1,3.1-2.8,3.5c-1.2,0.3-2.5,0.2-3.7,0.2c-26.7,0-53.4,0.1-80.1-0.1c-3.4,0-4.3,0.9-4.1,4.2c0.3,4.9,0,9.7,0,14.6
		C238.1,225.8,237.9,225.8,237.7,225.7z"/>
	<path class="st15" d="M188.2,199.6c-0.1,2.5-0.1,5-0.2,7.5c-6.9,0-13.7-0.1-20.6,0c-2.6,0-4.8-0.4-4.8-3.7c0-3.2,1.9-3.9,4.7-3.9
		C174.3,199.6,181.2,199.6,188.2,199.6z"/>
	<path class="st0" d="M125.2,180.1c-4.8-0.1-9.5-0.2-14.3-0.3c1.2-0.9,2.7-0.5,4-0.5c79.2,0,158.5,0,237.7,0c1.4,0,3-0.7,4.2,0.7
		c-15.6,0-31.2-0.1-46.9-0.1c-60,0-119.9,0-179.9,0C128.5,180,126.8,180.1,125.2,180.1z"/>
	<path class="st29" d="M188,276.8c-9.6,0-19.2,0-28.8,0c-4.8,0-4.8,0-4.8-4.9c0-12.6,0-25.2,0-37.8c11.2,0,22.4,0,33.7,0
		C188,248.2,188,262.5,188,276.8z"/>
	<path class="st26" d="M255.6,234c11,0,22,0,33,0c1.2,2.4,1.5,4.9,1.5,7.6c-0.1,9.8,0,19.7,0,29.5c0,5.4-0.4,5.8-5.7,5.8
		c-9.6,0-19.2,0-28.8-0.1c-1.5-1.4-1.3-3.2-1.3-4.9c0-11,0-22,0-32.9C254.4,237.3,254.4,235.5,255.6,234z"/>
	<path class="st18" d="M255.6,234c0,14.3,0.1,28.5,0.1,42.8c-0.1,0.2-0.1,0.4-0.1,0.6c-4.5,0-9-0.2-13.5,0c-2.9,0.1-3.9-0.7-3.8-3.7
		c0.2-13.2,0.2-26.5,0.2-39.7C244.2,234.1,249.9,234.1,255.6,234z"/>
	<path class="st22" d="M248.1,122.2c5-0.5,10.1,0,15.1,0c-0.1,16.5-0.1,33-0.2,49.6c-3.9,0-7.7-0.1-11.6,0.1
		c-2.7,0.1-3.4-0.9-3.4-3.4C248.2,153,248.1,137.6,248.1,122.2z"/>
	<path class="st30" d="M201.6,51.1c2.2,0.2,5.2,1.5,7.8,3.5c5.8,4.4,10.5,9.5,12.1,16.9c0.7,3.4-1.6,6.4-5.1,6.6
		c-4.3,0.3-7.6-2-10.8-4.4c-5.3-4-9.5-8.8-11-15.5C193.7,53.9,196.1,50.9,201.6,51.1z"/>
	<path class="st30" d="M326.3,78.1c-4.5,0-7.6-2.3-10.6-4.5c-5.4-4.1-9.5-9.1-11-15.9c-0.7-3.4,1.7-6.4,5.1-6.6
		c1.9-0.1,3.8,0.2,5.4,1.1c8,4,14,9.9,16.3,18.8C332.7,75.2,330.2,78.2,326.3,78.1z"/>
	<path class="st31" d="M188,219.8c0,2,0,4,0,5.9c-19.6,0-39.2,0-58.7,0c-1.5,0-3,0.3-4.3-0.6c-1.8-1.3-4.8-2.5-4.4-4.5
		c0.4-1.8,3.5-0.8,5.4-0.8C146.6,219.8,167.3,219.8,188,219.8z"/>
</g>
</svg>
