<?xml version="1.0" encoding="utf-8"?>
<!-- Generator: Adobe Illustrator 23.0.0, SVG Export Plug-In . SVG Version: 6.00 Build 0)  -->
<svg version="1.1" id="Layer_1" xmlns="http://www.w3.org/2000/svg" xmlns:xlink="http://www.w3.org/1999/xlink" x="0px" y="0px"
	 width="562.7px" height="397.3px" viewBox="0 0 562.7 397.3" style="enable-background:new 0 0 562.7 397.3;" xml:space="preserve"
	>
<style type="text/css">
	.st0{fill:#2CB2CD;}
	.st1{fill:#FFFFFF;}
	.st2{fill:#3F52A4;}
	.st3{fill:#81CAC9;}
	.st4{fill:#FDDA45;}
	.st5{fill:#2577BB;}
	.st6{fill:#2677B9;}
	.st7{fill:#EF4579;}
	.st8{fill:#F6882F;}
	.st9{fill:#F68830;}
	.st10{fill:#E83325;}
	.st11{fill:#9F4C9D;}
	.st12{fill:#15AD4B;}
</style>
<path class="st0" d="M544.8,308c-5-2.5-5.8-4.1-4.6-9.7c2.2-10.3-1-20.9-8.5-27.6c0,3.9,0.5,7.6,0.1,11.2
	c-1.4,10.4-8.3,18.3-18.3,20.7c-9.7,2.3-19.6-1.5-25.3-9.7c-6.3-9.2-5.5-20.5,2.2-30.7c2.9-3.9,6.5-7.2,10.8-9.3
	c3.6-1.7,2.1-2.5-0.1-3.8c-14.1-8.7-29.3-12.7-45.8-12c-4.7,0.2-7.6-1.9-7.7-5.7c-0.1-3.7,2.6-6.1,7.3-6.3c25-0.8,47,7,65.6,23.8
	c2.2,2,4.6,3.5,7.3,4.7c18.5,8.1,28.5,28,24.1,47.7c-0.5,2.3-1.6,4.1-2.9,5.8C547.6,307.3,546.2,307.7,544.8,308z"/>
<path class="st1" d="M520.4,269c0.9,4,1.1,7.3,0.4,10.5c-1.4,7.1-8.2,11.4-15.1,9.4c-6.8-1.9-10.3-9.2-7.8-16
	c1.9-4.9,5.1-8.6,9.6-11.3c5.2-3,8.5-2.1,11.2,3.1C519.6,266.4,520.3,268,520.4,269z"/>
<path class="st2" d="M185,78.1c-6.6,0-12.1-5.6-12-12.1c0.1-6.6,5.7-11.9,12.3-11.8c6.4,0.1,11.8,5.6,11.8,12
	C197.1,72.8,191.6,78.1,185,78.1z"/>
<path class="st3" d="M342.6,34.8c-6.6,0-12.1-5.6-12-12.1c0.1-6.6,5.7-11.9,12.3-11.8c6.4,0.1,11.8,5.6,11.8,12
	C354.7,29.4,349.3,34.8,342.6,34.8z"/>
<path class="st4" d="M141.1,182.7c-5.4-3.4-10.2-6.1-14.7-9.3c-2.3-1.6-4.1-1.5-6.4-0.4c-5,2.3-10,4.4-15.8,6.9
	c1.4-5.6,2.4-10.6,3.9-15.5c1-3.3,0.8-5.7-1.8-8.4c-3.5-3.7-6.4-8.1-9.5-12.1c4.8-0.3,10.3-0.9,15.8-1.1c2.6-0.1,4.3-0.9,5.6-3.3
	c2.6-4.8,5.6-9.4,8.8-14.9c2.3,5.6,4.5,10.5,6.2,15.5c1,2.9,2.6,4.2,5.7,4.8c5.2,0.9,10.4,2.3,15.4,3.4c-4.1,3.8-7.9,7.7-12.2,11
	c-2.6,2-2.9,4.1-2.6,6.9C140.1,171.5,140.5,176.7,141.1,182.7z"/>
<path class="st5" d="M158.2,302.2c6,0,8.9,1.9,8.9,6c-0.1,4-3,6-9,6c-1.4,0-2.8,0-4.2-0.3c-3.2-0.7-4.8-2.9-4.8-6
	c0-3,2.4-5.4,5.6-5.6C155.9,302.1,157.1,302.2,158.2,302.2z"/>
<path class="st6" d="M167.2,293.1c0-1.1-0.1-2.1,0-3.2c0.2-3.4,2.5-5.8,5.8-5.9c3.1-0.1,5.8,2.2,6.1,5.6c0.2,2,0.1,4,0.1,6
	c-0.2,3.9-2.6,6.4-6,6.4c-3.4,0-5.8-2.6-5.9-6.5C167.1,294.7,167.1,293.9,167.2,293.1C167.1,293.1,167.2,293.1,167.2,293.1z"/>
<path class="st6" d="M167.2,323c0-1.1-0.1-2.1,0-3.2c0.2-3.3,2.4-5.5,5.5-5.7c3.3-0.2,5.9,1.9,6.3,5.3c0.3,2.2,0.2,4.4,0.1,6.7
	c-0.2,3.6-2.8,5.9-6.1,5.9c-3.4-0.1-5.6-2.4-5.8-6.2C167.1,324.8,167.1,323.9,167.2,323C167.2,323,167.2,323,167.2,323z"/>
<path class="st5" d="M188.1,302.2c1.2,0,2.3-0.1,3.5,0c3.1,0.3,5.2,2.4,5.4,5.4c0.1,3.2-1.4,5.4-4.5,6.2c-2.7,0.7-5.6,0.6-8.3,0.1
	c-3.2-0.6-5.1-3.2-4.9-6.3c0.2-3.1,2.4-5.2,5.8-5.4C186,302.1,187,302.1,188.1,302.2C188.1,302.2,188.1,302.2,188.1,302.2z"/>
<path class="st7" d="M94.4,218.7c13.4,13.2,24,28.6,34.6,44c1.5,2.2,2.6,4.5,1.3,7.2c-1.1,2.2-2.8,3.4-5.3,3.4
	c-3.1,0-4.7-2.2-6.3-4.4c-5.8-8.2-11.5-16.5-17.6-24.5c-5.7-7.4-11.9-14.5-19.2-20.3c-4.8-5.3-10.7-9.4-16.5-13.5
	c-11.9-8.4-24.9-15-38.5-20.1c-3.8-1.4-5.5-4.6-4.3-8c1.1-3.2,4.7-4.6,8.5-3.2c23.3,8.5,44,21.3,62,38.4
	C93.4,218.1,93.9,218.4,94.4,218.7z"/>
<path class="st8" d="M480.9,77.6c0.8,2,2.3,2.7,4.4,2.9c4.5,0.5,9.1,1.2,13.6,2c3.2,0.6,3.9,2.7,1.6,5c-3.4,3.5-6.9,6.8-10.4,10.2
	c-1.1,1-1.6,1.9-1.2,3.6c0.9,4.4,1.6,8.8,2.3,13.3c0.2,1.6,0.9,3.4-0.9,4.5c-1.6,1.1-3,0-4.3-0.7c-3.6-1.8-7.2-3.6-10.7-5.7
	c-2.1-1.3-4-1.6-6-0.1c-0.8-1.6-0.2-3.3,0.2-4.8c0.6-2.6,0.1-4.6-2-6.4c-3-2.6-5.5-5.6-8.5-8.2c-1.4-1.2-2.3-2.7-1.8-4.6
	c0.5-1.8,2.1-2.1,3.7-2.4c3.9-0.7,7.8-1.3,11.7-1.7c2.8-0.3,4.8-1.4,5.8-4.2C478.9,79.3,479.1,77.6,480.9,77.6z"/>
<path class="st9" d="M480.9,77.6c-1,0.7-1.5,1.9-1.8,3c-1,3.4-3.5,4.4-6.7,4.8c-3.9,0.4-7.7,1.1-11.6,1.6c-1.3,0.2-2.7,0.3-3.1,1.8
	c-0.4,1.6,0.3,2.9,1.5,3.9c3.6,2.7,6.4,6.3,9.7,9.3c1.3,1.2,2,2.3,1.4,4.2c-0.7,2.1-0.8,4.3-1.1,6.4c-4,2.2-8,4.3-12.1,6.5
	c-1.1,0.6-2.3,0.8-3.4,0c-1.1-0.8-1.2-2-1-3.2c0.8-4.6,1.6-9.2,2.5-13.8c0.4-2,0.1-3.4-1.5-4.8c-3.4-3-6.5-6.2-9.7-9.3
	c-1-1-2.1-1.9-1.5-3.5c0.5-1.6,1.9-1.9,3.3-2.1c4.2-0.7,8.5-1.3,12.8-1.8c2.4-0.2,3.9-1.1,4.9-3.5c1.7-4,3.8-7.9,5.8-11.8
	c0.6-1.2,1.2-2.3,2.8-2.4c1.7-0.1,2.4,1.1,3,2.4C477,69.3,479.5,73.2,480.9,77.6z"/>
<path class="st10" d="M237.3,375.8c-6.6,0-12.1-5.6-12-12.1c0.1-6.6,5.7-11.9,12.3-11.8c6.4,0.1,11.8,5.6,11.8,12
	C249.4,370.4,244,375.8,237.3,375.8z"/>
<path class="st11" d="M439,340.4c-6.6,0-12.1-5.6-12-12.1c0.1-6.6,5.7-11.9,12.3-11.8c6.4,0.1,11.8,5.6,11.8,12
	C451.1,335,445.6,340.4,439,340.4z"/>
<circle class="st12" cx="296.2" cy="200.2" r="124.4"/>
<path class="st1" d="M242.1,183.8c0.6,0.6,1.3,1.1,1.8,1.6c9.6,9.5,19.2,18.9,28.7,28.4c1.6,1.6,2.4,1.6,4,0
	c23.8-23.9,47.7-47.8,71.5-71.7c1.8-1.8,2.6-1.7,4.3,0c6.1,6.2,12.4,12.3,18.6,18.3c1.3,1.3,1.2,1.9,0,3.2
	c-31.7,31.6-63.3,63.2-94.9,94.8c-1.2,1.2-1.9,1.3-3.2,0c-17.2-17.1-34.4-34.2-51.6-51.3c-1.3-1.3-1.5-2-0.1-3.4
	c6.5-6.2,12.8-12.6,19.2-18.8C241.1,184.7,241.6,184.3,242.1,183.8z"/>
</svg>
