<?xml version="1.0" encoding="utf-8"?>
<!-- Generator: Adobe Illustrator 23.0.0, SVG Export Plug-In . SVG Version: 6.00 Build 0)  -->
<svg version="1.1" id="_x3C_Layer_x3E_" xmlns="http://www.w3.org/2000/svg" xmlns:xlink="http://www.w3.org/1999/xlink" x="0px"
	 y="0px" width="1530.2px" height="1526.4px" viewBox="0 0 1530.2 1526.4" style="enable-background:new 0 0 1530.2 1526.4;"
	 xml:space="preserve">
<style type="text/css">
	.st0{fill:#F9CC33;}
	.st1{fill:#F9D764;}
	.st2{fill:#FFFFFF;}
	.st3{fill:#0F3B61;stroke:#144E80;stroke-width:15.03;stroke-miterlimit:10;}
	.st4{fill:#FFFFFF;stroke:#F9D764;stroke-width:8.35;stroke-miterlimit:10;}
	.st5{fill:#F9CC33;stroke:#F9D764;stroke-width:8.35;stroke-miterlimit:10;}
	.st6{fill:#1D1D1B;}
</style>
<g>
	<g>
		<path class="st0" d="M752,425.6c-302.8-3-453.9,400.9-234.4,600.1c47.7,46.5,74,110.7,74,177.3v-6.2c0,32,26,58,58,58h224.6
			c32,0,58-26,58-58v5.4c0-66,25.9-129.8,73.3-175.7C1232.8,821,1064.4,406.3,752,425.6z"/>
		<path class="st1" d="M874.2,1282H649.6c-44.9,0-81.8-34.9-85-79h-0.2c7.4-120.8-112.5-178.7-150.1-281.3
			c-104.7-236.9,76.6-521.8,336.9-523.3c336-17.6,520.3,419.5,273.1,647.6c-41.3,40-65,97-65,156.2h-0.2
			C956.4,1246.7,919.3,1282,874.2,1282z M618.7,1196.8L618.7,1196.8c0.1,17,13.9,30.8,30.9,30.8h224.6c17,0,30.8-13.8,30.8-30.8h0.1
			c-0.5-180.5,190.5-228.9,179.5-421.5c3.8-176.9-155-331.3-331.8-322.5l-0.8-27.2l0.8,27.2c-278.1-1.4-419.9,366.5-216.2,553.5
			C587.3,1055.9,617.1,1125,618.7,1196.8z"/>
	</g>
	<g>
		<path class="st1" d="M516,779.4c-15,0-27.2-12.2-27.2-27.2c0-133.9,109-242.9,242.9-242.9c15,0,27.2,12.2,27.2,27.2
			c0,15-12.2,27.2-27.2,27.2c-103.9,0-188.5,84.6-188.5,188.5C543.2,767.3,531,779.4,516,779.4z"/>
	</g>
	<g>
		<line class="st2" x1="639.3" y1="1335.1" x2="884.5" y2="1335.1"/>
		<path class="st3" d="M884.5,1362.3H639.3c-35.5-0.1-35.6-54.2,0-54.4c0,0,245.2,0,245.2,0C920,1308.1,920.1,1362.2,884.5,1362.3z"
			/>
	</g>
	<g>
		<line class="st2" x1="683.1" y1="1408.6" x2="840.7" y2="1408.6"/>
		<path class="st3" d="M840.7,1435.8H683.1c-35.5-0.1-35.6-54.2,0-54.4c0,0,157.6,0,157.6,0c15,0,27.2,12.2,27.2,27.2
			S855.7,1435.8,840.7,1435.8z"/>
	</g>
	<g>
		<line class="st2" x1="719" y1="1485.2" x2="804.8" y2="1485.2"/>
		<path class="st3" d="M796,1513.2h-68.4c-15.5,0-28.1-12.6-28.1-28.1c0-15.5,12.6-28.1,28.1-28.1H796
			C832.7,1457.2,832.7,1513.1,796,1513.2z"/>
	</g>
	<g>
		<line class="st4" x1="761.9" y1="225.7" x2="761.9" y2="41.4"/>
		<path class="st5" d="M761.9,255.9c-16.7,0-30.2-13.5-30.2-30.2V41.4c0-16.7,13.5-30.2,30.2-30.2c16.7,0,30.2,13.5,30.2,30.2v184.3
			C792.1,242.4,778.6,255.9,761.9,255.9z"/>
	</g>
	<g>
		<line class="st2" x1="378" y1="384.7" x2="247.6" y2="254.4"/>
		<path class="st6" d="M378,414.9c-15.5,9.4-139.8-132-151.7-139.2c-27.8-28,14.6-70.6,42.7-42.7c0,0,130.3,130.3,130.3,130.3
			C418.6,381.3,403.8,415.9,378,414.9z"/>
	</g>
	<g>
		<line class="st4" x1="378" y1="384.7" x2="247.6" y2="254.4"/>
		<path class="st5" d="M378,414.9c-15.5,9.4-139.8-132-151.7-139.2c-27.8-28,14.6-70.6,42.7-42.7c0,0,130.3,130.3,130.3,130.3
			C418.6,381.3,403.8,415.9,378,414.9z"/>
	</g>
	<g>
		<line class="st4" x1="218.9" y1="768.7" x2="34.6" y2="768.7"/>
		<path class="st5" d="M218.9,798.9H34.6c-39.5-0.2-39.6-60.3,0-60.4c0,0,184.3,0,184.3,0c16.7,0,30.2,13.5,30.2,30.2
			C249.2,785.3,235.6,798.9,218.9,798.9z"/>
	</g>
	<g>
		<line class="st4" x1="1304.8" y1="768.7" x2="1489.1" y2="768.7"/>
		<path class="st5" d="M1489.1,798.9h-184.3c-39.5-0.2-39.6-60.3,0-60.4c0,0,184.3,0,184.3,0c16.7,0,30.2,13.5,30.2,30.2
			C1519.4,785.3,1505.8,798.9,1489.1,798.9z"/>
	</g>
	<g>
		<line class="st4" x1="1145.8" y1="384.7" x2="1276.1" y2="254.4"/>
		<path class="st5" d="M1145.8,414.9c-25.8,0.9-40.7-33.6-21.4-51.6c0,0,130.3-130.3,130.3-130.3c28-27.8,70.6,14.6,42.7,42.7
			C1285,283.5,1161.9,423.8,1145.8,414.9z"/>
	</g>
</g>
</svg>
