<?xml version="1.0" encoding="utf-8"?>
<!-- Generator: Adobe Illustrator 23.0.0, SVG Export Plug-In . SVG Version: 6.00 Build 0)  -->
<svg version="1.1" id="Layer_1" xmlns="http://www.w3.org/2000/svg" xmlns:xlink="http://www.w3.org/1999/xlink" x="0px" y="0px"
	 width="384.9px" height="384.9px" viewBox="0 0 384.9 384.9" style="enable-background:new 0 0 384.9 384.9;" xml:space="preserve"
	>
<style type="text/css">
	.st0{fill:#FEFEFE;}
	.st1{fill:#FAC014;}
</style>
<g>
	<path class="st0" d="M242.3,0.1c46.5,0,93,0,139.5-0.1c2.6,0,3.1,0.5,3.1,3.1c-0.1,126.2-0.1,252.5,0,378.7c0,2.6-0.5,3.1-3.1,3.1
		c-126.2-0.1-252.5-0.1-378.7,0c-2.6,0-3.1-0.5-3.1-3.1C0.1,255.6,0.1,129.3,0,3.1C0,0.5,0.5,0,3.1,0c78.2,0.1,156.5,0.1,234.8,0.1
		c0.3,0.9-0.3,1.4-0.7,2c-2.8,4.4-1.8,7.3,3.3,8.5c5.7,1.4,11.3,3.1,16.7,5.5c22.5,10.3,38.6,26.7,48,49.6c1.6,3.9,2.5,8.1,4.1,12
		c1.5,3.6,4.7,4.6,7.1,2.4c1.8-1.7,1.7-3.8,1.3-5.9c-1-4.8-2.6-9.4-4.6-13.8c-13-29.6-35.2-48.8-66.2-57.9
		C245.2,2,242.9,2.5,242.3,0.1z"/>
	<path d="M242.3,0.1c7.6,2.5,15.4,4.6,22.6,8.2c27.2,13.9,45.2,35.5,53.4,65c0.2,0.7,0.4,1.4,0.5,2.2c0.5,3.5-1.2,6.1-4.3,6.8
		c-2.8,0.7-5.4-1-6.5-4.2c-1.2-3.7-2.1-7.4-3.6-11C292.8,38.4,272,19.9,242,12c-0.5-0.1-1-0.3-1.4-0.4c-2.9-0.4-5.3-1.5-6.1-4.7
		c-0.8-3.2,1.3-5,3.3-6.8C239.3,0.1,240.8,0.1,242.3,0.1z"/>
	<path class="st1" d="M371.1,148.1c-1.3,5.1-0.3,10.3-0.6,15.4c-4.6,2.9-5,7.4-4.9,12.4c0.1,32,0.4,64,0,95.9
		c-0.3,21.4-8,40.3-23,55.8c-7.5,7.8-14.8,16-23.4,22.7c-16.8,13-35.7,20.8-56.9,22.9c-26.5,2.6-50.9-3.4-72.9-18.3
		c-3.5-2.3-6.8-2.8-10.5-1.5c-3.9-3.6-7.7-7.2-11.6-10.8c1.6-4.7-0.6-8-3.8-11.1c-11.1-10.9-22.1-22-33.1-33
		c-1.5-1.5-3.2-2.9-3.7-5.1c-6-15.8-8.5-32.1-7.5-49c0.3-5.3,0.9-10.7,3.2-15.6c2-2,3.2,0.1,4.3,1.1c5.2,5,10.3,10.2,15.4,15.3
		c5,5,10.1,10.1,15.1,15.1c1,1,1.9,2,3.1,2.7c2.2,1.2,4.4,1.3,6.2-0.6c1.9-2,1.4-4.1-0.2-6.1c-0.9-1.1-1.9-2-2.8-3
		c-18.2-18.2-36.4-36.4-54.6-54.6c-1.6-1.6-3.4-3-3.8-5.4c-2.4-14.8-3.2-29.6,1.6-44.1c1.2-2,3.2-2.3,5.2-2.3
		c7.3-0.1,13.3,2.6,18.5,7.7c19.5,19.5,39,39.1,58.6,58.6c1.1,1.1,2.1,2.2,3.3,3.1c2.2,1.7,4.3,1.9,6.4-0.2c2-2.1,1.9-4.2,0-6.3
		c-1-1.1-2.1-2.2-3.1-3.2c-23.3-23.3-46.7-46.6-70-70c-8.2-8.2-9.9-18.2-5-28.1c5.8-11.6,20.5-15.9,31.7-9.3
		c2.7,1.6,5.1,3.6,7.3,5.8c22.9,22.9,45.8,45.8,68.6,68.7c1,1,1.9,2,3,2.8c2,1.4,4.1,1.4,5.9-0.1c1.9-1.6,1.7-3.8,0.6-5.8
		c-0.8-1.6-2.2-2.7-3.5-3.9c-16.8-16.8-33.6-33.5-50.3-50.4C172.4,105,175,87,189,79.4c8.3-4.5,16.4-3.5,24.1,1.6
		c2.4,1.6,4.5,3.6,6.5,5.6c27,27.1,54.1,54.1,81.1,81.1c2,2,3.8,4.8,7.2,3.3c3.4-1.5,3.2-4.8,3.2-7.8c0-10.1,0-20.2,0-30.4
		c0.1-14.3,12.1-26.3,26.7-26.5c14.4-0.3,27.1,11.5,27.6,25.7c0.1,1.4,0.1,2.8,0,4.1C365,141.3,365.6,145.9,371.1,148.1z"/>
	<path d="M105.9,194.2c6.7,6.7,13.3,13.5,20,20.2c13.4,13.4,26.8,26.8,40.2,40.2c3.5,3.5,3.1,8.2-0.8,9.9c-2.9,1.2-5.2,0-7.3-2.1
		c-10.6-10.7-21.3-21.4-32-32c-0.9-0.9-1.8-1.7-2.8-2.5c-2.7-0.6-4-2.9-5.7-4.6c-6.3-6.3-13.7-8.5-22.3-5.7
		c-8.1,2.6-12.8,8.5-14.2,16.8c-1.2,7,1,13.1,6,18.1c12.2,12.3,24.5,24.6,36.8,36.8c1.5,1.5,3.1,2.9,3.8,5
		c12.2,12.3,24.4,24.6,36.6,36.9c0.6,0.6,1.2,1.2,1.9,1.8c3.5,3.6,3.7,5.2,1.2,9.5c-3.4,2.1-6.2,1.5-9-1.3
		c-26.4-26.5-52.9-52.8-79.2-79.3c-9.7-9.8-13.1-21.5-8.7-34.7c4.3-13.1,13.8-20.7,27.6-22.7c0.4-0.1,0.7-0.2,1.7-0.5
		c-3.3-3.4-6.4-6.5-9.5-9.6c-6.4-6.3-10.2-13.8-10.5-22.9c-0.6-17.5,10.8-31.4,28-34.4c1.3-0.2,2.7-0.4,4.3-0.7
		c-4.6-8.5-5.9-17.4-3.2-26.7c2.1-7.1,6.1-12.8,12-17.2c13.6-10.2,27.3-8.8,45.7,4.7c1.1-9.8,5.3-17.9,13.1-23.9
		c13.6-10.5,31.9-9.1,44.6,3.5c13.8,13.6,27.4,27.4,41.1,41.1c10.8,10.8,21.6,21.6,32.4,32.3c0.8,0.8,1.5,2,3.2,2.4
		c0-6.8-0.2-13.5,0-20.2c0.7-21.1,18.6-37.4,39.6-36.3c19.3,1.1,34.9,17,35.5,36.4c0.1,3,0,6,0.1,9c0.1,3.5-1.4,5.7-4.8,6.6
		c-4.9-0.5-6.4-2.2-6.5-7.3c-0.1-4.6,0.4-9.2-0.8-13.8c-3.2-12.3-15.4-20.9-27.9-19.6c-13.2,1.4-23.5,12-23.9,25.1
		c-0.3,10.7-0.1,21.5-0.1,32.2c0,3.2-0.3,6.1-3.8,7.4c-3.3,1.3-5.4-0.7-7.5-2.8c-28-28-56-56-84-84.1c-6.5-6.6-14.1-9.4-23.1-6.8
		c-16.1,4.6-21.3,24.5-9.6,36.7c9.6,10,19.6,19.7,29.4,29.5c8,8,16.1,16.1,24.1,24.1c2.3,2.3,2.9,5,0.9,7.8c-1.8,2.5-4.4,2.8-7,1.6
		c-1.3-0.6-2.3-1.9-3.4-2.9c-23.6-23.6-47.2-47.2-70.8-70.8c-9.1-9.1-22-9.9-31-2.1c-9.9,8.6-10.3,23.2-0.8,32.9
		c15.9,16.1,32,32,48,48c8.4,8.4,16.8,16.8,25.2,25.2c3,3,3.2,6.1,0.8,8.6c-2.5,2.6-5.7,2.3-8.9-0.8c-8.7-8.6-17.3-17.3-26-26
		c-11.8-11.8-23.6-23.7-35.5-35.5c-6-5.9-13.1-8.4-21.5-6.1c-3.1,2.5-7,3.7-9.8,6.8c-7.3,7.9-7.8,19.3-1.3,27.7
		C99.3,187.1,103.3,190,105.9,194.2z"/>
	<path d="M178.8,353.4c3.7-3.1,5.2-3.2,9.3-0.5c46.1,30.9,102.1,25.6,141.6-13.5c10-9.9,20.1-19.8,26.3-32.8
		c5.4-11.3,8.5-23.2,8.6-35.7c0.1-33.2,0-66.5,0.1-99.7c0-5,1.1-6.3,5.8-7.7c4.1,0.9,5.5,3.5,5.5,7.6c-0.1,32.4,0,64.7-0.1,97.1
		c0,26.5-9.3,49.2-27.5,68.3c-12.5,13-25.2,25.8-41.7,33.8c-43.3,20.9-85.1,18.1-125.3-8.4C178.1,359.8,177.1,357,178.8,353.4z"/>
	<path d="M15.6,278.4c3.2,0.2,4.8,2.4,5.5,5.7c2.9,13.3,8.5,25.2,16.9,35.9c12.6,16,28.8,26.7,48.5,31.9c4.6,1.2,6.5,4.3,5,7.9
		c-1.2,2.9-4,4.1-7.9,3c-35.1-9.9-58.7-32.1-70.9-66.5c-1.2-3.5-2.2-7.2-2.9-10.8C9.1,281.5,11.6,278.4,15.6,278.4z"/>
	<path d="M237.8,39.7c8.4,1.5,16.3,5.3,23.2,11c8.8,7.3,14.7,16.5,17.6,27.6c1,3.8-0.5,6.7-3.9,7.6c-3,0.8-5.8-0.9-6.8-4.3
		c-4.7-16.4-15.2-26.7-31.8-30.9c-3.5-0.9-5.4-3.6-4.8-6.5C231.8,41.4,234.2,39.6,237.8,39.7z"/>
	<path d="M55.4,275.3c3.1,0.1,4.5,2.6,5.3,5.7c2.7,11.4,9.2,20,19.1,26.1c3.4,2.1,7.1,3.5,11,4.7c4,1.2,5.7,3.8,4.7,7.1
		c-1,3.3-3.8,4.8-7.8,3.6c-20-5.8-32.6-18.9-38-39C48.4,278.8,50.7,275.3,55.4,275.3z"/>
	<path class="st1" d="M127.5,294.3c-7.4-7.3-14.8-14.5-22.1-21.8c-6.1-6.1-12.2-12.2-18.3-18.3c-9.5-9.6-9.9-23.1-0.9-32.1
		c8.9-9,22.5-8.7,32.1,0.7c1.7,1.7,3.2,3.4,4.9,5.1c-5.6,20-3.7,39.7,2.5,59.2C126.3,289.5,127.6,291.7,127.5,294.3z"/>
	<path d="M265.7,247.1c0.7-20.5,5-34.9,12.8-48.3c1.5-2.5,3.4-4.1,6.4-3.5c2.4,0.5,3.9,2.1,4.5,4.5c0.5,2.2-0.7,3.9-1.7,5.6
		c-5.9,10.3-9.4,21.4-10.4,33.3c-1,12,0.8,23.6,5,34.9c0.3,0.9,0.8,1.8,1.1,2.8c1.2,3.5,0,6.7-3,7.8c-3,1.2-6-0.2-7.5-3.7
		C267.8,268.1,265.6,255.3,265.7,247.1z"/>
	<path class="st1" d="M105.9,194.2c-3.4-3.4-7.2-6.6-10.2-10.3c-10.3-12.5-4-31.3,11.7-35.2C103.2,163.8,103.5,178.9,105.9,194.2z"
		/>
</g>
</svg>
