<?xml version="1.0" encoding="utf-8"?>
<!-- Generator: Adobe Illustrator 23.0.0, SVG Export Plug-In . SVG Version: 6.00 Build 0)  -->
<svg version="1.1" id="Layer_1" xmlns="http://www.w3.org/2000/svg" xmlns:xlink="http://www.w3.org/1999/xlink" x="0px" y="0px"
	 width="859.8px" height="688px" viewBox="0 0 859.8 688" style="enable-background:new 0 0 859.8 688;" xml:space="preserve">
<style type="text/css">
	.st0{fill-rule:evenodd;clip-rule:evenodd;fill:#0F1159;}
	.st1{fill-rule:evenodd;clip-rule:evenodd;fill:#3330D9;}
	.st2{fill-rule:evenodd;clip-rule:evenodd;fill:#FFFFFF;}
	.st3{fill-rule:evenodd;clip-rule:evenodd;fill:#CE4E73;}
	.st4{fill-rule:evenodd;clip-rule:evenodd;fill:#BFDCF4;}
	.st5{fill-rule:evenodd;clip-rule:evenodd;fill:#E5AC9A;}
	.st6{fill-rule:evenodd;clip-rule:evenodd;fill:#58A991;}
	.st7{fill-rule:evenodd;clip-rule:evenodd;fill:#3E7E80;}
	.st8{fill-rule:evenodd;clip-rule:evenodd;fill:#80C0B4;}
	.st9{fill-rule:evenodd;clip-rule:evenodd;fill:#B62351;}
	.st10{fill-rule:evenodd;clip-rule:evenodd;fill:#EAE4E5;}
	.st11{fill-rule:evenodd;clip-rule:evenodd;fill:#2C376F;}
	.st12{fill-rule:evenodd;clip-rule:evenodd;fill:#22265E;}
	.st13{fill-rule:evenodd;clip-rule:evenodd;fill:#3D5EA7;}
	.st14{fill-rule:evenodd;clip-rule:evenodd;fill:#678DC8;}
	.st15{fill-rule:evenodd;clip-rule:evenodd;fill:#303685;}
	.st16{fill-rule:evenodd;clip-rule:evenodd;fill:#D7766E;}
	.st17{fill-rule:evenodd;clip-rule:evenodd;fill:#E1DFE5;}
	.st18{fill-rule:evenodd;clip-rule:evenodd;fill:#AAA8B8;}
	.st19{fill-rule:evenodd;clip-rule:evenodd;fill:#17152D;}
	
		.st20{fill-rule:evenodd;clip-rule:evenodd;fill:none;stroke:#BFDCF4;stroke-width:1.4173;stroke-linecap:round;stroke-linejoin:round;stroke-miterlimit:22.9256;}
	
		.st21{fill-rule:evenodd;clip-rule:evenodd;fill:none;stroke:#FFFFFF;stroke-width:0.7087;stroke-linecap:round;stroke-linejoin:round;stroke-miterlimit:2.6131;}
	.st22{fill-rule:evenodd;clip-rule:evenodd;fill:#A5A7A9;}
	
		.st23{fill-rule:evenodd;clip-rule:evenodd;fill:none;stroke:#943658;stroke-width:0.5669;stroke-linecap:round;stroke-linejoin:round;stroke-miterlimit:2.6131;}
	
		.st24{fill-rule:evenodd;clip-rule:evenodd;fill:none;stroke:#434B9A;stroke-width:0.5669;stroke-linecap:round;stroke-linejoin:round;stroke-miterlimit:2.6131;}
	.st25{fill-rule:evenodd;clip-rule:evenodd;fill:#CB6A98;}
	.st26{fill-rule:evenodd;clip-rule:evenodd;fill:#E2B8C7;}
	.st27{fill-rule:evenodd;clip-rule:evenodd;fill:#271D4C;}
	.st28{fill-rule:evenodd;clip-rule:evenodd;fill:#EAD2DD;}
	.st29{fill-rule:evenodd;clip-rule:evenodd;fill:#E5E6E7;}
	.st30{fill-rule:evenodd;clip-rule:evenodd;fill:#BABCBE;}
</style>
<g>
	<g>
		<g>
			<path class="st0" d="M115.5,39h240.9c19.3,0,35.1,15.8,35.1,35.1v573.4c0,19.3-15.8,35.1-35.1,35.1H115.5
				c-19.3,0-35.1-15.8-35.1-35.1V74.1C80.4,54.8,96.2,39,115.5,39z"/>
			<path class="st1" d="M135,39H376c19.3,0,35.1,15.8,35.1,35.1v573.4c0,19.3-15.8,35.1-35.1,35.1H135c-19.3,0-35.1-15.8-35.1-35.1
				V74.1C99.9,54.8,115.7,39,135,39z"/>
			<path class="st2" d="M129.3,126.2h252.4c3.6,0,6.5,2.9,6.5,6.5v456.2c0,3.6-2.9,6.5-6.5,6.5H129.3c-3.6,0-6.5-2.9-6.5-6.5V132.7
				C122.8,129.1,125.7,126.2,129.3,126.2z"/>
			<path class="st0" d="M255.5,667.9c15.5,0,28.2-12.7,28.2-28.2c0-15.5-12.7-28.2-28.2-28.2s-28.2,12.7-28.2,28.2
				C227.3,655.2,240,667.9,255.5,667.9z"/>
			<path class="st0" d="M238,98c-1.7,0-3.1-1.4-3.1-3.1c0-1.7,1.4-3.1,3.1-3.1h51.5c1.7,0,3.1,1.4,3.1,3.1c0,1.7-1.4,3.1-3.1,3.1
				H238L238,98z M221.5,98c-1.7,0-3.1-1.4-3.1-3.1c0-1.7,1.4-3.1,3.1-3.1h3.8c1.7,0,3.1,1.4,3.1,3.1c0,1.7-1.4,3.1-3.1,3.1H221.5z"
				/>
		</g>
		<g>
			<path class="st3" d="M144.6,140.7h79.5c4.4,0,8,3.6,8,8v79.5c0,4.4-3.6,8-8,8h-79.5c-4.4,0-8-3.6-8-8v-79.5
				C136.5,144.3,140.2,140.7,144.6,140.7z"/>
			<path class="st2" d="M228.2,235.1c-1.2,0.7-2.6,1.2-4.2,1.2H214c-3.4-4.7-8.1-10.5-10.7-14l-0.2,2.6c-0.1,1.3-0.2,2.5-0.2,3.7
				l-0.1,2.4c0,0,0.1,2.3,0.2,5.3h-37.8c0.1-3,0.2-5.3,0.2-5.3l-0.1-2.4c-0.1-1.2-0.2-2.4-0.3-3.7l-0.1-2.3
				c-2.8,3.5-7.2,9.1-10.5,13.7h-9.9c-1.6,0-3-0.4-4.2-1.2c5.4-9.2,18.1-29.8,21.9-32c0.6-0.4,1.2-0.7,1.6-0.9l0,0l12.8-6.3l0.9-0.4
				l0,0l0,0c0.9-0.7,1.4-1.5,1.4-2v-0.6c-3.9-1.8-6.8-5.5-7.4-10h0h0l0,0h0l0,0h0l0,0h0h0l0,0h0h0h0h0l0,0h0l0,0h0h0h0h0h0h0h0h0h0
				h0h0h0h0h0l0,0h0h0h0h0h0h0h0h0l0,0h0h0h0h0l0,0h0h0h0h0h0h0c-2.1,0-3.7-1.7-3.7-3.8c0-1.8,1.3-3.2,3-3.6l0,0l0,0h0h0l0,0l0,0h0
				h0h0l0,0h0l0,0l0,0h0l0,0h0l0,0h0l0,0h0h0h0l0,0l0,0h0v0h0h0l0,0h0h0l0,0l0,0h0v0h0h0h0l0,0l0,0h0h0h0h0l0,0h0l0,0l0,0l0,0h0l0,0
				l0,0h0h0l0,0h0h0l0,0h0l0,0l0,0h0h0l0,0h0h0h0l0,0h0v0h0h0l0,0h0l0,0h0h0l0,0h0l0,0h0l0,0h0h0l0,0h0l0,0l0,0h0l0,0l0,0l0,0h0h0
				l0,0h0h0v0h0l0,0h0h0h0h0h0l0,0l0,0h0l0,0l0,0l0,0l0,0l0,0l0,0c0,0,0-3.5,0-6.5c0-2.3,0.5-5.1,2.3-7.5c-0.2-1.1,0.4-2.7,1.5-4.3
				c4.1-6,10-5.9,12.3-3.2c1.3-0.7,3-1,4.8-1.1c12.5-0.6,13,12,6.4,16.1v0c0,3,0,6.5,0,6.5l0,0l0,0v0l0,0h0h0l0,0h0v0h0l0,0h0h0l0,0
				h0l0,0h0l0,0l0,0h0l0,0h0h0h0l0,0h0h0v0h0l0,0h0h0l0,0h0h0h0h0l0,0h0l0,0h0h0h0h0l0,0l0,0h0l0,0h0l0,0l0,0l0,0h0h0l0,0v0h0l0,0h0
				h0h0h0l0,0l0,0h0l0,0l0,0l0,0h0h0h0h0l0,0h0l0,0h0h0l0,0h0h0l0,0h0l0,0h0h0h0v0h0h0l0,0h0l0,0h0l0,0h0h0l0,0l0,0l0,0h0l0,0h0h0
				l0,0l0,0h0h0h0l0,0h0h0h0l0,0l0,0c1.7,0.3,2.9,1.8,3,3.6c0,2.1-1.6,3.8-3.7,3.8h0h0h0h0h0h0l0,0h0h0h0l0,0h0h0h0h0h0h0h0h0h0l0,0
				h0h0h0h0h0h0h0h0h0h0h0h0l0,0h0h0l0,0h0h0h0h0h0h0l0,0h0h0h0h0h0l0,0h0h0l0,0h0l0,0h0h0c-0.8,6.3-6.2,11.1-12.7,11.1l0,0
				c-0.4,0-0.7,0-1.1,0h0l7.6,1.6l0.9,0.4l12.8,6.3l0,0c0.5,0.3,1.2,0.6,2,1.1C210.2,205.4,222.8,225.8,228.2,235.1z"/>
			<path class="st4" d="M285.9,252.9h-86.7c-1.1,0-1.9,0.9-1.9,1.9l0,0c0,1.1,0.9,1.9,1.9,1.9h86.7c1.1,0,1.9-0.9,1.9-1.9l0,0
				C287.9,253.8,287,252.9,285.9,252.9L285.9,252.9z M138.5,434.4h49.2c1.1,0,1.9,0.9,1.9,1.9l0,0c0,1.1-0.9,1.9-1.9,1.9h-49.2
				c-1.1,0-1.9-0.9-1.9-1.9l0,0C136.5,435.3,137.4,434.4,138.5,434.4L138.5,434.4z M285.9,434.4h-86.7c-1.1,0-1.9,0.9-1.9,1.9l0,0
				c0,1.1,0.9,1.9,1.9,1.9h86.7c1.1,0,1.9-0.9,1.9-1.9l0,0C287.9,435.3,287,434.4,285.9,434.4L285.9,434.4z M138.5,426.5h49.2
				c1.1,0,1.9,0.9,1.9,1.9l0,0c0,1.1-0.9,1.9-1.9,1.9h-49.2c-1.1,0-1.9-0.9-1.9-1.9l0,0C136.5,427.4,137.4,426.5,138.5,426.5
				L138.5,426.5z M285.9,426.5h-86.7c-1.1,0-1.9,0.9-1.9,1.9l0,0c0,1.1,0.9,1.9,1.9,1.9h86.7c1.1,0,1.9-0.9,1.9-1.9l0,0
				C287.9,427.4,287,426.5,285.9,426.5L285.9,426.5z M138.5,418.6h49.2c1.1,0,1.9,0.9,1.9,1.9l0,0c0,1.1-0.9,1.9-1.9,1.9h-49.2
				c-1.1,0-1.9-0.9-1.9-1.9l0,0C136.5,419.5,137.4,418.6,138.5,418.6L138.5,418.6z M285.9,418.6h-86.7c-1.1,0-1.9,0.9-1.9,1.9l0,0
				c0,1.1,0.9,1.9,1.9,1.9h86.7c1.1,0,1.9-0.9,1.9-1.9l0,0C287.9,419.5,287,418.6,285.9,418.6L285.9,418.6z M138.5,410.7h49.2
				c1.1,0,1.9,0.9,1.9,1.9v0c0,1.1-0.9,1.9-1.9,1.9h-49.2c-1.1,0-1.9-0.9-1.9-1.9v0C136.5,411.6,137.4,410.7,138.5,410.7
				L138.5,410.7z M285.9,410.7h-86.7c-1.1,0-1.9,0.9-1.9,1.9v0c0,1.1,0.9,1.9,1.9,1.9h86.7c1.1,0,1.9-0.9,1.9-1.9v0
				C287.9,411.6,287,410.7,285.9,410.7L285.9,410.7z M138.5,402.8h49.2c1.1,0,1.9,0.9,1.9,1.9v0c0,1.1-0.9,1.9-1.9,1.9h-49.2
				c-1.1,0-1.9-0.9-1.9-1.9v0C136.5,403.7,137.4,402.8,138.5,402.8L138.5,402.8z M285.9,402.8h-86.7c-1.1,0-1.9,0.9-1.9,1.9v0
				c0,1.1,0.9,1.9,1.9,1.9h86.7c1.1,0,1.9-0.9,1.9-1.9v0C287.9,403.7,287,402.8,285.9,402.8L285.9,402.8z M138.5,395h49.2
				c1.1,0,1.9,0.9,1.9,1.9l0,0c0,1.1-0.9,1.9-1.9,1.9h-49.2c-1.1,0-1.9-0.9-1.9-1.9l0,0C136.5,395.8,137.4,395,138.5,395L138.5,395z
				 M285.9,395h-86.7c-1.1,0-1.9,0.9-1.9,1.9l0,0c0,1.1,0.9,1.9,1.9,1.9h86.7c1.1,0,1.9-0.9,1.9-1.9l0,0
				C287.9,395.8,287,395,285.9,395L285.9,395z M138.5,387.1h49.2c1.1,0,1.9,0.9,1.9,1.9l0,0c0,1.1-0.9,1.9-1.9,1.9h-49.2
				c-1.1,0-1.9-0.9-1.9-1.9l0,0C136.5,387.9,137.4,387.1,138.5,387.1L138.5,387.1z M285.9,387.1h-86.7c-1.1,0-1.9,0.9-1.9,1.9l0,0
				c0,1.1,0.9,1.9,1.9,1.9h86.7c1.1,0,1.9-0.9,1.9-1.9l0,0C287.9,387.9,287,387.1,285.9,387.1L285.9,387.1z M138.5,379.2h49.2
				c1.1,0,1.9,0.9,1.9,1.9l0,0c0,1.1-0.9,1.9-1.9,1.9h-49.2c-1.1,0-1.9-0.9-1.9-1.9l0,0C136.5,380,137.4,379.2,138.5,379.2
				L138.5,379.2z M285.9,379.2h-86.7c-1.1,0-1.9,0.9-1.9,1.9l0,0c0,1.1,0.9,1.9,1.9,1.9h86.7c1.1,0,1.9-0.9,1.9-1.9l0,0
				C287.9,380,287,379.2,285.9,379.2L285.9,379.2z M138.5,371.3h49.2c1.1,0,1.9,0.9,1.9,1.9l0,0c0,1.1-0.9,1.9-1.9,1.9h-49.2
				c-1.1,0-1.9-0.9-1.9-1.9l0,0C136.5,372.2,137.4,371.3,138.5,371.3L138.5,371.3z M285.9,371.3h-86.7c-1.1,0-1.9,0.9-1.9,1.9l0,0
				c0,1.1,0.9,1.9,1.9,1.9h86.7c1.1,0,1.9-0.9,1.9-1.9l0,0C287.9,372.2,287,371.3,285.9,371.3L285.9,371.3z M138.5,363.4h49.2
				c1.1,0,1.9,0.9,1.9,1.9l0,0c0,1.1-0.9,1.9-1.9,1.9h-49.2c-1.1,0-1.9-0.9-1.9-1.9l0,0C136.5,364.3,137.4,363.4,138.5,363.4
				L138.5,363.4z M285.9,363.4h-86.7c-1.1,0-1.9,0.9-1.9,1.9l0,0c0,1.1,0.9,1.9,1.9,1.9h86.7c1.1,0,1.9-0.9,1.9-1.9l0,0
				C287.9,364.3,287,363.4,285.9,363.4L285.9,363.4z M138.5,355.5h49.2c1.1,0,1.9,0.9,1.9,1.9l0,0c0,1.1-0.9,1.9-1.9,1.9h-49.2
				c-1.1,0-1.9-0.9-1.9-1.9l0,0C136.5,356.4,137.4,355.5,138.5,355.5L138.5,355.5z M285.9,355.5h-86.7c-1.1,0-1.9,0.9-1.9,1.9l0,0
				c0,1.1,0.9,1.9,1.9,1.9h86.7c1.1,0,1.9-0.9,1.9-1.9l0,0C287.9,356.4,287,355.5,285.9,355.5L285.9,355.5z M138.5,347.6h49.2
				c1.1,0,1.9,0.9,1.9,1.9l0,0c0,1.1-0.9,1.9-1.9,1.9h-49.2c-1.1,0-1.9-0.9-1.9-1.9l0,0C136.5,348.5,137.4,347.6,138.5,347.6
				L138.5,347.6z M285.9,347.6h-86.7c-1.1,0-1.9,0.9-1.9,1.9l0,0c0,1.1,0.9,1.9,1.9,1.9h86.7c1.1,0,1.9-0.9,1.9-1.9l0,0
				C287.9,348.5,287,347.6,285.9,347.6L285.9,347.6z M138.5,339.7h49.2c1.1,0,1.9,0.9,1.9,1.9l0,0c0,1.1-0.9,1.9-1.9,1.9h-49.2
				c-1.1,0-1.9-0.9-1.9-1.9l0,0C136.5,340.6,137.4,339.7,138.5,339.7L138.5,339.7z M285.9,339.7h-86.7c-1.1,0-1.9,0.9-1.9,1.9l0,0
				c0,1.1,0.9,1.9,1.9,1.9h86.7c1.1,0,1.9-0.9,1.9-1.9l0,0C287.9,340.6,287,339.7,285.9,339.7L285.9,339.7z M138.5,331.8h49.2
				c1.1,0,1.9,0.9,1.9,1.9l0,0c0,1.1-0.9,1.9-1.9,1.9h-49.2c-1.1,0-1.9-0.9-1.9-1.9l0,0C136.5,332.7,137.4,331.8,138.5,331.8
				L138.5,331.8z M285.9,331.8h-86.7c-1.1,0-1.9,0.9-1.9,1.9l0,0c0,1.1,0.9,1.9,1.9,1.9h86.7c1.1,0,1.9-0.9,1.9-1.9l0,0
				C287.9,332.7,287,331.8,285.9,331.8L285.9,331.8z M138.5,323.9h49.2c1.1,0,1.9,0.9,1.9,1.9v0c0,1.1-0.9,1.9-1.9,1.9h-49.2
				c-1.1,0-1.9-0.9-1.9-1.9v0C136.5,324.8,137.4,323.9,138.5,323.9L138.5,323.9z M285.9,323.9h-86.7c-1.1,0-1.9,0.9-1.9,1.9v0
				c0,1.1,0.9,1.9,1.9,1.9h86.7c1.1,0,1.9-0.9,1.9-1.9v0C287.9,324.8,287,323.9,285.9,323.9L285.9,323.9z M138.5,316.1h49.2
				c1.1,0,1.9,0.9,1.9,1.9v0c0,1.1-0.9,1.9-1.9,1.9h-49.2c-1.1,0-1.9-0.9-1.9-1.9v0C136.5,316.9,137.4,316.1,138.5,316.1
				L138.5,316.1z M285.9,316.1h-86.7c-1.1,0-1.9,0.9-1.9,1.9v0c0,1.1,0.9,1.9,1.9,1.9h86.7c1.1,0,1.9-0.9,1.9-1.9v0
				C287.9,316.9,287,316.1,285.9,316.1L285.9,316.1z M138.5,308.2h49.2c1.1,0,1.9,0.9,1.9,1.9l0,0c0,1.1-0.9,1.9-1.9,1.9h-49.2
				c-1.1,0-1.9-0.9-1.9-1.9l0,0C136.5,309,137.4,308.2,138.5,308.2L138.5,308.2z M285.9,308.2h-86.7c-1.1,0-1.9,0.9-1.9,1.9l0,0
				c0,1.1,0.9,1.9,1.9,1.9h86.7c1.1,0,1.9-0.9,1.9-1.9l0,0C287.9,309,287,308.2,285.9,308.2L285.9,308.2z M138.5,300.3h49.2
				c1.1,0,1.9,0.9,1.9,1.9l0,0c0,1.1-0.9,1.9-1.9,1.9h-49.2c-1.1,0-1.9-0.9-1.9-1.9l0,0C136.5,301.1,137.4,300.3,138.5,300.3
				L138.5,300.3z M285.9,300.3h-86.7c-1.1,0-1.9,0.9-1.9,1.9l0,0c0,1.1,0.9,1.9,1.9,1.9h86.7c1.1,0,1.9-0.9,1.9-1.9l0,0
				C287.9,301.1,287,300.3,285.9,300.3L285.9,300.3z M138.5,292.4h49.2c1.1,0,1.9,0.9,1.9,1.9l0,0c0,1.1-0.9,1.9-1.9,1.9h-49.2
				c-1.1,0-1.9-0.9-1.9-1.9l0,0C136.5,293.3,137.4,292.4,138.5,292.4L138.5,292.4z M285.9,292.4h-86.7c-1.1,0-1.9,0.9-1.9,1.9l0,0
				c0,1.1,0.9,1.9,1.9,1.9h86.7c1.1,0,1.9-0.9,1.9-1.9l0,0C287.9,293.3,287,292.4,285.9,292.4L285.9,292.4z M138.5,284.5h49.2
				c1.1,0,1.9,0.9,1.9,1.9l0,0c0,1.1-0.9,1.9-1.9,1.9h-49.2c-1.1,0-1.9-0.9-1.9-1.9l0,0C136.5,285.4,137.4,284.5,138.5,284.5
				L138.5,284.5z M285.9,284.5h-86.7c-1.1,0-1.9,0.9-1.9,1.9l0,0c0,1.1,0.9,1.9,1.9,1.9h86.7c1.1,0,1.9-0.9,1.9-1.9l0,0
				C287.9,285.4,287,284.5,285.9,284.5L285.9,284.5z M138.5,276.6h49.2c1.1,0,1.9,0.9,1.9,1.9v0c0,1.1-0.9,1.9-1.9,1.9h-49.2
				c-1.1,0-1.9-0.9-1.9-1.9v0C136.5,277.5,137.4,276.6,138.5,276.6L138.5,276.6z M285.9,276.6h-86.7c-1.1,0-1.9,0.9-1.9,1.9v0
				c0,1.1,0.9,1.9,1.9,1.9h86.7c1.1,0,1.9-0.9,1.9-1.9v0C287.9,277.5,287,276.6,285.9,276.6L285.9,276.6z M138.5,268.7h49.2
				c1.1,0,1.9,0.9,1.9,1.9l0,0c0,1.1-0.9,1.9-1.9,1.9h-49.2c-1.1,0-1.9-0.9-1.9-1.9l0,0C136.5,269.6,137.4,268.7,138.5,268.7
				L138.5,268.7z M285.9,268.7h-86.7c-1.1,0-1.9,0.9-1.9,1.9l0,0c0,1.1,0.9,1.9,1.9,1.9h86.7c1.1,0,1.9-0.9,1.9-1.9l0,0
				C287.9,269.6,287,268.7,285.9,268.7L285.9,268.7z M138.5,260.8h49.2c1.1,0,1.9,0.9,1.9,1.9l0,0c0,1.1-0.9,1.9-1.9,1.9h-49.2
				c-1.1,0-1.9-0.9-1.9-1.9l0,0C136.5,261.7,137.4,260.8,138.5,260.8L138.5,260.8z M285.9,260.8h-86.7c-1.1,0-1.9,0.9-1.9,1.9l0,0
				c0,1.1,0.9,1.9,1.9,1.9h86.7c1.1,0,1.9-0.9,1.9-1.9l0,0C287.9,261.7,287,260.8,285.9,260.8L285.9,260.8z M138.5,252.9h49.2
				c1.1,0,1.9,0.9,1.9,1.9l0,0c0,1.1-0.9,1.9-1.9,1.9h-49.2c-1.1,0-1.9-0.9-1.9-1.9l0,0C136.5,253.8,137.4,252.9,138.5,252.9z"/>
			<path class="st3" d="M277.3,146.1H261l-14.7,84.8h12.8l2.8-19.3h14.2l2.8,19.3H292L277.3,146.1L277.3,146.1z M269.2,164.3
				l5.2,35.7h-10.8l5.2-35.7H269.2z"/>
			<path class="st4" d="M314.9,514.9H367c3.4,0,6.2,2.8,6.2,6.2v44.2c0,3.4-2.8,6.2-6.2,6.2h-52.2c-3.4,0-6.2-2.8-6.2-6.2v-44.2
				C308.6,517.6,311.4,514.9,314.9,514.9z"/>
			<path class="st4" d="M315.7,362.2h50.4c3.9,0,7.1,3.2,7.1,7.1v123.4c0,3.9-3.2,7.1-7.1,7.1h-50.4c-3.9,0-7.1-3.2-7.1-7.1V369.3
				C308.6,365.4,311.8,362.2,315.7,362.2z"/>
			<path class="st5" d="M149.7,451.1h124.9c7.3,0,13.2,5.9,13.2,13.2v94c0,7.3-5.9,13.2-13.2,13.2H149.7c-7.3,0-13.2-5.9-13.2-13.2
				v-94C136.5,457.1,142.5,451.1,149.7,451.1z"/>
			<path class="st2" d="M175.1,474.2c7.9-7.9,18.4-11.9,28.8-11.9c10.4,0,20.8,4,28.8,11.9c7.9,7.9,11.9,18.4,11.9,28.8
				c0,9.5-3.3,18.9-9.9,26.6l8.2,8.2c1.4-0.2,2.9,0.3,4,1.4l12.8,12.8c1.9,1.9,1.9,5,0,6.9c-1.9,1.9-5,1.9-6.9,0l-12.8-12.8
				c-1.1-1.1-1.6-2.6-1.4-4l-8.2-8.2c-7.6,6.6-17.1,9.9-26.6,9.9c-10.4,0-20.8-4-28.8-11.9c-7.9-7.9-11.9-18.4-11.9-28.8
				C163.2,492.6,167.2,482.2,175.1,474.2L175.1,474.2z M203.9,468.3c-8.9,0-17.7,3.4-24.5,10.2c-6.8,6.8-10.2,15.6-10.2,24.5
				c0,8.9,3.4,17.7,10.2,24.5c6.8,6.8,15.6,10.2,24.5,10.2c8.9,0,17.7-3.4,24.5-10.2c6.8-6.8,10.2-15.6,10.2-24.5
				c0-8.9-3.4-17.7-10.2-24.5C221.6,471.7,212.8,468.3,203.9,468.3z"/>
		</g>
	</g>
	<g>
		<g>
			<path class="st6" d="M743.8,297.6c29.7-28.8,48.9,7.8,44.1,44.5c-4.6,34.8-40.6,154.2-37.6,204.4h-11.5
				C713.9,482.1,705.7,334.5,743.8,297.6z"/>
			<path class="st7" d="M743,546.5c-22.2-101.5,19.6-241.8,19.8-242.3c0.3-0.9,1.2-1.4,2-1.2c0.9,0.2,1.4,1.1,1.1,2
				c-0.1,0.5-42,141-19.6,241.6H743z"/>
		</g>
		<g>
			<path class="st7" d="M810.3,361.1c30.6-15.8,36.3,18.7,23.3,47.1c-10.8,23.6-56.9,93.5-75.3,138.3h-15.1
				C745,484.5,774.2,379.7,810.3,361.1z"/>
			<path class="st6" d="M748.7,546.5c14.1-83.9,74.6-175,74.8-175.4c0.4-0.6,1.3-0.8,1.9-0.5c0.6,0.4,0.8,1.2,0.4,1.9
				c-0.2,0.3-60.3,90.9-74.3,174H748.7z"/>
		</g>
		<g>
			<path class="st8" d="M682.3,400.9c-28.2-12.6-34.5,20-23,45.7c7.8,17.4,36.8,62,55.9,99.9h24C734,489.2,711.5,413.9,682.3,400.9z
				"/>
			<path class="st6" d="M730.8,546.5c-17-69.5-60.8-135-61-135.3c-0.4-0.6-1.2-0.7-1.8-0.3c-0.6,0.4-0.8,1.2-0.4,1.8
				c0.2,0.3,43.6,65.1,60.5,133.8H730.8z"/>
		</g>
	</g>
	<g>
		<path class="st9" d="M332.9,545.5h214c8.8,0,16.8,3.6,22.6,9.4c5.8,5.8,9.4,13.8,9.4,22.6c0,8.8-3.6,16.8-9.4,22.6
			c-5.8,5.8-13.8,9.4-22.6,9.4h-214c-8.8,0-16.8-3.6-22.6-9.4c-5.8-5.8-9.4-13.8-9.4-22.6c0-8.8,3.6-16.8,9.4-22.6
			C316.1,549.1,324.1,545.5,332.9,545.5z"/>
		<path class="st10" d="M811.7,549.2H538c-15.5,0-28.3,12.7-28.3,28.3l0,0c0,15.6,12.7,28.3,28.3,28.3h273.7V549.2z"/>
		<path class="st3" d="M811.7,545.5c2.1,0,3.7,1.7,3.7,3.7c0,2.1-1.7,3.7-3.7,3.7H538c-6.7,0-12.9,2.8-17.3,7.2
			c-4.4,4.4-7.2,10.6-7.2,17.3c0,6.7,2.8,12.9,7.2,17.3c4.4,4.4,10.6,7.2,17.3,7.2h273.7c2.1,0,3.7,1.7,3.7,3.7
			c0,2.1-1.7,3.7-3.7,3.7H538c-8.8,0-16.8-3.6-22.6-9.4c-5.8-5.8-9.4-13.8-9.4-22.6c0-8.8,3.6-16.8,9.4-22.6
			c5.8-5.8,13.8-9.4,22.6-9.4H811.7z"/>
		<path class="st3" d="M342.8,577.5c0-8.8,3.6-16.8,9.4-22.6c5.8-5.8,13.8-9.4,22.6-9.4h-27.8c-8.8,0-16.8,3.6-22.6,9.4
			c-5.8,5.8-9.4,13.8-9.4,22.6c0,8.8,3.6,16.8,9.4,22.6c5.8,5.8,13.8,9.4,22.6,9.4h27.8c-8.8,0-16.8-3.6-22.6-9.4
			C346.4,594.3,342.8,586.3,342.8,577.5z"/>
		<path class="st3" d="M383.1,577.5c0-8.8,3.6-16.8,9.4-22.6c5.8-5.8,13.8-9.4,22.6-9.4h-27.8c-8.8,0-16.8,3.6-22.6,9.4
			c-5.8,5.8-9.4,13.8-9.4,22.6c0,8.8,3.6,16.8,9.4,22.6c5.8,5.8,13.8,9.4,22.6,9.4h27.8c-8.8,0-16.8-3.6-22.6-9.4
			C386.7,594.3,383.1,586.3,383.1,577.5z"/>
	</g>
	<g>
		<path class="st3" d="M744,182.7c32.4,0,58.8-26.4,58.8-58.7c0-32.4-26.4-58.8-58.8-58.8c-32.4,0-58.7,26.4-58.7,58.8
			C685.2,156.3,711.6,182.7,744,182.7z"/>
		<path class="st2" d="M744,169.8c25.2,0,45.8-20.6,45.8-45.8c0-25.2-20.6-45.8-45.8-45.8c-25.2,0-45.8,20.6-45.8,45.8
			C698.1,149.2,718.7,169.8,744,169.8z"/>
		<g>
			<g>
				<path class="st1" d="M744,81.1L744,81.1c0.5,0,1,0.4,1,1v2.4c0,0.5-0.4,1-1,1l0,0c-0.5,0-1-0.4-1-1v-2.4
					C743,81.5,743.4,81.1,744,81.1z"/>
				<path class="st1" d="M744,162.4L744,162.4c0.5,0,1,0.4,1,1v2.4c0,0.5-0.4,1-1,1l0,0c-0.5,0-1-0.4-1-1v-2.4
					C743,162.9,743.4,162.4,744,162.4z"/>
			</g>
			<g>
				<path class="st1" d="M765.4,86.8L765.4,86.8c0.5,0.3,0.6,0.9,0.4,1.4l-1.2,2.1c-0.3,0.5-0.9,0.6-1.4,0.4l0,0
					c-0.5-0.3-0.6-0.9-0.4-1.4l1.2-2.1C764.3,86.7,764.9,86.6,765.4,86.8z"/>
				<path class="st1" d="M724.7,157.3L724.7,157.3c0.5,0.3,0.6,0.9,0.4,1.4l-1.2,2.1c-0.3,0.5-0.9,0.6-1.4,0.4l0,0
					c-0.5-0.3-0.6-0.9-0.4-1.4l1.2-2.1C723.6,157.1,724.3,157,724.7,157.3z"/>
			</g>
			<g>
				<path class="st1" d="M781.1,102.5L781.1,102.5c0.3,0.5,0.1,1.1-0.4,1.4l-2.1,1.2c-0.5,0.3-1.1,0.1-1.4-0.4v0
					c-0.3-0.5-0.1-1.1,0.4-1.4l2.1-1.2C780.2,101.9,780.8,102.1,781.1,102.5z"/>
				<path class="st1" d="M710.7,143.2L710.7,143.2c0.3,0.5,0.1,1.1-0.4,1.4l-2.1,1.2c-0.5,0.3-1.1,0.1-1.4-0.4l0,0
					c-0.3-0.5-0.1-1.1,0.4-1.4l2.1-1.2C709.8,142.5,710.4,142.7,710.7,143.2z"/>
			</g>
			<g>
				<path class="st1" d="M786.8,124L786.8,124c0,0.6-0.4,1-1,1h-2.4c-0.5,0-1-0.4-1-1v0c0-0.5,0.4-1,1-1h2.4
					C786.4,123,786.8,123.4,786.8,124z"/>
				<path class="st1" d="M705.5,124L705.5,124c0,0.6-0.4,1-1,1h-2.4c-0.5,0-1-0.4-1-1v0c0-0.5,0.4-1,1-1h2.4
					C705.1,123,705.5,123.4,705.5,124z"/>
			</g>
			<g>
				<path class="st1" d="M781.1,145.4L781.1,145.4c-0.3,0.5-0.9,0.6-1.4,0.4l-2.1-1.2c-0.5-0.3-0.6-0.9-0.4-1.4v0
					c0.3-0.5,0.9-0.6,1.4-0.4l2.1,1.2C781.2,144.3,781.4,144.9,781.1,145.4z"/>
				<path class="st1" d="M710.7,104.7L710.7,104.7c-0.3,0.5-0.9,0.6-1.4,0.4l-2.1-1.2c-0.5-0.3-0.6-0.9-0.4-1.4l0,0
					c0.3-0.5,0.9-0.6,1.4-0.4l2.1,1.2C710.8,103.6,710.9,104.3,710.7,104.7z"/>
			</g>
			<g>
				<path class="st1" d="M765.4,161.1L765.4,161.1c-0.5,0.3-1.1,0.1-1.4-0.4l-1.2-2.1c-0.3-0.5-0.1-1.1,0.4-1.4l0,0
					c0.5-0.3,1.1-0.1,1.4,0.4l1.2,2.1C766,160.2,765.9,160.8,765.4,161.1z"/>
				<path class="st1" d="M724.7,90.7L724.7,90.7c-0.5,0.3-1.1,0.1-1.4-0.4l-1.2-2.1c-0.3-0.5-0.1-1.1,0.4-1.4l0,0
					c0.5-0.3,1.1-0.1,1.4,0.4l1.2,2.1C725.4,89.8,725.2,90.4,724.7,90.7z"/>
			</g>
			<path class="st1" d="M745.4,124c0,0.8-0.6,1.4-1.4,1.4c-0.8,0-1.4-0.6-1.4-1.4V90.9c0-0.8,0.6-1.4,1.4-1.4c0.8,0,1.4,0.6,1.4,1.4
				V124z"/>
		</g>
		<path class="st3" d="M743.2,125.2c-0.7-0.4-0.9-1.3-0.5-1.9c0.4-0.7,1.3-0.9,1.9-0.5l20.3,12.7c0.7,0.4,0.9,1.3,0.5,1.9
			c-0.4,0.7-1.3,0.9-1.9,0.5L743.2,125.2z"/>
	</g>
	<g>
		<path class="st1" d="M815.4,609.5H571c-10,0-19.2,4.1-25.8,10.7c-6.6,6.6-10.7,15.8-10.7,25.8c0,10.1,4.1,19.2,10.7,25.8
			c6.6,6.6,15.8,10.7,25.8,10.7h244.4c10.1,0,19.2-4.1,25.8-10.7c6.6-6.6,10.7-15.8,10.7-25.8c0-10-4.1-19.2-10.7-25.8
			C834.6,613.6,825.5,609.5,815.4,609.5z"/>
		<path class="st2" d="M268.6,613.7h312.6c17.8,0,32.3,14.5,32.3,32.3l0,0c0,17.8-14.5,32.3-32.3,32.3H268.6V613.7z"/>
		<path class="st0" d="M268.6,609.5c-2.4,0-4.3,1.9-4.3,4.3c0,2.3,1.9,4.3,4.3,4.3h312.6c7.7,0,14.7,3.2,19.8,8.2
			c5.1,5.1,8.2,12.1,8.2,19.8c0,7.7-3.2,14.7-8.2,19.8c-5.1,5.1-12.1,8.2-19.8,8.2H268.6c-2.4,0-4.3,1.9-4.3,4.3
			c0,2.3,1.9,4.3,4.3,4.3h312.6c10.1,0,19.2-4.1,25.8-10.7c6.6-6.6,10.7-15.8,10.7-25.8c0-10-4.1-19.2-10.7-25.8
			c-6.6-6.6-15.8-10.7-25.8-10.7H268.6z"/>
		<path class="st0" d="M804.1,646c0-10-4.1-19.2-10.7-25.8c-6.6-6.6-15.8-10.7-25.8-10.7h31.8c10.1,0,19.2,4.1,25.8,10.7
			c6.6,6.6,10.7,15.8,10.7,25.8c0,10.1-4.1,19.2-10.7,25.8c-6.6,6.6-15.8,10.7-25.8,10.7h-31.8c10.1,0,19.2-4.1,25.8-10.7
			C800,665.2,804.1,656,804.1,646z"/>
		<path class="st0" d="M758.1,646c0-10-4.1-19.2-10.7-25.8c-6.6-6.6-15.8-10.7-25.8-10.7h31.8c10.1,0,19.2,4.1,25.8,10.7
			c6.6,6.6,10.7,15.8,10.7,25.8c0,10.1-4.1,19.2-10.7,25.8c-6.6,6.6-15.8,10.7-25.8,10.7h-31.8c10,0,19.2-4.1,25.8-10.7
			C754,665.2,758.1,656,758.1,646z"/>
	</g>
	<g>
		<g>
			<path class="st11" d="M336.7,314.9h-19.6c-5.2,0-9.4-4.2-9.4-9.4v-3.7v-22.8v-31.8v-38.9v-72.6c0-5.2-4.2-9.4-9.4-9.4h136.1
				c5.2,0,9.4,4.2,9.4,9.4v72.6v38.9v54.6c0,2.4-1.9,4.3-4.3,4.3H336.7V314.9z"/>
			<path class="st12" d="M439.1,141.6H312.9c-0.9,0-1.6,0.7-1.6,1.6v2.8c0,0.9,0.7,1.6,1.6,1.6h126.2c0.9,0,1.6-0.7,1.6-1.6v-2.8
				C440.6,142.3,439.9,141.6,439.1,141.6z"/>
			<path class="st12" d="M435.9,153.5h-70.5c-0.9,0-1.6,0.7-1.6,1.6v0c0,0.9,0.7,1.6,1.6,1.6h70.5c0.9,0,1.6-0.7,1.6-1.6v0
				C437.5,154.2,436.8,153.5,435.9,153.5L435.9,153.5z M316,301h40c0.9,0,1.6,0.7,1.6,1.6l0,0c0,0.9-0.7,1.6-1.6,1.6h-40
				c-0.9,0-1.6-0.7-1.6-1.6l0,0C314.5,301.7,315.2,301,316,301L316,301z M435.9,301h-70.5c-0.9,0-1.6,0.7-1.6,1.6l0,0
				c0,0.9,0.7,1.6,1.6,1.6h70.5c0.9,0,1.6-0.7,1.6-1.6l0,0C437.5,301.7,436.8,301,435.9,301L435.9,301z M316,294.6h40
				c0.9,0,1.6,0.7,1.6,1.6v0c0,0.9-0.7,1.6-1.6,1.6h-40c-0.9,0-1.6-0.7-1.6-1.6v0C314.5,295.3,315.2,294.6,316,294.6L316,294.6z
				 M435.9,294.6h-70.5c-0.9,0-1.6,0.7-1.6,1.6v0c0,0.9,0.7,1.6,1.6,1.6h70.5c0.9,0,1.6-0.7,1.6-1.6v0
				C437.5,295.3,436.8,294.6,435.9,294.6L435.9,294.6z M316,288.2h40c0.9,0,1.6,0.7,1.6,1.6l0,0c0,0.9-0.7,1.6-1.6,1.6h-40
				c-0.9,0-1.6-0.7-1.6-1.6l0,0C314.5,288.9,315.2,288.2,316,288.2L316,288.2z M435.9,288.2h-70.5c-0.9,0-1.6,0.7-1.6,1.6l0,0
				c0,0.9,0.7,1.6,1.6,1.6h70.5c0.9,0,1.6-0.7,1.6-1.6l0,0C437.5,288.9,436.8,288.2,435.9,288.2L435.9,288.2z M316,281.8h40
				c0.9,0,1.6,0.7,1.6,1.6v0c0,0.9-0.7,1.6-1.6,1.6h-40c-0.9,0-1.6-0.7-1.6-1.6v0C314.5,282.5,315.2,281.8,316,281.8L316,281.8z
				 M435.9,281.8h-70.5c-0.9,0-1.6,0.7-1.6,1.6v0c0,0.9,0.7,1.6,1.6,1.6h70.5c0.9,0,1.6-0.7,1.6-1.6v0
				C437.5,282.5,436.8,281.8,435.9,281.8L435.9,281.8z M316,275.4h40c0.9,0,1.6,0.7,1.6,1.6l0,0c0,0.9-0.7,1.6-1.6,1.6h-40
				c-0.9,0-1.6-0.7-1.6-1.6l0,0C314.5,276.1,315.2,275.4,316,275.4L316,275.4z M435.9,275.4h-70.5c-0.9,0-1.6,0.7-1.6,1.6l0,0
				c0,0.9,0.7,1.6,1.6,1.6h70.5c0.9,0,1.6-0.7,1.6-1.6l0,0C437.5,276.1,436.8,275.4,435.9,275.4L435.9,275.4z M316,269h40
				c0.9,0,1.6,0.7,1.6,1.6l0,0c0,0.9-0.7,1.6-1.6,1.6h-40c-0.9,0-1.6-0.7-1.6-1.6l0,0C314.5,269.7,315.2,269,316,269L316,269z
				 M435.9,269h-70.5c-0.9,0-1.6,0.7-1.6,1.6l0,0c0,0.9,0.7,1.6,1.6,1.6h70.5c0.9,0,1.6-0.7,1.6-1.6l0,0
				C437.5,269.7,436.8,269,435.9,269L435.9,269z M316,262.5h40c0.9,0,1.6,0.7,1.6,1.6l0,0c0,0.9-0.7,1.6-1.6,1.6h-40
				c-0.9,0-1.6-0.7-1.6-1.6l0,0C314.5,263.2,315.2,262.5,316,262.5L316,262.5z M435.9,262.5h-70.5c-0.9,0-1.6,0.7-1.6,1.6l0,0
				c0,0.9,0.7,1.6,1.6,1.6h70.5c0.9,0,1.6-0.7,1.6-1.6l0,0C437.5,263.2,436.8,262.5,435.9,262.5L435.9,262.5z M316,256.1h40
				c0.9,0,1.6,0.7,1.6,1.6l0,0c0,0.9-0.7,1.6-1.6,1.6h-40c-0.9,0-1.6-0.7-1.6-1.6l0,0C314.5,256.8,315.2,256.1,316,256.1L316,256.1z
				 M435.9,256.1h-70.5c-0.9,0-1.6,0.7-1.6,1.6l0,0c0,0.9,0.7,1.6,1.6,1.6h70.5c0.9,0,1.6-0.7,1.6-1.6l0,0
				C437.5,256.8,436.8,256.1,435.9,256.1L435.9,256.1z M316,249.7h40c0.9,0,1.6,0.7,1.6,1.6l0,0c0,0.9-0.7,1.6-1.6,1.6h-40
				c-0.9,0-1.6-0.7-1.6-1.6l0,0C314.5,250.4,315.2,249.7,316,249.7L316,249.7z M435.9,249.7h-70.5c-0.9,0-1.6,0.7-1.6,1.6l0,0
				c0,0.9,0.7,1.6,1.6,1.6h70.5c0.9,0,1.6-0.7,1.6-1.6l0,0C437.5,250.4,436.8,249.7,435.9,249.7L435.9,249.7z M316,243.3h40
				c0.9,0,1.6,0.7,1.6,1.6v0c0,0.9-0.7,1.6-1.6,1.6h-40c-0.9,0-1.6-0.7-1.6-1.6v0C314.5,244,315.2,243.3,316,243.3L316,243.3z
				 M435.9,243.3h-70.5c-0.9,0-1.6,0.7-1.6,1.6v0c0,0.9,0.7,1.6,1.6,1.6h70.5c0.9,0,1.6-0.7,1.6-1.6v0
				C437.5,244,436.8,243.3,435.9,243.3L435.9,243.3z M316,236.9h40c0.9,0,1.6,0.7,1.6,1.6l0,0c0,0.9-0.7,1.6-1.6,1.6h-40
				c-0.9,0-1.6-0.7-1.6-1.6l0,0C314.5,237.6,315.2,236.9,316,236.9L316,236.9z M435.9,236.9h-70.5c-0.9,0-1.6,0.7-1.6,1.6l0,0
				c0,0.9,0.7,1.6,1.6,1.6h70.5c0.9,0,1.6-0.7,1.6-1.6l0,0C437.5,237.6,436.8,236.9,435.9,236.9L435.9,236.9z M316,230.5h40
				c0.9,0,1.6,0.7,1.6,1.6l0,0c0,0.9-0.7,1.6-1.6,1.6h-40c-0.9,0-1.6-0.7-1.6-1.6l0,0C314.5,231.2,315.2,230.5,316,230.5L316,230.5z
				 M435.9,230.5h-70.5c-0.9,0-1.6,0.7-1.6,1.6l0,0c0,0.9,0.7,1.6,1.6,1.6h70.5c0.9,0,1.6-0.7,1.6-1.6l0,0
				C437.5,231.2,436.8,230.5,435.9,230.5L435.9,230.5z M316,224h40c0.9,0,1.6,0.7,1.6,1.6l0,0c0,0.9-0.7,1.6-1.6,1.6h-40
				c-0.9,0-1.6-0.7-1.6-1.6l0,0C314.5,224.7,315.2,224,316,224L316,224z M435.9,224h-70.5c-0.9,0-1.6,0.7-1.6,1.6l0,0
				c0,0.9,0.7,1.6,1.6,1.6h70.5c0.9,0,1.6-0.7,1.6-1.6l0,0C437.5,224.7,436.8,224,435.9,224L435.9,224z M316,217.6h40
				c0.9,0,1.6,0.7,1.6,1.6l0,0c0,0.9-0.7,1.6-1.6,1.6h-40c-0.9,0-1.6-0.7-1.6-1.6l0,0C314.5,218.3,315.2,217.6,316,217.6L316,217.6z
				 M435.9,217.6h-70.5c-0.9,0-1.6,0.7-1.6,1.6l0,0c0,0.9,0.7,1.6,1.6,1.6h70.5c0.9,0,1.6-0.7,1.6-1.6l0,0
				C437.5,218.3,436.8,217.6,435.9,217.6L435.9,217.6z M316,211.2h40c0.9,0,1.6,0.7,1.6,1.6v0c0,0.9-0.7,1.6-1.6,1.6h-40
				c-0.9,0-1.6-0.7-1.6-1.6v0C314.5,211.9,315.2,211.2,316,211.2L316,211.2z M435.9,211.2h-70.5c-0.9,0-1.6,0.7-1.6,1.6v0
				c0,0.9,0.7,1.6,1.6,1.6h70.5c0.9,0,1.6-0.7,1.6-1.6v0C437.5,211.9,436.8,211.2,435.9,211.2L435.9,211.2z M316,204.8h40
				c0.9,0,1.6,0.7,1.6,1.6l0,0c0,0.9-0.7,1.6-1.6,1.6h-40c-0.9,0-1.6-0.7-1.6-1.6l0,0C314.5,205.5,315.2,204.8,316,204.8L316,204.8z
				 M435.9,204.8h-70.5c-0.9,0-1.6,0.7-1.6,1.6l0,0c0,0.9,0.7,1.6,1.6,1.6h70.5c0.9,0,1.6-0.7,1.6-1.6l0,0
				C437.5,205.5,436.8,204.8,435.9,204.8L435.9,204.8z M316,198.4h40c0.9,0,1.6,0.7,1.6,1.6l0,0c0,0.9-0.7,1.6-1.6,1.6h-40
				c-0.9,0-1.6-0.7-1.6-1.6l0,0C314.5,199.1,315.2,198.4,316,198.4L316,198.4z M435.9,198.4h-70.5c-0.9,0-1.6,0.7-1.6,1.6l0,0
				c0,0.9,0.7,1.6,1.6,1.6h70.5c0.9,0,1.6-0.7,1.6-1.6l0,0C437.5,199.1,436.8,198.4,435.9,198.4L435.9,198.4z M316,192h40
				c0.9,0,1.6,0.7,1.6,1.6v0c0,0.9-0.7,1.6-1.6,1.6h-40c-0.9,0-1.6-0.7-1.6-1.6v0C314.5,192.7,315.2,192,316,192L316,192z
				 M435.9,192h-70.5c-0.9,0-1.6,0.7-1.6,1.6v0c0,0.9,0.7,1.6,1.6,1.6h70.5c0.9,0,1.6-0.7,1.6-1.6v0
				C437.5,192.7,436.8,192,435.9,192L435.9,192z M316,185.5h40c0.9,0,1.6,0.7,1.6,1.6l0,0c0,0.9-0.7,1.6-1.6,1.6h-40
				c-0.9,0-1.6-0.7-1.6-1.6l0,0C314.5,186.3,315.2,185.5,316,185.5L316,185.5z M435.9,185.5h-70.5c-0.9,0-1.6,0.7-1.6,1.6l0,0
				c0,0.9,0.7,1.6,1.6,1.6h70.5c0.9,0,1.6-0.7,1.6-1.6l0,0C437.5,186.3,436.8,185.5,435.9,185.5L435.9,185.5z M316,179.1h40
				c0.9,0,1.6,0.7,1.6,1.6v0c0,0.9-0.7,1.6-1.6,1.6h-40c-0.9,0-1.6-0.7-1.6-1.6v0C314.5,179.8,315.2,179.1,316,179.1L316,179.1z
				 M435.9,179.1h-70.5c-0.9,0-1.6,0.7-1.6,1.6v0c0,0.9,0.7,1.6,1.6,1.6h70.5c0.9,0,1.6-0.7,1.6-1.6v0
				C437.5,179.8,436.8,179.1,435.9,179.1L435.9,179.1z M316,172.7h40c0.9,0,1.6,0.7,1.6,1.6v0c0,0.9-0.7,1.6-1.6,1.6h-40
				c-0.9,0-1.6-0.7-1.6-1.6v0C314.5,173.4,315.2,172.7,316,172.7L316,172.7z M435.9,172.7h-70.5c-0.9,0-1.6,0.7-1.6,1.6v0
				c0,0.9,0.7,1.6,1.6,1.6h70.5c0.9,0,1.6-0.7,1.6-1.6v0C437.5,173.4,436.8,172.7,435.9,172.7L435.9,172.7z M316,166.3h40
				c0.9,0,1.6,0.7,1.6,1.6l0,0c0,0.9-0.7,1.6-1.6,1.6h-40c-0.9,0-1.6-0.7-1.6-1.6l0,0C314.5,167,315.2,166.3,316,166.3L316,166.3z
				 M435.9,166.3h-70.5c-0.9,0-1.6,0.7-1.6,1.6l0,0c0,0.9,0.7,1.6,1.6,1.6h70.5c0.9,0,1.6-0.7,1.6-1.6l0,0
				C437.5,167,436.8,166.3,435.9,166.3L435.9,166.3z M316,159.9h40c0.9,0,1.6,0.7,1.6,1.6v0c0,0.9-0.7,1.6-1.6,1.6h-40
				c-0.9,0-1.6-0.7-1.6-1.6v0C314.5,160.6,315.2,159.9,316,159.9L316,159.9z M435.9,159.9h-70.5c-0.9,0-1.6,0.7-1.6,1.6v0
				c0,0.9,0.7,1.6,1.6,1.6h70.5c0.9,0,1.6-0.7,1.6-1.6v0C437.5,160.6,436.8,159.9,435.9,159.9L435.9,159.9z M316,153.5h40
				c0.9,0,1.6,0.7,1.6,1.6v0c0,0.9-0.7,1.6-1.6,1.6h-40c-0.9,0-1.6-0.7-1.6-1.6v0C314.5,154.2,315.2,153.5,316,153.5z"/>
		</g>
		<g>
			<path class="st13" d="M326.5,305.5c0,5.2-4.2,9.4-9.4,9.4h13.8h49.1h5.1c2.4,0,4.3-1.9,4.3-4.3l30.4-5.1c0-39.6,0-48.7,0-88.4
				c0-5.2,4.2-9.4,9.4-9.4H336c-5.2,0-9.4,4.2-9.4,9.4C326.5,256.7,326.5,265.8,326.5,305.5z"/>
			<path class="st14" d="M345.4,217.1c0-5.2-4.2-9.4-9.4-9.4h13.8h122.4h5.1c2.4,0,4.3,1.9,4.3,4.3v5.1c0,39.6,0,79.2,0,118.8
				c0,5.2,4.2,9.4,9.4,9.4H354.9c-5.2,0-9.4-4.2-9.4-9.4C345.4,296.3,345.4,256.7,345.4,217.1z"/>
		</g>
		<g>
			<path class="st4" d="M364.3,224.4v38.9v72.6c0,5.2-4.2,9.4-9.4,9.4H491c5.2,0,9.4-4.2,9.4-9.4v-72.6v-38.9v-50.9
				c0-2.4-1.9-4.3-4.3-4.3H368.6c-2.4,0-4.3,1.9-4.3,4.3V224.4z"/>
			<path class="st14" d="M479.9,263.5H375.6c-3,0-5.4,2.4-5.4,5.4v53c0,3,2.4,5.4,5.4,5.4h104.3c3,0,5.4-2.4,5.4-5.4v-53
				C485.3,265.9,482.9,263.5,479.9,263.5z"/>
			<path class="st14" d="M500.4,184.1v-10.5c0-2.4-1.9-4.3-4.3-4.3H368.6c-2.4,0-4.3,1.9-4.3,4.3v10.5H500.4z"/>
			<g>
				<path class="st2" d="M488.4,178.8c1.2,0,2.1-1,2.1-2.1c0-1.2-1-2.1-2.1-2.1c-1.2,0-2.1,1-2.1,2.1
					C486.2,177.9,487.2,178.8,488.4,178.8z"/>
				<path class="st2" d="M480.6,178.8c1.2,0,2.1-1,2.1-2.1c0-1.2-1-2.1-2.1-2.1c-1.2,0-2.1,1-2.1,2.1
					C478.4,177.9,479.4,178.8,480.6,178.8z"/>
				<path class="st2" d="M472.8,178.8c1.2,0,2.1-1,2.1-2.1c0-1.2-1-2.1-2.1-2.1c-1.2,0-2.1,1-2.1,2.1
					C470.6,177.9,471.6,178.8,472.8,178.8z"/>
			</g>
			<path class="st2" d="M489.6,207.8h-14c-0.4,0-0.8,0.3-0.8,0.8l0,0c0,0.4,0.3,0.8,0.8,0.8h14c0.4,0,0.8-0.3,0.8-0.8l0,0
				C490.3,208.2,490,207.8,489.6,207.8z"/>
			<path class="st2" d="M489.6,211.2h-8c-0.4,0-0.8,0.3-0.8,0.8l0,0c0,0.4,0.3,0.8,0.8,0.8h8c0.4,0,0.8-0.3,0.8-0.8l0,0
				C490.3,211.5,490,211.2,489.6,211.2z"/>
			<path class="st2" d="M489.6,217.9h-14c-0.4,0-0.8,0.3-0.8,0.8l0,0c0,0.4,0.3,0.8,0.8,0.8h14c0.4,0,0.8-0.3,0.8-0.8l0,0
				C490.3,218.2,490,217.9,489.6,217.9z"/>
			<path class="st2" d="M489.6,221.2h-8c-0.4,0-0.8,0.3-0.8,0.8l0,0c0,0.4,0.3,0.8,0.8,0.8h8c0.4,0,0.8-0.3,0.8-0.8l0,0
				C490.3,221.5,490,221.2,489.6,221.2z"/>
			<path class="st2" d="M478.9,221.2h-1.2c-0.4,0-0.8,0.3-0.8,0.8l0,0c0,0.4,0.3,0.8,0.8,0.8h1.2c0.4,0,0.8-0.3,0.8-0.8l0,0
				C479.7,221.5,479.3,221.2,478.9,221.2z"/>
			<path class="st2" d="M489.6,230.4h-7.1c-0.4,0-0.8-0.3-0.8-0.8l0,0c0-0.4,0.3-0.8,0.8-0.8h7.1c0.4,0,0.8,0.3,0.8,0.8l0,0
				C490.3,230,490,230.4,489.6,230.4z"/>
			<path class="st2" d="M489.6,227.1h-9.9c-0.4,0-0.8-0.3-0.8-0.8l0,0c0-0.4,0.3-0.8,0.8-0.8h9.9c0.4,0,0.8,0.3,0.8,0.8l0,0
				C490.3,226.7,490,227.1,489.6,227.1z"/>
			<path class="st2" d="M476.8,227.1h-1.7c-0.4,0-0.8-0.3-0.8-0.8l0,0c0-0.4,0.3-0.8,0.8-0.8h1.7c0.4,0,0.8,0.3,0.8,0.8l0,0
				C477.5,226.7,477.2,227.1,476.8,227.1z"/>
			<path class="st2" d="M489.6,233.9h-4.7c-0.4,0-0.8-0.3-0.8-0.8l0,0c0-0.4,0.3-0.8,0.8-0.8h4.7c0.4,0,0.8,0.3,0.8,0.8l0,0
				C490.3,233.5,490,233.9,489.6,233.9z"/>
			<path class="st2" d="M489.6,237.2h-10.5c-0.4,0-0.8-0.3-0.8-0.8l0,0c0-0.4,0.3-0.8,0.8-0.8h10.5c0.4,0,0.8,0.3,0.8,0.8l0,0
				C490.3,236.9,490,237.2,489.6,237.2z"/>
			<path class="st0" d="M455.3,203.1h-79.1c-0.4,0-0.8,0.3-0.8,0.8l0,0c0,0.4,0.3,0.8,0.8,0.8h79.1c0.4,0,0.8-0.3,0.8-0.8l0,0
				C456.1,203.4,455.8,203.1,455.3,203.1L455.3,203.1z M455.3,248.3h-79.1c-0.4,0-0.8,0.3-0.8,0.8l0,0c0,0.4,0.3,0.8,0.8,0.8h79.1
				c0.4,0,0.8-0.3,0.8-0.8l0,0C456.1,248.7,455.8,248.3,455.3,248.3L455.3,248.3z M455.3,241.9h-79.1c-0.4,0-0.8,0.3-0.8,0.8l0,0
				c0,0.4,0.3,0.8,0.8,0.8h79.1c0.4,0,0.8-0.3,0.8-0.8l0,0C456.1,242.2,455.8,241.9,455.3,241.9L455.3,241.9z M455.3,235.4h-79.1
				c-0.4,0-0.8,0.3-0.8,0.8l0,0c0,0.4,0.3,0.8,0.8,0.8h79.1c0.4,0,0.8-0.3,0.8-0.8l0,0C456.1,235.7,455.8,235.4,455.3,235.4
				L455.3,235.4z M455.3,228.9h-79.1c-0.4,0-0.8,0.3-0.8,0.8l0,0c0,0.4,0.3,0.8,0.8,0.8h79.1c0.4,0,0.8-0.3,0.8-0.8l0,0
				C456.1,229.3,455.8,228.9,455.3,228.9L455.3,228.9z M455.3,222.5h-79.1c-0.4,0-0.8,0.3-0.8,0.8l0,0c0,0.4,0.3,0.8,0.8,0.8h79.1
				c0.4,0,0.8-0.3,0.8-0.8l0,0C456.1,222.8,455.8,222.5,455.3,222.5L455.3,222.5z M455.3,216h-79.1c-0.4,0-0.8,0.3-0.8,0.8l0,0
				c0,0.4,0.3,0.8,0.8,0.8h79.1c0.4,0,0.8-0.3,0.8-0.8l0,0C456.1,216.3,455.8,216,455.3,216L455.3,216z M455.3,209.5h-79.1
				c-0.4,0-0.8,0.3-0.8,0.8l0,0c0,0.4,0.3,0.8,0.8,0.8h79.1c0.4,0,0.8-0.3,0.8-0.8l0,0C456.1,209.9,455.8,209.5,455.3,209.5z"/>
			<g>
				<path class="st15" d="M462.3,205.1c0.7,0,1.3-0.6,1.3-1.3c0-0.7-0.6-1.3-1.3-1.3c-0.7,0-1.3,0.6-1.3,1.3
					C461,204.5,461.6,205.1,462.3,205.1z"/>
				<path class="st15" d="M462.3,211.6c0.7,0,1.3-0.6,1.3-1.3c0-0.7-0.6-1.3-1.3-1.3c-0.7,0-1.3,0.6-1.3,1.3
					C461,211,461.6,211.6,462.3,211.6z"/>
				<path class="st15" d="M462.3,218c0.7,0,1.3-0.6,1.3-1.3c0-0.7-0.6-1.3-1.3-1.3c-0.7,0-1.3,0.6-1.3,1.3
					C461,217.5,461.6,218,462.3,218z"/>
				
					<ellipse transform="matrix(0.987 -0.1606 0.1606 0.987 -29.8495 77.1459)" class="st15" cx="462.3" cy="223.2" rx="1.3" ry="1.3"/>
				<path class="st15" d="M462.3,230.9c0.7,0,1.3-0.6,1.3-1.3c0-0.7-0.6-1.3-1.3-1.3c-0.7,0-1.3,0.6-1.3,1.3
					C461,230.4,461.6,230.9,462.3,230.9z"/>
				<path class="st15" d="M462.3,237.4c0.7,0,1.3-0.6,1.3-1.3c0-0.7-0.6-1.3-1.3-1.3c-0.7,0-1.3,0.6-1.3,1.3
					C461,236.8,461.6,237.4,462.3,237.4z"/>
				
					<ellipse transform="matrix(0.987 -0.1606 0.1606 0.987 -32.9634 77.3976)" class="st15" cx="462.3" cy="242.6" rx="1.3" ry="1.3"/>
				<path class="st15" d="M462.3,250.3c0.7,0,1.3-0.6,1.3-1.3c0-0.7-0.6-1.3-1.3-1.3c-0.7,0-1.3,0.6-1.3,1.3
					C461,249.8,461.6,250.3,462.3,250.3z"/>
			</g>
			<path class="st2" d="M462,192h-58.7c-0.8,0-1.5,0.7-1.5,1.5l0,0c0,0.8,0.7,1.5,1.5,1.5H462c0.8,0,1.5-0.7,1.5-1.5l0,0
				C463.6,192.6,462.9,192,462,192z"/>
			<path class="st2" d="M396.7,192H377c-0.8,0-1.5,0.7-1.5,1.5l0,0c0,0.8,0.7,1.5,1.5,1.5h19.7c0.8,0,1.5-0.7,1.5-1.5l0,0
				C398.2,192.6,397.5,192,396.7,192z"/>
			<path class="st2" d="M482.6,203.3c3.4,0,6.2-2.8,6.2-6.2c0-3.4-2.8-6.2-6.2-6.2s-6.2,2.8-6.2,6.2
				C476.4,200.6,479.2,203.3,482.6,203.3z"/>
			<path class="st3" d="M479.4,201.2c0.9,0.7,2,1.1,3.2,1.1c1.2,0,2.3-0.4,3.2-1.1c-0.1-1.7-1.5-3.1-3.2-3.1l0,0
				C480.8,198.1,479.4,199.5,479.4,201.2L479.4,201.2z M482.6,192.8c-1.3,0-2.3,1-2.3,2.3c0,1.3,1,2.3,2.3,2.3c1.3,0,2.3-1,2.3-2.3
				C484.9,193.8,483.8,192.8,482.6,192.8z"/>
			<path class="st2" d="M484.5,259.5H380.2c-3,0-5.4,2.4-5.4,5.4v53c0,3,2.4,5.4,5.4,5.4h104.3c3,0,5.4-2.4,5.4-5.4v-53
				C489.9,262,487.5,259.5,484.5,259.5z"/>
			<path class="st12" d="M484.5,259.5H380.2c-3,0-5.4,2.4-5.4,5.4v7.5c0,0.8,0.7,1.5,1.5,1.5h112c0.8,0,1.5-0.7,1.5-1.5V265
				C489.9,262,487.5,259.5,484.5,259.5z"/>
			<path class="st16" d="M470.7,284.9h-1c-0.6,0-1.1,0.5-1.1,1.1l0,0c0,0.6,0.5,1.1,1.1,1.1h1c0.6,0,1.1-0.5,1.1-1.1l0,0
				C471.8,285.4,471.3,284.9,470.7,284.9L470.7,284.9z M481.1,306.6h-6.5c-0.6,0-1.1,0.5-1.1,1.1l0,0c0,0.6,0.5,1.1,1.1,1.1h6.5
				c0.6,0,1.1-0.5,1.1-1.1l0,0C482.3,307.1,481.8,306.6,481.1,306.6L481.1,306.6z M451.9,295.7h6.5c0.6,0,1.1,0.5,1.1,1.1l0,0
				c0,0.6-0.5,1.1-1.1,1.1h-6.5c-0.6,0-1.1-0.5-1.1-1.1l0,0C450.8,296.2,451.3,295.7,451.9,295.7z"/>
			<g>
				<path class="st0" d="M451.9,284.9H465c0.6,0,1.1,0.5,1.1,1.1l0,0c0,0.6-0.5,1.1-1.1,1.1h-13.1c-0.6,0-1.1-0.5-1.1-1.1l0,0
					C450.8,285.4,451.3,284.9,451.9,284.9z"/>
				<path class="st0" d="M481.1,284.9h-6.5c-0.6,0-1.1,0.5-1.1,1.1l0,0c0,0.6,0.5,1.1,1.1,1.1h6.5c0.6,0,1.1-0.5,1.1-1.1l0,0
					C482.3,285.4,481.8,284.9,481.1,284.9z"/>
				<path class="st0" d="M481.1,290.8h-29.2c-0.6,0-1.1,0.5-1.1,1.1l0,0c0,0.6,0.5,1.1,1.1,1.1h29.2c0.6,0,1.1-0.5,1.1-1.1l0,0
					C482.3,291.3,481.8,290.8,481.1,290.8z"/>
				<path class="st0" d="M481.1,295.7h-13.1c-0.6,0-1.1,0.5-1.1,1.1l0,0c0,0.6,0.5,1.1,1.1,1.1h13.1c0.6,0,1.1-0.5,1.1-1.1l0,0
					C482.3,296.2,481.8,295.7,481.1,295.7z"/>
				<path class="st0" d="M462.4,295.7h1c0.6,0,1.1,0.5,1.1,1.1l0,0c0,0.6-0.5,1.1-1.1,1.1h-1c-0.6,0-1.1-0.5-1.1-1.1l0,0
					C461.3,296.2,461.8,295.7,462.4,295.7z"/>
				<path class="st0" d="M481.1,301.6h-29.2c-0.6,0-1.1,0.5-1.1,1.1l0,0c0,0.6,0.5,1.1,1.1,1.1h29.2c0.6,0,1.1-0.5,1.1-1.1l0,0
					C482.3,302.1,481.8,301.6,481.1,301.6z"/>
				<path class="st0" d="M451.9,306.6H465c0.6,0,1.1,0.5,1.1,1.1l0,0c0,0.6-0.5,1.1-1.1,1.1h-13.1c-0.6,0-1.1-0.5-1.1-1.1l0,0
					C450.8,307.1,451.3,306.6,451.9,306.6z"/>
				<path class="st0" d="M470.7,306.6h-1c-0.6,0-1.1,0.5-1.1,1.1l0,0c0,0.6,0.5,1.1,1.1,1.1h1c0.6,0,1.1-0.5,1.1-1.1l0,0
					C471.8,307.1,471.3,306.6,470.7,306.6z"/>
				<path class="st0" d="M481.1,312.5h-29.2c-0.6,0-1.1,0.5-1.1,1.1l0,0c0,0.6,0.5,1.1,1.1,1.1h29.2c0.6,0,1.1-0.5,1.1-1.1l0,0
					C482.3,313,481.8,312.5,481.1,312.5z"/>
				<path class="st0" d="M481.1,280h-29.2c-0.6,0-1.1,0.5-1.1,1.1l0,0c0,0.6,0.5,1.1,1.1,1.1h29.2c0.6,0,1.1-0.5,1.1-1.1l0,0
					C482.3,280.5,481.8,280,481.1,280z"/>
			</g>
			<g>
				<path class="st0" d="M416,284.9h-3.1c-0.6,0-1.1,0.5-1.1,1.1l0,0c0,0.6,0.5,1.1,1.1,1.1h3.1c0.6,0,1.1-0.5,1.1-1.1l0,0
					C417.1,285.4,416.6,284.9,416,284.9z"/>
				<path class="st0" d="M383.8,295.7H396c0.6,0,1.1,0.5,1.1,1.1l0,0c0,0.6-0.5,1.1-1.1,1.1h-12.2c-0.6,0-1.1-0.5-1.1-1.1l0,0
					C382.7,296.2,383.2,295.7,383.8,295.7z"/>
				<path class="st0" d="M433.2,306.6H421c-0.6,0-1.1,0.5-1.1,1.1l0,0c0,0.6,0.5,1.1,1.1,1.1h12.2c0.6,0,1.1-0.5,1.1-1.1l0,0
					C434.3,307.1,433.8,306.6,433.2,306.6z"/>
				<path class="st0" d="M433.2,312.5h-49.4c-0.6,0-1.1,0.5-1.1,1.1l0,0c0,0.6,0.5,1.1,1.1,1.1h49.4c0.6,0,1.1-0.5,1.1-1.1l0,0
					C434.3,313,433.8,312.5,433.2,312.5z"/>
			</g>
			<g>
				<path class="st16" d="M383.8,284.9h22.9c0.6,0,1.1,0.5,1.1,1.1l0,0c0,0.6-0.5,1.1-1.1,1.1h-22.9c-0.6,0-1.1-0.5-1.1-1.1l0,0
					C382.7,285.4,383.2,284.9,383.8,284.9z"/>
				<path class="st16" d="M433.2,284.9H421c-0.6,0-1.1,0.5-1.1,1.1l0,0c0,0.6,0.5,1.1,1.1,1.1h12.2c0.6,0,1.1-0.5,1.1-1.1l0,0
					C434.3,285.4,433.8,284.9,433.2,284.9z"/>
				<path class="st16" d="M433.2,290.8h-49.4c-0.6,0-1.1,0.5-1.1,1.1l0,0c0,0.6,0.5,1.1,1.1,1.1h49.4c0.6,0,1.1-0.5,1.1-1.1l0,0
					C434.3,291.3,433.8,290.8,433.2,290.8z"/>
				<path class="st16" d="M433.2,295.7h-22.9c-0.6,0-1.1,0.5-1.1,1.1l0,0c0,0.6,0.5,1.1,1.1,1.1h22.9c0.6,0,1.1-0.5,1.1-1.1l0,0
					C434.3,296.2,433.8,295.7,433.2,295.7z"/>
				<path class="st16" d="M401,295.7h3.1c0.6,0,1.1,0.5,1.1,1.1l0,0c0,0.6-0.5,1.1-1.1,1.1H401c-0.6,0-1.1-0.5-1.1-1.1l0,0
					C399.9,296.2,400.4,295.7,401,295.7z"/>
				<path class="st16" d="M433.2,301.6h-49.4c-0.6,0-1.1,0.5-1.1,1.1l0,0c0,0.6,0.5,1.1,1.1,1.1h49.4c0.6,0,1.1-0.5,1.1-1.1l0,0
					C434.3,302.1,433.8,301.6,433.2,301.6z"/>
				<path class="st16" d="M383.8,306.6h22.9c0.6,0,1.1,0.5,1.1,1.1l0,0c0,0.6-0.5,1.1-1.1,1.1h-22.9c-0.6,0-1.1-0.5-1.1-1.1l0,0
					C382.7,307.1,383.2,306.6,383.8,306.6z"/>
				<path class="st16" d="M416,306.6h-3.1c-0.6,0-1.1,0.5-1.1,1.1l0,0c0,0.6,0.5,1.1,1.1,1.1h3.1c0.6,0,1.1-0.5,1.1-1.1l0,0
					C417.1,307.1,416.6,306.6,416,306.6z"/>
				<path class="st16" d="M433.2,280h-49.4c-0.6,0-1.1,0.5-1.1,1.1l0,0c0,0.6,0.5,1.1,1.1,1.1h49.4c0.6,0,1.1-0.5,1.1-1.1l0,0
					C434.3,280.5,433.8,280,433.2,280z"/>
			</g>
			<path class="st2" d="M402.6,264.1c-1.4,0-2.6,1.2-2.6,2.6c0,1.4,1.2,2.6,2.6,2.6c1.4,0,2.6-1.2,2.6-2.6
				C405.2,265.3,404,264.1,402.6,264.1z"/>
			<path class="st2" d="M393.2,264.1c-1.4,0-2.6,1.2-2.6,2.6c0,1.4,1.2,2.6,2.6,2.6c1.4,0,2.6-1.2,2.6-2.6
				C395.8,265.3,394.6,264.1,393.2,264.1z"/>
			<path class="st2" d="M383.8,264.1c-1.4,0-2.6,1.2-2.6,2.6c0,1.4,1.2,2.6,2.6,2.6c1.4,0,2.6-1.2,2.6-2.6
				C386.4,265.3,385.3,264.1,383.8,264.1z"/>
		</g>
	</g>
	<g>
		<path class="st17" d="M381.5,672.5h53.4c2.6,0,4.7-2.1,4.7-4.7V576c0-2.6-2.1-4.7-4.7-4.7h-53.4c-2.6,0-4.7,2.1-4.7,4.7v91.9
			C376.8,670.4,378.9,672.5,381.5,672.5z"/>
		<path class="st2" d="M436.1,672.5h43.2c2.2,0,4-1.8,4-3.9v-93.4c0-2.2-1.8-4-4-4h-43.2c-2.2,0-4,1.8-4,4v93.4
			C432.1,670.8,433.9,672.5,436.1,672.5z"/>
		<path class="st2" d="M366.1,609.7h55.4c0-9.9,10.7-11,10.7-11h-55.4C376.8,598.7,366.1,599.8,366.1,609.7z"/>
		<path class="st9" d="M376.8,656.3h57.3c1.7,0,3.1,1.4,3.1,3.1v20.1c0,1.7-1.4,3.1-3.1,3.1h-57.3c-1.7,0-3.1-1.4-3.1-3.1v-20.1
			C373.7,657.6,375.1,656.3,376.8,656.3z"/>
		<path class="st3" d="M432.3,656.3h12.6h0h0h0c0.3,0,3.3,0.1,5.1,3.9c1.8,3.9,1.6,7.9,7,7.9c5.1,0-2.2,0,2.3,0c5.3,0,5.2-4,7-7.9
			c1.8-3.8,4.8-3.9,5.1-3.9h0h0h0h11.9c1.7,0,3.1,1.4,3.1,3.1v20.1c0,1.7-1.4,3.1-3.1,3.1h-50.9c-1.7,0-3.1-1.4-3.1-3.1v-20.1
			C429.2,657.6,430.6,656.3,432.3,656.3z"/>
		<path class="st2" d="M366.1,644.4h55.4c0-9.9,10.7-11,10.7-11h-55.4C376.8,633.4,366.1,634.5,366.1,644.4z"/>
		<path class="st18" d="M492.3,627.9h-50.3c0-9.9-9.8-11-9.8-11h50.3C482.5,616.9,492.3,618,492.3,627.9z"/>
		<path class="st17" d="M440.1,582.3h38.6c0.9,0,1.7,0.8,1.7,1.7l0,0c0,0.9-0.8,1.7-1.7,1.7h-38.6c-0.9,0-1.7-0.8-1.7-1.7l0,0
			C438.4,583.1,439.2,582.3,440.1,582.3z"/>
		<path class="st17" d="M440.1,601h38.6c0.9,0,1.7,0.8,1.7,1.7l0,0c0,0.9-0.8,1.7-1.7,1.7h-38.6c-0.9,0-1.7-0.8-1.7-1.7l0,0
			C438.4,601.8,439.2,601,440.1,601z"/>
		<path class="st17" d="M440.1,640.2h38.6c0.9,0,1.7,0.8,1.7,1.7l0,0c0,0.9-0.8,1.7-1.7,1.7h-38.6c-0.9,0-1.7-0.8-1.7-1.7l0,0
			C438.4,640.9,439.2,640.2,440.1,640.2z"/>
		<path class="st18" d="M385,580.9h37.3c0.9,0,1.7,0.8,1.7,1.7l0,0c0,0.9-0.8,1.7-1.7,1.7H385c-0.9,0-1.7-0.8-1.7-1.7l0,0
			C383.3,581.7,384,580.9,385,580.9z"/>
		<path class="st18" d="M385,623.1h37.3c0.9,0,1.7,0.8,1.7,1.7l0,0c0,0.9-0.8,1.7-1.7,1.7H385c-0.9,0-1.7-0.8-1.7-1.7l0,0
			C383.3,623.9,384,623.1,385,623.1z"/>
		<path class="st18" d="M385,650.1h37.3c0.9,0,1.7,0.8,1.7,1.7l0,0c0,0.9-0.8,1.7-1.7,1.7H385c-0.9,0-1.7-0.8-1.7-1.7l0,0
			C383.3,650.9,384,650.1,385,650.1z"/>
	</g>
	<g>
		<g>
			<path class="st6" d="M108.4,380.8c-28.3-28.8-49.3,7.8-46.4,44.5c2.8,34.8,32.8,154.2,27.2,204.4h11.5
				C128.8,565.3,144.6,417.7,108.4,380.8z"/>
			<path class="st7" d="M96.5,629.7c27.3-101.5-7.3-241.8-7.4-242.3c-0.2-0.9-1.1-1.4-2-1.2c-0.9,0.2-1.4,1.1-1.2,2
				c0.1,0.5,34.8,141,7.2,241.6H96.5z"/>
		</g>
		<g>
			<path class="st7" d="M38.7,444.3C8.9,428.5,1.4,462.9,13,491.4c9.6,23.6,52.1,93.5,68.2,138.3h15.1
				C97.6,567.7,73.8,462.9,38.7,444.3z"/>
			<path class="st6" d="M90.8,629.7c-9.9-83.9-65.6-175-65.8-175.4c-0.4-0.6-1.2-0.8-1.9-0.5c-0.6,0.4-0.8,1.2-0.5,1.9
				c0.2,0.3,55.6,90.9,65.5,174H90.8z"/>
		</g>
		<g>
			<path class="st8" d="M164.6,484.1c28.9-12.6,33.4,20,20.6,45.7c-8.7,17.4-40,62-61,99.9h-24C108.4,572.4,134.7,497.1,164.6,484.1
				z"/>
			<path class="st6" d="M108.7,629.7c20.5-69.5,67.7-135,67.9-135.3c0.4-0.6,1.2-0.7,1.8-0.3c0.6,0.4,0.7,1.2,0.3,1.8
				c-0.2,0.3-46.9,65.1-67.3,133.8H108.7z"/>
		</g>
		<path class="st9" d="M63.1,606.8h84.6c2.5,0,4.6,2.1,4.6,4.6v20.9c0,2.5-2.1,4.6-4.6,4.6H63.1c-2.5,0-4.6-2.1-4.6-4.6v-20.9
			C58.5,608.9,60.6,606.8,63.1,606.8z"/>
		<polygon class="st9" points="77.6,623.8 133.2,623.8 147.7,636.9 135.9,682.5 105.4,682.5 75,682.5 63.1,636.9 		"/>
		<polygon class="st19" points="147.7,636.9 145.3,646.3 69.6,661.7 63.1,636.9 		"/>
	</g>
	<g>
		<path class="st20" d="M576.9,79.4h40c5.6,0,10.2-4.6,10.2-10.2c0-5.4-4.2-9.8-9.4-10.2c0-0.5,0.1-1,0.1-1.5
			c0-11.2-9.1-20.3-20.3-20.3c-2.9,0-5.8,0.6-8.3,1.8c-2.5-17.1-17.2-30.3-35-30.3c-14.8,0-27.5,9.1-32.7,22c-1.9-0.5-3.9-0.7-6-0.7
			c-13.7,0-24.7,11.1-24.7,24.7c0,13.7,11.1,24.7,24.7,24.7H537"/>
		<path class="st20" d="M536.4,74.3c0-10.7,0-20.4,0-20.4h-5.2h-1.7L548,31.9L566.5,54h-1.7h-5.2c0,0.1,0,0.1,0,0.2
			c0,24.1-0.7,25.2,17.3,25.2h18.8c0,0-2.3,8.1-11.9,8.1c-9.6,0-29.6,0-35.3,0c-4.7,0-9.8-1.6-11.5-8.1
			C536.7,77.9,536.4,76.3,536.4,74.3z"/>
	</g>
	<path class="st4" d="M803.7,253.2L803.7,253.2L803.7,253.2z M812,221.4c2.9-2.9,6.9-4.7,11.4-4.7c4.4,0,8.5,1.8,11.4,4.7
		c2.9,2.9,4.7,6.9,4.7,11.4c0,4.4-1.8,8.5-4.7,11.4c-2.9,2.9-6.9,4.7-11.4,4.7c-4.4,0-8.4-1.8-11.4-4.7c-2.9-2.9-4.7-6.9-4.7-11.4
		C807.3,228.3,809.1,224.3,812,221.4L812,221.4z M815.5,205.5c-2.2,0.6-4.3,1.5-6.3,2.7c-2,1.2-3.9,2.6-5.5,4.2
		c-0.3,0.3-0.8,0.4-1.2,0.1l-7.5-4.3l0,0c-0.4-0.2-0.9-0.3-1.4-0.2c-0.5,0.1-0.9,0.4-1.1,0.9l0,0.1l-5.3,9.1
		c-0.3,0.4-0.3,0.9-0.2,1.4c0.1,0.5,0.4,0.9,0.9,1.1l0,0l7.4,4.3c0.4,0.2,0.6,0.7,0.5,1.1v0c-0.3,1.1-0.5,2.2-0.6,3.4
		c-0.1,1.1-0.2,2.3-0.2,3.5c0,1.2,0.1,2.3,0.2,3.5c0.1,1.2,0.4,2.3,0.6,3.4c0.1,0.5-0.1,0.9-0.5,1.1l-7.4,4.3l0,0
		c-0.4,0.3-0.7,0.7-0.9,1.1c-0.1,0.5-0.1,1,0.2,1.4l5.3,9.1v0c0.3,0.4,0.7,0.7,1.1,0.9c0.5,0.1,1,0.1,1.4-0.2l0.1,0l7.4-4.3
		c0.4-0.2,0.9-0.2,1.2,0.1c1.7,1.6,3.5,3,5.5,4.2c2,1.1,4.1,2,6.3,2.7c0.4,0.1,0.7,0.5,0.7,1v8.6c0,0.5,0.2,1,0.5,1.3
		c0.3,0.3,0.8,0.5,1.3,0.5h10.6c0.5,0,1-0.2,1.3-0.5c0.3-0.3,0.5-0.8,0.5-1.3V261c0-0.5,0.3-0.9,0.8-1c2.2-0.6,4.3-1.5,6.3-2.7
		c2-1.2,3.9-2.6,5.5-4.2c0.3-0.3,0.8-0.4,1.2-0.1l7.4,4.3c0.4,0.2,0.9,0.3,1.4,0.2c0.5-0.1,0.9-0.4,1.1-0.9l0-0.1l5.3-9.1l0,0
		c0.3-0.4,0.3-0.9,0.2-1.4c-0.1-0.5-0.4-0.9-0.9-1.1l-7.5-4.3c-0.4-0.2-0.6-0.7-0.5-1.1h0c0.3-1.1,0.5-2.2,0.6-3.4
		c0.1-1.1,0.2-2.3,0.2-3.5c0-1.2-0.1-2.3-0.2-3.5c-0.1-1.2-0.4-2.3-0.6-3.4c-0.1-0.5,0.1-0.9,0.5-1.1l7.4-4.3
		c0.4-0.3,0.7-0.7,0.9-1.1c0.1-0.5,0.1-1-0.2-1.4l0-0.1l-5.3-9.1l0,0c-0.3-0.4-0.7-0.7-1.1-0.9c-0.5-0.1-1-0.1-1.4,0.2l0,0l-7.5,4.3
		c-0.4,0.2-0.9,0.2-1.2-0.2c-1.7-1.6-3.5-3-5.5-4.1c-2-1.1-4.1-2-6.3-2.7c-0.4-0.1-0.7-0.5-0.7-0.9v-8.6c0-0.5-0.2-1-0.5-1.3
		c-0.3-0.3-0.8-0.5-1.3-0.5h-10.6c-0.5,0-1,0.2-1.3,0.5c-0.3,0.3-0.5,0.8-0.5,1.3v8.6C816.2,205,815.9,205.4,815.5,205.5z"/>
	<g>
		<path class="st4" d="M47.4,252.2v11.4c0,2.1-1.7,3.8-3.8,3.8H32.3c-2.1,0-3.8-1.7-3.8-3.8v-11.4c0-2.1,1.7-3.8,3.8-3.8h11.4
			C45.7,248.5,47.4,250.2,47.4,252.2z"/>
		<path class="st4" d="M47.4,291.1v11.4c0,2.1-1.7,3.8-3.8,3.8H32.3c-2.1,0-3.8-1.7-3.8-3.8v-11.4c0-2.1,1.7-3.8,3.8-3.8h11.4
			C45.7,287.3,47.4,289,47.4,291.1z"/>
		<path class="st4" d="M47.4,330v11.4c0,2.1-1.7,3.8-3.8,3.8H32.3c-2.1,0-3.8-1.7-3.8-3.8V330c0-2.1,1.7-3.8,3.8-3.8h11.4
			C45.7,326.2,47.4,327.9,47.4,330z"/>
		<path class="st4" d="M47.4,368.8v11.4c0,2.1-1.7,3.8-3.8,3.8H32.3c-2.1,0-3.8-1.7-3.8-3.8v-11.4c0-2.1,1.7-3.8,3.8-3.8h11.4
			C45.7,365,47.4,366.7,47.4,368.8z"/>
	</g>
	<g>
		<path class="st4" d="M559.4,126.9h-7.3c-1.3,0-2.4-1.1-2.4-2.4v-7.3c0-1.3,1.1-2.4,2.4-2.4h7.3c1.3,0,2.4,1.1,2.4,2.4v7.3
			C561.8,125.8,560.7,126.9,559.4,126.9z"/>
		<path class="st4" d="M534.4,126.9h-7.3c-1.3,0-2.4-1.1-2.4-2.4v-7.3c0-1.3,1.1-2.4,2.4-2.4h7.3c1.3,0,2.4,1.1,2.4,2.4v7.3
			C536.8,125.8,535.7,126.9,534.4,126.9z"/>
		<path class="st4" d="M509.4,126.9h-7.3c-1.3,0-2.4-1.1-2.4-2.4v-7.3c0-1.3,1.1-2.4,2.4-2.4h7.3c1.3,0,2.4,1.1,2.4,2.4v7.3
			C511.8,125.8,510.7,126.9,509.4,126.9z"/>
		<path class="st4" d="M484.4,126.9h-7.3c-1.3,0-2.4-1.1-2.4-2.4v-7.3c0-1.3,1.1-2.4,2.4-2.4h7.3c1.3,0,2.4,1.1,2.4,2.4v7.3
			C486.8,125.8,485.7,126.9,484.4,126.9z"/>
	</g>
	<g>
		<path class="st6" d="M302.3,615.5c0,0.9-0.7,1.7-1.6,1.7c-0.9,0-1.7-0.7-1.7-1.6c0-0.1-0.9-23.1,9.4-27.5c0.8-0.4,1.8,0,2.2,0.9
			c0.4,0.8,0,1.8-0.9,2.2C301.5,594.7,302.3,615.5,302.3,615.5z"/>
		<path class="st9" d="M300.6,682.5c0,0,8.2,0,13,0c27.1,0,30.7-31.1,28.2-52c-2.9-23.3-21.3-27.6-41.1-18.7
			c-19.8-9-38.2-4.6-41.1,18.7c-2.6,20.9,1.1,52,28.2,52C292.5,682.5,300.6,682.5,300.6,682.5z"/>
		<path class="st3" d="M283.1,612.7c8,1.5,12.9,10.8,11,20.9c-1.9,10-9.8,17-17.8,15.5c-8-1.5-12.9-10.8-11-20.9
			C267.1,618.1,275.1,611.2,283.1,612.7z"/>
	</g>
	<g>
		<path class="st1" d="M608,535.9c0,0-22,14.9-26.3,14.9c-4.4,0-21.5,0-32.8,0c-11.3,0-35.5,2.5-42.6-6.1
			c-9.5-11.4-10.1-29.1,10.7-32.1c17.7-2.5,60.7,1.9,61.6,5.5C579.2,521.5,608,535.9,608,535.9z"/>
		<g>
			<line class="st21" x1="566.5" y1="521" x2="559.6" y2="536.9"/>
			<line class="st21" x1="557.3" y1="521" x2="550.4" y2="536.9"/>
			<line class="st21" x1="548.1" y1="521" x2="541.2" y2="536.9"/>
			<line class="st21" x1="538.9" y1="521" x2="532" y2="536.9"/>
			<line class="st21" x1="566.5" y1="536.9" x2="559.6" y2="521"/>
			<line class="st21" x1="557.3" y1="536.9" x2="550.4" y2="521"/>
			<line class="st21" x1="548.1" y1="536.9" x2="541.2" y2="521"/>
			<line class="st21" x1="538.9" y1="536.9" x2="532" y2="521"/>
		</g>
		<path class="st3" d="M668.9,281.6c0,0-5.1-5.4,10,3.4c10.8,6.3,47.8,66.4,63.4,92.8c23.2,39.4-22.1,60.2-60.2,81.3
			c0,0-8.6-3.5-9.6-5.2c-1-1.7,3-5.8,0.2-6.9c-2.8-1.1-1.8-3.2,0.1-5.7c1.9-2.5,37.8-30.9,39.9-39.1c2.1-8.1-44.2-62.3-48.8-70.1
			C659.2,324.3,653.3,297.8,668.9,281.6z"/>
		<path class="st3" d="M561.1,281.1c0,0,5.1-5.4-10,3.4c-10.8,6.3-47.8,66.4-63.4,92.8c-23.2,39.4,22.1,60.2,60.2,81.3
			c0,0,8.6-3.5,9.6-5.2c1-1.7-2.9-5.8-0.2-6.9c2.8-1.1,1.8-3.2-0.1-5.7c-1.9-2.5-37.8-30.9-39.9-39.1c-2.1-8.1,44.2-62.3,48.8-70.1
			C570.7,323.8,576.6,297.3,561.1,281.1z"/>
		<path class="st3" d="M633.5,262.4c-22.2,3.5-15.9,3.4-38.3,0l-2.6,1.3l-37.1,18.1l3.9,65.7c0.2,3.7,0.5,7.3,0.7,10.7l0.1,7
			c0,0-2.6,54.5-2,56.9c0.6,2.3,5.5,7.9,5.5,7.9c-0.2,1.5-0.4,3.1-0.6,4.7c8.9,3.7,25.3,8.5,51.1,8.3c25.8,0.2,42.2-4.6,51.1-8.3
			c-0.2-1.6-0.4-3.2-0.6-4.7c0,0,4.9-5.6,5.5-7.9c0.6-2.3-2-56.9-2-56.9l0.1-7c0.2-3.4,0.5-7,0.7-10.7l3.9-65.7l-37.1-18.1
			L633.5,262.4z"/>
		<path class="st2" d="M613.8,265l0.8,0.1l0.9-0.1c3.7-0.1,7.9-1,18-2.6l2.5,1.3l5.1,2.5l-1.6,1.8c-16.9,18.4-33.4,18.4-50.4,0
			l-1.6-1.8l5.1-2.5l2.6-1.3C605.8,264,610,264.9,613.8,265z"/>
		<path class="st16" d="M629.9,220.8l-0.5,10.6c0,0,0,21.8,0,25.1c0,1.6,1.5,3.9,4.1,5.9c-13.7,14.8-24.6,14.8-38.3,0
			c2.6-2,4.1-4.3,4.1-5.9c0-3.3,0-25.1,0-25.1l-0.5-10.6c0,0,7.6,1.4,15.5,3.3C622.2,222.1,629.9,220.8,629.9,220.8z"/>
		<path class="st0" d="M763.1,475.7c2-2.9,15.1-25.9,15.1-25.9s-25.1,0-35.1,0c-10,0-40.5,6.8-56.2,7c-15.7,0.2-141.4-5.9-141.4-5.9
			s-58-11.2-66.1-12.2c-8.1-1,6.6,39.5,9.5,42.8c2.9,3.3,132,44,143,40.3C642.9,518.1,763.1,475.7,763.1,475.7z"/>
		<path class="st0" d="M617.8,507c0,0,124.7-49.3,140.2-53.8c15.5-4.5,26.9-5.5,34.4,2.2c7.5,7.7,11,24,0,35.4
			c-11,11.4-87.2,32-118.6,36.5c-31.4,4.5-43.7,7.1-48.4,7.7c-4.7,0.6-7.5-0.2-8.9-4.3c-1.3-4.1-3.4-16.3-3.3-19
			C613.4,509.1,617.8,507,617.8,507z"/>
		<path class="st1" d="M655.5,544.2c0,0-0.9,6.6,3.5,6.6c4.4,0,21.5,0,32.8,0c11.3,0,35.5,2.5,42.6-6.1
			c9.5-11.4,10.1-29.1-10.7-32.1c-17.7-2.5-60.7,1.9-61.6,5.5C661.4,521.5,655.5,544.2,655.5,544.2z"/>
		<path class="st22" d="M717.4,351.3h-64.2h-77.6h-64.2c-3.1,0-5.2,2.6-4.6,5.7l20.5,109.2c0.6,3.1,3.6,5.7,6.8,5.7h18.9h122.9h18.9
			c3.1,0,6.2-2.6,6.8-5.7L722,357C722.6,353.8,720.5,351.3,717.4,351.3z"/>
		<path class="st5" d="M645.9,514c0,0,8.4,3.6,18.1,4.3c9.8,0.7,6,10.6,5.8,15.3c-0.2,4.7-5.6,11.5-7.9,11.7
			c-2.3,0.2-20.3-4.7-20.3-4.7L645.9,514z"/>
		<path class="st0" d="M646.9,511.6c0,0-130.4-60.7-152.8-68.9c-22.4-8.1-47.3-9-55.4,14.7c-8.2,23.6,4.5,39.9,44,55.8
			c39.5,15.9,151,31.8,155.2,31.2c4.3-0.6,5.1-1.7,7.2-7.8c2.1-6.1,4.5-17.4,4.7-19.1C650,515.7,648.7,512,646.9,511.6z"/>
		<path class="st23" d="M670.8,340c0,0-1.6-32.5,4.3-45.4"/>
		<path class="st23" d="M558.8,340c0,0,1.6-32.5-4.3-45.4"/>
		<path class="st24" d="M649.8,517.4c0.2-1.7-1.1-5.4-3-5.8c0,0-102.4-47.7-141.3-64.2"/>
		<path class="st24" d="M628.2,502.9c30.4-12,116.9-46,129.7-49.6"/>
		<g>
			<path class="st25" d="M653.6,204.4c0.3,0,0.5,0.1,0.8,0.1l0,0h0c4.8,1,8.5,5.2,8.6,10.4c0.1,6-4.6,10.9-10.6,11
				c-6,0.1-10.9-4.6-11-10.6c-0.1-3.5,1.5-6.6,4-8.6c-0.3,3.2,0.2,7.1,4.3,7.5l-0.1-6.2C649.6,205.4,651.9,204.3,653.6,204.4z"/>
			<path class="st25" d="M575.6,204.4c-0.3,0-0.5,0.1-0.8,0.1l0,0l0,0c-4.8,1-8.5,5.2-8.6,10.4c-0.1,6,4.6,10.9,10.6,11
				c6,0.1,10.9-4.6,11-10.6c0.1-3.5-1.5-6.6-4-8.6c0.3,3.2-0.2,7.1-4.3,7.5l0.1-6.2C579.7,205.4,577.4,204.3,575.6,204.4z"/>
		</g>
		<path class="st26" d="M614.6,150.4L614.6,150.4c20.4,0,37,16.7,37,37V221c0,20.4-16.7,37-37,37l0,0c-20.4,0-37-16.7-37-37v-33.7
			C577.6,167,594.3,150.4,614.6,150.4z"/>
		<g>
			<path class="st25" d="M593.6,224.7c2.7,0,4.9,2.1,5,4.8c0.1,2.7-2.1,4.9-4.8,5c-2.7,0-4.9-2.1-5-4.8
				C588.8,226.9,590.9,224.7,593.6,224.7z"/>
			<path class="st25" d="M635.5,223.9c2.7,0,4.9,2.1,5,4.8c0,2.7-2.1,4.9-4.8,5c-2.7,0.1-4.9-2.1-5-4.8
				C630.6,226.1,632.8,223.9,635.5,223.9z"/>
		</g>
		<g>
			<path class="st27" d="M638.3,203.3c0.6,0.3,1.4,0.1,1.8-0.6c0.3-0.6,0.1-1.4-0.6-1.8c-3.5-1.8-8.1-2-11.6,0
				c-0.6,0.4-0.8,1.2-0.5,1.8c0.4,0.6,1.2,0.8,1.8,0.5C632,201.6,635.5,201.9,638.3,203.3z"/>
			<path class="st27" d="M591,203.3c2.8-1.3,6.3-1.7,9-0.1c0.6,0.4,1.4,0.2,1.8-0.5c0.4-0.6,0.2-1.4-0.5-1.8
				c-3.4-2.1-8.1-1.8-11.6,0c-0.6,0.3-0.9,1.1-0.6,1.8C589.6,203.3,590.4,203.6,591,203.3z"/>
		</g>
		<g>
			<path class="st27" d="M592.8,216.3c0-0.9,0.4-1.8,1-2.4c0.6-0.6,1.5-1,2.4-1c0.9,0,1.8,0.4,2.4,1c0.6,0.6,1,1.5,1,2.4
				c0,0.7,0.6,1.3,1.3,1.3c0.7,0,1.3-0.6,1.3-1.3c0-1.6-0.6-3.1-1.8-4.3c-1.1-1.1-2.7-1.8-4.3-1.8c-1.6,0-3.1,0.6-4.3,1.8
				c-1.1,1.1-1.8,2.7-1.8,4.3c0,0.7,0.6,1.3,1.3,1.3C592.2,217.6,592.8,217,592.8,216.3z"/>
			<path class="st27" d="M629.6,216.3c0-0.9,0.4-1.8,1-2.4c0.6-0.6,1.5-1,2.4-1c0.9,0,1.8,0.4,2.4,1c0.6,0.6,1,1.5,1,2.4
				c0,0.7,0.6,1.3,1.3,1.3c0.7,0,1.3-0.6,1.3-1.3c0-1.6-0.6-3.1-1.8-4.3c-1.1-1.1-2.7-1.8-4.3-1.8c-1.6,0-3.1,0.6-4.3,1.8
				c-1.1,1.1-1.8,2.7-1.8,4.3c0,0.7,0.6,1.3,1.3,1.3C629,217.6,629.6,217,629.6,216.3z"/>
		</g>
		<path class="st27" d="M651.6,214.8c0,0-5.5-2.3-5.5-11.7c0-9.5,0-7.1,0-12.1c0-4.9-3.4-13.6-13.4-13.6c-10,0-18,0-18,0s-8,0-18,0
			c-10,0-13.4,8.6-13.4,13.6c0,4.9,0,2.6,0,12.1c0,9.5-5.5,11.7-5.5,11.7c0-7.5-2.3-10.5-2.3-10.5s0-10,0-18.8
			c0-8.8,2.5-20.6,14-28.7c11.5-8.1,25.3-8,25.3-8s13.8-0.1,25.3,8c11.5,8.1,14,19.9,14,28.7c0,8.8,0,18.8,0,18.8
			S651.6,207.3,651.6,214.8z"/>
		<path class="st28" d="M617.4,220.3c0,0,2.2,4.4,2,5.7c-0.1,1.3-2.6,1.5-3.6,0.4c-1-1.1,0.4-5.6,0.7-6
			C616.9,220,617.1,220,617.4,220.3z"/>
		<path class="st25" d="M625.4,237.5c0.5-0.5,0.5-1.2,0.1-1.7c-0.5-0.5-1.2-0.5-1.7-0.1c-1.8,1.6-5.4,2.4-9.1,2.4s-7.4-0.8-9.1-2.4
			c-0.5-0.5-1.3-0.4-1.7,0.1c-0.5,0.5-0.4,1.3,0.1,1.7c2.2,2.1,6.6,3.1,10.8,3.1C618.9,240.6,623.2,239.5,625.4,237.5z"/>
		<g>
			<path class="st16" d="M653.6,204.4c0.3,0,0.5,0.1,0.8,0.1l0,0h0c4.8,1,8.5,5.2,8.6,10.4c0.1,6-4.6,10.9-10.6,11
				c-6,0.1-10.9-4.6-11-10.6c-0.1-3.5,1.5-6.6,4-8.6c-0.3,3.2,0.2,7.1,4.3,7.5l-0.1-6.2C649.6,205.4,651.9,204.3,653.6,204.4z"/>
			<path class="st16" d="M575.6,204.4c-0.3,0-0.5,0.1-0.8,0.1l0,0l0,0c-4.8,1-8.5,5.2-8.6,10.4c-0.1,6,4.6,10.9,10.6,11
				c6,0.1,10.9-4.6,11-10.6c0.1-3.5-1.5-6.6-4-8.6c0.3,3.2-0.2,7.1-4.3,7.5l0.1-6.2C579.7,205.4,577.4,204.3,575.6,204.4z"/>
		</g>
		<path class="st5" d="M614.6,150.4L614.6,150.4c20.4,0,37,16.7,37,37V221c0,20.4-16.7,37-37,37l0,0c-20.4,0-37-16.7-37-37v-33.7
			C577.6,167,594.3,150.4,614.6,150.4z"/>
		<g>
			<path class="st16" d="M593.6,227c2.7-0.1,4.9,2.1,5,4.8c0.1,2.7-2.1,4.9-4.8,5c-2.7,0.1-4.9-2.1-5-4.8
				C588.8,229.2,590.9,227,593.6,227z"/>
			<path class="st16" d="M635.5,226.2c2.7,0,4.9,2.1,5,4.8c0,2.7-2.1,4.9-4.8,5c-2.7,0-4.9-2.1-5-4.8
				C630.6,228.5,632.8,226.2,635.5,226.2z"/>
		</g>
		<g>
			<path class="st0" d="M638.3,203.3c0.6,0.3,1.4,0.1,1.8-0.6c0.3-0.6,0.1-1.4-0.6-1.8c-3.5-1.8-8.1-2-11.6,0
				c-0.6,0.4-0.8,1.2-0.5,1.8c0.4,0.6,1.2,0.8,1.8,0.5C632,201.6,635.5,201.9,638.3,203.3z"/>
			<path class="st0" d="M591,203.3c2.8-1.3,6.3-1.7,9-0.1c0.6,0.4,1.4,0.2,1.8-0.5c0.4-0.6,0.2-1.4-0.5-1.8c-3.4-2.1-8.1-1.8-11.6,0
				c-0.6,0.3-0.9,1.1-0.6,1.8C589.6,203.3,590.4,203.6,591,203.3z"/>
		</g>
		<g>
			<path class="st0" d="M592.8,220.7c0-0.9,0.4-1.8,1-2.4c0.6-0.6,1.5-1,2.4-1c0.9,0,1.8,0.4,2.4,1c0.6,0.6,1,1.5,1,2.4
				c0,0.7,0.6,1.3,1.3,1.3c0.7,0,1.3-0.6,1.3-1.3c0-1.6-0.6-3.1-1.8-4.3c-1.1-1.1-2.7-1.8-4.3-1.8c-1.6,0-3.1,0.6-4.3,1.8
				c-1.1,1.1-1.8,2.7-1.8,4.3c0,0.7,0.6,1.3,1.3,1.3C592.2,222.1,592.8,221.5,592.8,220.7z"/>
			<path class="st0" d="M629.6,220.7c0-0.9,0.4-1.8,1-2.4c0.6-0.6,1.5-1,2.4-1c0.9,0,1.8,0.4,2.4,1c0.6,0.6,1,1.5,1,2.4
				c0,0.7,0.6,1.3,1.3,1.3c0.7,0,1.3-0.6,1.3-1.3c0-1.6-0.6-3.1-1.8-4.3c-1.1-1.1-2.7-1.8-4.3-1.8c-1.6,0-3.1,0.6-4.3,1.8
				c-1.1,1.1-1.8,2.7-1.8,4.3c0,0.7,0.6,1.3,1.3,1.3C629,222.1,629.6,221.5,629.6,220.7z"/>
		</g>
		<path class="st0" d="M651.6,214.8c0,0-5.5-2.3-5.5-11.7c0-9.5,0-7.1,0-12.1c0-4.9-3.4-13.6-13.4-13.6c-10,0-18,0-18,0s-8,0-18,0
			c-10,0-13.4,8.6-13.4,13.6c0,4.9,0,2.6,0,12.1c0,9.5-5.5,11.7-5.5,11.7c0-7.5-2.3-10.5-2.3-10.5s0-10,0-18.8
			c0-8.8,2.5-20.6,14-28.7c11.5-8.1,25.3-8,25.3-8s13.8-0.1,25.3,8c11.5,8.1,14,19.9,14,28.7c0,8.8,0,18.8,0,18.8
			S651.6,207.3,651.6,214.8z"/>
		<path class="st28" d="M616,223c0,0,2.2,4.4,2,5.7c-0.1,1.3-2.6,1.5-3.6,0.4c-1-1.1,0.4-5.6,0.7-6C615.5,222.7,615.7,222.7,616,223
			z"/>
		<path class="st16" d="M623.5,234c0.4-0.4,0.4-1,0.1-1.4c-0.4-0.4-1-0.4-1.4-0.1c-1.4,1.3-4.4,2-7.5,2c-3,0-6-0.7-7.5-2
			c-0.4-0.4-1-0.3-1.4,0.1c-0.4,0.4-0.3,1,0.1,1.4c1.8,1.7,5.3,2.5,8.8,2.5C618.1,236.5,621.6,235.7,623.5,234z"/>
		<path class="st0" d="M618.1,172.7c0,0,14.7,20.9,31.3,15c23.8-8.5,24.9-50.5-13.8-48.8c-10.1,0.5-19.5,4.3-20.9,11.5
			C611.8,164.7,618.1,172.7,618.1,172.7z"/>
		<path class="st0" d="M599.9,169.5c0,0,20-4.3,23.8-15.7c5.5-16.4-20.8-26.4-37.4-2.4c-4.3,6.3-6.2,12.8-2.3,15.3
			C591.9,171.5,599.9,169.5,599.9,169.5z"/>
		<g>
			<line class="st21" x1="674.1" y1="521" x2="681.1" y2="536.9"/>
			<line class="st21" x1="683.3" y1="521" x2="690.3" y2="536.9"/>
			<line class="st21" x1="692.5" y1="521" x2="699.5" y2="536.9"/>
			<line class="st21" x1="701.7" y1="521" x2="708.7" y2="536.9"/>
			<line class="st21" x1="674.1" y1="536.9" x2="681.1" y2="521"/>
			<line class="st21" x1="683.3" y1="536.9" x2="690.3" y2="521"/>
			<line class="st21" x1="692.5" y1="536.9" x2="699.5" y2="521"/>
			<line class="st21" x1="701.7" y1="536.9" x2="708.7" y2="521"/>
		</g>
		<path class="st29" d="M684.6,359.1h32.8c1.3,0,2.4,0.4,3.2,1c0.3,0.2,0.5,0.5,0.7,0.8l0.7-3.9c0.2-1.3,0-2.5-0.5-3.4
			c-0.8-1.4-2.3-2.3-4.1-2.3h-38.9H669h-15.8h-77.6h-15.8H551h-39.6c-3.1,0-5.2,2.6-4.6,5.7l0.7,3.9c0.8-1.1,2.2-1.8,3.9-1.8h33.5
			h15.4h15.3h77.6h15.3H684.6z"/>
		<path class="st30" d="M571.3,437.5c45.7-10,76.5-32.9,97.6-61c4.3-5.6,8.1-11.5,11.6-17.5h-12h-15.3h-77.6h-15.3h-15.4h-33.5
			c-1.7,0-3.1,0.7-3.9,1.8l15.4,82.1c12-0.2,23.2-1.2,33.8-2.8C561.7,439.5,566.6,438.6,571.3,437.5z"/>
	</g>
</g>
</svg>
