<svg width="211" height="158" viewBox="0 0 211 158" fill="none" xmlns="http://www.w3.org/2000/svg">
<g clip-path="url(#clip0)">
<path d="M97.9769 118.408H1.78502C1.48862 118.408 1.20447 118.29 0.994883 118.081C0.785297 117.871 0.667379 117.587 0.666992 117.29V27.9598C0.667381 27.6634 0.785301 27.3793 0.994888 27.1697C1.20447 26.9601 1.48862 26.8422 1.78502 26.8418H97.9769C98.2733 26.8422 98.5574 26.9601 98.767 27.1697C98.9766 27.3793 99.0945 27.6634 99.0949 27.9598V117.29C99.0946 117.587 98.9767 117.871 98.7671 118.08C98.5575 118.29 98.2733 118.408 97.9769 118.408V118.408Z" fill="#EEEEEE"/>
<path d="M113.14 131.768H16.9481C16.6517 131.767 16.3676 131.65 16.158 131.44C15.9484 131.23 15.8305 130.946 15.8301 130.65V41.3192C15.8305 41.0228 15.9484 40.7386 16.158 40.5291C16.3676 40.3195 16.6517 40.2016 16.9481 40.2012H113.14C113.436 40.2016 113.72 40.3195 113.93 40.5291C114.14 40.7386 114.258 41.0228 114.258 41.3192V130.65C114.258 130.946 114.14 131.23 113.93 131.44C113.721 131.649 113.436 131.767 113.14 131.768V131.768Z" fill="white"/>
<path d="M113.14 131.768H16.9481C16.6517 131.767 16.3676 131.65 16.158 131.44C15.9484 131.23 15.8305 130.946 15.8301 130.65V41.3192C15.8305 41.0228 15.9484 40.7386 16.158 40.5291C16.3676 40.3195 16.6517 40.2016 16.9481 40.2012H113.14C113.436 40.2016 113.72 40.3195 113.93 40.5291C114.14 40.7386 114.258 41.0228 114.258 41.3192V130.65C114.258 130.946 114.14 131.23 113.93 131.44C113.721 131.649 113.436 131.767 113.14 131.768V131.768ZM16.9481 40.6475C16.7705 40.6479 16.6002 40.7186 16.4746 40.8442C16.349 40.9698 16.2783 41.1401 16.2779 41.3177V130.65C16.2783 130.827 16.349 130.997 16.4746 131.123C16.6002 131.249 16.7705 131.319 16.9481 131.32H113.14C113.318 131.319 113.488 131.249 113.614 131.123C113.739 130.997 113.81 130.827 113.81 130.65V41.3192C113.81 41.1416 113.739 40.9713 113.613 40.8457C113.488 40.7201 113.318 40.6494 113.14 40.649L16.9481 40.6475Z" fill="#E0E0E0"/>
<path d="M95.2325 80.2481H34.8558C34.5594 80.2478 34.2752 80.1299 34.0656 79.9203C33.856 79.7107 33.7381 79.4265 33.7378 79.1301V52.6337C33.7381 52.3372 33.856 52.0531 34.0656 51.8435C34.2752 51.6339 34.5594 51.516 34.8558 51.5156H95.2325C95.5289 51.516 95.8131 51.6339 96.0227 51.8435C96.2323 52.0531 96.3502 52.3372 96.3506 52.6337V79.1301C96.3502 79.4265 96.2323 79.7107 96.0227 79.9203C95.8131 80.1299 95.5289 80.2478 95.2325 80.2481Z" fill="#2196F3"/>
<path d="M44.2195 62.8438C44.0184 62.8441 43.8257 62.9243 43.6837 63.0666C43.5417 63.2089 43.4619 63.4017 43.4619 63.6028C43.4619 63.8038 43.5417 63.9967 43.6837 64.139C43.8257 64.2813 44.0184 64.3614 44.2195 64.3618H85.8692C86.0702 64.3614 86.2629 64.2813 86.4049 64.139C86.547 63.9967 86.6267 63.8038 86.6267 63.6028C86.6267 63.4017 86.547 63.2089 86.4049 63.0666C86.2629 62.9243 86.0702 62.8441 85.8692 62.8438H44.2195Z" fill="white"/>
<path d="M44.2195 67.3984C44.0184 67.3988 43.8257 67.479 43.6837 67.6213C43.5417 67.7636 43.4619 67.9564 43.4619 68.1575C43.4619 68.3585 43.5417 68.5514 43.6837 68.6937C43.8257 68.836 44.0184 68.9161 44.2195 68.9165H65.4825C65.6835 68.9161 65.8762 68.836 66.0183 68.6937C66.1603 68.5514 66.2401 68.3585 66.2401 68.1575C66.2401 67.9564 66.1603 67.7636 66.0183 67.6213C65.8762 67.479 65.6835 67.3988 65.4825 67.3984H44.2195Z" fill="white"/>
<path d="M25.9973 90.0137C25.7963 90.0141 25.6036 90.0942 25.4615 90.2365C25.3195 90.3788 25.2397 90.5716 25.2397 90.7727C25.2397 90.9737 25.3195 91.1666 25.4615 91.3089C25.6036 91.4512 25.7963 91.5313 25.9973 91.5317H104.091C104.292 91.5313 104.484 91.4512 104.626 91.3089C104.768 91.1666 104.848 90.9737 104.848 90.7727C104.848 90.5716 104.768 90.3788 104.626 90.2365C104.484 90.0942 104.292 90.0141 104.091 90.0137H25.9973Z" fill="#E0E0E0"/>
<path d="M25.9973 94.5684C25.7963 94.5687 25.6036 94.6489 25.4615 94.7912C25.3195 94.9335 25.2397 95.1263 25.2397 95.3274C25.2397 95.5284 25.3195 95.7213 25.4615 95.8636C25.6036 96.0059 25.7963 96.086 25.9973 96.0864H83.704C83.9051 96.086 84.0978 96.0059 84.2398 95.8636C84.3818 95.7213 84.4616 95.5284 84.4616 95.3274C84.4616 95.1263 84.3818 94.9335 84.2398 94.7912C84.0978 94.6489 83.9051 94.5687 83.704 94.5684H25.9973Z" fill="#E0E0E0"/>
<path d="M25.9973 99.0195C25.7963 99.0199 25.6036 99.1001 25.4615 99.2424C25.3195 99.3847 25.2397 99.5775 25.2397 99.7786C25.2397 99.9796 25.3195 100.172 25.4615 100.315C25.6036 100.457 25.7963 100.537 25.9973 100.538H104.091C104.292 100.537 104.484 100.457 104.626 100.315C104.768 100.172 104.848 99.9796 104.848 99.7786C104.848 99.5775 104.768 99.3847 104.626 99.2424C104.484 99.1001 104.292 99.0199 104.091 99.0195H25.9973Z" fill="#E0E0E0"/>
<path d="M25.9973 103.574C25.7963 103.575 25.6036 103.655 25.4615 103.797C25.3195 103.939 25.2397 104.132 25.2397 104.333C25.2397 104.534 25.3195 104.727 25.4615 104.869C25.6036 105.012 25.7963 105.092 25.9973 105.092H83.704C83.9051 105.092 84.0978 105.012 84.2398 104.869C84.3818 104.727 84.4616 104.534 84.4616 104.333C84.4616 104.132 84.3818 103.939 84.2398 103.797C84.0978 103.655 83.9051 103.575 83.704 103.574H25.9973Z" fill="#E0E0E0"/>
<path d="M103.608 121.295H80.722C80.4256 121.295 80.1414 121.177 79.9318 120.968C79.7222 120.758 79.6043 120.474 79.604 120.177V116.511C79.6043 116.214 79.7222 115.93 79.9318 115.72C80.1414 115.511 80.4256 115.393 80.722 115.393H103.608C103.904 115.393 104.188 115.511 104.398 115.72C104.608 115.93 104.726 116.214 104.726 116.511V120.177C104.726 120.474 104.608 120.758 104.398 120.968C104.188 121.177 103.904 121.295 103.608 121.295V121.295Z" fill="#2196F3"/>
<path d="M152.798 41.485L114.132 61.2637L114.387 61.763L153.054 41.9843L152.798 41.485Z" fill="#BDBDBD"/>
<path d="M114.386 113.147L114.13 113.646L152.8 133.419L153.055 132.92L114.386 113.147Z" fill="#BDBDBD"/>
<path d="M210.667 34.4488C210.666 39.8759 209.166 45.1971 206.333 49.8262C203.501 54.4553 199.445 58.2124 194.613 60.6836C194.364 60.8126 194.111 60.9388 193.859 61.0566C193.71 61.1295 193.562 61.1968 193.413 61.2641C193.048 61.4296 192.678 61.5894 192.305 61.7381C190.978 62.2807 189.612 62.7223 188.219 63.0591C188.022 63.1096 187.82 63.1545 187.621 63.1993C187.119 63.3115 186.614 63.4087 186.104 63.491C183.323 63.9567 180.49 64.0228 177.69 63.6873C177.11 63.62 176.534 63.534 175.962 63.4293C175.69 63.3788 175.418 63.3255 175.149 63.2694C175.113 63.261 175.076 63.2526 175.04 63.247C174.073 63.0436 173.118 62.7889 172.179 62.4841C171.674 62.3215 171.172 62.1476 170.681 61.9569C170.426 61.8587 170.174 61.7577 169.924 61.654C169.801 61.6035 169.677 61.5502 169.557 61.4969C164.675 59.3927 160.455 56.0068 157.342 51.6982C154.23 47.3896 152.341 42.3189 151.877 37.0239C151.412 31.7289 152.39 26.407 154.705 21.6224C157.021 16.8379 160.588 12.7692 165.028 9.84766C169.468 6.92616 174.617 5.26081 179.927 5.02822C185.237 4.79562 190.511 6.00446 195.19 8.52653C199.869 11.0486 203.778 14.7899 206.503 19.3537C209.228 23.9174 210.667 29.1335 210.667 34.4488V34.4488Z" fill="#EEEEEE"/>
<path d="M210.667 128.125C210.66 132.87 209.51 137.544 207.315 141.75C205.119 145.957 201.943 149.573 198.054 152.292C197.981 152.343 197.908 152.393 197.835 152.441C197.409 152.735 196.974 153.019 196.528 153.285C196.245 153.459 195.956 153.627 195.667 153.793C195.32 153.989 194.969 154.177 194.613 154.359C194.532 154.401 194.45 154.444 194.366 154.483C194.069 154.634 193.769 154.78 193.463 154.918C193.446 154.926 193.429 154.932 193.413 154.94C193.312 154.985 193.208 155.033 193.101 155.077C192.442 155.369 191.769 155.638 191.082 155.88C191.034 155.899 190.984 155.916 190.933 155.933C189.36 156.486 187.741 156.898 186.095 157.167C185.784 157.223 185.47 157.268 185.156 157.31C185.105 157.318 185.052 157.327 185.001 157.332C184.572 157.388 184.14 157.433 183.706 157.47C183.655 157.475 183.605 157.478 183.554 157.481C183.229 157.509 182.901 157.529 182.57 157.543C182.121 157.562 181.672 157.574 181.218 157.574C180.581 157.574 179.948 157.554 179.319 157.515C178.772 157.478 178.228 157.43 177.69 157.363C177.362 157.324 177.033 157.279 176.711 157.229C176.355 157.175 175.998 157.114 175.648 157.046C175.474 157.013 175.3 156.976 175.126 156.94C175.098 156.934 175.067 156.928 175.039 156.923C174.759 156.864 174.481 156.802 174.206 156.732C173.116 156.469 172.043 156.141 170.992 155.751C170.633 155.616 170.277 155.476 169.924 155.33C169.814 155.285 169.705 155.237 169.598 155.19C169.405 155.108 169.214 155.021 169.023 154.934C168.88 154.87 168.737 154.803 168.594 154.735C168.291 154.595 167.994 154.446 167.697 154.292C167.458 154.171 167.22 154.042 166.987 153.913C166.981 153.911 166.979 153.908 166.973 153.905C162.428 151.394 158.627 147.725 155.957 143.271C153.286 138.817 151.841 133.736 151.768 128.543C151.694 123.351 152.995 118.231 155.538 113.703C158.082 109.176 161.777 105.401 166.25 102.762C170.722 100.123 175.813 98.7134 181.006 98.6765C186.199 98.6396 191.31 99.9765 195.82 102.552C200.329 105.127 204.078 108.849 206.685 113.34C209.293 117.831 210.666 122.931 210.667 128.125V128.125Z" fill="#EEEEEE"/>
<path d="M181.038 29.2578C178.921 29.2603 176.891 30.1027 175.393 31.6001C173.896 33.0976 173.053 35.1278 173.051 37.2455V43.2054C173.051 43.4898 173.165 43.7624 173.366 43.9632C173.568 44.1641 173.841 44.2769 174.125 44.2767H187.952C188.236 44.2769 188.509 44.1641 188.711 43.9633C188.912 43.7624 189.025 43.4898 189.026 43.2054V37.2455C189.023 35.1279 188.181 33.0978 186.684 31.6004C185.186 30.103 183.156 29.2606 181.038 29.2578V29.2578Z" fill="#263238"/>
<path d="M176.958 54.3331L176.192 50.8834C176.085 50.3931 175.834 49.946 175.472 49.5988C175.149 49.3187 174.772 49.1094 174.364 48.9846C174.316 48.9734 174.268 48.9622 174.218 48.9538C174.197 48.9478 174.175 48.9431 174.153 48.9397C173.81 48.88 173.458 48.892 173.119 48.9749C172.78 49.0579 172.462 49.2101 172.185 49.4218C171.908 49.6336 171.678 49.9005 171.509 50.2056C171.34 50.5107 171.236 50.8474 171.203 51.1947L170.552 55.2642L169.557 61.4962C169.677 61.5495 169.801 61.6028 169.924 61.6532C170.174 61.757 170.426 61.858 170.681 61.9561C171.172 62.1469 171.674 62.3208 172.179 62.4834C173.118 62.7882 174.073 63.0429 175.04 63.2463C175.076 63.2519 175.113 63.2603 175.149 63.2687C175.418 63.3248 175.69 63.3781 175.962 63.4286L177.323 55.9766L176.958 54.3331Z" fill="#263238"/>
<path d="M179.068 44.188C182.302 44.188 184.924 41.5663 184.924 38.3323C184.924 35.0983 182.302 32.4766 179.068 32.4766C175.834 32.4766 173.212 35.0983 173.212 38.3323C173.212 41.5663 175.834 44.188 179.068 44.188Z" fill="#FFB7B7"/>
<path d="M185.397 57.9303L184.146 48.0691L183.883 45.9797H183.88L183.762 45.9769C183.364 45.9628 182.977 45.96 182.595 45.9741C180.254 45.984 177.958 46.6192 175.945 47.8139C175.418 48.1353 174.916 48.4953 174.442 48.8909L174.42 48.9133L174.364 48.9863L172.375 51.5441L172.372 51.5946L172.179 62.485C173.118 62.7899 174.073 63.0445 175.039 63.2479C175.076 63.2535 175.112 63.2619 175.149 63.2704C175.418 63.3264 175.69 63.3797 175.962 63.4302C176.534 63.534 177.11 63.62 177.69 63.6882C180.49 64.0237 183.323 63.9576 186.104 63.4919L185.397 57.9303Z" fill="#2196F3"/>
<path d="M187.444 48.1335C186.523 47.047 185.273 46.2907 183.882 45.9796H183.88C183.509 45.8961 183.132 45.8464 182.752 45.8309L182.654 45.8281L182.595 45.974L177.883 57.3328L177.123 54.2982L175.945 47.8138L175.937 47.7661L175.76 47.8699C175.214 48.1843 174.698 48.5476 174.218 48.9553C172.306 50.569 171.031 52.8097 170.619 55.277C170.499 56.0081 170.455 56.7497 170.487 57.4899L170.681 61.9577C171.172 62.1484 171.674 62.3223 172.179 62.4849C173.118 62.7898 174.073 63.0444 175.039 63.2478C175.076 63.2534 175.112 63.2618 175.149 63.2702C175.418 63.3263 175.69 63.3796 175.962 63.4301C176.534 63.5339 177.11 63.6199 177.69 63.6881C180.489 64.0236 183.323 63.9575 186.104 63.4918C186.614 63.4105 187.12 63.3132 187.621 63.2001C187.82 63.1552 188.022 63.1104 188.218 63.0599L187.795 61.8118L188.917 53.1483C189.032 52.256 188.96 51.3496 188.706 50.4865C188.453 49.6233 188.023 48.8221 187.444 48.1335V48.1335Z" fill="#263238"/>
<path d="M188.836 48.3735C188.635 47.7561 188.204 47.2399 187.633 46.9322C187.061 46.6245 186.393 46.549 185.767 46.7216C185.666 46.7475 185.567 46.7803 185.47 46.8197C185.005 47.0093 184.607 47.3335 184.327 47.7508C184.047 48.168 183.898 48.6592 183.899 49.1616L183.911 54.4035L185.397 57.9289L187.621 63.1989C187.82 63.154 188.022 63.1091 188.219 63.0587C189.612 62.7218 190.978 62.2802 192.305 61.7377C192.678 61.589 193.048 61.4291 193.413 61.2637C193.561 61.1964 193.71 61.129 193.859 61.0561L188.836 48.3735Z" fill="#263238"/>
<path d="M178.674 31.4023H177.48C175.804 31.4029 174.198 32.0689 173.013 33.2539C171.829 34.4389 171.163 36.0458 171.164 37.7212V37.839H179.62L179.707 36.6246L180.138 37.839H181.44L181.614 35.4326L182.472 37.839H184.99V37.7212C184.989 36.0463 184.323 34.4404 183.139 33.2558C181.955 32.0712 180.349 31.4046 178.674 31.4023Z" fill="#263238"/>
<path d="M176.108 139.029C175.121 138.958 174.131 139.085 173.194 139.403C172.258 139.721 171.394 140.222 170.654 140.878C169.914 141.534 169.313 142.332 168.885 143.223C168.458 144.115 168.213 145.083 168.165 146.071L167.697 154.292C167.994 154.446 168.291 154.595 168.594 154.735C168.737 154.802 168.88 154.869 169.023 154.934C169.214 155.021 169.405 155.108 169.598 155.189C169.705 155.237 169.814 155.284 169.924 155.329C170.277 155.475 170.633 155.615 170.992 155.75C172.043 156.141 173.116 156.469 174.206 156.732C174.481 156.802 174.759 156.864 175.039 156.922C175.067 156.928 175.098 156.934 175.126 156.939C175.3 156.976 175.474 157.012 175.648 157.046L176.242 139.037L176.108 139.029Z" fill="#263238"/>
<path d="M183.706 157.47C184.141 157.433 184.573 157.388 185.002 157.332C185.052 157.327 185.106 157.318 185.156 157.31C185.47 157.268 185.784 157.223 186.096 157.167C186.121 156.407 186.112 155.86 186.112 155.793L187.506 141.267L184.601 139.573L184.034 139.242L175.25 138.959L175.177 139.021L170.959 142.678L169.599 155.19C169.705 155.237 169.815 155.285 169.924 155.33C170.277 155.476 170.634 155.616 170.993 155.75C172.043 156.141 173.117 156.469 174.207 156.732C174.482 156.802 174.759 156.864 175.04 156.923C175.068 156.928 175.099 156.934 175.127 156.94C175.3 156.976 175.474 157.013 175.648 157.046C175.999 157.113 176.355 157.175 176.711 157.228C177.034 157.279 177.362 157.324 177.69 157.363C178.229 157.43 178.773 157.478 179.32 157.515C179.948 157.554 180.581 157.573 181.218 157.573C181.673 157.573 182.121 157.562 182.57 157.543C182.901 157.529 183.229 157.509 183.555 157.481L183.706 157.47Z" fill="#263238"/>
<path d="M189.582 142.517L184.606 139.477L184.601 139.572L183.706 157.468C184.141 157.432 184.573 157.387 185.002 157.331C185.052 157.325 185.106 157.317 185.156 157.309C185.47 157.266 185.784 157.222 186.095 157.166C187.741 156.897 189.36 156.484 190.934 155.931C190.984 155.915 191.035 155.898 191.082 155.878L191.436 145.843C191.46 145.172 191.3 144.507 190.973 143.921C190.647 143.335 190.165 142.849 189.582 142.517V142.517Z" fill="#263238"/>
<path d="M178.661 137.021C182.07 137.021 184.833 134.257 184.833 130.848C184.833 127.439 182.07 124.676 178.661 124.676C175.252 124.676 172.488 127.439 172.488 130.848C172.488 134.257 175.252 137.021 178.661 137.021Z" fill="#9F616A"/>
<path d="M176.429 121.734C182.646 119.942 184.41 125.094 184.41 125.094C187.407 127.082 185.531 129.574 185.531 129.574C186.287 129.742 184.775 134.167 184.271 134.055C184.002 133.995 183.31 134.821 182.724 135.604C182.523 135.603 182.322 135.623 182.124 135.661L183.263 131.451C183.263 131.451 179.426 130.863 178.25 129.015C177.125 127.247 173.42 126.688 172.366 127.87C172.303 127.53 172.176 127.206 171.99 126.915C171.846 126.694 171.658 126.505 171.437 126.361C172.369 122.399 176.429 121.734 176.429 121.734Z" fill="#263238"/>
<path opacity="0.2" d="M183.554 157.481C183.229 157.509 182.901 157.528 182.57 157.542L183.434 152.797V153.125L183.554 157.481Z" fill="#212121"/>
</g>
<defs>
<clipPath id="clip0">
<rect width="210" height="157.5" fill="white" transform="translate(0.666992)"/>
</clipPath>
</defs>
</svg>
