<svg width="210" height="158" viewBox="0 0 210 158" fill="none" xmlns="http://www.w3.org/2000/svg">
<g clip-path="url(#clip0)">
<path d="M135.88 88.6168C131.764 91.0869 124.431 94.1819 116.937 91.0012L112.093 88.9451L121.8 78.0563C114.054 69.5097 109.768 58.3814 109.78 46.8433C109.792 35.3053 114.1 24.1857 121.864 15.6551C129.628 7.12438 140.289 1.79489 151.768 0.706832C163.247 -0.381223 174.72 2.85026 183.946 9.77052C193.172 16.6908 199.49 26.8031 201.667 38.1337C203.843 49.4644 201.722 61.2 195.717 71.0499C189.713 80.8999 180.255 88.1572 169.191 91.4053C158.127 94.6535 146.251 93.6593 135.88 88.6168V88.6168ZM117.281 46.8173C117.259 52.1361 118.338 57.4018 120.449 62.2832C122.56 67.1645 125.658 71.556 129.547 75.1814L132.224 77.6992L126.116 84.551C129.298 83.905 132.069 82.1826 133.474 81.1822L135.402 79.8094L137.476 80.9496C143.208 84.09 149.638 85.7358 156.173 85.7351C177.618 85.7351 195.065 68.2768 195.065 46.8173C195.065 25.358 177.618 7.89953 156.173 7.89953C134.728 7.89953 117.281 25.358 117.281 46.8173V46.8173Z" fill="#125386"/>
<path d="M113.51 46.8179C113.51 23.2404 132.611 4.12695 156.172 4.12695C179.734 4.12695 198.835 23.2404 198.835 46.8179C198.835 70.3955 179.734 89.5089 156.172 89.5089C149.001 89.5194 141.945 87.7128 135.66 84.2573C132.711 86.357 125.516 90.545 118.409 87.5283L126.964 77.9317C122.712 73.9444 119.323 69.1251 117.008 63.7729C114.694 58.4207 113.503 52.6497 113.51 46.8179V46.8179Z" fill="#2196F3"/>
<path opacity="0.1" d="M191.567 46.9097C191.567 24.604 174.471 6.29707 152.675 4.38661C153.918 4.27769 155.175 4.21875 156.446 4.21875C180.008 4.21875 199.109 23.3321 199.109 46.9097C199.109 70.4873 180.008 89.6007 156.446 89.6007C155.177 89.6007 153.922 89.541 152.681 89.4323C174.474 87.5191 191.567 69.2135 191.567 46.9097Z" fill="#212121"/>
<path d="M57.8612 147.924C47.2011 147.929 36.8632 144.267 28.58 137.553C20.2969 130.838 14.5717 121.479 12.3642 111.043C10.1566 100.607 11.6007 89.7286 16.4545 80.2314C21.3082 70.7342 29.2767 63.1949 39.0245 58.8772C48.7722 54.5595 59.7069 53.7256 69.9959 56.5154C80.285 59.3052 89.3031 65.5491 95.5391 74.2006C101.775 82.8522 104.85 93.3857 104.248 104.036C103.646 114.686 99.4045 124.806 92.2338 132.699L101.941 143.587L97.0969 145.643C89.6032 148.824 82.2702 145.729 78.1543 143.259C71.8288 146.328 64.8908 147.922 57.8612 147.924V147.924ZM57.8612 62.5418C36.4161 62.5418 18.9692 80.0003 18.9692 101.46C18.9692 122.919 36.4161 140.377 57.8612 140.377C64.3961 140.378 70.826 138.732 76.558 135.592L78.6316 134.452L80.5597 135.825C81.9649 136.825 84.7361 138.547 87.9178 139.193L81.8095 132.341L84.487 129.824C88.3763 126.198 91.4739 121.807 93.5849 116.925C95.6958 112.044 96.7745 106.778 96.7531 101.46C96.7531 80.0003 79.3062 62.5418 57.8612 62.5418V62.5418Z" fill="#125386"/>
<path d="M100.524 101.459C100.524 77.881 81.4228 58.7676 57.8609 58.7676C34.299 58.7676 15.1982 77.881 15.1982 101.459C15.1982 125.036 34.299 144.15 57.8609 144.15C65.0318 144.16 72.0887 142.353 78.3735 138.898C81.3226 140.998 88.5169 145.186 95.6242 142.169L87.0689 132.572C91.3218 128.585 94.7105 123.766 97.025 118.414C99.3395 113.061 100.53 107.29 100.524 101.459Z" fill="#2196F3"/>
<path opacity="0.1" d="M22.7396 101.244C22.7396 78.9379 39.8362 60.6311 61.6316 58.7206C60.3889 58.6117 59.1319 58.5527 57.8609 58.5527C34.299 58.5527 15.1982 77.6661 15.1982 101.244C15.1982 124.821 34.299 143.935 57.8609 143.935C59.1299 143.935 60.3848 143.875 61.6256 143.766C39.8331 141.853 22.7396 123.547 22.7396 101.244Z" fill="#212121"/>
<path d="M166.188 33.2543C163.396 28.5346 157.874 28.3147 157.874 28.3147C157.874 28.3147 152.493 27.6261 149.04 34.8141C145.823 41.514 141.382 47.9829 148.326 49.5513L149.58 45.6451L150.356 49.8421C151.345 49.9132 152.337 49.9302 153.327 49.8929C160.763 49.6527 167.845 49.9632 167.617 47.2931C167.314 43.7436 168.874 37.7955 166.188 33.2543Z" fill="#212121"/>
<path d="M147.93 74.5871C147.848 75.1062 147.729 75.6188 147.573 76.121C147.399 76.6125 147.129 77.067 146.969 77.5636C146.46 79.1464 147.166 80.9112 148.293 82.1329C149.271 83.1882 150.532 83.9379 151.926 84.2916C152.952 84.5114 153.999 84.6214 155.048 84.62C157.95 84.7184 160.926 84.8065 163.676 83.8733C164.545 83.5713 165.384 83.1898 166.183 82.7338C166.435 82.6136 166.657 82.4385 166.833 82.2214C167.017 81.9033 167.099 81.5363 167.068 81.1701C167.062 79.9391 166.812 78.7145 166.871 77.4849C166.904 76.8039 167.032 76.1234 166.969 75.4444C166.882 74.6733 166.559 73.9479 166.045 73.3675C165.53 72.787 164.849 72.3799 164.094 72.2019C163.314 72.0343 162.505 72.1256 161.711 72.202C159.65 72.4002 157.579 72.4928 155.509 72.4795C153.393 72.466 151.29 72.1428 149.185 72.1091C148.562 72.0991 148.575 72.2911 148.377 72.8941C148.194 73.449 148.045 74.0144 147.93 74.5871V74.5871Z" fill="#212121"/>
<path d="M153.934 44.1915C153.832 44.7242 153.722 45.2764 153.402 45.7142C153.034 46.218 152.434 46.5058 152.038 46.9878C151.442 47.7134 151.408 48.7344 151.405 49.6737C151.403 50.5389 151.421 51.4618 151.903 52.1801C152.246 52.6262 152.672 53.002 153.157 53.2868C154.966 54.5063 156.92 55.7477 159.1 55.7879C160.004 55.8046 160.972 55.5711 161.567 54.8902C161.823 54.5704 162.025 54.2101 162.164 53.8241C162.721 52.449 163.059 50.9946 163.165 49.5144C163.245 48.8186 163.181 48.1136 162.974 47.4442C162.71 46.7052 162.174 46.0972 161.82 45.3965C161.402 44.5634 161.249 43.6219 161.382 42.6991C161.399 42.6341 161.394 42.565 161.366 42.5036C161.337 42.4707 161.301 42.445 161.26 42.4285C161.219 42.412 161.176 42.4052 161.132 42.4085L156.809 42.0971C156.406 42.0771 156.005 42.0312 155.608 41.9597C155.375 41.9123 154.76 41.581 154.538 41.6691C154.126 41.8322 154.018 43.7497 153.934 44.1915Z" fill="#A0616A"/>
<path opacity="0.1" d="M153.934 44.3262C153.832 44.859 153.722 45.4112 153.402 45.849C153.034 46.3527 152.434 46.6405 152.038 47.1226C151.442 47.8481 151.408 48.8692 151.405 49.8084C151.403 50.6737 151.421 51.5966 151.903 52.3148C152.246 52.761 152.672 53.1368 153.157 53.4216C154.966 54.6411 156.92 55.8825 159.1 55.9227C160.004 55.9393 160.972 55.7059 161.567 55.025C161.823 54.7051 162.025 54.3449 162.164 53.9589C162.721 52.5837 163.059 51.1294 163.165 49.6492C163.245 48.9534 163.181 48.2484 162.974 47.5789C162.71 46.84 162.174 46.2319 161.82 45.5313C161.402 44.6982 161.249 43.7567 161.382 42.8338C161.399 42.7689 161.394 42.6998 161.366 42.6384C161.337 42.6055 161.301 42.5798 161.26 42.5633C161.219 42.5468 161.176 42.54 161.132 42.5433L156.809 42.2318C156.406 42.2118 156.005 42.1659 155.608 42.0944C155.375 42.047 154.76 41.7158 154.538 41.8039C154.126 41.9669 154.018 43.8845 153.934 44.3262Z" fill="#212121"/>
<path d="M158.068 44.7717C161.571 44.7717 164.411 41.9301 164.411 38.4249C164.411 34.9197 161.571 32.0781 158.068 32.0781C154.565 32.0781 151.726 34.9197 151.726 38.4249C151.726 41.9301 154.565 44.7717 158.068 44.7717Z" fill="#A0616A"/>
<path d="M154.824 52.6393C155.137 53.0023 155.515 53.3043 155.938 53.53C156.379 53.7124 156.852 53.8027 157.329 53.7952C158.473 53.8274 159.712 53.6178 160.507 52.7953C161.533 51.735 161.499 50.0249 162.302 48.788C162.367 48.6758 162.456 48.5791 162.561 48.5046C162.696 48.4311 162.849 48.3961 163.002 48.4033C164.017 48.3938 164.901 49.0525 165.699 49.6802C166.074 49.9388 166.397 50.2673 166.648 50.6478C166.806 50.9559 166.914 51.287 166.968 51.6288C167.364 53.563 167.492 55.5406 167.62 57.5108C167.69 58.5991 167.76 59.6884 167.755 60.7789C167.738 64.3716 166.903 67.9042 166.073 71.3997C165.967 71.8501 165.82 72.3536 165.411 72.5693C165.228 72.6514 165.032 72.6993 164.833 72.7105C162.456 72.9898 160.074 73.2695 157.681 73.3064C156.747 73.3208 155.814 73.2982 154.881 73.2385C154.72 73.2364 154.561 73.2086 154.409 73.1562C154.203 73.0572 154.026 72.9067 153.895 72.7192C152.6 71.087 152.524 68.8305 152.532 66.7469C152.552 61.6526 152.734 56.5623 153.078 51.4762C153.106 51.0563 153.112 50.5465 152.81 50.2162C153.399 51.0891 154.073 51.9009 154.824 52.6393V52.6393Z" fill="white"/>
<path d="M153.48 45.3114C153.266 45.6994 151.686 46.6629 151.382 46.9845C149.678 48.7814 146.569 48.7139 145.011 50.6385C144.463 51.3156 144.178 52.1664 143.968 53.0123C143.672 54.2085 143.514 55.5132 144.01 56.6412C144.488 57.7266 145.493 58.477 146.175 59.4465C146.925 60.511 147.262 61.8036 147.585 63.065C147.823 63.9964 148.063 64.9508 147.97 65.9077C147.865 66.9958 147.339 67.992 147.028 69.04C146.717 70.088 146.664 71.3362 147.382 72.1598C147.91 72.7649 148.737 73.0047 149.529 73.1397C150.542 73.292 151.564 73.3811 152.588 73.4062C153.493 73.4462 154.489 73.454 155.185 72.8738C155.733 72.416 155.972 71.6732 156.003 70.9591C156.033 70.245 155.885 69.5372 155.792 68.8285C155.696 68.0938 155.658 67.3527 155.627 66.6124C155.488 63.2907 155.469 59.9668 155.571 56.6408C155.621 55.9495 155.588 55.2546 155.47 54.5716C155.276 53.6819 154.795 52.8867 154.394 52.0692C153.593 50.5295 153.23 48.799 153.345 47.0669C153.466 45.2867 154.242 43.9306 153.48 45.3114Z" fill="white"/>
<path d="M162.386 45.4464C162.713 45.782 163.821 45.8926 164.237 46.1088C164.627 46.2892 165.034 46.4304 165.453 46.5301C166.967 46.9672 168.407 47.6286 169.725 48.4923C169.999 48.6527 170.241 48.862 170.44 49.1099C170.649 49.4501 170.783 49.8307 170.835 50.2267C171.038 51.2341 171.242 52.2536 171.197 53.2803C171.148 54.3701 170.82 55.4256 170.495 56.4668L169.279 60.3572C168.371 63.261 167.457 66.1935 167.202 69.2254C167.061 70.9057 167.124 72.597 167.389 74.2622C167.414 74.3432 167.422 74.4286 167.411 74.5127C167.4 74.5968 167.372 74.6777 167.328 74.75C167.248 74.8292 167.142 74.8778 167.03 74.8871C166.443 74.9789 165.875 74.6795 165.343 74.4145C163.718 73.6051 161.983 73.0372 160.194 72.7286C160.893 71.7176 161.433 70.6049 161.794 69.4297C161.998 68.6834 162.16 67.9258 162.277 67.1608L162.842 63.8868C163.073 62.6902 163.235 61.4814 163.328 60.2663C163.371 59.8103 163.344 59.3505 163.249 58.9025C163.119 58.4761 162.946 58.064 162.732 57.6725C161.8 55.7319 161.363 53.5174 161.729 51.3958C161.89 50.4673 162.202 49.5375 162.072 48.6043C161.947 47.707 162.077 47.0096 161.847 46.1216C160.902 42.4756 161.773 44.8151 162.386 45.4464Z" fill="white"/>
<path d="M144.994 53.7072C144.569 54.5898 143.859 55.3417 143.617 56.291C143.523 56.7347 143.483 57.1881 143.497 57.6414C143.455 58.3247 143.523 59.0102 143.697 59.6721C143.832 60.0907 144.052 60.4768 144.21 60.8872C144.43 61.4606 144.529 62.0738 144.498 62.6875C144.456 63.5376 144.167 64.3628 144.144 65.2137C144.109 66.5519 144.728 67.8098 145.331 69.0045C145.483 68.628 145.715 68.2893 146.012 68.0121C146.308 67.7349 146.661 67.5258 147.047 67.3995C147.432 67.2732 147.841 67.2327 148.244 67.2809C148.646 67.329 149.034 67.4647 149.379 67.6783C149.517 67.5085 149.583 67.2908 149.561 67.0728C149.606 65.5204 149.649 63.9679 149.69 62.4154C149.756 60.0143 149.818 57.5811 149.266 55.2435C149.017 54.1881 148.629 53.1367 147.918 52.3181C147.544 51.8871 146.273 50.7517 145.659 51.2346C145.382 51.4517 145.447 52.0428 145.403 52.3422C145.337 52.8153 145.199 53.2756 144.994 53.7072V53.7072Z" fill="white"/>
<path d="M171.321 51.1646C171.492 51.8011 171.565 52.4598 171.538 53.1183C171.546 54.4603 171.528 55.8021 171.484 57.1438C171.491 57.832 171.403 58.5178 171.223 59.1819C171.086 59.6138 170.874 60.0188 170.732 60.4493C170.307 61.7393 170.54 63.1384 170.576 64.4962C170.602 64.9357 170.564 65.3765 170.465 65.8053C170.241 66.647 169.638 67.3272 169.217 68.0899C168.818 68.8143 168.577 69.6262 168.1 70.3019C167.623 70.9777 166.797 71.5131 165.997 71.3057C165.391 71.1485 164.96 70.6114 164.662 70.06C164.011 68.8478 163.789 67.4514 164.03 66.0969C164.33 64.449 165.297 62.987 165.646 61.3489C166.125 59.0994 165.397 56.778 165.419 54.4781C165.409 54.1176 165.458 53.7578 165.563 53.413C165.746 52.8877 166.139 52.4681 166.502 52.0468C166.956 51.5203 167.378 50.9668 167.764 50.3893C168.024 50.0014 168.377 49.0037 168.838 48.9208C169.867 48.7356 171.065 50.3692 171.321 51.1646Z" fill="white"/>
<path d="M139.656 73.5854C139.087 73.4424 138.5 73.38 137.914 73.4002C137.298 73.4343 136.696 73.5992 136.149 73.884C135.602 74.1688 135.121 74.5669 134.739 75.0519C134.358 75.5369 134.084 76.0977 133.935 76.6969C133.787 77.2962 133.768 77.9202 133.879 78.5274C134.021 79.1852 134.253 79.8201 134.569 80.4143C135.031 81.3522 135.585 82.2879 136.44 82.8889C136.955 83.2194 137.51 83.4836 138.091 83.6753L142.594 85.3728C143.256 85.6226 143.919 85.8723 144.588 86.1039C147.949 87.2664 151.453 87.9635 155.003 88.1757C156.083 88.277 157.172 88.2218 158.236 88.0118C158.494 87.9782 158.73 87.8507 158.899 87.6537C158.984 87.5041 159.035 87.3368 159.047 87.1647L159.324 85.2236C159.386 84.9533 159.378 84.6716 159.3 84.4053C159.173 84.079 158.855 83.8738 158.552 83.6995C155.591 81.998 152.135 81.0593 149.643 78.7241C149.056 78.1743 148.565 77.3029 147.852 76.9295C147.044 76.506 146.092 76.2643 145.257 75.8741C143.431 75.0211 141.635 74.0407 139.656 73.5854Z" fill="#212121"/>
<path opacity="0.1" d="M144.152 76.2039C145.743 76.703 152.463 80.1605 153.615 81.3677C153.461 81.4234 148.222 78.4858 148.065 78.4386C146.624 78.0426 145.213 77.5451 143.843 76.9497C143.57 76.8233 142.07 76.2296 142.137 75.8849C142.214 75.496 143.869 76.1153 144.152 76.2039Z" fill="#212121"/>
<path d="M164.008 89.1826C164.098 89.1892 164.188 89.1628 164.26 89.1083C164.292 89.0675 164.315 89.0208 164.329 88.9709C164.342 88.9211 164.346 88.869 164.339 88.8178L164.332 86.1733C163.572 85.811 162.722 85.6948 161.887 85.5832L157.994 85.0625C158.084 85.0745 157.386 86.7404 157.493 86.9628C157.681 87.3548 159.123 87.7022 159.53 87.8873C160.945 88.5307 162.415 89.238 164.008 89.1826Z" fill="#A0616A"/>
<path d="M151.794 86.165C151.059 86.2821 150.238 86.3857 149.762 86.9583C149.159 87.6843 149.416 88.7668 149.704 89.6662C149.721 89.7823 149.762 89.8937 149.823 89.9938C149.884 90.0939 149.965 90.1807 150.061 90.249C150.156 90.3173 150.264 90.3658 150.379 90.3915C150.493 90.4173 150.612 90.4198 150.727 90.3989C151.397 90.4413 152.111 90.4746 152.697 90.1456C152.962 89.9702 153.217 89.7802 153.462 89.5766C153.894 89.289 154.368 89.0718 154.868 88.933C155.787 88.6438 156.733 88.4487 157.692 88.3508C158.069 88.3336 158.443 88.2676 158.804 88.1546C158.984 88.0965 159.149 87.9976 159.285 87.8656C159.42 87.7336 159.524 87.5721 159.587 87.3935C159.723 86.913 159.444 86.423 159.176 86.0015C158.868 85.4495 158.467 84.9543 157.992 84.5372C157.267 83.9734 156.908 84.4062 156.177 84.767C154.794 85.45 153.317 85.9213 151.794 86.165V86.165Z" fill="#A0616A"/>
<path d="M149.873 86.8264L145.206 85.446C144.646 85.2509 144.061 85.1375 143.469 85.1092C143.172 85.097 142.877 85.1483 142.602 85.2596C142.327 85.3709 142.078 85.5397 141.874 85.7547C141.512 86.1797 141.408 86.7606 141.318 87.3117L141.125 88.4905C140.996 89.0848 140.96 89.6953 141.017 90.3007C141.048 90.6035 141.148 90.8951 141.308 91.1536C141.469 91.412 141.686 91.6303 141.944 91.792C142.59 92.1446 143.382 91.9724 144.102 91.8249C145.558 91.5271 147.039 91.3682 148.525 91.3503C149.084 91.3436 149.67 91.3506 150.164 91.0888C150.45 90.9188 150.691 90.6814 150.865 90.3972C151.039 90.1129 151.141 89.7904 151.162 89.4578C151.254 88.4508 150.918 87.1355 149.873 86.8264Z" fill="#212121"/>
<path d="M165.843 85.6245C166.448 85.5184 166.982 85.1743 167.562 84.9712C168.378 84.6853 169.262 84.6853 170.127 84.6885C170.445 84.6594 170.764 84.7234 171.046 84.8728C171.427 85.1265 171.525 85.6342 171.589 86.0874L171.98 88.8219C172.085 89.3321 172.096 89.857 172.012 90.3711C171.897 90.8778 171.552 91.3663 171.05 91.497C170.44 91.6558 169.841 91.2657 169.265 91.0094C167.825 90.3689 166.15 90.5326 164.649 90.0538C164.505 90.025 164.369 89.9661 164.25 89.8808C164.131 89.7956 164.031 89.6861 163.958 89.5595C163.906 89.4076 163.888 89.2465 163.904 89.0869C163.93 88.208 163.745 87.0078 164.009 86.1678C164.247 85.4123 165.168 85.6245 165.843 85.6245Z" fill="#212121"/>
<path d="M175.72 72.4857C176.652 72.2517 177.619 72.1856 178.575 72.2905C179.338 72.3747 180.124 72.5872 180.682 73.1159C181.36 73.7593 181.578 74.7544 181.596 75.6895C181.626 77.552 181.009 79.367 179.85 80.8246C179.567 81.1933 179.23 81.5175 178.851 81.7865C178.442 82.0423 178.007 82.2524 177.552 82.4129L167.468 86.3931C164.815 87.4402 162.152 88.4904 159.385 89.1807C159.309 89.2172 159.227 89.2383 159.143 89.2426C159.059 89.2468 158.976 89.2343 158.897 89.2056C158.818 89.177 158.745 89.1328 158.683 89.0757C158.622 89.0186 158.572 88.9498 158.537 88.8732C157.654 87.6103 156.913 86.2534 156.327 84.8274C156.3 84.7936 156.28 84.7535 156.271 84.7106C156.262 84.6677 156.264 84.6233 156.276 84.5812C156.288 84.539 156.309 84.5003 156.339 84.4684C156.369 84.4364 156.406 84.4121 156.448 84.3976L163.58 80.2966C164.103 80.0236 164.591 79.6874 165.032 79.2956C165.34 78.9967 165.593 78.645 165.778 78.2573C165.925 77.9482 165.939 77.219 166.128 76.9906C166.313 76.767 166.945 76.7491 167.238 76.6612C167.65 76.5349 168.053 76.3823 168.446 76.2042C170.041 75.49 171.462 74.4522 172.991 73.6158C173.849 73.125 174.766 72.7453 175.72 72.4857V72.4857Z" fill="#212121"/>
<path opacity="0.1" d="M171.676 75.5472C170.45 76.4682 168.864 77.3148 167.649 78.2601C167.235 78.5827 160.325 82.4701 160.227 82.9864C161.36 83.1775 168.578 78.1246 169.611 77.6204C170.643 77.1162 171.559 76.4052 172.466 75.6995C172.697 75.5196 173.677 74.9789 173.013 74.778C172.639 74.6648 171.952 75.3631 171.676 75.5472Z" fill="#212121"/>
<path d="M163.244 45.5352H152.487C152.05 45.5352 151.631 45.7089 151.322 46.0181C151.013 46.3274 150.84 46.7468 150.84 47.1841V47.7879H150.723V49.1383H150.84V50.0835H150.723V50.8938H150.84V60.8576C150.84 61.295 151.013 61.7144 151.322 62.0236C151.631 62.3328 152.05 62.5066 152.487 62.5066H163.244C163.681 62.5066 164.101 62.3328 164.41 62.0236C164.719 61.7144 164.892 61.295 164.892 60.8576V47.1841C164.892 46.7467 164.719 46.3273 164.41 46.0181C164.101 45.7089 163.681 45.5352 163.244 45.5352V45.5352Z" fill="#A0D2FA"/>
<path d="M164.954 32.7993L159.498 29.9395L151.964 31.1094L150.405 37.9989L154.285 37.8493L155.369 35.3184V37.8078L157.16 37.7389L158.199 33.7091L158.848 37.9989L165.214 37.8688L164.954 32.7993Z" fill="#212121"/>
<path d="M146.422 71.5942C146.669 72.014 147.019 72.3632 147.44 72.608C147.716 72.7342 148.018 72.7956 148.321 72.7874C148.624 72.7793 148.922 72.7019 149.191 72.5611C149.728 72.2729 150.168 71.8318 150.454 71.2935C151.047 70.2458 151.17 68.992 151.096 67.7902C151.022 66.5884 150.766 65.405 150.652 64.2062C150.57 63.3348 150.563 62.4582 150.556 61.583C150.536 61.3989 150.574 61.2131 150.666 61.0524C150.825 60.8947 151.03 60.7922 151.251 60.7602C152.448 60.4044 153.242 59.2819 153.812 58.1703C154.192 57.4279 154.523 56.6165 154.449 55.7856C154.376 54.9547 153.779 54.1176 152.95 54.0328C152.266 53.9629 151.635 54.3975 151.142 54.8764C149.898 56.0922 149.098 57.6912 148.872 59.4164C148.763 60.2613 148.794 61.1291 148.565 61.9493C148.074 63.7006 146.54 64.7743 145.776 66.3501C144.933 68.0865 145.398 70.0578 146.422 71.5942Z" fill="#A0616A"/>
<path d="M168.998 64.9034C168.823 65.3096 168.569 65.6766 168.251 65.9829C167.932 66.2892 167.556 66.5286 167.143 66.6868C166.63 66.8929 166.065 66.9276 165.531 66.7856C165.266 66.7121 165.022 66.5785 164.817 66.3951C164.612 66.2118 164.452 65.9836 164.35 65.7284C164.268 65.4713 164.223 65.204 164.217 64.9343C164.14 63.7533 164.169 62.5363 164.598 61.4333C164.763 61.0079 164.986 60.6044 165.117 60.1671C165.245 59.6619 165.311 59.1429 165.312 58.6217L165.453 55.3993C165.476 55.1654 165.46 54.9292 165.405 54.7007C165.265 54.2344 164.829 53.9314 164.43 53.6534C163.465 52.9818 162.511 52.1983 162.044 51.1192C161.883 50.7943 161.825 50.428 161.879 50.0695C162.011 49.4296 162.656 49.0154 163.294 48.8758C163.711 48.7845 164.142 48.7787 164.562 48.8587C164.982 48.9387 165.381 49.1029 165.735 49.3413C166.09 49.5798 166.393 49.8876 166.625 50.2463C166.858 50.6049 167.015 51.0069 167.088 51.428C167.151 51.7917 167.15 52.1631 167.187 52.5304C167.266 53.3094 167.513 54.0603 167.667 54.8277C168.048 56.7182 167.851 58.6724 168.227 60.5626C168.542 62.143 169.73 63.1742 168.998 64.9034Z" fill="#A0616A"/>
<path d="M158.01 52.7848C158.755 52.7848 159.359 52.1802 159.359 51.4344C159.359 50.6886 158.755 50.084 158.01 50.084C157.264 50.084 156.66 50.6886 156.66 51.4344C156.66 52.1802 157.264 52.7848 158.01 52.7848Z" fill="#2196F3"/>
<path d="M11.4808 99.9669C13.6793 99.9669 15.4616 98.1834 15.4616 95.9834C15.4616 93.7834 13.6793 92 11.4808 92C9.28227 92 7.5 93.7834 7.5 95.9834C7.5 98.1834 9.28227 99.9669 11.4808 99.9669Z" fill="#212121"/>
<path d="M25.9107 107.81L23.9057 105.859L19.8794 107.111L20.2661 111.776L28.5447 111.391L26.0015 107.933L25.9107 107.81Z" fill="#FBBEBE"/>
<path d="M21.5252 107.769C25.0797 107.769 27.9611 104.886 27.9611 101.329C27.9611 97.772 25.0797 94.8887 21.5252 94.8887C17.9708 94.8887 15.0894 97.772 15.0894 101.329C15.0894 104.886 17.9708 107.769 21.5252 107.769Z" fill="#FBBEBE"/>
<path d="M61.4795 116.076C61.4795 116.076 69.3861 129.673 71.2678 131.714C72.1626 132.719 73.116 133.669 74.1229 134.561C74.1229 134.561 73.2381 137.498 71.8293 137.393C71.0263 137.344 70.2387 137.15 69.5052 136.82C69.5052 136.82 68.8764 135.189 67.7795 134.473C66.6827 133.758 57.7214 124.936 57.9309 122.116C58.1403 119.297 61.4795 116.076 61.4795 116.076Z" fill="#212121"/>
<path d="M33.3218 135.479C33.3218 135.479 41.752 142.026 53.2089 135.874L54.1962 135.147C54.1962 135.147 52.53 138.898 52.3754 139.915C52.1962 141.094 47.8581 148.001 47.1502 148.332C46.4423 148.663 46.2863 148.968 46.2863 148.968L49.2905 152.277L50.4012 151.459C50.4012 151.459 54.7323 145.319 55.9991 144.195C57.2658 143.072 63.3013 131.488 63.3013 131.488C63.3013 131.488 65.6088 127.123 59.8499 126.795C54.091 126.467 51.4411 128.038 51.4411 128.038L41.2205 129.662L33.3218 135.479Z" fill="#212121"/>
<path d="M74.2207 133.918L78.4847 136.87C78.4847 136.87 83.9246 138.576 80.5736 139.711C77.2227 140.846 68.3923 141.256 68.1919 139.69C67.9916 138.124 68.5402 135.66 68.9808 135.794C69.4213 135.929 72.4789 136.724 74.2207 133.918Z" fill="#212121"/>
<path d="M50.7787 150.445L51.5679 154.781C51.5679 154.781 53.812 159.076 51.1176 157.744C48.4231 156.411 42.8719 151.349 43.6916 150.288C44.5114 149.227 46.3206 148.076 46.5044 148.422C46.6881 148.768 48.048 151.083 50.7787 150.445Z" fill="#212121"/>
<path d="M42.648 131.086C42.648 131.086 36.9174 137.781 33.4382 136.155C29.9591 134.529 15.7252 115.691 17.3504 112.21C18.9757 108.729 19.5207 109.47 19.5207 109.47L26.8701 110.15L24.7555 106.757C24.7555 106.757 25.7428 106.03 26.6836 107.05C27.6245 108.071 31.4017 110.62 32.7176 114.22C34.0335 117.82 37.8968 117.641 37.8968 117.641L42.648 131.086Z" fill="white"/>
<path d="M65.7901 117.281L55.8563 127.832L46.9575 112.111L55.4173 101.883L65.7901 117.281Z" fill="#125386"/>
<path d="M65.0403 117.166L56.0682 126.438L47.938 112.149L55.3941 102.756L65.0403 117.166Z" fill="white"/>
<path d="M55.3697 127.43L55.8564 127.833L55.5443 128.443L41.6538 132.58L41.5225 132.104L42.1544 131.45L55.3697 127.43Z" fill="#1769AA"/>
<path d="M55.9795 127.742L41.5955 132.243L32.8271 115.663L46.9574 112.111L55.9795 127.742Z" fill="#A0D2FA"/>
<path d="M54.8969 125.494L54.2798 125.948L47.4307 114.048L48.1385 113.717L54.8969 125.494Z" fill="#125386"/>
<path d="M53.4809 126.155L47.3962 127.97L40.4888 115.732L46.5084 114.346L53.4809 126.155Z" fill="#125386"/>
<path d="M36.339 117.074L37.5988 116.717C37.5988 116.717 44.6245 115.922 44.7271 118.131C44.8296 120.341 36.6558 119.316 36.6558 119.316L35.5659 117.834L36.339 117.074Z" fill="#FBBEBE"/>
<path d="M42.5013 127.005L44.2548 126.285C44.2548 126.285 49.5478 123.91 48.0294 122.363C46.511 120.816 41.8282 123.503 41.8282 123.503L40.9316 124.353L42.5013 127.005Z" fill="#FBBEBE"/>
<path d="M40.9383 123.586C40.9383 123.586 43.7934 126.434 43.1438 127.102C42.4941 127.771 31.8407 136.568 29.1998 133.754C26.5589 130.939 13.6922 116.806 18.6988 115.594C23.7055 114.382 25.0283 117.216 25.0283 117.216L31.6377 128.531L40.9383 123.586Z" fill="white"/>
<path d="M32.3892 114.938L37.0792 116.529L37.0027 119.917L32.0425 119.381L32.3892 114.938Z" fill="white"/>
<path opacity="0.2" d="M36.6164 125.341L31.5634 128.301L25.79 119.416L31.3629 126.735L36.6164 125.341Z" fill="#212121"/>
<path d="M18.7003 107.131C22.9318 107.131 26.3621 103.698 26.3621 99.4637C26.3621 95.2294 22.9318 91.7969 18.7003 91.7969C14.4689 91.7969 11.0386 95.2294 11.0386 99.4637C11.0386 103.698 14.4689 107.131 18.7003 107.131Z" fill="#212121"/>
<path d="M60.0986 117.949L54.7339 110.096L57.008 107.279L62.5825 115.359L60.0986 117.949Z" fill="#2196F3"/>
<path d="M59.9476 121.107L51.7803 109.225L52.1831 108.738L60.3122 120.648L59.9476 121.107Z" fill="#BDBDBD"/>
<path d="M58.8948 122.263L50.7275 110.382L51.1304 109.895L59.2595 121.804L58.8948 122.263Z" fill="#BDBDBD"/>
<path d="M57.9984 123.113L49.8311 111.231L50.2339 110.744L58.363 122.654L57.9984 123.113Z" fill="#BDBDBD"/>
<path d="M22.0933 94.3438H24.4634C25.6635 94.3437 26.8144 94.8208 27.663 95.6699C28.5115 96.5191 28.9882 97.6707 28.9882 98.8716V98.8716H22.0933V94.3438Z" fill="#212121"/>
<path d="M54.7419 91.4636L54.3122 91.4316C54.2956 91.6552 54.2836 91.8801 54.2695 92.1044L52.3408 92.0398L54.3639 95.8334L56.636 92.1837L54.7003 92.1188C54.7141 91.9004 54.7257 91.6814 54.7419 91.4636Z" fill="#125386"/>
<path d="M66.0542 60.5404L66.3968 60.8021C66.9106 60.1286 67.4473 59.4563 67.992 58.8038L67.6612 58.5273C67.1125 59.1847 66.5718 59.862 66.0542 60.5404Z" fill="#125386"/>
<path d="M69.355 56.5878L69.6731 56.8786C70.2448 56.2521 70.8384 55.6299 71.4372 55.0291L71.1321 54.7246C70.5288 55.3297 69.9309 55.9567 69.355 56.5878Z" fill="#125386"/>
<path d="M72.9893 52.9413L73.2807 53.259C73.9059 52.6845 74.5515 52.117 75.1994 51.5723L74.9223 51.2422C74.2695 51.7909 73.6191 52.3627 72.9893 52.9413Z" fill="#125386"/>
<path d="M63.1128 64.7711L63.477 65.0014C63.9299 64.2843 64.4056 63.5671 64.8906 62.8694L64.5369 62.623C64.0482 63.326 63.5691 64.0486 63.1128 64.7711Z" fill="#125386"/>
<path d="M76.9277 49.6295L77.1901 49.9715C77.8635 49.4541 78.5562 48.9459 79.249 48.4607L79.0019 48.1074C78.3039 48.5962 77.606 49.1083 76.9277 49.6295Z" fill="#1769AA"/>
<path d="M60.5557 69.2472L60.9388 69.4443C61.3271 68.6888 61.7376 67.9319 62.1589 67.1946L61.7848 66.9805C61.3603 67.7233 60.9467 68.486 60.5557 69.2472Z" fill="#125386"/>
<path d="M56.3993 81.3848L55.982 81.2773C55.7691 82.1047 55.5719 82.9484 55.396 83.7852L55.8177 83.874C55.9923 83.0436 56.188 82.206 56.3993 81.3848Z" fill="#125386"/>
<path d="M81.1401 46.6783L81.3714 47.0422C82.0857 46.5874 82.82 46.1423 83.5541 45.7194L83.3391 45.3457C82.5995 45.7719 81.8597 46.2201 81.1401 46.6783Z" fill="#1769AA"/>
<path d="M55.3468 86.3863L54.9216 86.3164C54.7833 87.1582 54.6618 88.016 54.5605 88.8661L54.9884 88.917C55.0889 88.0735 55.2095 87.222 55.3468 86.3863Z" fill="#125386"/>
<path d="M58.4048 73.9345L58.8039 74.0969C59.1235 73.3099 59.4653 72.5191 59.8198 71.7464L59.4283 71.5664C59.071 72.3449 58.7266 73.1417 58.4048 73.9345Z" fill="#125386"/>
<path d="M56.6787 78.7972L57.0909 78.9231C57.3394 78.1094 57.6095 77.2908 57.8937 76.4899L57.4876 76.3457C57.2013 77.1524 56.9291 77.9773 56.6787 78.7972Z" fill="#125386"/>
<path d="M110.291 38.0838C111.136 38.0546 111.996 38.0429 112.847 38.0509L112.851 37.6196C111.994 37.6116 111.127 37.6233 110.276 37.6528L110.291 38.0838Z" fill="#1769AA"/>
<path d="M85.5947 44.1126L85.7929 44.4954C86.5455 44.1053 87.3158 43.7272 88.0828 43.3717L87.9016 42.9805C87.129 43.3386 86.3529 43.7195 85.5947 44.1126Z" fill="#1769AA"/>
<path d="M120.488 38.6223C121.329 38.7414 122.177 38.8808 123.01 39.0367L123.089 38.6128C122.25 38.4558 121.396 38.3152 120.548 38.1953L120.488 38.6223Z" fill="#1769AA"/>
<path d="M125.511 39.5624C126.336 39.7553 127.169 39.9697 127.986 40.1995L128.102 39.7843C127.279 39.5527 126.44 39.3369 125.609 39.1426L125.511 39.5624Z" fill="#1769AA"/>
<path d="M130.429 40.9466C131.234 41.2123 132.044 41.4999 132.837 41.8016L132.991 41.3986C132.191 41.0946 131.375 40.8047 130.564 40.5371L130.429 40.9466Z" fill="#1769AA"/>
<path d="M115.402 38.1298C116.25 38.1743 117.108 38.2383 117.951 38.3198L117.992 37.8907C117.143 37.8085 116.279 37.7441 115.425 37.6992L115.402 38.1298Z" fill="#1769AA"/>
<path d="M105.146 38.0569L105.199 38.4849C106.038 38.3815 106.894 38.2953 107.74 38.2288L107.706 37.7988C106.853 37.8659 105.992 37.9527 105.146 38.0569Z" fill="#1769AA"/>
<path d="M95.0928 40.2147L95.2203 40.6265C96.0301 40.3756 96.8565 40.1396 97.6767 39.9249L97.5677 39.5078C96.7414 39.7239 95.9087 39.9618 95.0928 40.2147Z" fill="#1769AA"/>
<path d="M90.2554 41.9515L90.419 42.3506C91.2025 42.0288 92.0028 41.7209 92.7978 41.435L92.6521 41.0293C91.8511 41.3171 91.0448 41.6275 90.2554 41.9515Z" fill="#1769AA"/>
<path d="M100.072 38.9115L100.162 39.3332C100.99 39.1556 101.834 38.994 102.671 38.8531L102.6 38.4277C101.756 38.5699 100.906 38.7326 100.072 38.9115Z" fill="#1769AA"/>
<path d="M139.268 44.4675L136.859 40.9062L136.013 42.6504C135.808 42.5588 135.604 42.4652 135.399 42.3765L135.228 42.7724C135.428 42.859 135.625 42.9497 135.824 43.0385L134.981 44.7744L139.268 44.4675Z" fill="#1769AA"/>
</g>
<defs>
<clipPath id="clip0">
<rect width="210" height="157.5" fill="white" transform="translate(0 0.5)"/>
</clipPath>
</defs>
</svg>
