<svg width="210" height="158" viewBox="0 0 210 158" fill="none" xmlns="http://www.w3.org/2000/svg">
<g clip-path="url(#clip0)">
<path d="M49.3725 108.108C47.76 108.102 46.1545 107.893 44.5936 107.486L44.286 107.401L44.0006 107.257C33.6831 102.057 24.9787 95.1894 18.1293 86.8437C12.4595 79.8948 8.03899 72.005 5.06666 63.5291C1.51221 53.3813 -0.197822 42.6739 0.0181832 31.9178C0.0225418 31.692 0.0262305 31.5176 0.0262305 31.3975C0.0262305 26.1689 2.91366 21.5812 7.38227 19.7097C10.8023 18.2773 41.8548 5.45722 44.0985 4.53093C48.3238 2.40287 52.8315 4.17907 53.5529 4.48968C55.1709 5.15462 83.877 16.9562 90.0804 19.9253C96.4736 22.9853 98.1794 28.4825 98.1794 31.2483C98.1794 43.7697 96.0219 55.472 91.7668 66.0301C88.3304 74.5761 83.46 82.4658 77.3676 89.3553C65.6131 102.651 53.8555 107.365 53.742 107.406C52.3368 107.892 50.8584 108.13 49.3725 108.108ZM46.6075 101.223C47.6269 101.453 49.9738 101.798 51.5034 101.237C53.4466 100.524 63.2876 95.395 72.4836 84.993C85.1894 70.6211 91.6363 52.5543 91.6458 31.2945C91.6231 30.8638 91.3188 27.7918 87.2714 25.8547C81.1883 22.943 51.3507 10.6797 51.05 10.5561L50.9676 10.521C50.3423 10.2576 48.3523 9.70285 46.9806 10.4254L46.7059 10.5541C46.3733 10.6914 13.4107 24.2995 9.89525 25.7718C7.43608 26.8017 6.55988 29.3532 6.55988 31.3976C6.55988 31.547 6.55603 31.7643 6.5506 32.0452C6.26964 46.5919 9.61861 82.3869 46.6075 101.223Z" fill="#125386"/>
<path d="M45.4647 7.5168C45.4647 7.5168 12.2025 21.2483 8.63873 22.7409C5.07492 24.2335 3.29302 27.8156 3.29302 31.3977C3.29302 34.9799 0.620167 81.722 45.4647 104.322C45.4647 104.322 49.5348 105.454 52.6227 104.322C55.7107 103.19 94.9126 84.085 94.9126 31.2485C94.9126 31.2485 94.9125 25.8753 88.6759 22.8902C82.4392 19.905 52.286 7.5168 52.286 7.5168C52.286 7.5168 48.5831 5.87499 45.4647 7.5168Z" fill="#2196F3"/>
<path opacity="0.1" d="M49.029 18.2637V91.5165C49.029 91.5165 15.4696 75.2794 15.7666 32.5922L49.029 18.2637Z" fill="#212121"/>
<path d="M49.4667 70.9113L38.7764 57.0953L44.9933 52.2352L50.0551 58.7768L67.1549 40.6328L72.8732 46.0784L49.4667 70.9113Z" fill="white"/>
<path d="M209.743 154H112.06C111.992 154 111.927 153.973 111.879 153.924C111.831 153.876 111.804 153.81 111.804 153.742C111.804 153.674 111.831 153.608 111.879 153.56C111.927 153.512 111.992 153.484 112.06 153.484H209.743C209.811 153.484 209.877 153.512 209.925 153.56C209.973 153.608 210 153.674 210 153.742C210 153.81 209.973 153.876 209.925 153.924C209.877 153.973 209.811 154 209.743 154Z" fill="#BDBDBD"/>
<path d="M140.298 149.938L144.263 149.937L146.149 134.564L140.297 134.565L140.298 149.938Z" fill="#FFB8B8"/>
<path d="M139.286 148.637L147.095 148.637H147.095C148.415 148.637 149.681 149.164 150.614 150.102C151.547 151.04 152.072 152.312 152.072 153.639V153.801L139.286 153.802L139.286 148.637Z" fill="#263238"/>
<path d="M153.63 149.938L157.595 149.937L159.481 134.564L153.629 134.565L153.63 149.938Z" fill="#FFB8B8"/>
<path d="M152.618 148.637L160.427 148.637H160.427C161.747 148.637 163.013 149.164 163.946 150.102C164.88 151.04 165.404 152.312 165.404 153.639V153.801L152.618 153.802L152.618 148.637Z" fill="#263238"/>
<path d="M146.53 95.9518L147.481 144.723L139.787 144.243L134.449 113.179L132.763 91.998L146.53 95.9518Z" fill="#263238"/>
<path d="M159.735 87.7622L160.813 145.496L151.84 145.238L149.901 110.919L146.53 98.4936L132.763 91.9982L135.01 76.466L155.24 76.1836L159.735 87.7622Z" fill="#263238"/>
<path d="M144.264 36.0827C148.064 36.0827 151.145 32.9862 151.145 29.1664C151.145 25.3466 148.064 22.25 144.264 22.25C140.464 22.25 137.383 25.3466 137.383 29.1664C137.383 32.9862 140.464 36.0827 144.264 36.0827Z" fill="#FFB8B8"/>
<path d="M149.971 38.9961L151.025 40.6011L153.835 48.5083L151.587 79.2902L138.382 79.5729L136.696 44.2721L140.228 39.8354L149.971 38.9961Z" fill="#BDBDBD"/>
<path d="M131.358 45.1183L129.111 44.8359C129.111 44.8359 128.549 45.1183 128.268 47.0952C127.987 49.072 124.615 66.5811 124.615 66.5811L129.111 88.0438L134.168 81.2661L131.077 69.4051L134.168 57.5441L131.358 45.1183Z" fill="#263238"/>
<path d="M160.016 44.8379H161.702L165.916 67.7123L161.983 85.5038L158.049 79.0086L159.173 71.9485L158.611 65.7357L156.645 62.0642L160.016 44.8379Z" fill="#263238"/>
<path d="M148.33 29.1662L147.079 28.8518C147.079 28.8518 146.141 23.5074 143.951 24.1361C141.762 24.7649 136.132 25.3937 136.132 22.8786C136.132 20.3636 141.449 18.1629 144.577 18.4773C147.704 18.7917 151.699 19.8346 152.709 24.4505C154.328 31.85 149.369 33.719 149.369 33.719L149.452 33.4496C149.681 32.7015 149.697 31.904 149.499 31.1471C149.301 30.3901 148.896 29.704 148.33 29.1662V29.1662Z" fill="#263238"/>
<path d="M129.391 44.8373L138.382 41.1661L140.489 39.6129L146.811 67.7121L149.761 38.7656L161.421 44.8373L157.487 64.0408L156.925 71.3833L158.611 77.3138C158.611 77.3138 164.511 81.5499 162.544 86.0683C160.578 90.5868 158.33 90.8692 158.33 90.8692C158.33 90.8692 148.777 81.8323 148.215 79.573C147.654 77.3138 146.811 73.3601 146.811 73.3601C146.811 73.3601 142.034 91.434 136.415 91.1516C130.796 90.8692 130.796 84.9387 130.796 84.9387L132.201 78.7258L134.448 72.2305L133.325 61.4992L129.391 44.8373Z" fill="#263238"/>
</g>
<defs>
<clipPath id="clip0">
<rect width="210" height="157.5" fill="white"/>
</clipPath>
</defs>
</svg>
