<svg width="122" height="92" viewBox="0 0 122 92" fill="none" xmlns="http://www.w3.org/2000/svg">
<g clip-path="url(#clip0)">
<path d="M20.2034 66.3444H11.0652C10.8178 66.3442 10.5805 66.2452 10.4055 66.0693C10.2306 65.8934 10.1321 65.6548 10.1318 65.406V35.1318C10.1321 34.883 10.2306 34.6444 10.4055 34.4685C10.5805 34.2926 10.8178 34.1936 11.0652 34.1934H20.2034C20.4509 34.1936 20.6881 34.2926 20.8631 34.4685C21.038 34.6444 21.1365 34.883 21.1368 35.1318V65.406C21.1365 65.6548 21.038 65.8934 20.8631 66.0693C20.6881 66.2452 20.4509 66.3442 20.2034 66.3444V66.3444Z" fill="#2196F3"/>
<path d="M36.8684 66.3442H27.7303C27.4828 66.344 27.2456 66.245 27.0706 66.0691C26.8956 65.8932 26.7972 65.6546 26.7969 65.4058V23.1181C26.7972 22.8693 26.8956 22.6308 27.0706 22.4548C27.2456 22.2789 27.4828 22.18 27.7303 22.1797H36.8684C37.1159 22.18 37.3531 22.2789 37.5281 22.4548C37.7031 22.6308 37.8015 22.8693 37.8018 23.1181V65.4058C37.8015 65.6546 37.7031 65.8932 37.5281 66.0691C37.3531 66.245 37.1159 66.344 36.8684 66.3442V66.3442Z" fill="#2196F3"/>
<path d="M53.5335 66.3444H44.3953C44.1478 66.3442 43.9106 66.2452 43.7356 66.0693C43.5606 65.8934 43.4622 65.6548 43.4619 65.406V35.1318C43.4622 34.883 43.5606 34.6444 43.7356 34.4685C43.9106 34.2926 44.1478 34.1936 44.3953 34.1934H53.5335C53.7809 34.1936 54.0182 34.2926 54.1932 34.4685C54.3681 34.6444 54.4666 34.883 54.4669 35.1318V65.406C54.4666 65.6548 54.3681 65.8934 54.1932 66.0693C54.0182 66.2452 53.7809 66.3442 53.5335 66.3444V66.3444Z" fill="#2196F3"/>
<path d="M70.1976 66.3445H61.0594C60.8175 66.3497 60.5835 66.2583 60.4086 66.0904C60.2336 65.9225 60.132 65.6917 60.126 65.4486V18.3336C60.132 18.0905 60.2336 17.8597 60.4086 17.6918C60.5835 17.5238 60.8175 17.4325 61.0594 17.4377H70.1976C70.4394 17.4325 70.6734 17.5238 70.8483 17.6918C71.0233 17.8597 71.1249 18.0905 71.1309 18.3336V65.4486C71.1249 65.6917 71.0233 65.9225 70.8483 66.0904C70.6734 66.2583 70.4394 66.3497 70.1976 66.3445Z" fill="#2196F3"/>
<path d="M86.8626 66.344H77.7244C77.4769 66.3438 77.2397 66.2448 77.0647 66.0689C76.8897 65.893 76.7913 65.6544 76.791 65.4056V9.83977C76.7913 9.59097 76.8897 9.35244 77.0647 9.17652C77.2397 9.0006 77.4769 8.90164 77.7244 8.90137H86.8626C87.11 8.90164 87.3473 9.0006 87.5223 9.17652C87.6972 9.35244 87.7957 9.59097 87.796 9.83977V65.4056C87.7957 65.6544 87.6972 65.893 87.5223 66.0689C87.3473 66.2448 87.11 66.3438 86.8626 66.344V66.344Z" fill="#2196F3"/>
<path d="M15.6346 30.3992C16.6765 30.3992 17.5212 29.5499 17.5212 28.5023C17.5212 27.4547 16.6765 26.6055 15.6346 26.6055C14.5927 26.6055 13.748 27.4547 13.748 28.5023C13.748 29.5499 14.5927 30.3992 15.6346 30.3992Z" fill="#1769AA"/>
<path d="M32.2997 18.0701C33.3416 18.0701 34.1862 17.2208 34.1862 16.1732C34.1862 15.1256 33.3416 14.2764 32.2997 14.2764C31.2577 14.2764 30.4131 15.1256 30.4131 16.1732C30.4131 17.2208 31.2577 18.0701 32.2997 18.0701Z" fill="#1769AA"/>
<path d="M48.9637 30.3992C50.0056 30.3992 50.8503 29.5499 50.8503 28.5023C50.8503 27.4547 50.0056 26.6055 48.9637 26.6055C47.9218 26.6055 47.0771 27.4547 47.0771 28.5023C47.0771 29.5499 47.9218 30.3992 48.9637 30.3992Z" fill="#1769AA"/>
<path d="M65.6288 12.0633C66.6707 12.0633 67.5153 11.214 67.5153 10.1664C67.5153 9.11879 66.6707 8.26953 65.6288 8.26953C64.5868 8.26953 63.7422 9.11879 63.7422 10.1664C63.7422 11.214 64.5868 12.0633 65.6288 12.0633Z" fill="#1769AA"/>
<path d="M82.2928 5.1082C83.3347 5.1082 84.1794 4.25894 84.1794 3.21132C84.1794 2.16371 83.3347 1.31445 82.2928 1.31445C81.2509 1.31445 80.4062 2.16371 80.4062 3.21132C80.4062 4.25894 81.2509 5.1082 82.2928 5.1082Z" fill="#1769AA"/>
<path d="M97.5706 66.6963H0.147165C0.108135 66.6963 0.0707024 66.6807 0.0431036 66.653C0.0155048 66.6252 0 66.5876 0 66.5483C0 66.5091 0.0155048 66.4715 0.0431036 66.4437C0.0707024 66.416 0.108135 66.4004 0.147165 66.4004H97.5706C97.6096 66.4004 97.647 66.416 97.6746 66.4437C97.7022 66.4715 97.7177 66.5091 97.7177 66.5483C97.7177 66.5876 97.7022 66.6252 97.6746 66.653C97.647 66.6807 97.6096 66.6963 97.5706 66.6963Z" fill="#BDBDBD"/>
<path d="M121.853 91.9991H74.1716C74.1325 91.9991 74.0951 91.9835 74.0675 91.9557C74.0399 91.928 74.0244 91.8903 74.0244 91.8511C74.0244 91.8118 74.0399 91.7742 74.0675 91.7465C74.0951 91.7187 74.1325 91.7031 74.1716 91.7031H121.853C121.892 91.7031 121.93 91.7187 121.957 91.7465C121.985 91.7742 122 91.8118 122 91.8511C122 91.8903 121.985 91.928 121.957 91.9557C121.93 91.9835 121.892 91.9991 121.853 91.9991Z" fill="#BDBDBD"/>
<path d="M91.2334 64.2914C91.3544 64.1705 91.4475 64.0243 91.5063 63.8633C91.5651 63.7023 91.588 63.5302 91.5735 63.3593C91.559 63.1884 91.5074 63.0227 91.4223 62.874C91.3372 62.7253 91.2208 62.5972 91.0811 62.4987L91.6597 59.8811L90.1635 59.1396L89.398 62.8476C89.2489 63.0945 89.195 63.3878 89.2466 63.6719C89.2982 63.956 89.4517 64.2112 89.6779 64.3892C89.9041 64.5671 90.1874 64.6555 90.4741 64.6375C90.7608 64.6194 91.0309 64.4963 91.2334 64.2914V64.2914Z" fill="#FFB7B7"/>
<path d="M107.596 64.349C107.707 64.219 107.789 64.0661 107.835 63.9009C107.881 63.7358 107.891 63.5625 107.863 63.3932C107.835 63.2239 107.771 63.0628 107.675 62.9212C107.579 62.7795 107.453 62.6608 107.306 62.5735L107.681 59.9188L106.133 59.2959L105.655 63.0523C105.525 63.31 105.494 63.6066 105.567 63.8859C105.64 64.1651 105.813 64.4076 106.052 64.5675C106.292 64.7273 106.581 64.7933 106.865 64.753C107.15 64.7128 107.41 64.569 107.596 64.349L107.596 64.349Z" fill="#FFB7B7"/>
<path d="M95.9313 90.4038L94.4055 90.4036L93.6797 84.4863L95.9316 84.4865L95.9313 90.4038Z" fill="#FFB7B7"/>
<path d="M96.3202 91.8904L91.4004 91.8902V91.8277C91.4004 91.317 91.6022 90.8274 91.9613 90.4663C92.3204 90.1052 92.8075 89.9024 93.3153 89.9023H93.3154L96.3203 89.9025L96.3202 91.8904Z" fill="#263238"/>
<path d="M101.034 90.4038L99.5081 90.4036L98.7822 84.4863L101.034 84.4865L101.034 90.4038Z" fill="#FFB7B7"/>
<path d="M101.424 91.8904L96.5039 91.8902V91.8277C96.5039 91.317 96.7057 90.8274 97.0648 90.4663C97.4239 90.1052 97.911 89.9024 98.4188 89.9023H98.4189L101.424 89.9025L101.424 91.8904Z" fill="#263238"/>
<path d="M104.107 40.6194L105.752 40.0225C105.752 40.0225 106.45 40.1716 106.45 42.0757C106.45 43.9798 108.305 61.7382 108.305 61.7382L105.059 62.5975L103.225 45.7492L104.107 40.6194Z" fill="#263238"/>
<path d="M93.1122 40.6194L91.467 40.0225C91.467 40.0225 90.7686 40.1716 90.7686 42.0757C90.7686 43.9798 88.9141 61.7382 88.9141 61.7382L92.1597 62.5975L93.9942 45.7492L93.1122 40.6194Z" fill="#263238"/>
<path d="M93.1333 60.8726L92.6836 74.2123L93.6793 88.9684L96.2447 89.028L96.618 75.2631L98.7338 68.3807L98.5203 88.6662L101.425 88.6313L103.224 74.675C103.224 74.675 105.6 63.125 104.283 60.8726L98.2149 58.8438L93.1333 60.8726Z" fill="#263238"/>
<path d="M93.1826 59.2653L93.0361 62.4742C93.0361 62.4742 95.0834 63.4986 98.682 62.8746C102.281 62.2506 104.673 62.662 104.673 62.662L104.396 58.5713L93.1826 59.2653Z" fill="#F5F5F5"/>
<path d="M91.4014 40.0703L96.1333 37.9855L96.4155 36.8936L101.019 37.0276L101.218 38.1432L105.751 40.0229L103.754 47.0067L103.959 51.9195L106.45 60.8735C106.45 60.8735 104.349 62.6676 99.301 61.8957L98.43 60.1311L97.8972 61.9972C97.8972 61.9972 93.4709 63.6344 92.2442 61.5031L93.1331 46.1076L91.4014 40.0703Z" fill="#263238"/>
<path d="M98.6749 35.8676C100.363 35.8676 101.732 34.4916 101.732 32.7942C101.732 31.0967 100.363 29.7207 98.6749 29.7207C96.9867 29.7207 95.6182 31.0967 95.6182 32.7942C95.6182 34.4916 96.9867 35.8676 98.6749 35.8676Z" fill="#FFB7B7"/>
<path d="M102.307 31.6034C102.253 31.3532 102.148 31.117 101.998 30.9094C101.939 30.3352 101.749 29.7826 101.442 29.2946C101.322 29.0659 101.151 28.8679 100.943 28.7158C100.705 28.5778 100.433 28.5097 100.158 28.5191C100.109 28.5182 100.019 28.5334 99.9383 28.5371C99.8867 28.521 99.8346 28.5067 99.7824 28.4932C99.7519 28.425 99.6914 28.2263 99.6746 28.2398L99.4469 28.4217C99.3506 28.4049 99.2539 28.3918 99.1567 28.3814C99.1214 28.28 99.086 28.1786 99.0507 28.0771C98.9933 28.1679 98.943 28.2629 98.9002 28.3614C98.8035 28.3567 98.7068 28.355 98.61 28.3564L98.4165 28.1695C98.4051 28.2216 98.3788 28.2693 98.3409 28.3066C98.303 28.344 98.255 28.3694 98.203 28.3798C98.1139 28.389 98.0252 28.401 97.9368 28.4153C97.9296 28.4152 97.9223 28.4153 97.9153 28.4151C97.4387 28.4031 96.9259 28.3816 96.5273 28.6447C96.3408 28.7735 96.189 28.9467 96.0855 29.1489C96.0367 29.1823 95.9878 29.2154 95.9404 29.2507C95.7805 29.3604 95.642 29.4985 95.5316 29.6582C95.4513 29.796 95.3904 29.9443 95.3507 30.0989C95.1986 30.5642 95.1281 31.0526 95.1424 31.5422C95.1587 32.0351 95.3437 32.5073 95.6661 32.879C95.8705 33.0998 96.1304 33.2628 96.335 33.4834C96.7565 33.9375 96.8355 34.5709 97.1959 35.0514C97.5772 35.5597 98.2731 35.8941 98.8842 35.99C99.2517 36.0456 99.6264 36.0278 99.9869 35.9374C100.347 35.8469 100.687 35.6858 100.985 35.4631C101.128 35.3629 101.25 35.2346 101.343 35.0861C101.555 34.7172 101.465 34.2535 101.544 33.8348C101.691 33.05 102.436 32.3915 102.307 31.6034Z" fill="#263238"/>
<path d="M15.5341 28.6216L15.3584 28.3843L32.2995 15.7029L48.9102 28.1604L65.7482 9.77907L65.7784 9.76664L82.1196 2.98535L82.2319 3.25895L65.9207 10.0277L48.9468 28.5571L32.2993 16.0719L15.5341 28.6216Z" fill="#1769AA"/>
</g>
<defs>
<clipPath id="clip0">
<rect width="122" height="92" fill="white"/>
</clipPath>
</defs>
</svg>
