<svg width="101" height="92" viewBox="0 0 101 92" fill="none" xmlns="http://www.w3.org/2000/svg">
<path d="M86.5909 8.45992L2.62012 33.085L4.84426 40.7684L88.8151 16.1434L86.5909 8.45992Z" fill="#263238"/>
<path d="M12.6526 68.3778L0.275937 25.622C0.18418 25.305 0.221293 24.9643 0.379106 24.6748C0.536918 24.3854 0.802505 24.1709 1.11744 24.0785L83.0526 0.0504088C83.3675 -0.0416358 83.7059 -0.00415436 83.9934 0.15463C84.2809 0.313414 84.494 0.580527 84.586 0.897335L95.5508 38.7759L95.2115 38.8754L84.2468 0.99685C84.1809 0.770653 84.0286 0.579967 83.8233 0.466566C83.618 0.353166 83.3764 0.326298 83.1514 0.391851L1.21629 24.42C0.991336 24.4859 0.801632 24.6391 0.688909 24.8459C0.576186 25.0527 0.549676 25.296 0.615214 25.5224L12.9918 68.2783L12.6526 68.3778Z" fill="#263238"/>
<path d="M77.416 38.9514C77.1674 38.9511 76.9256 38.8698 76.7267 38.7197C76.5278 38.5696 76.3826 38.3587 76.3128 38.1185L74.2369 30.9473C74.1521 30.653 74.1867 30.3368 74.3332 30.0681C74.4797 29.7994 74.7261 29.6002 75.0183 29.5141L82.1431 27.4247C82.4355 27.3393 82.7497 27.3742 83.0166 27.5217C83.2836 27.6691 83.4815 27.9171 83.567 28.2113L85.6428 35.3825C85.7277 35.6769 85.6931 35.9931 85.5466 36.2617C85.4001 36.5304 85.1537 36.7296 84.8615 36.8157L77.7367 38.9051C77.6325 38.9358 77.5245 38.9513 77.416 38.9514V38.9514Z" fill="#2196F3"/>
<path d="M12.4613 25.7539C12.44 25.6802 12.4146 25.6078 12.3853 25.5369C12.1861 25.0503 11.8153 24.6549 11.344 24.4267C10.8727 24.1986 10.3343 24.1538 9.83226 24.3009C9.33017 24.448 8.89982 24.7767 8.62388 25.2238C8.34795 25.6709 8.24591 26.2049 8.33737 26.7231C8.35022 26.7988 8.36733 26.8736 8.38862 26.9472C8.51765 27.3905 8.78587 27.7798 9.15313 28.0568C9.52038 28.3338 9.96691 28.4836 10.4258 28.4838C10.6262 28.4842 10.8256 28.4555 11.0178 28.3984C11.5572 28.2398 12.0121 27.8723 12.2827 27.3765C12.5533 26.8808 12.6176 26.2972 12.4613 25.7539V25.7539ZM10.9188 28.057C10.469 28.1884 9.98568 28.1349 9.57496 27.9082C9.16424 27.6815 8.85961 27.3001 8.72786 26.8476C8.70717 26.7739 8.69064 26.6991 8.67834 26.6235C8.61206 26.1966 8.70257 25.7599 8.93294 25.3952C9.16332 25.0305 9.51777 24.7628 9.93004 24.6421C10.3423 24.5213 10.7841 24.5559 11.1729 24.7392C11.5617 24.9226 11.8709 25.2422 12.0425 25.6383C12.0745 25.7079 12.1011 25.7798 12.1221 25.8535C12.2525 26.3063 12.199 26.7927 11.9734 27.2058C11.7478 27.6189 11.3685 27.9251 10.9188 28.057V28.057Z" fill="#2196F3"/>
<path d="M7.26046 27.2784C7.14738 26.8876 7.15825 26.4709 7.29153 26.0866C7.42481 25.7022 7.67388 25.3693 8.00404 25.1342C7.69472 25.119 7.38628 25.1784 7.1044 25.3075C6.82253 25.4366 6.57539 25.6317 6.38357 25.8764C6.19174 26.1211 6.06079 26.4084 6.00162 26.7143C5.94245 27.0203 5.95679 27.3361 6.04341 27.6353C6.13004 27.9346 6.28646 28.2087 6.49964 28.4348C6.71283 28.6609 6.9766 28.8324 7.269 28.9351C7.56139 29.0378 7.87393 29.0687 8.18058 29.0252C8.48724 28.9818 8.77914 28.8651 9.03196 28.6851C8.62798 28.6653 8.24022 28.5191 7.92268 28.2669C7.60515 28.0148 7.37366 27.6692 7.26046 27.2784V27.2784Z" fill="#2196F3"/>
<path d="M62.1872 36.0924C62.1496 35.9563 62.0857 35.829 61.9991 35.7177C61.9126 35.6065 61.8052 35.5136 61.6829 35.4442C61.5606 35.3748 61.426 35.3304 61.2867 35.3134C61.1473 35.2965 61.006 35.3073 60.8709 35.3454L49.1403 38.6479L47.877 39.0036H55.8104L57.0737 38.6479L61.4468 37.4173C61.7195 37.3402 61.9505 37.1574 62.0893 36.909C62.2281 36.6606 62.2633 36.3669 62.1872 36.0924V36.0924Z" fill="#BDBDBD"/>
<path d="M53.8878 33.6258C53.8113 33.3513 53.6297 33.1186 53.3829 32.9789C53.136 32.8391 52.8441 32.8038 52.5714 32.8806L34.9694 37.8353C34.7235 37.9054 34.5105 38.0617 34.3689 38.276C34.2273 38.4902 34.1665 38.7483 34.1973 39.0037H38.7541L40.0192 38.648L53.1474 34.9525C53.4202 34.8751 53.6514 34.692 53.7902 34.4433C53.929 34.1945 53.9641 33.9005 53.8878 33.6258V33.6258Z" fill="#BDBDBD"/>
<path d="M99.203 38.6475H13.8609C13.5329 38.6478 13.2186 38.7791 12.9867 39.0125C12.7548 39.2459 12.6244 39.5623 12.624 39.8924V90.7555C12.6244 91.0856 12.7548 91.402 12.9867 91.6354C13.2186 91.8688 13.5329 92.0001 13.8609 92.0004H99.203C99.5309 92.0001 99.8453 91.8688 100.077 91.6354C100.309 91.402 100.439 91.0856 100.44 90.7555V39.8924C100.439 39.5623 100.309 39.2459 100.077 39.0125C99.8453 38.7791 99.5309 38.6478 99.203 38.6475V38.6475ZM100.086 90.7555C100.086 90.9913 99.9933 91.2174 99.8276 91.3842C99.662 91.5509 99.4373 91.6446 99.203 91.6447H13.8609C13.6266 91.6447 13.4019 91.5509 13.2363 91.3842C13.0706 91.2174 12.9775 90.9913 12.9774 90.7555V39.8924C12.9775 39.6566 13.0706 39.4304 13.2363 39.2637C13.4019 39.097 13.6266 39.0032 13.8609 39.0031H99.203C99.4373 39.0032 99.662 39.097 99.8276 39.2637C99.9933 39.4304 100.086 39.6566 100.086 39.8924V90.7555Z" fill="#263238"/>
<path d="M22.1652 45.5837C21.7459 45.5837 21.3359 45.4585 20.9872 45.224C20.6386 44.9895 20.3668 44.6562 20.2063 44.2662C20.0458 43.8763 20.0039 43.4472 20.0857 43.0332C20.1675 42.6192 20.3694 42.239 20.6659 41.9405C20.9625 41.642 21.3403 41.4388 21.7516 41.3564C22.1629 41.2741 22.5892 41.3164 22.9766 41.4779C23.3641 41.6394 23.6952 41.9129 23.9282 42.2639C24.1612 42.6148 24.2855 43.0275 24.2855 43.4495C24.2849 44.0154 24.0613 44.5578 23.6638 44.9579C23.2663 45.358 22.7274 45.583 22.1652 45.5837V45.5837ZM22.1652 41.6711C21.8158 41.6711 21.4741 41.7754 21.1836 41.9708C20.893 42.1663 20.6665 42.444 20.5328 42.769C20.3991 43.0939 20.3641 43.4515 20.4323 43.7965C20.5004 44.1415 20.6687 44.4584 20.9158 44.7071C21.1629 44.9558 21.4778 45.1252 21.8205 45.1938C22.1633 45.2624 22.5185 45.2272 22.8414 45.0926C23.1643 44.958 23.4402 44.7301 23.6344 44.4376C23.8285 44.1451 23.9321 43.8013 23.9321 43.4495C23.9316 42.978 23.7453 42.526 23.414 42.1926C23.0828 41.8592 22.6337 41.6716 22.1652 41.6711V41.6711Z" fill="#2196F3"/>
<path d="M18.8692 43.4494C18.8693 43.0423 18.9955 42.6454 19.2303 42.3139C19.4651 41.9824 19.7967 41.7329 20.179 41.6001C19.8863 41.4985 19.5736 41.4687 19.2671 41.5133C18.9606 41.5579 18.6692 41.6755 18.417 41.8565C18.1648 42.0374 17.9592 42.2764 17.8174 42.5535C17.6756 42.8305 17.6016 43.1377 17.6016 43.4494C17.6016 43.7611 17.6756 44.0683 17.8174 44.3454C17.9592 44.6225 18.1648 44.8615 18.417 45.0424C18.6692 45.2233 18.9606 45.341 19.2671 45.3856C19.5736 45.4302 19.8863 45.4004 20.179 45.2988C19.7967 45.1659 19.4651 44.9164 19.2303 44.5849C18.9955 44.2535 18.8693 43.8565 18.8692 43.4494V43.4494Z" fill="#2196F3"/>
<path d="M30.7602 68.6641C30.3385 68.6636 29.9343 68.4948 29.6362 68.1947C29.3381 67.8947 29.1704 67.4878 29.1699 67.0635V62.2617C29.1699 61.8372 29.3375 61.4301 29.6357 61.1299C29.9339 60.8298 30.3384 60.6611 30.7602 60.6611C31.1819 60.6611 31.5864 60.8298 31.8846 61.1299C32.1828 61.4301 32.3504 61.8372 32.3504 62.2617V67.0635C32.3499 67.4878 32.1822 67.8947 31.8841 68.1947C31.586 68.4948 31.1818 68.6636 30.7602 68.6641V68.6641Z" fill="#2196F3"/>
<path d="M35.0004 68.6641C34.5788 68.6636 34.1746 68.4948 33.8764 68.1947C33.5783 67.8947 33.4106 67.4878 33.4102 67.0635V62.2617C33.4102 61.8372 33.5777 61.4301 33.8759 61.1299C34.1741 60.8298 34.5786 60.6611 35.0004 60.6611C35.4221 60.6611 35.8266 60.8298 36.1248 61.1299C36.423 61.4301 36.5906 61.8372 36.5906 62.2617V67.0635C36.5901 67.4878 36.4224 67.8947 36.1243 68.1947C35.8262 68.4948 35.422 68.6636 35.0004 68.6641V68.6641Z" fill="#2196F3"/>
<path d="M39.2416 68.6641C38.82 68.6636 38.4158 68.4948 38.1177 68.1947C37.8196 67.8947 37.6518 67.4878 37.6514 67.0635V62.2617C37.6514 61.8372 37.8189 61.4301 38.1171 61.1299C38.4154 60.8298 38.8198 60.6611 39.2416 60.6611C39.6634 60.6611 40.0678 60.8298 40.3661 61.1299C40.6643 61.4301 40.8318 61.8372 40.8318 62.2617V67.0635C40.8313 67.4878 40.6636 67.8947 40.3655 68.1947C40.0674 68.4948 39.6632 68.6636 39.2416 68.6641V68.6641Z" fill="#2196F3"/>
<path d="M45.7787 68.6641C45.3571 68.6636 44.9529 68.4948 44.6548 68.1947C44.3567 67.8947 44.189 67.4878 44.1885 67.0635V62.2617C44.1885 61.8372 44.356 61.4301 44.6542 61.1299C44.9525 60.8298 45.3569 60.6611 45.7787 60.6611C46.2005 60.6611 46.6049 60.8298 46.9032 61.1299C47.2014 61.4301 47.3689 61.8372 47.3689 62.2617V67.0635C47.3684 67.4878 47.2007 67.8947 46.9026 68.1947C46.6045 68.4948 46.2003 68.6636 45.7787 68.6641V68.6641Z" fill="#2196F3"/>
<path d="M50.0189 68.6641C49.5973 68.6636 49.1931 68.4948 48.895 68.1947C48.5969 67.8947 48.4292 67.4878 48.4287 67.0635V62.2617C48.4287 61.8372 48.5963 61.4301 48.8945 61.1299C49.1927 60.8298 49.5972 60.6611 50.0189 60.6611C50.4407 60.6611 50.8452 60.8298 51.1434 61.1299C51.4416 61.4301 51.6092 61.8372 51.6092 62.2617V67.0635C51.6087 67.4878 51.441 67.8947 51.1429 68.1947C50.8447 68.4948 50.4405 68.6636 50.0189 68.6641V68.6641Z" fill="#2196F3"/>
<path d="M54.2601 68.6641C53.8385 68.6636 53.4343 68.4948 53.1362 68.1947C52.8381 67.8947 52.6704 67.4878 52.6699 67.0635V62.2617C52.6699 61.8372 52.8375 61.4301 53.1357 61.1299C53.4339 60.8298 53.8384 60.6611 54.2601 60.6611C54.6819 60.6611 55.0864 60.8298 55.3846 61.1299C55.6828 61.4301 55.8504 61.8372 55.8504 62.2617V67.0635C55.8499 67.4878 55.6822 67.8947 55.3841 68.1947C55.086 68.4948 54.6818 68.6636 54.2601 68.6641V68.6641Z" fill="#2196F3"/>
<path d="M60.7973 68.6641C60.3757 68.6636 59.9715 68.4948 59.6733 68.1947C59.3752 67.8947 59.2075 67.4878 59.207 67.0635V62.2617C59.207 61.8372 59.3746 61.4301 59.6728 61.1299C59.971 60.8298 60.3755 60.6611 60.7973 60.6611C61.219 60.6611 61.6235 60.8298 61.9217 61.1299C62.22 61.4301 62.3875 61.8372 62.3875 62.2617V67.0635C62.387 67.4878 62.2193 67.8947 61.9212 68.1947C61.6231 68.4948 61.2189 68.6636 60.7973 68.6641V68.6641Z" fill="#2196F3"/>
<path d="M65.0385 68.6641C64.6169 68.6636 64.2127 68.4948 63.9145 68.1947C63.6164 67.8947 63.4487 67.4878 63.4482 67.0635V62.2617C63.4482 61.8372 63.6158 61.4301 63.914 61.1299C64.2122 60.8298 64.6167 60.6611 65.0385 60.6611C65.4602 60.6611 65.8647 60.8298 66.1629 61.1299C66.4612 61.4301 66.6287 61.8372 66.6287 62.2617V67.0635C66.6282 67.4878 66.4605 67.8947 66.1624 68.1947C65.8643 68.4948 65.4601 68.6636 65.0385 68.6641V68.6641Z" fill="#2196F3"/>
<path d="M69.2787 68.6641C68.8571 68.6636 68.4529 68.4948 68.1548 68.1947C67.8567 67.8947 67.689 67.4878 67.6885 67.0635V62.2617C67.6885 61.8372 67.856 61.4301 68.1542 61.1299C68.4525 60.8298 68.8569 60.6611 69.2787 60.6611C69.7005 60.6611 70.1049 60.8298 70.4032 61.1299C70.7014 61.4301 70.8689 61.8372 70.8689 62.2617V67.0635C70.8684 67.4878 70.7008 67.8947 70.4026 68.1947C70.1045 68.4948 69.7003 68.6636 69.2787 68.6641V68.6641Z" fill="#2196F3"/>
<path d="M75.8168 68.6641C75.3952 68.6636 74.991 68.4948 74.6929 68.1947C74.3947 67.8947 74.227 67.4878 74.2266 67.0635V62.2617C74.2266 61.8372 74.3941 61.4301 74.6923 61.1299C74.9906 60.8298 75.395 60.6611 75.8168 60.6611C76.2385 60.6611 76.643 60.8298 76.9412 61.1299C77.2395 61.4301 77.407 61.8372 77.407 62.2617V67.0635C77.4065 67.4878 77.2388 67.8947 76.9407 68.1947C76.6426 68.4948 76.2384 68.6636 75.8168 68.6641V68.6641Z" fill="#2196F3"/>
<path d="M80.057 68.6641C79.6354 68.6636 79.2312 68.4948 78.9331 68.1947C78.635 67.8947 78.4673 67.4878 78.4668 67.0635V62.2617C78.4668 61.8372 78.6343 61.4301 78.9326 61.1299C79.2308 60.8298 79.6353 60.6611 80.057 60.6611C80.4788 60.6611 80.8832 60.8298 81.1815 61.1299C81.4797 61.4301 81.6472 61.8372 81.6472 62.2617V67.0635C81.6467 67.4878 81.479 67.8947 81.1809 68.1947C80.8828 68.4948 80.4786 68.6636 80.057 68.6641V68.6641Z" fill="#2196F3"/>
<path d="M84.2973 68.6641C83.8757 68.6636 83.4715 68.4948 83.1733 68.1947C82.8752 67.8947 82.7075 67.4878 82.707 67.0635V62.2617C82.707 61.8372 82.8746 61.4301 83.1728 61.1299C83.471 60.8298 83.8755 60.6611 84.2973 60.6611C84.719 60.6611 85.1235 60.8298 85.4217 61.1299C85.7199 61.4301 85.8875 61.8372 85.8875 62.2617V67.0635C85.887 67.4878 85.7193 67.8947 85.4212 68.1947C85.1231 68.4948 84.7189 68.6636 84.2973 68.6641V68.6641Z" fill="#2196F3"/>
<path d="M41.5411 86.4781H18.6701C18.3867 86.4781 18.1149 86.3648 17.9145 86.1631C17.7141 85.9614 17.6016 85.6879 17.6016 85.4026C17.6016 85.1174 17.7141 84.8438 17.9145 84.6422C18.1149 84.4405 18.3867 84.3271 18.6701 84.3271H41.5411C41.8245 84.3271 42.0963 84.4405 42.2967 84.6422C42.4971 84.8438 42.6096 85.1174 42.6096 85.4026C42.6096 85.6879 42.4971 85.9614 42.2967 86.1631C42.0963 86.3648 41.8245 86.4781 41.5411 86.4781Z" fill="#BDBDBD"/>
<path d="M34.2087 81.8541H26.0031C25.7197 81.8541 25.4479 81.7408 25.2475 81.5391C25.0471 81.3374 24.9346 81.0638 24.9346 80.7786C24.9346 80.4934 25.0471 80.2198 25.2475 80.0181C25.4479 79.8164 25.7197 79.7031 26.0031 79.7031H34.2087C34.4921 79.7031 34.7639 79.8164 34.9643 80.0181C35.1647 80.2198 35.2772 80.4934 35.2772 80.7786C35.2772 81.0638 35.1647 81.3374 34.9643 81.5391C34.7639 81.7408 34.4921 81.8541 34.2087 81.8541V81.8541Z" fill="#BDBDBD"/>
<path d="M100.023 49.2783H12.9141V49.634H100.023V49.2783Z" fill="#263238"/>
</svg>
