<svg width="123" height="92" viewBox="0 0 123 92" fill="none" xmlns="http://www.w3.org/2000/svg">
<g clip-path="url(#clip0)">
<path d="M79.6068 51.4714C77.2157 52.9143 72.9555 54.7221 68.6021 52.8642L65.7879 51.6632L71.4273 45.3027C66.9271 40.3105 64.4375 33.8101 64.4444 27.0704C64.4512 20.3307 66.9541 13.8355 71.4644 8.85248C75.9747 3.86948 82.1687 0.756378 88.8374 0.120816C95.5062 -0.514746 102.171 1.37285 107.531 5.41516C112.891 9.45748 116.561 15.3644 117.826 21.9829C119.09 28.6014 117.858 35.4565 114.37 41.2101C110.881 46.9638 105.387 51.203 98.9593 53.1003C92.5316 54.9976 85.6318 54.4169 79.6068 51.4714V51.4714ZM68.8017 27.0552C68.7893 30.1621 69.416 33.2379 70.6424 36.0892C71.8687 38.9406 73.6683 41.5057 75.9278 43.6234L77.4833 45.0942L73.9347 49.0965C75.7831 48.7191 77.393 47.713 78.2094 47.1287L79.3295 46.3268L80.5342 46.9928C83.8642 48.8272 87.5997 49.7885 91.3961 49.7882C103.855 49.7882 113.991 39.5902 113.991 27.0552C113.991 14.5203 103.855 4.32227 91.3961 4.32227C78.9376 4.32227 68.8017 14.5203 68.8017 27.0552V27.0552Z" fill="#125386"/>
<path d="M66.6104 27.0551C66.6104 13.2828 77.707 2.11816 91.3953 2.11816C105.084 2.11816 116.18 13.2828 116.18 27.0551C116.18 40.8274 105.084 51.9921 91.3953 51.9921C87.2294 51.9982 83.1297 50.9429 79.4785 48.9245C77.7652 50.151 73.5856 52.5973 69.4567 50.8351L74.4269 45.2295C71.9562 42.9004 69.9875 40.0853 68.6429 36.959C67.2983 33.8326 66.6065 30.4616 66.6104 27.0551V27.0551Z" fill="#2196F3"/>
<path opacity="0.1" d="M111.959 27.1088C111.959 14.0794 102.026 3.38588 89.3643 2.26993C90.0862 2.2063 90.8165 2.17188 91.5548 2.17188C105.243 2.17188 116.34 13.3365 116.34 27.1088C116.34 40.8811 105.243 52.0458 91.5548 52.0458C90.8176 52.0458 90.0886 52.0109 89.3677 51.9474C102.028 50.8298 111.959 40.137 111.959 27.1088Z" fill="#212121"/>
<path d="M34.2817 86.1142C28.0887 86.1171 22.0829 83.9783 17.2707 80.0561C12.4586 76.1339 9.13258 70.6668 7.85008 64.5709C6.56758 58.475 7.40654 52.1208 10.2264 46.5732C13.0462 41.0256 17.6755 36.6218 23.3385 34.0997C29.0014 31.5776 35.354 31.0905 41.3314 32.7201C47.3089 34.3497 52.548 37.9969 56.1707 43.0505C59.7935 48.1041 61.5798 54.257 61.2302 60.478C60.8806 66.6991 58.4164 72.6102 54.2505 77.2207L59.8899 83.5811L57.0758 84.7822C52.7223 86.6401 48.4622 84.8322 46.071 83.3894C42.3962 85.1818 38.3656 86.1134 34.2817 86.1142V86.1142ZM34.2817 36.2402C21.8231 36.2402 11.6873 46.4382 11.6873 58.9732C11.6873 71.5082 21.8231 81.7061 34.2817 81.7061C38.0782 81.7065 41.8136 80.7452 45.1436 78.9108L46.3483 78.2447L47.4685 79.0467C48.2848 79.631 49.8947 80.6371 51.7432 81.0144L48.1945 77.0121L49.75 75.5414C52.0096 73.4237 53.8091 70.8585 55.0355 68.0072C56.2618 65.1559 56.8885 62.08 56.8761 58.9732C56.8761 46.4382 46.7402 36.2402 34.2817 36.2402V36.2402Z" fill="#125386"/>
<path d="M59.066 58.9731C59.066 45.2008 47.9694 34.0361 34.2811 34.0361C20.5927 34.0361 9.49609 45.2008 9.49609 58.9731C9.49609 72.7454 20.5927 83.91 34.2811 83.91C38.447 83.9162 42.5467 82.8609 46.1979 80.8425C47.9112 82.0689 52.0908 84.5153 56.2197 82.7531L51.2496 77.1475C53.7202 74.8184 55.689 72.0033 57.0335 68.8769C58.3781 65.7506 59.0699 62.3796 59.066 58.9731Z" fill="#2196F3"/>
<path opacity="0.1" d="M13.8773 58.8471C13.8773 45.8177 23.8096 35.1242 36.4717 34.0082C35.7497 33.9446 35.0194 33.9102 34.2811 33.9102C20.5927 33.9102 9.49609 45.0748 9.49609 58.8471C9.49609 72.6194 20.5927 83.784 34.2811 83.784C35.0183 83.784 35.7473 83.7492 36.4682 83.6857C23.8078 82.5681 13.8773 71.8753 13.8773 58.8471Z" fill="#212121"/>
<path d="M97.2145 19.1331C95.5928 16.3762 92.3845 16.2477 92.3845 16.2477C92.3845 16.2477 89.2582 15.8455 87.2527 20.0442C85.3834 23.9578 82.8036 27.7364 86.8374 28.6526L87.566 26.3709L88.0172 28.8224C88.5916 28.864 89.1677 28.8739 89.7432 28.8521C94.063 28.7118 98.1771 28.8932 98.0446 27.3335C97.8685 25.2602 98.7748 21.7857 97.2145 19.1331Z" fill="#212121"/>
<path d="M86.6067 43.2756C86.559 43.5788 86.4899 43.8783 86.3998 44.1716C86.2983 44.4587 86.1417 44.7242 86.0489 45.0142C85.7531 45.9388 86.1631 46.9697 86.8179 47.6833C87.3858 48.2997 88.1188 48.7377 88.9285 48.9443C89.5247 49.0726 90.1327 49.1369 90.7423 49.1361C92.4281 49.1936 94.1573 49.245 95.7546 48.6999C96.2593 48.5235 96.7468 48.3007 97.2109 48.0343C97.3574 47.9641 97.4865 47.8618 97.5887 47.735C97.6958 47.5492 97.7434 47.3348 97.7251 47.1209C97.7215 46.4019 97.5766 45.6865 97.611 44.9683C97.6301 44.5705 97.7041 44.173 97.6677 43.7764C97.6172 43.326 97.4297 42.9022 97.1307 42.5632C96.8317 42.2241 96.4359 41.9863 95.9975 41.8823C95.5443 41.7844 95.0743 41.8378 94.613 41.8824C93.4154 41.9982 92.2128 42.0523 91.0098 42.0445C89.7806 42.0366 88.559 41.8478 87.336 41.8281C86.9743 41.8223 86.9816 41.9345 86.8664 42.2867C86.7604 42.6108 86.6736 42.9411 86.6067 43.2756V43.2756Z" fill="#212121"/>
<path d="M90.095 25.5211C90.0359 25.8323 89.9721 26.1549 89.7862 26.4106C89.5724 26.7048 89.2237 26.8729 88.9936 27.1545C88.6474 27.5783 88.6275 28.1747 88.6261 28.7234C88.6247 29.2288 88.6349 29.7679 88.9151 30.1875C89.1145 30.4481 89.3619 30.6676 89.6439 30.8339C90.6945 31.5463 91.8297 32.2714 93.0963 32.2949C93.6211 32.3046 94.1838 32.1683 94.5292 31.7705C94.6783 31.5837 94.7955 31.3732 94.8761 31.1478C95.2 30.3445 95.3963 29.495 95.4579 28.6304C95.5045 28.2239 95.4668 27.8121 95.3471 27.4211C95.1932 26.9894 94.8821 26.6343 94.6765 26.225C94.4334 25.7384 94.3445 25.1884 94.4218 24.6494C94.432 24.6114 94.4288 24.571 94.4128 24.5352C94.3959 24.516 94.3748 24.501 94.3512 24.4913C94.3275 24.4817 94.302 24.4777 94.2766 24.4796L91.7651 24.2977C91.5312 24.286 91.2982 24.2592 91.0677 24.2174C90.9324 24.1897 90.5748 23.9963 90.4457 24.0477C90.2067 24.143 90.144 25.2631 90.095 25.5211Z" fill="#A0616A"/>
<path opacity="0.1" d="M90.095 25.6002C90.0359 25.9114 89.9721 26.234 89.7862 26.4897C89.5724 26.7839 89.2237 26.952 88.9936 27.2336C88.6474 27.6574 88.6275 28.2538 88.6261 28.8025C88.6247 29.3079 88.6349 29.847 88.9151 30.2666C89.1145 30.5272 89.3619 30.7467 89.6439 30.9131C90.6944 31.6254 91.8297 32.3505 93.0963 32.374C93.6211 32.3837 94.1839 32.2474 94.5292 31.8496C94.6783 31.6628 94.7955 31.4524 94.8761 31.2269C95.2 30.4236 95.3963 29.5741 95.4579 28.7095C95.5045 28.303 95.4668 27.8912 95.3471 27.5002C95.1932 27.0685 94.8821 26.7134 94.6765 26.3041C94.4334 25.8175 94.3445 25.2675 94.4218 24.7285C94.432 24.6905 94.4288 24.6501 94.4128 24.6143C94.3959 24.5951 94.3748 24.5801 94.3512 24.5704C94.3275 24.5608 94.302 24.5568 94.2766 24.5587L91.7651 24.3768C91.5312 24.3651 91.2982 24.3383 91.0677 24.2965C90.9324 24.2688 90.5748 24.0754 90.4457 24.1268C90.2067 24.2221 90.144 25.3421 90.095 25.6002Z" fill="#212121"/>
<path d="M92.4972 25.86C94.5322 25.86 96.182 24.2001 96.182 22.1526C96.182 20.1051 94.5322 18.4453 92.4972 18.4453C90.4622 18.4453 88.8125 20.1051 88.8125 22.1526C88.8125 24.2001 90.4622 25.86 92.4972 25.86Z" fill="#A0616A"/>
<path d="M90.6117 30.4563C90.7937 30.6684 91.0131 30.8448 91.2589 30.9767C91.5151 31.0832 91.7903 31.1359 92.0674 31.1316C92.7317 31.1504 93.4517 31.0279 93.9138 30.5475C94.5094 29.9281 94.4898 28.9292 94.9566 28.2067C94.9942 28.1412 95.0456 28.0847 95.107 28.0412C95.1854 27.9983 95.2739 27.9778 95.3629 27.982C95.9525 27.9764 96.4662 28.3612 96.9297 28.7279C97.1479 28.8789 97.3351 29.0708 97.4812 29.2931C97.5729 29.473 97.6356 29.6664 97.6672 29.8661C97.8972 30.9959 97.9717 32.1511 98.0456 33.302C98.0865 33.9376 98.1273 34.5739 98.1243 35.2109C98.1143 37.3095 97.6295 39.373 97.1474 41.4148C97.0853 41.6779 97.0002 41.972 96.7624 42.098C96.6564 42.146 96.5426 42.1739 96.4266 42.1805C95.0457 42.3437 93.662 42.507 92.2718 42.5286C91.7293 42.537 91.187 42.5238 90.6449 42.4889C90.5516 42.4877 90.4591 42.4715 90.3709 42.4409C90.2512 42.383 90.1483 42.2951 90.0721 42.1856C89.3202 41.2322 89.2758 39.9141 89.2806 38.697C89.2923 35.7213 89.398 32.7479 89.5976 29.7769C89.6141 29.5317 89.6177 29.2339 89.442 29.041C89.784 29.5509 90.1758 30.025 90.6117 30.4563V30.4563Z" fill="white"/>
<path d="M89.8318 26.1761C89.7073 26.4027 88.7898 26.9655 88.6127 27.1534C87.623 28.203 85.8167 28.1636 84.9115 29.2878C84.5931 29.6833 84.4276 30.1803 84.3059 30.6744C84.1338 31.3731 84.0419 32.1352 84.3303 32.7941C84.6077 33.4281 85.1917 33.8664 85.5882 34.4328C86.0235 35.0546 86.2192 35.8096 86.4068 36.5464C86.5453 37.0905 86.685 37.648 86.631 38.207C86.5697 38.8425 86.264 39.4244 86.0835 40.0366C85.9031 40.6488 85.8719 41.3779 86.2892 41.8589C86.5958 42.2124 87.0766 42.3525 87.5362 42.4313C88.1249 42.5203 88.7186 42.5723 89.3137 42.587C89.8391 42.6104 90.4182 42.6149 90.8221 42.276C91.1408 42.0086 91.2793 41.5747 91.2973 41.1576C91.3152 40.7404 91.2289 40.327 91.1749 39.913C91.1189 39.4839 91.0974 39.051 91.0794 38.6186C90.9986 36.6783 90.9875 34.7367 91.0463 32.7939C91.0759 32.3901 91.0562 31.9842 90.9877 31.5852C90.875 31.0655 90.5958 30.601 90.3629 30.1235C89.8974 29.2241 89.6865 28.2133 89.7534 27.2015C89.8239 26.1617 90.2746 25.3695 89.8318 26.1761Z" fill="white"/>
<path d="M95.006 26.2543C95.1955 26.4503 95.8396 26.5149 96.0808 26.6412C96.3076 26.7466 96.5442 26.8291 96.7873 26.8873C97.6669 27.1426 98.5035 27.5289 99.2694 28.0335C99.4285 28.1272 99.5692 28.2494 99.6844 28.3942C99.8059 28.5929 99.8841 28.8153 99.914 29.0466C100.032 29.635 100.151 30.2306 100.124 30.8303C100.096 31.4669 99.9055 32.0834 99.7164 32.6916L99.0099 34.9641C98.4826 36.6603 97.9519 38.3732 97.8035 40.1442C97.7215 41.1257 97.758 42.1137 97.9122 43.0863C97.9267 43.1337 97.9311 43.1836 97.9249 43.2327C97.9188 43.2818 97.9023 43.3291 97.8766 43.3713C97.8301 43.4176 97.7688 43.4459 97.7036 43.4514C97.3626 43.505 97.0327 43.3301 96.7237 43.1753C95.7795 42.7026 94.7718 42.3708 93.7324 42.1906C94.1386 41.6 94.4519 40.9501 94.6615 40.2635C94.7805 39.8276 94.8743 39.3851 94.9422 38.9383L95.2709 37.0258C95.4046 36.3268 95.4987 35.6207 95.5528 34.911C95.5776 34.6446 95.5622 34.376 95.507 34.1143C95.4313 33.8653 95.3307 33.6246 95.2069 33.3959C94.6653 32.2624 94.4111 30.9688 94.6242 29.7295C94.7175 29.1871 94.8987 28.644 94.8232 28.0989C94.7505 27.5748 94.826 27.1674 94.6924 26.6487C94.1436 24.519 94.6493 25.8855 95.006 26.2543Z" fill="white"/>
<path d="M84.9014 31.0793C84.6545 31.5949 84.2417 32.034 84.1012 32.5886C84.0465 32.8477 84.0231 33.1126 84.0314 33.3774C84.007 33.7765 84.0463 34.1769 84.1477 34.5635C84.2262 34.8081 84.3537 35.0336 84.4456 35.2733C84.5737 35.6083 84.6308 35.9665 84.6132 36.3249C84.5884 36.8215 84.4207 37.3036 84.4076 37.8006C84.387 38.5822 84.7463 39.317 85.097 40.0149C85.1852 39.795 85.3201 39.5971 85.4923 39.4352C85.6645 39.2733 85.8698 39.1511 86.0937 39.0774C86.3177 39.0036 86.555 38.9799 86.7891 39.0081C87.0231 39.0362 87.2482 39.1154 87.4486 39.2402C87.5289 39.141 87.567 39.0139 87.5546 38.8865C87.5805 37.9797 87.6055 37.0729 87.6296 36.166C87.6675 34.7635 87.7037 33.3422 87.383 31.9767C87.2382 31.3602 87.0129 30.7461 86.6 30.2679C86.3825 30.0161 85.6443 29.3529 85.2873 29.635C85.1268 29.7618 85.1643 30.1071 85.1389 30.282C85.1005 30.5583 85.0204 30.8272 84.9014 31.0793V31.0793Z" fill="white"/>
<path d="M100.197 29.5946C100.296 29.9663 100.338 30.3511 100.323 30.7357C100.327 31.5197 100.317 32.3035 100.292 33.0872C100.296 33.4891 100.245 33.8897 100.14 34.2777C100.06 34.53 99.9372 34.7665 99.8548 35.018C99.608 35.7715 99.7429 36.5888 99.764 37.3819C99.779 37.6386 99.7572 37.8961 99.6994 38.1466C99.5691 38.6383 99.2191 39.0355 98.9748 39.4811C98.7428 39.9042 98.6028 40.3785 98.3257 40.7732C98.0486 41.1679 97.5689 41.4807 97.1039 41.3595C96.7516 41.2677 96.5013 40.9539 96.3281 40.6319C95.9503 39.9238 95.8211 39.1081 95.9614 38.3169C96.1352 37.3543 96.6972 36.5003 96.8999 35.5435C97.1782 34.2295 96.7552 32.8735 96.7678 31.53C96.7621 31.3195 96.7905 31.1093 96.8519 30.9079C96.9582 30.601 97.1865 30.356 97.3974 30.1099C97.661 29.8023 97.9059 29.479 98.1307 29.1417C98.2817 28.9151 98.4868 28.3323 98.7545 28.2839C99.3522 28.1757 100.048 29.13 100.197 29.5946Z" fill="white"/>
<path d="M81.8007 42.6914C81.4702 42.6078 81.1296 42.5714 80.789 42.5832C80.4311 42.6031 80.0816 42.6995 79.7636 42.8658C79.4456 43.0322 79.1664 43.2647 78.9446 43.548C78.7229 43.8313 78.5636 44.1589 78.4774 44.5089C78.3912 44.859 78.3801 45.2235 78.4447 45.5782C78.5273 45.9624 78.6622 46.3333 78.8456 46.6804C79.1139 47.2282 79.4357 47.7748 79.9324 48.1258C80.2317 48.3189 80.554 48.4732 80.8916 48.5852L83.5076 49.5768C83.8925 49.7226 84.2774 49.8685 84.666 50.0038C86.6186 50.6828 88.6544 51.09 90.7166 51.214C91.3441 51.2732 91.9769 51.2409 92.5953 51.1182C92.7447 51.0986 92.8818 51.0241 92.98 50.9091C93.0299 50.8217 93.0593 50.724 93.066 50.6234L93.2269 49.4896C93.263 49.3317 93.2583 49.1671 93.2133 49.0116C93.1395 48.821 92.9547 48.7011 92.7784 48.5993C91.0586 47.6054 89.0504 47.0571 87.6028 45.6931C87.262 45.3719 86.9768 44.8629 86.5627 44.6448C86.0932 44.3974 85.5402 44.2563 85.0548 44.0283C83.9938 43.53 82.9507 42.9574 81.8007 42.6914Z" fill="#212121"/>
<path opacity="0.1" d="M84.4117 44.2205C85.3363 44.512 89.2403 46.5317 89.9094 47.2369C89.8197 47.2694 86.7765 45.5535 86.6852 45.5259C85.8482 45.2946 85.0285 45.004 84.2323 44.6562C84.0737 44.5824 83.2021 44.2355 83.2415 44.0342C83.2861 43.807 84.2475 44.1688 84.4117 44.2205Z" fill="#212121"/>
<path d="M95.9478 51.8022C96.0003 51.806 96.0524 51.7906 96.0944 51.7588C96.1129 51.7349 96.1264 51.7077 96.1343 51.6785C96.1421 51.6494 96.1442 51.619 96.1402 51.589L96.1359 50.0443C95.6944 49.8327 95.2006 49.7649 94.7159 49.6997L92.4542 49.3955C92.5062 49.4025 92.1006 50.3756 92.1628 50.5055C92.2724 50.7345 93.11 50.9374 93.3464 51.0455C94.1683 51.4214 95.0222 51.8346 95.9478 51.8022Z" fill="#A0616A"/>
<path d="M88.8518 50.0391C88.4248 50.1076 87.9482 50.1681 87.6716 50.5025C87.3209 50.9266 87.4702 51.5589 87.6375 52.0843C87.6477 52.1521 87.6713 52.2172 87.707 52.2757C87.7426 52.3341 87.7895 52.3848 87.845 52.4247C87.9004 52.4646 87.9633 52.4929 88.0298 52.508C88.0963 52.523 88.1651 52.5245 88.2322 52.5123C88.6216 52.5371 89.0361 52.5565 89.3763 52.3643C89.5305 52.2619 89.6789 52.1509 89.8208 52.0319C90.0717 51.8639 90.3475 51.7371 90.638 51.656C91.1719 51.4871 91.7215 51.3731 92.2783 51.3159C92.4977 51.3059 92.7149 51.2673 92.9245 51.2013C93.0292 51.1674 93.1247 51.1096 93.2036 51.0325C93.2826 50.9554 93.3428 50.8611 93.3796 50.7568C93.4584 50.4761 93.2962 50.1899 93.1407 49.9437C92.9615 49.6212 92.7289 49.332 92.4529 49.0883C92.0314 48.759 91.823 49.0118 91.3985 49.2226C90.595 49.6215 89.7366 49.8968 88.8518 50.0391V50.0391Z" fill="#A0616A"/>
<path d="M87.7363 50.426L85.0248 49.6196C84.6996 49.5057 84.3598 49.4394 84.0158 49.4229C83.8436 49.4158 83.6718 49.4457 83.512 49.5108C83.3522 49.5758 83.208 49.6744 83.0891 49.7999C82.8789 50.0482 82.8187 50.3876 82.7663 50.7094L82.6542 51.398C82.5794 51.7451 82.5582 52.1018 82.5914 52.4554C82.6094 52.6323 82.6673 52.8026 82.7607 52.9536C82.854 53.1045 82.9803 53.2321 83.13 53.3265C83.5053 53.5325 83.9651 53.4319 84.3839 53.3457C85.2298 53.1718 86.0901 53.079 86.9534 53.0685C87.278 53.0646 87.6184 53.0687 87.9052 52.9158C88.0716 52.8165 88.2115 52.6778 88.3125 52.5118C88.4136 52.3457 88.4728 52.1574 88.4851 51.963C88.5384 51.3749 88.3436 50.6066 87.7363 50.426Z" fill="#212121"/>
<path d="M97.0135 49.7236C97.365 49.6616 97.6752 49.4606 98.012 49.342C98.4861 49.175 98.9998 49.175 99.5021 49.1768C99.6868 49.1599 99.8724 49.1973 100.036 49.2845C100.258 49.4327 100.314 49.7293 100.352 49.994L100.579 51.5913C100.64 51.8893 100.646 52.1959 100.597 52.4962C100.531 52.7922 100.33 53.0775 100.038 53.1539C99.6839 53.2466 99.3363 53.0188 99.0015 52.8691C98.1648 52.4949 97.1921 52.5905 96.3197 52.3109C96.2363 52.2941 96.1574 52.2596 96.0882 52.2099C96.019 52.1601 95.9611 52.0961 95.9183 52.0221C95.8885 51.9334 95.8778 51.8393 95.8871 51.7461C95.902 51.2327 95.7944 50.5316 95.948 50.0409C96.0862 49.5996 96.6211 49.7236 97.0135 49.7236Z" fill="#212121"/>
<path d="M102.752 42.0485C103.294 41.9118 103.855 41.8732 104.411 41.9345C104.854 41.9837 105.311 42.1078 105.635 42.4166C106.029 42.7924 106.155 43.3737 106.166 43.9199C106.183 45.0078 105.825 46.068 105.151 46.9195C104.987 47.1348 104.791 47.3242 104.571 47.4813C104.334 47.6308 104.081 47.7535 103.817 47.8472L97.958 50.1722C96.4167 50.7838 94.8701 51.3973 93.2625 51.8005C93.2185 51.8218 93.1707 51.8341 93.122 51.8366C93.0733 51.8391 93.0245 51.8318 92.9786 51.8151C92.9327 51.7983 92.8906 51.7725 92.8548 51.7392C92.819 51.7058 92.7902 51.6656 92.77 51.6209C92.2567 50.8832 91.8261 50.0906 91.486 49.2576C91.4699 49.2378 91.4588 49.2144 91.4536 49.1894C91.4483 49.1643 91.4492 49.1384 91.4561 49.1138C91.4629 49.0892 91.4756 49.0665 91.493 49.0479C91.5104 49.0292 91.532 49.015 91.5559 49.0065L95.6997 46.611C96.0036 46.4516 96.2868 46.2552 96.5431 46.0264C96.7222 45.8517 96.8689 45.6463 96.9762 45.4198C97.0621 45.2393 97.0701 44.8133 97.1798 44.6799C97.2872 44.5493 97.6547 44.5389 97.8244 44.4875C98.0637 44.4137 98.2981 44.3246 98.5261 44.2206C99.4531 43.8034 100.278 43.1972 101.167 42.7086C101.665 42.4219 102.198 42.2001 102.752 42.0485V42.0485Z" fill="#212121"/>
<path opacity="0.1" d="M100.402 43.8374C99.6903 44.3754 98.7685 44.8699 98.0629 45.4221C97.8221 45.6105 93.8077 47.8812 93.751 48.1828C94.4092 48.2944 98.6025 45.3429 99.2025 45.0484C99.8024 44.7539 100.334 44.3386 100.861 43.9263C100.996 43.8213 101.565 43.5054 101.179 43.3881C100.962 43.3219 100.563 43.7299 100.402 43.8374Z" fill="#212121"/>
<path d="M95.504 26.3066H89.2547C89.0008 26.3066 88.7573 26.4081 88.5778 26.5888C88.3983 26.7694 88.2974 27.0144 88.2974 27.2698V27.6225H88.2295V28.4113H88.2974V28.9635H88.2295V29.4368H88.2974V35.2569C88.2974 35.5124 88.3983 35.7573 88.5778 35.938C88.7573 36.1186 89.0008 36.2201 89.2547 36.2201H95.504C95.7579 36.2201 96.0014 36.1186 96.1809 35.938C96.3604 35.7573 96.4613 35.5124 96.4613 35.2569V27.2698C96.4613 27.0144 96.3604 26.7694 96.1809 26.5887C96.0014 26.4081 95.7579 26.3066 95.504 26.3066V26.3066Z" fill="#A0D2FA"/>
<path d="M96.4973 18.8668L93.3277 17.1963L88.9505 17.8797L88.0449 21.904L90.2992 21.8167L90.929 20.3382V21.7924L91.9692 21.7522L92.5729 19.3982L92.9503 21.904L96.6482 21.828L96.4973 18.8668Z" fill="#212121"/>
<path d="M85.7314 41.5271C85.8748 41.7723 86.0786 41.9762 86.3231 42.1193C86.4835 42.193 86.6585 42.2288 86.8348 42.2241C87.011 42.2193 87.1839 42.1741 87.3401 42.0918C87.6522 41.9235 87.9076 41.6658 88.0741 41.3514C88.4186 40.7394 88.4899 40.0071 88.4469 39.305C88.4039 38.603 88.255 37.9118 88.189 37.2115C88.1411 36.7025 88.1372 36.1905 88.1333 35.6792C88.1214 35.5717 88.1438 35.4632 88.1973 35.3693C88.2894 35.2772 88.4086 35.2173 88.5371 35.1986C89.2323 34.9908 89.6938 34.3351 90.0247 33.6858C90.2456 33.2522 90.4377 32.7782 90.3951 32.2928C90.3525 31.8075 90.0057 31.3185 89.5239 31.269C89.1268 31.2282 88.76 31.482 88.4735 31.7618C87.7508 32.4719 87.2863 33.4059 87.1546 34.4137C87.0918 34.9072 87.1098 35.4141 86.9764 35.8932C86.6915 36.9162 85.8002 37.5434 85.3561 38.4639C84.8667 39.4781 85.1368 40.6296 85.7314 41.5271Z" fill="#A0616A"/>
<path d="M98.8464 37.6197C98.745 37.8569 98.5974 38.0713 98.4124 38.2503C98.2273 38.4292 98.0085 38.569 97.7688 38.6614C97.4709 38.7818 97.1424 38.8021 96.8321 38.7191C96.6782 38.6762 96.5363 38.5981 96.4173 38.491C96.2983 38.3839 96.2054 38.2507 96.1459 38.1016C96.0984 37.9514 96.0724 37.7953 96.0686 37.6377C96.024 36.9479 96.0412 36.237 96.2903 35.5927C96.3863 35.3442 96.5159 35.1086 96.5917 34.8531C96.6662 34.558 96.7043 34.2548 96.7052 33.9504L96.787 32.0681C96.8006 31.9315 96.7912 31.7935 96.7592 31.66C96.6776 31.3876 96.4246 31.2106 96.1925 31.0482C95.6319 30.656 95.0779 30.1983 94.8062 29.5679C94.7129 29.3782 94.6795 29.1642 94.7104 28.9548C94.787 28.581 95.1619 28.3391 95.5325 28.2575C95.7749 28.2042 96.0256 28.2008 96.2694 28.2475C96.5132 28.2943 96.745 28.3902 96.951 28.5295C97.157 28.6688 97.3328 28.8486 97.4678 29.058C97.6029 29.2675 97.6944 29.5023 97.7369 29.7484C97.7735 29.9608 97.773 30.1778 97.7945 30.3923C97.84 30.8473 97.9836 31.2859 98.0734 31.7342C98.2946 32.8385 98.18 33.98 98.3988 35.0841C98.5817 36.0072 99.2715 36.6096 98.8464 37.6197Z" fill="#A0616A"/>
<path d="M92.4627 30.5415C92.8957 30.5415 93.2467 30.1883 93.2467 29.7527C93.2467 29.317 92.8957 28.9639 92.4627 28.9639C92.0297 28.9639 91.6787 29.317 91.6787 29.7527C91.6787 30.1883 92.0297 30.5415 92.4627 30.5415Z" fill="#2196F3"/>
<path d="M7.33707 58.1019C8.61432 58.1019 9.64973 57.0602 9.64973 55.7751C9.64973 54.49 8.61432 53.4482 7.33707 53.4482C6.05983 53.4482 5.02441 54.49 5.02441 55.7751C5.02441 57.0602 6.05983 58.1019 7.33707 58.1019Z" fill="#212121"/>
<path d="M15.7197 62.6822L14.5549 61.543L12.2158 62.274L12.4405 64.999L17.2499 64.7742L15.7724 62.7543L15.7197 62.6822Z" fill="#FBBEBE"/>
<path d="M13.1725 62.6595C15.2375 62.6595 16.9115 60.9752 16.9115 58.8976C16.9115 56.82 15.2375 55.1357 13.1725 55.1357C11.1076 55.1357 9.43359 56.82 9.43359 58.8976C9.43359 60.9752 11.1076 62.6595 13.1725 62.6595Z" fill="#FBBEBE"/>
<path d="M36.384 67.5107C36.384 67.5107 40.9774 75.4529 42.0705 76.6452C42.5904 77.232 43.1443 77.7874 43.7292 78.3085C43.7292 78.3085 43.2152 80.0235 42.3967 79.9623C41.9302 79.9341 41.4727 79.8206 41.0466 79.6276C41.0466 79.6276 40.6812 78.6748 40.044 78.2569C39.4068 77.8391 34.2007 72.686 34.3224 71.039C34.4441 69.392 36.384 67.5107 36.384 67.5107Z" fill="#212121"/>
<path d="M20.0254 78.8449C20.0254 78.8449 24.9229 82.6695 31.5789 79.0757L32.1525 78.651C32.1525 78.651 31.1845 80.842 31.0946 81.436C30.9905 82.1247 28.4703 86.1593 28.059 86.3526C27.6478 86.546 27.5572 86.7243 27.5572 86.7243L29.3024 88.657L29.9477 88.1792C29.9477 88.1792 32.4639 84.5925 33.1998 83.9363C33.9357 83.2802 37.4421 76.5137 37.4421 76.5137C37.4421 76.5137 38.7826 73.9642 35.437 73.7725C32.0913 73.5807 30.5518 74.4982 30.5518 74.4982L24.6141 75.4472L20.0254 78.8449Z" fill="#212121"/>
<path d="M43.7859 77.9326L46.2631 79.6571C46.2631 79.6571 49.4234 80.6533 47.4767 81.3163C45.5299 81.9793 40.3999 82.2191 40.2835 81.3044C40.1671 80.3897 40.4858 78.95 40.7418 79.0287C40.9977 79.1074 42.774 79.5715 43.7859 77.9326Z" fill="#212121"/>
<path d="M30.1667 87.5872L30.6252 90.1205C30.6252 90.1205 31.9289 92.6292 30.3636 91.8508C28.7982 91.0724 25.5732 88.1157 26.0494 87.4958C26.5257 86.876 27.5768 86.2037 27.6835 86.4057C27.7903 86.6077 28.5803 87.9602 30.1667 87.5872Z" fill="#212121"/>
<path d="M25.4434 76.2789C25.4434 76.2789 22.1141 80.1897 20.0929 79.2397C18.0717 78.2897 9.80247 67.2865 10.7467 65.2529C11.6909 63.2192 12.0075 63.6521 12.0075 63.6521L16.2771 64.0493L15.0486 62.0675C15.0486 62.0675 15.6222 61.6428 16.1688 62.239C16.7154 62.8352 18.9098 64.3242 19.6743 66.4271C20.4388 68.5301 22.6832 68.4252 22.6832 68.4252L25.4434 76.2789Z" fill="white"/>
<path d="M38.8881 68.2151L33.117 74.3786L27.9473 65.1951L32.862 59.2207L38.8881 68.2151Z" fill="#125386"/>
<path d="M38.4522 68.1476L33.2399 73.5639L28.5166 65.2175L32.8483 59.7305L38.4522 68.1476Z" fill="white"/>
<path d="M32.8337 74.1426L33.1164 74.378L32.9351 74.7346L24.8654 77.1511L24.7891 76.8729L25.1562 76.4909L32.8337 74.1426Z" fill="#1769AA"/>
<path d="M33.1887 74.3248L24.8323 76.9535L19.7383 67.2691L27.9473 65.1943L33.1887 74.3248Z" fill="#A0D2FA"/>
<path d="M32.5592 73.0119L32.2007 73.2773L28.2217 66.3261L28.6329 66.1328L32.5592 73.0119Z" fill="#125386"/>
<path d="M31.7373 73.3981L28.2023 74.4586L24.1895 67.31L27.6866 66.5L31.7373 73.3981Z" fill="#125386"/>
<path d="M21.7782 68.0943L22.5101 67.886C22.5101 67.886 26.5917 67.4217 26.6513 68.712C26.7109 70.0024 21.9623 69.4037 21.9623 69.4037L21.3291 68.5381L21.7782 68.0943Z" fill="#FBBEBE"/>
<path d="M25.3582 73.8954L26.3769 73.4747C26.3769 73.4747 29.4519 72.0876 28.5698 71.1838C27.6877 70.28 24.9671 71.8496 24.9671 71.8496L24.4463 72.3464L25.3582 73.8954Z" fill="#FBBEBE"/>
<path d="M24.4499 71.899C24.4499 71.899 26.1086 73.5622 25.7311 73.9529C25.3537 74.3436 19.1646 79.4823 17.6304 77.838C16.0961 76.1938 8.62118 67.9387 11.5298 67.2308C14.4384 66.5229 15.2069 68.178 15.2069 68.178L19.0467 74.7876L24.4499 71.899Z" fill="white"/>
<path d="M19.4837 66.8457L22.2084 67.7753L22.1639 69.7544L19.2822 69.4415L19.4837 66.8457Z" fill="white"/>
<path opacity="0.2" d="M21.939 72.9241L19.0034 74.6529L15.6494 69.4629L18.887 73.7382L21.939 72.9241Z" fill="#212121"/>
<path d="M11.5312 62.285C13.9895 62.285 15.9823 60.2799 15.9823 57.8065C15.9823 55.3332 13.9895 53.3281 11.5312 53.3281C9.07291 53.3281 7.08008 55.3332 7.08008 57.8065C7.08008 60.2799 9.07291 62.285 11.5312 62.285Z" fill="#212121"/>
<path d="M35.5815 68.6057L32.4648 64.0185L33.786 62.373L37.0245 67.0925L35.5815 68.6057Z" fill="#2196F3"/>
<path d="M35.4938 70.4493L30.749 63.5091L30.983 63.2246L35.7057 70.1812L35.4938 70.4493Z" fill="#BDBDBD"/>
<path d="M34.8825 71.1251L30.1377 64.1849L30.3717 63.9004L35.0944 70.8571L34.8825 71.1251Z" fill="#BDBDBD"/>
<path d="M34.361 71.6222L29.6162 64.6819L29.8502 64.3975L34.5729 71.3542L34.361 71.6222Z" fill="#BDBDBD"/>
<path d="M13.502 54.8174H14.8789C15.5761 54.8174 16.2447 55.096 16.7377 55.592C17.2307 56.088 17.5076 56.7608 17.5076 57.4622V57.4622H13.502V54.8174Z" fill="#212121"/>
<path d="M32.4691 53.1339L32.2195 53.1152C32.2098 53.2458 32.2029 53.3772 32.1947 53.5082L31.0742 53.4705L32.2495 55.6864L33.5695 53.5545L32.445 53.5166C32.453 53.3891 32.4597 53.2611 32.4691 53.1339Z" fill="#125386"/>
<path d="M39.041 35.0714L39.24 35.2243C39.5385 34.8309 39.8503 34.4382 40.1668 34.057L39.9746 33.8955C39.6558 34.2795 39.3417 34.6751 39.041 35.0714Z" fill="#125386"/>
<path d="M40.959 32.7622L41.1438 32.932C41.4759 32.5661 41.8208 32.2026 42.1686 31.8517L41.9914 31.6738C41.6409 32.0273 41.2936 32.3935 40.959 32.7622Z" fill="#125386"/>
<path d="M43.0703 30.6321L43.2396 30.8177C43.6029 30.4821 43.9779 30.1507 44.3543 29.8325L44.1933 29.6396C43.8141 29.9602 43.4363 30.2941 43.0703 30.6321Z" fill="#125386"/>
<path d="M37.332 37.5428L37.5436 37.6774C37.8067 37.2585 38.0831 36.8395 38.3648 36.432L38.1593 36.2881C37.8754 36.6987 37.5971 37.1208 37.332 37.5428Z" fill="#125386"/>
<path d="M45.3584 28.6977L45.5108 28.8974C45.902 28.5952 46.3044 28.2983 46.7069 28.015L46.5634 27.8086C46.1579 28.0941 45.7524 28.3932 45.3584 28.6977Z" fill="#1769AA"/>
<path d="M35.8467 40.1571L36.0693 40.2722C36.2948 39.8309 36.5333 39.3887 36.7781 38.9581L36.5608 38.833C36.3141 39.2669 36.0739 39.7124 35.8467 40.1571Z" fill="#125386"/>
<path d="M33.4325 47.2474L33.1901 47.1846C33.0663 47.6679 32.9518 48.1607 32.8496 48.6495L33.0946 48.7014C33.1961 48.2163 33.3097 47.727 33.4325 47.2474Z" fill="#125386"/>
<path d="M47.8057 26.9747L47.94 27.1872C48.355 26.9216 48.7816 26.6616 49.2081 26.4146L49.0832 26.1963C48.6535 26.4452 48.2237 26.7071 47.8057 26.9747Z" fill="#1769AA"/>
<path d="M32.821 50.1688L32.574 50.1279C32.4937 50.6197 32.4231 51.1207 32.3643 51.6173L32.6128 51.647C32.6712 51.1543 32.7413 50.6569 32.821 50.1688Z" fill="#125386"/>
<path d="M34.5977 42.895L34.8296 42.9898C35.0152 42.5302 35.2138 42.0682 35.4197 41.6169L35.1922 41.5117C34.9847 41.9665 34.7846 42.4319 34.5977 42.895Z" fill="#125386"/>
<path d="M33.5947 45.7357L33.8342 45.8092C33.9786 45.334 34.1355 44.8558 34.3006 44.388L34.0646 44.3037C33.8983 44.775 33.7402 45.2568 33.5947 45.7357Z" fill="#125386"/>
<path d="M64.741 21.9542C65.2318 21.9371 65.7315 21.9303 66.2258 21.935L66.228 21.6831C65.7303 21.6784 65.2266 21.6852 64.7324 21.7024L64.741 21.9542Z" fill="#1769AA"/>
<path d="M50.3936 25.4758L50.5087 25.6994C50.9459 25.4715 51.3934 25.2506 51.839 25.043L51.7337 24.8145C51.2849 25.0237 50.834 25.2462 50.3936 25.4758Z" fill="#1769AA"/>
<path d="M70.665 22.268C71.1534 22.3375 71.6463 22.419 72.13 22.51L72.1759 22.2625C71.6887 22.1707 71.1921 22.0886 70.7 22.0186L70.665 22.268Z" fill="#1769AA"/>
<path d="M73.583 22.8175C74.0624 22.9302 74.5463 23.0554 75.0208 23.1896L75.0885 22.9471C74.6104 22.8119 74.1231 22.6858 73.64 22.5723L73.583 22.8175Z" fill="#1769AA"/>
<path d="M76.4404 23.6259C76.9079 23.7811 77.3786 23.9491 77.8395 24.1253L77.9285 23.8899C77.4641 23.7123 76.9899 23.543 76.5189 23.3867L76.4404 23.6259Z" fill="#1769AA"/>
<path d="M67.71 21.98C68.203 22.006 68.7011 22.0434 69.1907 22.091L69.2149 21.8404C68.7216 21.7923 68.2197 21.7547 67.7232 21.7285L67.71 21.98Z" fill="#1769AA"/>
<path d="M61.752 21.9378L61.7825 22.1879C62.2704 22.1275 62.7672 22.0771 63.259 22.0383L63.2394 21.7871C62.7438 21.8263 62.2434 21.877 61.752 21.9378Z" fill="#1769AA"/>
<path d="M55.9111 23.198L55.9852 23.4386C56.4557 23.2921 56.9358 23.1542 57.4123 23.0288L57.349 22.7852C56.8689 22.9114 56.3851 23.0503 55.9111 23.198Z" fill="#1769AA"/>
<path d="M53.1006 24.2135L53.1956 24.4466C53.6508 24.2587 54.1158 24.0788 54.5776 23.9118L54.493 23.6748C54.0276 23.8429 53.5592 24.0242 53.1006 24.2135Z" fill="#1769AA"/>
<path d="M58.8037 22.4369L58.8562 22.6832C59.3371 22.5795 59.8275 22.4851 60.3138 22.4027L60.2722 22.1543C59.7823 22.2373 59.2882 22.3324 58.8037 22.4369Z" fill="#1769AA"/>
<path d="M81.575 25.6828L80.176 23.6025L79.684 24.6213C79.565 24.5678 79.4465 24.5132 79.3276 24.4614L79.2281 24.6926C79.3442 24.7432 79.4591 24.7962 79.5746 24.848L79.085 25.862L81.575 25.6828Z" fill="#1769AA"/>
</g>
<defs>
<clipPath id="clip0">
<rect width="122" height="92" fill="white" transform="translate(0.666992)"/>
</clipPath>
</defs>
</svg>
