<svg width="210" height="158" viewBox="0 0 210 158" fill="none" xmlns="http://www.w3.org/2000/svg">
<g clip-path="url(#clip0)">
<path d="M208.016 67.3838H207.959L175.419 81.2752L130.896 100.282C130.722 100.355 130.536 100.393 130.347 100.394C130.158 100.395 129.971 100.359 129.796 100.287L83.8624 81.2356L50.5223 67.4065L50.4714 67.3838H50.4146C49.8885 67.3844 49.3842 67.5936 49.0122 67.9654C48.6402 68.3373 48.431 68.8415 48.4304 69.3675V155.516C48.431 156.042 48.6402 156.546 49.0122 156.918C49.3842 157.29 49.8885 157.499 50.4146 157.5H208.016C208.542 157.499 209.046 157.29 209.418 156.918C209.79 156.546 210 156.042 210 155.516V69.3675C210 68.8415 209.79 68.3373 209.418 67.9654C209.046 67.5936 208.542 67.3844 208.016 67.3838V67.3838Z" fill="white"/>
<path d="M208.583 67.9509C208.525 67.951 208.468 67.9332 208.421 67.9002L130.029 13.3196C129.79 13.1542 129.507 13.0659 129.216 13.0664C128.926 13.0669 128.643 13.1562 128.405 13.3223L50.5774 67.8996C50.5469 67.921 50.5125 67.9361 50.4762 67.9442C50.4399 67.9523 50.4023 67.9532 50.3656 67.9467C50.3289 67.9403 50.2939 67.9267 50.2625 67.9067C50.2311 67.8867 50.2039 67.8608 50.1825 67.8303C50.1611 67.7998 50.146 67.7654 50.1379 67.7291C50.1298 67.6928 50.1289 67.6552 50.1354 67.6186C50.1418 67.5819 50.1554 67.5469 50.1754 67.5155C50.1954 67.484 50.2213 67.4569 50.2518 67.4355L128.079 12.8582C128.413 12.6257 128.809 12.5007 129.215 12.5C129.622 12.4993 130.019 12.623 130.353 12.8545L208.745 67.4349C208.794 67.4694 208.832 67.5188 208.851 67.576C208.871 67.6331 208.871 67.6949 208.853 67.7525C208.835 67.81 208.799 67.8603 208.75 67.896C208.702 67.9317 208.643 67.951 208.583 67.9509L208.583 67.9509Z" fill="#9E9E9E"/>
<path d="M55.0247 69.8856L129.293 14.8574L204.125 73.8011L133.12 115.883L94.5698 107.099L55.0247 69.8856Z" fill="#E0E0E0"/>
<path d="M97.8239 141.876H61.1334C60.9081 141.876 60.6849 141.832 60.4767 141.746C60.2685 141.66 60.0792 141.534 59.9198 141.374C59.7604 141.215 59.634 141.026 59.5477 140.818C59.4614 140.61 59.417 140.387 59.417 140.162C59.417 139.937 59.4614 139.714 59.5477 139.506C59.634 139.298 59.7604 139.109 59.9198 138.949C60.0792 138.79 60.2685 138.664 60.4767 138.578C60.6849 138.492 60.9081 138.448 61.1334 138.448H97.8239C98.0492 138.448 98.2723 138.492 98.4806 138.578C98.6888 138.664 98.878 138.79 99.0374 138.949C99.1968 139.109 99.3233 139.298 99.4096 139.506C99.4959 139.714 99.5403 139.937 99.5403 140.162C99.5403 140.387 99.4959 140.61 99.4096 140.818C99.3233 141.026 99.1968 141.215 99.0374 141.374C98.878 141.534 98.6888 141.66 98.4806 141.746C98.2723 141.832 98.0492 141.876 97.8239 141.876V141.876Z" fill="#2196F3"/>
<path d="M74.2971 134.508H61.1334C60.9081 134.508 60.6849 134.464 60.4767 134.378C60.2685 134.292 60.0792 134.166 59.9198 134.006C59.7604 133.847 59.634 133.658 59.5477 133.45C59.4614 133.242 59.417 133.019 59.417 132.794C59.417 132.569 59.4614 132.346 59.5477 132.137C59.634 131.929 59.7604 131.74 59.9198 131.581C60.0792 131.422 60.2685 131.296 60.4767 131.21C60.6849 131.124 60.9081 131.08 61.1334 131.08H74.2971C74.5224 131.08 74.7456 131.124 74.9538 131.21C75.162 131.296 75.3512 131.422 75.5106 131.581C75.67 131.74 75.7965 131.929 75.8828 132.137C75.9691 132.346 76.0135 132.569 76.0135 132.794C76.0135 133.019 75.9691 133.242 75.8828 133.45C75.7965 133.658 75.67 133.847 75.5106 134.006C75.3512 134.166 75.162 134.292 74.9538 134.378C74.7456 134.464 74.5224 134.508 74.2971 134.508Z" fill="#2196F3"/>
<path d="M130.338 100.536C130.059 100.536 129.783 100.482 129.525 100.377L83.7207 81.3764V21.9017C83.7213 21.3757 83.9306 20.8715 84.3025 20.4997C84.6745 20.1278 85.1788 19.9186 85.7049 19.918H173.576C174.102 19.9186 174.606 20.1278 174.978 20.4997C175.35 20.8715 175.56 21.3757 175.56 21.9017V81.4179L175.474 81.4547L131.176 100.368C130.91 100.479 130.626 100.536 130.338 100.536V100.536Z" fill="white"/>
<path d="M130.338 100.677C130.04 100.677 129.746 100.62 129.47 100.507L83.5789 81.4702V21.9008C83.5795 21.3373 83.8037 20.7971 84.2022 20.3986C84.6008 20.0002 85.1411 19.776 85.7048 19.7754H173.576C174.14 19.776 174.68 20.0002 175.079 20.3986C175.477 20.7971 175.701 21.3373 175.702 21.9008V81.5106L131.231 100.497C130.948 100.616 130.645 100.677 130.338 100.677V100.677ZM84.1458 81.0916L129.687 99.9832C130.111 100.155 130.587 100.153 131.01 99.9753L175.135 81.1364V21.9008C175.135 21.4875 174.97 21.0914 174.678 20.7992C174.386 20.507 173.989 20.3426 173.576 20.3422H85.7048C85.2915 20.3426 84.8952 20.507 84.6029 20.7992C84.3107 21.0914 84.1463 21.4875 84.1458 21.9008V81.0916Z" fill="#9E9E9E"/>
<path d="M208.016 67.3838H207.959L175.419 81.2752L130.896 100.282C130.722 100.355 130.536 100.393 130.347 100.394C130.158 100.395 129.971 100.359 129.796 100.287L83.8624 81.2356L50.5223 67.4065L50.4714 67.3838H50.4146C49.8885 67.3844 49.3842 67.5936 49.0122 67.9654C48.6402 68.3373 48.431 68.8415 48.4304 69.3675V155.516C48.431 156.042 48.6402 156.546 49.0122 156.918C49.3842 157.29 49.8885 157.499 50.4146 157.5H208.016C208.542 157.499 209.046 157.29 209.418 156.918C209.79 156.546 210 156.042 210 155.516V69.3675C210 68.8415 209.79 68.3373 209.418 67.9654C209.046 67.5936 208.542 67.3844 208.016 67.3838V67.3838ZM209.433 155.516C209.433 155.892 209.284 156.252 209.018 156.518C208.752 156.783 208.392 156.933 208.016 156.933H50.4146C50.0388 156.933 49.6784 156.783 49.4126 156.518C49.1469 156.252 48.9975 155.892 48.9973 155.516V69.3675C48.9978 69.0011 49.14 68.649 49.3941 68.385C49.6482 68.1209 49.9946 67.9653 50.3608 67.9506L83.8624 81.8477L129.578 100.812C130.073 101.013 130.628 101.01 131.12 100.803L175.419 81.8902L208.073 67.9506C208.438 67.9663 208.784 68.1224 209.037 68.3863C209.29 68.6502 209.432 69.0016 209.433 69.3675V155.516Z" fill="#9E9E9E"/>
<path d="M123.207 42.1494H92.0267C91.4253 42.1494 90.8485 41.9105 90.4232 41.4854C89.9979 41.0602 89.759 40.4836 89.759 39.8823C89.759 39.281 89.9979 38.7044 90.4232 38.2792C90.8485 37.8541 91.4253 37.6152 92.0267 37.6152H123.207C123.808 37.6152 124.385 37.8541 124.81 38.2792C125.236 38.7044 125.474 39.281 125.474 39.8823C125.474 40.4836 125.236 41.0602 124.81 41.4854C124.385 41.9105 123.808 42.1494 123.207 42.1494Z" fill="#2196F3"/>
<path d="M107.05 32.5146H92.0267C91.4253 32.5146 90.8485 32.2757 90.4232 31.8506C89.9979 31.4254 89.759 30.8488 89.759 30.2475C89.759 29.6463 89.9979 29.0696 90.4232 28.6445C90.8485 28.2193 91.4253 27.9805 92.0267 27.9805H107.05C107.651 27.9805 108.228 28.2193 108.653 28.6445C109.079 29.0696 109.317 29.6463 109.317 30.2475C109.317 30.8488 109.079 31.4254 108.653 31.8506C108.228 32.2757 107.651 32.5146 107.05 32.5146Z" fill="#2196F3"/>
<path d="M152.961 64.8203H105.34C104.739 64.8203 104.162 64.5814 103.737 64.1563C103.311 63.7311 103.073 63.1545 103.073 62.5532C103.073 61.9519 103.311 61.3753 103.737 60.9501C104.162 60.525 104.739 60.2861 105.34 60.2861H152.961C153.562 60.2861 154.139 60.525 154.564 60.9501C154.989 61.3753 155.228 61.9519 155.228 62.5532C155.228 63.1545 154.989 63.7311 154.564 64.1563C154.139 64.5814 153.562 64.8203 152.961 64.8203Z" fill="#E0E0E0"/>
<path d="M152.961 75.3056H105.34C104.739 75.3056 104.162 75.0668 103.737 74.6416C103.311 74.2165 103.073 73.6398 103.073 73.0386C103.073 72.4373 103.311 71.8607 103.737 71.4355C104.162 71.0103 104.739 70.7715 105.34 70.7715H152.961C153.562 70.7715 154.139 71.0103 154.564 71.4355C154.989 71.8607 155.228 72.4373 155.228 73.0386C155.228 73.6398 154.989 74.2165 154.564 74.6416C154.139 75.0668 153.562 75.3056 152.961 75.3056Z" fill="#E0E0E0"/>
<path d="M11.607 77.9554C11.3123 77.9549 11.0269 77.8526 10.7991 77.6659C10.5712 77.4792 10.4149 77.2194 10.3566 76.9307L9.32519 71.7904C8.7782 69.0638 9.33701 66.2317 10.8787 63.917C12.4204 61.6024 14.8186 59.9948 17.5459 59.4479C20.2732 58.9011 23.106 59.4597 25.4213 61.001C27.7365 62.5423 29.3445 64.94 29.8915 67.6665L30.9226 72.8069C30.9888 73.1384 30.9207 73.4826 30.7333 73.764C30.5459 74.0454 30.2545 74.241 29.9231 74.3079L11.8583 77.9303C11.7756 77.9469 11.6914 77.9553 11.607 77.9554Z" fill="#263238"/>
<path d="M43.6771 154.491L40.4366 154.491L38.8958 141.995L43.6782 141.995L43.6771 154.491Z" fill="#A0616A"/>
<path d="M38.1219 153.565H44.3715V157.499H34.187C34.187 156.456 34.6016 155.455 35.3395 154.718C36.0774 153.98 37.0783 153.565 38.1219 153.565Z" fill="#263238"/>
<path d="M9.91216 154.459L6.92822 153.196L10.383 141.088L14.7867 142.953L9.91216 154.459Z" fill="#A0616A"/>
<path d="M5.15801 151.44L10.9127 153.877L9.37808 157.5L4.82511e-05 153.529C0.201578 153.053 0.494852 152.622 0.863132 152.259C1.23141 151.897 1.66748 151.61 2.14644 151.417C2.62541 151.223 3.13788 151.125 3.6546 151.129C4.17133 151.133 4.68219 151.239 5.15801 151.44V151.44Z" fill="#263238"/>
<path d="M19.9053 76.6674C23.7503 76.6674 26.8673 73.5512 26.8673 69.7072C26.8673 65.8632 23.7503 62.7471 19.9053 62.7471C16.0603 62.7471 12.9434 65.8632 12.9434 69.7072C12.9434 73.5512 16.0603 76.6674 19.9053 76.6674Z" fill="#A0616A"/>
<path d="M20.2347 101.37L20.1633 101.138C18.2662 94.9734 16.3054 88.6015 14.3417 82.5411L14.2886 82.3776L14.4093 82.255C17.4572 79.1552 23.1672 77.9187 27.6916 79.3798C32.245 80.8493 35.3829 84.9712 34.9907 88.9679C34.782 91.3689 35.4272 93.7665 36.8127 95.7387L36.9944 96.0022L36.7104 96.1505C31.6238 98.7674 26.1371 100.52 20.4751 101.335L20.2347 101.37Z" fill="#9E9E9E"/>
<path d="M11.8384 152.214C11.5901 152.213 11.3463 152.147 11.1316 152.023L7.37088 149.852C7.06238 149.676 6.83172 149.39 6.72502 149.051C6.61832 148.712 6.64345 148.346 6.79539 148.025L15.1519 128.202L21.5383 99.2897L33.1772 95.0586L33.2831 95.1073C45.7613 100.838 44.7967 141.912 44.4766 150.088C44.4622 150.432 44.3232 150.759 44.0854 151.008C43.8477 151.257 43.5275 151.411 43.1845 151.442L39.6846 151.899C39.3288 151.93 38.9741 151.827 38.6904 151.61C38.4066 151.393 38.2143 151.078 38.1514 150.726L31.0063 118.802C30.9991 118.742 30.9725 118.685 30.9305 118.641C30.8885 118.596 30.8333 118.567 30.7731 118.556C30.7155 118.545 30.6558 118.553 30.6027 118.578C30.5495 118.603 30.5058 118.644 30.4777 118.696L13.0777 151.487C12.9861 151.652 12.8623 151.796 12.7139 151.913C12.5654 152.029 12.3952 152.114 12.2133 152.163C12.0911 152.196 11.965 152.213 11.8384 152.214V152.214Z" fill="#263238"/>
<path d="M16.0183 123.08C16.2381 122.76 16.3849 122.395 16.4485 122.012C16.512 121.629 16.4908 121.236 16.3862 120.862C16.2816 120.488 16.0962 120.141 15.8431 119.846C15.59 119.552 15.2753 119.316 14.9212 119.156L15.1116 113.086L11.4505 112.071L11.3021 120.646C11.0726 121.259 11.0759 121.934 11.3112 122.544C11.5465 123.155 11.9975 123.657 12.5789 123.957C13.1602 124.257 13.8314 124.334 14.4653 124.172C15.0992 124.01 15.6518 123.622 16.0183 123.08H16.0183Z" fill="#A0616A"/>
<path d="M11.3563 116.664L11.1414 116.663C10.7873 116.661 10.447 116.525 10.1884 116.283C9.92978 116.042 9.77181 115.711 9.74592 115.358C9.39478 110.838 8.31645 95.4401 9.18489 87.092C9.29995 86.313 9.57025 85.565 9.97977 84.8923C10.3893 84.2196 10.9297 83.636 11.569 83.1759C12.2083 82.7159 12.9335 82.3888 13.7015 82.214C14.4696 82.0393 15.2649 82.0205 16.0403 82.1587L16.2639 82.2081L16.2622 82.4371C16.1826 93.4206 16.1878 104.34 16.1927 114.9C16.1935 115.222 16.0842 115.535 15.883 115.787C15.6817 116.039 15.4005 116.215 15.0858 116.285C13.8589 116.539 12.6091 116.666 11.3563 116.664Z" fill="#2196F3"/>
<path d="M19.6906 129.838C18.7534 129.834 17.8499 129.488 17.1494 128.865C16.449 128.243 15.9997 127.386 15.8858 126.456L16.1941 101.107L11.1545 88.3637C10.9425 86.6896 11.3027 84.993 12.1766 83.5493C13.0506 82.1056 14.387 80.9997 15.9689 80.411L17.3162 79.9058C17.5707 79.8104 17.8417 79.7662 18.1134 79.7757C18.3851 79.7852 18.6523 79.8482 18.8995 79.9612C19.1468 80.0742 19.3694 80.2349 19.5544 80.434C19.7394 80.6332 19.8833 80.8669 19.9777 81.1218L25.1742 95.1486L25.1756 95.1691C25.5359 100.752 27.1622 128.537 23.9197 129.366C22.5457 129.688 21.1385 129.846 19.7274 129.837L19.6906 129.838Z" fill="#2196F3"/>
<path d="M49.6284 113.51C49.2683 113.364 48.9446 113.141 48.6802 112.856C48.4157 112.572 48.2169 112.232 48.0977 111.863C47.9785 111.493 47.9418 111.102 47.9903 110.716C48.0388 110.331 48.1712 109.961 48.3782 109.632L44.8706 104.674L47.3641 101.809L52.2192 108.879C52.7485 109.263 53.1185 109.828 53.2589 110.467C53.3994 111.106 53.3006 111.774 52.9812 112.345C52.6619 112.916 52.1442 113.35 51.5262 113.564C50.9083 113.779 50.233 113.76 49.6284 113.51H49.6284Z" fill="#A0616A"/>
<path d="M46.1257 107.139C45.9425 107.133 45.7633 107.084 45.6032 106.995C45.4431 106.905 45.3067 106.779 45.2056 106.626L45.1871 106.598C39.3834 97.8163 33.382 88.7353 27.2996 79.6825L27.2341 79.585L27.3178 79.5025C27.8513 79.0047 28.48 78.6198 29.1661 78.3711C29.8521 78.1224 30.5814 78.0149 31.3101 78.0551C32.0602 78.0688 32.7991 78.2405 33.4783 78.559C34.1576 78.8776 34.762 79.3358 35.2521 79.9037C40.5673 86.3692 48.1532 99.7885 50.3515 103.748C50.4902 103.993 50.5313 104.282 50.4665 104.557C50.4017 104.832 50.2357 105.072 50.0017 105.23C48.9223 105.965 47.7661 106.58 46.5534 107.064C46.4173 107.117 46.2719 107.143 46.1257 107.139Z" fill="#2196F3"/>
<path d="M44.1772 124.188C40.7009 124.19 28.2629 100.247 25.8049 95.4469L25.7837 95.3888L23.0645 80.7016C23.015 80.4343 23.0188 80.1599 23.0757 79.8941C23.1326 79.6283 23.2414 79.3764 23.3959 79.1528C23.5504 78.9291 23.7476 78.7382 23.9761 78.5909C24.2046 78.4437 24.4599 78.343 24.7275 78.2946L26.1436 78.0386C27.8039 77.7344 29.5183 78.0001 31.0084 78.7927C32.4986 79.5853 33.677 80.8582 34.3524 82.4047L37.9055 97.3354L49.786 117.516C50.1761 118.38 50.2335 119.358 49.947 120.263C49.6605 121.167 49.0504 121.934 48.2335 122.416C47.026 123.146 45.7362 123.731 44.3911 124.158C44.3216 124.178 44.2496 124.188 44.1772 124.188H44.1772Z" fill="#2196F3"/>
<path d="M25.3125 69.7673H11.2815V68.067C11.2836 66.1887 12.0309 64.3879 13.3594 63.0598C14.6879 61.7316 16.4891 60.9845 18.3679 60.9824H19.5017C21.3805 60.9845 23.1817 61.7316 24.5102 63.0598C25.8387 64.3879 26.586 66.1887 26.5881 68.067V68.4921C26.5877 68.8302 26.4532 69.1543 26.2141 69.3934C25.975 69.6324 25.6507 69.7669 25.3125 69.7673V69.7673Z" fill="#263238"/>
</g>
<defs>
<clipPath id="clip0">
<rect width="210" height="157.5" fill="white"/>
</clipPath>
</defs>
</svg>
