<svg width="211" height="158" viewBox="0 0 211 158" fill="none" xmlns="http://www.w3.org/2000/svg">
<g clip-path="url(#clip0)">
<path d="M82.1574 43.7224H0.333496V0H82.1574V43.7224Z" fill="white"/>
<path d="M82.0599 0.294922H0.626465V10.6863H82.0599V0.294922Z" fill="#E0E0E0"/>
<path d="M82.1574 43.7224H0.333496V0H82.1574V43.7224ZM0.919346 43.1342H81.5716V0.588192H0.919346V43.1342Z" fill="#BDBDBD"/>
<path d="M37.2484 19.3535C36.8616 19.3548 36.5486 19.8591 36.5493 20.4801C36.5501 21.0993 36.8626 21.601 37.2484 21.6023H70.2737C70.6605 21.601 70.9735 21.0966 70.9728 20.4757C70.972 19.8564 70.6595 19.3547 70.2737 19.3535H37.2484Z" fill="#E0E0E0"/>
<path d="M37.2484 25.8691C36.8616 25.8704 36.5486 26.3748 36.5493 26.9957C36.5501 27.615 36.8626 28.1167 37.2484 28.1179H70.2737C70.6605 28.1166 70.9735 27.6123 70.9728 26.9913C70.972 26.3721 70.6595 25.8704 70.2737 25.8691H37.2484Z" fill="#E0E0E0"/>
<path d="M37.2484 32.3047C36.8616 32.3059 36.5486 32.8103 36.5493 33.4313C36.5501 34.0505 36.8626 34.5522 37.2484 34.5534H51.4592C51.8461 34.5522 52.1591 34.0478 52.1583 33.4268C52.1576 32.8076 51.845 32.3059 51.4592 32.3047H37.2484Z" fill="#E0E0E0"/>
<path d="M20.4798 35.8661C25.4292 35.8661 29.4415 31.8378 29.4415 26.8686C29.4415 21.8994 25.4292 17.8711 20.4798 17.8711C15.5304 17.8711 11.5181 21.8994 11.5181 26.8686C11.5181 31.8378 15.5304 35.8661 20.4798 35.8661Z" fill="#E0E0E0"/>
<path d="M179.604 43.7224H97.7803V0H179.604V43.7224Z" fill="white"/>
<path d="M179.507 0.294922H98.0732V10.6863H179.507V0.294922Z" fill="#E0E0E0"/>
<path d="M179.604 43.7224H97.7803V0H179.604V43.7224ZM98.3661 43.1342H179.018V0.588192H98.3661V43.1342Z" fill="#BDBDBD"/>
<path d="M134.695 19.3535C134.308 19.3548 133.995 19.8591 133.996 20.4801C133.997 21.0993 134.309 21.601 134.695 21.6023H167.72C168.107 21.601 168.42 21.0966 168.42 20.4757C168.419 19.8564 168.106 19.3547 167.72 19.3535H134.695Z" fill="#E0E0E0"/>
<path d="M134.695 25.8691C134.308 25.8704 133.995 26.3748 133.996 26.9957C133.997 27.615 134.309 28.1167 134.695 28.1179H167.72C168.107 28.1166 168.42 27.6123 168.42 26.9913C168.419 26.3721 168.106 25.8704 167.72 25.8691H134.695Z" fill="#E0E0E0"/>
<path d="M134.695 32.3047C134.308 32.3059 133.995 32.8103 133.996 33.4313C133.997 34.0505 134.309 34.5522 134.695 34.5534H148.906C149.293 34.5522 149.606 34.0478 149.605 33.4268C149.604 32.8076 149.292 32.3059 148.906 32.3047H134.695Z" fill="#E0E0E0"/>
<path d="M117.927 35.8661C122.876 35.8661 126.888 31.8378 126.888 26.8686C126.888 21.8994 122.876 17.8711 117.927 17.8711C112.977 17.8711 108.965 21.8994 108.965 26.8686C108.965 31.8378 112.977 35.8661 117.927 35.8661Z" fill="#E0E0E0"/>
<path d="M141.806 86.576H38.1313V31.1777H141.806V86.576Z" fill="white"/>
<path d="M141.682 31.5488H38.5024V44.7152H141.682V31.5488Z" fill="#2196F3"/>
<path d="M141.806 86.576H38.1313V31.1777H141.806V86.576ZM38.8736 85.8307H141.064V31.923H38.8736V85.8307Z" fill="#125386"/>
<path d="M84.9043 55.6992C84.4142 55.7008 84.0176 56.3399 84.0186 57.1267C84.0195 57.9113 84.4155 58.547 84.9043 58.5485H126.749C127.239 58.5469 127.636 57.9078 127.635 57.121C127.634 56.3364 127.238 55.7008 126.749 55.6992H84.9043Z" fill="#E0E0E0"/>
<path d="M84.9043 63.9531C84.4142 63.9547 84.0176 64.5938 84.0186 65.3806C84.0195 66.1652 84.4155 66.8008 84.9043 66.8024H126.749C127.239 66.8008 127.636 66.1617 127.635 65.3749C127.634 64.5903 127.238 63.9547 126.749 63.9531H84.9043Z" fill="#E0E0E0"/>
<path d="M84.9043 72.1094C84.4142 72.1109 84.0176 72.75 84.0186 73.5368C84.0195 74.3214 84.4155 74.9571 84.9043 74.9586H102.91C103.4 74.9571 103.797 74.318 103.796 73.5312C103.795 72.7466 103.399 72.1109 102.91 72.1094H84.9043Z" fill="#E0E0E0"/>
<path d="M63.6581 76.6209C69.9292 76.6209 75.013 71.5168 75.013 65.2206C75.013 58.9244 69.9292 53.8203 63.6581 53.8203C57.387 53.8203 52.3032 58.9244 52.3032 65.2206C52.3032 71.5168 57.387 76.6209 63.6581 76.6209Z" fill="#E0E0E0"/>
<path d="M186.243 150.811L183.472 152.05L177.392 141.909L181.482 140.08L186.243 150.811Z" fill="#FFB6B6"/>
<path d="M188.147 153.191L179.212 157.187L179.162 157.074C178.751 156.148 178.723 155.096 179.085 154.149C179.446 153.203 180.167 152.439 181.09 152.027L181.09 152.027L186.547 149.586L188.147 153.191Z" fill="#263238"/>
<path d="M172.279 94.0673C172.559 93.7967 172.776 93.4677 172.916 93.1036C173.055 92.7395 173.114 92.3491 173.087 91.9599C173.06 91.5707 172.948 91.1922 172.76 90.8509C172.571 90.5097 172.311 90.2141 171.996 89.9849L169.061 65.8574L164.483 66.9891L168.151 90.7175C167.802 91.2735 167.669 91.9384 167.776 92.5864C167.884 93.2344 168.224 93.8204 168.733 94.2333C169.242 94.6462 169.884 94.8573 170.537 94.8267C171.191 94.7961 171.81 94.5259 172.279 94.0673V94.0673Z" fill="#FFB6B6"/>
<path d="M170.713 69.7451C170.505 69.9331 170.242 70.0496 169.964 70.0777L163.975 70.6837C163.787 70.7028 163.597 70.6809 163.418 70.6196C163.239 70.5583 163.075 70.459 162.938 70.3285C162.801 70.1979 162.693 70.0392 162.623 69.8632C162.552 69.6871 162.52 69.4978 162.529 69.3083L162.808 63.2895C162.764 62.8445 162.809 62.3951 162.939 61.9674C163.069 61.5397 163.283 61.1424 163.568 60.7984C163.998 60.2706 164.574 59.8826 165.223 59.6835C165.873 59.4844 166.567 59.4831 167.217 59.6797C167.867 59.8763 168.445 60.2621 168.877 60.7882C169.309 61.3144 169.575 61.9572 169.644 62.6356L171.107 68.4399C171.166 68.6729 171.16 68.9176 171.091 69.1476C171.021 69.3776 170.89 69.5841 170.713 69.7451V69.7451Z" fill="#2196F3"/>
<path d="M166.982 85.1063L150.329 81.7828L150.218 79.4484L150.22 79.4336L152.016 67.4601C151.774 66.9553 149.639 62.2333 152.741 59.5861C153.473 58.9601 154.148 58.2704 154.759 57.5251C155.726 56.3092 156.974 55.3471 158.393 54.7215C159.813 54.0959 161.362 53.8254 162.909 53.9333C163.867 54.0114 164.797 54.2969 165.635 54.7701C166.473 55.2433 167.199 55.893 167.764 56.6745C168.997 58.3355 169.554 60.4051 169.324 62.4637L166.982 85.1063Z" fill="#2196F3"/>
<path d="M150.176 154.236L147.143 154.236L145.699 142.488L150.177 142.489L150.176 154.236Z" fill="#FFB6B6"/>
<path d="M150.95 157.187L141.168 157.187V157.063C141.169 156.049 141.57 155.077 142.284 154.36C142.998 153.643 143.966 153.24 144.976 153.24H144.976L150.95 153.24L150.95 157.187Z" fill="#263238"/>
<path d="M145.517 149.675L144.858 100.757C144.643 93.4481 146.548 86.2338 150.342 79.9925C150.342 79.9925 165.065 79.8682 167.415 84.9609L184.983 146.321L180.034 148.557L159.003 102.599L151.456 149.923L145.517 149.675Z" fill="#263238"/>
<path d="M143.112 67.7039C143.217 67.8173 143.312 67.9388 143.397 68.0672L157.179 68.0823L158.861 65.1758L163.561 67.1507L161.082 72.5867C160.882 73.0259 160.545 73.388 160.122 73.6186C159.7 73.8492 159.214 73.936 158.738 73.8658L143.225 71.5792C142.846 72.0363 142.338 72.3668 141.767 72.5266C141.196 72.6865 140.591 72.6682 140.031 72.4741C139.471 72.28 138.983 71.9193 138.632 71.4401C138.282 70.9609 138.084 70.3857 138.067 69.7913C138.05 69.1968 138.213 68.6111 138.536 68.1121C138.858 67.6131 139.324 67.2245 139.872 66.9979C140.419 66.7713 141.023 66.7175 141.602 66.8436C142.18 66.9697 142.707 67.2698 143.112 67.7039V67.7039Z" fill="#FFB6B6"/>
<path d="M155.91 68.3853L157.917 58.0375C158.127 56.9579 158.728 55.9946 159.604 55.334C160.48 54.6735 161.568 54.3625 162.659 54.4613V54.4613C163.328 54.5219 163.974 54.7342 164.548 55.0823C165.123 55.4303 165.611 55.905 165.976 56.4704C166.341 57.0358 166.573 57.6772 166.655 58.3459C166.737 59.0146 166.666 59.6933 166.448 60.3305L163.31 69.5032L155.91 68.3853Z" fill="#2196F3"/>
<path d="M162.907 51.5312C166.264 51.5312 168.985 48.7994 168.985 45.4296C168.985 42.0599 166.264 39.3281 162.907 39.3281C159.551 39.3281 156.83 42.0599 156.83 45.4296C156.83 48.7994 159.551 51.5312 162.907 51.5312Z" fill="#FFB6B6"/>
<path d="M155.539 41.9834H165.188V37.7602C163.07 36.9154 160.998 36.1969 159.745 37.7602C158.629 37.7602 157.559 38.2052 156.771 38.9972C155.982 39.7892 155.539 40.8633 155.539 41.9834V41.9834Z" fill="#263238"/>
<path d="M165.723 37.0156C171.492 37.0156 173.106 44.2756 173.106 48.3714C173.106 50.6555 172.078 51.4725 170.461 51.7489L169.89 48.6915L168.553 51.8804C168.098 51.8827 167.621 51.8739 167.127 51.8647L166.673 50.9273L165.662 51.8479C161.612 51.8539 158.339 52.4466 158.339 48.3714C158.339 44.2756 159.755 37.0156 165.723 37.0156Z" fill="#263238"/>
<path d="M210.086 157.501H115.814C115.748 157.501 115.685 157.475 115.639 157.428C115.592 157.381 115.566 157.318 115.566 157.252C115.566 157.186 115.592 157.123 115.639 157.077C115.685 157.03 115.748 157.004 115.814 157.004H210.086C210.152 157.004 210.215 157.03 210.261 157.077C210.307 157.123 210.333 157.186 210.333 157.252C210.333 157.318 210.307 157.381 210.261 157.428C210.215 157.475 210.152 157.501 210.086 157.501Z" fill="#BDBDBD"/>
</g>
<defs>
<clipPath id="clip0">
<rect width="210" height="157.5" fill="white" transform="translate(0.333496)"/>
</clipPath>
</defs>
</svg>
