<svg width="32" height="20" viewBox="0 0 32 20" fill="none" xmlns="http://www.w3.org/2000/svg">
<g clip-path="url(#clip0_3584_28729)">
<rect width="32" height="20" fill="white"/>
<path fill-rule="evenodd" clip-rule="evenodd" d="M1.59922 19.8C0.839219 19.8 0.199219 19.16 0.199219 18.4V1.59995C0.199219 0.839951 0.839219 0.199951 1.59922 0.199951H30.3992C31.1592 0.199951 31.7992 0.839951 31.7992 1.59995V18.4C31.7992 19.16 31.1592 19.8 30.3992 19.8H1.59922Z" fill="white"/>
<path d="M15.8811 6.29993L14.3011 13.6999H12.3811L13.9611 6.29993H15.8811V6.29993ZM23.9411 11.0799L24.9411 8.29993L25.5211 11.0799H23.9411ZM26.0811 13.7199H27.8611L26.3211 6.31993H24.6811C24.3211 6.31993 24.0011 6.53993 23.8611 6.85993L20.9811 13.7199H23.0011L23.4011 12.6199H25.8611L26.0811 13.7199ZM21.0811 11.2999C21.0811 9.33993 18.3811 9.23993 18.4011 8.35993C18.4011 8.09993 18.6611 7.81993 19.2211 7.73993C19.5011 7.69993 20.2611 7.67993 21.1011 8.07993L21.4411 6.49993C20.9811 6.33993 20.3811 6.17993 19.6411 6.17993C17.7411 6.17993 16.4211 7.17993 16.4011 8.61993C16.3811 9.67993 17.3611 10.2799 18.0811 10.6399C18.8211 10.9999 19.0811 11.2399 19.0811 11.5599C19.0811 12.0599 18.4811 12.2799 17.9411 12.2799C16.9811 12.2999 16.4211 12.0199 15.9811 11.8199L15.6411 13.4399C16.0811 13.6399 16.9211 13.8199 17.7811 13.8399C19.7611 13.8199 21.0811 12.8399 21.0811 11.2999M13.1411 6.29993L10.0411 13.6999H8.02109L6.48109 7.79993C6.38109 7.43993 6.30109 7.29993 6.02109 7.13993C5.56109 6.89993 4.80109 6.65993 4.12109 6.51993L4.16109 6.29993H7.42109C7.84109 6.29993 8.20109 6.57993 8.30109 7.05993L9.10109 11.3399L11.1011 6.29993H13.1411V6.29993Z" fill="url(#paint0_linear_3584_28729)"/>
</g>
<defs>
<linearGradient id="paint0_linear_3584_28729" x1="6.70249" y1="11.8009" x2="26.6947" y2="7.95933" gradientUnits="userSpaceOnUse">
<stop stop-color="#22275D"/>
<stop offset="1" stop-color="#24479B"/>
</linearGradient>
<clipPath id="clip0_3584_28729">
<rect width="32" height="20" fill="white"/>
</clipPath>
</defs>
</svg>
