<svg width="32" height="20" viewBox="0 0 32 20" fill="none" xmlns="http://www.w3.org/2000/svg">
<g clip-path="url(#clip0_3584_28795)">
<path d="M30.4 0H1.6C0.716344 0 0 0.716344 0 1.6V18.4C0 19.2837 0.716344 20 1.6 20H30.4C31.2837 20 32 19.2837 32 18.4V1.6C32 0.716344 31.2837 0 30.4 0Z" fill="white"/>
<path d="M26.4017 18.209V18.2517H26.4411C26.4498 18.2517 26.4572 18.2496 26.4626 18.2463C26.4676 18.243 26.4705 18.2372 26.4705 18.2301C26.4705 18.2231 26.4676 18.2177 26.4626 18.2144C26.4572 18.2106 26.4498 18.209 26.4411 18.209H26.4017ZM26.4415 18.1791C26.4618 18.1791 26.4776 18.1837 26.4888 18.1928C26.5 18.2019 26.5054 18.2144 26.5054 18.2301C26.5054 18.2434 26.5012 18.2542 26.4921 18.2629C26.4834 18.2712 26.4709 18.2766 26.4543 18.2786L26.5066 18.3388H26.466L26.4174 18.279H26.4017V18.3388H26.3677V18.1791H26.4415ZM26.4311 18.3939C26.4498 18.3939 26.4672 18.3902 26.483 18.3831C26.4991 18.3761 26.5132 18.3665 26.5253 18.3545C26.5373 18.3425 26.5468 18.3284 26.5539 18.3118C26.5605 18.2956 26.5642 18.2782 26.5642 18.2596C26.5642 18.2409 26.5605 18.2235 26.5539 18.2073C26.5468 18.1911 26.5373 18.1766 26.5253 18.1646C26.5132 18.1526 26.4991 18.143 26.483 18.136C26.4672 18.1294 26.4498 18.126 26.4311 18.126C26.4125 18.126 26.3946 18.1294 26.3785 18.136C26.3619 18.143 26.3474 18.1526 26.3353 18.1646C26.3233 18.1766 26.3138 18.1911 26.3071 18.2073C26.3001 18.2235 26.2968 18.2409 26.2968 18.2596C26.2968 18.2782 26.3001 18.2956 26.3071 18.3118C26.3138 18.3284 26.3233 18.3425 26.3353 18.3545C26.3474 18.3665 26.3619 18.3761 26.3785 18.3831C26.3946 18.3902 26.4125 18.3939 26.4311 18.3939ZM26.4311 18.0875C26.4556 18.0875 26.478 18.092 26.4995 18.1012C26.5207 18.1099 26.5389 18.1223 26.5551 18.1381C26.5709 18.1534 26.5833 18.1716 26.5924 18.1928C26.6016 18.2135 26.6061 18.2359 26.6061 18.2596C26.6061 18.2832 26.6016 18.3056 26.5924 18.3263C26.5833 18.3471 26.5709 18.3653 26.5551 18.3811C26.5389 18.3964 26.5207 18.4088 26.4995 18.418C26.478 18.4271 26.4556 18.4316 26.4311 18.4316C26.4062 18.4316 26.3834 18.4271 26.3619 18.418C26.3403 18.4088 26.3217 18.3964 26.3059 18.3811C26.2901 18.3653 26.2777 18.3471 26.2686 18.3263C26.2595 18.3056 26.2549 18.2832 26.2549 18.2596C26.2549 18.2359 26.2595 18.2135 26.2686 18.1928C26.2777 18.1716 26.2901 18.1534 26.3059 18.1381C26.3217 18.1223 26.3403 18.1099 26.3619 18.1012C26.3834 18.092 26.4062 18.0875 26.4311 18.0875ZM10.2756 17.4725C10.2756 17.1682 10.475 16.9181 10.8009 16.9181C11.1123 16.9181 11.3226 17.1574 11.3226 17.4725C11.3226 17.7877 11.1123 18.0269 10.8009 18.0269C10.475 18.0269 10.2756 17.7769 10.2756 17.4725ZM11.6775 17.4725V16.6067H11.301V16.817C11.1816 16.661 11.0004 16.5632 10.7541 16.5632C10.2685 16.5632 9.88786 16.9438 9.88786 17.4725C9.88786 18.0016 10.2685 18.3819 10.7541 18.3819C11.0004 18.3819 11.1816 18.284 11.301 18.1281V18.3383H11.6775V17.4725ZM24.401 17.4725C24.401 17.1682 24.6004 16.9181 24.9263 16.9181C25.2381 16.9181 25.448 17.1574 25.448 17.4725C25.448 17.7877 25.2381 18.0269 24.9263 18.0269C24.6004 18.0269 24.401 17.7769 24.401 17.4725ZM25.8033 17.4725V15.9113H25.4264V16.817C25.307 16.661 25.1258 16.5632 24.8795 16.5632C24.3939 16.5632 24.0132 16.9438 24.0132 17.4725C24.0132 18.0016 24.3939 18.3819 24.8795 18.3819C25.1258 18.3819 25.307 18.284 25.4264 18.1281V18.3383H25.8033V17.4725ZM16.3512 16.9003C16.5937 16.9003 16.7496 17.0525 16.7895 17.3204H15.8909C15.9311 17.0703 16.0829 16.9003 16.3512 16.9003ZM16.3586 16.5632C15.8511 16.5632 15.4961 16.9326 15.4961 17.4725C15.4961 18.0232 15.8656 18.3819 16.3839 18.3819C16.6447 18.3819 16.8836 18.3168 17.0938 18.1393L16.9093 17.8602C16.7642 17.9759 16.5792 18.0414 16.4055 18.0414C16.1629 18.0414 15.9419 17.9291 15.8876 17.6172H17.1734C17.1772 17.5704 17.1809 17.5231 17.1809 17.4725C17.1772 16.9326 16.8438 16.5632 16.3586 16.5632ZM20.905 17.4725C20.905 17.1682 21.1044 16.9181 21.4303 16.9181C21.7417 16.9181 21.952 17.1574 21.952 17.4725C21.952 17.7877 21.7417 18.0269 21.4303 18.0269C21.1044 18.0269 20.905 17.7769 20.905 17.4725ZM22.3069 17.4725V16.6067H21.9304V16.817C21.8106 16.661 21.6298 16.5632 21.3835 16.5632C20.8979 16.5632 20.5172 16.9438 20.5172 17.4725C20.5172 18.0016 20.8979 18.3819 21.3835 18.3819C21.6298 18.3819 21.8106 18.284 21.9304 18.1281V18.3383H22.3069V17.4725ZM18.7786 17.4725C18.7786 17.9979 19.1443 18.3819 19.7024 18.3819C19.9633 18.3819 20.137 18.3238 20.3253 18.1754L20.1445 17.871C20.0031 17.9726 19.8546 18.0269 19.6912 18.0269C19.3906 18.0232 19.1696 17.8059 19.1696 17.4725C19.1696 17.1391 19.3906 16.9219 19.6912 16.9181C19.8546 16.9181 20.0031 16.9725 20.1445 17.074L20.3253 16.7697C20.137 16.6212 19.9633 16.5632 19.7024 16.5632C19.1443 16.5632 18.7786 16.9472 18.7786 17.4725ZM23.633 16.5632C23.4157 16.5632 23.2743 16.6648 23.1765 16.817V16.6067H22.8033V18.3383H23.1802V17.3676C23.1802 17.0811 23.3033 16.9219 23.5497 16.9219C23.626 16.9219 23.7056 16.9326 23.7852 16.9654L23.9013 16.6105C23.8179 16.5777 23.7093 16.5632 23.633 16.5632ZM13.5398 16.7444C13.3586 16.625 13.1089 16.5632 12.8336 16.5632C12.3949 16.5632 12.1125 16.7734 12.1125 17.1176C12.1125 17.4 12.3227 17.5741 12.71 17.6284L12.8879 17.6537C13.0944 17.6828 13.1919 17.7371 13.1919 17.8349C13.1919 17.9689 13.0542 18.0452 12.7971 18.0452C12.5363 18.0452 12.348 17.9618 12.2211 17.864L12.0437 18.1571C12.2502 18.3093 12.511 18.3819 12.7934 18.3819C13.2935 18.3819 13.5833 18.1464 13.5833 17.8167C13.5833 17.5123 13.3552 17.3531 12.9783 17.2988L12.8008 17.2731C12.6379 17.2515 12.5073 17.2192 12.5073 17.1031C12.5073 16.9762 12.6304 16.9003 12.8369 16.9003C13.0579 16.9003 13.2719 16.9836 13.3768 17.0488L13.5398 16.7444ZM18.3979 16.5632C18.1806 16.5632 18.0392 16.6648 17.9418 16.817V16.6067H17.5686V18.3383H17.9451V17.3676C17.9451 17.0811 18.0683 16.9219 18.3146 16.9219C18.3909 16.9219 18.4705 16.9326 18.5501 16.9654L18.6662 16.6105C18.5829 16.5777 18.4742 16.5632 18.3979 16.5632ZM15.1847 16.6067H14.569V16.0813H14.1883V16.6067H13.8371V16.9509H14.1883V17.7408C14.1883 18.1426 14.3442 18.3819 14.7896 18.3819C14.9529 18.3819 15.1412 18.3313 15.2606 18.2479L15.152 17.9253C15.0396 17.9904 14.9164 18.0232 14.8186 18.0232C14.6303 18.0232 14.569 17.9071 14.569 17.7334V16.9509H15.1847V16.6067ZM9.55489 18.3383V17.2515C9.55489 16.8422 9.29406 16.5669 8.8736 16.5632C8.65259 16.5595 8.42452 16.6283 8.26488 16.8713C8.14546 16.6793 7.9572 16.5632 7.69265 16.5632C7.50771 16.5632 7.32692 16.6175 7.18552 16.8203V16.6067H6.80859V18.3383H7.18884V17.3784C7.18884 17.0778 7.35553 16.9181 7.61303 16.9181C7.86307 16.9181 7.98954 17.0811 7.98954 17.3747V18.3383H8.3702V17.3784C8.3702 17.0778 8.54395 16.9181 8.79399 16.9181C9.05107 16.9181 9.17423 17.0811 9.17423 17.3747V18.3383H9.55489Z" fill="#231F20"/>
<path d="M26.6354 12.5791V12.3262H26.5694L26.4931 12.4999L26.4173 12.3262H26.3509V12.5791H26.3978V12.3884L26.4691 12.553H26.5176L26.5889 12.3879V12.5791H26.6354ZM26.217 12.5791V12.3693H26.3016V12.3266H26.0859V12.3693H26.1705V12.5791H26.217Z" fill="#F79410"/>
<path d="M19.1361 13.6675H13.4297V3.41211H19.1361V13.6675Z" fill="#FF5F00"/>
<path d="M13.7954 8.53909C13.7954 6.45875 14.7694 4.60563 16.2862 3.41141C15.177 2.53814 13.7771 2.01691 12.2557 2.01691C8.65399 2.01691 5.73438 4.93694 5.73438 8.53909C5.73438 12.1412 8.65399 15.0613 12.2557 15.0613C13.7771 15.0613 15.177 14.5401 16.2862 13.6668C14.7694 12.4726 13.7954 10.6194 13.7954 8.53909Z" fill="#EB001B"/>
<path d="M26.8335 8.53909C26.8335 12.1412 23.9139 15.0613 20.3122 15.0613C18.7908 15.0613 17.3909 14.5401 16.2812 13.6668C17.7985 12.4726 18.7725 10.6194 18.7725 8.53909C18.7725 6.45875 17.7985 4.60563 16.2812 3.41141C17.3909 2.53814 18.7908 2.01691 20.3122 2.01691C23.9139 2.01691 26.8335 4.93694 26.8335 8.53909Z" fill="#F79E1B"/>
</g>
<defs>
<clipPath id="clip0_3584_28795">
<rect width="32" height="20" fill="white"/>
</clipPath>
</defs>
</svg>
