<svg width="32" height="32" viewBox="0 0 32 32" fill="none" xmlns="http://www.w3.org/2000/svg">
<g id="news 1" clip-path="url(#clip0_1264_3553)">
<g id="Group">
<path id="Vector" d="M32 1.36502V28.7071C32 30.5257 30.5257 32 28.7071 32H6.58508V1.36502C6.58508 0.611137 7.19622 0 7.9501 0H30.635C31.3888 0 32 0.611137 32 1.36502Z" fill="url(#paint0_linear_1264_3553)"/>
<path id="Vector_2" d="M32 1.36502V28.6529C32 30.4586 30.569 31.9693 28.7636 31.9995C26.9194 32.0304 25.4149 30.5449 25.4149 28.7071V0H30.635C31.3889 0 32 0.611137 32 1.36502Z" fill="url(#paint1_linear_1264_3553)"/>
<path id="Vector_3" d="M25.1398 4.59082H21.7979V32H28.7071C30.5257 32 32 30.5257 32 28.7071V11.4509L25.1398 4.59082Z" fill="url(#paint2_linear_1264_3553)"/>
<path id="Vector_4" d="M25.4147 28.7073C25.4147 30.5258 26.8889 31.9999 28.7073 31.9999H3.29261C1.4742 31.9999 0 30.5257 0 28.7073V5.39798C0 4.6441 0.611137 4.03296 1.36502 4.03296H24.0497C24.8036 4.03296 25.4147 4.6441 25.4147 5.39798V28.7073Z" fill="url(#paint3_linear_1264_3553)"/>
<path id="Vector_5" d="M0 21.115V28.7074C0 30.5258 1.4742 32 3.29261 32H28.7073C26.8888 32 25.4147 30.5258 25.4147 28.7073V21.115H0Z" fill="url(#paint4_linear_1264_3553)"/>
<path id="Vector_6" d="M21.36 20.4863H3.44587C3.05102 20.4863 2.73096 20.1662 2.73096 19.7714V8.90315C2.73096 8.50829 3.05102 8.18823 3.44587 8.18823H21.969C22.3638 8.18823 22.6839 8.50829 22.6839 8.90315V19.1624C22.6839 19.8935 22.0911 20.4863 21.36 20.4863Z" fill="url(#paint5_linear_1264_3553)"/>
<g id="Group_2">
<path id="Vector_7" d="M13.7548 20.4865H4.42484C4.20278 20.4865 4.02283 20.3065 4.02283 20.0845C4.02283 17.9397 5.76156 16.2009 7.90637 16.2009H10.2734C12.4182 16.2009 14.1569 17.9397 14.1569 20.0845C14.1569 20.3065 13.9769 20.4865 13.7548 20.4865Z" fill="url(#paint6_linear_1264_3553)"/>
<path id="Vector_8" d="M4.02283 20.0843C4.02283 20.3064 4.20284 20.4863 4.42484 20.4863H13.7548C13.9769 20.4863 14.1569 20.3063 14.1569 20.0843C14.1569 19.7764 14.1208 19.4769 14.0531 19.1897H4.12654C4.05884 19.4769 4.02283 19.7764 4.02283 20.0843Z" fill="url(#paint7_linear_1264_3553)"/>
<g id="Group_3">
<path id="Vector_9" d="M9.08984 15.5723C10.8488 15.5723 12.2747 14.1464 12.2747 12.3875C12.2747 10.6285 10.8488 9.20264 9.08984 9.20264C7.33092 9.20264 5.90503 10.6285 5.90503 12.3875C5.90503 14.1464 7.33092 15.5723 9.08984 15.5723Z" fill="url(#paint8_linear_1264_3553)"/>
<path id="Vector_10" d="M9.08984 15.5723C10.8488 15.5723 12.2747 14.1464 12.2747 12.3875H5.90503C5.90503 14.1464 7.33091 15.5723 9.08984 15.5723Z" fill="url(#paint9_linear_1264_3553)"/>
</g>
</g>
<g id="Group_4">
<path id="Vector_11" d="M10.152 24.1184H3.91858C3.10057 24.1184 2.52789 23.3577 2.79901 22.6313C2.96598 22.1839 3.41486 21.8845 3.91858 21.8845H10.152C10.97 21.8845 11.5427 22.6452 11.2715 23.3716C11.1046 23.819 10.6558 24.1184 10.152 24.1184Z" fill="url(#paint10_linear_1264_3553)"/>
<g id="Group_5">
<g id="Group_6">
<g id="Group_7">
<path id="Vector_12" d="M2.73096 26.1269C2.73096 26.4514 2.99405 26.7145 3.31856 26.7145H8.97598C9.30049 26.7145 9.56358 26.4514 9.56358 26.1269C9.56358 25.8024 9.30049 25.5393 8.97598 25.5393H3.31856C2.99405 25.5392 2.73096 25.8023 2.73096 26.1269Z" fill="#7BACDF"/>
<path id="Vector_13" d="M10.1611 26.1269C10.1611 26.4514 10.4242 26.7145 10.7487 26.7145H11.7542C12.0787 26.7145 12.3418 26.4514 12.3418 26.1269C12.3418 25.8024 12.0787 25.5393 11.7542 25.5393H10.7487C10.4242 25.5392 10.1611 25.8023 10.1611 26.1269Z" fill="#7BACDF"/>
</g>
<g id="Group_8">
<path id="Vector_14" d="M2.73096 28.3469C2.73096 28.6714 2.99405 28.9345 3.31856 28.9345H7.29297C7.61748 28.9345 7.88057 28.6714 7.88057 28.3469C7.88057 28.0224 7.61748 27.7593 7.29297 27.7593H3.31856C2.99405 27.7593 2.73096 28.0224 2.73096 28.3469Z" fill="#7BACDF"/>
<path id="Vector_15" d="M10.1611 28.3469C10.1611 28.6714 10.4242 28.9345 10.7487 28.9345H11.7542C12.0787 28.9345 12.3418 28.6714 12.3418 28.3469C12.3418 28.0224 12.0787 27.7593 11.7542 27.7593H10.7487C10.4242 27.7593 10.1611 28.0224 10.1611 28.3469Z" fill="#7BACDF"/>
</g>
</g>
<g id="Group_9">
<g id="Group_10">
<path id="Vector_16" d="M13.073 28.3469C13.073 28.6714 13.3361 28.9345 13.6606 28.9345H18.7696C19.0941 28.9345 19.3572 28.6714 19.3572 28.3469C19.3572 28.0224 19.0941 27.7593 18.7696 27.7593H13.6606C13.3361 27.7593 13.073 28.0224 13.073 28.3469Z" fill="#7BACDF"/>
<path id="Vector_17" d="M20.5032 28.3469C20.5032 28.6714 20.7663 28.9345 21.0908 28.9345H22.0963C22.4208 28.9345 22.6839 28.6714 22.6839 28.3469C22.6839 28.0224 22.4208 27.7593 22.0963 27.7593H21.0908C20.7663 27.7593 20.5032 28.0224 20.5032 28.3469Z" fill="#7BACDF"/>
</g>
<g id="Group_11">
<path id="Vector_18" d="M13.073 26.1269C13.073 26.4514 13.3361 26.7145 13.6606 26.7145H17.0866C17.4111 26.7145 17.6742 26.4514 17.6742 26.1269C17.6742 25.8024 17.4111 25.5393 17.0866 25.5393H13.6606C13.3361 25.5392 13.073 25.8023 13.073 26.1269Z" fill="#7BACDF"/>
<path id="Vector_19" d="M20.5032 26.1269C20.5032 26.4514 20.7663 26.7145 21.0908 26.7145H22.0963C22.4208 26.7145 22.6839 26.4514 22.6839 26.1269C22.6839 25.8024 22.4208 25.5393 22.0963 25.5393H21.0908C20.7663 25.5392 20.5032 25.8023 20.5032 26.1269Z" fill="#7BACDF"/>
</g>
</g>
</g>
</g>
<path id="Vector_20" d="M22.2133 6.87062H3.20155C2.94166 6.87062 2.73096 6.65992 2.73096 6.40003C2.73096 6.14014 2.94166 5.92944 3.20155 5.92944H22.2133C22.4732 5.92944 22.6839 6.14014 22.6839 6.40003C22.6839 6.65992 22.4732 6.87062 22.2133 6.87062Z" fill="#7BACDF"/>
<g id="Group_12">
<path id="Vector_21" d="M22.684 19.1658C22.684 22.2787 20.1606 24.8021 17.0477 24.8021C14.1745 24.8021 11.8034 22.6521 11.4554 19.8731C11.4264 19.6414 11.6167 19.3567 11.6167 19.1171C11.6167 17.7414 11.9043 16.5295 12.7231 15.551C13.757 14.3154 15.3106 13.5295 17.0477 13.5295C20.1606 13.5295 22.684 16.053 22.684 19.1658Z" fill="url(#paint11_linear_1264_3553)"/>
<path id="Vector_22" d="M11.4115 19.1658C11.4115 22.2786 13.935 24.8021 17.0478 24.8021V19.5173L11.6213 17.6367C11.4847 18.123 11.4115 18.6358 11.4115 19.1658Z" fill="url(#paint12_linear_1264_3553)"/>
<path id="Vector_23" d="M22.4742 17.6367L17.0477 19.5172V13.5295C19.6304 13.5295 21.8076 15.2668 22.4742 17.6367Z" fill="url(#paint13_linear_1264_3553)"/>
<path id="Vector_24" d="M22.684 19.1658C22.684 22.2786 20.1605 24.8021 17.0477 24.8021V19.5173L22.4742 17.6367C22.6108 18.123 22.684 18.6358 22.684 19.1658Z" fill="url(#paint14_linear_1264_3553)"/>
<g id="Group_13">
<path id="Vector_25" d="M16.7714 15.283H17.324V17.111H16.7714V15.283Z" fill="url(#paint15_linear_1264_3553)"/>
<g id="Group_14">
<path id="Vector_26" d="M19.3895 19.0077L19.2085 18.4856L20.9357 17.887L21.1167 18.4091L19.3895 19.0077Z" fill="url(#paint16_linear_1264_3553)"/>
<path id="Vector_27" d="M19.3307 23.0128L18.2196 21.5612L18.6584 21.2253L19.7695 22.677L19.3307 23.0128Z" fill="url(#paint17_linear_1264_3553)"/>
</g>
<g id="Group_15">
<path id="Vector_28" d="M14.7059 19.0077L12.9786 18.4091L13.1596 17.887L14.8868 18.4856L14.7059 19.0077Z" fill="url(#paint18_linear_1264_3553)"/>
<path id="Vector_29" d="M14.7646 23.0128L14.3258 22.677L15.4369 21.2253L15.8757 21.5612L14.7646 23.0128Z" fill="url(#paint19_linear_1264_3553)"/>
</g>
</g>
<path id="Vector_30" d="M11.4554 19.873C11.8034 22.652 14.1744 24.8021 17.0477 24.8021C19.9209 24.8021 22.2919 22.652 22.6399 19.873H11.4554Z" fill="url(#paint20_linear_1264_3553)"/>
<path id="Vector_31" d="M16.7225 17.0123L14.7355 18.456C14.5416 18.5968 14.4605 18.8465 14.5346 19.0744L15.2935 21.4103C15.3676 21.6381 15.58 21.7924 15.8196 21.7924H18.2757C18.5153 21.7924 18.7277 21.6381 18.8018 21.4103L19.5607 19.0744C19.6348 18.8466 19.5536 18.5969 19.3598 18.456L17.3728 17.0124C17.1789 16.8715 16.9164 16.8715 16.7225 17.0123Z" fill="url(#paint21_linear_1264_3553)"/>
<g id="Group_16">
<path id="Vector_32" d="M21.3722 15.551C21.354 15.5842 21.3392 15.6194 21.3279 15.6564L20.6193 18.008C20.5501 18.2375 20.6366 18.4854 20.8335 18.622L22.6395 19.8759C22.6689 19.6434 22.6839 19.4062 22.6839 19.1658C22.684 17.7901 22.1911 16.5295 21.3722 15.551Z" fill="url(#paint22_linear_1264_3553)"/>
<path id="Vector_33" d="M19.0328 22.8228L18.4928 24.6151C19.8008 24.2692 20.9226 23.4646 21.6754 22.3838L19.5504 22.4295C19.3111 22.4347 19.102 22.5934 19.0328 22.8228Z" fill="url(#paint23_linear_1264_3553)"/>
<path id="Vector_34" d="M19.4984 14.089C18.7576 13.7305 17.9261 13.5295 17.0477 13.5295C16.1693 13.5295 15.3378 13.7305 14.5969 14.089C14.6332 14.1444 14.6796 14.1942 14.7355 14.2349L16.7226 15.6784C16.9164 15.8192 17.179 15.8192 17.3729 15.6784L19.36 14.2349C19.4158 14.1941 19.4622 14.1444 19.4984 14.089Z" fill="url(#paint24_linear_1264_3553)"/>
<path id="Vector_35" d="M13.4761 18.008L12.7674 15.6564C12.7561 15.6193 12.7413 15.5842 12.7232 15.551C11.9043 16.5295 11.4114 17.7901 11.4114 19.1658C11.4114 19.4063 11.4264 19.6434 11.4558 19.8759L13.2619 18.622C13.4588 18.4854 13.5453 18.2375 13.4761 18.008Z" fill="url(#paint25_linear_1264_3553)"/>
<path id="Vector_36" d="M14.545 22.4295L12.42 22.3838C13.1729 23.4646 14.2946 24.2692 15.6027 24.6151L15.0627 22.8228C14.9935 22.5933 14.7844 22.4346 14.545 22.4295Z" fill="url(#paint26_linear_1264_3553)"/>
</g>
<path id="Vector_37" d="M14.7223 19.6521L15.2936 21.4103C15.3676 21.6382 15.58 21.7925 15.8196 21.7925H18.2757C18.5154 21.7925 18.7277 21.6382 18.8018 21.4103L19.3731 19.6521H14.7223Z" fill="url(#paint27_linear_1264_3553)"/>
<g id="Group_17">
<path id="Vector_38" d="M19.5504 22.4295C19.3111 22.4346 19.102 22.5933 19.0328 22.8228L18.4928 24.6151C19.8008 24.2692 20.9226 23.4646 21.6754 22.3838L19.5504 22.4295Z" fill="url(#paint28_linear_1264_3553)"/>
<path id="Vector_39" d="M14.545 22.4295L12.42 22.3838C13.1729 23.4646 14.2946 24.2692 15.6027 24.6151L15.0627 22.8228C14.9935 22.5933 14.7844 22.4346 14.545 22.4295Z" fill="url(#paint29_linear_1264_3553)"/>
</g>
</g>
</g>
</g>
<defs>
<linearGradient id="paint0_linear_1264_3553" x1="0.74571" y1="-2.14701" x2="19.2324" y2="16.3397" gradientUnits="userSpaceOnUse">
<stop stop-color="#EAF6FF"/>
<stop offset="1" stop-color="#B3DAFE"/>
</linearGradient>
<linearGradient id="paint1_linear_1264_3553" x1="28.7075" y1="24.9098" x2="28.7075" y2="33.5913" gradientUnits="userSpaceOnUse">
<stop stop-color="#8AC9FE" stop-opacity="0"/>
<stop offset="0.0634" stop-color="#85C2F3" stop-opacity="0.063"/>
<stop offset="0.3677" stop-color="#70A3C3" stop-opacity="0.368"/>
<stop offset="0.6362" stop-color="#608CA0" stop-opacity="0.636"/>
<stop offset="0.8561" stop-color="#577E8B" stop-opacity="0.856"/>
<stop offset="1" stop-color="#537983"/>
</linearGradient>
<linearGradient id="paint2_linear_1264_3553" x1="31.9372" y1="18.2954" x2="21.3483" y2="18.2954" gradientUnits="userSpaceOnUse">
<stop stop-color="#8AC9FE" stop-opacity="0"/>
<stop offset="0.0634" stop-color="#85C2F3" stop-opacity="0.063"/>
<stop offset="0.3677" stop-color="#70A3C3" stop-opacity="0.368"/>
<stop offset="0.6362" stop-color="#608CA0" stop-opacity="0.636"/>
<stop offset="0.8561" stop-color="#577E8B" stop-opacity="0.856"/>
<stop offset="1" stop-color="#537983"/>
</linearGradient>
<linearGradient id="paint3_linear_1264_3553" x1="8.35395" y1="13.0984" x2="23.6276" y2="28.3721" gradientUnits="userSpaceOnUse">
<stop stop-color="#EAF6FF"/>
<stop offset="1" stop-color="#B3DAFE"/>
</linearGradient>
<linearGradient id="paint4_linear_1264_3553" x1="14.3537" y1="28.6118" x2="14.3537" y2="33.3953" gradientUnits="userSpaceOnUse">
<stop stop-color="#8AC9FE" stop-opacity="0"/>
<stop offset="0.0634" stop-color="#85C2F3" stop-opacity="0.063"/>
<stop offset="0.3677" stop-color="#70A3C3" stop-opacity="0.368"/>
<stop offset="0.6362" stop-color="#608CA0" stop-opacity="0.636"/>
<stop offset="0.8561" stop-color="#577E8B" stop-opacity="0.856"/>
<stop offset="1" stop-color="#537983"/>
</linearGradient>
<linearGradient id="paint5_linear_1264_3553" x1="3.99985" y1="5.62968" x2="25.8937" y2="27.5235" gradientUnits="userSpaceOnUse">
<stop stop-color="#CECECE"/>
<stop offset="1" stop-color="#838383"/>
</linearGradient>
<linearGradient id="paint6_linear_1264_3553" x1="8.34509" y1="17.6691" x2="10.2094" y2="22.9675" gradientUnits="userSpaceOnUse">
<stop stop-color="#838383"/>
<stop offset="1" stop-color="#5A5A5A"/>
</linearGradient>
<linearGradient id="paint7_linear_1264_3553" x1="9.08987" y1="19.4562" x2="9.08987" y2="21.6607" gradientUnits="userSpaceOnUse">
<stop stop-color="#444444" stop-opacity="0"/>
<stop offset="0.0602" stop-color="#414141" stop-opacity="0.06"/>
<stop offset="0.6562" stop-color="#252525" stop-opacity="0.656"/>
<stop offset="1" stop-color="#1A1A1A"/>
</linearGradient>
<linearGradient id="paint8_linear_1264_3553" x1="7.77715" y1="11.0748" x2="12.6536" y2="15.9513" gradientUnits="userSpaceOnUse">
<stop stop-color="#838383"/>
<stop offset="1" stop-color="#5A5A5A"/>
</linearGradient>
<linearGradient id="paint9_linear_1264_3553" x1="9.08985" y1="13.1052" x2="9.08985" y2="16.3036" gradientUnits="userSpaceOnUse">
<stop stop-color="#444444" stop-opacity="0"/>
<stop offset="0.0602" stop-color="#414141" stop-opacity="0.06"/>
<stop offset="0.6562" stop-color="#252525" stop-opacity="0.656"/>
<stop offset="1" stop-color="#1A1A1A"/>
</linearGradient>
<linearGradient id="paint10_linear_1264_3553" x1="7.03525" y1="22.3399" x2="7.03525" y2="23.6153" gradientUnits="userSpaceOnUse">
<stop stop-color="#FD4755"/>
<stop offset="1" stop-color="#D2024E"/>
</linearGradient>
<linearGradient id="paint11_linear_1264_3553" x1="14.2336" y1="14.5131" x2="15.8914" y2="17.2539" gradientUnits="userSpaceOnUse">
<stop stop-color="#EAF6FF"/>
<stop offset="1" stop-color="#D8ECFE"/>
</linearGradient>
<linearGradient id="paint12_linear_1264_3553" x1="13.9769" y1="19.7223" x2="12.5623" y2="17.4088" gradientUnits="userSpaceOnUse">
<stop stop-color="#D8ECFE" stop-opacity="0"/>
<stop offset="0.1354" stop-color="#CAE5FE" stop-opacity="0.135"/>
<stop offset="0.5015" stop-color="#A7D6FE" stop-opacity="0.501"/>
<stop offset="0.8028" stop-color="#92CDFE" stop-opacity="0.803"/>
<stop offset="1" stop-color="#8AC9FE"/>
</linearGradient>
<linearGradient id="paint13_linear_1264_3553" x1="18.7682" y1="17.1076" x2="15.7769" y2="14.6468" gradientUnits="userSpaceOnUse">
<stop stop-color="#D8ECFE" stop-opacity="0"/>
<stop offset="0.1354" stop-color="#CAE5FE" stop-opacity="0.135"/>
<stop offset="0.5015" stop-color="#A7D6FE" stop-opacity="0.501"/>
<stop offset="0.8028" stop-color="#92CDFE" stop-opacity="0.803"/>
<stop offset="1" stop-color="#8AC9FE"/>
</linearGradient>
<linearGradient id="paint14_linear_1264_3553" x1="19.6586" y1="20.9292" x2="18.7302" y2="18.2989" gradientUnits="userSpaceOnUse">
<stop stop-color="#D8ECFE" stop-opacity="0"/>
<stop offset="0.1354" stop-color="#CAE5FE" stop-opacity="0.135"/>
<stop offset="0.5015" stop-color="#A7D6FE" stop-opacity="0.501"/>
<stop offset="0.8028" stop-color="#92CDFE" stop-opacity="0.803"/>
<stop offset="1" stop-color="#8AC9FE"/>
</linearGradient>
<linearGradient id="paint15_linear_1264_3553" x1="17.3129" y1="16.197" x2="16.6703" y2="16.197" gradientUnits="userSpaceOnUse">
<stop stop-color="#EAF6FF"/>
<stop offset="1" stop-color="#B3DAFE"/>
</linearGradient>
<linearGradient id="paint16_linear_1264_3553" x1="20.4731" y1="19.333" x2="20.0973" y2="18.261" gradientUnits="userSpaceOnUse">
<stop stop-color="#EAF6FF"/>
<stop offset="1" stop-color="#B3DAFE"/>
</linearGradient>
<linearGradient id="paint17_linear_1264_3553" x1="18.7738" y1="22.3398" x2="19.1549" y2="21.9588" gradientUnits="userSpaceOnUse">
<stop stop-color="#D8ECFE"/>
<stop offset="1" stop-color="#B3DAFE"/>
</linearGradient>
<linearGradient id="paint18_linear_1264_3553" x1="13.8714" y1="18.6427" x2="14.1043" y2="17.9005" gradientUnits="userSpaceOnUse">
<stop stop-color="#EAF6FF"/>
<stop offset="1" stop-color="#B3DAFE"/>
</linearGradient>
<linearGradient id="paint19_linear_1264_3553" x1="15.1723" y1="22.1906" x2="14.8689" y2="21.8872" gradientUnits="userSpaceOnUse">
<stop stop-color="#D8ECFE"/>
<stop offset="1" stop-color="#B3DAFE"/>
</linearGradient>
<linearGradient id="paint20_linear_1264_3553" x1="17.1987" y1="20.7477" x2="17.8397" y2="24.3726" gradientUnits="userSpaceOnUse">
<stop stop-color="#8AC9FE" stop-opacity="0"/>
<stop offset="0.0634" stop-color="#85C2F3" stop-opacity="0.063"/>
<stop offset="0.3677" stop-color="#70A3C3" stop-opacity="0.368"/>
<stop offset="0.6362" stop-color="#608CA0" stop-opacity="0.636"/>
<stop offset="0.8561" stop-color="#577E8B" stop-opacity="0.856"/>
<stop offset="1" stop-color="#537983"/>
</linearGradient>
<linearGradient id="paint21_linear_1264_3553" x1="15.8423" y1="18.1106" x2="17.7983" y2="20.5307" gradientUnits="userSpaceOnUse">
<stop stop-color="#5A5A5A"/>
<stop offset="1" stop-color="#444444"/>
</linearGradient>
<linearGradient id="paint22_linear_1264_3553" x1="16.8713" y1="12.8613" x2="21.962" y2="17.952" gradientUnits="userSpaceOnUse">
<stop stop-color="#5A5A5A"/>
<stop offset="1" stop-color="#444444"/>
</linearGradient>
<linearGradient id="paint23_linear_1264_3553" x1="13.1586" y1="16.574" x2="18.2493" y2="21.6647" gradientUnits="userSpaceOnUse">
<stop stop-color="#5A5A5A"/>
<stop offset="1" stop-color="#444444"/>
</linearGradient>
<linearGradient id="paint24_linear_1264_3553" x1="16.8079" y1="13.7702" x2="17.913" y2="15.2437" gradientUnits="userSpaceOnUse">
<stop stop-color="#5A5A5A"/>
<stop offset="1" stop-color="#444444"/>
</linearGradient>
<linearGradient id="paint25_linear_1264_3553" x1="11.8716" y1="17.4031" x2="12.8442" y2="18.7882" gradientUnits="userSpaceOnUse">
<stop stop-color="#5A5A5A"/>
<stop offset="1" stop-color="#444444"/>
</linearGradient>
<linearGradient id="paint26_linear_1264_3553" x1="10.4274" y1="19.3053" x2="15.518" y2="24.396" gradientUnits="userSpaceOnUse">
<stop stop-color="#5A5A5A"/>
<stop offset="1" stop-color="#444444"/>
</linearGradient>
<linearGradient id="paint27_linear_1264_3553" x1="17.0477" y1="20.8677" x2="17.0477" y2="21.8998" gradientUnits="userSpaceOnUse">
<stop stop-color="#444444" stop-opacity="0"/>
<stop offset="0.0602" stop-color="#414141" stop-opacity="0.06"/>
<stop offset="0.6562" stop-color="#252525" stop-opacity="0.656"/>
<stop offset="1" stop-color="#1A1A1A"/>
</linearGradient>
<linearGradient id="paint28_linear_1264_3553" x1="20.0841" y1="22.8791" x2="20.0841" y2="24.002" gradientUnits="userSpaceOnUse">
<stop stop-color="#444444" stop-opacity="0"/>
<stop offset="0.0602" stop-color="#414141" stop-opacity="0.06"/>
<stop offset="0.6562" stop-color="#252525" stop-opacity="0.656"/>
<stop offset="1" stop-color="#1A1A1A"/>
</linearGradient>
<linearGradient id="paint29_linear_1264_3553" x1="14.0113" y1="22.8791" x2="14.0113" y2="24.002" gradientUnits="userSpaceOnUse">
<stop stop-color="#444444" stop-opacity="0"/>
<stop offset="0.0602" stop-color="#414141" stop-opacity="0.06"/>
<stop offset="0.6562" stop-color="#252525" stop-opacity="0.656"/>
<stop offset="1" stop-color="#1A1A1A"/>
</linearGradient>
<clipPath id="clip0_1264_3553">
<rect width="32" height="32" fill="white"/>
</clipPath>
</defs>
</svg>
