<svg width="537" height="610" viewBox="0 0 537 610" fill="none" xmlns="http://www.w3.org/2000/svg">
<path opacity="0.2" d="M178.263 250.201L55.2469 179.199V243.277L178.263 314.279V250.201Z" fill="url(#paint0_linear)"/>
<path fill-rule="evenodd" clip-rule="evenodd" d="M80.2185 215.142C80.2185 220.445 77.1247 222.875 73.2206 220.666C69.3901 218.456 66.2227 212.343 66.2227 207.04C66.2227 201.737 69.3165 199.306 73.2206 201.516C77.1247 203.725 80.2185 209.839 80.2185 215.142Z" fill="#FBC02D"/>
<path opacity="0.15" d="M86.7008 210.87L131.561 236.722V246.739L86.7008 220.96V210.87Z" fill="white"/>
<path opacity="0.15" d="M86.7745 232.376L165.593 277.821V287.837L86.7745 242.393V232.376Z" fill="white"/>
<path opacity="0.07" d="M274.909 43.3081L412.805 122.927V419.898L274.909 340.352V43.3081Z" fill="url(#paint1_linear)"/>
<path opacity="0.3" d="M243.013 70.1182L380.909 149.737V446.708L243.013 367.162V70.1182Z" fill="url(#paint2_linear)"/>
<path opacity="0.15" d="M256.346 235.617L367.134 299.548V309.565L256.346 245.634V235.617Z" fill="white"/>
<path opacity="0.15" d="M264.08 259.997L359.326 315.016V325.033L264.08 270.013V259.997Z" fill="white"/>
<path fill-rule="evenodd" clip-rule="evenodd" d="M206.992 299.033V265.889L288.389 312.88V346.024L206.992 299.033Z" fill="#90CD93"/>
<path opacity="0.2" d="M490.961 291.962C484.626 281.872 475.86 280.546 475.492 280.472C474.608 280.325 474.092 281.135 474.092 282.313V308.976C474.092 318.035 470.998 323.854 464.884 326.358C464.295 326.579 463.927 327.242 463.927 328.126C463.927 340.942 464.148 395.961 464.221 413.122C464.221 415.994 466.21 419.382 468.641 420.782C481.753 428.368 519.395 450.096 519.395 450.096C529.413 455.915 535.821 452.306 536.926 440.374L537 387.564C537 379.536 535.6 371.287 531.181 364.437C528.676 360.533 525.73 357.514 522.636 355.746L496.928 340.942V316.194C497.001 306.472 494.939 298.37 490.961 291.962Z" fill="url(#paint3_linear)"/>
<path fill-rule="evenodd" clip-rule="evenodd" d="M429.526 305.367L458.255 321.939V415.921L429.526 399.349V305.367Z" fill="#FBC02D"/>
<path opacity="0.3" d="M219.293 126.537L0.0736694 0L0.147332 114.236L199.994 229.578L219.367 258.229L219.293 126.537Z" fill="url(#paint4_linear)"/>
<path opacity="0.15" d="M162.942 121.749L114.914 94.0554V104.072L162.942 131.766V121.749Z" fill="white"/>
<path opacity="0.15" d="M162.942 141.856L43.9766 73.2114V83.2283L162.942 151.873V141.856Z" fill="white"/>
<path opacity="0.15" d="M162.942 161.964L19.4469 79.1038V89.1206L162.942 171.981V161.964Z" fill="white"/>
<path fill-rule="evenodd" clip-rule="evenodd" d="M174.728 139.058C174.728 148.485 180.326 159.312 187.177 163.29C194.027 167.267 199.625 162.848 199.625 153.42C199.625 143.992 194.027 133.165 187.177 129.188C180.326 125.211 174.728 129.63 174.728 139.058Z" fill="#90CD93"/>
<path opacity="0.3" d="M313.802 387.638L533.022 514.174L533.096 628.411L333.176 513.069L313.876 519.404L313.802 387.638Z" fill="url(#paint5_linear)"/>
<path opacity="0.15" d="M370.154 448.034L418.182 475.727V485.744L370.154 458.051V448.034Z" fill="white"/>
<path opacity="0.15" d="M370.154 468.067L456.855 518.078V528.095L370.154 478.084V468.067Z" fill="white"/>
<path opacity="0.15" d="M370.154 488.175L482.342 552.916V562.933L370.154 498.192V488.175Z" fill="white"/>
<path fill-rule="evenodd" clip-rule="evenodd" d="M358.368 451.643C358.368 461.07 352.77 465.489 345.919 461.512C339.069 457.535 333.47 446.708 333.47 437.28C333.47 427.852 339.069 423.433 345.919 427.411C352.77 431.388 358.295 442.215 358.368 451.643Z" fill="#FBC02D"/>
<path opacity="0.2" d="M237.93 368.046C242.35 370.55 245.886 376.737 245.886 381.819V404.284L260.765 412.827C265.185 415.332 268.721 421.518 268.721 426.6C268.721 431.683 265.185 433.745 260.765 431.241L245.886 422.697V445.161C245.886 450.243 242.35 452.306 237.93 449.801C233.51 447.297 229.974 441.11 229.974 436.028V413.564L215.095 405.02C210.675 402.516 207.139 396.329 207.139 391.247C207.139 386.165 210.675 384.102 215.095 386.607L229.974 395.15V372.686C229.901 367.604 233.51 365.468 237.93 368.046Z" fill="url(#paint6_linear)"/>
<path opacity="0.05" d="M311.666 224.643C248.464 142.446 294.208 112.69 311.666 160.859C329.198 133.165 374.869 216.173 311.666 224.643Z" fill="url(#paint7_linear)"/>
<path opacity="0.3" d="M296.934 239.374C233.731 157.176 279.476 127.42 296.934 175.59C314.465 147.896 360.136 230.903 296.934 239.374Z" fill="white"/>
<defs>
<linearGradient id="paint0_linear" x1="128.259" y1="222.705" x2="101.7" y2="268.724" gradientUnits="userSpaceOnUse">
<stop stop-color="white"/>
<stop offset="1" stop-color="white" stop-opacity="0"/>
</linearGradient>
<linearGradient id="paint1_linear" x1="354.591" y1="92.8918" x2="245.633" y2="281.686" gradientUnits="userSpaceOnUse">
<stop stop-color="white"/>
<stop offset="1" stop-color="white" stop-opacity="0"/>
</linearGradient>
<linearGradient id="paint2_linear" x1="322.695" y1="119.693" x2="213.738" y2="308.487" gradientUnits="userSpaceOnUse">
<stop stop-color="white"/>
<stop offset="1" stop-color="white" stop-opacity="0"/>
</linearGradient>
<linearGradient id="paint3_linear" x1="495.576" y1="356.072" x2="521.834" y2="366.122" gradientUnits="userSpaceOnUse">
<stop stop-color="white"/>
<stop offset="1" stop-color="white" stop-opacity="0"/>
</linearGradient>
<linearGradient id="paint4_linear" x1="154.247" y1="80.7658" x2="60.6504" y2="154.059" gradientUnits="userSpaceOnUse">
<stop stop-color="white"/>
<stop offset="1" stop-color="white" stop-opacity="0"/>
</linearGradient>
<linearGradient id="paint5_linear" x1="410.623" y1="391.361" x2="438.882" y2="620.596" gradientUnits="userSpaceOnUse">
<stop stop-color="white"/>
<stop offset="1" stop-color="white" stop-opacity="0"/>
</linearGradient>
<linearGradient id="paint6_linear" x1="246.206" y1="396.77" x2="218.611" y2="418.551" gradientUnits="userSpaceOnUse">
<stop stop-color="white"/>
<stop offset="1" stop-color="white" stop-opacity="0"/>
</linearGradient>
<linearGradient id="paint7_linear" x1="319.173" y1="164.18" x2="284.087" y2="194.184" gradientUnits="userSpaceOnUse">
<stop stop-color="white"/>
<stop offset="1" stop-color="white" stop-opacity="0"/>
</linearGradient>
</defs>
</svg>
