<svg width="253" height="34" viewBox="0 0 253 34" fill="none" xmlns="http://www.w3.org/2000/svg">
<path d="M0.2144 33V2.45454H12.2655C14.5823 2.45454 16.556 2.89702 18.1867 3.78196C19.8174 4.65696 21.0603 5.875 21.9154 7.43608C22.7805 8.98721 23.213 10.777 23.213 12.8054C23.213 14.8338 22.7755 16.6236 21.9005 18.1747C21.0255 19.7259 19.7577 20.9339 18.0972 21.799C16.4466 22.6641 14.4481 23.0966 12.1015 23.0966H4.42037V17.9212H11.0574C12.3003 17.9212 13.3245 17.7074 14.1299 17.2798C14.9452 16.8423 15.5518 16.2408 15.9495 15.4751C16.3572 14.6996 16.561 13.8097 16.561 12.8054C16.561 11.7912 16.3572 10.9062 15.9495 10.1506C15.5518 9.38494 14.9452 8.79332 14.1299 8.37571C13.3145 7.94815 12.2805 7.73438 11.0276 7.73438H6.6725V33H0.2144ZM27.2884 33V10.0909H33.4482V14.0881H33.6869C34.1045 12.6662 34.8055 11.5923 35.7899 10.8665C36.7742 10.1307 37.9078 9.76278 39.1904 9.76278C39.5086 9.76278 39.8517 9.78267 40.2195 9.82244C40.5874 9.86222 40.9106 9.9169 41.189 9.9865V15.6243C40.8907 15.5348 40.4781 15.4553 39.9511 15.3857C39.4241 15.3161 38.9419 15.2812 38.5044 15.2812C37.5697 15.2812 36.7345 15.4851 35.9987 15.8928C35.2728 16.2905 34.6961 16.8473 34.2686 17.5632C33.8509 18.2791 33.6421 19.1044 33.6421 20.0391V33H27.2884ZM44.474 33V10.0909H50.8277V33H44.474ZM47.6657 7.13778C46.7211 7.13778 45.9108 6.82457 45.2346 6.19815C44.5684 5.56179 44.2354 4.80114 44.2354 3.91619C44.2354 3.04119 44.5684 2.29048 45.2346 1.66406C45.9108 1.0277 46.7211 0.709515 47.6657 0.709515C48.6104 0.709515 49.4157 1.0277 50.0819 1.66406C50.7581 2.29048 51.0961 3.04119 51.0961 3.91619C51.0961 4.80114 50.7581 5.56179 50.0819 6.19815C49.4157 6.82457 48.6104 7.13778 47.6657 7.13778ZM55.9173 33V10.0909H61.9727V14.1328H62.2412C62.7185 12.7905 63.5139 11.7315 64.6276 10.956C65.7412 10.1804 67.0736 9.79261 68.6247 9.79261C70.1958 9.79261 71.5331 10.1854 72.6368 10.9709C73.7405 11.7464 74.4763 12.8004 74.8442 14.1328H75.0828C75.5502 12.8203 76.3953 11.7713 77.6183 10.9858C78.8513 10.1903 80.308 9.79261 81.9884 9.79261C84.1262 9.79261 85.8612 10.4737 87.1936 11.8359C88.536 13.1882 89.2071 15.1072 89.2071 17.593V33H82.8683V18.8459C82.8683 17.5732 82.5303 16.6186 81.8541 15.9822C81.178 15.3459 80.3328 15.0277 79.3186 15.0277C78.1652 15.0277 77.2654 15.3956 76.6191 16.1314C75.9727 16.8572 75.6496 17.8168 75.6496 19.0099V33H69.4898V18.7116C69.4898 17.5881 69.1666 16.6932 68.5203 16.027C67.884 15.3608 67.0438 15.0277 65.9997 15.0277C65.2938 15.0277 64.6574 15.2067 64.0906 15.5646C63.5338 15.9126 63.0914 16.4048 62.7632 17.0412C62.4351 17.6676 62.271 18.4034 62.271 19.2486V33H55.9173ZM104.666 33.4474C102.31 33.4474 100.281 32.9702 98.5811 32.0156C96.8907 31.0511 95.5882 29.6889 94.6734 27.929C93.7586 26.1591 93.3012 24.0661 93.3012 21.6499C93.3012 19.2933 93.7586 17.2251 94.6734 15.4453C95.5882 13.6655 96.8758 12.2784 98.5363 11.2841C100.207 10.2898 102.166 9.79261 104.413 9.79261C105.924 9.79261 107.331 10.0362 108.634 10.5234C109.946 11.0007 111.09 11.7216 112.064 12.6861C113.048 13.6506 113.814 14.8636 114.361 16.3253C114.908 17.777 115.181 19.4773 115.181 21.4261V23.1712H95.8367V19.2337H109.2C109.2 18.3189 109.002 17.5085 108.604 16.8026C108.206 16.0966 107.654 15.5447 106.948 15.147C106.252 14.7393 105.442 14.5355 104.517 14.5355C103.553 14.5355 102.698 14.7592 101.952 15.2067C101.216 15.6442 100.639 16.2358 100.222 16.9815C99.8041 17.7173 99.5903 18.5376 99.5803 19.4425V23.1861C99.5803 24.3196 99.7892 25.299 100.207 26.1243C100.634 26.9496 101.236 27.5859 102.011 28.0334C102.787 28.4808 103.707 28.7045 104.771 28.7045C105.477 28.7045 106.123 28.6051 106.71 28.4062C107.296 28.2074 107.798 27.9091 108.216 27.5114C108.634 27.1136 108.952 26.6264 109.171 26.0497L115.047 26.4375C114.749 27.8494 114.137 29.0824 113.212 30.1364C112.298 31.1804 111.114 31.9957 109.663 32.5824C108.221 33.1591 106.555 33.4474 104.666 33.4474ZM119.447 33V2.45454H131.677C133.924 2.45454 135.798 2.78764 137.3 3.45383C138.801 4.12003 139.93 5.04474 140.685 6.22798C141.441 7.40128 141.819 8.75355 141.819 10.2848C141.819 11.478 141.58 12.527 141.103 13.4318C140.626 14.3267 139.97 15.0625 139.134 15.6392C138.309 16.206 137.364 16.6087 136.301 16.8473V17.1456C137.464 17.1953 138.553 17.5234 139.567 18.13C140.591 18.7365 141.421 19.5866 142.058 20.6804C142.694 21.7642 143.012 23.0568 143.012 24.5582C143.012 26.179 142.609 27.6257 141.804 28.8984C141.009 30.1612 139.83 31.1605 138.269 31.8963C136.708 32.6321 134.784 33 132.497 33H119.447ZM125.905 27.7202H131.17C132.97 27.7202 134.282 27.3771 135.107 26.6911C135.933 25.995 136.345 25.0703 136.345 23.9169C136.345 23.0717 136.141 22.326 135.734 21.6797C135.326 21.0334 134.744 20.5263 133.989 20.1584C133.243 19.7905 132.353 19.6065 131.319 19.6065H125.905V27.7202ZM125.905 15.2365H130.693C131.578 15.2365 132.363 15.0824 133.049 14.7741C133.745 14.456 134.292 14.0085 134.69 13.4318C135.097 12.8551 135.301 12.1641 135.301 11.3587C135.301 10.255 134.908 9.36506 134.123 8.68892C133.347 8.01278 132.244 7.67471 130.812 7.67471H125.905V15.2365ZM153.449 2.45454V33H147.095V2.45454H153.449ZM168.889 33.4474C166.573 33.4474 164.569 32.9553 162.879 31.9709C161.198 30.9766 159.901 29.5945 158.986 27.8246C158.071 26.0447 157.614 23.9815 157.614 21.6349C157.614 19.2685 158.071 17.2003 158.986 15.4304C159.901 13.6506 161.198 12.2685 162.879 11.2841C164.569 10.2898 166.573 9.79261 168.889 9.79261C171.206 9.79261 173.205 10.2898 174.885 11.2841C176.575 12.2685 177.878 13.6506 178.793 15.4304C179.707 17.2003 180.165 19.2685 180.165 21.6349C180.165 23.9815 179.707 26.0447 178.793 27.8246C177.878 29.5945 176.575 30.9766 174.885 31.9709C173.205 32.9553 171.206 33.4474 168.889 33.4474ZM168.919 28.5256C169.973 28.5256 170.853 28.2273 171.559 27.6307C172.265 27.0241 172.797 26.1989 173.155 25.1548C173.523 24.1108 173.707 22.9226 173.707 21.5902C173.707 20.2578 173.523 19.0696 173.155 18.0256C172.797 16.9815 172.265 16.1562 171.559 15.5497C170.853 14.9432 169.973 14.6399 168.919 14.6399C167.855 14.6399 166.96 14.9432 166.234 15.5497C165.519 16.1562 164.977 16.9815 164.609 18.0256C164.251 19.0696 164.072 20.2578 164.072 21.5902C164.072 22.9226 164.251 24.1108 164.609 25.1548C164.977 26.1989 165.519 27.0241 166.234 27.6307C166.96 28.2273 167.855 28.5256 168.919 28.5256ZM194.647 33.4474C192.301 33.4474 190.282 32.9503 188.592 31.956C186.911 30.9517 185.619 29.5597 184.714 27.7798C183.819 26 183.372 23.9517 183.372 21.6349C183.372 19.2884 183.824 17.2301 184.729 15.4602C185.644 13.6804 186.941 12.2933 188.622 11.299C190.302 10.2947 192.301 9.79261 194.617 9.79261C196.616 9.79261 198.366 10.1555 199.867 10.8814C201.369 11.6072 202.557 12.6264 203.432 13.9389C204.307 15.2514 204.789 16.7926 204.879 18.5625H198.883C198.714 17.419 198.266 16.4993 197.541 15.8033C196.825 15.0973 195.885 14.7443 194.722 14.7443C193.737 14.7443 192.877 15.0128 192.141 15.5497C191.416 16.0767 190.849 16.8473 190.441 17.8615C190.033 18.8757 189.83 20.1037 189.83 21.5455C189.83 23.0071 190.028 24.25 190.426 25.2741C190.834 26.2983 191.406 27.0788 192.141 27.6158C192.877 28.1527 193.737 28.4212 194.722 28.4212C195.448 28.4212 196.099 28.272 196.676 27.9737C197.262 27.6754 197.744 27.2429 198.122 26.6761C198.51 26.0994 198.764 25.4084 198.883 24.603H204.879C204.779 26.353 204.302 27.8942 203.447 29.2266C202.602 30.549 201.433 31.5831 199.942 32.3288C198.45 33.0746 196.685 33.4474 194.647 33.4474ZM214.704 26.4077L214.719 18.7862H215.643L222.981 10.0909H230.275L220.416 21.6051H218.91L214.704 26.4077ZM208.947 33V2.45454H215.3V33H208.947ZM223.265 33L216.523 23.022L220.759 18.5327L230.707 33H223.265ZM252.453 16.6236L246.636 16.9815C246.537 16.4844 246.323 16.0369 245.995 15.6392C245.667 15.2315 245.234 14.9084 244.697 14.6697C244.17 14.4212 243.539 14.2969 242.803 14.2969C241.819 14.2969 240.989 14.5057 240.312 14.9233C239.636 15.331 239.298 15.8778 239.298 16.5639C239.298 17.1108 239.517 17.5732 239.954 17.951C240.392 18.3288 241.143 18.6321 242.207 18.8608L246.353 19.696C248.58 20.1534 250.241 20.8892 251.334 21.9034C252.428 22.9176 252.975 24.25 252.975 25.9006C252.975 27.402 252.533 28.7195 251.648 29.853C250.773 30.9865 249.57 31.8714 248.038 32.5078C246.517 33.1342 244.762 33.4474 242.773 33.4474C239.741 33.4474 237.324 32.8161 235.525 31.5533C233.735 30.2805 232.686 28.5504 232.378 26.3629L238.627 26.0348C238.816 26.9595 239.273 27.6655 239.999 28.1527C240.725 28.63 241.655 28.8686 242.788 28.8686C243.902 28.8686 244.797 28.6548 245.473 28.2273C246.159 27.7898 246.507 27.228 246.517 26.5419C246.507 25.9652 246.263 25.4929 245.786 25.125C245.309 24.7472 244.573 24.4588 243.579 24.2599L239.611 23.4695C237.374 23.022 235.709 22.2464 234.615 21.1428C233.531 20.0391 232.989 18.6321 232.989 16.9219C232.989 15.4503 233.387 14.1825 234.182 13.1186C234.988 12.0547 236.116 11.2344 237.568 10.6577C239.03 10.081 240.74 9.79261 242.699 9.79261C245.592 9.79261 247.869 10.4041 249.53 11.6271C251.2 12.8501 252.175 14.5156 252.453 16.6236Z" fill="url(#paint0_linear_3730_40252)"/>
<defs>
<linearGradient id="paint0_linear_3730_40252" x1="0.216002" y1="-7.99999" x2="170.882" y2="138.909" gradientUnits="userSpaceOnUse">
<stop stop-color="#00D1FF"/>
<stop offset="1" stop-color="#FF6DE8"/>
</linearGradient>
</defs>
</svg>
