<svg width="247" height="140" viewBox="0 0 247 140" fill="none" xmlns="http://www.w3.org/2000/svg">
<rect width="246.5" height="140" rx="10" fill="url(#paint0_linear)"/>
<g clip-path="url(#clip0)">
<path d="M106.696 45.0915H48.25V14H106.696V45.0915Z" fill="white"/>
<path d="M106.626 14.2092H48.4592V21.5987H106.626V14.2092Z" fill="#E0E0E0"/>
<path d="M106.696 45.0915H48.25V14H106.696V45.0915ZM48.6685 44.6732H106.277V14.4183H48.6685V44.6732Z" fill="#BDBDBD"/>
<path d="M74.6178 27.7625C74.3414 27.7633 74.1179 28.122 74.1184 28.5636C74.119 29.0039 74.3422 29.3607 74.6178 29.3616H98.2072C98.4836 29.3607 98.7071 29.002 98.7066 28.5604C98.7061 28.1201 98.4828 27.7633 98.2072 27.7625H74.6178Z" fill="#E0E0E0"/>
<path d="M74.6178 32.3955C74.3414 32.3964 74.1179 32.7551 74.1184 33.1966C74.119 33.637 74.3422 33.9938 74.6178 33.9946H98.2072C98.4836 33.9937 98.7071 33.6351 98.7066 33.1935C98.7061 32.7531 98.4828 32.3964 98.2072 32.3955H74.6178Z" fill="#E0E0E0"/>
<path d="M74.6178 36.9727C74.3414 36.9735 74.1179 37.3322 74.1184 37.7738C74.119 38.2141 74.3422 38.5709 74.6178 38.5718H84.7684C85.0447 38.5709 85.2683 38.2122 85.2677 37.7706C85.2672 37.3303 85.0439 36.9735 84.7684 36.9727H74.6178Z" fill="#E0E0E0"/>
<path d="M62.6404 39.5047C66.1756 39.5047 69.0416 36.6401 69.0416 33.1065C69.0416 29.5728 66.1756 26.7083 62.6404 26.7083C59.1051 26.7083 56.2391 29.5728 56.2391 33.1065C56.2391 36.6401 59.1051 39.5047 62.6404 39.5047Z" fill="#E0E0E0"/>
<path d="M176.3 45.0915H117.855V14H176.3V45.0915Z" fill="white"/>
<path d="M176.231 14.2092H118.064V21.5987H176.231V14.2092Z" fill="#E0E0E0"/>
<path d="M176.3 45.0915H117.855V14H176.3V45.0915ZM118.273 44.6732H175.882V14.4183H118.273V44.6732Z" fill="#BDBDBD"/>
<path d="M144.223 27.7625C143.946 27.7633 143.723 28.122 143.723 28.5636C143.724 29.0039 143.947 29.3607 144.223 29.3616H167.812C168.088 29.3607 168.312 29.002 168.311 28.5604C168.311 28.1201 168.088 27.7633 167.812 27.7625H144.223Z" fill="#E0E0E0"/>
<path d="M144.223 32.3955C143.946 32.3964 143.723 32.7551 143.723 33.1966C143.724 33.637 143.947 33.9938 144.223 33.9946H167.812C168.088 33.9937 168.312 33.6351 168.311 33.1935C168.311 32.7531 168.088 32.3964 167.812 32.3955H144.223Z" fill="#E0E0E0"/>
<path d="M144.223 36.9727C143.946 36.9735 143.723 37.3322 143.723 37.7738C143.724 38.2141 143.947 38.5709 144.223 38.5718H154.373C154.649 38.5709 154.873 38.2122 154.872 37.7706C154.872 37.3303 154.649 36.9735 154.373 36.9727H144.223Z" fill="#E0E0E0"/>
<path d="M132.245 39.5047C135.78 39.5047 138.646 36.6401 138.646 33.1065C138.646 29.5728 135.78 26.7083 132.245 26.7083C128.71 26.7083 125.844 29.5728 125.844 33.1065C125.844 36.6401 128.71 39.5047 132.245 39.5047Z" fill="#E0E0E0"/>
<path d="M149.302 75.5647H75.2485V36.1704H149.302V75.5647Z" fill="white"/>
<path d="M149.214 36.4353H75.5137V45.7981H149.214V36.4353Z" fill="#F57C00"/>
<path d="M149.302 75.5647H75.2485V36.1704H149.302V75.5647ZM75.7787 75.0348H148.772V36.7004H75.7787V75.0348Z" fill="#874400"/>
<path d="M108.658 53.6079C108.307 53.609 108.024 54.0635 108.025 54.623C108.026 55.1809 108.308 55.633 108.658 55.6341H138.547C138.897 55.633 139.18 55.1785 139.179 54.619C139.179 54.061 138.896 53.609 138.547 53.6079H108.658Z" fill="#E0E0E0"/>
<path d="M108.658 59.4783C108.307 59.4794 108.024 59.9338 108.025 60.4933C108.026 61.0513 108.308 61.5033 108.658 61.5044H138.547C138.897 61.5033 139.18 61.0488 139.179 60.4893C139.179 59.9314 138.896 59.4794 138.547 59.4783H108.658Z" fill="#E0E0E0"/>
<path d="M108.658 65.2778C108.307 65.2789 108.024 65.7334 108.025 66.2929C108.026 66.8509 108.308 67.3029 108.658 67.304H121.519C121.869 67.3029 122.152 66.8484 122.152 66.2889C122.151 65.731 121.868 65.2789 121.519 65.2778H108.658Z" fill="#E0E0E0"/>
<path d="M93.4818 68.4859C97.9612 68.4859 101.592 64.8564 101.592 60.3791C101.592 55.9018 97.9612 52.2722 93.4818 52.2722C89.0025 52.2722 85.3712 55.9018 85.3712 60.3791C85.3712 64.8564 89.0025 68.4859 93.4818 68.4859Z" fill="#E0E0E0"/>
<path d="M181.043 121.243L179.063 122.125L174.72 114.914L177.642 113.613L181.043 121.243Z" fill="#FFB6B6"/>
<path d="M182.402 122.936L176.02 125.778L175.984 125.697C175.691 125.039 175.671 124.291 175.929 123.618C176.188 122.945 176.703 122.402 177.361 122.108L177.362 122.108L181.26 120.373L182.402 122.936Z" fill="#263238"/>
<path d="M171.068 80.8929C171.268 80.7004 171.423 80.4665 171.523 80.2076C171.623 79.9487 171.664 79.6711 171.645 79.3943C171.626 79.1175 171.546 78.8483 171.412 78.6057C171.277 78.363 171.091 78.1528 170.866 77.9899L168.769 60.8325L165.5 61.6373L168.119 78.5108C167.871 78.9062 167.775 79.379 167.852 79.8398C167.929 80.3006 168.172 80.7173 168.535 81.0109C168.899 81.3045 169.357 81.4547 169.824 81.4329C170.291 81.4112 170.733 81.219 171.068 80.8929V80.8929Z" fill="#FFB6B6"/>
<path d="M169.949 63.5965C169.801 63.7302 169.614 63.813 169.415 63.833L165.137 64.264C165.002 64.2775 164.867 64.262 164.739 64.2184C164.611 64.1748 164.494 64.1042 164.396 64.0113C164.298 63.9185 164.221 63.8057 164.171 63.6805C164.12 63.5553 164.098 63.4207 164.104 63.2859L164.304 59.0059C164.272 58.6894 164.304 58.3698 164.397 58.0657C164.49 57.7616 164.643 57.479 164.846 57.2344C165.153 56.8591 165.565 56.5832 166.029 56.4416C166.492 56.3 166.988 56.2991 167.452 56.4389C167.917 56.5787 168.329 56.853 168.638 57.2272C168.947 57.6013 169.137 58.0585 169.186 58.5409L170.231 62.6684C170.273 62.8341 170.269 63.0081 170.219 63.1716C170.17 63.3351 170.076 63.482 169.949 63.5965V63.5965Z" fill="#F57C00"/>
<path d="M167.284 74.5199L155.39 72.1565L155.311 70.4965L155.312 70.486L156.594 61.9715C156.422 61.6125 154.897 58.2546 157.113 56.3722C157.635 55.927 158.117 55.4365 158.554 54.9066C159.245 54.0419 160.136 53.3578 161.15 52.9129C162.164 52.468 163.271 52.2757 164.375 52.3524C165.06 52.408 165.724 52.611 166.323 52.9474C166.921 53.2839 167.44 53.7459 167.843 54.3017C168.724 55.4829 169.122 56.9546 168.957 58.4184L167.284 74.5199Z" fill="#F57C00"/>
<path d="M155.28 123.679L153.114 123.679L152.083 115.325L155.281 115.325L155.28 123.679Z" fill="#FFB6B6"/>
<path d="M155.833 125.778L148.847 125.778V125.69C148.847 124.969 149.133 124.277 149.643 123.768C150.153 123.258 150.845 122.971 151.566 122.971H151.566L155.833 122.972L155.833 125.778Z" fill="#263238"/>
<path d="M151.953 120.435L151.482 85.6492C151.328 80.4517 152.689 75.3215 155.399 70.8832C155.399 70.8832 165.915 70.7949 167.594 74.4164L180.143 118.05L176.608 119.64L161.585 86.959L156.195 120.612L151.953 120.435Z" fill="#263238"/>
<path d="M150.235 62.1454C150.309 62.2261 150.377 62.3125 150.438 62.4038L160.282 62.4145L161.484 60.3477L164.841 61.7521L163.071 65.6177C162.927 65.9299 162.687 66.1874 162.385 66.3514C162.083 66.5154 161.736 66.5771 161.396 66.5272L150.316 64.9012C150.045 65.2263 149.682 65.4613 149.274 65.5749C148.866 65.6886 148.434 65.6756 148.034 65.5375C147.634 65.3995 147.286 65.1431 147.035 64.8023C146.784 64.4615 146.644 64.0525 146.631 63.6298C146.619 63.207 146.736 62.7905 146.966 62.4357C147.196 62.0809 147.529 61.8045 147.92 61.6434C148.311 61.4822 148.742 61.444 149.156 61.5336C149.569 61.6233 149.946 61.8367 150.235 62.1454V62.1454Z" fill="#FFB6B6"/>
<path d="M159.376 62.6299L160.81 55.2714C160.96 54.5037 161.389 53.8187 162.015 53.349C162.64 52.8792 163.418 52.6581 164.197 52.7284V52.7284C164.675 52.7714 165.136 52.9224 165.547 53.1699C165.957 53.4174 166.306 53.755 166.566 54.157C166.827 54.5591 166.993 55.0152 167.051 55.4907C167.11 55.9663 167.059 56.4489 166.903 56.902L164.662 63.4248L159.376 62.6299Z" fill="#F57C00"/>
<path d="M164.374 50.6448C166.771 50.6448 168.715 48.7022 168.715 46.3059C168.715 43.9096 166.771 41.967 164.374 41.967C161.977 41.967 160.033 43.9096 160.033 46.3059C160.033 48.7022 161.977 50.6448 164.374 50.6448Z" fill="#FFB6B6"/>
<path d="M159.111 43.8548H166.004V40.8517C164.491 40.2509 163.01 39.74 162.115 40.8517C161.318 40.8517 160.554 41.1681 159.991 41.7313C159.427 42.2945 159.111 43.0583 159.111 43.8548V43.8548Z" fill="#263238"/>
<path d="M166.385 40.3218C170.506 40.3218 171.659 45.4844 171.659 48.397C171.659 50.0212 170.924 50.6022 169.77 50.7988L169.362 48.6246L168.406 50.8923C168.082 50.8939 167.741 50.8877 167.388 50.8811L167.064 50.2145L166.342 50.8691C163.449 50.8734 161.111 51.2949 161.111 48.397C161.111 45.4844 162.123 40.3218 166.385 40.3218Z" fill="#263238"/>
<path d="M198.073 126H130.736C130.689 126 130.644 125.981 130.611 125.948C130.578 125.915 130.559 125.87 130.559 125.823C130.559 125.777 130.578 125.732 130.611 125.698C130.644 125.665 130.689 125.647 130.736 125.647H198.073C198.12 125.647 198.165 125.665 198.198 125.698C198.231 125.732 198.25 125.777 198.25 125.823C198.25 125.87 198.231 125.915 198.198 125.948C198.165 125.981 198.12 126 198.073 126Z" fill="#BDBDBD"/>
</g>
<defs>
<linearGradient id="paint0_linear" x1="123.25" y1="0" x2="123.25" y2="140" gradientUnits="userSpaceOnUse">
<stop stop-color="#FBC02D"/>
<stop offset="1" stop-color="#FBC02D" stop-opacity="0"/>
</linearGradient>
<clipPath id="clip0">
<rect width="150" height="112" fill="white" transform="translate(48.25 14)"/>
</clipPath>
</defs>
</svg>
