<svg width="247" height="140" viewBox="0 0 247 140" fill="none" xmlns="http://www.w3.org/2000/svg">
<rect x="0.5" width="246.5" height="140" rx="10" fill="url(#paint0_linear)"/>
<g clip-path="url(#clip0)">
<path opacity="0.5" d="M182.012 14.0732H52.3767V96.7524H182.012V14.0732Z" fill="#E0E0E0"/>
<path d="M178.305 24.4431H56.0837V91.8609H178.305V24.4431Z" fill="white"/>
<path d="M181.956 14H52.3215V19.4845H181.956V14Z" fill="#F57C00"/>
<path d="M56.4141 17.8204C56.9778 17.8204 57.4348 17.3653 57.4348 16.8039C57.4348 16.2425 56.9778 15.7874 56.4141 15.7874C55.8503 15.7874 55.3933 16.2425 55.3933 16.8039C55.3933 17.3653 55.8503 17.8204 56.4141 17.8204Z" fill="white"/>
<path d="M60.2886 17.8204C60.8523 17.8204 61.3093 17.3653 61.3093 16.8039C61.3093 16.2425 60.8523 15.7874 60.2886 15.7874C59.7248 15.7874 59.2678 16.2425 59.2678 16.8039C59.2678 17.3653 59.7248 17.8204 60.2886 17.8204Z" fill="white"/>
<path d="M64.1631 17.8204C64.7268 17.8204 65.1838 17.3653 65.1838 16.8039C65.1838 16.2425 64.7268 15.7874 64.1631 15.7874C63.5993 15.7874 63.1423 16.2425 63.1423 16.8039C63.1423 17.3653 63.5993 17.8204 64.1631 17.8204Z" fill="white"/>
<path d="M98.5943 31.4385H67.1892V84.866H98.5943V31.4385Z" fill="#E0E0E0"/>
<path d="M130.186 31.4385H104.015V46.145H130.186V31.4385Z" fill="#F57C00"/>
<path d="M130.186 50.2405H104.015V66.0639H130.186V50.2405Z" fill="#E0E0E0"/>
<path d="M130.186 70.1594H104.015V84.8659H130.186V70.1594Z" fill="#E0E0E0"/>
<path d="M167.199 31.4385H135.794V54.7219H167.199V31.4385Z" fill="#E0E0E0"/>
<path d="M167.199 61.5825H135.794V84.8659H167.199V61.5825Z" fill="#E0E0E0"/>
<path d="M155.101 56.3945V51.3819C155.101 49.6005 155.812 47.892 157.077 46.6324C158.342 45.3727 160.057 44.665 161.846 44.665C163.635 44.665 165.35 45.3727 166.615 46.6324C167.88 47.892 168.591 49.6005 168.591 51.3819V56.3945C168.591 56.6337 168.495 56.863 168.325 57.0322C168.155 57.2013 167.925 57.2965 167.685 57.2968H156.007C155.767 57.2965 155.537 57.2013 155.367 57.0322C155.197 56.863 155.101 56.6337 155.101 56.3945Z" fill="#263238"/>
<path d="M171.819 121.627L169.44 122.283L165.769 113.457L169.28 112.49L171.819 121.627Z" fill="#FFB8B8"/>
<path d="M167.553 122.075L172.141 120.81L172.94 123.687L165.464 125.748C165.359 125.37 165.33 124.975 165.378 124.586C165.426 124.197 165.551 123.821 165.745 123.48C165.939 123.139 166.198 122.84 166.508 122.598C166.819 122.357 167.174 122.179 167.553 122.075Z" fill="#263238"/>
<path d="M147.017 123.45H144.549L143.374 113.969H147.018L147.017 123.45Z" fill="#FFB8B8"/>
<path d="M142.785 122.747H147.546V125.732H139.788C139.788 125.34 139.866 124.952 140.016 124.59C140.167 124.228 140.388 123.899 140.666 123.622C140.944 123.344 141.275 123.125 141.638 122.975C142.002 122.825 142.392 122.747 142.785 122.747Z" fill="#263238"/>
<path d="M144.041 70.4614C144.217 70.6982 144.443 70.8937 144.703 71.0341C144.964 71.1745 145.252 71.2563 145.547 71.2738C145.842 71.2914 146.138 71.2442 146.413 71.1356C146.689 71.027 146.936 70.8597 147.14 70.6453L153.701 73.5843L153.104 69.9088L146.965 67.6814C146.581 67.3653 146.093 67.2006 145.595 67.2183C145.097 67.2361 144.623 67.4352 144.263 67.7779C143.902 68.1206 143.681 68.583 143.64 69.0776C143.599 69.5722 143.741 70.0645 144.041 70.4614H144.041Z" fill="#FFB8B8"/>
<path d="M157.674 92.5644C155.613 92.5644 153.478 92.2586 151.685 91.3491C150.732 90.8758 149.888 90.2118 149.206 89.3988C148.523 88.5858 148.016 87.6412 147.716 86.6241C146.782 83.6769 147.96 80.7814 149.1 77.9814C149.806 76.2463 150.473 74.6075 150.646 72.9921L150.707 72.4186C150.976 69.8426 151.209 67.6179 152.498 66.7835C153.166 66.3509 154.064 66.3263 155.244 66.7079L166.327 70.2931L165.92 91.2438L165.852 91.2662C165.794 91.2856 161.887 92.5644 157.674 92.5644Z" fill="#263238"/>
<path d="M155.051 60.1856C155.051 60.1856 160.487 58.5816 164.715 59.1831C164.715 59.1831 162.299 72.4163 163.104 76.8274C163.91 81.2384 149.111 78.5316 152.131 74.3211L153.138 69.3085C153.138 69.3085 151.125 67.3035 152.937 64.8974L155.051 60.1856Z" fill="#F57C00"/>
<path d="M152.377 92.1672L145.677 90.9162L148.016 72.9898C148.173 72.4894 151.797 61.1314 153.443 60.5169C154.637 60.0979 155.859 59.7598 157.1 59.505L157.338 59.4575L155.995 61.4643L150.647 74.2272L152.377 92.1672Z" fill="#263238"/>
<path d="M148.886 121.253L140.229 119.816L145.087 100.062L152.316 73.0466L152.387 73.5264C152.393 73.5621 153.068 77.0913 163.089 75.5253L163.177 75.5116L163.201 75.5971L175.312 118.212L165.448 119.849L156.452 88.7573L148.886 121.253Z" fill="#263238"/>
<path d="M160.884 95.5221L160.89 95.3704C160.896 95.202 161.491 78.4534 161.292 71.7176C161.093 64.9588 163.29 59.1057 163.312 59.0474L163.33 59.0004L163.379 58.9865C166.222 58.1777 168.688 60.5916 168.712 60.6161L168.747 60.6505L167.937 67.3025L171.404 91.4915L160.884 95.5221Z" fill="#263238"/>
<path d="M160.46 57.18C163.191 57.18 165.405 54.9752 165.405 52.2554C165.405 49.5356 163.191 47.3308 160.46 47.3308C157.729 47.3308 155.515 49.5356 155.515 52.2554C155.515 54.9752 157.729 57.18 160.46 57.18Z" fill="#FFB8B8"/>
<path d="M153.505 51.7828C153.507 50.3741 154.07 49.0236 155.07 48.0275C156.07 47.0314 157.426 46.4711 158.841 46.4695H159.848C161.262 46.4711 162.618 47.0314 163.619 48.0275C164.619 49.0236 165.181 50.3741 165.183 51.7828V51.8831H163.056L162.33 49.8596L162.185 51.8831H161.085L160.719 50.8622L160.646 51.8831H153.505V51.7828Z" fill="#263238"/>
<path d="M159.973 57.8605C159.874 57.7258 159.814 57.5657 159.801 57.3988C159.789 57.2318 159.824 57.0647 159.902 56.9167C160.969 54.896 162.463 51.1622 160.48 48.8595L160.338 48.6941H166.094V57.2997L160.865 58.2184C160.812 58.2277 160.758 58.2324 160.705 58.2325C160.562 58.2325 160.421 58.1988 160.294 58.1341C160.167 58.0694 160.057 57.9756 159.973 57.8605Z" fill="#263238"/>
<path d="M136.8 22.3302C132.772 18.9458 127.843 16.8001 122.614 16.1543C117.384 15.5084 112.078 16.3903 107.342 18.6925C102.607 20.9948 98.645 24.6181 95.9395 29.1217C93.2339 33.6252 91.9011 38.8148 92.1033 44.0589C92.3054 49.3031 94.0338 54.3756 97.0782 58.6594C100.122 62.9431 104.351 66.2533 109.25 68.1872C114.15 70.1211 119.507 70.5953 124.672 69.552C129.837 68.5088 134.586 65.9931 138.341 62.3112L171.686 90.3311C172.194 90.7582 172.851 90.9672 173.513 90.912C174.175 90.8568 174.788 90.5419 175.217 90.0366C175.646 89.5314 175.856 88.8771 175.8 88.2178C175.745 87.5585 175.428 86.9481 174.921 86.5209L174.917 86.5178L141.572 58.4979C145.446 52.9614 147.103 46.1839 146.221 39.4935C145.338 32.8032 141.978 26.6822 136.8 22.3302ZM134.65 55.7998C132.052 58.8657 128.6 61.0956 124.729 62.2075C120.859 63.3195 116.744 63.2635 112.906 62.0467C109.068 60.8299 105.678 58.507 103.165 55.3716C100.652 52.2362 99.1296 48.4292 98.7896 44.432C98.4495 40.4349 99.3073 36.427 101.255 32.9154C103.202 29.4037 106.151 26.5459 109.729 24.7034C113.307 22.8609 117.354 22.1164 121.357 22.5641C125.36 23.0118 129.14 24.6315 132.218 27.2185H132.218C134.263 28.9362 135.947 31.038 137.176 33.4039C138.404 35.7699 139.152 38.3536 139.378 41.0077C139.604 43.6617 139.303 46.334 138.491 48.872C137.68 51.4101 136.375 53.7641 134.65 55.7998Z" fill="#AC5700"/>
<path opacity="0.3" d="M105.949 58.2211C102.042 54.9376 99.5177 50.3109 98.8775 45.2597C98.2372 40.2085 99.5279 35.1022 102.493 30.9548C102.104 31.3454 101.727 31.7544 101.364 32.1819C99.6389 34.2176 98.3336 36.5716 97.5223 39.1097C96.711 41.6477 96.4097 44.32 96.6354 46.9741C96.8612 49.6281 97.6097 52.2118 98.8382 54.5778C100.067 56.9437 101.751 59.0456 103.795 60.7633C105.839 62.4809 108.203 63.7808 110.752 64.5888C113.301 65.3967 115.984 65.6968 118.649 65.4719C121.314 65.2471 123.909 64.5017 126.285 63.2783C128.66 62.0549 130.771 60.3775 132.496 58.3419C132.859 57.9138 133.2 57.4755 133.52 57.0268C129.914 60.6354 125.077 62.7614 119.969 62.9827C114.861 63.2039 109.857 61.5042 105.949 58.2211Z" fill="#212121"/>
<path d="M162.048 79.0705C162.335 79.1405 162.635 79.1468 162.925 79.0891C163.215 79.0314 163.489 78.911 163.728 78.7365C163.966 78.5619 164.163 78.3374 164.305 78.0787C164.447 77.82 164.53 77.5335 164.549 77.2394L171.482 75.3231L168.664 72.8762L162.512 75.0711C162.014 75.0726 161.533 75.256 161.162 75.5867C160.79 75.9174 160.553 76.3723 160.496 76.8653C160.439 77.3582 160.565 77.855 160.851 78.2614C161.137 78.6679 161.563 78.9557 162.048 79.0705Z" fill="#FFB8B8"/>
<path d="M164.929 78.0563L164.507 74.065L170.298 70.8832L166.523 66.3317L167.139 61.219L168.673 60.5642L168.721 60.6253C169.444 61.5516 175.789 69.7042 175.789 70.7121C175.789 71.7472 174.575 74.7869 172.914 75.6138C171.313 76.4114 165.298 77.9616 165.042 78.0273L164.929 78.0563Z" fill="#263238"/>
<path d="M194.977 126H118.267C118.213 126 118.162 125.979 118.124 125.941C118.087 125.904 118.065 125.853 118.065 125.8C118.065 125.746 118.087 125.695 118.124 125.658C118.162 125.62 118.213 125.599 118.267 125.599H194.977C195.031 125.599 195.082 125.62 195.12 125.658C195.157 125.695 195.179 125.746 195.179 125.8C195.179 125.853 195.157 125.904 195.12 125.941C195.082 125.979 195.031 126 194.977 126Z" fill="#E0E0E0"/>
</g>
<defs>
<linearGradient id="paint0_linear" x1="123.75" y1="0" x2="123.75" y2="140" gradientUnits="userSpaceOnUse">
<stop stop-color="#F57C00"/>
<stop offset="1" stop-color="#F57C00" stop-opacity="0"/>
</linearGradient>
<clipPath id="clip0">
<rect width="150" height="112" fill="white" transform="translate(48.75 14)"/>
</clipPath>
</defs>
</svg>
