<svg width="247" height="140" viewBox="0 0 247 140" fill="none" xmlns="http://www.w3.org/2000/svg">
<rect width="246.5" height="140" rx="10" fill="url(#paint0_linear)"/>
<g clip-path="url(#clip0)">
<path opacity="0.5" d="M117.757 98.2019H49.0486C48.8369 98.2017 48.6339 98.1178 48.4842 97.9688C48.3345 97.8197 48.2503 97.6177 48.25 97.4069V33.8829C48.2503 33.6722 48.3345 33.4701 48.4842 33.3211C48.6339 33.172 48.8369 33.0882 49.0486 33.0879H117.757C117.969 33.0882 118.172 33.172 118.321 33.3211C118.471 33.4701 118.555 33.6722 118.556 33.8829V97.4068C118.555 97.6175 118.471 97.8196 118.321 97.9687C118.172 98.1177 117.969 98.2016 117.757 98.2018V98.2019Z" fill="#EEEEEE"/>
<path d="M128.588 107.701H59.8794C59.6677 107.701 59.4647 107.617 59.315 107.468C59.1653 107.319 59.0811 107.117 59.0808 106.906V43.3824C59.0811 43.1717 59.1653 42.9696 59.315 42.8206C59.4647 42.6715 59.6677 42.5877 59.8794 42.5874H128.588C128.8 42.5877 129.003 42.6715 129.152 42.8206C129.302 42.9696 129.386 43.1717 129.386 43.3824V106.906C129.386 107.117 129.302 107.319 129.152 107.468C129.003 107.617 128.8 107.701 128.588 107.701V107.701Z" fill="white"/>
<path d="M128.588 107.701H59.8794C59.6677 107.701 59.4647 107.617 59.315 107.468C59.1653 107.319 59.0811 107.117 59.0808 106.906V43.3824C59.0811 43.1717 59.1653 42.9696 59.315 42.8206C59.4647 42.6715 59.6677 42.5877 59.8794 42.5874H128.588C128.8 42.5877 129.003 42.6715 129.152 42.8206C129.302 42.9696 129.386 43.1717 129.386 43.3824V106.906C129.386 107.117 129.302 107.319 129.152 107.468C129.003 107.617 128.8 107.701 128.588 107.701V107.701ZM59.8794 42.9048C59.7525 42.9051 59.6309 42.9554 59.5412 43.0447C59.4515 43.134 59.4009 43.2551 59.4007 43.3814V106.906C59.4009 107.033 59.4515 107.154 59.5412 107.243C59.6309 107.332 59.7525 107.383 59.8794 107.383H128.588C128.715 107.383 128.836 107.332 128.926 107.243C129.016 107.154 129.066 107.033 129.067 106.906V43.3824C129.066 43.2561 129.016 43.1351 128.926 43.0457C128.836 42.9564 128.715 42.9061 128.588 42.9058L59.8794 42.9048Z" fill="#E0E0E0"/>
<path d="M115.797 71.0648H72.6707C72.4589 71.0645 72.2559 70.9807 72.1062 70.8317C71.9565 70.6826 71.8723 70.4805 71.8721 70.2697V51.4279C71.8723 51.2171 71.9565 51.015 72.1062 50.8659C72.2559 50.7169 72.4589 50.633 72.6707 50.6328H115.797C116.009 50.633 116.212 50.7169 116.361 50.8659C116.511 51.015 116.595 51.2171 116.595 51.4279V70.2697C116.595 70.4805 116.511 70.6826 116.361 70.8317C116.212 70.9807 116.009 71.0645 115.797 71.0648Z" fill="#2196F3"/>
<path d="M79.3587 58.6897C79.2151 58.69 79.0775 58.747 78.9761 58.8482C78.8746 58.9493 78.8176 59.0865 78.8176 59.2295C78.8176 59.3724 78.8746 59.5096 78.9761 59.6108C79.0775 59.712 79.2151 59.7689 79.3587 59.7692H109.109C109.252 59.7689 109.39 59.712 109.491 59.6108C109.593 59.5096 109.65 59.3724 109.65 59.2295C109.65 59.0865 109.593 58.9493 109.491 58.8482C109.39 58.747 109.252 58.69 109.109 58.6897H79.3587Z" fill="white"/>
<path d="M79.3587 61.9285C79.2151 61.9287 79.0775 61.9857 78.9761 62.0869C78.8746 62.1881 78.8176 62.3253 78.8176 62.4682C78.8176 62.6112 78.8746 62.7483 78.9761 62.8495C79.0775 62.9507 79.2151 63.0077 79.3587 63.008H94.5466C94.6902 63.0077 94.8279 62.9507 94.9293 62.8495C95.0308 62.7483 95.0877 62.6112 95.0877 62.4682C95.0877 62.3253 95.0308 62.1881 94.9293 62.0869C94.8279 61.9857 94.6902 61.9287 94.5466 61.9285H79.3587Z" fill="white"/>
<path d="M66.3431 78.0095C66.1995 78.0098 66.0619 78.0668 65.9604 78.168C65.859 78.2692 65.802 78.4063 65.802 78.5493C65.802 78.6922 65.859 78.8294 65.9604 78.9305C66.0619 79.0317 66.1995 79.0887 66.3431 79.089H122.124C122.268 79.0887 122.405 79.0317 122.507 78.9305C122.608 78.8294 122.665 78.6922 122.665 78.5493C122.665 78.4063 122.608 78.2692 122.507 78.168C122.405 78.0668 122.268 78.0098 122.124 78.0095H66.3431Z" fill="#E0E0E0"/>
<path d="M66.3431 81.2485C66.1995 81.2488 66.0619 81.3058 65.9604 81.407C65.859 81.5082 65.802 81.6453 65.802 81.7883C65.802 81.9313 65.859 82.0684 65.9604 82.1696C66.0619 82.2708 66.1995 82.3278 66.3431 82.328H107.562C107.706 82.3278 107.843 82.2708 107.945 82.1696C108.046 82.0684 108.103 81.9313 108.103 81.7883C108.103 81.6453 108.046 81.5082 107.945 81.407C107.843 81.3058 107.706 81.2488 107.562 81.2485H66.3431Z" fill="#E0E0E0"/>
<path d="M66.3431 84.4141C66.1995 84.4143 66.0619 84.4713 65.9604 84.5725C65.859 84.6737 65.802 84.8109 65.802 84.9538C65.802 85.0968 65.859 85.2339 65.9604 85.3351C66.0619 85.4363 66.1995 85.4933 66.3431 85.4936H122.124C122.268 85.4933 122.405 85.4363 122.507 85.3351C122.608 85.2339 122.665 85.0968 122.665 84.9538C122.665 84.8109 122.608 84.6737 122.507 84.5725C122.405 84.4713 122.268 84.4143 122.124 84.4141H66.3431Z" fill="#E0E0E0"/>
<path d="M66.3431 87.6528C66.1995 87.6531 66.0619 87.7101 65.9604 87.8113C65.859 87.9125 65.802 88.0496 65.802 88.1926C65.802 88.3356 65.859 88.4727 65.9604 88.5739C66.0619 88.6751 66.1995 88.7321 66.3431 88.7324H107.562C107.706 88.7321 107.843 88.6751 107.945 88.5739C108.046 88.4727 108.103 88.3356 108.103 88.1926C108.103 88.0496 108.046 87.9125 107.945 87.8113C107.843 87.7101 107.706 87.6531 107.562 87.6528H66.3431Z" fill="#E0E0E0"/>
<path d="M121.779 100.254H105.432C105.22 100.254 105.017 100.17 104.868 100.021C104.718 99.8723 104.634 99.6702 104.634 99.4594V96.8519C104.634 96.6411 104.718 96.4391 104.868 96.29C105.017 96.141 105.22 96.0571 105.432 96.0569H121.779C121.991 96.0571 122.194 96.141 122.344 96.29C122.493 96.4391 122.577 96.6411 122.578 96.8519V99.4594C122.577 99.6702 122.493 99.8723 122.344 100.021C122.194 100.17 121.991 100.254 121.779 100.254Z" fill="#2196F3"/>
<path d="M156.915 43.5008L129.296 57.5657L129.479 57.9207L157.098 43.8559L156.915 43.5008Z" fill="#BDBDBD"/>
<path d="M129.478 94.4603L129.295 94.8154L156.916 108.876L157.099 108.521L129.478 94.4603Z" fill="#BDBDBD"/>
<path d="M198.25 38.4971C198.249 42.3563 197.178 46.1403 195.155 49.4321C193.131 52.7239 190.234 55.3956 186.783 57.1529C186.605 57.2446 186.424 57.3344 186.244 57.4181C186.138 57.47 186.032 57.5178 185.926 57.5657C185.665 57.6834 185.401 57.7971 185.134 57.9028C184.186 58.2886 183.211 58.6026 182.215 58.8421C182.075 58.878 181.931 58.9099 181.789 58.9419C181.43 59.0216 181.069 59.0908 180.705 59.1493C178.719 59.4804 176.695 59.5275 174.695 59.2889C174.28 59.241 173.869 59.1799 173.461 59.1054C173.267 59.0695 173.072 59.0316 172.88 58.9917C172.854 58.9857 172.828 58.9797 172.802 58.9758C172.112 58.8311 171.429 58.65 170.758 58.4333C170.398 58.3176 170.039 58.1939 169.689 58.0583C169.506 57.9885 169.326 57.9167 169.148 57.8429C169.06 57.807 168.972 57.7691 168.885 57.7313C165.399 56.2349 162.384 53.8272 160.161 50.7633C157.938 47.6994 156.589 44.0936 156.257 40.3282C155.925 36.5629 156.623 32.7784 158.277 29.3761C159.931 25.9737 162.479 23.0804 165.651 21.0029C168.822 18.9254 172.5 17.7411 176.293 17.5757C180.086 17.4103 183.853 18.2699 187.195 20.0634C190.537 21.8569 193.329 24.5174 195.276 27.7627C197.222 31.0081 198.25 34.7173 198.25 38.4971Z" fill="white" fill-opacity="0.4"/>
<path d="M198.25 105.111C198.245 108.485 197.424 111.809 195.856 114.8C194.288 117.791 192.019 120.363 189.241 122.297C189.189 122.332 189.137 122.368 189.085 122.402C188.78 122.612 188.47 122.813 188.151 123.003C187.949 123.126 187.742 123.246 187.536 123.364C187.288 123.503 187.037 123.637 186.783 123.766C186.725 123.796 186.667 123.826 186.607 123.854C186.394 123.962 186.18 124.066 185.962 124.163C185.95 124.169 185.938 124.173 185.925 124.179C185.853 124.211 185.779 124.245 185.703 124.277C185.232 124.484 184.752 124.676 184.261 124.847C184.227 124.861 184.191 124.873 184.154 124.885C183.031 125.278 181.874 125.572 180.699 125.763C180.476 125.803 180.252 125.835 180.028 125.865C179.992 125.871 179.954 125.877 179.917 125.881C179.611 125.92 179.302 125.952 178.992 125.978C178.956 125.982 178.92 125.984 178.884 125.986C178.651 126.006 178.417 126.02 178.181 126.03C177.86 126.044 177.54 126.052 177.215 126.052C176.76 126.052 176.308 126.038 175.859 126.01C175.468 125.984 175.079 125.95 174.695 125.902C174.46 125.875 174.226 125.843 173.996 125.807C173.741 125.769 173.487 125.725 173.236 125.677C173.112 125.653 172.988 125.627 172.864 125.601C172.844 125.597 172.822 125.593 172.802 125.589C172.601 125.547 172.403 125.504 172.207 125.454C171.428 125.267 170.662 125.034 169.911 124.756C169.654 124.66 169.4 124.56 169.148 124.457C169.07 124.425 168.991 124.391 168.915 124.357C168.777 124.299 168.641 124.237 168.505 124.175C168.402 124.129 168.3 124.082 168.198 124.034C167.982 123.934 167.769 123.828 167.557 123.719C167.387 123.633 167.216 123.541 167.05 123.449C167.046 123.447 167.044 123.445 167.04 123.443C163.793 121.657 161.079 119.049 159.171 115.881C157.264 112.714 156.232 109.101 156.179 105.408C156.127 101.716 157.056 98.0751 158.873 94.8554C160.689 91.6357 163.329 88.9515 166.523 87.0748C169.718 85.1982 173.355 84.196 177.064 84.1697C180.773 84.1435 184.424 85.0941 187.645 86.9253C190.866 88.7565 193.544 91.4031 195.406 94.5968C197.269 97.7905 198.25 101.418 198.25 105.111Z" fill="white" fill-opacity="0.4"/>
<path d="M177.087 34.8052C175.574 34.807 174.124 35.406 173.054 36.4708C171.985 37.5357 171.383 38.9794 171.381 40.4853V44.7234C171.382 44.9257 171.463 45.1195 171.607 45.2624C171.751 45.4052 171.945 45.4854 172.149 45.4853H182.025C182.228 45.4854 182.423 45.4052 182.567 45.2624C182.711 45.1196 182.792 44.9257 182.792 44.7234V40.4853C182.79 38.9794 182.189 37.5358 181.119 36.471C180.049 35.4062 178.599 34.8071 177.087 34.8052Z" fill="#263238"/>
<path d="M174.172 52.6373L173.625 50.1841C173.548 49.8355 173.369 49.5175 173.11 49.2707C172.88 49.0715 172.611 48.9226 172.319 48.8339C172.285 48.8259 172.251 48.8179 172.215 48.8119C172.2 48.8077 172.184 48.8044 172.169 48.802C171.923 48.7595 171.672 48.768 171.43 48.827C171.188 48.886 170.961 48.9942 170.763 49.1448C170.565 49.2954 170.4 49.4852 170.28 49.7021C170.159 49.9191 170.084 50.1586 170.061 50.4055L169.596 53.2994L168.885 57.731C168.971 57.7689 169.06 57.8068 169.148 57.8427C169.326 57.9165 169.506 57.9883 169.689 58.0581C170.039 58.1937 170.398 58.3174 170.758 58.433C171.429 58.6498 172.111 58.8309 172.802 58.9755C172.828 58.9795 172.854 58.9855 172.88 58.9915C173.072 59.0314 173.267 59.0693 173.461 59.1052L174.432 53.806L174.172 52.6373Z" fill="#263238"/>
<path d="M175.68 45.4219C177.99 45.4219 179.862 43.5576 179.862 41.2578C179.862 38.9581 177.99 37.0938 175.68 37.0938C173.369 37.0938 171.497 38.9581 171.497 41.2578C171.497 43.5576 173.369 45.4219 175.68 45.4219Z" fill="#FFB7B7"/>
<path d="M180.2 55.1943L179.306 48.1819L179.118 46.6961H179.116L179.032 46.6941C178.748 46.6841 178.471 46.6821 178.199 46.6921C176.527 46.6992 174.887 47.1509 173.449 48.0004C173.072 48.229 172.713 48.485 172.375 48.7663L172.359 48.7823L172.319 48.8341L170.898 50.653L170.897 50.6889L170.758 58.4332C171.429 58.65 172.111 58.8311 172.802 58.9757C172.828 58.9797 172.854 58.9857 172.88 58.9917C173.072 59.0316 173.266 59.0695 173.461 59.1054C173.869 59.1792 174.281 59.2403 174.695 59.2889C176.695 59.5274 178.718 59.4804 180.705 59.1492L180.2 55.1943Z" fill="#2196F3"/>
<path d="M181.662 48.2278C181.004 47.4551 180.111 46.9173 179.118 46.6961H179.116C178.852 46.6367 178.582 46.6014 178.311 46.5904L178.241 46.5884L178.199 46.6921L174.833 54.7695L174.29 52.6115L173.449 48.0004L173.443 47.9665L173.317 48.0403C172.927 48.2639 172.558 48.5222 172.215 48.8122C170.85 49.9597 169.939 51.553 169.645 53.3076C169.559 53.8275 169.527 54.3548 169.55 54.8812L169.689 58.0583C170.039 58.1939 170.398 58.3176 170.758 58.4332C171.429 58.65 172.111 58.8311 172.802 58.9757C172.828 58.9797 172.854 58.9857 172.88 58.9917C173.072 59.0315 173.267 59.0694 173.461 59.1053C173.87 59.1791 174.281 59.2403 174.695 59.2888C176.695 59.5274 178.718 59.4804 180.705 59.1492C181.069 59.0914 181.431 59.0222 181.789 58.9418C181.931 58.9099 182.075 58.878 182.215 58.8421L181.913 57.9546L182.714 51.7938C182.796 51.1593 182.745 50.5148 182.564 49.901C182.383 49.2872 182.076 48.7174 181.662 48.2278Z" fill="#263238"/>
<path d="M182.656 48.3994C182.513 47.9603 182.205 47.5932 181.797 47.3744C181.389 47.1556 180.911 47.102 180.465 47.2247C180.392 47.2431 180.321 47.2664 180.252 47.2945C179.92 47.4293 179.636 47.6598 179.436 47.9565C179.236 48.2532 179.13 48.6026 179.13 48.9598L179.138 52.6874L180.2 55.1943L181.789 58.9419C181.931 58.9099 182.075 58.878 182.215 58.8421C183.211 58.6026 184.186 58.2886 185.134 57.9028C185.401 57.7971 185.665 57.6834 185.926 57.5657C186.032 57.5178 186.138 57.47 186.244 57.4181L182.656 48.3994Z" fill="#263238"/>
<path d="M175.398 36.3311H174.545C173.348 36.3315 172.2 36.8051 171.354 37.6477C170.508 38.4904 170.033 39.6331 170.033 40.8245V40.9082H176.073L176.135 40.0447L176.444 40.9082H177.373L177.498 39.197L178.111 40.9082H179.91V40.8245C179.908 39.6334 179.433 38.4914 178.587 37.6491C177.741 36.8067 176.594 36.3327 175.398 36.3311Z" fill="#263238"/>
<path d="M173.565 112.865C172.86 112.815 172.153 112.905 171.484 113.131C170.815 113.357 170.198 113.713 169.67 114.18C169.141 114.647 168.711 115.214 168.406 115.848C168.101 116.482 167.926 117.17 167.892 117.873L167.557 123.718C167.769 123.828 167.982 123.934 168.198 124.034C168.3 124.081 168.402 124.129 168.505 124.175C168.641 124.237 168.777 124.299 168.915 124.357C168.991 124.391 169.07 124.424 169.148 124.456C169.4 124.56 169.655 124.66 169.911 124.756C170.662 125.033 171.428 125.267 172.207 125.454C172.403 125.503 172.601 125.547 172.802 125.589C172.822 125.593 172.844 125.597 172.864 125.601C172.988 125.627 173.112 125.653 173.236 125.677L173.661 112.871L173.565 112.865Z" fill="#263238"/>
<path d="M178.992 125.978C179.302 125.952 179.611 125.92 179.918 125.88C179.954 125.876 179.992 125.87 180.028 125.864C180.252 125.835 180.476 125.803 180.699 125.763C180.717 125.222 180.711 124.833 180.711 124.785L181.706 114.456L179.631 113.252L179.226 113.016L172.952 112.815L172.9 112.859L169.887 115.46L168.915 124.357C168.991 124.391 169.07 124.424 169.148 124.456C169.4 124.56 169.655 124.66 169.911 124.756C170.662 125.033 171.428 125.267 172.207 125.454C172.403 125.503 172.601 125.547 172.802 125.589C172.822 125.593 172.844 125.597 172.864 125.601C172.988 125.627 173.112 125.653 173.236 125.677C173.487 125.725 173.741 125.769 173.996 125.807C174.226 125.842 174.46 125.874 174.695 125.902C175.079 125.95 175.468 125.984 175.859 126.01C176.308 126.038 176.76 126.052 177.215 126.052C177.54 126.052 177.86 126.044 178.181 126.03C178.417 126.02 178.651 126.006 178.884 125.986L178.992 125.978Z" fill="#263238"/>
<path d="M183.189 115.346L179.635 113.184L179.631 113.252L178.992 125.978C179.303 125.952 179.611 125.92 179.918 125.88C179.954 125.876 179.992 125.87 180.028 125.864C180.252 125.834 180.477 125.803 180.699 125.763C181.875 125.572 183.031 125.278 184.155 124.885C184.191 124.873 184.227 124.861 184.261 124.847L184.513 117.711C184.531 117.234 184.417 116.761 184.183 116.344C183.95 115.927 183.606 115.582 183.189 115.346Z" fill="#263238"/>
<path d="M175.388 111.438C177.824 111.438 179.797 109.473 179.797 107.048C179.797 104.624 177.824 102.659 175.388 102.659C172.953 102.659 170.979 104.624 170.979 107.048C170.979 109.473 172.953 111.438 175.388 111.438Z" fill="#9F616A"/>
<path d="M173.794 100.567C178.235 99.2924 179.495 102.956 179.495 102.956C181.635 104.37 180.295 106.142 180.295 106.142C180.836 106.262 179.756 109.408 179.396 109.329C179.204 109.286 178.709 109.873 178.29 110.43C178.147 110.43 178.003 110.443 177.862 110.471L178.675 107.477C178.675 107.477 175.935 107.059 175.095 105.745C174.291 104.487 171.645 104.09 170.892 104.93C170.847 104.689 170.756 104.458 170.623 104.251C170.521 104.094 170.386 103.96 170.229 103.857C170.894 101.04 173.794 100.567 173.794 100.567Z" fill="#263238"/>
<path opacity="0.2" d="M178.884 125.986C178.651 126.006 178.417 126.02 178.181 126.03L178.798 122.656V122.889L178.884 125.986Z" fill="#212121"/>
</g>
<defs>
<linearGradient id="paint0_linear" x1="123.25" y1="0" x2="123.25" y2="140" gradientUnits="userSpaceOnUse">
<stop stop-color="#3F51B5"/>
<stop offset="1" stop-color="#3F51B5" stop-opacity="0"/>
</linearGradient>
<clipPath id="clip0">
<rect width="150" height="112" fill="white" transform="translate(48.25 14)"/>
</clipPath>
</defs>
</svg>
