<svg width="247" height="140" viewBox="0 0 247 140" fill="none" xmlns="http://www.w3.org/2000/svg">
<rect x="0.5" width="246.5" height="140" rx="10" fill="url(#paint0_linear)"/>
<g clip-path="url(#clip0)">
<path opacity="0.5" d="M171.266 86.9577H74.6571C73.9976 86.9569 73.3654 86.6958 72.8991 86.2315C72.4327 85.7673 72.1704 85.1378 72.1697 84.4813V25.1751C72.1702 24.6941 72.3624 24.233 72.704 23.8928C73.0456 23.5527 73.5088 23.3614 73.992 23.3608H171.9C172.391 23.3614 172.862 23.556 173.21 23.902C173.557 24.248 173.753 24.7172 173.753 25.2065V84.4813C173.753 85.1378 173.49 85.7673 173.024 86.2315C172.558 86.6958 171.925 86.9569 171.266 86.9577Z" fill="#FAFAFA"/>
<path d="M167.742 83.4507H77.7046C76.3848 83.4507 75.311 82.4496 75.311 81.2192V29.5746C75.311 28.6621 76.1067 27.9197 77.0847 27.9197H168.332C169.326 27.9197 170.135 28.6743 170.135 29.6019V81.2192C170.135 82.4496 169.061 83.4507 167.742 83.4507Z" fill="white"/>
<path d="M173.719 25.0334H72.1348V23.7727C72.1357 23.1139 72.3991 22.4825 72.8671 22.0168C73.3351 21.5512 73.9696 21.2894 74.6313 21.2888H171.222C171.884 21.2894 172.518 21.5512 172.986 22.0168C173.454 22.4825 173.718 23.1139 173.719 23.7727V25.0334Z" fill="#008494"/>
<path d="M76.6716 23.8077C77.0283 23.8077 77.3174 23.5199 77.3174 23.1648C77.3174 22.8098 77.0283 22.522 76.6716 22.522C76.315 22.522 76.0259 22.8098 76.0259 23.1648C76.0259 23.5199 76.315 23.8077 76.6716 23.8077Z" fill="white"/>
<path d="M79.1228 23.8077C79.4794 23.8077 79.7685 23.5199 79.7685 23.1648C79.7685 22.8098 79.4794 22.522 79.1228 22.522C78.7662 22.522 78.4771 22.8098 78.4771 23.1648C78.4771 23.5199 78.7662 23.8077 79.1228 23.8077Z" fill="white"/>
<path d="M81.5737 23.8077C81.9303 23.8077 82.2195 23.5199 82.2195 23.1648C82.2195 22.8098 81.9303 22.522 81.5737 22.522C81.2171 22.522 80.928 22.8098 80.928 23.1648C80.928 23.5199 81.2171 23.8077 81.5737 23.8077Z" fill="white"/>
<path d="M157.831 74.7891H88.0566C87.3572 74.7883 86.6866 74.5114 86.192 74.019C85.6975 73.5266 85.4193 72.859 85.4185 72.1627V38.6709C85.419 38.1501 85.6271 37.6508 85.997 37.2826C86.3669 36.9143 86.8684 36.7071 87.3915 36.7065H158.465C158.996 36.7072 159.506 36.9176 159.882 37.2917C160.257 37.6659 160.469 38.1732 160.469 38.7023V72.1627C160.469 72.859 160.19 73.5266 159.696 74.019C159.201 74.5114 158.531 74.7883 157.831 74.7891ZM87.3915 37.0067C86.9483 37.0072 86.5235 37.1827 86.2101 37.4947C85.8967 37.8067 85.7205 38.2297 85.72 38.6709V72.1627C85.7207 72.7794 85.9671 73.3707 86.4051 73.8068C86.8432 74.2429 87.4371 74.4883 88.0566 74.489H157.831C158.451 74.4883 159.045 74.2429 159.483 73.8068C159.921 73.3707 160.167 72.7794 160.168 72.1627V38.7023C160.167 38.2527 159.988 37.8218 159.669 37.5039C159.349 37.186 158.916 37.0072 158.465 37.0067H87.3915Z" fill="#BDBDBD"/>
<path d="M90.4687 72.1625H155.419C156.059 72.1625 156.672 71.9095 157.125 71.4592C157.577 71.0089 157.831 70.3981 157.831 69.7612V41.7634C157.831 41.1265 157.577 40.5157 157.125 40.0654C156.672 39.6151 156.059 39.3621 155.419 39.3621H90.4687C89.829 39.3621 89.2155 39.6151 88.7631 40.0654C88.3108 40.5157 88.0566 41.1265 88.0566 41.7634V69.7612C88.0566 70.3981 88.3108 71.0089 88.7631 71.4592C89.2155 71.9095 89.829 72.1625 90.4687 72.1625Z" fill="#FAFAFA"/>
<path d="M97.8436 47.5079C98.5929 47.5079 99.2004 46.9032 99.2004 46.1572C99.2004 45.4112 98.5929 44.8064 97.8436 44.8064C97.0943 44.8064 96.4868 45.4112 96.4868 46.1572C96.4868 46.9032 97.0943 47.5079 97.8436 47.5079Z" fill="#BDBDBD"/>
<path d="M97.8436 52.6107C98.5929 52.6107 99.2004 52.0059 99.2004 51.2599C99.2004 50.5139 98.5929 49.9092 97.8436 49.9092C97.0943 49.9092 96.4868 50.5139 96.4868 51.2599C96.4868 52.0059 97.0943 52.6107 97.8436 52.6107Z" fill="#BDBDBD"/>
<path d="M97.8436 57.7135C98.5929 57.7135 99.2004 57.1087 99.2004 56.3627C99.2004 55.6167 98.5929 55.012 97.8436 55.012C97.0943 55.012 96.4868 55.6167 96.4868 56.3627C96.4868 57.1087 97.0943 57.7135 97.8436 57.7135Z" fill="#BDBDBD"/>
<path d="M97.8436 62.8162C98.5929 62.8162 99.2004 62.2115 99.2004 61.4655C99.2004 60.7195 98.5929 60.1147 97.8436 60.1147C97.0943 60.1147 96.4868 60.7195 96.4868 61.4655C96.4868 62.2115 97.0943 62.8162 97.8436 62.8162Z" fill="#BDBDBD"/>
<path d="M149.25 46.307H104.627C104.587 46.307 104.549 46.2912 104.521 46.263C104.492 46.2349 104.477 46.1967 104.477 46.1569C104.477 46.1171 104.492 46.0789 104.521 46.0508C104.549 46.0227 104.587 46.0068 104.627 46.0068H149.25C149.29 46.0068 149.329 46.0227 149.357 46.0508C149.385 46.0789 149.401 46.1171 149.401 46.1569C149.401 46.1967 149.385 46.2349 149.357 46.263C149.329 46.2912 149.29 46.307 149.25 46.307Z" fill="#BDBDBD"/>
<path d="M149.25 51.41H104.627C104.587 51.41 104.549 51.3942 104.521 51.3661C104.492 51.3379 104.477 51.2998 104.477 51.2599C104.477 51.2201 104.492 51.182 104.521 51.1538C104.549 51.1257 104.587 51.1099 104.627 51.1099H149.25C149.29 51.1099 149.329 51.1257 149.357 51.1538C149.385 51.182 149.401 51.2201 149.401 51.2599C149.401 51.2998 149.385 51.3379 149.357 51.3661C149.329 51.3942 149.29 51.41 149.25 51.41Z" fill="#BDBDBD"/>
<path d="M149.25 56.5128H104.627C104.587 56.5128 104.549 56.497 104.521 56.4689C104.492 56.4407 104.477 56.4025 104.477 56.3627C104.477 56.3229 104.492 56.2848 104.521 56.2566C104.549 56.2285 104.587 56.2126 104.627 56.2126H149.25C149.29 56.2126 149.329 56.2285 149.357 56.2566C149.385 56.2848 149.401 56.3229 149.401 56.3627C149.401 56.4025 149.385 56.4407 149.357 56.4689C149.329 56.497 149.29 56.5128 149.25 56.5128Z" fill="#BDBDBD"/>
<path d="M149.25 61.6156H104.627C104.587 61.6156 104.549 61.5998 104.521 61.5717C104.492 61.5435 104.477 61.5053 104.477 61.4655C104.477 61.4257 104.492 61.3875 104.521 61.3594C104.549 61.3312 104.587 61.3154 104.627 61.3154H149.25C149.29 61.3154 149.329 61.3312 149.357 61.3594C149.385 61.3875 149.401 61.4257 149.401 61.4655C149.401 61.5053 149.385 61.5435 149.357 61.5717C149.329 61.5998 149.29 61.6156 149.25 61.6156Z" fill="#BDBDBD"/>
<path d="M113.07 66.7186H108.698C108.498 66.7184 108.306 66.6393 108.165 66.4986C108.024 66.3579 107.944 66.1672 107.944 65.9682V61.9159C107.944 61.717 108.024 61.5263 108.165 61.3856C108.306 61.2449 108.498 61.1658 108.698 61.1655H113.07C113.27 61.1658 113.461 61.2449 113.602 61.3856C113.744 61.5263 113.823 61.717 113.823 61.9159V65.9682C113.823 66.1672 113.744 66.3579 113.602 66.4986C113.461 66.6393 113.27 66.7184 113.07 66.7186Z" fill="#00BCD4"/>
<path d="M122.869 66.7185H118.497C118.297 66.7182 118.105 66.6391 117.964 66.4984C117.823 66.3577 117.743 66.167 117.743 65.968V56.8129C117.743 56.614 117.823 56.4232 117.964 56.2825C118.105 56.1419 118.297 56.0627 118.497 56.0625H122.869C123.068 56.0627 123.26 56.1419 123.401 56.2825C123.543 56.4232 123.622 56.614 123.622 56.8129V65.968C123.622 66.167 123.543 66.3577 123.401 66.4984C123.26 66.6391 123.068 66.7182 122.869 66.7185Z" fill="#00BCD4"/>
<path d="M132.818 66.7185H128.446C128.247 66.7183 128.055 66.6392 127.914 66.4985C127.772 66.3578 127.693 66.167 127.693 65.9681V51.7101C127.693 51.5112 127.772 51.3204 127.914 51.1798C128.055 51.0391 128.247 50.9599 128.446 50.9597H132.818C133.018 50.9599 133.21 51.0391 133.351 51.1798C133.492 51.3204 133.572 51.5112 133.572 51.7101V65.9681C133.572 66.167 133.492 66.3578 133.351 66.4985C133.21 66.6392 133.018 66.7183 132.818 66.7185Z" fill="#00BCD4"/>
<path d="M143.069 66.7184H138.698C138.498 66.7182 138.306 66.639 138.165 66.4984C138.024 66.3577 137.944 66.1669 137.944 65.968V46.7573C137.944 46.5583 138.024 46.3676 138.165 46.2269C138.306 46.0862 138.498 46.0071 138.698 46.0068H143.069C143.269 46.0071 143.461 46.0862 143.602 46.2269C143.744 46.3676 143.823 46.5583 143.823 46.7573V65.968C143.823 66.1669 143.744 66.3577 143.602 66.4984C143.461 66.639 143.269 66.7182 143.069 66.7184Z" fill="#00BCD4"/>
<path d="M149.25 66.7186H104.627C104.587 66.7186 104.549 66.7028 104.521 66.6747C104.492 66.6465 104.477 66.6083 104.477 66.5685C104.477 66.5287 104.492 66.4906 104.521 66.4624C104.549 66.4343 104.587 66.4185 104.627 66.4185H149.25C149.29 66.4185 149.329 66.4343 149.357 66.4624C149.385 66.4906 149.401 66.5287 149.401 66.5685C149.401 66.6083 149.385 66.6465 149.357 66.6747C149.329 66.7028 149.29 66.7186 149.25 66.7186Z" fill="#435861"/>
<path d="M168.856 94.7162C168.978 94.5321 169.139 94.3769 169.328 94.2616C169.517 94.1462 169.729 94.0735 169.949 94.0486C170.169 94.0236 170.392 94.047 170.603 94.1172C170.813 94.1873 171.005 94.3025 171.165 94.4545L175.953 91.9949L175.655 94.7661L171.155 96.677C170.88 96.9286 170.522 97.0713 170.149 97.0779C169.776 97.0846 169.414 96.9548 169.13 96.7131C168.847 96.4714 168.663 96.1346 168.612 95.7666C168.561 95.3985 168.648 95.0248 168.856 94.7162Z" fill="#FFB8B8"/>
<path d="M172.975 95.7497C172.866 95.6649 172.786 95.5491 172.745 95.4178L172.364 94.1932C172.323 94.0605 172.324 93.9185 172.367 93.7864C172.41 93.6543 172.492 93.5385 172.603 93.4546L176.483 90.5369L180.686 82.7757C180.862 82.5501 181.081 82.3611 181.33 82.2196C181.579 82.0782 181.854 81.987 182.139 81.9514C182.424 81.9157 182.713 81.9362 182.99 82.0117C183.266 82.0873 183.526 82.2163 183.752 82.3916C183.979 82.5668 184.169 82.7848 184.311 83.033C184.453 83.2813 184.544 83.555 184.58 83.8385C184.616 84.122 184.595 84.4097 184.52 84.6853C184.444 84.9608 184.314 85.2188 184.138 85.4445L181.747 90.4678C181.022 91.9926 179.765 93.2031 178.21 93.8742L173.663 95.8377C173.576 95.8754 173.481 95.8944 173.386 95.8933C173.29 95.8923 173.196 95.8714 173.11 95.8318C173.062 95.8098 173.016 95.7823 172.975 95.7497Z" fill="#435861"/>
<path d="M184.244 79.5367C186.289 79.5367 187.946 77.8864 187.946 75.8505C187.946 73.8147 186.289 72.1643 184.244 72.1643C182.199 72.1643 180.541 73.8147 180.541 75.8505C180.541 77.8864 182.199 79.5367 184.244 79.5367Z" fill="#FFB8B8"/>
<path d="M182.742 124.207L180.894 124.207L180.015 117.11L182.743 117.11L182.742 124.207Z" fill="#FFB8B8"/>
<path d="M179.573 123.681H183.138V125.915H177.329C177.329 125.622 177.387 125.331 177.5 125.06C177.613 124.789 177.778 124.543 177.986 124.335C178.195 124.128 178.442 123.963 178.715 123.851C178.987 123.739 179.279 123.681 179.573 123.681Z" fill="#263238"/>
<path d="M188.772 124.207L186.924 124.207L186.045 117.11L188.773 117.11L188.772 124.207Z" fill="#FFB8B8"/>
<path d="M185.604 123.681H189.168V125.915H183.359C183.359 125.622 183.417 125.331 183.53 125.06C183.643 124.789 183.808 124.543 184.017 124.336C184.225 124.128 184.473 123.964 184.745 123.851C185.017 123.739 185.309 123.681 185.604 123.681Z" fill="#263238"/>
<path d="M188.907 122.406L186.741 122.406C186.592 122.406 186.447 122.357 186.329 122.267C186.21 122.176 186.125 122.05 186.086 121.906L182.969 110.395C182.964 110.377 182.952 110.361 182.937 110.351C182.921 110.341 182.902 110.337 182.884 110.34C182.865 110.343 182.849 110.353 182.837 110.368C182.825 110.382 182.82 110.4 182.821 110.419L183.45 121.336C183.456 121.433 183.441 121.529 183.406 121.62C183.37 121.71 183.316 121.791 183.247 121.859C183.177 121.926 183.094 121.978 183.002 122.011C182.911 122.043 182.814 122.056 182.717 122.048L180.282 121.846C180.126 121.833 179.98 121.766 179.867 121.658C179.755 121.549 179.683 121.406 179.665 121.251L177.447 98.3265L178.305 98.8391L186.345 97.4802L189.58 121.642C189.592 121.737 189.584 121.834 189.557 121.926C189.529 122.018 189.481 122.103 189.417 122.176C189.354 122.248 189.275 122.306 189.187 122.346C189.099 122.386 189.004 122.406 188.907 122.406H188.907Z" fill="#263238"/>
<path d="M180.136 100.746C179.249 100.739 178.38 100.496 177.62 100.041C177.502 99.972 177.409 99.8692 177.351 99.7463C177.294 99.6234 177.275 99.4861 177.297 99.3523C177.58 97.6284 179.059 88.7853 180.404 83.9643C180.952 82.0008 182.164 80.9432 184.005 80.8211C186.699 80.6452 189.093 82.7433 189.342 85.5037C189.782 90.3737 187.996 97.2928 187.207 100.042C187.177 100.148 187.12 100.245 187.043 100.324C186.966 100.404 186.871 100.463 186.765 100.497C186.66 100.532 186.548 100.539 186.438 100.52C186.329 100.501 186.226 100.456 186.139 100.388L184.531 99.1431C184.433 99.0678 184.31 99.0294 184.186 99.0346C184.062 99.0398 183.943 99.0881 183.851 99.1713C182.496 100.374 181.209 100.746 180.136 100.746Z" fill="#435861"/>
<path opacity="0.2" d="M185.452 87.8867L186.808 93.5901L184.848 98.3926L186.205 93.7401L185.452 87.8867Z" fill="#212121"/>
<path d="M186.357 78.8817C186.686 78.8878 187.013 78.8289 187.32 78.7083C187.454 78.6566 187.594 78.6141 187.729 78.5624C188.917 78.1054 189.7 76.8457 189.728 75.5778C189.756 74.31 189.097 73.0795 188.117 72.2685C187.138 71.4575 185.87 71.0411 184.6 70.9447C183.231 70.841 181.691 71.1863 180.926 72.3206C180.723 72.6225 180.58 72.9888 180.701 73.3534C180.737 73.4634 180.802 73.562 180.888 73.6394C181.229 73.9418 181.57 73.7145 181.918 73.6944C182.396 73.6668 182.826 74.0523 182.98 74.5039C183.135 74.9555 183.067 75.4527 182.942 75.9133C182.847 76.1905 182.787 76.4784 182.764 76.7703C182.754 76.9167 182.781 77.0632 182.844 77.196C182.907 77.3287 183.003 77.4433 183.122 77.5289C183.421 77.7088 183.814 77.6047 184.113 77.4252C184.412 77.2456 184.67 76.9959 184.994 76.8637C185.317 76.7316 185.751 76.7609 185.939 77.054C185.998 77.1606 186.039 77.2769 186.058 77.3975C186.227 78.1621 186.188 78.1171 186.357 78.8817Z" fill="#263238"/>
<path opacity="0.8" d="M180.618 119.058L157.432 111.02C157.034 110.881 156.708 110.591 156.525 110.213C156.341 109.836 156.316 109.401 156.454 109.005L162.479 91.7812C162.581 91.491 162.794 91.2529 163.072 91.1191C163.35 90.9853 163.67 90.9668 163.962 91.0675L187.931 99.3779C188.227 99.4811 188.471 99.6971 188.607 99.9787C188.744 100.26 188.763 100.584 188.66 100.88L182.642 118.084C182.503 118.48 182.211 118.805 181.832 118.988C181.452 119.17 181.016 119.196 180.618 119.058Z" fill="#F5F5F5"/>
<path d="M159.411 110.03L179.685 117.059C180.071 117.193 180.494 117.168 180.862 116.991C181.231 116.814 181.513 116.499 181.647 116.114L186.512 102.207C186.647 101.822 186.622 101.401 186.445 101.034C186.267 100.668 185.95 100.387 185.564 100.253L165.29 93.2236C164.904 93.0897 164.48 93.114 164.112 93.2911C163.744 93.4683 163.462 93.7837 163.327 94.1681L158.462 108.076C158.395 108.266 158.367 108.468 158.379 108.669C158.39 108.87 158.442 109.067 158.53 109.248C158.618 109.43 158.741 109.592 158.892 109.726C159.043 109.86 159.22 109.963 159.411 110.03Z" fill="white"/>
<path d="M164.502 100.258L163.498 99.9102C163.443 99.8913 163.399 99.8516 163.374 99.8C163.348 99.7483 163.345 99.6888 163.364 99.6346L163.714 98.635C163.733 98.5808 163.772 98.5363 163.824 98.5114C163.876 98.4864 163.936 98.4829 163.99 98.5017L164.994 98.8498C165.049 98.8688 165.094 98.9084 165.119 98.9601C165.144 99.0118 165.147 99.0713 165.128 99.1255L164.779 100.125C164.76 100.179 164.72 100.224 164.668 100.249C164.616 100.274 164.556 100.277 164.502 100.258Z" fill="#00BCD4"/>
<path d="M163.596 102.848L162.592 102.5C162.537 102.481 162.493 102.441 162.468 102.39C162.442 102.338 162.439 102.279 162.458 102.224L162.808 101.225C162.827 101.171 162.866 101.126 162.918 101.101C162.97 101.076 163.03 101.073 163.084 101.092L164.088 101.44C164.143 101.459 164.188 101.498 164.213 101.55C164.238 101.602 164.241 101.661 164.222 101.715L163.873 102.715C163.854 102.769 163.814 102.814 163.762 102.839C163.71 102.864 163.65 102.867 163.596 102.848Z" fill="#435861"/>
<path d="M162.69 105.438L161.686 105.09C161.631 105.071 161.587 105.031 161.561 104.98C161.536 104.928 161.533 104.869 161.552 104.814L161.902 103.815C161.921 103.76 161.96 103.716 162.012 103.691C162.064 103.666 162.124 103.663 162.178 103.681L163.182 104.03C163.237 104.048 163.282 104.088 163.307 104.14C163.332 104.191 163.335 104.251 163.316 104.305L162.967 105.305C162.948 105.359 162.908 105.403 162.856 105.428C162.804 105.453 162.744 105.457 162.69 105.438Z" fill="#BDBDBD"/>
<path d="M171.249 102.037L166.411 100.36C166.384 100.351 166.359 100.336 166.338 100.317C166.316 100.298 166.299 100.275 166.286 100.25C166.274 100.224 166.266 100.196 166.265 100.168C166.263 100.139 166.267 100.111 166.277 100.084C166.286 100.057 166.301 100.032 166.32 100.011C166.339 99.9898 166.362 99.9725 166.387 99.9602C166.413 99.9478 166.441 99.9406 166.47 99.9391C166.498 99.9375 166.527 99.9415 166.554 99.951L171.392 101.628C171.419 101.638 171.444 101.652 171.465 101.671C171.486 101.69 171.504 101.713 171.516 101.738C171.529 101.764 171.536 101.792 171.538 101.82C171.539 101.849 171.536 101.877 171.526 101.904C171.517 101.931 171.502 101.956 171.483 101.977C171.464 101.998 171.441 102.016 171.415 102.028C171.389 102.04 171.361 102.047 171.333 102.049C171.304 102.051 171.276 102.047 171.249 102.037Z" fill="#BDBDBD"/>
<path d="M170.343 104.627L165.505 102.95C165.45 102.931 165.406 102.891 165.381 102.84C165.355 102.788 165.352 102.728 165.371 102.674C165.39 102.62 165.43 102.575 165.482 102.55C165.534 102.525 165.593 102.522 165.648 102.541L170.486 104.218C170.513 104.227 170.538 104.242 170.559 104.261C170.58 104.28 170.598 104.303 170.61 104.328C170.623 104.354 170.63 104.382 170.632 104.41C170.633 104.439 170.629 104.467 170.62 104.494C170.611 104.521 170.596 104.546 170.577 104.567C170.558 104.588 170.535 104.605 170.509 104.618C170.483 104.63 170.455 104.637 170.427 104.639C170.398 104.641 170.37 104.637 170.343 104.627Z" fill="#BDBDBD"/>
<path d="M169.437 107.217L164.599 105.54C164.544 105.521 164.5 105.481 164.475 105.429C164.449 105.378 164.446 105.318 164.465 105.264C164.484 105.21 164.524 105.165 164.576 105.14C164.628 105.115 164.687 105.112 164.742 105.131L169.58 106.808C169.634 106.827 169.679 106.867 169.704 106.918C169.729 106.97 169.732 107.029 169.713 107.084C169.695 107.138 169.655 107.182 169.603 107.207C169.551 107.232 169.491 107.236 169.437 107.217Z" fill="#BDBDBD"/>
<path d="M182.311 108.62C182.346 108.536 182.379 108.45 182.41 108.363C182.807 107.226 182.735 105.979 182.209 104.895C181.683 103.812 180.746 102.981 179.604 102.585L178.014 107.13L182.311 108.62Z" fill="#00BCD4"/>
<path d="M177.552 107.407L179.142 102.861C178.301 102.57 177.394 102.53 176.531 102.746C175.668 102.962 174.887 103.424 174.285 104.077C173.683 104.729 173.286 105.543 173.143 106.417C173 107.291 173.117 108.188 173.48 108.997C173.843 109.806 174.435 110.492 175.185 110.969C175.934 111.447 176.808 111.696 177.697 111.685C178.587 111.674 179.454 111.405 180.192 110.909C180.93 110.414 181.505 109.714 181.849 108.897L177.552 107.407Z" fill="#435861"/>
<path d="M183.244 100.886C183.226 100.666 183.257 100.445 183.334 100.238C183.411 100.031 183.533 99.844 183.691 99.6891C183.849 99.5342 184.039 99.4156 184.247 99.3417C184.456 99.2678 184.679 99.2404 184.899 99.2614L187.142 94.3848L188.625 96.7482L186.268 101.017C186.209 101.383 186.016 101.715 185.726 101.95C185.437 102.184 185.071 102.305 184.698 102.289C184.325 102.273 183.971 102.121 183.703 101.863C183.436 101.604 183.272 101.257 183.244 100.886Z" fill="#FFB8B8"/>
<path d="M187.126 99.1689C186.988 99.1689 186.853 99.127 186.74 99.0488L185.681 98.3191C185.566 98.2399 185.479 98.1275 185.431 97.9973C185.383 97.8671 185.376 97.7252 185.411 97.591L186.656 92.9113L185.151 84.2225C185.15 83.9366 185.205 83.6531 185.313 83.3883C185.421 83.1235 185.581 82.8826 185.783 82.6793C185.985 82.476 186.225 82.3144 186.49 82.2036C186.755 82.0928 187.039 82.0351 187.326 82.0337C187.613 82.0323 187.898 82.0873 188.164 82.1955C188.43 82.3038 188.672 82.4631 188.876 82.6644C189.079 82.8658 189.242 83.1051 189.352 83.3689C189.463 83.6326 189.521 83.9155 189.522 84.2015L190.755 89.623C191.129 91.2684 190.891 92.9932 190.083 94.4765L187.722 98.8152C187.677 98.8986 187.614 98.9715 187.539 99.0293C187.463 99.087 187.376 99.1283 187.283 99.1504C187.232 99.1627 187.179 99.1689 187.126 99.1689Z" fill="#435861"/>
<path d="M198.599 125.999H169.956C169.916 125.999 169.878 125.984 169.849 125.955C169.821 125.927 169.805 125.889 169.805 125.849C169.805 125.809 169.821 125.771 169.849 125.743C169.878 125.715 169.916 125.699 169.956 125.699H198.599C198.639 125.699 198.677 125.715 198.706 125.743C198.734 125.771 198.75 125.809 198.75 125.849C198.75 125.889 198.734 125.927 198.706 125.955C198.677 125.984 198.639 125.999 198.599 125.999Z" fill="#BDBDBD"/>
<path d="M122.701 124.132L124.549 124.132L125.428 117.035H122.701L122.701 124.132Z" fill="#A0616A"/>
<path d="M122.229 123.531L125.869 123.531H125.869C126.174 123.531 126.476 123.591 126.757 123.707C127.038 123.823 127.294 123.993 127.51 124.208C127.725 124.422 127.896 124.677 128.012 124.957C128.129 125.237 128.189 125.537 128.189 125.84V125.916L122.23 125.916L122.229 123.531Z" fill="#263238"/>
<path d="M115.314 124.132L117.162 124.132L118.041 117.035H115.314L115.314 124.132Z" fill="#A0616A"/>
<path d="M114.843 123.531L118.482 123.531H118.482C118.787 123.531 119.089 123.591 119.37 123.707C119.652 123.823 119.907 123.993 120.123 124.208C120.338 124.422 120.509 124.677 120.625 124.957C120.742 125.237 120.802 125.537 120.802 125.84V125.916L114.843 125.916L114.843 123.531Z" fill="#263238"/>
<path d="M123.07 74.9977C125.115 74.9977 126.772 73.3473 126.772 71.3115C126.772 69.2756 125.115 67.6252 123.07 67.6252C121.025 67.6252 119.367 69.2756 119.367 71.3115C119.367 73.3473 121.025 74.9977 123.07 74.9977Z" fill="#A0616A"/>
<path d="M125.56 122.6H122.13C122.04 122.6 121.951 122.583 121.868 122.548C121.786 122.514 121.71 122.463 121.647 122.4C121.584 122.336 121.534 122.261 121.501 122.178C121.467 122.095 121.45 122.006 121.452 121.917L121.651 105.703C121.652 105.645 121.63 105.59 121.591 105.547C121.552 105.505 121.498 105.479 121.44 105.475C121.382 105.472 121.325 105.49 121.281 105.527C121.236 105.563 121.207 105.616 121.2 105.673L119.204 122.007C119.184 122.17 119.104 122.321 118.98 122.43C118.856 122.54 118.696 122.6 118.531 122.6H115.068C114.975 122.6 114.882 122.581 114.796 122.544C114.711 122.506 114.634 122.452 114.57 122.384C114.506 122.315 114.458 122.234 114.427 122.146C114.396 122.058 114.384 121.965 114.392 121.872L116.678 92.7448L116.74 92.738L127.69 91.5608L126.237 121.957C126.229 122.13 126.154 122.294 126.028 122.414C125.902 122.534 125.734 122.6 125.56 122.6Z" fill="#263238"/>
<path d="M116.812 94.5329C116.636 94.5325 116.467 94.464 116.341 94.3419C116.215 94.2199 116.141 94.0538 116.136 93.8787C116.076 92.037 115.974 85.6643 117.164 80.9858C117.489 79.7077 118.219 78.5676 119.245 77.7341C120.271 76.9006 121.539 76.4179 122.862 76.3573C124.164 76.2866 125.455 76.6257 126.553 77.3268C127.65 78.0279 128.498 79.0552 128.976 80.263C130.977 85.3213 132.868 91.5563 130.511 92.5341C127.421 93.8157 119.276 94.387 116.853 94.5315C116.839 94.5324 116.825 94.5329 116.812 94.5329Z" fill="#435861"/>
<path d="M130.963 67.5856C131.021 67.6451 131.084 67.7 131.151 67.7497L130.762 75.1827L129.146 76.0068L130.076 78.5984L133.08 77.4165C133.323 77.321 133.528 77.1497 133.665 76.9283C133.801 76.707 133.862 76.4474 133.838 76.1887L133.051 67.7571C133.308 67.5658 133.501 67.3009 133.604 66.9978C133.707 66.6946 133.714 66.3675 133.626 66.06C133.537 65.7525 133.356 65.4791 133.108 65.2762C132.859 65.0733 132.555 64.9506 132.235 64.9243C131.914 64.898 131.594 64.9694 131.315 65.1289C131.037 65.2885 130.813 65.5288 130.675 65.8177C130.537 66.1066 130.491 66.4305 130.542 66.7463C130.594 67.0621 130.74 67.3549 130.963 67.5856Z" fill="#A0616A"/>
<path d="M130.793 75.4595L131.93 78.6771C131.963 78.7687 131.975 78.8661 131.966 78.9627C131.957 79.0594 131.927 79.153 131.879 79.2372C131.83 79.3214 131.764 79.3942 131.685 79.4507C131.606 79.5071 131.515 79.5459 131.419 79.5643L128.066 80.2109C127.594 80.3731 127.077 80.3426 126.629 80.126C126.18 79.9094 125.835 79.5245 125.671 79.0555C125.507 78.5866 125.536 78.072 125.753 77.6246C125.969 77.1771 126.355 76.8334 126.825 76.6686L129.836 75.0863C129.923 75.041 130.018 75.0148 130.115 75.0094C130.212 75.0039 130.31 75.0195 130.4 75.0549C130.491 75.0903 130.573 75.1448 130.641 75.2146C130.709 75.2844 130.76 75.3679 130.793 75.4595V75.4595Z" fill="#435861"/>
<path d="M114.925 67.5856C114.867 67.6451 114.804 67.7 114.737 67.7497L115.126 75.1827L116.742 76.0068L115.812 78.5984L112.808 77.4165C112.565 77.321 112.36 77.1497 112.223 76.9283C112.087 76.707 112.026 76.4474 112.05 76.1887L112.837 67.7571C112.58 67.5658 112.387 67.3009 112.284 66.9978C112.181 66.6946 112.174 66.3675 112.262 66.06C112.351 65.7525 112.532 65.4791 112.78 65.2762C113.028 65.0733 113.333 64.9506 113.653 64.9243C113.974 64.898 114.294 64.9694 114.573 65.1289C114.851 65.2885 115.075 65.5288 115.213 65.8177C115.351 66.1066 115.397 66.4305 115.346 66.7463C115.294 67.0621 115.148 67.3549 114.925 67.5856H114.925Z" fill="#A0616A"/>
<path d="M115.487 75.0549C115.578 75.0195 115.676 75.0039 115.773 75.0094C115.87 75.0148 115.965 75.0411 116.051 75.0864L119.063 76.6687C119.533 76.8334 119.919 77.1772 120.135 77.6246C120.352 78.0721 120.381 78.5867 120.217 79.0556C120.052 79.5245 119.708 79.9095 119.259 80.126C118.81 80.3426 118.294 80.3731 117.822 80.2109L114.469 79.5644C114.373 79.5459 114.282 79.5072 114.203 79.4507C114.124 79.3942 114.058 79.3214 114.009 79.2372C113.961 79.153 113.931 79.0594 113.922 78.9628C113.913 78.8661 113.925 78.7687 113.958 78.6772L115.095 75.4596C115.127 75.368 115.179 75.2844 115.247 75.2146C115.315 75.1447 115.397 75.0903 115.487 75.0549Z" fill="#435861"/>
<path d="M124.508 71.9396C124.488 71.4694 124.607 71.0037 124.849 70.5995C125.091 70.1952 125.446 69.8699 125.871 69.6632C126.996 69.0848 127.703 67.8509 127.393 66.7243C126.997 65.2821 125.025 64.3468 123.428 64.843C122.996 64.9958 122.579 65.1887 122.183 65.4192L121.139 65.9762C120.693 66.1984 120.263 66.451 119.852 66.7323C119.237 67.1837 118.755 67.7914 118.456 68.4918C118.157 69.1922 118.052 69.9597 118.153 70.714C118.359 72.1801 119.323 73.5247 120.643 74.4452C121.148 74.8209 121.731 75.0789 122.35 75.2003C122.983 75.3042 123.687 75.1862 124.15 74.7944C124.873 74.1821 124.798 73.1569 124.564 72.3005C124.533 72.1824 124.514 72.0615 124.508 71.9396Z" fill="#263238"/>
<path d="M137.092 125.999H108.449C108.409 125.999 108.37 125.984 108.342 125.955C108.314 125.927 108.298 125.889 108.298 125.849C108.298 125.809 108.314 125.771 108.342 125.743C108.37 125.715 108.409 125.699 108.449 125.699H137.092C137.132 125.699 137.17 125.715 137.198 125.743C137.227 125.771 137.243 125.809 137.243 125.849C137.243 125.889 137.227 125.927 137.198 125.955C137.17 125.984 137.132 125.999 137.092 125.999Z" fill="#BDBDBD"/>
<path opacity="0.8" d="M90.3444 98.6201L66.7096 108.273C66.3037 108.438 65.8485 108.436 65.444 108.268C65.0394 108.1 64.7184 107.778 64.5515 107.375L57.3166 89.8173C57.195 89.5213 57.1963 89.1893 57.3202 88.8942C57.4442 88.5991 57.6806 88.3651 57.9777 88.2433L82.4115 78.264C82.714 78.1409 83.0532 78.1422 83.3547 78.2677C83.6563 78.3933 83.8955 78.6328 84.0198 78.9337L91.2468 96.4716C91.4128 96.8757 91.411 97.3288 91.2418 97.7316C91.0727 98.1344 90.7499 98.4539 90.3444 98.6201Z" fill="#F5F5F5"/>
<path d="M67.5659 106.144L88.2328 97.7026C88.6264 97.5419 88.9396 97.2321 89.1038 96.8414C89.2679 96.4507 89.2694 96.0111 89.1079 95.6193L83.2658 81.4419C83.1858 81.2479 83.0683 81.0715 82.9198 80.9227C82.7714 80.7739 82.595 80.6557 82.4007 80.5748C82.2063 80.4939 81.9979 80.4519 81.7873 80.4512C81.5767 80.4505 81.368 80.4911 81.1731 80.5707L60.5061 89.0115C60.3113 89.0911 60.1341 89.2081 59.9846 89.3559C59.8352 89.5037 59.7164 89.6793 59.6352 89.8728C59.5539 90.0662 59.5117 90.2737 59.511 90.4834C59.5103 90.6931 59.5511 90.9009 59.631 91.0949L65.4732 105.272C65.5531 105.466 65.6707 105.643 65.8191 105.791C65.9675 105.94 66.144 106.058 66.3383 106.139C66.5326 106.22 66.741 106.262 66.9516 106.263C67.1623 106.264 67.371 106.223 67.5659 106.144Z" fill="white"/>
<path d="M83.1515 85.3083L82.8477 85.4324L82.8684 85.4828L83.1723 85.3587L83.1515 85.3083Z" fill="#F5F5F5"/>
<path d="M82.2547 85.7335L81.6408 85.9842L81.6201 85.9338L82.2339 85.6831L82.2547 85.7335ZM81.027 86.2349L80.4132 86.4856L80.3924 86.4352L81.0062 86.1845L81.027 86.2349ZM79.7993 86.7363L79.1855 86.987L79.1647 86.9366L79.7786 86.6859L79.7993 86.7363ZM78.5717 87.2377L77.9578 87.4884L77.9371 87.438L78.5509 87.1873L78.5717 87.2377ZM77.344 87.7392L76.7302 87.9899L76.7094 87.9394L77.3232 87.6887L77.344 87.7392ZM76.1163 88.2406L75.5025 88.4913L75.4817 88.4409L76.0956 88.1902L76.1163 88.2406ZM74.8887 88.742L74.2749 88.9927L74.2541 88.9423L74.8679 88.6916L74.8887 88.742ZM73.661 89.2434L73.0472 89.4941L73.0264 89.4437L73.6402 89.193L73.661 89.2434ZM72.4333 89.7448L71.8195 89.9955L71.7987 89.9451L72.4126 89.6944L72.4333 89.7448ZM71.2057 90.2462L70.5919 90.4969L70.5711 90.4465L71.1849 90.1958L71.2057 90.2462ZM69.978 90.7476L69.3642 90.9983L69.3434 90.9479L69.9572 90.6972L69.978 90.7476ZM68.7504 91.249L68.1365 91.4997L68.1157 91.4493L68.7296 91.1986L68.7504 91.249ZM67.5227 91.7504L66.9089 92.0011L66.8881 91.9507L67.5019 91.7L67.5227 91.7504ZM66.295 92.2518L65.6812 92.5026L65.6604 92.4521L66.2742 92.2014L66.295 92.2518ZM65.0674 92.7533L64.4535 93.004L64.4328 92.9535L65.0466 92.7028L65.0674 92.7533ZM63.8397 93.2547L63.2259 93.5054L63.2051 93.455L63.8189 93.2042L63.8397 93.2547Z" fill="#F5F5F5"/>
<path d="M62.5912 93.7055L62.2874 93.8296L62.3081 93.88L62.612 93.7559L62.5912 93.7055Z" fill="#F5F5F5"/>
<path d="M75.1073 94.0715L74.8035 94.1956L74.8242 94.246L75.1281 94.1219L75.1073 94.0715Z" fill="#F5F5F5"/>
<path d="M74.2194 94.493L73.6147 94.74L73.5939 94.6896L74.1986 94.4426L74.2194 94.493ZM73.01 94.987L72.4053 95.234L72.3845 95.1836L72.9892 94.9366L73.01 94.987ZM71.8006 95.481L71.1959 95.7279L71.1751 95.6775L71.7798 95.4305L71.8006 95.481ZM70.5911 95.9749L69.9864 96.2219L69.9657 96.1715L70.5704 95.9245L70.5911 95.9749ZM69.3817 96.4689L68.777 96.7159L68.7562 96.6655L69.3609 96.4185L69.3817 96.4689ZM68.1723 96.9629L67.5676 97.2098L67.5468 97.1594L68.1515 96.9124L68.1723 96.9629ZM66.9628 97.4568L66.3581 97.7038L66.3374 97.6534L66.9421 97.4064L66.9628 97.4568ZM65.7534 97.9508L65.1487 98.1978L65.1279 98.1473L65.7326 97.9004L65.7534 97.9508Z" fill="#F5F5F5"/>
<path d="M64.5233 98.3942L64.2195 98.5183L64.2403 98.5687L64.5441 98.4446L64.5233 98.3942Z" fill="#F5F5F5"/>
<path d="M70.0963 98.7096L69.7925 98.8337L69.8133 98.8842L70.1171 98.7601L70.0963 98.7096Z" fill="#F5F5F5"/>
<path d="M69.1912 99.1386L68.569 99.3927L68.5482 99.3422L69.1704 99.0881L69.1912 99.1386ZM67.9468 99.6468L67.3247 99.9009L67.3039 99.8505L67.926 99.5963L67.9468 99.6468ZM66.7025 100.155L66.0803 100.409L66.0596 100.359L66.6817 100.105L66.7025 100.155Z" fill="#F5F5F5"/>
<path d="M65.4374 100.613L65.1335 100.737L65.1543 100.787L65.4582 100.663L65.4374 100.613Z" fill="#F5F5F5"/>
<path d="M71.6564 102.496L71.3525 102.62L71.3733 102.67L71.6772 102.546L71.6564 102.496Z" fill="#F5F5F5"/>
<path d="M70.7512 102.924L70.1291 103.178L70.1083 103.128L70.7304 102.874L70.7512 102.924ZM69.5069 103.432L68.8847 103.686L68.8639 103.636L69.4861 103.382L69.5069 103.432ZM68.2626 103.94L67.6404 104.194L67.6196 104.144L68.2418 103.89L68.2626 103.94Z" fill="#F5F5F5"/>
<path d="M66.9975 104.398L66.6936 104.522L66.7144 104.573L67.0182 104.449L66.9975 104.398Z" fill="#F5F5F5"/>
<path d="M68.4434 103.912L85.9572 96.7586C86.381 96.5849 86.7184 96.2509 86.8952 95.8299C87.0721 95.4089 87.074 94.9353 86.9005 94.5129L83.3619 85.9258L83.3277 85.9409L79.0298 96.1716L75.8422 94.8449C75.7833 94.8203 75.7196 94.8095 75.6559 94.8134C75.5922 94.8174 75.5303 94.836 75.475 94.8677C75.392 94.9175 75.3278 94.9931 75.2923 95.0828L73.0398 100.444L70.7092 99.4741C70.6589 99.4532 70.605 99.4423 70.5504 99.4421C70.4959 99.4419 70.4419 99.4524 70.3915 99.473C70.341 99.4936 70.2952 99.5239 70.2565 99.5621C70.2178 99.6004 70.1871 99.6459 70.1661 99.6959C70.1512 99.7324 68.7141 103.243 68.4434 103.912Z" fill="#00BCD4"/>
<path d="M68.3894 103.993L68.3389 103.972L70.1411 99.6812C70.1888 99.568 70.2797 99.4782 70.3938 99.4316C70.5079 99.385 70.6359 99.3854 70.7498 99.4326L73.0344 100.384L75.274 95.0521C75.3217 94.9388 75.4126 94.849 75.5267 94.8024C75.6409 94.7558 75.7689 94.7562 75.8828 94.8034L79.0244 96.1114L83.3443 85.8271L83.3948 85.8482L79.0537 96.1827L75.8616 94.8537C75.8119 94.833 75.7586 94.8223 75.7046 94.8221C75.6507 94.8219 75.5973 94.8323 75.5474 94.8527C75.4976 94.873 75.4522 94.903 75.414 94.9408C75.3757 94.9786 75.3453 95.0236 75.3245 95.0731L73.0638 100.455L70.7287 99.4829C70.6282 99.4412 70.5153 99.4409 70.4146 99.482C70.3139 99.5232 70.2337 99.6024 70.1916 99.7023L68.3894 103.993Z" fill="#435861"/>
<path d="M70.1068 99.1164C70.3184 99.1164 70.4899 98.9456 70.4899 98.735C70.4899 98.5243 70.3184 98.3535 70.1068 98.3535C69.8952 98.3535 69.7236 98.5243 69.7236 98.735C69.7236 98.9456 69.8952 99.1164 70.1068 99.1164Z" fill="#435861"/>
<path d="M75.1175 94.4782C75.3291 94.4782 75.5007 94.3075 75.5007 94.0968C75.5007 93.8861 75.3291 93.7153 75.1175 93.7153C74.9059 93.7153 74.7344 93.8861 74.7344 94.0968C74.7344 94.3075 74.9059 94.4782 75.1175 94.4782Z" fill="#435861"/>
<path d="M82.9203 85.7014C83.1319 85.7014 83.3034 85.5306 83.3034 85.3199C83.3034 85.1093 83.1319 84.9385 82.9203 84.9385C82.7087 84.9385 82.5371 85.1093 82.5371 85.3199C82.5371 85.5306 82.7087 85.7014 82.9203 85.7014Z" fill="#435861"/>
<path d="M61.4738 98.3023C61.673 98.2036 61.848 98.0626 61.9866 97.8893C62.1251 97.716 62.2238 97.5146 62.2757 97.2992C62.3276 97.0838 62.3314 96.8597 62.2869 96.6427C62.2424 96.4257 62.1506 96.221 62.018 96.0431L63.156 84.9663H60.6967L59.7923 95.7823C59.5069 96.0238 59.3204 96.3611 59.2681 96.7304C59.2159 97.0997 59.3015 97.4752 59.5088 97.7858C59.716 98.0964 60.0305 98.3206 60.3927 98.4158C60.7549 98.5109 61.1395 98.4706 61.4738 98.3023Z" fill="#FFB8B8"/>
<path d="M63.7318 78.8532C65.6535 78.8532 67.2113 77.3023 67.2113 75.3892C67.2113 73.4761 65.6535 71.9253 63.7318 71.9253C61.8102 71.9253 60.2524 73.4761 60.2524 75.3892C60.2524 77.3023 61.8102 78.8532 63.7318 78.8532Z" fill="#FFB8B8"/>
<path d="M64.387 91.4169C64.2477 91.4169 64.1123 91.3713 64.0015 91.2873C63.8907 91.2033 63.8107 91.0853 63.7737 90.9517C63.495 89.9434 62.7697 88.2386 61.6181 85.8844C61.3583 85.3522 61.2144 84.7714 61.1959 84.1799C61.1774 83.5885 61.2847 82.9999 61.5108 82.4527C61.7369 81.9054 62.0766 81.412 62.5077 81.0047C62.9389 80.5973 63.4516 80.2854 64.0124 80.0892C64.5437 79.9024 65.1074 79.8236 65.6699 79.8575C66.2324 79.8914 66.7824 80.0372 67.2873 80.2864C67.7922 80.5356 68.2418 80.8831 68.6094 81.3083C68.9771 81.7335 69.2553 82.2278 69.4277 82.7619C70.3203 85.5479 70.2772 88.5322 70.2172 89.6858C70.2098 89.8247 70.1568 89.9574 70.0664 90.0635C69.9759 90.1696 69.8531 90.2433 69.7166 90.2732L64.5237 91.4022C64.4788 91.412 64.433 91.417 64.387 91.4169Z" fill="#FBC02D"/>
<path d="M69.4156 124.31H71.1523L71.9785 117.641L69.4153 117.641L69.4156 124.31Z" fill="#FFB8B8"/>
<path d="M74.502 125.916L69.0435 125.916L69.0434 123.816L72.3929 123.816C72.6699 123.816 72.9441 123.87 73.2 123.976C73.4559 124.081 73.6884 124.236 73.8842 124.431C74.08 124.626 74.2354 124.857 74.3414 125.112C74.4474 125.367 74.5019 125.64 74.502 125.916Z" fill="#263238"/>
<path d="M52.0488 122.069L53.5708 122.902L57.5224 117.455L55.2763 116.225L52.0488 122.069Z" fill="#FFB8B8"/>
<path d="M55.729 125.916L50.9458 123.298L51.9618 121.458L54.897 123.064C55.3871 123.333 55.7501 123.784 55.9062 124.319C56.0622 124.853 55.9985 125.428 55.729 125.916Z" fill="#263238"/>
<path d="M69.3345 120.608C69.1797 120.608 69.0303 120.552 68.9141 120.45C68.7979 120.349 68.7228 120.208 68.7029 120.055L66.5309 103.393C66.5213 103.319 66.4885 103.25 66.4373 103.196C66.3861 103.142 66.319 103.105 66.2457 103.091C66.1723 103.078 66.0964 103.087 66.0289 103.119C65.9613 103.15 65.9056 103.203 65.8695 103.268L56.8174 119.618C56.7427 119.751 56.6224 119.854 56.4783 119.906C56.3342 119.959 56.1759 119.958 56.0322 119.905L54.0591 119.156C53.9797 119.126 53.9072 119.081 53.8458 119.022C53.7844 118.964 53.7353 118.894 53.7014 118.816C53.6676 118.739 53.6496 118.655 53.6486 118.571C53.6476 118.486 53.6636 118.402 53.6956 118.324L59.9662 102.988C59.9821 102.949 59.9929 102.909 59.9983 102.867C60.8476 96.3224 63.0085 92.9943 63.6506 92.1302C63.6975 92.0667 63.7284 91.9929 63.7406 91.915C63.7528 91.8371 63.746 91.7574 63.7208 91.6827L63.6326 91.4191C63.5973 91.3145 63.5901 91.2025 63.6116 91.0942C63.6331 90.986 63.6826 90.8852 63.7553 90.8018C66.0688 88.1784 70.1012 89.6099 70.1417 89.6246L70.1619 89.6321L70.1746 89.6493C74.6961 95.8227 73.0243 115.874 72.6433 119.831C72.6291 119.979 72.5625 120.118 72.4553 120.223C72.3482 120.327 72.2073 120.391 72.0577 120.402L69.384 120.607C69.3674 120.608 69.3509 120.608 69.3345 120.608Z" fill="#263238"/>
<path d="M77.2585 79.4129C77.2411 79.489 77.2297 79.5663 77.2246 79.6442L71.1391 83.1393L69.6599 82.2915L68.083 84.3467L70.5551 86.1008C70.7548 86.2426 70.9953 86.3159 71.2405 86.31C71.4856 86.304 71.7223 86.2191 71.9148 86.0679L78.19 81.1393C78.4732 81.2437 78.7816 81.2597 79.0742 81.1854C79.3668 81.111 79.6297 80.9497 79.8279 80.7229C80.0262 80.4961 80.1504 80.2146 80.184 79.9159C80.2177 79.6171 80.1592 79.3152 80.0163 79.0504C79.8733 78.7855 79.6528 78.5703 79.3841 78.4332C79.1153 78.2962 78.811 78.2439 78.5116 78.2832C78.2122 78.3226 77.9319 78.4518 77.7081 78.6536C77.4843 78.8553 77.3274 79.1202 77.2585 79.4129Z" fill="#FFB8B8"/>
<path d="M70.9356 83.3048L68.9688 85.8426C68.9129 85.9148 68.8419 85.9741 68.7609 86.0166C68.6798 86.059 68.5905 86.0836 68.499 86.0886C68.4075 86.0936 68.316 86.0789 68.2308 86.0455C68.1455 86.0121 68.0685 85.9608 68.005 85.8951L65.7784 83.5933C65.4089 83.3062 65.1689 82.8849 65.111 82.4218C65.0531 81.9588 65.1819 81.4918 65.4693 81.1232C65.7567 80.7546 66.1792 80.5145 66.6442 80.4555C67.1091 80.3966 67.5786 80.5236 67.9496 80.8087L70.7422 82.3633C70.8222 82.4078 70.8915 82.469 70.9456 82.5426C70.9996 82.6163 71.0371 82.7006 71.0555 82.79C71.0738 82.8793 71.0726 82.9716 71.052 83.0604C71.0313 83.1493 70.9916 83.2326 70.9356 83.3048Z" fill="#FBC02D"/>
<path d="M63.3125 87.7138L60.1441 87.1442C60.0539 87.128 59.9683 87.0927 59.8932 87.0406C59.818 86.9885 59.7549 86.9208 59.7084 86.8423C59.6618 86.7638 59.6328 86.6762 59.6233 86.5854C59.6138 86.4947 59.6241 86.4031 59.6534 86.3166L60.6805 83.289C60.7664 82.8303 61.0315 82.4242 61.4177 82.1597C61.8039 81.8953 62.2797 81.7941 62.7407 81.8783C63.2017 81.9626 63.6103 82.2254 63.877 82.6092C64.1437 82.993 64.2466 83.4664 64.1632 83.9256L64.0629 87.1093C64.06 87.2005 64.0375 87.2899 63.9967 87.3716C63.9559 87.4533 63.898 87.5253 63.8268 87.5826C63.7555 87.64 63.6727 87.6814 63.584 87.7041C63.4953 87.7267 63.4027 87.73 63.3125 87.7138H63.3125Z" fill="#FBC02D"/>
<path d="M64.2826 74.5924C65.1769 75.2018 66.3511 75.8281 67.2645 75.1792C67.5502 74.9626 67.7577 74.6597 67.8561 74.3159C67.9544 73.972 67.9382 73.6057 67.81 73.2718C67.3726 72.0266 66.171 71.4785 65.0219 71.0583C63.5282 70.5121 61.9017 70.0775 60.3596 70.4687C58.8176 70.8599 57.4547 72.3463 57.7331 73.9061C57.957 75.1605 59.1455 76.2042 58.9768 77.4672C58.807 78.7382 57.3712 79.4072 56.1036 79.6344C54.8361 79.8615 53.4176 79.9345 52.5067 80.8409C51.3446 81.9972 51.6348 84.064 52.7283 85.2849C53.8217 86.5057 55.4718 87.0591 57.0708 87.4353C59.1893 87.9337 61.4806 88.1957 63.4927 87.3685C65.5048 86.5412 67.0705 84.3145 66.4876 82.2264C66.2414 81.3444 65.6615 80.599 65.101 79.8733C64.5405 79.1476 63.9729 78.3888 63.7591 77.4985C63.5809 76.7565 63.7128 75.8951 64.207 75.3385C64.2969 75.2411 64.3534 75.1179 64.3686 74.9864C64.3837 74.855 64.3566 74.7222 64.2912 74.6071L64.2826 74.5924Z" fill="#263238"/>
<path d="M77.544 125.999H48.9008C48.8608 125.999 48.8224 125.984 48.7942 125.955C48.7659 125.927 48.75 125.889 48.75 125.849C48.75 125.809 48.7659 125.771 48.7942 125.743C48.8224 125.715 48.8608 125.699 48.9008 125.699H77.544C77.584 125.699 77.6223 125.715 77.6506 125.743C77.6788 125.771 77.6947 125.809 77.6947 125.849C77.6947 125.889 77.6788 125.927 77.6506 125.955C77.6223 125.984 77.584 125.999 77.544 125.999Z" fill="#BDBDBD"/>
</g>
<defs>
<linearGradient id="paint0_linear" x1="123.75" y1="0" x2="123.75" y2="140" gradientUnits="userSpaceOnUse">
<stop stop-color="#00BCD4"/>
<stop offset="1" stop-color="#00BCD4" stop-opacity="0"/>
</linearGradient>
<clipPath id="clip0">
<rect width="150" height="112" fill="white" transform="translate(48.75 14)"/>
</clipPath>
</defs>
</svg>
