<svg width="570" height="305" viewBox="0 0 570 305" fill="none" xmlns="http://www.w3.org/2000/svg">
<g clip-path="url(#clip0)">
<path d="M9.89293 27.6193C11.6571 27.6406 12.8077 26.3111 12.8077 24.6875C12.8077 23 11.5591 21.7898 10.0634 21.7898C9.16424 21.7898 8.39293 22.2287 7.91566 22.9489H7.84748C7.85174 20.8224 8.67844 19.5909 10.0293 19.5909C10.9498 19.5909 11.5037 20.1705 11.6998 20.9545H12.7395C12.5265 19.5994 11.4952 18.6534 10.0293 18.6534C8.06481 18.6534 6.85884 20.392 6.85884 23.4773C6.85884 26.7031 8.46112 27.6023 9.89293 27.6193ZM9.89293 26.6818C8.79776 26.6818 7.99663 25.7486 8.00089 24.7045C8.00515 23.6605 8.84464 22.7273 9.92702 22.7273C10.9966 22.7273 11.785 23.6051 11.785 24.6875C11.785 25.7955 10.9625 26.6818 9.89293 26.6818ZM17.3301 27.6193C19.2562 27.6193 20.3642 25.9872 20.3642 23.1364C20.3642 20.3068 19.2392 18.6534 17.3301 18.6534C15.421 18.6534 14.296 20.3068 14.296 23.1364C14.296 25.9872 15.4039 27.6193 17.3301 27.6193ZM17.3301 26.6818C16.0602 26.6818 15.3187 25.4077 15.3187 23.1364C15.3187 20.8693 16.0687 19.5739 17.3301 19.5739C18.5914 19.5739 19.3414 20.8693 19.3414 23.1364C19.3414 25.4077 18.6 26.6818 17.3301 26.6818ZM22.1369 27.5H23.1937V24.6705L24.2846 23.4432L27.3187 27.5H28.5971L24.9324 22.7102L28.5971 18.7727H27.2164L23.296 23.1023H23.1937V18.7727H22.1369V27.5Z" fill="#9E9E9E"/>
<path d="M9.81623 70.6193C11.4782 70.6193 12.6969 69.392 12.6969 67.7216C12.6969 66.0298 11.5208 64.7898 9.9185 64.7898C9.33043 64.7898 8.75941 64.9986 8.40146 65.2841H8.35032L8.65714 62.7102H12.3049V61.7727H7.77077L7.24237 66.0682L8.231 66.1875C8.59322 65.9276 9.21112 65.7401 9.74805 65.7443C10.8603 65.7528 11.6742 66.5966 11.6742 67.7386C11.6742 68.8594 10.8901 69.6818 9.81623 69.6818C8.92134 69.6818 8.20969 69.1065 8.12873 68.3182H7.106C7.16992 69.6477 8.31623 70.6193 9.81623 70.6193ZM17.2363 70.6193C19.1625 70.6193 20.2704 68.9872 20.2704 66.1364C20.2704 63.3068 19.1454 61.6534 17.2363 61.6534C15.3272 61.6534 14.2022 63.3068 14.2022 66.1364C14.2022 68.9872 15.3102 70.6193 17.2363 70.6193ZM17.2363 69.6818C15.9664 69.6818 15.225 68.4077 15.225 66.1364C15.225 63.8693 15.975 62.5739 17.2363 62.5739C18.4977 62.5739 19.2477 63.8693 19.2477 66.1364C19.2477 68.4077 18.5062 69.6818 17.2363 69.6818ZM22.0431 70.5H23.1V67.6705L24.1909 66.4432L27.225 70.5H28.5034L24.8386 65.7102L28.5034 61.7727H27.1227L23.2022 66.1023H23.1V61.7727H22.0431V70.5Z" fill="#9E9E9E"/>
<path d="M6.68519 111.71H10.7931V113.5H11.7988V111.71H12.992V110.773H11.7988V104.773H10.5204L6.68519 110.841V111.71ZM10.7931 110.773H7.82724V110.705L10.725 106.119H10.7931V110.773ZM17.4355 113.619C19.3617 113.619 20.4696 111.987 20.4696 109.136C20.4696 106.307 19.3446 104.653 17.4355 104.653C15.5265 104.653 14.4015 106.307 14.4015 109.136C14.4015 111.987 15.5094 113.619 17.4355 113.619ZM17.4355 112.682C16.1657 112.682 15.4242 111.408 15.4242 109.136C15.4242 106.869 16.1742 105.574 17.4355 105.574C18.6969 105.574 19.4469 106.869 19.4469 109.136C19.4469 111.408 18.7054 112.682 17.4355 112.682ZM22.2424 113.5H23.2992V110.67L24.3901 109.443L27.4242 113.5H28.7026L25.0378 108.71L28.7026 104.773H27.3219L23.4015 109.102H23.2992V104.773H22.2424V113.5Z" fill="#9E9E9E"/>
<path d="M9.8679 156.619C11.5597 156.619 12.8168 155.558 12.8168 154.131C12.8168 153.023 12.1605 152.217 11.0611 152.034V151.966C11.9432 151.697 12.4929 150.973 12.4929 149.989C12.4929 148.753 11.517 147.653 9.90199 147.653C8.39347 147.653 7.14062 148.582 7.08949 149.955H8.11222C8.15057 149.085 8.97727 148.574 9.88494 148.574C10.848 148.574 11.4702 149.158 11.4702 150.04C11.4702 150.96 10.75 151.557 9.71449 151.557H9.01562V152.494H9.71449C11.0398 152.494 11.777 153.168 11.777 154.131C11.777 155.055 10.9716 155.682 9.85085 155.682C8.84091 155.682 8.03977 155.162 7.97585 154.318H6.90199C6.96591 155.69 8.17614 156.619 9.8679 156.619ZM17.4062 156.619C19.3324 156.619 20.4403 154.987 20.4403 152.136C20.4403 149.307 19.3153 147.653 17.4062 147.653C15.4972 147.653 14.3722 149.307 14.3722 152.136C14.3722 154.987 15.4801 156.619 17.4062 156.619ZM17.4062 155.682C16.1364 155.682 15.3949 154.408 15.3949 152.136C15.3949 149.869 16.1449 148.574 17.4062 148.574C18.6676 148.574 19.4176 149.869 19.4176 152.136C19.4176 154.408 18.6761 155.682 17.4062 155.682ZM22.2131 156.5H23.2699V153.67L24.3608 152.443L27.3949 156.5H28.6733L25.0085 151.71L28.6733 147.773H27.2926L23.3722 152.102H23.2699V147.773H22.2131V156.5Z" fill="#9E9E9E"/>
<path d="M7.10653 199.5H12.6122V198.562H8.5554V198.494L10.5156 196.398C12.0156 194.791 12.4588 194.041 12.4588 193.074C12.4588 191.727 11.3679 190.653 9.83381 190.653C8.30398 190.653 7.14062 191.693 7.14062 193.227H8.14631C8.14631 192.234 8.78977 191.574 9.79972 191.574C10.7457 191.574 11.4702 192.153 11.4702 193.074C11.4702 193.879 10.9972 194.476 9.98722 195.58L7.10653 198.733V199.5ZM17.2188 199.619C19.1449 199.619 20.2528 197.987 20.2528 195.136C20.2528 192.307 19.1278 190.653 17.2188 190.653C15.3097 190.653 14.1847 192.307 14.1847 195.136C14.1847 197.987 15.2926 199.619 17.2188 199.619ZM17.2188 198.682C15.9489 198.682 15.2074 197.408 15.2074 195.136C15.2074 192.869 15.9574 191.574 17.2188 191.574C18.4801 191.574 19.2301 192.869 19.2301 195.136C19.2301 197.408 18.4886 198.682 17.2188 198.682ZM22.0256 199.5H23.0824V196.67L24.1733 195.443L27.2074 199.5H28.4858L24.821 194.71L28.4858 190.773H27.1051L23.1847 195.102H23.0824V190.773H22.0256V199.5Z" fill="#9E9E9E"/>
<path d="M11.0185 233.773H9.96165L7.77983 235.222V236.295L9.91051 234.881H9.96165V242.5H11.0185V233.773ZM16.375 242.619C18.3011 242.619 19.4091 240.987 19.4091 238.136C19.4091 235.307 18.2841 233.653 16.375 233.653C14.4659 233.653 13.3409 235.307 13.3409 238.136C13.3409 240.987 14.4489 242.619 16.375 242.619ZM16.375 241.682C15.1051 241.682 14.3636 240.408 14.3636 238.136C14.3636 235.869 15.1136 234.574 16.375 234.574C17.6364 234.574 18.3864 235.869 18.3864 238.136C18.3864 240.408 17.6449 241.682 16.375 241.682ZM21.1818 242.5H22.2386V239.67L23.3295 238.443L26.3636 242.5H27.642L23.9773 237.71L27.642 233.773H26.2614L22.3409 238.102H22.2386V233.773H21.1818V242.5Z" fill="#9E9E9E"/>
<path d="M17.5 285.619C19.4261 285.619 20.5341 283.987 20.5341 281.136C20.5341 278.307 19.4091 276.653 17.5 276.653C15.5909 276.653 14.4659 278.307 14.4659 281.136C14.4659 283.987 15.5739 285.619 17.5 285.619ZM17.5 284.682C16.2301 284.682 15.4886 283.408 15.4886 281.136C15.4886 278.869 16.2386 277.574 17.5 277.574C18.7614 277.574 19.5114 278.869 19.5114 281.136C19.5114 283.408 18.7699 284.682 17.5 284.682Z" fill="#9E9E9E"/>
<rect opacity="0.3" x="42" y="262.922" width="528" height="1.05039" fill="#E0E0E0"/>
<rect opacity="0.3" x="42" y="233.82" width="528" height="1.05039" fill="#E0E0E0"/>
<rect opacity="0.3" x="42" y="204.717" width="528" height="1.05039" fill="#E0E0E0"/>
<rect opacity="0.3" x="42" y="175.615" width="528" height="1.05039" fill="#E0E0E0"/>
<rect opacity="0.3" x="42" y="146.512" width="528" height="1.05039" fill="#E0E0E0"/>
<rect opacity="0.3" x="42" y="117.41" width="528" height="1.05039" fill="#E0E0E0"/>
<rect opacity="0.3" x="42" y="88.3066" width="528" height="1.05039" fill="#E0E0E0"/>
<rect opacity="0.3" x="42" y="59.2051" width="528" height="1.05039" fill="#E0E0E0"/>
<rect opacity="0.3" x="42" y="30.1016" width="528" height="1.05039" fill="#E0E0E0"/>
<rect opacity="0.3" x="42" y="1" width="528" height="1.05039" fill="#E0E0E0"/>
<mask id="mask0" mask-type="alpha" maskUnits="userSpaceOnUse" x="42" y="20" width="528" height="252">
<rect x="42" y="20.957" width="528" height="251.043" fill="#C4C4C4"/>
</mask>
<g mask="url(#mask0)">
<path d="M77.6271 135.359L37.9774 186.479C35.8693 189.197 34.7251 192.539 34.7251 195.979V271.655C34.7251 280.215 41.6647 287.155 50.2251 287.155H557.65C566.211 287.155 573.15 280.215 573.15 271.655V71.3139C573.15 67.6063 571.821 64.0216 569.404 61.21L556.509 46.2087C549.35 37.8798 536.038 39.4336 530.99 49.1875L498.257 112.427C494.503 119.678 484.918 121.443 478.828 116.003L447.057 87.6219C443.351 84.3115 438.282 82.9786 433.427 84.0376L394.71 92.4829C391.226 93.2427 388.112 95.18 385.89 97.9684L349.489 143.659C344.209 150.286 334.004 149.851 329.308 142.798L293.381 88.8447C291.182 85.5424 287.801 83.2089 283.933 82.3251L249.788 74.5226C242.691 72.9009 235.422 76.4367 232.316 83.0212L192.262 167.947C189.412 173.989 182.314 176.723 176.147 174.153L139.171 158.742C138.433 158.434 137.726 158.056 137.06 157.613L98.4557 131.951C91.6921 127.455 82.6047 128.942 77.6271 135.359Z" fill="url(#paint0_linear)" stroke="#2196F3" stroke-width="3" stroke-linecap="round" stroke-linejoin="round"/>
</g>
<path d="M69.7044 290.273V296.511C69.7044 297.598 69.1845 298.182 68.2725 298.182C67.4416 298.182 66.8407 297.696 66.8407 296.955H65.801C65.801 298.297 66.8407 299.119 68.2725 299.119C69.7896 299.119 70.7612 298.186 70.7612 296.511V290.273H69.7044ZM74.6689 299.153C75.8109 299.153 76.4075 298.54 76.612 298.114H76.6632V299H77.6689V294.688C77.6689 292.608 76.0836 292.369 75.2484 292.369C74.2598 292.369 73.1348 292.71 72.6234 293.903L73.5779 294.244C73.7995 293.767 74.3237 293.256 75.2825 293.256C76.2072 293.256 76.6632 293.746 76.6632 294.585V294.619C76.6632 295.105 76.1689 295.062 74.9757 295.216C73.7612 295.374 72.4359 295.642 72.4359 297.142C72.4359 298.42 73.4245 299.153 74.6689 299.153ZM74.8223 298.25C74.0211 298.25 73.4416 297.892 73.4416 297.193C73.4416 296.426 74.1404 296.188 74.9245 296.085C75.3507 296.034 76.4927 295.915 76.6632 295.71V296.631C76.6632 297.449 76.0154 298.25 74.8223 298.25ZM80.5101 295.062C80.5101 293.92 81.2175 293.273 82.1806 293.273C83.1138 293.273 83.6806 293.882 83.6806 294.909V299H84.6863V294.841C84.6863 293.17 83.7956 292.369 82.4703 292.369C81.4817 292.369 80.8681 292.812 80.5613 293.477H80.476V292.455H79.5044V299H80.5101V295.062ZM90.649 296.324C90.649 297.551 89.7115 298.114 88.9615 298.114C88.1262 298.114 87.5297 297.5 87.5297 296.545V292.455H86.524V296.614C86.524 298.284 87.4103 299.085 88.6376 299.085C89.6262 299.085 90.274 298.557 90.5808 297.892H90.649V299H91.6547V292.455H90.649V296.324ZM95.4228 299.153C96.5648 299.153 97.1614 298.54 97.3659 298.114H97.4171V299H98.4228V294.688C98.4228 292.608 96.8375 292.369 96.0023 292.369C95.0137 292.369 93.8887 292.71 93.3773 293.903L94.3319 294.244C94.5534 293.767 95.0776 293.256 96.0364 293.256C96.9611 293.256 97.4171 293.746 97.4171 294.585V294.619C97.4171 295.105 96.9228 295.062 95.7296 295.216C94.5151 295.374 93.1898 295.642 93.1898 297.142C93.1898 298.42 94.1784 299.153 95.4228 299.153ZM95.5762 298.25C94.775 298.25 94.1955 297.892 94.1955 297.193C94.1955 296.426 94.8944 296.188 95.6784 296.085C96.1046 296.034 97.2466 295.915 97.4171 295.71V296.631C97.4171 297.449 96.7694 298.25 95.5762 298.25ZM100.258 299H101.264V294.858C101.264 293.972 101.963 293.324 102.917 293.324C103.186 293.324 103.463 293.375 103.531 293.392V292.369C103.416 292.361 103.152 292.352 103.003 292.352C102.219 292.352 101.537 292.795 101.298 293.443H101.23V292.455H100.258V299ZM105.57 301.455C106.478 301.455 107.117 300.973 107.496 299.955L110.283 292.472L109.184 292.455L107.377 297.67H107.309L105.502 292.455H104.411L106.831 299.034L106.644 299.545C106.278 300.543 105.826 300.636 105.093 300.449L104.837 301.335C104.939 301.386 105.229 301.455 105.57 301.455Z" fill="#9E9E9E"/>
<path d="M136.446 299H137.503V295.097H141.287V294.159H137.503V291.21H141.679V290.273H136.446V299ZM145.616 299.136C146.946 299.136 147.918 298.472 148.224 297.483L147.253 297.21C146.997 297.892 146.405 298.233 145.616 298.233C144.436 298.233 143.622 297.47 143.575 296.068H148.327V295.642C148.327 293.205 146.878 292.369 145.514 292.369C143.741 292.369 142.565 293.767 142.565 295.778C142.565 297.79 143.724 299.136 145.616 299.136ZM143.575 295.199C143.643 294.18 144.364 293.273 145.514 293.273C146.605 293.273 147.304 294.091 147.304 295.199H143.575ZM149.993 299H150.964V297.994H151.084C151.305 298.352 151.731 299.136 152.993 299.136C154.629 299.136 155.771 297.824 155.771 295.744C155.771 293.682 154.629 292.369 152.976 292.369C151.697 292.369 151.305 293.153 151.084 293.494H150.999V290.273H149.993V299ZM150.981 295.727C150.981 294.261 151.629 293.273 152.856 293.273C154.135 293.273 154.766 294.347 154.766 295.727C154.766 297.125 154.118 298.233 152.856 298.233C151.646 298.233 150.981 297.21 150.981 295.727ZM157.31 299H158.315V294.858C158.315 293.972 159.014 293.324 159.969 293.324C160.237 293.324 160.514 293.375 160.582 293.392V292.369C160.467 292.361 160.203 292.352 160.054 292.352C159.27 292.352 158.588 292.795 158.349 293.443H158.281V292.455H157.31V299ZM165.899 296.324C165.899 297.551 164.962 298.114 164.212 298.114C163.377 298.114 162.78 297.5 162.78 296.545V292.455H161.774V296.614C161.774 298.284 162.661 299.085 163.888 299.085C164.877 299.085 165.524 298.557 165.831 297.892H165.899V299H166.905V292.455H165.899V296.324ZM170.673 299.153C171.815 299.153 172.412 298.54 172.616 298.114H172.668V299H173.673V294.688C173.673 292.608 172.088 292.369 171.253 292.369C170.264 292.369 169.139 292.71 168.628 293.903L169.582 294.244C169.804 293.767 170.328 293.256 171.287 293.256C172.212 293.256 172.668 293.746 172.668 294.585V294.619C172.668 295.105 172.173 295.062 170.98 295.216C169.766 295.374 168.44 295.642 168.44 297.142C168.44 298.42 169.429 299.153 170.673 299.153ZM170.827 298.25C170.026 298.25 169.446 297.892 169.446 297.193C169.446 296.426 170.145 296.188 170.929 296.085C171.355 296.034 172.497 295.915 172.668 295.71V296.631C172.668 297.449 172.02 298.25 170.827 298.25ZM175.509 299H176.515V294.858C176.515 293.972 177.213 293.324 178.168 293.324C178.436 293.324 178.713 293.375 178.782 293.392V292.369C178.667 292.361 178.402 292.352 178.253 292.352C177.469 292.352 176.787 292.795 176.549 293.443H176.48V292.455H175.509V299ZM180.821 301.455C181.728 301.455 182.367 300.973 182.747 299.955L185.534 292.472L184.434 292.455L182.627 297.67H182.559L180.752 292.455H179.662L182.082 299.034L181.894 299.545C181.528 300.543 181.076 300.636 180.343 300.449L180.088 301.335C180.19 301.386 180.48 301.455 180.821 301.455Z" fill="#9E9E9E"/>
<path d="M216.642 290.273V299H217.631V292.369H217.716L220.443 299H221.398L224.125 292.369H224.21V299H225.199V290.273H223.938L220.972 297.517H220.87L217.904 290.273H216.642ZM229.108 299.153C230.25 299.153 230.846 298.54 231.051 298.114H231.102V299H232.108V294.688C232.108 292.608 230.523 292.369 229.687 292.369C228.699 292.369 227.574 292.71 227.062 293.903L228.017 294.244C228.239 293.767 228.763 293.256 229.721 293.256C230.646 293.256 231.102 293.746 231.102 294.585V294.619C231.102 295.105 230.608 295.062 229.415 295.216C228.2 295.374 226.875 295.642 226.875 297.142C226.875 298.42 227.864 299.153 229.108 299.153ZM229.261 298.25C228.46 298.25 227.881 297.892 227.881 297.193C227.881 296.426 228.579 296.188 229.364 296.085C229.79 296.034 230.932 295.915 231.102 295.71V296.631C231.102 297.449 230.454 298.25 229.261 298.25ZM233.943 299H234.949V294.858C234.949 293.972 235.648 293.324 236.602 293.324C236.871 293.324 237.148 293.375 237.216 293.392V292.369C237.101 292.361 236.837 292.352 236.688 292.352C235.904 292.352 235.222 292.795 234.983 293.443H234.915V292.455H233.943V299ZM240.868 299.136C242.317 299.136 243.272 298.25 243.442 297.091H242.436C242.249 297.807 241.652 298.233 240.868 298.233C239.675 298.233 238.908 297.244 238.908 295.727C238.908 294.244 239.692 293.273 240.868 293.273C241.754 293.273 242.283 293.818 242.436 294.415H243.442C243.272 293.188 242.232 292.369 240.851 292.369C239.078 292.369 237.902 293.767 237.902 295.761C237.902 297.722 239.027 299.136 240.868 299.136ZM245.918 295.062C245.918 293.92 246.647 293.273 247.639 293.273C248.585 293.273 249.156 293.869 249.156 294.909V299H250.162V294.841C250.162 293.158 249.267 292.369 247.929 292.369C246.898 292.369 246.31 292.8 246.003 293.477H245.918V290.273H244.912V299H245.918V295.062Z" fill="#9E9E9E"/>
<path d="M294.624 299L295.502 296.528H299.03L299.908 299H301.016L297.811 290.273H296.72L293.516 299H294.624ZM295.834 295.591L297.232 291.653H297.3L298.698 295.591H295.834ZM302.239 301.455H303.244V297.994H303.33C303.551 298.352 303.977 299.136 305.239 299.136C306.875 299.136 308.017 297.824 308.017 295.744C308.017 293.682 306.875 292.369 305.222 292.369C303.943 292.369 303.551 293.153 303.33 293.494H303.21V292.455H302.239V301.455ZM303.227 295.727C303.227 294.261 303.875 293.273 305.102 293.273C306.381 293.273 307.012 294.347 307.012 295.727C307.012 297.125 306.364 298.233 305.102 298.233C303.892 298.233 303.227 297.21 303.227 295.727ZM309.551 299H310.557V294.858C310.557 293.972 311.256 293.324 312.21 293.324C312.479 293.324 312.756 293.375 312.824 293.392V292.369C312.709 292.361 312.445 292.352 312.296 292.352C311.512 292.352 310.83 292.795 310.591 293.443H310.523V292.455H309.551V299ZM314.016 299H315.022V292.455H314.016V299ZM314.528 291.364C314.92 291.364 315.243 291.057 315.243 290.682C315.243 290.307 314.92 290 314.528 290C314.135 290 313.812 290.307 313.812 290.682C313.812 291.057 314.135 291.364 314.528 291.364ZM317.869 290.273H316.864V299H317.869V290.273Z" fill="#9E9E9E"/>
<path d="M367.776 290.273V299H368.765V292.369H368.85L371.577 299H372.532L375.259 292.369H375.344V299H376.333V290.273H375.072L372.106 297.517H372.003L369.037 290.273H367.776ZM380.242 299.153C381.384 299.153 381.98 298.54 382.185 298.114H382.236V299H383.242V294.688C383.242 292.608 381.656 292.369 380.821 292.369C379.833 292.369 378.708 292.71 378.196 293.903L379.151 294.244C379.372 293.767 379.896 293.256 380.855 293.256C381.78 293.256 382.236 293.746 382.236 294.585V294.619C382.236 295.105 381.742 295.062 380.548 295.216C379.334 295.374 378.009 295.642 378.009 297.142C378.009 298.42 378.997 299.153 380.242 299.153ZM380.395 298.25C379.594 298.25 379.014 297.892 379.014 297.193C379.014 296.426 379.713 296.188 380.497 296.085C380.923 296.034 382.065 295.915 382.236 295.71V296.631C382.236 297.449 381.588 298.25 380.395 298.25ZM385.491 301.455C386.398 301.455 387.037 300.973 387.417 299.955L390.204 292.472L389.104 292.455L387.297 297.67H387.229L385.422 292.455H384.331L386.752 299.034L386.564 299.545C386.198 300.543 385.746 300.636 385.013 300.449L384.758 301.335C384.86 301.386 385.15 301.455 385.491 301.455Z" fill="#9E9E9E"/>
<path d="M441.985 290.273V296.511C441.985 297.598 441.465 298.182 440.553 298.182C439.722 298.182 439.121 297.696 439.121 296.955H438.082C438.082 298.297 439.121 299.119 440.553 299.119C442.07 299.119 443.042 298.186 443.042 296.511V290.273H441.985ZM449.148 296.324C449.148 297.551 448.211 298.114 447.461 298.114C446.626 298.114 446.029 297.5 446.029 296.545V292.455H445.023V296.614C445.023 298.284 445.91 299.085 447.137 299.085C448.126 299.085 448.773 298.557 449.08 297.892H449.148V299H450.154V292.455H449.148V296.324ZM453.002 295.062C453.002 293.92 453.709 293.273 454.672 293.273C455.606 293.273 456.172 293.882 456.172 294.909V299H457.178V294.841C457.178 293.17 456.287 292.369 454.962 292.369C453.973 292.369 453.36 292.812 453.053 293.477H452.968V292.455H451.996V299H453.002V295.062ZM461.76 299.136C463.09 299.136 464.061 298.472 464.368 297.483L463.396 297.21C463.141 297.892 462.548 298.233 461.76 298.233C460.58 298.233 459.766 297.47 459.719 296.068H464.47V295.642C464.47 293.205 463.021 292.369 461.658 292.369C459.885 292.369 458.709 293.767 458.709 295.778C458.709 297.79 459.868 299.136 461.76 299.136ZM459.719 295.199C459.787 294.18 460.507 293.273 461.658 293.273C462.749 293.273 463.447 294.091 463.447 295.199H459.719Z" fill="#9E9E9E"/>
<path d="M516.884 290.273V296.511C516.884 297.598 516.364 298.182 515.452 298.182C514.621 298.182 514.02 297.696 514.02 296.955H512.981C512.981 298.297 514.02 299.119 515.452 299.119C516.969 299.119 517.941 298.186 517.941 296.511V290.273H516.884ZM524.047 296.324C524.047 297.551 523.11 298.114 522.36 298.114C521.525 298.114 520.928 297.5 520.928 296.545V292.455H519.922V296.614C519.922 298.284 520.809 299.085 522.036 299.085C523.025 299.085 523.672 298.557 523.979 297.892H524.047V299H525.053V292.455H524.047V296.324ZM527.901 290.273H526.895V299H527.901V290.273ZM530.39 301.455C531.298 301.455 531.937 300.973 532.317 299.955L535.104 292.472L534.004 292.455L532.197 297.67H532.129L530.322 292.455H529.231L531.652 299.034L531.464 299.545C531.098 300.543 530.646 300.636 529.913 300.449L529.657 301.335C529.76 301.386 530.05 301.455 530.39 301.455Z" fill="#9E9E9E"/>
</g>
<defs>
<linearGradient id="paint0_linear" x1="303.938" y1="31.4609" x2="303.938" y2="285.655" gradientUnits="userSpaceOnUse">
<stop stop-color="#2196F3" stop-opacity="0.5"/>
<stop offset="1" stop-color="#2196F3" stop-opacity="0"/>
</linearGradient>
<clipPath id="clip0">
<rect width="570" height="304" fill="white" transform="translate(0 0.5)"/>
</clipPath>
</defs>
</svg>
