<svg width="270" height="74" viewBox="0 0 270 74" fill="none" xmlns="http://www.w3.org/2000/svg">
<mask id="mask0" mask-type="alpha" maskUnits="userSpaceOnUse" x="0" y="0" width="270" height="74">
<rect width="270" height="74" fill="#CACACA"/>
</mask>
<g mask="url(#mask0)">
<path d="M270 74.5H270.5V74V26.9496V25.9528L269.701 26.5489L264.6 30.3546L259.499 26.5489L259.2 26.3258L258.901 26.5489L253.933 30.2555L248.822 22.2208L248.348 21.4758L247.953 22.2655L242.829 32.5041L237.962 28.6131L232.6 21.4696L232.366 21.1579L232.006 21.3088L226.617 23.5717L221.85 13.7811L221.383 12.8235L220.944 13.794L215.805 25.1599L210.906 21.3741L210.525 21.0796L210.216 21.4495L204.893 27.8319L199.794 30.0058L194.586 27.9242L194.358 27.8334L194.147 27.9571L188.747 31.1226L188.633 31.1895L188.567 31.3039L183.49 40.0963L178.551 35.2267L178.164 34.8452L177.816 35.2625L172.654 41.4518L167.596 39.2955L167.239 39.1432L167.003 39.4514L161.845 46.1864L156.806 43.9043L156.445 43.7404L156.203 44.0557L151.283 50.4788L146.245 40.6779L146.208 40.6066L146.151 40.5504L140.751 35.2267L140.253 34.7355L139.949 35.3659L134.738 46.197L129.836 44.6297L124.506 40.5108L124.082 40.1838L123.785 40.6281L118.457 48.577L113.476 51.0989L108.33 46.5742L108.015 46.2973L107.688 46.5591L102.812 50.4563L97.6637 37.6978L97.3871 37.0125L96.8539 37.5241L91.9173 42.2594L86.8346 33.3212L86.3234 32.4221L85.9363 33.3812L80.7271 46.2898L75.7961 44.1875L75.4391 44.0353L75.2031 44.3435L69.8867 51.2846L64.853 53.2965L59.6694 49.9816L59.5642 49.9144L59.4398 49.9045L54.2175 49.487L48.9461 44.4305L48.8483 44.3367L48.7166 44.3052L43.3166 43.0102L43.074 42.952L42.8816 43.1109L37.7512 47.3486L32.6529 44.36L32.197 44.0928L31.9553 44.5628L26.8017 54.587L21.8613 51.5593L21.5276 51.3548L21.249 51.6296L16.076 56.7294L10.9748 54.8265L10.6673 54.7118L10.4397 54.9483L5.37118 60.2153L0.330165 55.7828L-0.5 55.0528V56.1583V74V74.5H0H270Z" fill="url(#paint0_linear)" stroke="#3F51B5"/>
</g>
<defs>
<linearGradient id="paint0_linear" x1="135" y1="14" x2="135" y2="74" gradientUnits="userSpaceOnUse">
<stop stop-color="#3F51B5" stop-opacity="0.5"/>
<stop offset="1" stop-color="#3F51B5" stop-opacity="0"/>
</linearGradient>
</defs>
</svg>
