<svg width="270" height="74" viewBox="0 0 270 74" fill="none" xmlns="http://www.w3.org/2000/svg">
<mask id="mask0" mask-type="alpha" maskUnits="userSpaceOnUse" x="0" y="0" width="270" height="74">
<rect width="270" height="74" fill="#CACACA"/>
</mask>
<g mask="url(#mask0)">
<path d="M270 74.5004H270.5V74.0004V46.9501V45.9532L269.701 46.5493L264.83 50.1837L259.667 36.7704L259.43 36.1549L258.901 36.5493L253.576 40.5224L248.265 42.0081L247.988 42.0856L247.916 42.3639L242.912 61.6309L238.068 48.788L238.043 48.7213L238 48.6643L232.6 41.47L232.366 41.1583L232.006 41.3092L226.555 43.5979L221.812 36.7166L221.372 36.0791L220.972 36.7419L216.049 44.8948L211.05 34.5526L210.431 33.2725L210.113 34.6581L204.964 57.0386L200.209 50.26L199.796 49.6711L199.388 50.2636L194.71 57.057L189.495 21.4818L189.286 20.0589L188.567 21.3044L183.49 30.0967L178.551 25.2271L177.894 24.5797L177.71 25.4832L172.433 51.3578L167.596 49.2959L167.09 49.0799L166.923 49.6048L162.066 64.9422L157.086 44.2432L156.841 43.2234L156.203 44.0561L151.283 50.4793L146.26 40.7086L140.872 25.417L140.471 24.2815L139.949 25.3664L135.151 35.3397L130.085 14.9589L129.862 14.0611L129.233 14.7397L124.058 20.3245L118.969 18.494L118.766 18.421L118.574 18.5184L113.476 21.0993L108.347 16.5894L102.962 10.9222L102.571 10.5107L102.213 10.9505L96.8126 17.5692L96.7208 17.6818L96.7035 17.826L91.4838 61.4976L86.8346 53.3216L86.5768 52.8681L86.1346 53.145L80.9559 56.3877L75.7961 54.188L75.3445 53.9954L75.1437 54.4434L69.8265 66.3091L64.6379 68.3828L59.3495 69.8977L54.2175 69.4874L49.0118 64.494L43.6511 53.2812L43.375 52.7037L42.8816 53.1113L37.7512 57.3491L32.6529 54.3604L32.197 54.0932L31.9553 54.5632L26.5787 65.0212L21.536 71.2692L16.5273 66.9318L16.4592 66.8728L16.3748 66.8413L10.9748 64.8269L10.6673 64.7122L10.4397 64.9487L5.37118 70.2157L0.330165 65.7832L-0.5 65.0532V66.1587V74.0004V74.5004H0H270Z" fill="url(#paint0_linear)" stroke="#3F51B5"/>
</g>
<defs>
<linearGradient id="paint0_linear" x1="135" y1="14" x2="135" y2="74" gradientUnits="userSpaceOnUse">
<stop stop-color="#3F51B5" stop-opacity="0.5"/>
<stop offset="1" stop-color="#3F51B5" stop-opacity="0"/>
</linearGradient>
</defs>
</svg>
