<svg width="270" height="74" viewBox="0 0 270 74" fill="none" xmlns="http://www.w3.org/2000/svg">
<mask id="mask0" mask-type="alpha" maskUnits="userSpaceOnUse" x="0" y="0" width="270" height="74">
<rect width="270" height="74" fill="#CACACA"/>
</mask>
<g mask="url(#mask0)">
<path d="M270 74.5005H270.5V74.0005V36.9501V35.9532L269.701 36.5493L264.301 40.5781L264.262 40.6073L264.229 40.6435L259.2 46.2047L254.199 40.6748L248.822 32.2213L248.348 31.4763L247.953 32.2659L242.553 43.0573L242.538 43.0869L242.527 43.1183L237.434 57.9105L232.6 51.4701L232.596 51.4649L226.77 43.9109L226.287 43.2845L225.928 43.9897L221.341 53.0138L216.415 45.6646L216.37 45.597L216.306 45.5473L211.014 41.4581L205.664 28.0597L205.222 26.9513L204.742 28.0441L199.537 39.9035L194.71 37.9742L189.392 31.2444L188.935 30.6662L188.567 31.3044L183.71 39.7158L178.672 25.417L178.379 24.5876L177.816 25.263L172.933 31.1176L167.858 19.5549L167.518 18.7799L167.003 19.4518L161.845 26.1869L156.823 23.9124L151.44 20.9717L151.349 20.9223L151.246 20.9127L145.846 20.4091L145.464 20.3734L145.331 20.7343L140.286 34.4442L135.426 26.5442L135.012 25.8723L134.581 26.5329L129.477 34.3529L124.506 30.5113L123.863 30.0144L123.709 30.8124L118.524 57.7545L113.801 51.4001L113.77 51.3577L113.73 51.3228L108.33 46.5746L108.015 46.2978L107.688 46.5595L102.565 50.6547L97.4654 47.4616L97.3775 47.4066L97.2751 47.391L92.1148 46.6073L86.8346 37.3217L86.7092 37.101L86.4569 37.0721L81.1292 36.4616L75.7961 34.188L75.4391 34.0358L75.2031 34.3439L69.8031 41.3943L69.7391 41.4778L69.7142 41.5799L64.4799 63.0584L59.6694 59.9821L59.5642 59.9149L59.4398 59.9049L54.2175 59.4875L48.9461 54.431L48.8483 54.3372L48.7166 54.3056L43.4571 53.0444L38.2553 47.7081L32.8869 24.6783L32.5779 23.3523L31.9553 24.5632L26.8017 34.5875L21.8613 31.5598L21.5276 31.3553L21.249 31.63L15.849 36.9538L15.8136 36.9886L15.7858 37.0297L10.3858 45.0153L10.3398 45.0834L10.3179 45.1627L4.99699 64.4871L-0.112913 65.6717L-0.5 65.7614V66.1587V74.0005V74.5005H0H270Z" fill="url(#paint0_linear)" stroke="#3F51B5"/>
</g>
<defs>
<linearGradient id="paint0_linear" x1="135" y1="14" x2="135" y2="74" gradientUnits="userSpaceOnUse">
<stop stop-color="#3F51B5" stop-opacity="0.5"/>
<stop offset="1" stop-color="#3F51B5" stop-opacity="0"/>
</linearGradient>
</defs>
</svg>
